$MeshFormat
4.1 0 8
$EndMeshFormat
$PhysicalNames
18
1 1 "Electrode1"
1 2 "Electrode2"
1 3 "Electrode3"
1 4 "Electrode4"
1 5 "Electrode5"
1 6 "Electrode6"
1 7 "Electrode7"
1 8 "Electrode8"
1 9 "Electrode9"
1 10 "Electrode10"
1 11 "Electrode11"
1 12 "Electrode12"
1 13 "Electrode13"
1 14 "Electrode14"
1 15 "Electrode15"
1 16 "Electrode16"
1 17 "No-Electrode"
2 1 "domain"
$EndPhysicalNames
$Entities
192 192 1 0
1 0.9945218953682733 -0.1045284632676535 0 0 
2 0.9972037971811801 -0.07473009358642424 0 0 
3 0.9989930665413147 -0.04486483035051493 0 0 
4 0.9998881018102734 -0.01495940701526363 0 0 
5 0.9998881018102734 0.01495940701526361 0 0 
6 0.9989930665413147 0.04486483035051492 0 0 
7 0.9972037971811801 0.07473009358642423 0 0 
8 0.9945218953682733 0.1045284632676535 0 0 
9 0.9900236577165575 0.1409012319375827 0 0 
10 0.9841956079692419 0.1770847403195833 0 0 
11 0.9770455744352636 0.2130303862749766 0 0 
12 0.9685831611286311 0.2486898871648548 0 0 
13 0.9588197348681931 0.2840153447039226 0 0 
14 0.949894146672846 0.3125717679456445 0 0 
15 0.940118274569219 0.3408483971225249 0 0 
16 0.9295008692868207 0.3688199208218619 0 0 
17 0.9180514348413259 0.3964613007416775 0 0 
18 0.905780220027194 0.4237477941033887 0 0 
19 0.8926982092436115 0.4506549757999452 0 0 
20 0.8788171126619654 0.4771587602596084 0 0 
21 0.8607420270039436 0.5090414157503713 0 0 
22 0.8415107819453062 0.540240320477655 0 0 
23 0.821149209133704 0.5707135676844316 0 0 
24 0.7996846584870906 0.600420225325884 0 0 
25 0.7771459614569708 0.6293203910498375 0 0 
26 0.7579717231454529 0.6522874112781212 0 0 
27 0.7381189974873407 0.6746705459320743 0 0 
28 0.7176055553608119 0.6964497590747668 0 0 
29 0.6964497590747669 0.7176055553608117 0 0 
30 0.6746705459320743 0.7381189974873406 0 0 
31 0.6522874112781212 0.7579717231454529 0 0 
32 0.6293203910498375 0.7771459614569708 0 0 
33 0.6004202253258841 0.7996846584870905 0 0 
34 0.5707135676844318 0.8211492091337039 0 0 
35 0.5402403204776551 0.8415107819453062 0 0 
36 0.5090414157503712 0.8607420270039436 0 0 
37 0.4771587602596084 0.8788171126619654 0 0 
38 0.4506549757999451 0.8926982092436115 0 0 
39 0.4237477941033888 0.905780220027194 0 0 
40 0.3964613007416776 0.9180514348413258 0 0 
41 0.368819920821862 0.9295008692868207 0 0 
42 0.340848397122525 0.940118274569219 0 0 
43 0.3125717679456447 0.9498941466728459 0 0 
44 0.2840153447039228 0.9588197348681931 0 0 
45 0.248689887164855 0.9685831611286311 0 0 
46 0.2130303862749766 0.9770455744352636 0 0 
47 0.1770847403195834 0.9841956079692419 0 0 
48 0.1409012319375826 0.9900236577165575 0 0 
49 0.1045284632676535 0.9945218953682733 0 0 
50 0.07473009358642417 0.9972037971811801 0 0 
51 0.04486483035051499 0.9989930665413146 0 0 
52 0.01495940701526361 0.9998881018102734 0 0 
53 -0.01495940701526348 0.9998881018102734 0 0 
54 -0.04486483035051464 0.9989930665413147 0 0 
55 -0.07473009358642427 0.9972037971811801 0 0 
56 -0.1045284632676533 0.9945218953682734 0 0 
57 -0.1409012319375827 0.9900236577165575 0 0 
58 -0.1770847403195833 0.9841956079692419 0 0 
59 -0.2130303862749765 0.9770455744352636 0 0 
60 -0.2486898871648546 0.9685831611286312 0 0 
61 -0.2840153447039226 0.9588197348681931 0 0 
62 -0.3125717679456443 0.949894146672846 0 0 
63 -0.340848397122525 0.940118274569219 0 0 
64 -0.3688199208218619 0.9295008692868207 0 0 
65 -0.3964613007416775 0.9180514348413259 0 0 
66 -0.4237477941033886 0.905780220027194 0 0 
67 -0.4506549757999454 0.8926982092436114 0 0 
68 -0.4771587602596085 0.8788171126619654 0 0 
69 -0.5090414157503713 0.8607420270039436 0 0 
70 -0.540240320477655 0.8415107819453062 0 0 
71 -0.5707135676844316 0.8211492091337041 0 0 
72 -0.6004202253258839 0.7996846584870906 0 0 
73 -0.6293203910498373 0.777145961456971 0 0 
74 -0.6522874112781208 0.7579717231454532 0 0 
75 -0.6746705459320743 0.7381189974873407 0 0 
76 -0.6964497590747667 0.7176055553608121 0 0 
77 -0.7176055553608119 0.6964497590747668 0 0 
78 -0.7381189974873406 0.6746705459320744 0 0 
79 -0.7579717231454531 0.652287411278121 0 0 
80 -0.7771459614569709 0.6293203910498374 0 0 
81 -0.7996846584870906 0.600420225325884 0 0 
82 -0.821149209133704 0.5707135676844317 0 0 
83 -0.841510781945306 0.5402403204776551 0 0 
84 -0.8607420270039435 0.5090414157503714 0 0 
85 -0.8788171126619653 0.4771587602596086 0 0 
86 -0.8926982092436113 0.4506549757999456 0 0 
87 -0.905780220027194 0.4237477941033888 0 0 
88 -0.9180514348413257 0.3964613007416778 0 0 
89 -0.9295008692868207 0.3688199208218619 0 0 
90 -0.940118274569219 0.340848397122525 0 0 
91 -0.949894146672846 0.3125717679456443 0 0 
92 -0.9588197348681931 0.2840153447039226 0 0 
93 -0.9685831611286311 0.2486898871648548 0 0 
94 -0.9770455744352636 0.2130303862749767 0 0 
95 -0.9841956079692419 0.1770847403195834 0 0 
96 -0.9900236577165575 0.1409012319375829 0 0 
97 -0.9945218953682733 0.1045284632676537 0 0 
98 -0.9972037971811801 0.07473009358642467 0 0 
99 -0.9989930665413146 0.04486483035051505 0 0 
100 -0.9998881018102734 0.01495940701526389 0 0 
101 -0.9998881018102734 -0.01495940701526364 0 0 
102 -0.9989930665413146 -0.04486483035051524 0 0 
103 -0.9972037971811801 -0.07473009358642442 0 0 
104 -0.9945218953682733 -0.1045284632676535 0 0 
105 -0.9900236577165575 -0.1409012319375831 0 0 
106 -0.984195607969242 -0.1770847403195832 0 0 
107 -0.9770455744352636 -0.2130303862749764 0 0 
108 -0.9685831611286313 -0.2486898871648542 0 0 
109 -0.9588197348681932 -0.2840153447039224 0 0 
110 -0.9498941466728461 -0.3125717679456441 0 0 
111 -0.9401182745692191 -0.3408483971225247 0 0 
112 -0.9295008692868209 -0.3688199208218617 0 0 
113 -0.9180514348413258 -0.3964613007416776 0 0 
114 -0.9057802200271942 -0.4237477941033886 0 0 
115 -0.8926982092436114 -0.4506549757999453 0 0 
116 -0.8788171126619654 -0.4771587602596084 0 0 
117 -0.8607420270039434 -0.5090414157503717 0 0 
118 -0.8415107819453062 -0.5402403204776549 0 0 
119 -0.8211492091337041 -0.5707135676844315 0 0 
120 -0.7996846584870909 -0.6004202253258835 0 0 
121 -0.7771459614569711 -0.6293203910498373 0 0 
122 -0.7579717231454532 -0.6522874112781208 0 0 
123 -0.7381189974873408 -0.6746705459320742 0 0 
124 -0.7176055553608121 -0.6964497590747666 0 0 
125 -0.6964497590747668 -0.7176055553608118 0 0 
126 -0.6746705459320744 -0.7381189974873406 0 0 
127 -0.6522874112781211 -0.757971723145453 0 0 
128 -0.6293203910498371 -0.7771459614569711 0 0 
129 -0.6004202253258841 -0.7996846584870905 0 0 
130 -0.5707135676844322 -0.8211492091337037 0 0 
131 -0.5402403204776551 -0.841510781945306 0 0 
132 -0.5090414157503719 -0.8607420270039433 0 0 
133 -0.4771587602596087 -0.8788171126619653 0 0 
134 -0.450654975799946 -0.8926982092436111 0 0 
135 -0.4237477941033885 -0.9057802200271942 0 0 
136 -0.3964613007416778 -0.9180514348413257 0 0 
137 -0.368819920821862 -0.9295008692868207 0 0 
138 -0.3408483971225255 -0.9401182745692188 0 0 
139 -0.312571767945644 -0.9498941466728461 0 0 
140 -0.2840153447039226 -0.9588197348681931 0 0 
141 -0.2486898871648544 -0.9685831611286312 0 0 
142 -0.2130303862749767 -0.9770455744352636 0 0 
143 -0.1770847403195831 -0.984195607969242 0 0 
144 -0.1409012319375829 -0.9900236577165575 0 0 
145 -0.1045284632676542 -0.9945218953682733 0 0 
146 -0.07473009358642473 -0.9972037971811801 0 0 
147 -0.0448648303505151 -0.9989930665413146 0 0 
148 -0.0149594070152635 -0.9998881018102734 0 0 
149 0.01495940701526314 -0.9998881018102734 0 0 
150 0.04486483035051474 -0.9989930665413147 0 0 
151 0.07473009358642436 -0.9972037971811801 0 0 
152 0.1045284632676539 -0.9945218953682733 0 0 
153 0.1409012319375826 -0.9900236577165575 0 0 
154 0.1770847403195827 -0.984195607969242 0 0 
155 0.2130303862749764 -0.9770455744352636 0 0 
156 0.2486898871648541 -0.9685831611286313 0 0 
157 0.2840153447039223 -0.9588197348681932 0 0 
158 0.3125717679456436 -0.9498941466728462 0 0 
159 0.3408483971225251 -0.9401182745692189 0 0 
160 0.3688199208218616 -0.9295008692868209 0 0 
161 0.3964613007416775 -0.9180514348413258 0 0 
162 0.4237477941033881 -0.9057802200271944 0 0 
163 0.4506549757999457 -0.8926982092436113 0 0 
164 0.4771587602596083 -0.8788171126619654 0 0 
165 0.5090414157503715 -0.8607420270039434 0 0 
166 0.5402403204776549 -0.8415107819453063 0 0 
167 0.5707135676844318 -0.8211492091337039 0 0 
168 0.6004202253258838 -0.7996846584870907 0 0 
169 0.6293203910498368 -0.7771459614569713 0 0 
170 0.6522874112781207 -0.7579717231454534 0 0 
171 0.6746705459320742 -0.7381189974873408 0 0 
172 0.6964497590747669 -0.7176055553608118 0 0 
173 0.7176055553608115 -0.6964497590747672 0 0 
174 0.7381189974873404 -0.6746705459320745 0 0 
175 0.757971723145453 -0.6522874112781211 0 0 
176 0.7771459614569711 -0.6293203910498372 0 0 
177 0.7996846584870905 -0.6004202253258841 0 0 
178 0.8211492091337037 -0.5707135676844323 0 0 
179 0.841510781945306 -0.5402403204776552 0 0 
180 0.8607420270039432 -0.509041415750372 0 0 
181 0.8788171126619652 -0.4771587602596087 0 0 
182 0.8926982092436111 -0.4506549757999461 0 0 
183 0.9057802200271942 -0.4237477941033885 0 0 
184 0.9180514348413257 -0.3964613007416779 0 0 
185 0.9295008692868207 -0.368819920821862 0 0 
186 0.9401182745692188 -0.3408483971225255 0 0 
187 0.9498941466728461 -0.312571767945644 0 0 
188 0.9588197348681931 -0.2840153447039227 0 0 
189 0.9685831611286312 -0.2486898871648545 0 0 
190 0.9770455744352636 -0.2130303862749768 0 0 
191 0.984195607969242 -0.1770847403195831 0 0 
192 0.9900236577165575 -0.140901231937583 0 0 
1 0.9945217953682733 -0.1045285632676535 -1e-07 0.9972038971811801 -0.07472999358642424 1e-07 1 1 2 1 -2 
2 0.9972036971811802 -0.07473019358642424 -1e-07 0.9989931665413146 -0.04486473035051493 1e-07 1 1 2 2 -3 
3 0.9989929665413148 -0.04486493035051493 -1e-07 0.9998882018102734 -0.01495930701526363 1e-07 1 1 2 3 -4 
4 0.9998880018102735 -0.01495950701526363 -1e-07 0.9998882018102734 0.01495950701526361 1e-07 1 1 2 4 -5 
5 0.9989929665413148 0.01495930701526361 -1e-07 0.9998882018102734 0.04486493035051492 1e-07 1 1 2 5 -6 
6 0.9972036971811802 0.04486473035051491 -1e-07 0.9989931665413146 0.07473019358642423 1e-07 1 1 2 6 -7 
7 0.9945217953682733 0.07472999358642422 -1e-07 0.9972038971811801 0.1045285632676535 1e-07 1 1 2 7 -8 
8 0.9900235577165576 0.1045283632676535 -1e-07 0.9945219953682732 0.1409013319375827 1e-07 1 0 2 8 -9 
9 0.9841955079692419 0.1409011319375827 -1e-07 0.9900237577165575 0.1770848403195833 1e-07 1 0 2 9 -10 
10 0.9770454744352637 0.1770846403195833 -1e-07 0.9841957079692418 0.2130304862749766 1e-07 1 0 2 10 -11 
11 0.9685830611286311 0.2130302862749766 -1e-07 0.9770456744352636 0.2486899871648548 1e-07 1 0 2 11 -12 
12 0.9588196348681931 0.2486897871648548 -1e-07 0.968583261128631 0.2840154447039226 1e-07 1 0 2 12 -13 
13 0.949894046672846 0.2840152447039226 -1e-07 0.958819834868193 0.3125718679456445 1e-07 1 2 2 13 -14 
14 0.9401181745692191 0.3125716679456444 -1e-07 0.9498942466728459 0.3408484971225249 1e-07 1 2 2 14 -15 
15 0.9295007692868208 0.3408482971225249 -1e-07 0.940118374569219 0.3688200208218619 1e-07 1 2 2 15 -16 
16 0.918051334841326 0.3688198208218619 -1e-07 0.9295009692868207 0.3964614007416775 1e-07 1 2 2 16 -17 
17 0.9057801200271941 0.3964612007416775 -1e-07 0.9180515348413258 0.4237478941033887 1e-07 1 2 2 17 -18 
18 0.8926981092436116 0.4237476941033887 -1e-07 0.905780320027194 0.4506550757999452 1e-07 1 2 2 18 -19 
19 0.8788170126619654 0.4506548757999452 -1e-07 0.8926983092436115 0.4771588602596084 1e-07 1 2 2 19 -20 
20 0.8607419270039437 0.4771586602596084 -1e-07 0.8788172126619653 0.5090415157503713 1e-07 1 0 2 20 -21 
21 0.8415106819453062 0.5090413157503714 -1e-07 0.8607421270039436 0.540240420477655 1e-07 1 0 2 21 -22 
22 0.8211491091337041 0.5402402204776551 -1e-07 0.8415108819453061 0.5707136676844315 1e-07 1 0 2 22 -23 
23 0.7996845584870906 0.5707134676844317 -1e-07 0.821149309133704 0.600420325325884 1e-07 1 0 2 23 -24 
24 0.7771458614569708 0.6004201253258841 -1e-07 0.7996847584870905 0.6293204910498374 1e-07 1 0 2 24 -25 
25 0.757971623145453 0.6293202910498376 -1e-07 0.7771460614569707 0.6522875112781211 1e-07 1 3 2 25 -26 
26 0.7381188974873407 0.6522873112781212 -1e-07 0.7579718231454529 0.6746706459320743 1e-07 1 3 2 26 -27 
27 0.717605455360812 0.6746704459320744 -1e-07 0.7381190974873406 0.6964498590747668 1e-07 1 3 2 27 -28 
28 0.696449659074767 0.6964496590747669 -1e-07 0.7176056553608119 0.7176056553608117 1e-07 1 3 2 28 -29 
29 0.6746704459320744 0.7176054553608118 -1e-07 0.6964498590747669 0.7381190974873405 1e-07 1 3 2 29 -30 
30 0.6522873112781212 0.7381188974873406 -1e-07 0.6746706459320743 0.7579718231454529 1e-07 1 3 2 30 -31 
31 0.6293202910498376 0.757971623145453 -1e-07 0.6522875112781211 0.7771460614569707 1e-07 1 3 2 31 -32 
32 0.6004201253258842 0.7771458614569708 -1e-07 0.6293204910498374 0.7996847584870904 1e-07 1 0 2 32 -33 
33 0.5707134676844319 0.7996845584870905 -1e-07 0.6004203253258841 0.8211493091337039 1e-07 1 0 2 33 -34 
34 0.5402402204776552 0.821149109133704 -1e-07 0.5707136676844318 0.8415108819453061 1e-07 1 0 2 34 -35 
35 0.5090413157503713 0.8415106819453062 -1e-07 0.5402404204776551 0.8607421270039436 1e-07 1 0 2 35 -36 
36 0.4771586602596084 0.8607419270039437 -1e-07 0.5090415157503712 0.8788172126619653 1e-07 1 0 2 36 -37 
37 0.4506548757999451 0.8788170126619654 -1e-07 0.4771588602596084 0.8926983092436115 1e-07 1 4 2 37 -38 
38 0.4237476941033888 0.8926981092436116 -1e-07 0.4506550757999451 0.905780320027194 1e-07 1 4 2 38 -39 
39 0.3964612007416776 0.9057801200271941 -1e-07 0.4237478941033888 0.9180515348413257 1e-07 1 4 2 39 -40 
40 0.368819820821862 0.9180513348413258 -1e-07 0.3964614007416776 0.9295009692868207 1e-07 1 4 2 40 -41 
41 0.340848297122525 0.9295007692868208 -1e-07 0.368820020821862 0.940118374569219 1e-07 1 4 2 41 -42 
42 0.3125716679456447 0.9401181745692191 -1e-07 0.340848497122525 0.9498942466728458 1e-07 1 4 2 42 -43 
43 0.2840152447039228 0.9498940466728459 -1e-07 0.3125718679456447 0.958819834868193 1e-07 1 4 2 43 -44 
44 0.248689787164855 0.9588196348681931 -1e-07 0.2840154447039228 0.968583261128631 1e-07 1 0 2 44 -45 
45 0.2130302862749766 0.9685830611286311 -1e-07 0.248689987164855 0.9770456744352636 1e-07 1 0 2 45 -46 
46 0.1770846403195834 0.9770454744352637 -1e-07 0.2130304862749766 0.9841957079692418 1e-07 1 0 2 46 -47 
47 0.1409011319375826 0.9841955079692419 -1e-07 0.1770848403195834 0.9900237577165575 1e-07 1 0 2 47 -48 
48 0.1045283632676535 0.9900235577165576 -1e-07 0.1409013319375826 0.9945219953682732 1e-07 1 0 2 48 -49 
49 0.07472999358642417 0.9945217953682733 -1e-07 0.1045285632676535 0.9972038971811801 1e-07 1 5 2 49 -50 
50 0.04486473035051498 0.9972036971811802 -1e-07 0.07473019358642417 0.9989931665413145 1e-07 1 5 2 50 -51 
51 0.0149593070152636 0.9989929665413146 -1e-07 0.04486493035051499 0.9998882018102734 1e-07 1 5 2 51 -52 
52 -0.01495950701526348 0.9998880018102735 -1e-07 0.0149595070152636 0.9998882018102734 1e-07 1 5 2 52 -53 
53 -0.04486493035051464 0.9989929665413148 -1e-07 -0.01495930701526348 0.9998882018102734 1e-07 1 5 2 53 -54 
54 -0.07473019358642427 0.9972036971811802 -1e-07 -0.04486473035051464 0.9989931665413146 1e-07 1 5 2 54 -55 
55 -0.1045285632676533 0.9945217953682735 -1e-07 -0.07472999358642426 0.9972038971811801 1e-07 1 5 2 55 -56 
56 -0.1409013319375827 0.9900235577165576 -1e-07 -0.1045283632676533 0.9945219953682733 1e-07 1 0 2 56 -57 
57 -0.1770848403195833 0.9841955079692419 -1e-07 -0.1409011319375827 0.9900237577165575 1e-07 1 0 2 57 -58 
58 -0.2130304862749765 0.9770454744352637 -1e-07 -0.1770846403195833 0.9841957079692418 1e-07 1 0 2 58 -59 
59 -0.2486899871648546 0.9685830611286312 -1e-07 -0.2130302862749765 0.9770456744352636 1e-07 1 0 2 59 -60 
60 -0.2840154447039226 0.9588196348681931 -1e-07 -0.2486897871648546 0.9685832611286311 1e-07 1 0 2 60 -61 
61 -0.3125718679456443 0.949894046672846 -1e-07 -0.2840152447039226 0.958819834868193 1e-07 1 6 2 61 -62 
62 -0.340848497122525 0.9401181745692191 -1e-07 -0.3125716679456443 0.9498942466728459 1e-07 1 6 2 62 -63 
63 -0.3688200208218619 0.9295007692868208 -1e-07 -0.340848297122525 0.940118374569219 1e-07 1 6 2 63 -64 
64 -0.3964614007416775 0.918051334841326 -1e-07 -0.3688198208218619 0.9295009692868207 1e-07 1 6 2 64 -65 
65 -0.4237478941033886 0.9057801200271941 -1e-07 -0.3964612007416775 0.9180515348413258 1e-07 1 6 2 65 -66 
66 -0.4506550757999454 0.8926981092436115 -1e-07 -0.4237476941033886 0.905780320027194 1e-07 1 6 2 66 -67 
67 -0.4771588602596085 0.8788170126619654 -1e-07 -0.4506548757999454 0.8926983092436114 1e-07 1 6 2 67 -68 
68 -0.5090415157503713 0.8607419270039437 -1e-07 -0.4771586602596085 0.8788172126619653 1e-07 1 0 2 68 -69 
69 -0.540240420477655 0.8415106819453062 -1e-07 -0.5090413157503714 0.8607421270039436 1e-07 1 0 2 69 -70 
70 -0.5707136676844315 0.8211491091337042 -1e-07 -0.5402402204776551 0.8415108819453061 1e-07 1 0 2 70 -71 
71 -0.6004203253258839 0.7996845584870906 -1e-07 -0.5707134676844317 0.8211493091337041 1e-07 1 0 2 71 -72 
72 -0.6293204910498372 0.7771458614569711 -1e-07 -0.600420125325884 0.7996847584870905 1e-07 1 0 2 72 -73 
73 -0.6522875112781208 0.7579716231454533 -1e-07 -0.6293202910498373 0.777146061456971 1e-07 1 7 2 73 -74 
74 -0.6746706459320743 0.7381188974873407 -1e-07 -0.6522873112781209 0.7579718231454532 1e-07 1 7 2 74 -75 
75 -0.6964498590747666 0.7176054553608121 -1e-07 -0.6746704459320744 0.7381190974873406 1e-07 1 7 2 75 -76 
76 -0.7176056553608119 0.6964496590747669 -1e-07 -0.6964496590747667 0.717605655360812 1e-07 1 7 2 76 -77 
77 -0.7381190974873405 0.6746704459320745 -1e-07 -0.717605455360812 0.6964498590747668 1e-07 1 7 2 77 -78 
78 -0.7579718231454531 0.652287311278121 -1e-07 -0.7381188974873406 0.6746706459320744 1e-07 1 7 2 78 -79 
79 -0.7771460614569708 0.6293202910498374 -1e-07 -0.7579716231454532 0.6522875112781209 1e-07 1 7 2 79 -80 
80 -0.7996847584870905 0.6004201253258841 -1e-07 -0.777145861456971 0.6293204910498373 1e-07 1 0 2 80 -81 
81 -0.821149309133704 0.5707134676844318 -1e-07 -0.7996845584870906 0.600420325325884 1e-07 1 0 2 81 -82 
82 -0.841510881945306 0.5402402204776552 -1e-07 -0.8211491091337041 0.5707136676844317 1e-07 1 0 2 82 -83 
83 -0.8607421270039435 0.5090413157503715 -1e-07 -0.8415106819453061 0.5402404204776551 1e-07 1 0 2 83 -84 
84 -0.8788172126619652 0.4771586602596086 -1e-07 -0.8607419270039436 0.5090415157503714 1e-07 1 0 2 84 -85 
85 -0.8926983092436113 0.4506548757999456 -1e-07 -0.8788170126619653 0.4771588602596086 1e-07 1 8 2 85 -86 
86 -0.905780320027194 0.4237476941033888 -1e-07 -0.8926981092436114 0.4506550757999456 1e-07 1 8 2 86 -87 
87 -0.9180515348413256 0.3964612007416778 -1e-07 -0.9057801200271941 0.4237478941033888 1e-07 1 8 2 87 -88 
88 -0.9295009692868207 0.3688198208218619 -1e-07 -0.9180513348413257 0.3964614007416778 1e-07 1 8 2 88 -89 
89 -0.940118374569219 0.340848297122525 -1e-07 -0.9295007692868208 0.3688200208218619 1e-07 1 8 2 89 -90 
90 -0.9498942466728459 0.3125716679456443 -1e-07 -0.9401181745692191 0.340848497122525 1e-07 1 8 2 90 -91 
91 -0.958819834868193 0.2840152447039226 -1e-07 -0.949894046672846 0.3125718679456443 1e-07 1 8 2 91 -92 
92 -0.968583261128631 0.2486897871648548 -1e-07 -0.9588196348681931 0.2840154447039226 1e-07 1 0 2 92 -93 
93 -0.9770456744352636 0.2130302862749767 -1e-07 -0.9685830611286311 0.2486899871648548 1e-07 1 0 2 93 -94 
94 -0.9841957079692418 0.1770846403195834 -1e-07 -0.9770454744352637 0.2130304862749767 1e-07 1 0 2 94 -95 
95 -0.9900237577165575 0.1409011319375829 -1e-07 -0.9841955079692419 0.1770848403195834 1e-07 1 0 2 95 -96 
96 -0.9945219953682732 0.1045283632676537 -1e-07 -0.9900235577165576 0.1409013319375829 1e-07 1 0 2 96 -97 
97 -0.9972038971811801 0.07472999358642467 -1e-07 -0.9945217953682733 0.1045285632676537 1e-07 1 9 2 97 -98 
98 -0.9989931665413145 0.04486473035051505 -1e-07 -0.9972036971811802 0.07473019358642467 1e-07 1 9 2 98 -99 
99 -0.9998882018102734 0.01495930701526389 -1e-07 -0.9989929665413146 0.04486493035051505 1e-07 1 9 2 99 -100 
100 -0.9998882018102734 -0.01495950701526364 -1e-07 -0.9998880018102735 0.01495950701526389 1e-07 1 9 2 100 -101 
101 -0.9998882018102734 -0.04486493035051525 -1e-07 -0.9989929665413146 -0.01495930701526364 1e-07 1 9 2 101 -102 
102 -0.9989931665413145 -0.07473019358642442 -1e-07 -0.9972036971811802 -0.04486473035051524 1e-07 1 9 2 102 -103 
103 -0.9972038971811801 -0.1045285632676535 -1e-07 -0.9945217953682733 -0.07472999358642442 1e-07 1 9 2 103 -104 
104 -0.9945219953682732 -0.1409013319375831 -1e-07 -0.9900235577165576 -0.1045283632676535 1e-07 1 0 2 104 -105 
105 -0.9900237577165575 -0.1770848403195832 -1e-07 -0.984195507969242 -0.1409011319375831 1e-07 1 0 2 105 -106 
106 -0.9841957079692419 -0.2130304862749764 -1e-07 -0.9770454744352637 -0.1770846403195832 1e-07 1 0 2 106 -107 
107 -0.9770456744352636 -0.2486899871648542 -1e-07 -0.9685830611286314 -0.2130302862749764 1e-07 1 0 2 107 -108 
108 -0.9685832611286312 -0.2840154447039224 -1e-07 -0.9588196348681932 -0.2486897871648542 1e-07 1 0 2 108 -109 
109 -0.9588198348681931 -0.3125718679456441 -1e-07 -0.9498940466728462 -0.2840152447039224 1e-07 1 10 2 109 -110 
110 -0.9498942466728461 -0.3408484971225247 -1e-07 -0.9401181745692192 -0.3125716679456441 1e-07 1 10 2 110 -111 
111 -0.9401183745692191 -0.3688200208218617 -1e-07 -0.9295007692868209 -0.3408482971225247 1e-07 1 10 2 111 -112 
112 -0.9295009692868208 -0.3964614007416776 -1e-07 -0.9180513348413258 -0.3688198208218617 1e-07 1 10 2 112 -113 
113 -0.9180515348413257 -0.4237478941033886 -1e-07 -0.9057801200271942 -0.3964612007416776 1e-07 1 10 2 113 -114 
114 -0.9057803200271941 -0.4506550757999453 -1e-07 -0.8926981092436115 -0.4237476941033886 1e-07 1 10 2 114 -115 
115 -0.8926983092436114 -0.4771588602596084 -1e-07 -0.8788170126619654 -0.4506548757999453 1e-07 1 10 2 115 -116 
116 -0.8788172126619653 -0.5090415157503716 -1e-07 -0.8607419270039435 -0.4771586602596084 1e-07 1 0 2 116 -117 
117 -0.8607421270039434 -0.5402404204776549 -1e-07 -0.8415106819453062 -0.5090413157503717 1e-07 1 0 2 117 -118 
118 -0.8415108819453061 -0.5707136676844314 -1e-07 -0.8211491091337042 -0.540240220477655 1e-07 1 0 2 118 -119 
119 -0.8211493091337041 -0.6004203253258834 -1e-07 -0.799684558487091 -0.5707134676844315 1e-07 1 0 2 119 -120 
120 -0.7996847584870909 -0.6293204910498372 -1e-07 -0.7771458614569712 -0.6004201253258835 1e-07 1 0 2 120 -121 
121 -0.7771460614569711 -0.6522875112781208 -1e-07 -0.7579716231454533 -0.6293202910498373 1e-07 1 11 2 121 -122 
122 -0.7579718231454532 -0.6746706459320742 -1e-07 -0.7381188974873408 -0.6522873112781209 1e-07 1 11 2 122 -123 
123 -0.7381190974873407 -0.6964498590747665 -1e-07 -0.7176054553608121 -0.6746704459320743 1e-07 1 11 2 123 -124 
124 -0.717605655360812 -0.7176056553608118 -1e-07 -0.6964496590747669 -0.6964496590747666 1e-07 1 11 2 124 -125 
125 -0.6964498590747668 -0.7381190974873405 -1e-07 -0.6746704459320745 -0.7176054553608119 1e-07 1 11 2 125 -126 
126 -0.6746706459320744 -0.757971823145453 -1e-07 -0.6522873112781211 -0.7381188974873406 1e-07 1 11 2 126 -127 
127 -0.652287511278121 -0.7771460614569711 -1e-07 -0.6293202910498371 -0.7579716231454531 1e-07 1 11 2 127 -128 
128 -0.629320491049837 -0.7996847584870904 -1e-07 -0.6004201253258842 -0.7771458614569712 1e-07 1 0 2 128 -129 
129 -0.6004203253258841 -0.8211493091337037 -1e-07 -0.5707134676844322 -0.7996845584870905 1e-07 1 0 2 129 -130 
130 -0.5707136676844321 -0.841510881945306 -1e-07 -0.5402402204776552 -0.8211491091337038 1e-07 1 0 2 130 -131 
131 -0.5402404204776551 -0.8607421270039433 -1e-07 -0.5090413157503719 -0.8415106819453061 1e-07 1 0 2 131 -132 
132 -0.5090415157503718 -0.8788172126619652 -1e-07 -0.4771586602596087 -0.8607419270039434 1e-07 1 0 2 132 -133 
133 -0.4771588602596087 -0.892698309243611 -1e-07 -0.450654875799946 -0.8788170126619653 1e-07 1 12 2 133 -134 
134 -0.450655075799946 -0.9057803200271941 -1e-07 -0.4237476941033885 -0.8926981092436111 1e-07 1 12 2 134 -135 
135 -0.4237478941033885 -0.9180515348413256 -1e-07 -0.3964612007416778 -0.9057801200271942 1e-07 1 12 2 135 -136 
136 -0.3964614007416778 -0.9295009692868207 -1e-07 -0.368819820821862 -0.9180513348413257 1e-07 1 12 2 136 -137 
137 -0.368820020821862 -0.9401183745692188 -1e-07 -0.3408482971225255 -0.9295007692868208 1e-07 1 12 2 137 -138 
138 -0.3408484971225255 -0.9498942466728461 -1e-07 -0.3125716679456439 -0.9401181745692189 1e-07 1 12 2 138 -139 
139 -0.312571867945644 -0.958819834868193 -1e-07 -0.2840152447039226 -0.9498940466728462 1e-07 1 12 2 139 -140 
140 -0.2840154447039226 -0.9685832611286311 -1e-07 -0.2486897871648544 -0.9588196348681931 1e-07 1 0 2 140 -141 
141 -0.2486899871648544 -0.9770456744352636 -1e-07 -0.2130302862749767 -0.9685830611286312 1e-07 1 0 2 141 -142 
142 -0.2130304862749767 -0.9841957079692419 -1e-07 -0.1770846403195831 -0.9770454744352637 1e-07 1 0 2 142 -143 
143 -0.1770848403195831 -0.9900237577165575 -1e-07 -0.1409011319375829 -0.984195507969242 1e-07 1 0 2 143 -144 
144 -0.1409013319375829 -0.9945219953682732 -1e-07 -0.1045283632676542 -0.9900235577165576 1e-07 1 0 2 144 -145 
145 -0.1045285632676542 -0.9972038971811801 -1e-07 -0.07472999358642472 -0.9945217953682733 1e-07 1 13 2 145 -146 
146 -0.07473019358642473 -0.9989931665413145 -1e-07 -0.0448647303505151 -0.9972036971811802 1e-07 1 13 2 146 -147 
147 -0.04486493035051511 -0.9998882018102734 -1e-07 -0.01495930701526351 -0.9989929665413146 1e-07 1 13 2 147 -148 
148 -0.0149595070152635 -0.9998882018102734 -1e-07 0.01495950701526314 -0.9998880018102735 1e-07 1 13 2 148 -149 
149 0.01495930701526314 -0.9998882018102734 -1e-07 0.04486493035051475 -0.9989929665413148 1e-07 1 13 2 149 -150 
150 0.04486473035051474 -0.9989931665413146 -1e-07 0.07473019358642437 -0.9972036971811802 1e-07 1 13 2 150 -151 
151 0.07472999358642436 -0.9972038971811801 -1e-07 0.1045285632676539 -0.9945217953682733 1e-07 1 13 2 151 -152 
152 0.1045283632676539 -0.9945219953682732 -1e-07 0.1409013319375826 -0.9900235577165576 1e-07 1 0 2 152 -153 
153 0.1409011319375826 -0.9900237577165575 -1e-07 0.1770848403195827 -0.984195507969242 1e-07 1 0 2 153 -154 
154 0.1770846403195827 -0.9841957079692419 -1e-07 0.2130304862749764 -0.9770454744352637 1e-07 1 0 2 154 -155 
155 0.2130302862749764 -0.9770456744352636 -1e-07 0.2486899871648541 -0.9685830611286314 1e-07 1 0 2 155 -156 
156 0.2486897871648541 -0.9685832611286312 -1e-07 0.2840154447039223 -0.9588196348681932 1e-07 1 0 2 156 -157 
157 0.2840152447039223 -0.9588198348681931 -1e-07 0.3125718679456436 -0.9498940466728463 1e-07 1 14 2 157 -158 
158 0.3125716679456436 -0.9498942466728462 -1e-07 0.3408484971225251 -0.940118174569219 1e-07 1 14 2 158 -159 
159 0.3408482971225251 -0.9401183745692189 -1e-07 0.3688200208218616 -0.9295007692868209 1e-07 1 14 2 159 -160 
160 0.3688198208218616 -0.9295009692868208 -1e-07 0.3964614007416775 -0.9180513348413258 1e-07 1 14 2 160 -161 
161 0.3964612007416775 -0.9180515348413257 -1e-07 0.4237478941033881 -0.9057801200271944 1e-07 1 14 2 161 -162 
162 0.4237476941033881 -0.9057803200271943 -1e-07 0.4506550757999457 -0.8926981092436114 1e-07 1 14 2 162 -163 
163 0.4506548757999457 -0.8926983092436113 -1e-07 0.4771588602596084 -0.8788170126619654 1e-07 1 14 2 163 -164 
164 0.4771586602596083 -0.8788172126619653 -1e-07 0.5090415157503715 -0.8607419270039435 1e-07 1 0 2 164 -165 
165 0.5090413157503716 -0.8607421270039434 -1e-07 0.5402404204776549 -0.8415106819453063 1e-07 1 0 2 165 -166 
166 0.540240220477655 -0.8415108819453062 -1e-07 0.5707136676844318 -0.821149109133704 1e-07 1 0 2 166 -167 
167 0.5707134676844319 -0.8211493091337039 -1e-07 0.6004203253258837 -0.7996845584870907 1e-07 1 0 2 167 -168 
168 0.6004201253258838 -0.7996847584870906 -1e-07 0.6293204910498368 -0.7771458614569714 1e-07 1 0 2 168 -169 
169 0.6293202910498369 -0.7771460614569713 -1e-07 0.6522875112781207 -0.7579716231454534 1e-07 1 15 2 169 -170 
170 0.6522873112781208 -0.7579718231454533 -1e-07 0.6746706459320742 -0.7381188974873408 1e-07 1 15 2 170 -171 
171 0.6746704459320743 -0.7381190974873407 -1e-07 0.6964498590747669 -0.7176054553608119 1e-07 1 15 2 171 -172 
172 0.696449659074767 -0.7176056553608118 -1e-07 0.7176056553608114 -0.6964496590747673 1e-07 1 15 2 172 -173 
173 0.7176054553608116 -0.6964498590747672 -1e-07 0.7381190974873404 -0.6746704459320746 1e-07 1 15 2 173 -174 
174 0.7381188974873405 -0.6746706459320745 -1e-07 0.757971823145453 -0.6522873112781211 1e-07 1 15 2 174 -175 
175 0.7579716231454531 -0.652287511278121 -1e-07 0.7771460614569711 -0.6293202910498372 1e-07 1 15 2 175 -176 
176 0.7771458614569712 -0.6293204910498371 -1e-07 0.7996847584870904 -0.6004201253258842 1e-07 1 0 2 176 -177 
177 0.7996845584870905 -0.6004203253258841 -1e-07 0.8211493091337037 -0.5707134676844323 1e-07 1 0 2 177 -178 
178 0.8211491091337038 -0.5707136676844322 -1e-07 0.841510881945306 -0.5402402204776553 1e-07 1 0 2 178 -179 
179 0.8415106819453061 -0.5402404204776552 -1e-07 0.8607421270039431 -0.509041315750372 1e-07 1 0 2 179 -180 
180 0.8607419270039433 -0.5090415157503719 -1e-07 0.8788172126619651 -0.4771586602596087 1e-07 1 0 2 180 -181 
181 0.8788170126619652 -0.4771588602596087 -1e-07 0.892698309243611 -0.4506548757999461 1e-07 1 16 2 181 -182 
182 0.8926981092436111 -0.4506550757999461 -1e-07 0.9057803200271941 -0.4237476941033885 1e-07 1 16 2 182 -183 
183 0.9057801200271942 -0.4237478941033885 -1e-07 0.9180515348413256 -0.3964612007416779 1e-07 1 16 2 183 -184 
184 0.9180513348413257 -0.3964614007416779 -1e-07 0.9295009692868207 -0.368819820821862 1e-07 1 16 2 184 -185 
185 0.9295007692868208 -0.368820020821862 -1e-07 0.9401183745692188 -0.3408482971225255 1e-07 1 16 2 185 -186 
186 0.9401181745692189 -0.3408484971225255 -1e-07 0.9498942466728461 -0.312571667945644 1e-07 1 16 2 186 -187 
187 0.9498940466728462 -0.312571867945644 -1e-07 0.958819834868193 -0.2840152447039227 1e-07 1 16 2 187 -188 
188 0.9588196348681931 -0.2840154447039227 -1e-07 0.9685832611286311 -0.2486897871648545 1e-07 1 0 2 188 -189 
189 0.9685830611286312 -0.2486899871648545 -1e-07 0.9770456744352636 -0.2130302862749768 1e-07 1 0 2 189 -190 
190 0.9770454744352637 -0.2130304862749768 -1e-07 0.9841957079692419 -0.1770846403195831 1e-07 1 0 2 190 -191 
191 0.984195507969242 -0.1770848403195831 -1e-07 0.9900237577165575 -0.140901131937583 1e-07 1 0 2 191 -192 
192 0.9900235577165576 -0.140901331937583 -1e-07 0.9945219953682732 -0.1045283632676535 1e-07 1 0 2 192 -1 
1 -0.9998882018102734 -0.9998882018102734 -1e-07 0.9998882018102734 0.9998882018102734 1e-07 1 1 192 1 2 3 4 5 6 7 8 9 10 11 12 13 14 15 16 17 18 19 20 21 22 23 24 25 26 27 28 29 30 31 32 33 34 35 36 37 38 39 40 41 42 43 44 45 46 47 48 49 50 51 52 53 54 55 56 57 58 59 60 61 62 63 64 65 66 67 68 69 70 71 72 73 74 75 76 77 78 79 80 81 82 83 84 85 86 87 88 89 90 91 92 93 94 95 96 97 98 99 100 101 102 103 104 105 106 107 108 109 110 111 112 113 114 115 116 117 118 119 120 121 122 123 124 125 126 127 128 129 130 131 132 133 134 135 136 137 138 139 140 141 142 143 144 145 146 147 148 149 150 151 152 153 154 155 156 157 158 159 160 161 162 163 164 165 166 167 168 169 170 171 172 173 174 175 176 177 178 179 180 181 182 183 184 185 186 187 188 189 190 191 192 
$EndEntities
$Nodes
385 567 1 567
0 1 0 1
1
0.9945218953682733 -0.1045284632676535 0
0 2 0 1
2
0.9972037971811801 -0.07473009358642424 0
0 3 0 1
3
0.9989930665413147 -0.04486483035051493 0
0 4 0 1
4
0.9998881018102734 -0.01495940701526363 0
0 5 0 1
5
0.9998881018102734 0.01495940701526361 0
0 6 0 1
6
0.9989930665413147 0.04486483035051492 0
0 7 0 1
7
0.9972037971811801 0.07473009358642423 0
0 8 0 1
8
0.9945218953682733 0.1045284632676535 0
0 9 0 1
9
0.9900236577165575 0.1409012319375827 0
0 10 0 1
10
0.9841956079692419 0.1770847403195833 0
0 11 0 1
11
0.9770455744352636 0.2130303862749766 0
0 12 0 1
12
0.9685831611286311 0.2486898871648548 0
0 13 0 1
13
0.9588197348681931 0.2840153447039226 0
0 14 0 1
14
0.949894146672846 0.3125717679456445 0
0 15 0 1
15
0.940118274569219 0.3408483971225249 0
0 16 0 1
16
0.9295008692868207 0.3688199208218619 0
0 17 0 1
17
0.9180514348413259 0.3964613007416775 0
0 18 0 1
18
0.905780220027194 0.4237477941033887 0
0 19 0 1
19
0.8926982092436115 0.4506549757999452 0
0 20 0 1
20
0.8788171126619654 0.4771587602596084 0
0 21 0 1
21
0.8607420270039436 0.5090414157503713 0
0 22 0 1
22
0.8415107819453062 0.540240320477655 0
0 23 0 1
23
0.821149209133704 0.5707135676844316 0
0 24 0 1
24
0.7996846584870906 0.600420225325884 0
0 25 0 1
25
0.7771459614569708 0.6293203910498375 0
0 26 0 1
26
0.7579717231454529 0.6522874112781212 0
0 27 0 1
27
0.7381189974873407 0.6746705459320743 0
0 28 0 1
28
0.7176055553608119 0.6964497590747668 0
0 29 0 1
29
0.6964497590747669 0.7176055553608117 0
0 30 0 1
30
0.6746705459320743 0.7381189974873406 0
0 31 0 1
31
0.6522874112781212 0.7579717231454529 0
0 32 0 1
32
0.6293203910498375 0.7771459614569708 0
0 33 0 1
33
0.6004202253258841 0.7996846584870905 0
0 34 0 1
34
0.5707135676844318 0.8211492091337039 0
0 35 0 1
35
0.5402403204776551 0.8415107819453062 0
0 36 0 1
36
0.5090414157503712 0.8607420270039436 0
0 37 0 1
37
0.4771587602596084 0.8788171126619654 0
0 38 0 1
38
0.4506549757999451 0.8926982092436115 0
0 39 0 1
39
0.4237477941033888 0.905780220027194 0
0 40 0 1
40
0.3964613007416776 0.9180514348413258 0
0 41 0 1
41
0.368819920821862 0.9295008692868207 0
0 42 0 1
42
0.340848397122525 0.940118274569219 0
0 43 0 1
43
0.3125717679456447 0.9498941466728459 0
0 44 0 1
44
0.2840153447039228 0.9588197348681931 0
0 45 0 1
45
0.248689887164855 0.9685831611286311 0
0 46 0 1
46
0.2130303862749766 0.9770455744352636 0
0 47 0 1
47
0.1770847403195834 0.9841956079692419 0
0 48 0 1
48
0.1409012319375826 0.9900236577165575 0
0 49 0 1
49
0.1045284632676535 0.9945218953682733 0
0 50 0 1
50
0.07473009358642417 0.9972037971811801 0
0 51 0 1
51
0.04486483035051499 0.9989930665413146 0
0 52 0 1
52
0.01495940701526361 0.9998881018102734 0
0 53 0 1
53
-0.01495940701526348 0.9998881018102734 0
0 54 0 1
54
-0.04486483035051464 0.9989930665413147 0
0 55 0 1
55
-0.07473009358642427 0.9972037971811801 0
0 56 0 1
56
-0.1045284632676533 0.9945218953682734 0
0 57 0 1
57
-0.1409012319375827 0.9900236577165575 0
0 58 0 1
58
-0.1770847403195833 0.9841956079692419 0
0 59 0 1
59
-0.2130303862749765 0.9770455744352636 0
0 60 0 1
60
-0.2486898871648546 0.9685831611286312 0
0 61 0 1
61
-0.2840153447039226 0.9588197348681931 0
0 62 0 1
62
-0.3125717679456443 0.949894146672846 0
0 63 0 1
63
-0.340848397122525 0.940118274569219 0
0 64 0 1
64
-0.3688199208218619 0.9295008692868207 0
0 65 0 1
65
-0.3964613007416775 0.9180514348413259 0
0 66 0 1
66
-0.4237477941033886 0.905780220027194 0
0 67 0 1
67
-0.4506549757999454 0.8926982092436114 0
0 68 0 1
68
-0.4771587602596085 0.8788171126619654 0
0 69 0 1
69
-0.5090414157503713 0.8607420270039436 0
0 70 0 1
70
-0.540240320477655 0.8415107819453062 0
0 71 0 1
71
-0.5707135676844316 0.8211492091337041 0
0 72 0 1
72
-0.6004202253258839 0.7996846584870906 0
0 73 0 1
73
-0.6293203910498373 0.777145961456971 0
0 74 0 1
74
-0.6522874112781208 0.7579717231454532 0
0 75 0 1
75
-0.6746705459320743 0.7381189974873407 0
0 76 0 1
76
-0.6964497590747667 0.7176055553608121 0
0 77 0 1
77
-0.7176055553608119 0.6964497590747668 0
0 78 0 1
78
-0.7381189974873406 0.6746705459320744 0
0 79 0 1
79
-0.7579717231454531 0.652287411278121 0
0 80 0 1
80
-0.7771459614569709 0.6293203910498374 0
0 81 0 1
81
-0.7996846584870906 0.600420225325884 0
0 82 0 1
82
-0.821149209133704 0.5707135676844317 0
0 83 0 1
83
-0.841510781945306 0.5402403204776551 0
0 84 0 1
84
-0.8607420270039435 0.5090414157503714 0
0 85 0 1
85
-0.8788171126619653 0.4771587602596086 0
0 86 0 1
86
-0.8926982092436113 0.4506549757999456 0
0 87 0 1
87
-0.905780220027194 0.4237477941033888 0
0 88 0 1
88
-0.9180514348413257 0.3964613007416778 0
0 89 0 1
89
-0.9295008692868207 0.3688199208218619 0
0 90 0 1
90
-0.940118274569219 0.340848397122525 0
0 91 0 1
91
-0.949894146672846 0.3125717679456443 0
0 92 0 1
92
-0.9588197348681931 0.2840153447039226 0
0 93 0 1
93
-0.9685831611286311 0.2486898871648548 0
0 94 0 1
94
-0.9770455744352636 0.2130303862749767 0
0 95 0 1
95
-0.9841956079692419 0.1770847403195834 0
0 96 0 1
96
-0.9900236577165575 0.1409012319375829 0
0 97 0 1
97
-0.9945218953682733 0.1045284632676537 0
0 98 0 1
98
-0.9972037971811801 0.07473009358642467 0
0 99 0 1
99
-0.9989930665413146 0.04486483035051505 0
0 100 0 1
100
-0.9998881018102734 0.01495940701526389 0
0 101 0 1
101
-0.9998881018102734 -0.01495940701526364 0
0 102 0 1
102
-0.9989930665413146 -0.04486483035051524 0
0 103 0 1
103
-0.9972037971811801 -0.07473009358642442 0
0 104 0 1
104
-0.9945218953682733 -0.1045284632676535 0
0 105 0 1
105
-0.9900236577165575 -0.1409012319375831 0
0 106 0 1
106
-0.984195607969242 -0.1770847403195832 0
0 107 0 1
107
-0.9770455744352636 -0.2130303862749764 0
0 108 0 1
108
-0.9685831611286313 -0.2486898871648542 0
0 109 0 1
109
-0.9588197348681932 -0.2840153447039224 0
0 110 0 1
110
-0.9498941466728461 -0.3125717679456441 0
0 111 0 1
111
-0.9401182745692191 -0.3408483971225247 0
0 112 0 1
112
-0.9295008692868209 -0.3688199208218617 0
0 113 0 1
113
-0.9180514348413258 -0.3964613007416776 0
0 114 0 1
114
-0.9057802200271942 -0.4237477941033886 0
0 115 0 1
115
-0.8926982092436114 -0.4506549757999453 0
0 116 0 1
116
-0.8788171126619654 -0.4771587602596084 0
0 117 0 1
117
-0.8607420270039434 -0.5090414157503717 0
0 118 0 1
118
-0.8415107819453062 -0.5402403204776549 0
0 119 0 1
119
-0.8211492091337041 -0.5707135676844315 0
0 120 0 1
120
-0.7996846584870909 -0.6004202253258835 0
0 121 0 1
121
-0.7771459614569711 -0.6293203910498373 0
0 122 0 1
122
-0.7579717231454532 -0.6522874112781208 0
0 123 0 1
123
-0.7381189974873408 -0.6746705459320742 0
0 124 0 1
124
-0.7176055553608121 -0.6964497590747666 0
0 125 0 1
125
-0.6964497590747668 -0.7176055553608118 0
0 126 0 1
126
-0.6746705459320744 -0.7381189974873406 0
0 127 0 1
127
-0.6522874112781211 -0.757971723145453 0
0 128 0 1
128
-0.6293203910498371 -0.7771459614569711 0
0 129 0 1
129
-0.6004202253258841 -0.7996846584870905 0
0 130 0 1
130
-0.5707135676844322 -0.8211492091337037 0
0 131 0 1
131
-0.5402403204776551 -0.841510781945306 0
0 132 0 1
132
-0.5090414157503719 -0.8607420270039433 0
0 133 0 1
133
-0.4771587602596087 -0.8788171126619653 0
0 134 0 1
134
-0.450654975799946 -0.8926982092436111 0
0 135 0 1
135
-0.4237477941033885 -0.9057802200271942 0
0 136 0 1
136
-0.3964613007416778 -0.9180514348413257 0
0 137 0 1
137
-0.368819920821862 -0.9295008692868207 0
0 138 0 1
138
-0.3408483971225255 -0.9401182745692188 0
0 139 0 1
139
-0.312571767945644 -0.9498941466728461 0
0 140 0 1
140
-0.2840153447039226 -0.9588197348681931 0
0 141 0 1
141
-0.2486898871648544 -0.9685831611286312 0
0 142 0 1
142
-0.2130303862749767 -0.9770455744352636 0
0 143 0 1
143
-0.1770847403195831 -0.984195607969242 0
0 144 0 1
144
-0.1409012319375829 -0.9900236577165575 0
0 145 0 1
145
-0.1045284632676542 -0.9945218953682733 0
0 146 0 1
146
-0.07473009358642473 -0.9972037971811801 0
0 147 0 1
147
-0.0448648303505151 -0.9989930665413146 0
0 148 0 1
148
-0.0149594070152635 -0.9998881018102734 0
0 149 0 1
149
0.01495940701526314 -0.9998881018102734 0
0 150 0 1
150
0.04486483035051474 -0.9989930665413147 0
0 151 0 1
151
0.07473009358642436 -0.9972037971811801 0
0 152 0 1
152
0.1045284632676539 -0.9945218953682733 0
0 153 0 1
153
0.1409012319375826 -0.9900236577165575 0
0 154 0 1
154
0.1770847403195827 -0.984195607969242 0
0 155 0 1
155
0.2130303862749764 -0.9770455744352636 0
0 156 0 1
156
0.2486898871648541 -0.9685831611286313 0
0 157 0 1
157
0.2840153447039223 -0.9588197348681932 0
0 158 0 1
158
0.3125717679456436 -0.9498941466728462 0
0 159 0 1
159
0.3408483971225251 -0.9401182745692189 0
0 160 0 1
160
0.3688199208218616 -0.9295008692868209 0
0 161 0 1
161
0.3964613007416775 -0.9180514348413258 0
0 162 0 1
162
0.4237477941033881 -0.9057802200271944 0
0 163 0 1
163
0.4506549757999457 -0.8926982092436113 0
0 164 0 1
164
0.4771587602596083 -0.8788171126619654 0
0 165 0 1
165
0.5090414157503715 -0.8607420270039434 0
0 166 0 1
166
0.5402403204776549 -0.8415107819453063 0
0 167 0 1
167
0.5707135676844318 -0.8211492091337039 0
0 168 0 1
168
0.6004202253258838 -0.7996846584870907 0
0 169 0 1
169
0.6293203910498368 -0.7771459614569713 0
0 170 0 1
170
0.6522874112781207 -0.7579717231454534 0
0 171 0 1
171
0.6746705459320742 -0.7381189974873408 0
0 172 0 1
172
0.6964497590747669 -0.7176055553608118 0
0 173 0 1
173
0.7176055553608115 -0.6964497590747672 0
0 174 0 1
174
0.7381189974873404 -0.6746705459320745 0
0 175 0 1
175
0.757971723145453 -0.6522874112781211 0
0 176 0 1
176
0.7771459614569711 -0.6293203910498372 0
0 177 0 1
177
0.7996846584870905 -0.6004202253258841 0
0 178 0 1
178
0.8211492091337037 -0.5707135676844323 0
0 179 0 1
179
0.841510781945306 -0.5402403204776552 0
0 180 0 1
180
0.8607420270039432 -0.509041415750372 0
0 181 0 1
181
0.8788171126619652 -0.4771587602596087 0
0 182 0 1
182
0.8926982092436111 -0.4506549757999461 0
0 183 0 1
183
0.9057802200271942 -0.4237477941033885 0
0 184 0 1
184
0.9180514348413257 -0.3964613007416779 0
0 185 0 1
185
0.9295008692868207 -0.368819920821862 0
0 186 0 1
186
0.9401182745692188 -0.3408483971225255 0
0 187 0 1
187
0.9498941466728461 -0.312571767945644 0
0 188 0 1
188
0.9588197348681931 -0.2840153447039227 0
0 189 0 1
189
0.9685831611286312 -0.2486898871648545 0
0 190 0 1
190
0.9770455744352636 -0.2130303862749768 0
0 191 0 1
191
0.984195607969242 -0.1770847403195831 0
0 192 0 1
192
0.9900236577165575 -0.140901231937583 0
1 1 0 0
1 2 0 0
1 3 0 0
1 4 0 0
1 5 0 0
1 6 0 0
1 7 0 0
1 8 0 0
1 9 0 0
1 10 0 0
1 11 0 0
1 12 0 0
1 13 0 0
1 14 0 0
1 15 0 0
1 16 0 0
1 17 0 0
1 18 0 0
1 19 0 0
1 20 0 0
1 21 0 0
1 22 0 0
1 23 0 0
1 24 0 0
1 25 0 0
1 26 0 0
1 27 0 0
1 28 0 0
1 29 0 0
1 30 0 0
1 31 0 0
1 32 0 0
1 33 0 0
1 34 0 0
1 35 0 0
1 36 0 0
1 37 0 0
1 38 0 0
1 39 0 0
1 40 0 0
1 41 0 0
1 42 0 0
1 43 0 0
1 44 0 0
1 45 0 0
1 46 0 0
1 47 0 0
1 48 0 0
1 49 0 0
1 50 0 0
1 51 0 0
1 52 0 0
1 53 0 0
1 54 0 0
1 55 0 0
1 56 0 0
1 57 0 0
1 58 0 0
1 59 0 0
1 60 0 0
1 61 0 0
1 62 0 0
1 63 0 0
1 64 0 0
1 65 0 0
1 66 0 0
1 67 0 0
1 68 0 0
1 69 0 0
1 70 0 0
1 71 0 0
1 72 0 0
1 73 0 0
1 74 0 0
1 75 0 0
1 76 0 0
1 77 0 0
1 78 0 0
1 79 0 0
1 80 0 0
1 81 0 0
1 82 0 0
1 83 0 0
1 84 0 0
1 85 0 0
1 86 0 0
1 87 0 0
1 88 0 0
1 89 0 0
1 90 0 0
1 91 0 0
1 92 0 0
1 93 0 0
1 94 0 0
1 95 0 0
1 96 0 0
1 97 0 0
1 98 0 0
1 99 0 0
1 100 0 0
1 101 0 0
1 102 0 0
1 103 0 0
1 104 0 0
1 105 0 0
1 106 0 0
1 107 0 0
1 108 0 0
1 109 0 0
1 110 0 0
1 111 0 0
1 112 0 0
1 113 0 0
1 114 0 0
1 115 0 0
1 116 0 0
1 117 0 0
1 118 0 0
1 119 0 0
1 120 0 0
1 121 0 0
1 122 0 0
1 123 0 0
1 124 0 0
1 125 0 0
1 126 0 0
1 127 0 0
1 128 0 0
1 129 0 0
1 130 0 0
1 131 0 0
1 132 0 0
1 133 0 0
1 134 0 0
1 135 0 0
1 136 0 0
1 137 0 0
1 138 0 0
1 139 0 0
1 140 0 0
1 141 0 0
1 142 0 0
1 143 0 0
1 144 0 0
1 145 0 0
1 146 0 0
1 147 0 0
1 148 0 0
1 149 0 0
1 150 0 0
1 151 0 0
1 152 0 0
1 153 0 0
1 154 0 0
1 155 0 0
1 156 0 0
1 157 0 0
1 158 0 0
1 159 0 0
1 160 0 0
1 161 0 0
1 162 0 0
1 163 0 0
1 164 0 0
1 165 0 0
1 166 0 0
1 167 0 0
1 168 0 0
1 169 0 0
1 170 0 0
1 171 0 0
1 172 0 0
1 173 0 0
1 174 0 0
1 175 0 0
1 176 0 0
1 177 0 0
1 178 0 0
1 179 0 0
1 180 0 0
1 181 0 0
1 182 0 0
1 183 0 0
1 184 0 0
1 185 0 0
1 186 0 0
1 187 0 0
1 188 0 0
1 189 0 0
1 190 0 0
1 191 0 0
1 192 0 0
2 1 0 375
193
194
195
196
197
198
199
200
201
202
203
204
205
206
207
208
209
210
211
212
213
214
215
216
217
218
219
220
221
222
223
224
225
226
227
228
229
230
231
232
233
234
235
236
237
238
239
240
241
242
243
244
245
246
247
248
249
250
251
252
253
254
255
256
257
258
259
260
261
262
263
264
265
266
267
268
269
270
271
272
273
274
275
276
277
278
279
280
281
282
283
284
285
286
287
288
289
290
291
292
293
294
295
296
297
298
299
300
301
302
303
304
305
306
307
308
309
310
311
312
313
314
315
316
317
318
319
320
321
322
323
324
325
326
327
328
329
330
331
332
333
334
335
336
337
338
339
340
341
342
343
344
345
346
347
348
349
350
351
352
353
354
355
356
357
358
359
360
361
362
363
364
365
366
367
368
369
370
371
372
373
374
375
376
377
378
379
380
381
382
383
384
385
386
387
388
389
390
391
392
393
394
395
396
397
398
399
400
401
402
403
404
405
406
407
408
409
410
411
412
413
414
415
416
417
418
419
420
421
422
423
424
425
426
427
428
429
430
431
432
433
434
435
436
437
438
439
440
441
442
443
444
445
446
447
448
449
450
451
452
453
454
455
456
457
458
459
460
461
462
463
464
465
466
467
468
469
470
471
472
473
474
475
476
477
478
479
480
481
482
483
484
485
486
487
488
489
490
491
492
493
494
495
496
497
498
499
500
501
502
503
504
505
506
507
508
509
510
511
512
513
514
515
516
517
518
519
520
521
522
523
524
525
526
527
528
529
530
531
532
533
534
535
536
537
538
539
540
541
542
543
544
545
546
547
548
549
550
551
552
553
554
555
556
557
558
559
560
561
562
563
564
565
566
567
-0.425872031280503 -0.8759369117419415 0
0.4258720312805025 0.8759369117419413 0
0.8759369117419415 -0.4258720312805031 0
-0.8759369117419413 0.4258720312805028 0
0.318243928948196 -0.9205179314204625 0
-0.9205179314204621 -0.318243928948196 0
-0.3182439289481963 0.920517931420462 0
0.9205179314204619 0.3182439289481961 0
-0.7270882096845959 -0.6440699301025599 0
-0.6462860138508093 0.7286609970897459 0
0.6462860138508089 -0.7286609970897455 0
0.05824790924838 0.9722343552082405 0
0.7270928294862176 0.6440817823835534 0
-0.9722343552082405 0.0582479092483803 0
-0.05824790924838035 -0.9722343552082402 0
0.9691027721308416 -0.05903714484576583 0
0.9322976864317105 -0.2638716723800987 0
0.4726485672573891 -0.8458194650633947 0
-0.9623100679922155 -0.1129892413082222 0
-0.2737226793665294 -0.9239809762259414 0
-0.765685356814274 0.5971436441740665 0
-0.5965039168983308 -0.7648357658958428 0
-0.851225555136603 -0.4585610840736755 0
0.6005605159512161 0.7603514334115499 0
-0.9338656970861753 0.26648893046753 0
-0.4727079271413184 0.8451680895822866 0
0.8511921590268061 0.458564127463024 0
0.9630044813859597 0.1127430515955 0
0.1161427442523536 -0.9627516056770228 0
0.749113909948164 -0.6100107780660112 0
0.2638716723800988 0.9322976864317101 0
-0.1191769879206849 0.9636656281965437 0
0.8278166878230961 -0.5015943916975765 0
0.2235314718190482 -0.9419323341250395 0
-0.5075939383344814 -0.810248300434291 0
-0.7686905085672469 -0.5836869200596935 0
-0.5728510310811361 0.7802045235770823 0
0.496731127008302 0.8178170341641766 0
-0.9273137154679273 -0.2279926396917951 0
0.9538823509710861 -0.1325856360575574 0
-0.8241073604105468 0.5079861213468293 0
-0.2235314718190484 0.9419323341250392 0
0.9372967131489627 0.223243736992974 0
0.1456136534845809 0.9573329567525696 0
0.7687149417740633 0.5837496044034114 0
-0.9571844775524234 0.1463885542814828 0
0.564267355719549 -0.7770950553043241 0
-0.1466210606465976 -0.9567547580209514 0
-0.345639216275362 -0.9105855218218359 0
-0.3656804663908801 -0.8153422079137923 0
0.9105855218218359 -0.345639216275362 0
0.8242303216355672 -0.3569521630885549 0
0.3994773636581992 -0.8882850310028231 0
0.3309867611302507 -0.8199332650335667 0
0.7090009245680686 -0.6677949905027851 0
0.6227327745158746 -0.6416492972752528 0
-0.9735417278565385 -0.029136995402688 0
-0.8932161996094156 0.01205369435464508 0
-0.3994773636581992 0.8882850310028227 0
-0.3174297081224144 0.8239781011237253 0
-0.8882850310028229 -0.3994773636581992 0
-0.8355781069879472 -0.3179474095928492 0
-0.7090009245680686 0.6677949905027851 0
-0.6243083258177847 0.6305114618434989 0
0.8882850310028226 0.3994773636581993 0
0.8311161684008267 0.3297815091432412 0
0.0291369954026876 -0.9735417278565386 0
-0.01251602956793369 -0.8939849470620322 0
0.667794990502785 0.7090009245680684 0
0.641649297275253 0.6227327745158743 0
-0.0291369954026877 0.9735417278565386 0
0.008510052029494444 0.8987589079949161 0
-0.6677949905027848 -0.7090009245680687 0
-0.641603294439578 -0.6193795048674399 0
0.3456392162753615 0.9105855218218355 0
0.3544971372048861 0.8208786200551242 0
-0.9105855218218356 0.3456392162753614 0
-0.8333548207989747 0.3551034167703507 0
0.9735417278565385 0.02913699540268791 0
0.8930891848886378 -0.01264474275317169 0
-0.1050685414440643 -0.9107902236290931 0
-0.06039095033306687 -0.8174947350797616 0
0.03407300039482739 -0.8120482787201784 0
-0.01445643697119473 -0.7295356034376698 0
0.08432090185632762 -0.7274436230242635 0
0.03283314890945831 -0.6406637916921909 0
0.1345229841489425 -0.6379916276667867 0
0.081725092979175 -0.5493947446585867 0
-0.02327689518241188 -0.5518883571191449 0
0.02702696628517904 -0.4567383457903249 0
-0.08192482097615578 -0.4599675909380124 0
-0.03022956264782094 -0.3613888032309542 0
0.08294949294369873 -0.3599536489247871 0
0.02915529942552133 -0.2577676648515622 0
-0.09024465818856343 -0.2638522920052471 0
-0.03722391264989931 -0.1577044436324501 0
0.08936013072044312 -0.1514383313577794 0
0.02233132825024668 -0.04945106208939267 0
-0.1034168744306338 -0.05277611290460617 0
-0.04361266836266353 0.05674352805176264 0
0.08246097589532857 0.060665666753871 0
0.01738446800706655 0.1675553529455134 0
-0.1069095443064379 0.1639046896710502 0
0.1426514463198391 0.1683382827987953 0
-0.04684006104865365 0.2704286057765813 0
-0.1692112706638146 0.2692408833603524 0
-0.117390695010301 0.3689439211666404 0
0.2061939837355143 0.06481871602817835 0
0.2640662193316483 0.1698017383109757 0
0.3271814707228727 0.06692526538913277 0
0.1986836923972418 0.2739166370126082 0
-0.2282412697775594 0.1646550304655131 0
-0.2888609348096275 0.2650793441437836 0
-0.3452655012290111 0.1652776775070647 0
0.3187669416868479 0.2735011121418085 0
0.2592352046676131 0.3740316728321769 0
-0.4028380816461475 0.2649789861785846 0
-0.3471483866692331 0.3634938242208879 0
-0.4585737124612174 0.1663210979159715 0
-0.4027518431874524 0.06847511546662849 0
0.1867129032698815 -0.5476147820894255 0
-0.513372125330827 0.07254320991583472 0
-0.4596283004611595 -0.02662609137859862 0
-0.5688517150497305 -0.02517922976044708 0
-0.5172632765543911 -0.1200102961159388 0
0.3724520378105706 0.3755418102013059 0
0.4316726873262415 0.2786206731333188 0
0.3151403887513901 0.4690289612059767 0
0.2020481912417527 0.4694184996331389 0
-0.1313278050534314 -0.5558781685703815 0
-0.190792974066887 -0.4648074444139623 0
-0.4568345035464721 0.3624795337202435 0
-0.4054906100622949 0.4555840914254948 0
-0.6352472711322988 0.08364400121043662 0
-0.2404392564446303 -0.5603990343738348 0
-0.2988942975066516 -0.4702141551675131 0
-0.3473862068918435 -0.5641276765888571 0
-0.4094585411358306 -0.4753683799684192 0
-0.356789926852572 -0.3807853268317457 0
-0.47048368301163 -0.3876134405184571 0
0.4824699877488872 0.3757807257416466 0
0.5388180726714242 0.2855431687036558 0
-0.6230879509929492 -0.11927514178248 0
-0.4067626450595207 -0.1245069907244341 0
0.2586281527858587 0.5631272998168533 0
0.1450612199035179 0.5613941234782346 0
0.3662728306084351 0.5626050792135528 0
0.5880340648391151 0.3791550596393718 0
0.203134235869848 0.6535823604099785 0
0.0988505279650682 0.6539999056078569 0
0.04605385200359823 0.5636697353032707 0
-0.001030243196539054 0.6548773488767966 0
-0.510927718565573 0.4536817914975109 0
-0.562488839891265 0.3635222599056315 0
-0.4611055531203472 0.5452445110206099 0
-0.3567263362563793 0.5477316845703755 0
0.2711107117226009 -0.03638991733171133 0
0.3885839739773357 -0.03245337053528904 0
0.3352208321122129 -0.1345352394091723 0
0.4495424335072463 -0.1276498806212379 0
0.3976455581766472 -0.2254454619122339 0
0.5023847481774175 -0.02881524937303211 0
0.5606225138306027 -0.1214212442568261 0
0.6108856062633803 -0.02662435501599301 0
0.6671401434068556 -0.1173081642424744 0
0.6189688068771688 -0.2100322311807824 0
0.2386768160222501 -0.6365847403604629 0
0.2912693084307176 -0.5469741166519112 0
0.3437136389010171 -0.6357774495400764 0
0.3950310980394123 -0.5464805411058972 0
-0.4109353603835205 0.6357854260779836 0
-0.3084948077504052 0.6399581663558533 0
0.3429873358384405 -0.456140289639295 0
0.4472770920420124 -0.4579198214183246 0
0.1520638960827327 0.742891561244993 0
-0.6137620672838435 0.4517417585518492 0
-0.2533121258163972 0.5510919516744707 0
-0.1786901601664929 -0.6485349825273725 0
0.6421036083341365 0.2898625153336125 0
0.5952867597274365 0.1983654747879395 0
0.698042661940066 0.205719992479367 0
-0.156939483211709 -0.8256709512991436 0
0.2833802539633748 -0.2274940701478882 0
0.53220683521273 0.4688242961094166 0
-0.5732350657195293 -0.2113109209860987 0
-0.455454197456824 -0.5686608413225435 0
-0.20606964003355 0.6428741616849662 0
-0.6764355758572949 -0.2103995576728922 0
-0.6276767658092657 -0.300376890070775 0
-0.7268850465044741 -0.1205894666246391 0
-0.1449643111996142 0.5580353525694962 0
0.007875174482268734 0.3719756857905133 0
0.7224693185094893 -0.202384597515705 0
0.6754176183669257 -0.2929662468181698 0
0.5726352282058427 -0.3007591446589373 0
0.6225780851771449 -0.39190083357953 0
0.4434834842612617 -0.6357980409429396 0
0.71393626409805 -0.02688693569336024 0
0.6347219617766677 0.4686844373400266 0
-0.3965873170458871 -0.6528822904086282 0
0.126555008442838 -0.808427594970484 0
-0.661183699433238 0.3647632948929352 0
-0.6139699434730652 0.2754922465734689 0
-0.4973886058654514 -0.65868049190616 0
-0.4157533126234181 -0.2944280095155992 0
-0.3104906343272816 -0.2836866201909927 0
-0.709581511658249 0.2763179128071358 0
0.6743881544431714 0.06116501387543222 0
0.7700678328360773 0.04713123292259417 0
-0.7757432573737375 -0.219412937684383 0
-0.8278496222816704 -0.1427548764345563 0
-0.7975526977444797 -0.03633196168429529 0
0.388724274568782 -0.7238630066101046 0
0.2671107392609297 0.755807509877546 0
-0.7044848451704124 0.4461826327241672 0
0.2013709412097722 0.8210774022387725 0
-0.2604972393058222 0.7289956732498847 0
-0.158008657711774 0.734423036920989 0
-0.2127104768281823 0.8114736354006281 0
-0.1143262616871927 0.8177678035749596 0
-0.6669801339773037 0.1881327195806031 0
-0.767860894598287 0.1893058002414468 0
0.397974945573616 -0.3733813079465364 0
0.2897460723306742 -0.370410017443578 0
-0.6580734783385959 0.532017236272372 0
-0.3615626717404862 0.7254477651127842 0
-0.4628063814006889 0.7157560496425749 0
0.1216885558239933 0.8239689326857078 0
-0.05531064994207965 0.473923524378183 0
-0.198592427959999 0.4609603560023389 0
-0.441356136749854 -0.7470972996408868 0
-0.2899489362963067 -0.649501982157179 0
-0.2332158083260459 -0.7416776255535877 0
0.3121758415319333 0.653256491952275 0
0.414607875775598 0.6511758574193972 0
0.4695700940646811 0.5629852085323015 0
0.5067980942257506 0.6616120962290284 0
0.4263850026732743 0.468167084189353 0
0.6895592289959052 0.3846462236718474 0
0.7214017643106674 0.4638977919016741 0
-0.7302711264482972 -0.2999320204591333 0
-0.6846037198695433 -0.3912756159279902 0
-0.5800463219228871 -0.390329929416684 0
-0.6422814733155717 -0.4724992718536133 0
-0.5370046468950097 -0.4826822190666952 0
-0.7219342442370762 -0.4659101344321389 0
0.7668710050905749 -0.1152895597934696 0
0.8235838781594133 -0.1995797277296975 0
-0.56257556575469 0.5429928482719281 0
-0.5150704180776331 0.628876961667922 0
0.2861291169051903 -0.7242730967859325 0
0.4416082713039254 0.07227761172413334 0
0.378973733711932 0.1755874666885058 0
0.224390418902217 -0.8060334123373543 0
-0.1126042666065358 -0.7325674067018302 0
0.07646456155174243 0.2725822562846767 0
0.1340677394433061 0.3707729200686939 0
-0.2624380511783597 -0.8432439405132106 0
0.05981247723209352 0.7393144449957314 0
-0.1665793671476424 0.05697432345754227 0
-0.2260971513141031 -0.04742947103160417 0
-0.1637257862923878 -0.1621294465292411 0
-0.2889160219650931 -0.1616950503229787 0
0.8758231117082514 -0.107533526840658 0
0.4876591583221588 -0.7267618233202257 0
-0.6799984477789983 -0.02581046232189184 0
-0.7447721252843009 0.04852331496858154 0
0.4638679612339384 0.7379378679681627 0
0.5664110540031061 0.08719524368427385 0
0.1484666472589589 -0.04196366151748572 0
0.4942793412196847 -0.5484028535135322 0
0.5507440234918205 -0.460231972346863 0
-0.04545306739064877 0.7481389052847252 0
-0.2862862839975261 0.06320760589436034 0
-0.5666467322953477 0.1766823907264247 0
0.2175433517061123 -0.139711960601316 0
0.162471939952692 -0.254446471071086 0
0.5769522437874701 0.5706959327821592 0
0.5102647361202267 -0.2129270460927548 0
0.5865651270517946 -0.5549925074952755 0
-0.1405030681110893 -0.3666815116806511 0
0.742309136698053 0.304721209353577 0
0.7983565633144448 0.2124460422764686 0
-0.3487825713293887 -0.02870704049898239 0
0.7303357770669081 -0.3697188222918515 0
0.7027106463524608 -0.4641736366320419 0
-0.3002884976060505 0.4569485951706445 0
0.4921284297906776 0.1829316064536378 0
-0.5233348234416169 -0.2990990523244943 0
-0.1010798458584266 0.6514010377558487 0
-0.510225302218919 0.2682460858367208 0
0.5048754793043901 -0.3748968026554693 0
-0.07125373584510139 -0.6431780516747649 0
-0.2495007885195366 -0.3741889422721056 0
0.2385544642457594 -0.4574973323275814 0
0.1329299368849666 -0.4561305034669256 0
0.1824325410462942 -0.7234590158575473 0
-0.7018756656405448 -0.5489471472803223 0
0.6945189962797809 0.5515282763024264 0
-0.2404610988719994 0.362829663130299 0
-0.5476369937821262 -0.5769631065365451 0
-0.3433748689029411 -0.7293902834907945 0
0.3702325880232906 0.7348358392610932 0
-0.1991169974884521 -0.2761045508802609 0
-0.8601673810533629 -0.2406796396467896 0
0.1865580503015532 -0.3692954592043772 0
0.7725324149753909 -0.2841812990019484 0
0.795510638700366 0.4081966385197344 0
-0.795711015359147 -0.4081783781836422 0
0.5338875321674974 -0.6361624610120946 0
0.679865828604389 -0.5733258564662576 0
0.07295645374428297 -0.8906697203639725 0
-0.467297581890499 -0.2097760836786501 0
0.8089038820379674 -0.03104148015266504 0
0.06009961231921769 0.4627127688590494 0
-0.05126623963861225 0.5803813997767191 0
-0.8037207451409554 0.26890029375964 0
-0.847167168872339 0.1913723470812363 0
-0.7992392176592992 0.1140845673615081 0
0.8866891502419503 0.2563750690129245 0
0.8740277902988135 0.1705198520127444 0
0.8015516886727073 -0.4474836570033313 0
-0.5653568817240251 0.7217508415465602 0
-0.4244992340933342 0.8117761687508476 0
-0.9109314851628777 -0.0784888800185477 0
0.4338581016467157 -0.8126372479745503 0
-0.589699646110624 -0.6885909658589551 0
0.8758453054559066 -0.2805409908530524 0
0.2780075091181077 0.8726191507989167 0
0.5975654781133968 0.6933398925827348 0
-0.07566795897385779 0.9089450207998574 0
0.9129788744959615 0.08436336960038428 0
-0.8011195344591542 0.4435761833489424 0
-0.8999237646314699 0.1008455656407974 0
-0.1687109468623053 0.9006174694080339 0
-0.03841806768548781 0.8373940553383964 0
0.1671598094517351 -0.8935936041858201 0
-0.5312492090074186 -0.7441112641301741 0
-0.7502070482918427 0.5248396852476316 0
-0.370145570159388 -0.2107374356751177 0
0.4567781220680646 -0.2959155446908956 0
0.5112040695511815 -0.8122450871064923 0
-0.1979493537008342 -0.9237831491526847 0
0.923907084532438 -0.2028645709525598 0
0.7943425647718296 0.510741467812841 0
-0.7953548758779463 -0.5106598709927413 0
0.5369157937731819 0.7710143634270105 0
-0.9299796390098896 -0.1667402044540067 0
0.2009910895500614 0.9177931684945821 0
-0.51477709491912 0.7997572113977882 0
0.7779254263708646 -0.5384953041691487 0
-0.7459777365515653 0.3681445203237561 0
0.8245613295392074 0.1152826070813858 0
-0.8212212831310142 0.0368718245078269 0
0.7439573780995172 0.1373882944673877 0
-0.2541069795473448 0.8928898677243469 0
0.0963466601427042 0.9111385507916876 0
0.5806922042709541 -0.7145792659097689 0
0.4313932675017547 0.8110372309754104 0
-0.6204319936916167 -0.5502286588565253 0
-0.927222572370863 0.202783749375732 0
-0.7198188306733535 0.1283724516408164 0
0.2609667704543978 -0.8839903647080707 0
-0.454254434308778 -0.8302309926209703 0
0.3433673059789584 -0.2991559432000589 0
0.6539485800894298 0.1390048057162776 0
-0.8755080517852704 0.2846274993748018 0
0.9430359995609336 0.161280874628124 0
0.8419202207595703 0.0406181973397055 0
-0.7066097769451218 0.6003348178644959 0
-0.9081849797420948 -0.2658991886081699 0
-0.294503600861206 -0.781751817485812 0
0.2394752812895072 -0.3027763288923578 0
0.03456078523635416 0.8167677659840233 0
0.6207698218920199 -0.4833205706189499 0
$EndNodes
$Elements
193 1132 1 1132
1 1 1 1
1 1 2 
1 2 1 1
2 2 3 
1 3 1 1
3 3 4 
1 4 1 1
4 4 5 
1 5 1 1
5 5 6 
1 6 1 1
6 6 7 
1 7 1 1
7 7 8 
1 8 1 1
8 8 9 
1 9 1 1
9 9 10 
1 10 1 1
10 10 11 
1 11 1 1
11 11 12 
1 12 1 1
12 12 13 
1 13 1 1
13 13 14 
1 14 1 1
14 14 15 
1 15 1 1
15 15 16 
1 16 1 1
16 16 17 
1 17 1 1
17 17 18 
1 18 1 1
18 18 19 
1 19 1 1
19 19 20 
1 20 1 1
20 20 21 
1 21 1 1
21 21 22 
1 22 1 1
22 22 23 
1 23 1 1
23 23 24 
1 24 1 1
24 24 25 
1 25 1 1
25 25 26 
1 26 1 1
26 26 27 
1 27 1 1
27 27 28 
1 28 1 1
28 28 29 
1 29 1 1
29 29 30 
1 30 1 1
30 30 31 
1 31 1 1
31 31 32 
1 32 1 1
32 32 33 
1 33 1 1
33 33 34 
1 34 1 1
34 34 35 
1 35 1 1
35 35 36 
1 36 1 1
36 36 37 
1 37 1 1
37 37 38 
1 38 1 1
38 38 39 
1 39 1 1
39 39 40 
1 40 1 1
40 40 41 
1 41 1 1
41 41 42 
1 42 1 1
42 42 43 
1 43 1 1
43 43 44 
1 44 1 1
44 44 45 
1 45 1 1
45 45 46 
1 46 1 1
46 46 47 
1 47 1 1
47 47 48 
1 48 1 1
48 48 49 
1 49 1 1
49 49 50 
1 50 1 1
50 50 51 
1 51 1 1
51 51 52 
1 52 1 1
52 52 53 
1 53 1 1
53 53 54 
1 54 1 1
54 54 55 
1 55 1 1
55 55 56 
1 56 1 1
56 56 57 
1 57 1 1
57 57 58 
1 58 1 1
58 58 59 
1 59 1 1
59 59 60 
1 60 1 1
60 60 61 
1 61 1 1
61 61 62 
1 62 1 1
62 62 63 
1 63 1 1
63 63 64 
1 64 1 1
64 64 65 
1 65 1 1
65 65 66 
1 66 1 1
66 66 67 
1 67 1 1
67 67 68 
1 68 1 1
68 68 69 
1 69 1 1
69 69 70 
1 70 1 1
70 70 71 
1 71 1 1
71 71 72 
1 72 1 1
72 72 73 
1 73 1 1
73 73 74 
1 74 1 1
74 74 75 
1 75 1 1
75 75 76 
1 76 1 1
76 76 77 
1 77 1 1
77 77 78 
1 78 1 1
78 78 79 
1 79 1 1
79 79 80 
1 80 1 1
80 80 81 
1 81 1 1
81 81 82 
1 82 1 1
82 82 83 
1 83 1 1
83 83 84 
1 84 1 1
84 84 85 
1 85 1 1
85 85 86 
1 86 1 1
86 86 87 
1 87 1 1
87 87 88 
1 88 1 1
88 88 89 
1 89 1 1
89 89 90 
1 90 1 1
90 90 91 
1 91 1 1
91 91 92 
1 92 1 1
92 92 93 
1 93 1 1
93 93 94 
1 94 1 1
94 94 95 
1 95 1 1
95 95 96 
1 96 1 1
96 96 97 
1 97 1 1
97 97 98 
1 98 1 1
98 98 99 
1 99 1 1
99 99 100 
1 100 1 1
100 100 101 
1 101 1 1
101 101 102 
1 102 1 1
102 102 103 
1 103 1 1
103 103 104 
1 104 1 1
104 104 105 
1 105 1 1
105 105 106 
1 106 1 1
106 106 107 
1 107 1 1
107 107 108 
1 108 1 1
108 108 109 
1 109 1 1
109 109 110 
1 110 1 1
110 110 111 
1 111 1 1
111 111 112 
1 112 1 1
112 112 113 
1 113 1 1
113 113 114 
1 114 1 1
114 114 115 
1 115 1 1
115 115 116 
1 116 1 1
116 116 117 
1 117 1 1
117 117 118 
1 118 1 1
118 118 119 
1 119 1 1
119 119 120 
1 120 1 1
120 120 121 
1 121 1 1
121 121 122 
1 122 1 1
122 122 123 
1 123 1 1
123 123 124 
1 124 1 1
124 124 125 
1 125 1 1
125 125 126 
1 126 1 1
126 126 127 
1 127 1 1
127 127 128 
1 128 1 1
128 128 129 
1 129 1 1
129 129 130 
1 130 1 1
130 130 131 
1 131 1 1
131 131 132 
1 132 1 1
132 132 133 
1 133 1 1
133 133 134 
1 134 1 1
134 134 135 
1 135 1 1
135 135 136 
1 136 1 1
136 136 137 
1 137 1 1
137 137 138 
1 138 1 1
138 138 139 
1 139 1 1
139 139 140 
1 140 1 1
140 140 141 
1 141 1 1
141 141 142 
1 142 1 1
142 142 143 
1 143 1 1
143 143 144 
1 144 1 1
144 144 145 
1 145 1 1
145 145 146 
1 146 1 1
146 146 147 
1 147 1 1
147 147 148 
1 148 1 1
148 148 149 
1 149 1 1
149 149 150 
1 150 1 1
150 150 151 
1 151 1 1
151 151 152 
1 152 1 1
152 152 153 
1 153 1 1
153 153 154 
1 154 1 1
154 154 155 
1 155 1 1
155 155 156 
1 156 1 1
156 156 157 
1 157 1 1
157 157 158 
1 158 1 1
158 158 159 
1 159 1 1
159 159 160 
1 160 1 1
160 160 161 
1 161 1 1
161 161 162 
1 162 1 1
162 162 163 
1 163 1 1
163 163 164 
1 164 1 1
164 164 165 
1 165 1 1
165 165 166 
1 166 1 1
166 166 167 
1 167 1 1
167 167 168 
1 168 1 1
168 168 169 
1 169 1 1
169 169 170 
1 170 1 1
170 170 171 
1 171 1 1
171 171 172 
1 172 1 1
172 172 173 
1 173 1 1
173 173 174 
1 174 1 1
174 174 175 
1 175 1 1
175 175 176 
1 176 1 1
176 176 177 
1 177 1 1
177 177 178 
1 178 1 1
178 178 179 
1 179 1 1
179 179 180 
1 180 1 1
180 180 181 
1 181 1 1
181 181 182 
1 182 1 1
182 182 183 
1 183 1 1
183 183 184 
1 184 1 1
184 184 185 
1 185 1 1
185 185 186 
1 186 1 1
186 186 187 
1 187 1 1
187 187 188 
1 188 1 1
188 188 189 
1 189 1 1
189 189 190 
1 190 1 1
190 190 191 
1 191 1 1
191 191 192 
1 192 1 1
192 192 1 
2 1 2 940
193 391 491 470 
194 541 549 420 
195 403 540 497 
196 338 507 321 
197 433 501 434 
198 58 527 224 
199 372 480 461 
200 250 517 404 
201 408 541 420 
202 67 516 251 
203 218 516 67 
204 160 245 197 
205 184 243 195 
206 136 241 193 
207 112 253 198 
208 124 265 201 
209 88 269 196 
210 100 249 206 
211 64 251 199 
212 16 257 200 
213 76 255 202 
214 172 247 203 
215 148 259 207 
216 52 263 204 
217 4 271 208 
218 40 267 194 
219 28 261 205 
220 405 443 246 
221 402 497 254 
222 254 433 402 
223 227 530 130 
224 470 491 262 
225 474 500 431 
226 409 411 252 
227 268 521 406 
228 234 527 58 
229 246 518 405 
230 330 437 378 
231 461 480 444 
232 254 501 433 
233 404 546 250 
234 326 467 413 
235 383 422 421 
236 181 225 180 
237 37 230 36 
238 73 229 72 
239 121 228 120 
240 49 236 48 
241 157 226 156 
242 1 232 192 
243 97 238 96 
244 13 235 12 
245 61 234 60 
246 85 233 84 
247 25 237 24 
248 145 240 144 
249 169 239 168 
250 13 512 235 
251 145 273 240 
252 181 514 225 
253 73 515 229 
254 85 525 233 
255 406 495 268 
256 332 437 330 
257 258 500 474 
258 97 526 238 
259 478 543 514 
260 130 530 214 
261 421 422 299 
262 417 441 256 
263 207 273 145 
264 200 512 13 
265 195 514 181 
266 202 515 73 
267 196 525 85 
268 314 467 326 
269 252 418 409 
270 206 526 97 
271 223 521 43 
272 216 522 31 
273 214 519 127 
274 211 517 103 
275 210 518 163 
276 209 520 187 
277 224 523 55 
278 220 524 7 
279 49 549 236 
280 455 476 336 
281 43 521 267 
282 31 522 261 
283 127 519 265 
284 187 520 243 
285 103 517 249 
286 163 518 245 
287 55 523 263 
288 7 524 271 
289 285 469 286 
290 37 551 230 
291 226 529 154 
292 157 555 226 
293 262 522 470 
294 374 447 425 
295 241 450 242 
296 403 497 402 
297 470 522 429 
298 208 456 232 
299 404 517 403 
300 212 450 241 
301 475 512 258 
302 518 534 457 
303 474 475 258 
304 453 476 455 
305 321 507 449 
306 308 449 303 
307 154 529 221 
308 423 556 242 
309 272 456 208 
310 461 558 372 
311 388 484 464 
312 405 518 457 
313 529 555 446 
314 242 494 423 
315 58 224 57 
316 82 213 81 
317 130 214 129 
318 154 221 153 
319 204 549 49 
320 131 227 130 
321 155 226 154 
322 83 233 82 
323 59 234 58 
324 194 551 37 
325 104 211 103 
326 116 215 115 
327 140 212 139 
328 188 209 187 
329 164 210 163 
330 20 219 19 
331 32 216 31 
332 80 213 79 
333 92 217 91 
334 68 218 67 
335 8 220 7 
336 44 223 43 
337 56 224 55 
338 128 214 127 
339 176 222 175 
340 152 221 151 
341 197 555 157 
342 169 550 239 
343 435 437 332 
344 425 447 370 
345 167 534 166 
346 107 540 106 
347 35 539 34 
348 47 541 46 
349 191 536 190 
350 143 535 142 
351 179 543 178 
352 23 537 22 
353 71 542 70 
354 119 538 118 
355 203 550 169 
356 441 442 256 
357 387 484 388 
358 285 498 469 
359 503 543 478 
360 321 449 308 
361 421 507 343 
362 522 539 429 
363 226 555 529 
364 236 549 541 
365 166 534 165 
366 34 539 33 
367 106 540 105 
368 178 543 177 
369 46 541 45 
370 190 536 189 
371 22 537 21 
372 70 542 69 
373 142 535 141 
374 118 538 117 
375 343 507 338 
376 398 496 455 
377 406 521 408 
378 455 496 454 
379 374 535 273 
380 266 519 493 
381 363 442 347 
382 286 469 289 
383 425 450 374 
384 413 554 326 
385 428 430 376 
386 493 519 396 
387 429 539 460 
388 343 508 421 
389 307 445 319 
390 444 480 445 
391 422 492 299 
392 443 446 246 
393 320 430 339 
394 419 442 363 
395 410 482 465 
396 411 548 252 
397 399 544 509 
398 311 467 314 
399 393 529 446 
400 477 499 386 
401 509 544 270 
402 94 553 93 
403 364 418 363 
404 301 445 307 
405 370 485 322 
406 11 560 10 
407 297 448 384 
408 434 501 438 
409 303 449 448 
410 61 548 234 
411 376 470 428 
412 391 470 376 
413 299 492 298 
414 447 485 370 
415 233 531 82 
416 419 542 515 
417 517 540 403 
418 409 418 364 
419 466 476 453 
420 82 531 213 
421 95 553 94 
422 463 502 472 
423 452 466 453 
424 244 499 477 
425 359 489 443 
426 418 419 363 
427 437 493 378 
428 339 430 428 
429 335 458 382 
430 347 442 441 
431 426 495 406 
432 410 465 412 
433 289 468 462 
434 478 514 477 
435 448 449 384 
436 392 424 329 
437 443 489 446 
438 326 459 458 
439 341 426 406 
440 256 562 417 
441 199 548 61 
442 382 458 404 
443 472 502 248 
444 294 448 297 
445 332 481 435 
446 309 483 311 
447 289 469 468 
448 450 535 374 
449 401 547 400 
450 368 441 417 
451 201 490 228 
452 318 430 320 
453 431 432 391 
454 205 491 237 
455 428 470 429 
456 340 431 391 
457 424 494 425 
458 431 500 432 
459 345 441 368 
460 440 536 456 
461 133 556 132 
462 361 443 405 
463 337 426 341 
464 302 445 301 
465 326 554 459 
466 510 553 526 
467 329 424 327 
468 547 558 400 
469 109 563 108 
470 311 483 467 
471 357 439 390 
472 272 506 456 
473 304 452 295 
474 316 458 335 
475 400 461 356 
476 478 567 503 
477 342 451 344 
478 465 482 344 
479 419 515 442 
480 433 434 381 
481 347 441 345 
482 325 345 324 
483 355 357 356 
484 385 440 439 
485 307 318 308 
486 406 408 367 
487 382 402 380 
488 424 425 370 
489 352 355 354 
490 310 324 309 
491 378 396 392 
492 340 391 376 
493 301 307 303 
494 297 299 298 
495 371 431 340 
496 339 427 426 
497 339 426 337 
498 334 340 333 
499 396 423 392 
500 368 407 394 
501 357 390 356 
502 526 553 238 
503 345 368 346 
504 355 356 354 
505 458 459 404 
506 319 333 318 
507 384 421 299 
508 318 320 308 
509 305 309 306 
510 327 424 370 
511 320 339 337 
512 382 403 402 
513 294 297 295 
514 359 443 361 
515 361 405 389 
516 314 326 316 
517 327 370 322 
518 453 455 454 
519 300 301 296 
520 356 461 354 
521 325 347 345 
522 378 392 329 
523 358 385 357 
524 307 308 303 
525 434 438 436 
526 297 298 295 
527 310 325 324 
528 341 367 342 
529 352 354 350 
530 410 411 409 
531 335 380 377 
532 335 382 380 
533 385 439 357 
534 341 406 367 
535 380 433 381 
536 288 454 287 
537 351 352 350 
538 400 558 461 
539 305 310 309 
540 298 305 304 
541 301 303 296 
542 337 341 338 
543 428 429 427 
544 368 417 407 
545 330 378 329 
546 340 376 333 
547 316 335 317 
548 300 302 301 
549 295 452 292 
550 334 371 340 
551 520 536 440 
552 451 465 344 
553 293 296 294 
554 309 311 306 
555 452 453 291 
556 390 401 400 
557 320 337 321 
558 371 474 431 
559 361 389 362 
560 289 462 290 
561 444 445 302 
562 319 334 333 
563 328 329 327 
564 368 394 346 
565 379 409 364 
566 273 535 240 
567 514 543 225 
568 515 542 229 
569 349 350 302 
570 291 454 288 
571 10 560 9 
572 440 456 439 
573 314 316 315 
574 348 363 347 
575 475 545 513 
576 445 480 319 
577 345 346 324 
578 350 444 302 
579 307 319 318 
580 297 384 299 
581 351 353 352 
582 358 386 385 
583 408 420 367 
584 402 433 380 
585 380 381 377 
586 294 295 292 
587 405 457 389 
588 359 361 360 
589 410 412 411 
590 296 448 294 
591 305 306 304 
592 353 471 352 
593 510 526 511 
594 355 358 357 
595 516 542 419 
596 432 491 391 
597 322 485 281 
598 323 327 322 
599 453 454 291 
600 293 300 296 
601 326 458 316 
602 341 342 338 
603 311 314 312 
604 335 377 317 
605 446 489 393 
606 379 410 409 
607 421 508 383 
608 293 294 292 
609 429 460 427 
610 217 559 91 
611 266 490 201 
612 372 373 371 
613 222 503 247 
614 399 414 413 
615 339 428 427 
616 390 506 401 
617 349 351 350 
618 298 304 295 
619 333 430 318 
620 337 338 321 
621 434 436 435 
622 389 463 362 
623 423 494 392 
624 355 471 358 
625 358 471 387 
626 328 330 329 
627 262 491 205 
628 316 317 315 
629 279 359 313 
630 394 399 395 
631 292 452 291 
632 524 560 513 
633 390 400 356 
634 304 466 452 
635 320 321 308 
636 354 444 350 
637 348 364 363 
638 387 388 386 
639 475 547 545 
640 361 362 360 
641 283 322 281 
642 382 404 403 
643 354 461 444 
644 303 448 296 
645 325 348 347 
646 463 464 366 
647 323 328 327 
648 187 243 186 
649 139 241 138 
650 134 193 133 
651 184 195 183 
652 160 197 159 
653 148 207 147 
654 136 193 135 
655 172 203 171 
656 158 197 157 
657 161 245 160 
658 182 195 181 
659 79 255 78 
660 125 265 124 
661 100 206 99 
662 173 247 172 
663 103 249 102 
664 31 261 30 
665 122 201 121 
666 86 196 85 
667 170 203 169 
668 76 202 75 
669 163 245 162 
670 74 202 73 
671 113 253 112 
672 62 199 61 
673 52 204 51 
674 101 249 100 
675 17 257 16 
676 151 259 150 
677 55 263 54 
678 146 207 145 
679 16 200 15 
680 64 199 63 
681 89 269 88 
682 110 198 109 
683 98 206 97 
684 43 267 42 
685 67 251 66 
686 88 196 87 
687 26 205 25 
688 115 253 114 
689 65 251 64 
690 137 241 136 
691 185 243 184 
692 91 269 90 
693 112 198 111 
694 175 247 174 
695 50 204 49 
696 14 200 13 
697 149 259 148 
698 7 271 6 
699 2 208 1 
700 28 205 27 
701 124 201 123 
702 40 194 39 
703 77 255 76 
704 4 208 3 
705 38 194 37 
706 41 267 40 
707 5 271 4 
708 127 265 126 
709 29 261 28 
710 19 257 18 
711 53 263 52 
712 91 559 269 
713 300 349 302 
714 275 393 277 
715 342 344 343 
716 213 562 79 
717 314 315 312 
718 362 463 366 
719 367 451 342 
720 300 462 349 
721 290 462 293 
722 359 360 313 
723 376 430 333 
724 279 489 359 
725 373 475 474 
726 224 527 523 
727 274 447 374 
728 311 312 306 
729 418 516 419 
730 331 332 330 
731 334 372 371 
732 434 435 381 
733 283 323 322 
734 298 492 305 
735 290 293 292 
736 435 481 381 
737 436 437 435 
738 310 492 479 
739 247 503 248 
740 399 413 395 
741 463 472 464 
742 386 499 385 
743 324 483 309 
744 423 530 227 
745 394 395 346 
746 369 379 364 
747 494 564 425 
748 351 375 353 
749 362 366 365 
750 79 562 255 
751 352 471 355 
752 388 478 477 
753 392 494 424 
754 293 462 300 
755 373 474 371 
756 358 387 386 
757 393 489 277 
758 460 495 427 
759 420 451 367 
760 397 481 332 
761 342 343 338 
762 384 507 421 
763 388 477 386 
764 468 469 375 
765 290 292 291 
766 503 567 472 
767 389 502 463 
768 456 506 439 
769 454 496 287 
770 331 397 332 
771 275 504 393 
772 328 331 330 
773 317 336 315 
774 510 511 414 
775 290 291 288 
776 438 490 436 
777 283 473 323 
778 521 541 408 
779 479 492 422 
780 462 468 349 
781 348 369 364 
782 369 383 379 
783 310 479 325 
784 362 365 360 
785 366 415 365 
786 351 468 375 
787 279 313 280 
788 319 480 334 
789 349 468 351 
790 306 466 304 
791 366 484 415 
792 523 527 412 
793 286 287 284 
794 277 279 278 
795 286 289 288 
796 497 540 231 
797 282 283 281 
798 276 447 274 
799 282 285 284 
800 280 281 278 
801 381 481 377 
802 378 493 396 
803 395 483 346 
804 275 277 276 
805 383 482 379 
806 312 466 306 
807 334 480 372 
808 513 545 524 
809 413 467 395 
810 491 537 237 
811 490 538 228 
812 221 504 259 
813 436 552 437 
814 379 482 410 
815 346 483 324 
816 331 398 397 
817 369 422 383 
818 415 416 365 
819 471 533 387 
820 286 288 287 
821 279 280 278 
822 287 473 284 
823 289 290 288 
824 282 284 283 
825 315 476 312 
826 219 500 257 
827 285 286 284 
828 313 488 280 
829 277 278 276 
830 280 282 281 
831 360 487 313 
832 215 501 253 
833 284 473 283 
834 323 486 328 
835 467 483 395 
836 325 479 348 
837 464 484 366 
838 336 476 315 
839 275 276 274 
840 328 486 331 
841 274 374 273 
842 438 538 490 
843 473 486 323 
844 456 536 232 
845 432 537 491 
846 365 487 360 
847 348 479 369 
848 277 489 279 
849 305 492 310 
850 260 275 274 
851 397 505 481 
852 276 485 447 
853 336 532 455 
854 282 488 285 
855 281 485 278 
856 437 552 493 
857 312 476 466 
858 280 488 282 
859 245 246 197 
860 265 266 201 
861 249 250 206 
862 253 254 198 
863 257 258 200 
864 247 248 203 
865 251 252 199 
866 255 256 202 
867 241 242 193 
868 267 268 194 
869 243 244 195 
870 269 270 196 
871 263 264 204 
872 271 272 208 
873 261 262 205 
874 259 260 207 
875 387 533 484 
876 259 504 260 
877 487 488 313 
878 248 503 472 
879 252 516 418 
880 331 486 398 
881 460 551 495 
882 257 500 258 
883 427 495 426 
884 416 487 365 
885 439 506 390 
886 253 501 254 
887 317 505 336 
888 369 479 422 
889 278 485 276 
890 525 531 233 
891 450 564 242 
892 227 556 423 
893 451 566 465 
894 509 510 414 
895 264 566 549 
896 481 505 377 
897 394 544 399 
898 473 496 486 
899 385 499 440 
900 449 507 384 
901 511 554 414 
902 250 546 526 
903 486 496 398 
904 442 515 256 
905 533 557 415 
906 553 559 217 
907 464 567 388 
908 459 554 511 
909 209 536 520 
910 216 539 522 
911 223 541 521 
912 210 534 518 
913 211 540 517 
914 498 565 469 
915 383 508 482 
916 399 509 414 
917 407 531 525 
918 506 561 401 
919 220 560 524 
920 526 546 511 
921 457 502 389 
922 212 535 450 
923 377 505 317 
924 549 566 420 
925 510 559 553 
926 242 556 193 
927 254 563 198 
928 344 508 343 
929 493 552 266 
930 455 532 398 
931 218 542 516 
932 260 504 275 
933 287 496 473 
934 465 566 528 
935 477 514 244 
936 222 543 503 
937 215 538 501 
938 219 537 500 
939 230 551 460 
940 487 498 488 
941 504 529 393 
942 482 508 344 
943 495 551 268 
944 353 557 533 
945 260 274 273 
946 497 563 254 
947 509 559 510 
948 488 498 285 
949 501 538 438 
950 484 533 415 
951 500 537 432 
952 251 516 252 
953 505 532 336 
954 412 527 411 
955 248 550 203 
956 417 531 407 
957 416 498 487 
958 353 533 471 
959 396 530 423 
960 407 544 394 
961 465 528 412 
962 499 520 440 
963 239 550 457 
964 519 530 396 
965 260 273 207 
966 258 512 200 
967 256 515 202 
968 244 514 195 
969 270 525 196 
970 459 546 404 
971 446 555 246 
972 388 567 478 
973 512 513 235 
974 457 534 239 
975 250 526 206 
976 265 519 266 
977 261 522 262 
978 249 517 250 
979 245 518 246 
980 267 521 268 
981 243 520 244 
982 263 523 264 
983 271 524 272 
984 460 539 230 
985 412 528 523 
986 252 548 199 
987 397 532 505 
988 234 548 527 
989 398 532 397 
990 475 513 512 
991 269 559 270 
992 531 562 213 
993 255 562 256 
994 373 558 547 
995 373 547 475 
996 417 562 531 
997 221 529 504 
998 244 520 499 
999 502 550 248 
1000 511 546 459 
1001 527 548 411 
1002 425 564 450 
1003 414 554 413 
1004 375 557 353 
1005 372 558 373 
1006 469 565 375 
1007 264 549 204 
1008 490 552 436 
1009 268 551 194 
1010 420 566 451 
1011 214 530 519 
1012 415 557 416 
1013 270 559 509 
1014 246 555 197 
1015 557 565 416 
1016 266 552 490 
1017 231 563 497 
1018 472 567 464 
1019 525 544 407 
1020 523 528 264 
1021 545 547 401 
1022 457 550 502 
1023 375 565 557 
1024 242 564 494 
1025 270 544 525 
1026 239 534 167 
1027 230 539 35 
1028 236 541 47 
1029 231 540 107 
1030 240 535 143 
1031 232 536 191 
1032 237 537 23 
1033 229 542 71 
1034 225 543 179 
1035 228 538 119 
1036 272 561 506 
1037 165 534 210 
1038 33 539 216 
1039 45 541 223 
1040 177 543 222 
1041 105 540 211 
1042 21 537 219 
1043 69 542 218 
1044 189 536 209 
1045 141 535 212 
1046 117 538 215 
1047 528 566 264 
1048 235 560 11 
1049 93 553 217 
1050 513 560 235 
1051 416 565 498 
1052 238 553 95 
1053 401 561 545 
1054 524 561 272 
1055 545 561 524 
1056 9 560 220 
1057 193 556 133 
1058 198 563 109 
1059 132 556 227 
1060 108 563 231 
1061 48 236 47 
1062 72 229 71 
1063 24 237 23 
1064 12 235 11 
1065 96 238 95 
1066 36 230 35 
1067 84 233 83 
1068 60 234 59 
1069 108 231 107 
1070 156 226 155 
1071 168 239 167 
1072 192 232 191 
1073 144 240 143 
1074 120 228 119 
1075 132 227 131 
1076 180 225 179 
1077 117 215 116 
1078 165 210 164 
1079 105 211 104 
1080 141 212 140 
1081 189 209 188 
1082 33 216 32 
1083 57 224 56 
1084 45 223 44 
1085 9 220 8 
1086 69 218 68 
1087 21 219 20 
1088 93 217 92 
1089 81 213 80 
1090 153 221 152 
1091 177 222 176 
1092 129 214 128 
1093 159 197 158 
1094 135 193 134 
1095 183 195 182 
1096 171 203 170 
1097 30 261 29 
1098 75 202 74 
1099 87 196 86 
1100 111 198 110 
1101 147 207 146 
1102 150 259 149 
1103 63 199 62 
1104 99 206 98 
1105 102 249 101 
1106 174 247 173 
1107 42 267 41 
1108 15 200 14 
1109 123 201 122 
1110 6 271 5 
1111 18 257 17 
1112 66 251 65 
1113 3 208 2 
1114 27 205 26 
1115 126 265 125 
1116 39 194 38 
1117 54 263 53 
1118 51 204 50 
1119 114 253 113 
1120 90 269 89 
1121 78 255 77 
1122 186 243 185 
1123 162 245 161 
1124 138 241 137 
1125 208 232 1 
1126 219 257 19 
1127 205 237 25 
1128 215 253 115 
1129 201 228 121 
1130 212 241 139 
1131 221 259 151 
1132 222 247 175 
$EndElements
