$MeshFormat
4.1 0 8
$EndMeshFormat
$PhysicalNames
18
1 1 "Electrode1"
1 2 "Electrode2"
1 3 "Electrode3"
1 4 "Electrode4"
1 5 "Electrode5"
1 6 "Electrode6"
1 7 "Electrode7"
1 8 "Electrode8"
1 9 "Electrode9"
1 10 "Electrode10"
1 11 "Electrode11"
1 12 "Electrode12"
1 13 "Electrode13"
1 14 "Electrode14"
1 15 "Electrode15"
1 16 "Electrode16"
1 17 "No-Electrode"
2 1 "domain"
$EndPhysicalNames
$Entities
240 240 1 0
1 0.9945218953682733 -0.1045284632676535 0 0 
2 0.9966848880445061 -0.08135867466785827 0 0 
3 0.9983081582712682 -0.05814482891047582 0 0 
4 0.9993908270190958 -0.03489949670250096 0 0 
5 0.9999323080037622 -0.01163526580139701 0 0 
6 0.9999323080037622 0.01163526580139701 0 0 
7 0.9993908270190958 0.03489949670250098 0 0 
8 0.9983081582712682 0.05814482891047584 0 0 
9 0.9966848880445061 0.08135867466785829 0 0 
10 0.9945218953682733 0.1045284632676535 0 0 
11 0.9908658973868822 0.134850930273723 0 0 
12 0.9862856015372314 0.1650476058606777 0 0 
13 0.9807852804032304 0.1950903220161282 0 0 
14 0.9743700647852352 0.224951054343865 0 0 
15 0.9670459389139431 0.2546019482055276 0 0 
16 0.9588197348681931 0.2840153447039226 0 0 
17 0.9519513853021931 0.306249179625408 0 0 
18 0.9445675372676048 0.328317175213561 0 0 
19 0.9366721892483976 0.3502073812594675 0 0 
20 0.9282696167148067 0.3719079438303866 0 0 
21 0.9193643698080891 0.3934071116888651 0 0 
22 0.9099612708765432 0.4146932426562391 0 0 
23 0.9000654118641211 0.4357548099170794 0 0 
24 0.8896821515530517 0.4565804082611655 0 0 
25 0.8788171126619654 0.4771587602596084 0 0 
26 0.8638355052043958 0.5037739770455262 0 0 
27 0.848048096156426 0.5299192642332049 0 0 
28 0.8314696123025452 0.5555702330196022 0 0 
29 0.8141155183563192 0.5807029557109398 0 0 
30 0.7960020025346221 0.6052939880428944 0 0 
31 0.7771459614569708 0.6293203910498375 0 0 
32 0.762291913608418 0.6472333724764324 0 0 
33 0.747025071240996 0.6647958656139378 0 0 
34 0.7313537016191705 0.6819983600624985 0 0 
35 0.7152862910660515 0.6988315403679 0 0 
36 0.6988315403679 0.7152862910660515 0 0 
37 0.6819983600624985 0.7313537016191705 0 0 
38 0.6647958656139379 0.7470250712409959 0 0 
39 0.6472333724764324 0.7622919136084179 0 0 
40 0.6293203910498375 0.7771459614569708 0 0 
41 0.6052939880428944 0.7960020025346221 0 0 
42 0.5807029557109399 0.8141155183563191 0 0 
43 0.5555702330196023 0.8314696123025452 0 0 
44 0.5299192642332049 0.848048096156426 0 0 
45 0.5037739770455263 0.8638355052043957 0 0 
46 0.4771587602596084 0.8788171126619654 0 0 
47 0.4565804082611656 0.8896821515530517 0 0 
48 0.4357548099170794 0.9000654118641211 0 0 
49 0.4146932426562391 0.9099612708765432 0 0 
50 0.3934071116888652 0.919364369808089 0 0 
51 0.3719079438303866 0.9282696167148067 0 0 
52 0.3502073812594674 0.9366721892483976 0 0 
53 0.3283171752135611 0.9445675372676047 0 0 
54 0.3062491796254081 0.9519513853021931 0 0 
55 0.2840153447039228 0.9588197348681931 0 0 
56 0.2546019482055276 0.9670459389139431 0 0 
57 0.2249510543438651 0.9743700647852352 0 0 
58 0.1950903220161283 0.9807852804032304 0 0 
59 0.1650476058606776 0.9862856015372314 0 0 
60 0.1348509302737231 0.9908658973868822 0 0 
61 0.1045284632676535 0.9945218953682733 0 0 
62 0.0813586746678583 0.9966848880445061 0 0 
63 0.0581448289104759 0.9983081582712682 0 0 
64 0.03489949670250108 0.9993908270190958 0 0 
65 0.01163526580139717 0.9999323080037622 0 0 
66 -0.01163526580139682 0.9999323080037622 0 0 
67 -0.03489949670250073 0.9993908270190958 0 0 
68 -0.05814482891047577 0.9983081582712682 0 0 
69 -0.08135867466785818 0.9966848880445061 0 0 
70 -0.1045284632676533 0.9945218953682734 0 0 
71 -0.1348509302737227 0.9908658973868824 0 0 
72 -0.1650476058606777 0.9862856015372314 0 0 
73 -0.1950903220161282 0.9807852804032304 0 0 
74 -0.2249510543438648 0.9743700647852352 0 0 
75 -0.2546019482055277 0.9670459389139431 0 0 
76 -0.2840153447039226 0.9588197348681931 0 0 
77 -0.306249179625408 0.9519513853021931 0 0 
78 -0.328317175213561 0.9445675372676048 0 0 
79 -0.3502073812594675 0.9366721892483976 0 0 
80 -0.3719079438303867 0.9282696167148066 0 0 
81 -0.3934071116888649 0.9193643698080892 0 0 
82 -0.4146932426562388 0.9099612708765433 0 0 
83 -0.4357548099170791 0.9000654118641213 0 0 
84 -0.4565804082611655 0.8896821515530519 0 0 
85 -0.4771587602596085 0.8788171126619654 0 0 
86 -0.5037739770455263 0.8638355052043958 0 0 
87 -0.5299192642332048 0.8480480961564261 0 0 
88 -0.555570233019602 0.8314696123025453 0 0 
89 -0.5807029557109398 0.8141155183563192 0 0 
90 -0.6052939880428942 0.7960020025346222 0 0 
91 -0.6293203910498373 0.777145961456971 0 0 
92 -0.6472333724764323 0.762291913608418 0 0 
93 -0.6647958656139379 0.7470250712409959 0 0 
94 -0.6819983600624984 0.7313537016191706 0 0 
95 -0.6988315403679001 0.7152862910660515 0 0 
96 -0.7152862910660513 0.6988315403679002 0 0 
97 -0.7313537016191705 0.6819983600624986 0 0 
98 -0.7470250712409957 0.6647958656139381 0 0 
99 -0.7622919136084179 0.6472333724764325 0 0 
100 -0.7771459614569709 0.6293203910498374 0 0 
101 -0.7960020025346219 0.6052939880428945 0 0 
102 -0.8141155183563191 0.5807029557109399 0 0 
103 -0.8314696123025453 0.5555702330196022 0 0 
104 -0.848048096156426 0.529919264233205 0 0 
105 -0.8638355052043957 0.5037739770455264 0 0 
106 -0.8788171126619653 0.4771587602596086 0 0 
107 -0.8896821515530517 0.4565804082611656 0 0 
108 -0.9000654118641211 0.4357548099170793 0 0 
109 -0.9099612708765431 0.4146932426562392 0 0 
110 -0.9193643698080891 0.3934071116888651 0 0 
111 -0.9282696167148066 0.3719079438303868 0 0 
112 -0.9366721892483976 0.3502073812594675 0 0 
113 -0.9445675372676047 0.3283171752135614 0 0 
114 -0.9519513853021931 0.3062491796254082 0 0 
115 -0.9588197348681931 0.2840153447039226 0 0 
116 -0.9670459389139431 0.2546019482055277 0 0 
117 -0.9743700647852351 0.2249510543438652 0 0 
118 -0.9807852804032304 0.1950903220161286 0 0 
119 -0.9862856015372314 0.1650476058606777 0 0 
120 -0.9908658973868822 0.1348509302737232 0 0 
121 -0.9945218953682733 0.1045284632676537 0 0 
122 -0.9966848880445061 0.08135867466785837 0 0 
123 -0.9983081582712682 0.05814482891047573 0 0 
124 -0.9993908270190958 0.03489949670250114 0 0 
125 -0.9999323080037622 0.011635265801397 0 0 
126 -0.9999323080037622 -0.0116352658013972 0 0 
127 -0.9993908270190958 -0.0348994967025009 0 0 
128 -0.9983081582712682 -0.05814482891047593 0 0 
129 -0.9966848880445061 -0.08135867466785901 0 0 
130 -0.9945218953682733 -0.1045284632676535 0 0 
131 -0.9908658973868822 -0.1348509302737229 0 0 
132 -0.9862856015372314 -0.1650476058606774 0 0 
133 -0.9807852804032304 -0.1950903220161284 0 0 
134 -0.9743700647852352 -0.224951054343865 0 0 
135 -0.9670459389139432 -0.2546019482055275 0 0 
136 -0.9588197348681932 -0.2840153447039224 0 0 
137 -0.9519513853021931 -0.3062491796254079 0 0 
138 -0.9445675372676049 -0.3283171752135607 0 0 
139 -0.9366721892483977 -0.3502073812594673 0 0 
140 -0.9282696167148068 -0.3719079438303862 0 0 
141 -0.919364369808089 -0.3934071116888653 0 0 
142 -0.9099612708765432 -0.414693242656239 0 0 
143 -0.9000654118641211 -0.4357548099170794 0 0 
144 -0.8896821515530519 -0.4565804082611654 0 0 
145 -0.8788171126619654 -0.4771587602596084 0 0 
146 -0.8638355052043958 -0.5037739770455262 0 0 
147 -0.8480480961564261 -0.5299192642332048 0 0 
148 -0.8314696123025455 -0.555570233019602 0 0 
149 -0.8141155183563192 -0.5807029557109398 0 0 
150 -0.7960020025346222 -0.6052939880428942 0 0 
151 -0.7771459614569711 -0.6293203910498373 0 0 
152 -0.7622919136084181 -0.6472333724764323 0 0 
153 -0.7470250712409962 -0.6647958656139376 0 0 
154 -0.7313537016191706 -0.6819983600624984 0 0 
155 -0.7152862910660518 -0.6988315403678996 0 0 
156 -0.6988315403678999 -0.7152862910660516 0 0 
157 -0.6819983600624986 -0.7313537016191703 0 0 
158 -0.6647958656139378 -0.747025071240996 0 0 
159 -0.6472333724764325 -0.7622919136084179 0 0 
160 -0.6293203910498371 -0.7771459614569711 0 0 
161 -0.6052939880428941 -0.7960020025346223 0 0 
162 -0.5807029557109396 -0.8141155183563193 0 0 
163 -0.5555702330196022 -0.8314696123025452 0 0 
164 -0.529919264233205 -0.848048096156426 0 0 
165 -0.5037739770455264 -0.8638355052043956 0 0 
166 -0.4771587602596087 -0.8788171126619653 0 0 
167 -0.4565804082611653 -0.8896821515530519 0 0 
168 -0.4357548099170801 -0.9000654118641208 0 0 
169 -0.4146932426562392 -0.9099612708765431 0 0 
170 -0.3934071116888656 -0.9193643698080889 0 0 
171 -0.3719079438303865 -0.9282696167148067 0 0 
172 -0.3502073812594676 -0.9366721892483976 0 0 
173 -0.3283171752135606 -0.9445675372676049 0 0 
174 -0.3062491796254087 -0.9519513853021929 0 0 
175 -0.2840153447039226 -0.9588197348681931 0 0 
176 -0.2546019482055277 -0.9670459389139431 0 0 
177 -0.2249510543438653 -0.9743700647852351 0 0 
178 -0.1950903220161287 -0.9807852804032303 0 0 
179 -0.1650476058606782 -0.9862856015372313 0 0 
180 -0.1348509302737237 -0.9908658973868821 0 0 
181 -0.1045284632676542 -0.9945218953682733 0 0 
182 -0.08135867466785843 -0.9966848880445061 0 0 
183 -0.05814482891047624 -0.9983081582712682 0 0 
184 -0.03489949670250076 -0.9993908270190958 0 0 
185 -0.01163526580139707 -0.9999323080037622 0 0 
186 0.0116352658013967 -0.9999323080037622 0 0 
187 0.03489949670250039 -0.9993908270190958 0 0 
188 0.05814482891047587 -0.9983081582712682 0 0 
189 0.08135867466785807 -0.9966848880445061 0 0 
190 0.1045284632676539 -0.9945218953682733 0 0 
191 0.1348509302737233 -0.9908658973868822 0 0 
192 0.1650476058606778 -0.9862856015372313 0 0 
193 0.1950903220161283 -0.9807852804032304 0 0 
194 0.2249510543438649 -0.9743700647852352 0 0 
195 0.2546019482055274 -0.9670459389139432 0 0 
196 0.2840153447039223 -0.9588197348681932 0 0 
197 0.3062491796254083 -0.951951385302193 0 0 
198 0.3283171752135602 -0.944567537267605 0 0 
199 0.3502073812594672 -0.9366721892483977 0 0 
200 0.3719079438303862 -0.9282696167148068 0 0 
201 0.3934071116888652 -0.9193643698080891 0 0 
202 0.4146932426562389 -0.9099612708765432 0 0 
203 0.4357548099170798 -0.9000654118641209 0 0 
204 0.456580408261165 -0.8896821515530521 0 0 
205 0.4771587602596083 -0.8788171126619654 0 0 
206 0.5037739770455262 -0.8638355052043958 0 0 
207 0.5299192642332047 -0.8480480961564262 0 0 
208 0.5555702330196018 -0.8314696123025455 0 0 
209 0.5807029557109393 -0.8141155183563196 0 0 
210 0.6052939880428938 -0.7960020025346225 0 0 
211 0.6293203910498368 -0.7771459614569713 0 0 
212 0.6472333724764323 -0.7622919136084181 0 0 
213 0.6647958656139376 -0.7470250712409963 0 0 
214 0.6819983600624987 -0.7313537016191703 0 0 
215 0.6988315403679 -0.7152862910660516 0 0 
216 0.7152862910660512 -0.6988315403679002 0 0 
217 0.73135370161917 -0.6819983600624989 0 0 
218 0.747025071240996 -0.6647958656139379 0 0 
219 0.7622919136084177 -0.6472333724764326 0 0 
220 0.7771459614569711 -0.6293203910498372 0 0 
221 0.7960020025346222 -0.6052939880428941 0 0 
222 0.8141155183563192 -0.5807029557109397 0 0 
223 0.8314696123025452 -0.5555702330196022 0 0 
224 0.8480480961564258 -0.529919264233205 0 0 
225 0.8638355052043956 -0.5037739770455265 0 0 
226 0.8788171126619652 -0.4771587602596087 0 0 
227 0.8896821515530519 -0.4565804082611654 0 0 
228 0.9000654118641208 -0.4357548099170802 0 0 
229 0.9099612708765431 -0.4146932426562393 0 0 
230 0.9193643698080889 -0.3934071116888656 0 0 
231 0.9282696167148067 -0.3719079438303866 0 0 
232 0.9366721892483976 -0.3502073812594677 0 0 
233 0.9445675372676049 -0.3283171752135606 0 0 
234 0.9519513853021929 -0.3062491796254087 0 0 
235 0.9588197348681931 -0.2840153447039227 0 0 
236 0.9670459389139431 -0.2546019482055278 0 0 
237 0.9743700647852351 -0.2249510543438653 0 0 
238 0.9807852804032303 -0.1950903220161287 0 0 
239 0.9862856015372313 -0.1650476058606782 0 0 
240 0.9908658973868821 -0.1348509302737237 0 0 
1 0.9945217953682733 -0.1045285632676535 -1e-07 0.996684988044506 -0.08135857466785827 1e-07 1 1 2 1 -2 
2 0.9966847880445061 -0.08135877466785828 -1e-07 0.9983082582712681 -0.05814472891047582 1e-07 1 1 2 2 -3 
3 0.9983080582712682 -0.05814492891047583 -1e-07 0.9993909270190957 -0.03489939670250096 1e-07 1 1 2 3 -4 
4 0.9993907270190958 -0.03489959670250097 -1e-07 0.9999324080037622 -0.01163516580139701 1e-07 1 1 2 4 -5 
5 0.9999322080037623 -0.01163536580139701 -1e-07 0.9999324080037622 0.01163536580139701 1e-07 1 1 2 5 -6 
6 0.9993907270190958 0.01163516580139701 -1e-07 0.9999324080037622 0.03489959670250098 1e-07 1 1 2 6 -7 
7 0.9983080582712682 0.03489939670250097 -1e-07 0.9993909270190957 0.05814492891047585 1e-07 1 1 2 7 -8 
8 0.9966847880445061 0.05814472891047584 -1e-07 0.9983082582712681 0.08135877466785829 1e-07 1 1 2 8 -9 
9 0.9945217953682733 0.08135857466785829 -1e-07 0.996684988044506 0.1045285632676535 1e-07 1 1 2 9 -10 
10 0.9908657973868823 0.1045283632676535 -1e-07 0.9945219953682732 0.134851030273723 1e-07 1 0 2 10 -11 
11 0.9862855015372315 0.134850830273723 -1e-07 0.9908659973868822 0.1650477058606777 1e-07 1 0 2 11 -12 
12 0.9807851804032305 0.1650475058606777 -1e-07 0.9862857015372314 0.1950904220161283 1e-07 1 0 2 12 -13 
13 0.9743699647852353 0.1950902220161282 -1e-07 0.9807853804032304 0.224951154343865 1e-07 1 0 2 13 -14 
14 0.9670458389139431 0.224950954343865 -1e-07 0.9743701647852352 0.2546020482055276 1e-07 1 0 2 14 -15 
15 0.9588196348681931 0.2546018482055276 -1e-07 0.967046038913943 0.2840154447039226 1e-07 1 0 2 15 -16 
16 0.9519512853021932 0.2840152447039226 -1e-07 0.958819834868193 0.306249279625408 1e-07 1 2 2 16 -17 
17 0.9445674372676048 0.306249079625408 -1e-07 0.9519514853021931 0.328317275213561 1e-07 1 2 2 17 -18 
18 0.9366720892483976 0.328317075213561 -1e-07 0.9445676372676047 0.3502074812594675 1e-07 1 2 2 18 -19 
19 0.9282695167148067 0.3502072812594675 -1e-07 0.9366722892483975 0.3719080438303866 1e-07 1 2 2 19 -20 
20 0.9193642698080892 0.3719078438303866 -1e-07 0.9282697167148066 0.3934072116888651 1e-07 1 2 2 20 -21 
21 0.9099611708765433 0.3934070116888651 -1e-07 0.9193644698080891 0.4146933426562391 1e-07 1 2 2 21 -22 
22 0.9000653118641212 0.4146931426562391 -1e-07 0.9099613708765432 0.4357549099170794 1e-07 1 2 2 22 -23 
23 0.8896820515530518 0.4357547099170794 -1e-07 0.9000655118641211 0.4565805082611655 1e-07 1 2 2 23 -24 
24 0.8788170126619654 0.4565803082611655 -1e-07 0.8896822515530517 0.4771588602596084 1e-07 1 2 2 24 -25 
25 0.8638354052043958 0.4771586602596084 -1e-07 0.8788172126619653 0.5037740770455261 1e-07 1 0 2 25 -26 
26 0.848047996156426 0.5037738770455262 -1e-07 0.8638356052043957 0.5299193642332048 1e-07 1 0 2 26 -27 
27 0.8314695123025453 0.529919164233205 -1e-07 0.8480481961564259 0.5555703330196021 1e-07 1 0 2 27 -28 
28 0.8141154183563193 0.5555701330196022 -1e-07 0.8314697123025452 0.5807030557109397 1e-07 1 0 2 28 -29 
29 0.7960019025346221 0.5807028557109398 -1e-07 0.8141156183563192 0.6052940880428943 1e-07 1 0 2 29 -30 
30 0.7771458614569708 0.6052938880428944 -1e-07 0.796002102534622 0.6293204910498374 1e-07 1 0 2 30 -31 
31 0.762291813608418 0.6293202910498376 -1e-07 0.7771460614569707 0.6472334724764324 1e-07 1 3 2 31 -32 
32 0.7470249712409961 0.6472332724764325 -1e-07 0.7622920136084179 0.6647959656139377 1e-07 1 3 2 32 -33 
33 0.7313536016191705 0.6647957656139378 -1e-07 0.747025171240996 0.6819984600624984 1e-07 1 3 2 33 -34 
34 0.7152861910660515 0.6819982600624985 -1e-07 0.7313538016191704 0.6988316403678999 1e-07 1 3 2 34 -35 
35 0.6988314403679 0.6988314403679 -1e-07 0.7152863910660514 0.7152863910660514 1e-07 1 3 2 35 -36 
36 0.6819982600624985 0.7152861910660515 -1e-07 0.6988316403678999 0.7313538016191704 1e-07 1 3 2 36 -37 
37 0.6647957656139379 0.7313536016191705 -1e-07 0.6819984600624984 0.7470251712409959 1e-07 1 3 2 37 -38 
38 0.6472332724764325 0.747024971240996 -1e-07 0.6647959656139378 0.7622920136084178 1e-07 1 3 2 38 -39 
39 0.6293202910498376 0.7622918136084179 -1e-07 0.6472334724764324 0.7771460614569707 1e-07 1 3 2 39 -40 
40 0.6052938880428944 0.7771458614569708 -1e-07 0.6293204910498374 0.796002102534622 1e-07 1 0 2 40 -41 
41 0.5807028557109399 0.7960019025346221 -1e-07 0.6052940880428943 0.8141156183563191 1e-07 1 0 2 41 -42 
42 0.5555701330196023 0.8141154183563192 -1e-07 0.5807030557109398 0.8314697123025452 1e-07 1 0 2 42 -43 
43 0.529919164233205 0.8314695123025453 -1e-07 0.5555703330196022 0.8480481961564259 1e-07 1 0 2 43 -44 
44 0.5037738770455263 0.848047996156426 -1e-07 0.5299193642332048 0.8638356052043956 1e-07 1 0 2 44 -45 
45 0.4771586602596084 0.8638354052043957 -1e-07 0.5037740770455262 0.8788172126619653 1e-07 1 0 2 45 -46 
46 0.4565803082611656 0.8788170126619654 -1e-07 0.4771588602596084 0.8896822515530517 1e-07 1 4 2 46 -47 
47 0.4357547099170794 0.8896820515530518 -1e-07 0.4565805082611656 0.9000655118641211 1e-07 1 4 2 47 -48 
48 0.4146931426562391 0.9000653118641212 -1e-07 0.4357549099170794 0.9099613708765432 1e-07 1 4 2 48 -49 
49 0.3934070116888652 0.9099611708765433 -1e-07 0.4146933426562391 0.9193644698080889 1e-07 1 4 2 49 -50 
50 0.3719078438303866 0.9193642698080891 -1e-07 0.3934072116888652 0.9282697167148066 1e-07 1 4 2 50 -51 
51 0.3502072812594674 0.9282695167148067 -1e-07 0.3719080438303866 0.9366722892483975 1e-07 1 4 2 51 -52 
52 0.3283170752135611 0.9366720892483976 -1e-07 0.3502074812594674 0.9445676372676046 1e-07 1 4 2 52 -53 
53 0.3062490796254081 0.9445674372676047 -1e-07 0.3283172752135611 0.9519514853021931 1e-07 1 4 2 53 -54 
54 0.2840152447039228 0.9519512853021932 -1e-07 0.3062492796254081 0.958819834868193 1e-07 1 4 2 54 -55 
55 0.2546018482055276 0.9588196348681931 -1e-07 0.2840154447039228 0.967046038913943 1e-07 1 0 2 55 -56 
56 0.2249509543438651 0.9670458389139431 -1e-07 0.2546020482055276 0.9743701647852352 1e-07 1 0 2 56 -57 
57 0.1950902220161283 0.9743699647852353 -1e-07 0.2249511543438651 0.9807853804032304 1e-07 1 0 2 57 -58 
58 0.1650475058606776 0.9807851804032305 -1e-07 0.1950904220161283 0.9862857015372314 1e-07 1 0 2 58 -59 
59 0.1348508302737231 0.9862855015372315 -1e-07 0.1650477058606776 0.9908659973868822 1e-07 1 0 2 59 -60 
60 0.1045283632676535 0.9908657973868823 -1e-07 0.1348510302737231 0.9945219953682732 1e-07 1 0 2 60 -61 
61 0.0813585746678583 0.9945217953682733 -1e-07 0.1045285632676535 0.996684988044506 1e-07 1 5 2 61 -62 
62 0.0581447289104759 0.9966847880445061 -1e-07 0.08135877466785831 0.9983082582712681 1e-07 1 5 2 62 -63 
63 0.03489939670250108 0.9983080582712682 -1e-07 0.0581449289104759 0.9993909270190957 1e-07 1 5 2 63 -64 
64 0.01163516580139717 0.9993907270190958 -1e-07 0.03489959670250108 0.9999324080037622 1e-07 1 5 2 64 -65 
65 -0.01163536580139682 0.9999322080037623 -1e-07 0.01163536580139717 0.9999324080037622 1e-07 1 5 2 65 -66 
66 -0.03489959670250074 0.9993907270190958 -1e-07 -0.01163516580139682 0.9999324080037622 1e-07 1 5 2 66 -67 
67 -0.05814492891047578 0.9983080582712682 -1e-07 -0.03489939670250073 0.9993909270190957 1e-07 1 5 2 67 -68 
68 -0.08135877466785818 0.9966847880445061 -1e-07 -0.05814472891047577 0.9983082582712681 1e-07 1 5 2 68 -69 
69 -0.1045285632676533 0.9945217953682735 -1e-07 -0.08135857466785817 0.996684988044506 1e-07 1 5 2 69 -70 
70 -0.1348510302737227 0.9908657973868824 -1e-07 -0.1045283632676533 0.9945219953682733 1e-07 1 0 2 70 -71 
71 -0.1650477058606777 0.9862855015372315 -1e-07 -0.1348508302737227 0.9908659973868823 1e-07 1 0 2 71 -72 
72 -0.1950904220161282 0.9807851804032305 -1e-07 -0.1650475058606777 0.9862857015372314 1e-07 1 0 2 72 -73 
73 -0.2249511543438648 0.9743699647852353 -1e-07 -0.1950902220161282 0.9807853804032304 1e-07 1 0 2 73 -74 
74 -0.2546020482055277 0.9670458389139431 -1e-07 -0.2249509543438648 0.9743701647852352 1e-07 1 0 2 74 -75 
75 -0.2840154447039226 0.9588196348681931 -1e-07 -0.2546018482055277 0.967046038913943 1e-07 1 0 2 75 -76 
76 -0.306249279625408 0.9519512853021932 -1e-07 -0.2840152447039226 0.958819834868193 1e-07 1 6 2 76 -77 
77 -0.328317275213561 0.9445674372676048 -1e-07 -0.306249079625408 0.9519514853021931 1e-07 1 6 2 77 -78 
78 -0.3502074812594675 0.9366720892483976 -1e-07 -0.328317075213561 0.9445676372676047 1e-07 1 6 2 78 -79 
79 -0.3719080438303867 0.9282695167148066 -1e-07 -0.3502072812594675 0.9366722892483975 1e-07 1 6 2 79 -80 
80 -0.3934072116888649 0.9193642698080893 -1e-07 -0.3719078438303867 0.9282697167148065 1e-07 1 6 2 80 -81 
81 -0.4146933426562388 0.9099611708765434 -1e-07 -0.3934070116888649 0.9193644698080892 1e-07 1 6 2 81 -82 
82 -0.4357549099170791 0.9000653118641213 -1e-07 -0.4146931426562388 0.9099613708765433 1e-07 1 6 2 82 -83 
83 -0.4565805082611655 0.8896820515530519 -1e-07 -0.4357547099170791 0.9000655118641212 1e-07 1 6 2 83 -84 
84 -0.4771588602596085 0.8788170126619654 -1e-07 -0.4565803082611655 0.8896822515530518 1e-07 1 6 2 84 -85 
85 -0.5037740770455262 0.8638354052043958 -1e-07 -0.4771586602596085 0.8788172126619653 1e-07 1 0 2 85 -86 
86 -0.5299193642332047 0.8480479961564261 -1e-07 -0.5037738770455263 0.8638356052043957 1e-07 1 0 2 86 -87 
87 -0.5555703330196019 0.8314695123025454 -1e-07 -0.5299191642332048 0.848048196156426 1e-07 1 0 2 87 -88 
88 -0.5807030557109397 0.8141154183563193 -1e-07 -0.555570133019602 0.8314697123025453 1e-07 1 0 2 88 -89 
89 -0.6052940880428942 0.7960019025346222 -1e-07 -0.5807028557109398 0.8141156183563192 1e-07 1 0 2 89 -90 
90 -0.6293204910498372 0.7771458614569711 -1e-07 -0.6052938880428943 0.7960021025346221 1e-07 1 0 2 90 -91 
91 -0.6472334724764323 0.762291813608418 -1e-07 -0.6293202910498373 0.777146061456971 1e-07 1 7 2 91 -92 
92 -0.6647959656139378 0.747024971240996 -1e-07 -0.6472332724764324 0.7622920136084179 1e-07 1 7 2 92 -93 
93 -0.6819984600624983 0.7313536016191706 -1e-07 -0.6647957656139379 0.7470251712409959 1e-07 1 7 2 93 -94 
94 -0.6988316403679 0.7152861910660515 -1e-07 -0.6819982600624984 0.7313538016191705 1e-07 1 7 2 94 -95 
95 -0.7152863910660513 0.6988314403679002 -1e-07 -0.6988314403679001 0.7152863910660514 1e-07 1 7 2 95 -96 
96 -0.7313538016191704 0.6819982600624986 -1e-07 -0.7152861910660514 0.6988316403679001 1e-07 1 7 2 96 -97 
97 -0.7470251712409957 0.6647957656139382 -1e-07 -0.7313536016191705 0.6819984600624985 1e-07 1 7 2 97 -98 
98 -0.7622920136084178 0.6472332724764326 -1e-07 -0.7470249712409958 0.6647959656139381 1e-07 1 7 2 98 -99 
99 -0.7771460614569708 0.6293202910498374 -1e-07 -0.7622918136084179 0.6472334724764325 1e-07 1 7 2 99 -100 
100 -0.7960021025346219 0.6052938880428945 -1e-07 -0.777145861456971 0.6293204910498373 1e-07 1 0 2 100 -101 
101 -0.8141156183563191 0.5807028557109399 -1e-07 -0.796001902534622 0.6052940880428944 1e-07 1 0 2 101 -102 
102 -0.8314697123025453 0.5555701330196022 -1e-07 -0.8141154183563192 0.5807030557109398 1e-07 1 0 2 102 -103 
103 -0.8480481961564259 0.5299191642332051 -1e-07 -0.8314695123025454 0.5555703330196021 1e-07 1 0 2 103 -104 
104 -0.8638356052043956 0.5037738770455265 -1e-07 -0.848047996156426 0.529919364233205 1e-07 1 0 2 104 -105 
105 -0.8788172126619652 0.4771586602596086 -1e-07 -0.8638354052043957 0.5037740770455263 1e-07 1 0 2 105 -106 
106 -0.8896822515530517 0.4565803082611656 -1e-07 -0.8788170126619653 0.4771588602596086 1e-07 1 8 2 106 -107 
107 -0.9000655118641211 0.4357547099170793 -1e-07 -0.8896820515530518 0.4565805082611656 1e-07 1 8 2 107 -108 
108 -0.9099613708765431 0.4146931426562392 -1e-07 -0.9000653118641212 0.4357549099170793 1e-07 1 8 2 108 -109 
109 -0.9193644698080891 0.393407011688865 -1e-07 -0.9099611708765432 0.4146933426562392 1e-07 1 8 2 109 -110 
110 -0.9282697167148065 0.3719078438303868 -1e-07 -0.9193642698080892 0.3934072116888651 1e-07 1 8 2 110 -111 
111 -0.9366722892483975 0.3502072812594675 -1e-07 -0.9282695167148066 0.3719080438303868 1e-07 1 8 2 111 -112 
112 -0.9445676372676046 0.3283170752135613 -1e-07 -0.9366720892483976 0.3502074812594675 1e-07 1 8 2 112 -113 
113 -0.9519514853021931 0.3062490796254081 -1e-07 -0.9445674372676047 0.3283172752135614 1e-07 1 8 2 113 -114 
114 -0.958819834868193 0.2840152447039226 -1e-07 -0.9519512853021932 0.3062492796254082 1e-07 1 8 2 114 -115 
115 -0.967046038913943 0.2546018482055277 -1e-07 -0.9588196348681931 0.2840154447039226 1e-07 1 0 2 115 -116 
116 -0.9743701647852351 0.2249509543438652 -1e-07 -0.9670458389139431 0.2546020482055277 1e-07 1 0 2 116 -117 
117 -0.9807853804032304 0.1950902220161286 -1e-07 -0.9743699647852352 0.2249511543438652 1e-07 1 0 2 117 -118 
118 -0.9862857015372314 0.1650475058606777 -1e-07 -0.9807851804032305 0.1950904220161286 1e-07 1 0 2 118 -119 
119 -0.9908659973868822 0.1348508302737232 -1e-07 -0.9862855015372315 0.1650477058606777 1e-07 1 0 2 119 -120 
120 -0.9945219953682732 0.1045283632676537 -1e-07 -0.9908657973868823 0.1348510302737232 1e-07 1 0 2 120 -121 
121 -0.996684988044506 0.08135857466785837 -1e-07 -0.9945217953682733 0.1045285632676537 1e-07 1 9 2 121 -122 
122 -0.9983082582712681 0.05814472891047573 -1e-07 -0.9966847880445061 0.08135877466785837 1e-07 1 9 2 122 -123 
123 -0.9993909270190957 0.03489939670250114 -1e-07 -0.9983080582712682 0.05814492891047573 1e-07 1 9 2 123 -124 
124 -0.9999324080037622 0.011635165801397 -1e-07 -0.9993907270190958 0.03489959670250115 1e-07 1 9 2 124 -125 
125 -0.9999324080037622 -0.0116353658013972 -1e-07 -0.9999322080037623 0.011635365801397 1e-07 1 9 2 125 -126 
126 -0.9999324080037622 -0.0348995967025009 -1e-07 -0.9993907270190958 -0.0116351658013972 1e-07 1 9 2 126 -127 
127 -0.9993909270190957 -0.05814492891047594 -1e-07 -0.9983080582712682 -0.0348993967025009 1e-07 1 9 2 127 -128 
128 -0.9983082582712681 -0.08135877466785901 -1e-07 -0.9966847880445061 -0.05814472891047593 1e-07 1 9 2 128 -129 
129 -0.996684988044506 -0.1045285632676535 -1e-07 -0.9945217953682733 -0.08135857466785901 1e-07 1 9 2 129 -130 
130 -0.9945219953682732 -0.1348510302737229 -1e-07 -0.9908657973868823 -0.1045283632676535 1e-07 1 0 2 130 -131 
131 -0.9908659973868822 -0.1650477058606774 -1e-07 -0.9862855015372315 -0.1348508302737229 1e-07 1 0 2 131 -132 
132 -0.9862857015372314 -0.1950904220161284 -1e-07 -0.9807851804032305 -0.1650475058606774 1e-07 1 0 2 132 -133 
133 -0.9807853804032304 -0.224951154343865 -1e-07 -0.9743699647852353 -0.1950902220161284 1e-07 1 0 2 133 -134 
134 -0.9743701647852352 -0.2546020482055275 -1e-07 -0.9670458389139432 -0.224950954343865 1e-07 1 0 2 134 -135 
135 -0.9670460389139431 -0.2840154447039224 -1e-07 -0.9588196348681932 -0.2546018482055274 1e-07 1 0 2 135 -136 
136 -0.9588198348681931 -0.3062492796254079 -1e-07 -0.9519512853021932 -0.2840152447039224 1e-07 1 10 2 136 -137 
137 -0.9519514853021931 -0.3283172752135607 -1e-07 -0.9445674372676049 -0.3062490796254079 1e-07 1 10 2 137 -138 
138 -0.9445676372676048 -0.3502074812594673 -1e-07 -0.9366720892483977 -0.3283170752135607 1e-07 1 10 2 138 -139 
139 -0.9366722892483976 -0.3719080438303862 -1e-07 -0.9282695167148068 -0.3502072812594673 1e-07 1 10 2 139 -140 
140 -0.9282697167148067 -0.3934072116888653 -1e-07 -0.9193642698080891 -0.3719078438303862 1e-07 1 10 2 140 -141 
141 -0.9193644698080889 -0.414693342656239 -1e-07 -0.9099611708765433 -0.3934070116888653 1e-07 1 10 2 141 -142 
142 -0.9099613708765432 -0.4357549099170794 -1e-07 -0.9000653118641212 -0.414693142656239 1e-07 1 10 2 142 -143 
143 -0.9000655118641211 -0.4565805082611654 -1e-07 -0.8896820515530519 -0.4357547099170794 1e-07 1 10 2 143 -144 
144 -0.8896822515530518 -0.4771588602596084 -1e-07 -0.8788170126619654 -0.4565803082611654 1e-07 1 10 2 144 -145 
145 -0.8788172126619653 -0.5037740770455261 -1e-07 -0.8638354052043958 -0.4771586602596084 1e-07 1 0 2 145 -146 
146 -0.8638356052043957 -0.5299193642332047 -1e-07 -0.8480479961564261 -0.5037738770455262 1e-07 1 0 2 146 -147 
147 -0.848048196156426 -0.5555703330196019 -1e-07 -0.8314695123025455 -0.5299191642332048 1e-07 1 0 2 147 -148 
148 -0.8314697123025454 -0.5807030557109397 -1e-07 -0.8141154183563193 -0.555570133019602 1e-07 1 0 2 148 -149 
149 -0.8141156183563192 -0.6052940880428942 -1e-07 -0.7960019025346222 -0.5807028557109398 1e-07 1 0 2 149 -150 
150 -0.7960021025346221 -0.6293204910498372 -1e-07 -0.7771458614569712 -0.6052938880428943 1e-07 1 0 2 150 -151 
151 -0.7771460614569711 -0.6472334724764323 -1e-07 -0.7622918136084181 -0.6293202910498373 1e-07 1 11 2 151 -152 
152 -0.762292013608418 -0.6647959656139375 -1e-07 -0.7470249712409962 -0.6472332724764324 1e-07 1 11 2 152 -153 
153 -0.7470251712409961 -0.6819984600624983 -1e-07 -0.7313536016191706 -0.6647957656139376 1e-07 1 11 2 153 -154 
154 -0.7313538016191705 -0.6988316403678996 -1e-07 -0.7152861910660518 -0.6819982600624984 1e-07 1 11 2 154 -155 
155 -0.7152863910660517 -0.7152863910660515 -1e-07 -0.6988314403678999 -0.6988314403678997 1e-07 1 11 2 155 -156 
156 -0.6988316403678998 -0.7313538016191703 -1e-07 -0.6819982600624986 -0.7152861910660516 1e-07 1 11 2 156 -157 
157 -0.6819984600624985 -0.747025171240996 -1e-07 -0.6647957656139378 -0.7313536016191704 1e-07 1 11 2 157 -158 
158 -0.6647959656139377 -0.7622920136084178 -1e-07 -0.6472332724764326 -0.7470249712409961 1e-07 1 11 2 158 -159 
159 -0.6472334724764325 -0.7771460614569711 -1e-07 -0.6293202910498371 -0.7622918136084179 1e-07 1 11 2 159 -160 
160 -0.629320491049837 -0.7960021025346222 -1e-07 -0.6052938880428942 -0.7771458614569712 1e-07 1 0 2 160 -161 
161 -0.6052940880428941 -0.8141156183563193 -1e-07 -0.5807028557109396 -0.7960019025346223 1e-07 1 0 2 161 -162 
162 -0.5807030557109395 -0.8314697123025452 -1e-07 -0.5555701330196022 -0.8141154183563194 1e-07 1 0 2 162 -163 
163 -0.5555703330196021 -0.8480481961564259 -1e-07 -0.5299191642332051 -0.8314695123025453 1e-07 1 0 2 163 -164 
164 -0.529919364233205 -0.8638356052043955 -1e-07 -0.5037738770455265 -0.848047996156426 1e-07 1 0 2 164 -165 
165 -0.5037740770455263 -0.8788172126619652 -1e-07 -0.4771586602596087 -0.8638354052043956 1e-07 1 0 2 165 -166 
166 -0.4771588602596087 -0.8896822515530518 -1e-07 -0.4565803082611653 -0.8788170126619653 1e-07 1 12 2 166 -167 
167 -0.4565805082611653 -0.9000655118641208 -1e-07 -0.4357547099170801 -0.8896820515530519 1e-07 1 12 2 167 -168 
168 -0.4357549099170801 -0.9099613708765431 -1e-07 -0.4146931426562392 -0.9000653118641209 1e-07 1 12 2 168 -169 
169 -0.4146933426562392 -0.9193644698080888 -1e-07 -0.3934070116888655 -0.9099611708765432 1e-07 1 12 2 169 -170 
170 -0.3934072116888656 -0.9282697167148066 -1e-07 -0.3719078438303865 -0.9193642698080889 1e-07 1 12 2 170 -171 
171 -0.3719080438303865 -0.9366722892483975 -1e-07 -0.3502072812594676 -0.9282695167148067 1e-07 1 12 2 171 -172 
172 -0.3502074812594676 -0.9445676372676048 -1e-07 -0.3283170752135606 -0.9366720892483976 1e-07 1 12 2 172 -173 
173 -0.3283172752135606 -0.9519514853021929 -1e-07 -0.3062490796254086 -0.9445674372676049 1e-07 1 12 2 173 -174 
174 -0.3062492796254087 -0.958819834868193 -1e-07 -0.2840152447039226 -0.951951285302193 1e-07 1 12 2 174 -175 
175 -0.2840154447039226 -0.967046038913943 -1e-07 -0.2546018482055277 -0.9588196348681931 1e-07 1 0 2 175 -176 
176 -0.2546020482055277 -0.9743701647852351 -1e-07 -0.2249509543438653 -0.9670458389139431 1e-07 1 0 2 176 -177 
177 -0.2249511543438653 -0.9807853804032303 -1e-07 -0.1950902220161287 -0.9743699647852352 1e-07 1 0 2 177 -178 
178 -0.1950904220161287 -0.9862857015372313 -1e-07 -0.1650475058606782 -0.9807851804032304 1e-07 1 0 2 178 -179 
179 -0.1650477058606782 -0.9908659973868821 -1e-07 -0.1348508302737237 -0.9862855015372314 1e-07 1 0 2 179 -180 
180 -0.1348510302737237 -0.9945219953682732 -1e-07 -0.1045283632676542 -0.9908657973868822 1e-07 1 0 2 180 -181 
181 -0.1045285632676542 -0.996684988044506 -1e-07 -0.08135857466785842 -0.9945217953682733 1e-07 1 13 2 181 -182 
182 -0.08135877466785843 -0.9983082582712681 -1e-07 -0.05814472891047624 -0.9966847880445061 1e-07 1 13 2 182 -183 
183 -0.05814492891047624 -0.9993909270190957 -1e-07 -0.03489939670250076 -0.9983080582712682 1e-07 1 13 2 183 -184 
184 -0.03489959670250076 -0.9999324080037622 -1e-07 -0.01163516580139707 -0.9993907270190958 1e-07 1 13 2 184 -185 
185 -0.01163536580139706 -0.9999324080037622 -1e-07 0.0116353658013967 -0.9999322080037623 1e-07 1 13 2 185 -186 
186 0.0116351658013967 -0.9999324080037622 -1e-07 0.0348995967025004 -0.9993907270190958 1e-07 1 13 2 186 -187 
187 0.03489939670250039 -0.9993909270190957 -1e-07 0.05814492891047587 -0.9983080582712682 1e-07 1 13 2 187 -188 
188 0.05814472891047587 -0.9983082582712681 -1e-07 0.08135877466785807 -0.9966847880445061 1e-07 1 13 2 188 -189 
189 0.08135857466785806 -0.996684988044506 -1e-07 0.1045285632676539 -0.9945217953682733 1e-07 1 13 2 189 -190 
190 0.1045283632676539 -0.9945219953682732 -1e-07 0.1348510302737233 -0.9908657973868823 1e-07 1 0 2 190 -191 
191 0.1348508302737233 -0.9908659973868822 -1e-07 0.1650477058606778 -0.9862855015372314 1e-07 1 0 2 191 -192 
192 0.1650475058606778 -0.9862857015372313 -1e-07 0.1950904220161283 -0.9807851804032305 1e-07 1 0 2 192 -193 
193 0.1950902220161283 -0.9807853804032304 -1e-07 0.2249511543438649 -0.9743699647852353 1e-07 1 0 2 193 -194 
194 0.2249509543438649 -0.9743701647852352 -1e-07 0.2546020482055274 -0.9670458389139432 1e-07 1 0 2 194 -195 
195 0.2546018482055274 -0.9670460389139431 -1e-07 0.2840154447039223 -0.9588196348681932 1e-07 1 0 2 195 -196 
196 0.2840152447039223 -0.9588198348681931 -1e-07 0.3062492796254083 -0.9519512853021931 1e-07 1 14 2 196 -197 
197 0.3062490796254083 -0.951951485302193 -1e-07 0.3283172752135602 -0.9445674372676051 1e-07 1 14 2 197 -198 
198 0.3283170752135602 -0.944567637267605 -1e-07 0.3502074812594672 -0.9366720892483977 1e-07 1 14 2 198 -199 
199 0.3502072812594672 -0.9366722892483976 -1e-07 0.3719080438303862 -0.9282695167148068 1e-07 1 14 2 199 -200 
200 0.3719078438303862 -0.9282697167148067 -1e-07 0.3934072116888652 -0.9193642698080892 1e-07 1 14 2 200 -201 
201 0.3934070116888652 -0.9193644698080891 -1e-07 0.4146933426562389 -0.9099611708765433 1e-07 1 14 2 201 -202 
202 0.4146931426562389 -0.9099613708765432 -1e-07 0.4357549099170798 -0.900065311864121 1e-07 1 14 2 202 -203 
203 0.4357547099170798 -0.9000655118641209 -1e-07 0.456580508261165 -0.8896820515530521 1e-07 1 14 2 203 -204 
204 0.456580308261165 -0.889682251553052 -1e-07 0.4771588602596084 -0.8788170126619654 1e-07 1 14 2 204 -205 
205 0.4771586602596083 -0.8788172126619653 -1e-07 0.5037740770455261 -0.8638354052043958 1e-07 1 0 2 205 -206 
206 0.5037738770455262 -0.8638356052043957 -1e-07 0.5299193642332046 -0.8480479961564262 1e-07 1 0 2 206 -207 
207 0.5299191642332047 -0.8480481961564261 -1e-07 0.5555703330196018 -0.8314695123025455 1e-07 1 0 2 207 -208 
208 0.5555701330196019 -0.8314697123025454 -1e-07 0.5807030557109393 -0.8141154183563196 1e-07 1 0 2 208 -209 
209 0.5807028557109394 -0.8141156183563195 -1e-07 0.6052940880428938 -0.7960019025346226 1e-07 1 0 2 209 -210 
210 0.6052938880428939 -0.7960021025346224 -1e-07 0.6293204910498368 -0.7771458614569714 1e-07 1 0 2 210 -211 
211 0.6293202910498369 -0.7771460614569713 -1e-07 0.6472334724764323 -0.7622918136084181 1e-07 1 15 2 211 -212 
212 0.6472332724764324 -0.762292013608418 -1e-07 0.6647959656139375 -0.7470249712409963 1e-07 1 15 2 212 -213 
213 0.6647957656139376 -0.7470251712409962 -1e-07 0.6819984600624986 -0.7313536016191704 1e-07 1 15 2 213 -214 
214 0.6819982600624988 -0.7313538016191703 -1e-07 0.6988316403678999 -0.7152861910660516 1e-07 1 15 2 214 -215 
215 0.6988314403679 -0.7152863910660515 -1e-07 0.7152863910660512 -0.6988314403679002 1e-07 1 15 2 215 -216 
216 0.7152861910660513 -0.6988316403679001 -1e-07 0.73135380161917 -0.681998260062499 1e-07 1 15 2 216 -217 
217 0.7313536016191701 -0.6819984600624989 -1e-07 0.747025171240996 -0.6647957656139379 1e-07 1 15 2 217 -218 
218 0.7470249712409961 -0.6647959656139378 -1e-07 0.7622920136084177 -0.6472332724764327 1e-07 1 15 2 218 -219 
219 0.7622918136084178 -0.6472334724764326 -1e-07 0.7771460614569711 -0.6293202910498372 1e-07 1 15 2 219 -220 
220 0.7771458614569712 -0.6293204910498371 -1e-07 0.7960021025346221 -0.6052938880428942 1e-07 1 0 2 220 -221 
221 0.7960019025346222 -0.6052940880428941 -1e-07 0.8141156183563192 -0.5807028557109397 1e-07 1 0 2 221 -222 
222 0.8141154183563193 -0.5807030557109396 -1e-07 0.8314697123025452 -0.5555701330196022 1e-07 1 0 2 222 -223 
223 0.8314695123025453 -0.5555703330196021 -1e-07 0.8480481961564258 -0.5299191642332051 1e-07 1 0 2 223 -224 
224 0.8480479961564259 -0.529919364233205 -1e-07 0.8638356052043955 -0.5037738770455266 1e-07 1 0 2 224 -225 
225 0.8638354052043956 -0.5037740770455265 -1e-07 0.8788172126619651 -0.4771586602596087 1e-07 1 0 2 225 -226 
226 0.8788170126619652 -0.4771588602596087 -1e-07 0.8896822515530518 -0.4565803082611654 1e-07 1 16 2 226 -227 
227 0.8896820515530519 -0.4565805082611654 -1e-07 0.9000655118641208 -0.4357547099170802 1e-07 1 16 2 227 -228 
228 0.9000653118641209 -0.4357549099170802 -1e-07 0.9099613708765431 -0.4146931426562393 1e-07 1 16 2 228 -229 
229 0.9099611708765432 -0.4146933426562393 -1e-07 0.9193644698080888 -0.3934070116888656 1e-07 1 16 2 229 -230 
230 0.9193642698080889 -0.3934072116888656 -1e-07 0.9282697167148066 -0.3719078438303866 1e-07 1 16 2 230 -231 
231 0.9282695167148067 -0.3719080438303866 -1e-07 0.9366722892483975 -0.3502072812594677 1e-07 1 16 2 231 -232 
232 0.9366720892483976 -0.3502074812594677 -1e-07 0.9445676372676048 -0.3283170752135606 1e-07 1 16 2 232 -233 
233 0.9445674372676049 -0.3283172752135606 -1e-07 0.9519514853021929 -0.3062490796254087 1e-07 1 16 2 233 -234 
234 0.951951285302193 -0.3062492796254087 -1e-07 0.958819834868193 -0.2840152447039227 1e-07 1 16 2 234 -235 
235 0.9588196348681931 -0.2840154447039227 -1e-07 0.967046038913943 -0.2546018482055278 1e-07 1 0 2 235 -236 
236 0.9670458389139431 -0.2546020482055278 -1e-07 0.9743701647852351 -0.2249509543438653 1e-07 1 0 2 236 -237 
237 0.9743699647852352 -0.2249511543438653 -1e-07 0.9807853804032303 -0.1950902220161287 1e-07 1 0 2 237 -238 
238 0.9807851804032304 -0.1950904220161287 -1e-07 0.9862857015372313 -0.1650475058606782 1e-07 1 0 2 238 -239 
239 0.9862855015372314 -0.1650477058606782 -1e-07 0.9908659973868821 -0.1348508302737237 1e-07 1 0 2 239 -240 
240 0.9908657973868822 -0.1348510302737237 -1e-07 0.9945219953682732 -0.1045283632676535 1e-07 1 0 2 240 -1 
1 -0.9999324080037622 -0.9999324080037622 -1e-07 0.9999324080037622 0.9999324080037622 1e-07 1 1 240 1 2 3 4 5 6 7 8 9 10 11 12 13 14 15 16 17 18 19 20 21 22 23 24 25 26 27 28 29 30 31 32 33 34 35 36 37 38 39 40 41 42 43 44 45 46 47 48 49 50 51 52 53 54 55 56 57 58 59 60 61 62 63 64 65 66 67 68 69 70 71 72 73 74 75 76 77 78 79 80 81 82 83 84 85 86 87 88 89 90 91 92 93 94 95 96 97 98 99 100 101 102 103 104 105 106 107 108 109 110 111 112 113 114 115 116 117 118 119 120 121 122 123 124 125 126 127 128 129 130 131 132 133 134 135 136 137 138 139 140 141 142 143 144 145 146 147 148 149 150 151 152 153 154 155 156 157 158 159 160 161 162 163 164 165 166 167 168 169 170 171 172 173 174 175 176 177 178 179 180 181 182 183 184 185 186 187 188 189 190 191 192 193 194 195 196 197 198 199 200 201 202 203 204 205 206 207 208 209 210 211 212 213 214 215 216 217 218 219 220 221 222 223 224 225 226 227 228 229 230 231 232 233 234 235 236 237 238 239 240 
$EndEntities
$Nodes
481 572 1 572
0 1 0 1
1
0.9945218953682733 -0.1045284632676535 0
0 2 0 1
2
0.9966848880445061 -0.08135867466785827 0
0 3 0 1
3
0.9983081582712682 -0.05814482891047582 0
0 4 0 1
4
0.9993908270190958 -0.03489949670250096 0
0 5 0 1
5
0.9999323080037622 -0.01163526580139701 0
0 6 0 1
6
0.9999323080037622 0.01163526580139701 0
0 7 0 1
7
0.9993908270190958 0.03489949670250098 0
0 8 0 1
8
0.9983081582712682 0.05814482891047584 0
0 9 0 1
9
0.9966848880445061 0.08135867466785829 0
0 10 0 1
10
0.9945218953682733 0.1045284632676535 0
0 11 0 1
11
0.9908658973868822 0.134850930273723 0
0 12 0 1
12
0.9862856015372314 0.1650476058606777 0
0 13 0 1
13
0.9807852804032304 0.1950903220161282 0
0 14 0 1
14
0.9743700647852352 0.224951054343865 0
0 15 0 1
15
0.9670459389139431 0.2546019482055276 0
0 16 0 1
16
0.9588197348681931 0.2840153447039226 0
0 17 0 1
17
0.9519513853021931 0.306249179625408 0
0 18 0 1
18
0.9445675372676048 0.328317175213561 0
0 19 0 1
19
0.9366721892483976 0.3502073812594675 0
0 20 0 1
20
0.9282696167148067 0.3719079438303866 0
0 21 0 1
21
0.9193643698080891 0.3934071116888651 0
0 22 0 1
22
0.9099612708765432 0.4146932426562391 0
0 23 0 1
23
0.9000654118641211 0.4357548099170794 0
0 24 0 1
24
0.8896821515530517 0.4565804082611655 0
0 25 0 1
25
0.8788171126619654 0.4771587602596084 0
0 26 0 1
26
0.8638355052043958 0.5037739770455262 0
0 27 0 1
27
0.848048096156426 0.5299192642332049 0
0 28 0 1
28
0.8314696123025452 0.5555702330196022 0
0 29 0 1
29
0.8141155183563192 0.5807029557109398 0
0 30 0 1
30
0.7960020025346221 0.6052939880428944 0
0 31 0 1
31
0.7771459614569708 0.6293203910498375 0
0 32 0 1
32
0.762291913608418 0.6472333724764324 0
0 33 0 1
33
0.747025071240996 0.6647958656139378 0
0 34 0 1
34
0.7313537016191705 0.6819983600624985 0
0 35 0 1
35
0.7152862910660515 0.6988315403679 0
0 36 0 1
36
0.6988315403679 0.7152862910660515 0
0 37 0 1
37
0.6819983600624985 0.7313537016191705 0
0 38 0 1
38
0.6647958656139379 0.7470250712409959 0
0 39 0 1
39
0.6472333724764324 0.7622919136084179 0
0 40 0 1
40
0.6293203910498375 0.7771459614569708 0
0 41 0 1
41
0.6052939880428944 0.7960020025346221 0
0 42 0 1
42
0.5807029557109399 0.8141155183563191 0
0 43 0 1
43
0.5555702330196023 0.8314696123025452 0
0 44 0 1
44
0.5299192642332049 0.848048096156426 0
0 45 0 1
45
0.5037739770455263 0.8638355052043957 0
0 46 0 1
46
0.4771587602596084 0.8788171126619654 0
0 47 0 1
47
0.4565804082611656 0.8896821515530517 0
0 48 0 1
48
0.4357548099170794 0.9000654118641211 0
0 49 0 1
49
0.4146932426562391 0.9099612708765432 0
0 50 0 1
50
0.3934071116888652 0.919364369808089 0
0 51 0 1
51
0.3719079438303866 0.9282696167148067 0
0 52 0 1
52
0.3502073812594674 0.9366721892483976 0
0 53 0 1
53
0.3283171752135611 0.9445675372676047 0
0 54 0 1
54
0.3062491796254081 0.9519513853021931 0
0 55 0 1
55
0.2840153447039228 0.9588197348681931 0
0 56 0 1
56
0.2546019482055276 0.9670459389139431 0
0 57 0 1
57
0.2249510543438651 0.9743700647852352 0
0 58 0 1
58
0.1950903220161283 0.9807852804032304 0
0 59 0 1
59
0.1650476058606776 0.9862856015372314 0
0 60 0 1
60
0.1348509302737231 0.9908658973868822 0
0 61 0 1
61
0.1045284632676535 0.9945218953682733 0
0 62 0 1
62
0.0813586746678583 0.9966848880445061 0
0 63 0 1
63
0.0581448289104759 0.9983081582712682 0
0 64 0 1
64
0.03489949670250108 0.9993908270190958 0
0 65 0 1
65
0.01163526580139717 0.9999323080037622 0
0 66 0 1
66
-0.01163526580139682 0.9999323080037622 0
0 67 0 1
67
-0.03489949670250073 0.9993908270190958 0
0 68 0 1
68
-0.05814482891047577 0.9983081582712682 0
0 69 0 1
69
-0.08135867466785818 0.9966848880445061 0
0 70 0 1
70
-0.1045284632676533 0.9945218953682734 0
0 71 0 1
71
-0.1348509302737227 0.9908658973868824 0
0 72 0 1
72
-0.1650476058606777 0.9862856015372314 0
0 73 0 1
73
-0.1950903220161282 0.9807852804032304 0
0 74 0 1
74
-0.2249510543438648 0.9743700647852352 0
0 75 0 1
75
-0.2546019482055277 0.9670459389139431 0
0 76 0 1
76
-0.2840153447039226 0.9588197348681931 0
0 77 0 1
77
-0.306249179625408 0.9519513853021931 0
0 78 0 1
78
-0.328317175213561 0.9445675372676048 0
0 79 0 1
79
-0.3502073812594675 0.9366721892483976 0
0 80 0 1
80
-0.3719079438303867 0.9282696167148066 0
0 81 0 1
81
-0.3934071116888649 0.9193643698080892 0
0 82 0 1
82
-0.4146932426562388 0.9099612708765433 0
0 83 0 1
83
-0.4357548099170791 0.9000654118641213 0
0 84 0 1
84
-0.4565804082611655 0.8896821515530519 0
0 85 0 1
85
-0.4771587602596085 0.8788171126619654 0
0 86 0 1
86
-0.5037739770455263 0.8638355052043958 0
0 87 0 1
87
-0.5299192642332048 0.8480480961564261 0
0 88 0 1
88
-0.555570233019602 0.8314696123025453 0
0 89 0 1
89
-0.5807029557109398 0.8141155183563192 0
0 90 0 1
90
-0.6052939880428942 0.7960020025346222 0
0 91 0 1
91
-0.6293203910498373 0.777145961456971 0
0 92 0 1
92
-0.6472333724764323 0.762291913608418 0
0 93 0 1
93
-0.6647958656139379 0.7470250712409959 0
0 94 0 1
94
-0.6819983600624984 0.7313537016191706 0
0 95 0 1
95
-0.6988315403679001 0.7152862910660515 0
0 96 0 1
96
-0.7152862910660513 0.6988315403679002 0
0 97 0 1
97
-0.7313537016191705 0.6819983600624986 0
0 98 0 1
98
-0.7470250712409957 0.6647958656139381 0
0 99 0 1
99
-0.7622919136084179 0.6472333724764325 0
0 100 0 1
100
-0.7771459614569709 0.6293203910498374 0
0 101 0 1
101
-0.7960020025346219 0.6052939880428945 0
0 102 0 1
102
-0.8141155183563191 0.5807029557109399 0
0 103 0 1
103
-0.8314696123025453 0.5555702330196022 0
0 104 0 1
104
-0.848048096156426 0.529919264233205 0
0 105 0 1
105
-0.8638355052043957 0.5037739770455264 0
0 106 0 1
106
-0.8788171126619653 0.4771587602596086 0
0 107 0 1
107
-0.8896821515530517 0.4565804082611656 0
0 108 0 1
108
-0.9000654118641211 0.4357548099170793 0
0 109 0 1
109
-0.9099612708765431 0.4146932426562392 0
0 110 0 1
110
-0.9193643698080891 0.3934071116888651 0
0 111 0 1
111
-0.9282696167148066 0.3719079438303868 0
0 112 0 1
112
-0.9366721892483976 0.3502073812594675 0
0 113 0 1
113
-0.9445675372676047 0.3283171752135614 0
0 114 0 1
114
-0.9519513853021931 0.3062491796254082 0
0 115 0 1
115
-0.9588197348681931 0.2840153447039226 0
0 116 0 1
116
-0.9670459389139431 0.2546019482055277 0
0 117 0 1
117
-0.9743700647852351 0.2249510543438652 0
0 118 0 1
118
-0.9807852804032304 0.1950903220161286 0
0 119 0 1
119
-0.9862856015372314 0.1650476058606777 0
0 120 0 1
120
-0.9908658973868822 0.1348509302737232 0
0 121 0 1
121
-0.9945218953682733 0.1045284632676537 0
0 122 0 1
122
-0.9966848880445061 0.08135867466785837 0
0 123 0 1
123
-0.9983081582712682 0.05814482891047573 0
0 124 0 1
124
-0.9993908270190958 0.03489949670250114 0
0 125 0 1
125
-0.9999323080037622 0.011635265801397 0
0 126 0 1
126
-0.9999323080037622 -0.0116352658013972 0
0 127 0 1
127
-0.9993908270190958 -0.0348994967025009 0
0 128 0 1
128
-0.9983081582712682 -0.05814482891047593 0
0 129 0 1
129
-0.9966848880445061 -0.08135867466785901 0
0 130 0 1
130
-0.9945218953682733 -0.1045284632676535 0
0 131 0 1
131
-0.9908658973868822 -0.1348509302737229 0
0 132 0 1
132
-0.9862856015372314 -0.1650476058606774 0
0 133 0 1
133
-0.9807852804032304 -0.1950903220161284 0
0 134 0 1
134
-0.9743700647852352 -0.224951054343865 0
0 135 0 1
135
-0.9670459389139432 -0.2546019482055275 0
0 136 0 1
136
-0.9588197348681932 -0.2840153447039224 0
0 137 0 1
137
-0.9519513853021931 -0.3062491796254079 0
0 138 0 1
138
-0.9445675372676049 -0.3283171752135607 0
0 139 0 1
139
-0.9366721892483977 -0.3502073812594673 0
0 140 0 1
140
-0.9282696167148068 -0.3719079438303862 0
0 141 0 1
141
-0.919364369808089 -0.3934071116888653 0
0 142 0 1
142
-0.9099612708765432 -0.414693242656239 0
0 143 0 1
143
-0.9000654118641211 -0.4357548099170794 0
0 144 0 1
144
-0.8896821515530519 -0.4565804082611654 0
0 145 0 1
145
-0.8788171126619654 -0.4771587602596084 0
0 146 0 1
146
-0.8638355052043958 -0.5037739770455262 0
0 147 0 1
147
-0.8480480961564261 -0.5299192642332048 0
0 148 0 1
148
-0.8314696123025455 -0.555570233019602 0
0 149 0 1
149
-0.8141155183563192 -0.5807029557109398 0
0 150 0 1
150
-0.7960020025346222 -0.6052939880428942 0
0 151 0 1
151
-0.7771459614569711 -0.6293203910498373 0
0 152 0 1
152
-0.7622919136084181 -0.6472333724764323 0
0 153 0 1
153
-0.7470250712409962 -0.6647958656139376 0
0 154 0 1
154
-0.7313537016191706 -0.6819983600624984 0
0 155 0 1
155
-0.7152862910660518 -0.6988315403678996 0
0 156 0 1
156
-0.6988315403678999 -0.7152862910660516 0
0 157 0 1
157
-0.6819983600624986 -0.7313537016191703 0
0 158 0 1
158
-0.6647958656139378 -0.747025071240996 0
0 159 0 1
159
-0.6472333724764325 -0.7622919136084179 0
0 160 0 1
160
-0.6293203910498371 -0.7771459614569711 0
0 161 0 1
161
-0.6052939880428941 -0.7960020025346223 0
0 162 0 1
162
-0.5807029557109396 -0.8141155183563193 0
0 163 0 1
163
-0.5555702330196022 -0.8314696123025452 0
0 164 0 1
164
-0.529919264233205 -0.848048096156426 0
0 165 0 1
165
-0.5037739770455264 -0.8638355052043956 0
0 166 0 1
166
-0.4771587602596087 -0.8788171126619653 0
0 167 0 1
167
-0.4565804082611653 -0.8896821515530519 0
0 168 0 1
168
-0.4357548099170801 -0.9000654118641208 0
0 169 0 1
169
-0.4146932426562392 -0.9099612708765431 0
0 170 0 1
170
-0.3934071116888656 -0.9193643698080889 0
0 171 0 1
171
-0.3719079438303865 -0.9282696167148067 0
0 172 0 1
172
-0.3502073812594676 -0.9366721892483976 0
0 173 0 1
173
-0.3283171752135606 -0.9445675372676049 0
0 174 0 1
174
-0.3062491796254087 -0.9519513853021929 0
0 175 0 1
175
-0.2840153447039226 -0.9588197348681931 0
0 176 0 1
176
-0.2546019482055277 -0.9670459389139431 0
0 177 0 1
177
-0.2249510543438653 -0.9743700647852351 0
0 178 0 1
178
-0.1950903220161287 -0.9807852804032303 0
0 179 0 1
179
-0.1650476058606782 -0.9862856015372313 0
0 180 0 1
180
-0.1348509302737237 -0.9908658973868821 0
0 181 0 1
181
-0.1045284632676542 -0.9945218953682733 0
0 182 0 1
182
-0.08135867466785843 -0.9966848880445061 0
0 183 0 1
183
-0.05814482891047624 -0.9983081582712682 0
0 184 0 1
184
-0.03489949670250076 -0.9993908270190958 0
0 185 0 1
185
-0.01163526580139707 -0.9999323080037622 0
0 186 0 1
186
0.0116352658013967 -0.9999323080037622 0
0 187 0 1
187
0.03489949670250039 -0.9993908270190958 0
0 188 0 1
188
0.05814482891047587 -0.9983081582712682 0
0 189 0 1
189
0.08135867466785807 -0.9966848880445061 0
0 190 0 1
190
0.1045284632676539 -0.9945218953682733 0
0 191 0 1
191
0.1348509302737233 -0.9908658973868822 0
0 192 0 1
192
0.1650476058606778 -0.9862856015372313 0
0 193 0 1
193
0.1950903220161283 -0.9807852804032304 0
0 194 0 1
194
0.2249510543438649 -0.9743700647852352 0
0 195 0 1
195
0.2546019482055274 -0.9670459389139432 0
0 196 0 1
196
0.2840153447039223 -0.9588197348681932 0
0 197 0 1
197
0.3062491796254083 -0.951951385302193 0
0 198 0 1
198
0.3283171752135602 -0.944567537267605 0
0 199 0 1
199
0.3502073812594672 -0.9366721892483977 0
0 200 0 1
200
0.3719079438303862 -0.9282696167148068 0
0 201 0 1
201
0.3934071116888652 -0.9193643698080891 0
0 202 0 1
202
0.4146932426562389 -0.9099612708765432 0
0 203 0 1
203
0.4357548099170798 -0.9000654118641209 0
0 204 0 1
204
0.456580408261165 -0.8896821515530521 0
0 205 0 1
205
0.4771587602596083 -0.8788171126619654 0
0 206 0 1
206
0.5037739770455262 -0.8638355052043958 0
0 207 0 1
207
0.5299192642332047 -0.8480480961564262 0
0 208 0 1
208
0.5555702330196018 -0.8314696123025455 0
0 209 0 1
209
0.5807029557109393 -0.8141155183563196 0
0 210 0 1
210
0.6052939880428938 -0.7960020025346225 0
0 211 0 1
211
0.6293203910498368 -0.7771459614569713 0
0 212 0 1
212
0.6472333724764323 -0.7622919136084181 0
0 213 0 1
213
0.6647958656139376 -0.7470250712409963 0
0 214 0 1
214
0.6819983600624987 -0.7313537016191703 0
0 215 0 1
215
0.6988315403679 -0.7152862910660516 0
0 216 0 1
216
0.7152862910660512 -0.6988315403679002 0
0 217 0 1
217
0.73135370161917 -0.6819983600624989 0
0 218 0 1
218
0.747025071240996 -0.6647958656139379 0
0 219 0 1
219
0.7622919136084177 -0.6472333724764326 0
0 220 0 1
220
0.7771459614569711 -0.6293203910498372 0
0 221 0 1
221
0.7960020025346222 -0.6052939880428941 0
0 222 0 1
222
0.8141155183563192 -0.5807029557109397 0
0 223 0 1
223
0.8314696123025452 -0.5555702330196022 0
0 224 0 1
224
0.8480480961564258 -0.529919264233205 0
0 225 0 1
225
0.8638355052043956 -0.5037739770455265 0
0 226 0 1
226
0.8788171126619652 -0.4771587602596087 0
0 227 0 1
227
0.8896821515530519 -0.4565804082611654 0
0 228 0 1
228
0.9000654118641208 -0.4357548099170802 0
0 229 0 1
229
0.9099612708765431 -0.4146932426562393 0
0 230 0 1
230
0.9193643698080889 -0.3934071116888656 0
0 231 0 1
231
0.9282696167148067 -0.3719079438303866 0
0 232 0 1
232
0.9366721892483976 -0.3502073812594677 0
0 233 0 1
233
0.9445675372676049 -0.3283171752135606 0
0 234 0 1
234
0.9519513853021929 -0.3062491796254087 0
0 235 0 1
235
0.9588197348681931 -0.2840153447039227 0
0 236 0 1
236
0.9670459389139431 -0.2546019482055278 0
0 237 0 1
237
0.9743700647852351 -0.2249510543438653 0
0 238 0 1
238
0.9807852804032303 -0.1950903220161287 0
0 239 0 1
239
0.9862856015372313 -0.1650476058606782 0
0 240 0 1
240
0.9908658973868821 -0.1348509302737237 0
1 1 0 0
1 2 0 0
1 3 0 0
1 4 0 0
1 5 0 0
1 6 0 0
1 7 0 0
1 8 0 0
1 9 0 0
1 10 0 0
1 11 0 0
1 12 0 0
1 13 0 0
1 14 0 0
1 15 0 0
1 16 0 0
1 17 0 0
1 18 0 0
1 19 0 0
1 20 0 0
1 21 0 0
1 22 0 0
1 23 0 0
1 24 0 0
1 25 0 0
1 26 0 0
1 27 0 0
1 28 0 0
1 29 0 0
1 30 0 0
1 31 0 0
1 32 0 0
1 33 0 0
1 34 0 0
1 35 0 0
1 36 0 0
1 37 0 0
1 38 0 0
1 39 0 0
1 40 0 0
1 41 0 0
1 42 0 0
1 43 0 0
1 44 0 0
1 45 0 0
1 46 0 0
1 47 0 0
1 48 0 0
1 49 0 0
1 50 0 0
1 51 0 0
1 52 0 0
1 53 0 0
1 54 0 0
1 55 0 0
1 56 0 0
1 57 0 0
1 58 0 0
1 59 0 0
1 60 0 0
1 61 0 0
1 62 0 0
1 63 0 0
1 64 0 0
1 65 0 0
1 66 0 0
1 67 0 0
1 68 0 0
1 69 0 0
1 70 0 0
1 71 0 0
1 72 0 0
1 73 0 0
1 74 0 0
1 75 0 0
1 76 0 0
1 77 0 0
1 78 0 0
1 79 0 0
1 80 0 0
1 81 0 0
1 82 0 0
1 83 0 0
1 84 0 0
1 85 0 0
1 86 0 0
1 87 0 0
1 88 0 0
1 89 0 0
1 90 0 0
1 91 0 0
1 92 0 0
1 93 0 0
1 94 0 0
1 95 0 0
1 96 0 0
1 97 0 0
1 98 0 0
1 99 0 0
1 100 0 0
1 101 0 0
1 102 0 0
1 103 0 0
1 104 0 0
1 105 0 0
1 106 0 0
1 107 0 0
1 108 0 0
1 109 0 0
1 110 0 0
1 111 0 0
1 112 0 0
1 113 0 0
1 114 0 0
1 115 0 0
1 116 0 0
1 117 0 0
1 118 0 0
1 119 0 0
1 120 0 0
1 121 0 0
1 122 0 0
1 123 0 0
1 124 0 0
1 125 0 0
1 126 0 0
1 127 0 0
1 128 0 0
1 129 0 0
1 130 0 0
1 131 0 0
1 132 0 0
1 133 0 0
1 134 0 0
1 135 0 0
1 136 0 0
1 137 0 0
1 138 0 0
1 139 0 0
1 140 0 0
1 141 0 0
1 142 0 0
1 143 0 0
1 144 0 0
1 145 0 0
1 146 0 0
1 147 0 0
1 148 0 0
1 149 0 0
1 150 0 0
1 151 0 0
1 152 0 0
1 153 0 0
1 154 0 0
1 155 0 0
1 156 0 0
1 157 0 0
1 158 0 0
1 159 0 0
1 160 0 0
1 161 0 0
1 162 0 0
1 163 0 0
1 164 0 0
1 165 0 0
1 166 0 0
1 167 0 0
1 168 0 0
1 169 0 0
1 170 0 0
1 171 0 0
1 172 0 0
1 173 0 0
1 174 0 0
1 175 0 0
1 176 0 0
1 177 0 0
1 178 0 0
1 179 0 0
1 180 0 0
1 181 0 0
1 182 0 0
1 183 0 0
1 184 0 0
1 185 0 0
1 186 0 0
1 187 0 0
1 188 0 0
1 189 0 0
1 190 0 0
1 191 0 0
1 192 0 0
1 193 0 0
1 194 0 0
1 195 0 0
1 196 0 0
1 197 0 0
1 198 0 0
1 199 0 0
1 200 0 0
1 201 0 0
1 202 0 0
1 203 0 0
1 204 0 0
1 205 0 0
1 206 0 0
1 207 0 0
1 208 0 0
1 209 0 0
1 210 0 0
1 211 0 0
1 212 0 0
1 213 0 0
1 214 0 0
1 215 0 0
1 216 0 0
1 217 0 0
1 218 0 0
1 219 0 0
1 220 0 0
1 221 0 0
1 222 0 0
1 223 0 0
1 224 0 0
1 225 0 0
1 226 0 0
1 227 0 0
1 228 0 0
1 229 0 0
1 230 0 0
1 231 0 0
1 232 0 0
1 233 0 0
1 234 0 0
1 235 0 0
1 236 0 0
1 237 0 0
1 238 0 0
1 239 0 0
1 240 0 0
2 1 0 332
241
242
243
244
245
246
247
248
249
250
251
252
253
254
255
256
257
258
259
260
261
262
263
264
265
266
267
268
269
270
271
272
273
274
275
276
277
278
279
280
281
282
283
284
285
286
287
288
289
290
291
292
293
294
295
296
297
298
299
300
301
302
303
304
305
306
307
308
309
310
311
312
313
314
315
316
317
318
319
320
321
322
323
324
325
326
327
328
329
330
331
332
333
334
335
336
337
338
339
340
341
342
343
344
345
346
347
348
349
350
351
352
353
354
355
356
357
358
359
360
361
362
363
364
365
366
367
368
369
370
371
372
373
374
375
376
377
378
379
380
381
382
383
384
385
386
387
388
389
390
391
392
393
394
395
396
397
398
399
400
401
402
403
404
405
406
407
408
409
410
411
412
413
414
415
416
417
418
419
420
421
422
423
424
425
426
427
428
429
430
431
432
433
434
435
436
437
438
439
440
441
442
443
444
445
446
447
448
449
450
451
452
453
454
455
456
457
458
459
460
461
462
463
464
465
466
467
468
469
470
471
472
473
474
475
476
477
478
479
480
481
482
483
484
485
486
487
488
489
490
491
492
493
494
495
496
497
498
499
500
501
502
503
504
505
506
507
508
509
510
511
512
513
514
515
516
517
518
519
520
521
522
523
524
525
526
527
528
529
530
531
532
533
534
535
536
537
538
539
540
541
542
543
544
545
546
547
548
549
550
551
552
553
554
555
556
557
558
559
560
561
562
563
564
565
566
567
568
569
570
571
572
-0.3118915700459499 -0.9274331962349306 0
0.3108885774438472 0.9291480164949556 0
0.9274331962349307 -0.31189157004595 0
-0.9291480164949555 0.3108885774438474 0
0.4352536579808231 -0.8763349463296439 0
-0.8763349463296435 -0.4352536579808231 0
0.8763349463296435 0.435253657980823 0
-0.4371754418856296 0.8768382844935967 0
0.06834595853558405 -0.9773927430124606 0
-0.6430635567527723 -0.737480811222055 0
0.737480811222055 -0.6430635567527724 0
-0.06834595853558406 0.9773927430124604 0
0.9773927430124604 0.06834595853558414 0
-0.9773927430124606 -0.0683459585355846 0
-0.7394489272138373 0.6427931457194254 0
0.6430635567527725 0.7374808112220549 0
0.8510206944886946 -0.4790364131034923 0
0.2630326078622814 -0.9404924001438006 0
-0.9695599001759514 0.116900417013282 0
0.6078974530800494 -0.7663422527477308 0
0.1120373922887609 0.9717342149666299 0
0.9717342149666298 -0.1120373922887611 0
-0.479036413103492 -0.8510206944886946 0
0.7682434577745941 0.6029213025873406 0
-0.6078974530800499 0.7663422527477306 0
-0.9404924001438009 -0.2630326078622814 0
-0.8510206944886947 0.4790364131034924 0
0.4790364131034921 0.8510206944886949 0
-0.7682434577745942 -0.6029213025873404 0
-0.268357531118502 0.9406402060828893 0
-0.1169004170132824 -0.9695599001759512 0
0.9406402060828893 0.2683575311185019 0
-0.6765001645031642 0.7087420345716496 0
0.9104527442235086 0.3500335684569734 0
-0.8896099645516919 0.3888290158936081 0
0.6718040307549533 -0.707196608286718 0
-0.3500335684569735 0.9104527442235086 0
-0.9022151483837406 -0.3512538509466039 0
-0.6991190802016694 -0.6697790333206062 0
-0.02074654610993071 -0.9679571388250735 0
0.6991728291564331 0.6697756675453669 0
0.9751007031269483 -0.02502633157638115 0
0.3487936051197237 -0.9096288864553643 0
0.889616376218946 -0.3888477249382622 0
-0.9679421865398508 0.02072959609324905 0
0.02502633157638123 0.9751007031269483 0
-0.3888477249382622 -0.889616376218946 0
0.3888477249382621 0.8896163762189458 0
-0.1736981471589093 0.9583380352559038 0
-0.527216251692995 0.8189174928497818 0
0.9583380352559037 0.1736981471589093 0
0.9518602991502372 -0.2062639257024961 0
0.2062639257024958 0.9518602991502372 0
-0.8175444636287843 -0.5283873604527125 0
0.8175444636287839 0.5283873604527127 0
0.5531075081481774 0.8010269890124644 0
-0.9575176855809256 -0.1753055461073857 0
-0.2044649484840583 -0.9517175198228056 0
-0.9517175198228057 0.2044649484840582 0
0.527216251692995 -0.8189174928497817 0
-0.5531075081481774 -0.8010269890124646 0
0.8010269890124646 -0.5531075081481774 0
-0.8010269890124645 0.5531075081481774 0
0.1753055461073859 -0.9575176855809255 0
0.4653713836502956 -0.837430068451787 0
0.4698770474613937 -0.77228185765902 0
0.9212197413210637 -0.2630852190224827 0
0.8783389851219021 -0.213832491954172 0
-0.5953084688132347 -0.750510463978231 0
-0.5367007173214892 -0.7280966543228373 0
-0.2627853894860763 -0.9211959447664918 0
-0.2212916658078003 -0.8811093131915975 0
0.1100081961747401 -0.9518377700741818 0
0.1362576384727026 -0.8920928123776172 0
0.750510463978231 -0.5953084688132348 0
0.7280966543228375 -0.5367007173214892 0
-0.8372012302482872 -0.4655665684435819 0
-0.7795152078371632 -0.4665615328116372 0
-0.7508384833101945 0.5952634003076772 0
-0.7269413982400945 0.5329163567705775 0
0.5953084688132352 0.7505104639782307 0
0.5331391763754949 0.726243620120482 0
-0.9214817481431625 0.2626182240523925 0
-0.8655697518173988 0.2119245536333431 0
-0.4656916809677632 0.8375139581457791 0
-0.4699304303476388 0.7722958392746853 0
0.9519744950200115 0.1097402963499938 0
0.8933429090077462 0.1386142837274903 0
0.8372012302482872 0.4655665684435818 0
0.7720356162020368 0.4672475465956932 0
-0.9518377700741821 -0.1100081961747399 0
-0.8848133659472605 -0.1383050919675677 0
-0.1097402963499937 0.9519744950200116 0
-0.1386142837274904 0.8933429090077462 0
0.2629180535887987 0.9215055446977343 0
0.2138046310485577 0.8783866190180138 0
-0.6095444037509972 -0.6747150332885459 0
-0.5084419518883749 -0.6423787165980992 0
-0.5675475539065906 -0.5639811120038327 0
-0.4642311057908874 -0.5401718667001443 0
-0.5367401002584071 -0.4395205074504119 0
-0.397886284754068 -0.4193512721307645 0
-0.4907572926199795 -0.301491000653845 0
-0.3427699167484252 -0.2736988102851038 0
-0.2326967568109796 -0.417792277632765 0
-0.1456507235930058 -0.2705600711291168 0
-0.313882498776894 -0.08780828916839191 0
-0.1194164547753696 -0.07478243873024276 0
0.00482468606981664 -0.1854281401582658 0
0.07164923164637647 -0.03450731493429075 0
-0.05296635369814587 0.1109601958621766 0
0.1378314304319462 0.1445951399224066 0
0.2619459584983148 -0.005391346470632383 0
0.01148742867546163 0.2932931134498679 0
-0.1717445827239845 0.2644401753425659 0
0.3267564593889885 0.1703774521881383 0
0.4680317794540645 0.04109010103559566 0
0.386888593631293 -0.1418398702646672 0
-0.1060661124326621 0.4371646675276022 0
0.06576380218022035 0.4618229818499982 0
-0.276254349772629 0.3999756892763011 0
-0.3856230259650269 -0.639033076567367 0
0.5066270263500304 0.2105834989451718 0
0.4054732636866429 0.3302071381533132 0
-0.2116586733885415 0.5709619771535684 0
-0.3483749340310989 0.2442012742573357 0
0.575228149743069 -0.1038142885543837 0
0.5159771462979774 -0.2763649716899623 0
0.3349000929697576 -0.3119044708271183 0
0.4467264901401131 -0.4239307187659387 0
0.2911178751145418 -0.4634764953229237 0
-0.4575779754524131 0.379026154347161 0
-0.5162803457286849 0.2276680603561556 0
0.5539939382023047 0.342548331437511 0
0.475304205768111 0.4741962305133119 0
0.6560375887250631 0.234776173160797 0
-0.6063744616387166 0.3355550078339623 0
-0.6774057232003526 0.2052638563648564 0
-0.5824789964854477 0.08958743830820348 0
-0.7281248701578481 0.07719208602763004 0
-0.6372282994064034 -0.03803874691814717 0
-0.6655294229879367 0.6024149832749655 0
0.6654566628322606 -0.6026764526684482 0
-0.8522589370326292 0.3057473928379777 0
0.04642846459353746 -0.9080018753831851 0
0.09594147657913585 -0.8111345479961126 0
-0.002258563168140825 -0.799657387443794 0
0.06236286973041198 -0.6972129824643402 0
0.1735600833439388 -0.7226312806387841 0
-0.06725664420389205 -0.6880769332901346 0
0.004457694845571564 -0.5879298628420042 0
0.3043154935814878 0.8573218187291247 0
0.2239114206737166 0.7880528596929015 0
0.3078733034184386 0.7435006385398416 0
0.1336714351885573 0.8320774977653019 0
-0.8219775977457682 -0.390002166032872 0
0.608998878162274 0.6753986337376334 0
-0.0447019876842579 0.8967395414109895 0
-0.09470759457643255 0.8137530986164221 0
-0.1984231683679108 0.8097553627088816 0
0.8967395414109895 0.0447019876842578 0
-0.3844666171287113 0.8113725982226171 0
-0.3984628001192698 0.7117427338355192 0
-0.4938476628698124 0.6828876194153468 0
0.8113039573339633 0.3841649729845191 0
0.8570657865375242 -0.3044652459491632 0
0.7767404606348918 -0.2220398672097039 0
0.7401282481363151 -0.3137135976720686 0
0.8312068884387092 -0.132331287192142 0
-0.9049744092496179 -0.05232231033790723 0
-0.3053601639888158 -0.8574091029769144 0
0.39371137835796 -0.8116499907231386 0
0.3928925113737952 -0.7131860559243066 0
0.4927559994119494 -0.6720056637242239 0
0.2995251822485967 -0.9070977967789489 0
0.8522739982074832 -0.4284929480699602 0
-0.06731721108495792 -0.9510160553085444 0
-0.8522561737725167 0.4284409369258225 0
-0.42849294806996 -0.852273998207483 0
0.6250890138021528 -0.7215298498132211 0
-0.7200703581746926 -0.6248694452772126 0
0.7201645468192313 0.6248635471567929 0
-0.9043854499844234 -0.3017450947726469 0
-0.626797410468375 0.7198958438566666 0
0.06819396912672589 0.9522033301361534 0
0.9522033301361533 -0.06819396912672593 0
-0.950989853208726 0.06728750819858231 0
0.4284929480699603 0.8522739982074832 0
0.9058178696738945 0.3013894263690831 0
-0.3013894263690832 0.9058178696738945 0
0.8234251159661409 0.09841570491230534 0
0.118973509141495 0.7344699590166603 0
-0.4328496438072998 0.6044855821541453 0
0.6338201557634007 -0.5074848933726095 0
0.8110877442889708 0.1960407981373982 0
-0.221859544799364 -0.7985644676987045 0
-0.7215113329428019 -0.4077327313470469 0
-0.745178715469255 -0.3015206909405602 0
0.5084419518883756 0.6423787165980989 0
0.3186577059927679 0.4574657294894 0
0.6254660914702501 0.4736013280225927 0
-0.8692317602928081 -0.2412089184786965 0
-0.8059161919780371 -0.1618601376232068 0
0.2412089184786968 -0.8692317602928079 0
-0.1172574082961828 -0.8953437662364301 0
-0.7873512621226291 0.4609719726523208 0
-0.8953720891837811 0.1097926107079493 0
0.4530543969922575 0.7852993815116625 0
-0.4484373786661809 -0.7840350841699777 0
-0.7160171571494738 -0.5501901400482924 0
0.7840350841699777 -0.448437378666181 0
0.701861915835772 -0.6743973577544109 0
-0.6765001645031641 -0.7087420345716496 0
0.02279844496356107 -0.9795141525515663 0
-0.7072744656908457 0.6735874128153664 0
0.3479814478574403 0.9139777978147927 0
-0.9135467354539299 0.3481016170931407 0
-0.3959068546235344 0.8962284901762881 0
-0.896228490176288 -0.3959068546235349 0
-0.9791896550296577 -0.0240402595217921 0
0.907811432990921 -0.3454639732046459 0
-0.02279844496356131 0.979514152551566 0
-0.3456429568125763 -0.9078800962787992 0
0.6765001645031643 0.7087420345716491 0
0.979514152551566 0.02279844496356153 0
0.8916414926193315 0.3903549790765484 0
0.3810452209751295 -0.8831319845885011 0
-0.6423787165980993 0.5084419518883753 0
0.4085703667448231 -0.616609430344411 0
0.7179120626337019 0.4034536538622531 0
0.6098049120909181 0.0343536072902861 0
-0.1392722283203044 -0.5673436978146726 0
-0.0535730331639475 -0.4476565885814784 0
-0.04762491864924347 0.6027854739234372 0
0.5648693276906647 -0.5746569874671418 0
-0.5474721911814435 0.5707917736739604 0
-0.3015206909405602 0.7451787154692545 0
0.01713101369400409 0.7983790594748074 0
0.800783341517685 -0.008442322034630929 0
-0.1397555713529775 0.7016074897771271 0
0.2992429421556754 -0.6217030573023127 0
0.1645287179047744 -0.5777830924803073 0
0.1434100096617923 -0.4079779501140516 0
-0.4908977040679898 -0.04408995196536014 0
0.7227317636006779 -0.1328500793764539 0
0.7135081103199598 0.5511143920810662 0
0.1999172210086833 0.3328366842774445 0
-0.2398583980021639 0.0939517965238502 0
-0.313713597672068 -0.7401282481363147 0
0.1760789478419288 -0.2050731868062449 0
0.3927615122960477 0.5770932630445639 0
0.2571424856811931 0.5721993545727486 0
-0.778025724822659 -0.03886802359780898 0
-0.7986327774206612 0.154894261562165 0
0.5979001607344446 -0.4044511575606142 0
-0.5609631028067795 -0.170428958712446 0
-0.7341238172518882 0.3096415568458696 0
-0.2221787929794161 -0.6767072846573764 0
-0.2983434896681327 -0.5439352038425449 0
-0.6252830962671801 -0.3227253939625131 0
0.2811128605189618 -0.7569929562675076 0
0.4107944049706794 0.7023801442437921 0
0.7451787154692552 0.3015206909405599 0
-0.421586874463512 0.1032398394187356 0
-0.4687664234181242 0.5012100804738048 0
0.6414557879265439 -0.2299525731307475 0
-0.6373538691176017 -0.4834914034171182 0
-0.1087971928668945 -0.7925572928701844 0
-0.7070594820620638 -0.1815871460029655 0
0.1069204207520594 0.6013584496758189 0
0.5679713340609125 0.570848058502587 0
-0.8874019929190489 0.03199204840442667 0
-0.8017506309734236 0.3832659553214448 0
0.7115160181315864 0.1026958420327459 0
0.02849912679529818 0.693169766017607 0
-0.6946285371813126 0.4108367293177107 0
-0.5539555241092027 0.7669220278501017 0
-0.218341906519318 0.9202311432789324 0
0.9339698842296611 -0.15062426178217 0
0.9202744970111048 0.2182643877045496 0
0.1506669616692872 0.9339997625102833 0
0.5538626772807218 -0.7666206582596236 0
-0.558007525106219 0.4419716950713724 0
0.69392348729824 -0.02862115110855783 0
-0.3212083953841111 0.6366080666898758 0
0.2291341221884174 0.6897403314452716 0
-0.3514288237810133 0.5112336331629471 0
-0.7758414644176271 0.2389524630725663 0
0.5859586827247213 -0.6629323308446277 0
-0.5808187122269105 0.6613108845276825 0
-0.2876875222818192 0.8365107129114555 0
0.05768263049047347 0.8759162555610029 0
0.8366663193904564 0.2873587683306912 0
0.8791060127640031 -0.05631596887075953 0
0.3822297119951809 0.8050653929084748 0
-0.6582754037168376 -0.5945043612259346 0
-0.8399683192600211 -0.3038997985729093 0
-0.04499140948876154 -0.885755586011202 0
-0.379730075970288 -0.8073008024598068 0
0.8072435830532418 -0.3795809229636796 0
0.6558802983315101 0.5942669378410065 0
-0.4302052052740866 -0.1660042850480435 0
0.7160928492744316 -0.3914804268218495 0
-0.394990864801054 -0.7246651502321958 0
0.7025477469984793 0.4760493575247589 0
0.1856161954786872 -0.810416671514566 0
0.5439068260914324 -0.4893097360555455 0
0.3242328609498447 -0.8562888958510446 0
-0.8434324229993935 -0.09783889088162268 0
0.1966440053682978 0.4648736716651635 0
0.4723869738768184 -0.5486697345410467 0
-0.2348337825057499 0.6775041944043831 0
-0.4613955449444099 -0.7088384956642998 0
0.6919889808530183 -0.4577109147485487 0
0.3195411657109553 0.6569827463692436 0
-0.05128529062998678 0.7348848318560708 0
0.6586074797379927 0.3342370213243249 0
0.6423108384739425 -0.3231925453750484 0
0.6050458633560019 0.1451451536623736 0
0.3818614734851183 -0.529343025436382 0
0.02613685880698375 -0.3162317666483621 0
0.650034061189972 -0.6737465198734851 0
0.8711764766482308 0.3426603430435631 0
-0.3438967977720244 0.8720764830415528 0
-0.6513840351754464 0.6731902318092661 0
0.01668049970915228 0.935894796557332 0
0.9365327479979322 -0.01640716738520946 0
-0.7109521057199992 -0.4810784102442388 0
-0.1625438428942252 -0.8428990868231736 0
-0.8175114909007997 0.0670005966208724 0
-0.7968212436841325 -0.2376680702660767 0
0.4849982476877896 0.5581361924342486 0
$EndNodes
$Elements
241 1142 1 1142
1 1 1 1
1 1 2 
1 2 1 1
2 2 3 
1 3 1 1
3 3 4 
1 4 1 1
4 4 5 
1 5 1 1
5 5 6 
1 6 1 1
6 6 7 
1 7 1 1
7 7 8 
1 8 1 1
8 8 9 
1 9 1 1
9 9 10 
1 10 1 1
10 10 11 
1 11 1 1
11 11 12 
1 12 1 1
12 12 13 
1 13 1 1
13 13 14 
1 14 1 1
14 14 15 
1 15 1 1
15 15 16 
1 16 1 1
16 16 17 
1 17 1 1
17 17 18 
1 18 1 1
18 18 19 
1 19 1 1
19 19 20 
1 20 1 1
20 20 21 
1 21 1 1
21 21 22 
1 22 1 1
22 22 23 
1 23 1 1
23 23 24 
1 24 1 1
24 24 25 
1 25 1 1
25 25 26 
1 26 1 1
26 26 27 
1 27 1 1
27 27 28 
1 28 1 1
28 28 29 
1 29 1 1
29 29 30 
1 30 1 1
30 30 31 
1 31 1 1
31 31 32 
1 32 1 1
32 32 33 
1 33 1 1
33 33 34 
1 34 1 1
34 34 35 
1 35 1 1
35 35 36 
1 36 1 1
36 36 37 
1 37 1 1
37 37 38 
1 38 1 1
38 38 39 
1 39 1 1
39 39 40 
1 40 1 1
40 40 41 
1 41 1 1
41 41 42 
1 42 1 1
42 42 43 
1 43 1 1
43 43 44 
1 44 1 1
44 44 45 
1 45 1 1
45 45 46 
1 46 1 1
46 46 47 
1 47 1 1
47 47 48 
1 48 1 1
48 48 49 
1 49 1 1
49 49 50 
1 50 1 1
50 50 51 
1 51 1 1
51 51 52 
1 52 1 1
52 52 53 
1 53 1 1
53 53 54 
1 54 1 1
54 54 55 
1 55 1 1
55 55 56 
1 56 1 1
56 56 57 
1 57 1 1
57 57 58 
1 58 1 1
58 58 59 
1 59 1 1
59 59 60 
1 60 1 1
60 60 61 
1 61 1 1
61 61 62 
1 62 1 1
62 62 63 
1 63 1 1
63 63 64 
1 64 1 1
64 64 65 
1 65 1 1
65 65 66 
1 66 1 1
66 66 67 
1 67 1 1
67 67 68 
1 68 1 1
68 68 69 
1 69 1 1
69 69 70 
1 70 1 1
70 70 71 
1 71 1 1
71 71 72 
1 72 1 1
72 72 73 
1 73 1 1
73 73 74 
1 74 1 1
74 74 75 
1 75 1 1
75 75 76 
1 76 1 1
76 76 77 
1 77 1 1
77 77 78 
1 78 1 1
78 78 79 
1 79 1 1
79 79 80 
1 80 1 1
80 80 81 
1 81 1 1
81 81 82 
1 82 1 1
82 82 83 
1 83 1 1
83 83 84 
1 84 1 1
84 84 85 
1 85 1 1
85 85 86 
1 86 1 1
86 86 87 
1 87 1 1
87 87 88 
1 88 1 1
88 88 89 
1 89 1 1
89 89 90 
1 90 1 1
90 90 91 
1 91 1 1
91 91 92 
1 92 1 1
92 92 93 
1 93 1 1
93 93 94 
1 94 1 1
94 94 95 
1 95 1 1
95 95 96 
1 96 1 1
96 96 97 
1 97 1 1
97 97 98 
1 98 1 1
98 98 99 
1 99 1 1
99 99 100 
1 100 1 1
100 100 101 
1 101 1 1
101 101 102 
1 102 1 1
102 102 103 
1 103 1 1
103 103 104 
1 104 1 1
104 104 105 
1 105 1 1
105 105 106 
1 106 1 1
106 106 107 
1 107 1 1
107 107 108 
1 108 1 1
108 108 109 
1 109 1 1
109 109 110 
1 110 1 1
110 110 111 
1 111 1 1
111 111 112 
1 112 1 1
112 112 113 
1 113 1 1
113 113 114 
1 114 1 1
114 114 115 
1 115 1 1
115 115 116 
1 116 1 1
116 116 117 
1 117 1 1
117 117 118 
1 118 1 1
118 118 119 
1 119 1 1
119 119 120 
1 120 1 1
120 120 121 
1 121 1 1
121 121 122 
1 122 1 1
122 122 123 
1 123 1 1
123 123 124 
1 124 1 1
124 124 125 
1 125 1 1
125 125 126 
1 126 1 1
126 126 127 
1 127 1 1
127 127 128 
1 128 1 1
128 128 129 
1 129 1 1
129 129 130 
1 130 1 1
130 130 131 
1 131 1 1
131 131 132 
1 132 1 1
132 132 133 
1 133 1 1
133 133 134 
1 134 1 1
134 134 135 
1 135 1 1
135 135 136 
1 136 1 1
136 136 137 
1 137 1 1
137 137 138 
1 138 1 1
138 138 139 
1 139 1 1
139 139 140 
1 140 1 1
140 140 141 
1 141 1 1
141 141 142 
1 142 1 1
142 142 143 
1 143 1 1
143 143 144 
1 144 1 1
144 144 145 
1 145 1 1
145 145 146 
1 146 1 1
146 146 147 
1 147 1 1
147 147 148 
1 148 1 1
148 148 149 
1 149 1 1
149 149 150 
1 150 1 1
150 150 151 
1 151 1 1
151 151 152 
1 152 1 1
152 152 153 
1 153 1 1
153 153 154 
1 154 1 1
154 154 155 
1 155 1 1
155 155 156 
1 156 1 1
156 156 157 
1 157 1 1
157 157 158 
1 158 1 1
158 158 159 
1 159 1 1
159 159 160 
1 160 1 1
160 160 161 
1 161 1 1
161 161 162 
1 162 1 1
162 162 163 
1 163 1 1
163 163 164 
1 164 1 1
164 164 165 
1 165 1 1
165 165 166 
1 166 1 1
166 166 167 
1 167 1 1
167 167 168 
1 168 1 1
168 168 169 
1 169 1 1
169 169 170 
1 170 1 1
170 170 171 
1 171 1 1
171 171 172 
1 172 1 1
172 172 173 
1 173 1 1
173 173 174 
1 174 1 1
174 174 175 
1 175 1 1
175 175 176 
1 176 1 1
176 176 177 
1 177 1 1
177 177 178 
1 178 1 1
178 178 179 
1 179 1 1
179 179 180 
1 180 1 1
180 180 181 
1 181 1 1
181 181 182 
1 182 1 1
182 182 183 
1 183 1 1
183 183 184 
1 184 1 1
184 184 185 
1 185 1 1
185 185 186 
1 186 1 1
186 186 187 
1 187 1 1
187 187 188 
1 188 1 1
188 188 189 
1 189 1 1
189 189 190 
1 190 1 1
190 190 191 
1 191 1 1
191 191 192 
1 192 1 1
192 192 193 
1 193 1 1
193 193 194 
1 194 1 1
194 194 195 
1 195 1 1
195 195 196 
1 196 1 1
196 196 197 
1 197 1 1
197 197 198 
1 198 1 1
198 198 199 
1 199 1 1
199 199 200 
1 200 1 1
200 200 201 
1 201 1 1
201 201 202 
1 202 1 1
202 202 203 
1 203 1 1
203 203 204 
1 204 1 1
204 204 205 
1 205 1 1
205 205 206 
1 206 1 1
206 206 207 
1 207 1 1
207 207 208 
1 208 1 1
208 208 209 
1 209 1 1
209 209 210 
1 210 1 1
210 210 211 
1 211 1 1
211 211 212 
1 212 1 1
212 212 213 
1 213 1 1
213 213 214 
1 214 1 1
214 214 215 
1 215 1 1
215 215 216 
1 216 1 1
216 216 217 
1 217 1 1
217 217 218 
1 218 1 1
218 218 219 
1 219 1 1
219 219 220 
1 220 1 1
220 220 221 
1 221 1 1
221 221 222 
1 222 1 1
222 222 223 
1 223 1 1
223 223 224 
1 224 1 1
224 224 225 
1 225 1 1
225 225 226 
1 226 1 1
226 226 227 
1 227 1 1
227 227 228 
1 228 1 1
228 228 229 
1 229 1 1
229 229 230 
1 230 1 1
230 230 231 
1 231 1 1
231 231 232 
1 232 1 1
232 232 233 
1 233 1 1
233 233 234 
1 234 1 1
234 234 235 
1 235 1 1
235 235 236 
1 236 1 1
236 236 237 
1 237 1 1
237 237 238 
1 238 1 1
238 238 239 
1 239 1 1
239 239 240 
1 240 1 1
240 240 1 
2 1 2 902
241 482 483 391 
242 448 502 322 
243 426 519 262 
244 424 517 265 
245 425 521 261 
246 420 522 260 
247 429 520 272 
248 430 518 270 
249 446 516 320 
250 347 504 484 
251 345 473 346 
252 474 480 365 
253 279 453 337 
254 280 454 385 
255 278 459 396 
256 288 456 392 
257 275 457 384 
258 281 464 397 
259 287 463 411 
260 284 461 406 
261 285 460 410 
262 500 509 438 
263 391 483 473 
264 473 561 346 
265 441 557 470 
266 489 498 362 
267 362 499 340 
268 340 499 342 
269 488 504 347 
270 389 482 388 
271 369 490 483 
272 431 514 479 
273 271 445 298 
274 269 450 294 
275 259 447 299 
276 263 449 301 
277 257 451 302 
278 266 442 297 
279 258 444 304 
280 264 486 295 
281 267 446 303 
282 268 448 296 
283 364 487 356 
284 425 532 521 
285 424 530 517 
286 426 534 519 
287 420 529 522 
288 429 533 520 
289 430 531 518 
290 298 445 312 
291 294 450 318 
292 297 442 332 
293 299 447 324 
294 302 451 316 
295 301 449 310 
296 304 444 314 
297 295 486 330 
298 296 448 322 
299 303 446 320 
300 467 548 283 
301 436 508 498 
302 437 507 500 
303 435 503 376 
304 495 554 543 
305 434 554 495 
306 472 473 345 
307 479 485 409 
308 404 476 433 
309 395 478 432 
310 509 571 438 
311 320 516 468 
312 480 552 365 
313 407 506 408 
314 165 263 164 
315 45 268 44 
316 180 271 179 
317 150 269 149 
318 120 259 119 
319 30 264 29 
320 195 258 194 
321 225 257 224 
322 135 266 134 
323 105 267 104 
324 498 508 390 
325 500 507 341 
326 514 524 479 
327 388 482 391 
328 322 502 439 
329 345 499 472 
330 325 402 248 
331 329 405 247 
332 319 382 255 
333 321 397 256 
334 323 384 244 
335 331 410 254 
336 335 392 242 
337 333 398 252 
338 317 396 246 
339 327 401 253 
340 313 385 249 
341 309 337 250 
342 315 383 251 
343 311 411 241 
344 307 406 243 
345 305 412 245 
346 440 487 364 
347 89 290 88 
348 42 296 41 
349 102 303 101 
350 149 294 148 
351 222 302 221 
352 72 289 71 
353 134 297 133 
354 132 297 131 
355 209 300 208 
356 27 295 26 
357 192 304 191 
358 59 293 58 
359 177 298 176 
360 117 299 116 
361 29 295 28 
362 74 289 73 
363 57 293 56 
364 14 291 13 
365 162 301 161 
366 119 299 118 
367 239 292 238 
368 237 292 236 
369 104 303 103 
370 12 291 11 
371 147 294 146 
372 179 298 178 
373 207 300 206 
374 44 296 43 
375 164 301 163 
376 194 304 193 
377 224 302 223 
378 87 290 86 
379 481 482 389 
380 498 499 362 
381 496 509 500 
382 376 514 435 
383 369 483 371 
384 359 474 365 
385 371 482 481 
386 2 262 1 
387 227 257 226 
388 197 258 196 
389 212 260 211 
390 62 261 61 
391 32 264 31 
392 182 271 181 
393 107 267 106 
394 122 259 121 
395 167 263 166 
396 137 266 136 
397 17 272 16 
398 77 270 76 
399 47 268 46 
400 152 269 151 
401 92 265 91 
402 374 441 375 
403 346 561 349 
404 397 541 281 
405 410 512 285 
406 384 513 275 
407 385 538 280 
408 337 536 279 
409 396 537 278 
410 392 535 288 
411 406 540 284 
412 411 539 287 
413 378 494 380 
414 374 557 441 
415 490 561 483 
416 493 570 512 
417 501 546 444 
418 493 512 410 
419 356 487 352 
420 475 551 414 
421 477 552 400 
422 485 506 407 
423 372 377 373 
424 363 376 374 
425 378 528 494 
426 285 512 427 
427 275 513 418 
428 280 538 417 
429 278 537 423 
430 279 536 421 
431 284 540 416 
432 288 535 428 
433 287 539 419 
434 363 374 364 
435 521 532 395 
436 517 530 404 
437 519 534 409 
438 522 529 414 
439 520 533 435 
440 518 531 400 
441 281 541 422 
442 481 560 371 
443 359 365 361 
444 443 509 493 
445 360 474 359 
446 412 548 467 
447 367 471 357 
448 471 559 357 
449 377 378 373 
450 414 529 475 
451 404 530 476 
452 400 531 477 
453 395 532 478 
454 409 534 479 
455 435 533 503 
456 470 545 441 
457 374 375 364 
458 357 363 356 
459 348 488 347 
460 75 518 74 
461 90 517 89 
462 210 522 209 
463 60 521 59 
464 15 520 14 
465 240 519 239 
466 358 367 357 
467 357 559 363 
468 361 372 366 
469 493 549 443 
470 476 505 433 
471 330 405 329 
472 326 402 325 
473 320 382 319 
474 324 384 323 
475 322 397 321 
476 336 392 335 
477 314 385 313 
478 332 410 331 
479 328 401 327 
480 334 398 333 
481 318 396 317 
482 316 383 315 
483 310 337 309 
484 308 406 307 
485 312 411 311 
486 306 412 305 
487 358 368 367 
488 353 490 358 
489 485 524 367 
490 359 361 355 
491 358 490 369 
492 342 499 345 
493 441 511 375 
494 378 380 379 
495 353 357 356 
496 389 501 481 
497 354 359 355 
498 354 360 359 
499 442 443 332 
500 447 494 324 
501 369 370 368 
502 413 501 412 
503 336 521 395 
504 308 519 409 
505 306 522 414 
506 328 520 435 
507 326 517 404 
508 334 518 400 
509 363 364 356 
510 372 373 366 
511 478 515 432 
512 414 551 469 
513 400 552 480 
514 484 542 347 
515 496 500 343 
516 479 524 485 
517 376 557 374 
518 516 523 468 
519 474 556 480 
520 448 535 502 
521 353 356 352 
522 510 526 432 
523 435 514 431 
524 445 569 312 
525 450 568 318 
526 351 488 348 
527 353 358 357 
528 367 506 485 
529 349 561 490 
530 472 498 390 
531 343 500 341 
532 354 355 351 
533 444 548 501 
534 380 570 493 
535 228 416 227 
536 183 417 182 
537 198 415 197 
538 63 425 62 
539 123 427 122 
540 168 419 167 
541 33 422 32 
542 138 423 137 
543 153 421 152 
544 3 426 2 
545 93 424 92 
546 213 420 212 
547 78 430 77 
548 18 429 17 
549 108 418 107 
550 48 428 47 
551 367 524 471 
552 283 548 415 
553 352 354 351 
554 389 546 501 
555 361 366 355 
556 352 487 354 
557 369 371 370 
558 377 497 378 
559 350 353 352 
560 443 571 509 
561 361 527 372 
562 492 526 510 
563 486 541 441 
564 350 490 353 
565 370 495 368 
566 451 554 316 
567 449 553 310 
568 380 381 379 
569 350 352 351 
570 483 561 473 
571 372 527 505 
572 354 487 360 
573 358 369 368 
574 375 440 364 
575 410 549 493 
576 486 545 330 
577 444 546 314 
578 439 502 491 
579 495 558 368 
580 378 379 373 
581 350 351 348 
582 543 558 495 
583 511 572 375 
584 368 558 506 
585 380 493 381 
586 375 491 440 
587 355 488 351 
588 481 501 413 
589 368 506 367 
590 529 562 383 
591 534 567 401 
592 530 565 382 
593 533 563 405 
594 532 566 398 
595 531 564 402 
596 349 490 350 
597 349 350 348 
598 346 349 348 
599 450 536 507 
600 445 538 508 
601 372 523 377 
602 366 488 355 
603 383 452 251 
604 385 454 249 
605 396 459 246 
606 382 455 255 
607 337 453 250 
608 392 456 242 
609 402 458 248 
610 410 460 254 
611 411 463 241 
612 398 462 252 
613 406 461 243 
614 401 465 253 
615 412 467 245 
616 397 464 256 
617 405 466 247 
618 384 457 244 
619 229 284 228 
620 199 283 198 
621 169 287 168 
622 156 453 155 
623 83 458 82 
624 109 275 108 
625 184 280 183 
626 188 454 187 
627 171 287 170 
628 34 281 33 
629 139 278 138 
630 40 256 39 
631 231 284 230 
632 160 250 159 
633 190 249 189 
634 51 288 50 
635 94 273 93 
636 218 251 217 
637 25 247 24 
638 68 462 67 
639 158 250 157 
640 220 251 219 
641 96 273 95 
642 100 255 99 
643 130 254 129 
644 214 276 213 
645 141 459 140 
646 19 274 18 
647 98 455 97 
648 49 288 48 
649 8 465 7 
650 115 244 114 
651 203 245 202 
652 70 252 69 
653 85 248 84 
654 128 460 127 
655 233 243 232 
656 145 246 144 
657 173 241 172 
658 6 465 5 
659 143 246 142 
660 10 253 9 
661 154 279 153 
662 124 285 123 
663 126 460 125 
664 23 247 22 
665 64 286 63 
666 4 282 3 
667 66 462 65 
668 79 277 78 
669 111 275 110 
670 205 245 204 
671 235 243 234 
672 55 242 54 
673 175 241 174 
674 186 454 185 
675 38 256 37 
676 201 467 200 
677 21 466 20 
678 36 464 35 
679 53 456 52 
680 81 458 80 
681 113 457 112 
682 216 452 215 
683 502 535 394 
684 510 550 492 
685 381 496 484 
686 493 509 381 
687 491 492 440 
688 365 527 361 
689 497 513 384 
690 360 510 474 
691 362 544 489 
692 468 523 476 
693 371 483 482 
694 346 347 344 
695 346 348 347 
696 377 523 516 
697 469 560 481 
698 491 572 439 
699 324 528 384 
700 501 548 412 
701 525 527 365 
702 513 516 446 
703 342 345 344 
704 472 499 498 
705 343 542 496 
706 379 504 373 
707 366 504 488 
708 345 346 344 
709 338 362 340 
710 386 389 388 
711 381 484 379 
712 338 553 362 
713 336 395 393 
714 328 435 431 
715 326 404 403 
716 334 400 399 
717 306 414 413 
718 308 409 407 
719 441 545 486 
720 471 524 514 
721 475 529 383 
722 476 530 382 
723 503 533 405 
724 477 531 402 
725 478 532 398 
726 479 534 401 
727 495 547 434 
728 506 558 408 
729 342 343 341 
730 391 472 390 
731 371 560 370 
732 373 504 366 
733 484 504 379 
734 476 523 505 
735 384 528 497 
736 494 528 324 
737 381 509 496 
738 342 344 343 
739 391 473 472 
740 340 341 339 
741 388 390 387 
742 386 546 389 
743 469 481 413 
744 470 503 405 
745 403 477 402 
746 436 489 411 
747 407 408 406 
748 386 387 385 
749 399 478 398 
750 468 476 382 
751 393 394 392 
752 431 479 401 
753 437 438 396 
754 434 475 383 
755 338 339 337 
756 507 536 339 
757 508 538 387 
758 344 542 343 
759 440 550 487 
760 320 468 382 
761 306 413 412 
762 322 439 397 
763 316 434 383 
764 318 437 396 
765 330 470 405 
766 308 407 406 
767 310 338 337 
768 314 386 385 
769 312 436 411 
770 334 399 398 
771 326 403 402 
772 328 431 401 
773 336 393 392 
774 491 555 492 
775 363 559 376 
776 360 550 510 
777 433 527 525 
778 340 342 341 
779 388 391 390 
780 404 433 403 
781 395 432 393 
782 409 485 407 
783 414 469 413 
784 400 480 399 
785 497 516 513 
786 437 568 507 
787 436 569 508 
788 341 507 339 
789 390 508 387 
790 383 562 452 
791 382 565 455 
792 402 564 458 
793 401 567 465 
794 398 566 462 
795 405 563 466 
796 338 340 339 
797 436 498 489 
798 386 388 387 
799 437 500 438 
800 487 550 360 
801 441 541 511 
802 496 542 484 
803 375 572 491 
804 289 518 334 
805 291 520 328 
806 293 521 336 
807 290 517 326 
808 292 519 308 
809 300 522 306 
810 347 542 344 
811 439 511 397 
812 497 528 378 
813 182 417 271 
814 152 421 269 
815 2 426 262 
816 227 416 257 
817 122 427 259 
818 32 422 264 
819 62 425 261 
820 197 415 258 
821 92 424 265 
822 212 420 260 
823 137 423 266 
824 167 419 263 
825 77 430 270 
826 107 418 267 
827 17 429 272 
828 47 428 268 
829 432 515 510 
830 370 547 495 
831 505 527 433 
832 387 538 385 
833 438 537 396 
834 394 535 392 
835 408 540 406 
836 339 536 337 
837 489 539 411 
838 377 516 497 
839 362 553 544 
840 394 555 502 
841 507 568 450 
842 508 569 445 
843 289 333 71 
844 297 331 131 
845 295 329 26 
846 293 335 56 
847 291 327 11 
848 301 309 161 
849 296 321 41 
850 304 313 191 
851 294 317 146 
852 299 323 116 
853 302 315 221 
854 292 307 236 
855 298 311 176 
856 300 305 206 
857 303 319 101 
858 290 325 86 
859 301 310 309 
860 289 334 333 
861 297 332 331 
862 302 316 315 
863 295 330 329 
864 303 320 319 
865 294 318 317 
866 291 328 327 
867 304 314 313 
868 296 322 321 
869 293 336 335 
870 298 312 311 
871 290 326 325 
872 292 308 307 
873 299 324 323 
874 300 306 305 
875 515 556 474 
876 427 512 447 
877 418 513 446 
878 428 535 448 
879 421 536 450 
880 417 538 445 
881 419 539 449 
882 423 537 442 
883 416 540 451 
884 415 548 444 
885 494 570 380 
886 417 445 271 
887 422 486 264 
888 427 447 259 
889 416 451 257 
890 421 450 269 
891 423 442 266 
892 415 444 258 
893 418 446 267 
894 419 449 263 
895 428 448 268 
896 365 552 525 
897 422 541 486 
898 492 550 440 
899 443 549 332 
900 403 525 477 
901 393 526 394 
902 511 541 397 
903 332 549 410 
904 510 515 474 
905 318 568 437 
906 312 569 436 
907 433 525 403 
908 432 526 393 
909 434 547 475 
910 316 554 434 
911 310 553 338 
912 420 562 529 
913 429 563 533 
914 430 564 531 
915 426 567 534 
916 425 566 532 
917 424 565 530 
918 330 545 470 
919 314 546 386 
920 74 518 289 
921 209 522 300 
922 89 517 290 
923 14 520 291 
924 59 521 293 
925 239 519 292 
926 505 523 372 
927 447 570 494 
928 442 571 443 
929 480 556 399 
930 270 518 75 
931 265 517 90 
932 260 522 210 
933 272 520 15 
934 261 521 60 
935 262 519 240 
936 503 557 376 
937 470 557 503 
938 502 555 491 
939 540 543 451 
940 539 544 449 
941 399 556 478 
942 478 556 515 
943 370 551 547 
944 526 555 394 
945 439 572 511 
946 525 552 477 
947 376 559 514 
948 547 551 475 
949 370 560 551 
950 280 417 183 
951 283 415 198 
952 281 422 33 
953 274 429 18 
954 287 419 168 
955 284 416 228 
956 275 418 108 
957 278 423 138 
958 276 420 213 
959 277 430 78 
960 282 426 3 
961 288 428 48 
962 286 425 63 
963 285 427 123 
964 273 424 93 
965 279 421 153 
966 544 553 449 
967 543 554 451 
968 492 555 526 
969 408 543 540 
970 489 544 539 
971 512 570 447 
972 537 571 442 
973 514 559 471 
974 220 315 251 
975 100 319 255 
976 115 323 244 
977 190 313 249 
978 235 307 243 
979 40 321 256 
980 160 309 250 
981 205 305 245 
982 145 317 246 
983 175 311 241 
984 25 329 247 
985 55 335 242 
986 85 325 248 
987 70 333 252 
988 10 327 253 
989 130 331 254 
990 408 558 543 
991 455 565 273 
992 465 567 282 
993 462 566 286 
994 452 562 276 
995 466 563 274 
996 458 564 277 
997 551 560 469 
998 438 571 537 
999 276 562 420 
1000 273 565 424 
1001 282 567 426 
1002 277 564 430 
1003 286 566 425 
1004 274 563 429 
1005 251 452 217 
1006 171 463 287 
1007 231 461 284 
1008 155 453 279 
1009 248 458 83 
1010 51 456 288 
1011 249 454 188 
1012 254 460 128 
1013 245 467 202 
1014 111 457 275 
1015 247 466 22 
1016 252 462 68 
1017 256 464 37 
1018 246 459 142 
1019 96 455 273 
1020 253 465 8 
1021 5 465 282 
1022 125 460 285 
1023 255 455 98 
1024 140 459 278 
1025 200 467 283 
1026 65 462 286 
1027 250 453 157 
1028 20 466 274 
1029 243 461 232 
1030 185 454 280 
1031 241 463 172 
1032 35 464 281 
1033 80 458 277 
1034 242 456 53 
1035 244 457 113 
1036 215 452 276 
1037 1 262 240 
1038 31 264 30 
1039 41 321 40 
1040 61 261 60 
1041 46 268 45 
1042 166 263 165 
1043 16 272 15 
1044 11 327 10 
1045 26 329 25 
1046 211 260 210 
1047 86 325 85 
1048 146 317 145 
1049 91 265 90 
1050 56 335 55 
1051 196 258 195 
1052 206 305 205 
1053 131 331 130 
1054 181 271 180 
1055 71 333 70 
1056 191 313 190 
1057 106 267 105 
1058 136 266 135 
1059 121 259 120 
1060 151 269 150 
1061 221 315 220 
1062 161 309 160 
1063 176 311 175 
1064 236 307 235 
1065 101 319 100 
1066 76 270 75 
1067 226 257 225 
1068 116 323 115 
1069 133 297 132 
1070 208 300 207 
1071 88 290 87 
1072 103 303 102 
1073 28 295 27 
1074 13 291 12 
1075 178 298 177 
1076 238 292 237 
1077 193 304 192 
1078 43 296 42 
1079 223 302 222 
1080 58 293 57 
1081 148 294 147 
1082 73 289 72 
1083 118 299 117 
1084 163 301 162 
1085 129 254 128 
1086 37 464 36 
1087 39 256 38 
1088 114 244 113 
1089 112 457 111 
1090 125 285 124 
1091 84 248 83 
1092 22 466 21 
1093 99 255 98 
1094 54 242 53 
1095 97 455 96 
1096 20 274 19 
1097 80 277 79 
1098 52 456 51 
1099 50 288 49 
1100 215 276 214 
1101 7 465 6 
1102 5 282 4 
1103 9 253 8 
1104 65 286 64 
1105 24 247 23 
1106 67 462 66 
1107 144 246 143 
1108 95 273 94 
1109 82 458 81 
1110 219 251 218 
1111 69 252 68 
1112 217 452 216 
1113 35 281 34 
1114 232 461 231 
1115 127 460 126 
1116 185 280 184 
1117 187 454 186 
1118 110 275 109 
1119 189 249 188 
1120 202 467 201 
1121 140 278 139 
1122 172 463 171 
1123 159 250 158 
1124 142 459 141 
1125 155 279 154 
1126 170 287 169 
1127 200 283 199 
1128 230 284 229 
1129 157 453 156 
1130 174 241 173 
1131 204 245 203 
1132 234 243 233 
1133 264 295 29 
1134 268 296 44 
1135 267 303 104 
1136 259 299 119 
1137 266 297 134 
1138 269 294 149 
1139 263 301 164 
1140 271 298 179 
1141 258 304 194 
1142 257 302 224 
$EndElements
