$MeshFormat
4.1 0 8
$EndMeshFormat
$PhysicalNames
18
1 1 "Electrode1"
1 2 "Electrode2"
1 3 "Electrode3"
1 4 "Electrode4"
1 5 "Electrode5"
1 6 "Electrode6"
1 7 "Electrode7"
1 8 "Electrode8"
1 9 "Electrode9"
1 10 "Electrode10"
1 11 "Electrode11"
1 12 "Electrode12"
1 13 "Electrode13"
1 14 "Electrode14"
1 15 "Electrode15"
1 16 "Electrode16"
1 17 "No-Electrode"
2 1 "domain"
$EndPhysicalNames
$Entities
192 192 1 0
1 0.9945218953682733 -0.1045284632676535 0 0 
2 0.9972037971811801 -0.07473009358642424 0 0 
3 0.9989930665413147 -0.04486483035051493 0 0 
4 0.9998881018102734 -0.01495940701526363 0 0 
5 0.9998881018102734 0.01495940701526361 0 0 
6 0.9989930665413147 0.04486483035051492 0 0 
7 0.9972037971811801 0.07473009358642423 0 0 
8 0.9945218953682733 0.1045284632676535 0 0 
9 0.9900236577165575 0.1409012319375827 0 0 
10 0.9841956079692419 0.1770847403195833 0 0 
11 0.9770455744352636 0.2130303862749766 0 0 
12 0.9685831611286311 0.2486898871648548 0 0 
13 0.9588197348681931 0.2840153447039226 0 0 
14 0.949894146672846 0.3125717679456445 0 0 
15 0.940118274569219 0.3408483971225249 0 0 
16 0.9295008692868207 0.3688199208218619 0 0 
17 0.9180514348413259 0.3964613007416775 0 0 
18 0.905780220027194 0.4237477941033887 0 0 
19 0.8926982092436115 0.4506549757999452 0 0 
20 0.8788171126619654 0.4771587602596084 0 0 
21 0.8607420270039436 0.5090414157503713 0 0 
22 0.8415107819453062 0.540240320477655 0 0 
23 0.821149209133704 0.5707135676844316 0 0 
24 0.7996846584870906 0.600420225325884 0 0 
25 0.7771459614569708 0.6293203910498375 0 0 
26 0.7579717231454529 0.6522874112781212 0 0 
27 0.7381189974873407 0.6746705459320743 0 0 
28 0.7176055553608119 0.6964497590747668 0 0 
29 0.6964497590747669 0.7176055553608117 0 0 
30 0.6746705459320743 0.7381189974873406 0 0 
31 0.6522874112781212 0.7579717231454529 0 0 
32 0.6293203910498375 0.7771459614569708 0 0 
33 0.6004202253258841 0.7996846584870905 0 0 
34 0.5707135676844318 0.8211492091337039 0 0 
35 0.5402403204776551 0.8415107819453062 0 0 
36 0.5090414157503712 0.8607420270039436 0 0 
37 0.4771587602596084 0.8788171126619654 0 0 
38 0.4506549757999451 0.8926982092436115 0 0 
39 0.4237477941033888 0.905780220027194 0 0 
40 0.3964613007416776 0.9180514348413258 0 0 
41 0.368819920821862 0.9295008692868207 0 0 
42 0.340848397122525 0.940118274569219 0 0 
43 0.3125717679456447 0.9498941466728459 0 0 
44 0.2840153447039228 0.9588197348681931 0 0 
45 0.248689887164855 0.9685831611286311 0 0 
46 0.2130303862749766 0.9770455744352636 0 0 
47 0.1770847403195834 0.9841956079692419 0 0 
48 0.1409012319375826 0.9900236577165575 0 0 
49 0.1045284632676535 0.9945218953682733 0 0 
50 0.07473009358642417 0.9972037971811801 0 0 
51 0.04486483035051499 0.9989930665413146 0 0 
52 0.01495940701526361 0.9998881018102734 0 0 
53 -0.01495940701526348 0.9998881018102734 0 0 
54 -0.04486483035051464 0.9989930665413147 0 0 
55 -0.07473009358642427 0.9972037971811801 0 0 
56 -0.1045284632676533 0.9945218953682734 0 0 
57 -0.1409012319375827 0.9900236577165575 0 0 
58 -0.1770847403195833 0.9841956079692419 0 0 
59 -0.2130303862749765 0.9770455744352636 0 0 
60 -0.2486898871648546 0.9685831611286312 0 0 
61 -0.2840153447039226 0.9588197348681931 0 0 
62 -0.3125717679456443 0.949894146672846 0 0 
63 -0.340848397122525 0.940118274569219 0 0 
64 -0.3688199208218619 0.9295008692868207 0 0 
65 -0.3964613007416775 0.9180514348413259 0 0 
66 -0.4237477941033886 0.905780220027194 0 0 
67 -0.4506549757999454 0.8926982092436114 0 0 
68 -0.4771587602596085 0.8788171126619654 0 0 
69 -0.5090414157503713 0.8607420270039436 0 0 
70 -0.540240320477655 0.8415107819453062 0 0 
71 -0.5707135676844316 0.8211492091337041 0 0 
72 -0.6004202253258839 0.7996846584870906 0 0 
73 -0.6293203910498373 0.777145961456971 0 0 
74 -0.6522874112781208 0.7579717231454532 0 0 
75 -0.6746705459320743 0.7381189974873407 0 0 
76 -0.6964497590747667 0.7176055553608121 0 0 
77 -0.7176055553608119 0.6964497590747668 0 0 
78 -0.7381189974873406 0.6746705459320744 0 0 
79 -0.7579717231454531 0.652287411278121 0 0 
80 -0.7771459614569709 0.6293203910498374 0 0 
81 -0.7996846584870906 0.600420225325884 0 0 
82 -0.821149209133704 0.5707135676844317 0 0 
83 -0.841510781945306 0.5402403204776551 0 0 
84 -0.8607420270039435 0.5090414157503714 0 0 
85 -0.8788171126619653 0.4771587602596086 0 0 
86 -0.8926982092436113 0.4506549757999456 0 0 
87 -0.905780220027194 0.4237477941033888 0 0 
88 -0.9180514348413257 0.3964613007416778 0 0 
89 -0.9295008692868207 0.3688199208218619 0 0 
90 -0.940118274569219 0.340848397122525 0 0 
91 -0.949894146672846 0.3125717679456443 0 0 
92 -0.9588197348681931 0.2840153447039226 0 0 
93 -0.9685831611286311 0.2486898871648548 0 0 
94 -0.9770455744352636 0.2130303862749767 0 0 
95 -0.9841956079692419 0.1770847403195834 0 0 
96 -0.9900236577165575 0.1409012319375829 0 0 
97 -0.9945218953682733 0.1045284632676537 0 0 
98 -0.9972037971811801 0.07473009358642467 0 0 
99 -0.9989930665413146 0.04486483035051505 0 0 
100 -0.9998881018102734 0.01495940701526389 0 0 
101 -0.9998881018102734 -0.01495940701526364 0 0 
102 -0.9989930665413146 -0.04486483035051524 0 0 
103 -0.9972037971811801 -0.07473009358642442 0 0 
104 -0.9945218953682733 -0.1045284632676535 0 0 
105 -0.9900236577165575 -0.1409012319375831 0 0 
106 -0.984195607969242 -0.1770847403195832 0 0 
107 -0.9770455744352636 -0.2130303862749764 0 0 
108 -0.9685831611286313 -0.2486898871648542 0 0 
109 -0.9588197348681932 -0.2840153447039224 0 0 
110 -0.9498941466728461 -0.3125717679456441 0 0 
111 -0.9401182745692191 -0.3408483971225247 0 0 
112 -0.9295008692868209 -0.3688199208218617 0 0 
113 -0.9180514348413258 -0.3964613007416776 0 0 
114 -0.9057802200271942 -0.4237477941033886 0 0 
115 -0.8926982092436114 -0.4506549757999453 0 0 
116 -0.8788171126619654 -0.4771587602596084 0 0 
117 -0.8607420270039434 -0.5090414157503717 0 0 
118 -0.8415107819453062 -0.5402403204776549 0 0 
119 -0.8211492091337041 -0.5707135676844315 0 0 
120 -0.7996846584870909 -0.6004202253258835 0 0 
121 -0.7771459614569711 -0.6293203910498373 0 0 
122 -0.7579717231454532 -0.6522874112781208 0 0 
123 -0.7381189974873408 -0.6746705459320742 0 0 
124 -0.7176055553608121 -0.6964497590747666 0 0 
125 -0.6964497590747668 -0.7176055553608118 0 0 
126 -0.6746705459320744 -0.7381189974873406 0 0 
127 -0.6522874112781211 -0.757971723145453 0 0 
128 -0.6293203910498371 -0.7771459614569711 0 0 
129 -0.6004202253258841 -0.7996846584870905 0 0 
130 -0.5707135676844322 -0.8211492091337037 0 0 
131 -0.5402403204776551 -0.841510781945306 0 0 
132 -0.5090414157503719 -0.8607420270039433 0 0 
133 -0.4771587602596087 -0.8788171126619653 0 0 
134 -0.450654975799946 -0.8926982092436111 0 0 
135 -0.4237477941033885 -0.9057802200271942 0 0 
136 -0.3964613007416778 -0.9180514348413257 0 0 
137 -0.368819920821862 -0.9295008692868207 0 0 
138 -0.3408483971225255 -0.9401182745692188 0 0 
139 -0.312571767945644 -0.9498941466728461 0 0 
140 -0.2840153447039226 -0.9588197348681931 0 0 
141 -0.2486898871648544 -0.9685831611286312 0 0 
142 -0.2130303862749767 -0.9770455744352636 0 0 
143 -0.1770847403195831 -0.984195607969242 0 0 
144 -0.1409012319375829 -0.9900236577165575 0 0 
145 -0.1045284632676542 -0.9945218953682733 0 0 
146 -0.07473009358642473 -0.9972037971811801 0 0 
147 -0.0448648303505151 -0.9989930665413146 0 0 
148 -0.0149594070152635 -0.9998881018102734 0 0 
149 0.01495940701526314 -0.9998881018102734 0 0 
150 0.04486483035051474 -0.9989930665413147 0 0 
151 0.07473009358642436 -0.9972037971811801 0 0 
152 0.1045284632676539 -0.9945218953682733 0 0 
153 0.1409012319375826 -0.9900236577165575 0 0 
154 0.1770847403195827 -0.984195607969242 0 0 
155 0.2130303862749764 -0.9770455744352636 0 0 
156 0.2486898871648541 -0.9685831611286313 0 0 
157 0.2840153447039223 -0.9588197348681932 0 0 
158 0.3125717679456436 -0.9498941466728462 0 0 
159 0.3408483971225251 -0.9401182745692189 0 0 
160 0.3688199208218616 -0.9295008692868209 0 0 
161 0.3964613007416775 -0.9180514348413258 0 0 
162 0.4237477941033881 -0.9057802200271944 0 0 
163 0.4506549757999457 -0.8926982092436113 0 0 
164 0.4771587602596083 -0.8788171126619654 0 0 
165 0.5090414157503715 -0.8607420270039434 0 0 
166 0.5402403204776549 -0.8415107819453063 0 0 
167 0.5707135676844318 -0.8211492091337039 0 0 
168 0.6004202253258838 -0.7996846584870907 0 0 
169 0.6293203910498368 -0.7771459614569713 0 0 
170 0.6522874112781207 -0.7579717231454534 0 0 
171 0.6746705459320742 -0.7381189974873408 0 0 
172 0.6964497590747669 -0.7176055553608118 0 0 
173 0.7176055553608115 -0.6964497590747672 0 0 
174 0.7381189974873404 -0.6746705459320745 0 0 
175 0.757971723145453 -0.6522874112781211 0 0 
176 0.7771459614569711 -0.6293203910498372 0 0 
177 0.7996846584870905 -0.6004202253258841 0 0 
178 0.8211492091337037 -0.5707135676844323 0 0 
179 0.841510781945306 -0.5402403204776552 0 0 
180 0.8607420270039432 -0.509041415750372 0 0 
181 0.8788171126619652 -0.4771587602596087 0 0 
182 0.8926982092436111 -0.4506549757999461 0 0 
183 0.9057802200271942 -0.4237477941033885 0 0 
184 0.9180514348413257 -0.3964613007416779 0 0 
185 0.9295008692868207 -0.368819920821862 0 0 
186 0.9401182745692188 -0.3408483971225255 0 0 
187 0.9498941466728461 -0.312571767945644 0 0 
188 0.9588197348681931 -0.2840153447039227 0 0 
189 0.9685831611286312 -0.2486898871648545 0 0 
190 0.9770455744352636 -0.2130303862749768 0 0 
191 0.984195607969242 -0.1770847403195831 0 0 
192 0.9900236577165575 -0.140901231937583 0 0 
1 0.9945217953682733 -0.1045285632676535 -1e-07 0.9972038971811801 -0.07472999358642424 1e-07 1 1 2 1 -2 
2 0.9972036971811802 -0.07473019358642424 -1e-07 0.9989931665413146 -0.04486473035051493 1e-07 1 1 2 2 -3 
3 0.9989929665413148 -0.04486493035051493 -1e-07 0.9998882018102734 -0.01495930701526363 1e-07 1 1 2 3 -4 
4 0.9998880018102735 -0.01495950701526363 -1e-07 0.9998882018102734 0.01495950701526361 1e-07 1 1 2 4 -5 
5 0.9989929665413148 0.01495930701526361 -1e-07 0.9998882018102734 0.04486493035051492 1e-07 1 1 2 5 -6 
6 0.9972036971811802 0.04486473035051491 -1e-07 0.9989931665413146 0.07473019358642423 1e-07 1 1 2 6 -7 
7 0.9945217953682733 0.07472999358642422 -1e-07 0.9972038971811801 0.1045285632676535 1e-07 1 1 2 7 -8 
8 0.9900235577165576 0.1045283632676535 -1e-07 0.9945219953682732 0.1409013319375827 1e-07 1 0 2 8 -9 
9 0.9841955079692419 0.1409011319375827 -1e-07 0.9900237577165575 0.1770848403195833 1e-07 1 0 2 9 -10 
10 0.9770454744352637 0.1770846403195833 -1e-07 0.9841957079692418 0.2130304862749766 1e-07 1 0 2 10 -11 
11 0.9685830611286311 0.2130302862749766 -1e-07 0.9770456744352636 0.2486899871648548 1e-07 1 0 2 11 -12 
12 0.9588196348681931 0.2486897871648548 -1e-07 0.968583261128631 0.2840154447039226 1e-07 1 0 2 12 -13 
13 0.949894046672846 0.2840152447039226 -1e-07 0.958819834868193 0.3125718679456445 1e-07 1 2 2 13 -14 
14 0.9401181745692191 0.3125716679456444 -1e-07 0.9498942466728459 0.3408484971225249 1e-07 1 2 2 14 -15 
15 0.9295007692868208 0.3408482971225249 -1e-07 0.940118374569219 0.3688200208218619 1e-07 1 2 2 15 -16 
16 0.918051334841326 0.3688198208218619 -1e-07 0.9295009692868207 0.3964614007416775 1e-07 1 2 2 16 -17 
17 0.9057801200271941 0.3964612007416775 -1e-07 0.9180515348413258 0.4237478941033887 1e-07 1 2 2 17 -18 
18 0.8926981092436116 0.4237476941033887 -1e-07 0.905780320027194 0.4506550757999452 1e-07 1 2 2 18 -19 
19 0.8788170126619654 0.4506548757999452 -1e-07 0.8926983092436115 0.4771588602596084 1e-07 1 2 2 19 -20 
20 0.8607419270039437 0.4771586602596084 -1e-07 0.8788172126619653 0.5090415157503713 1e-07 1 0 2 20 -21 
21 0.8415106819453062 0.5090413157503714 -1e-07 0.8607421270039436 0.540240420477655 1e-07 1 0 2 21 -22 
22 0.8211491091337041 0.5402402204776551 -1e-07 0.8415108819453061 0.5707136676844315 1e-07 1 0 2 22 -23 
23 0.7996845584870906 0.5707134676844317 -1e-07 0.821149309133704 0.600420325325884 1e-07 1 0 2 23 -24 
24 0.7771458614569708 0.6004201253258841 -1e-07 0.7996847584870905 0.6293204910498374 1e-07 1 0 2 24 -25 
25 0.757971623145453 0.6293202910498376 -1e-07 0.7771460614569707 0.6522875112781211 1e-07 1 3 2 25 -26 
26 0.7381188974873407 0.6522873112781212 -1e-07 0.7579718231454529 0.6746706459320743 1e-07 1 3 2 26 -27 
27 0.717605455360812 0.6746704459320744 -1e-07 0.7381190974873406 0.6964498590747668 1e-07 1 3 2 27 -28 
28 0.696449659074767 0.6964496590747669 -1e-07 0.7176056553608119 0.7176056553608117 1e-07 1 3 2 28 -29 
29 0.6746704459320744 0.7176054553608118 -1e-07 0.6964498590747669 0.7381190974873405 1e-07 1 3 2 29 -30 
30 0.6522873112781212 0.7381188974873406 -1e-07 0.6746706459320743 0.7579718231454529 1e-07 1 3 2 30 -31 
31 0.6293202910498376 0.757971623145453 -1e-07 0.6522875112781211 0.7771460614569707 1e-07 1 3 2 31 -32 
32 0.6004201253258842 0.7771458614569708 -1e-07 0.6293204910498374 0.7996847584870904 1e-07 1 0 2 32 -33 
33 0.5707134676844319 0.7996845584870905 -1e-07 0.6004203253258841 0.8211493091337039 1e-07 1 0 2 33 -34 
34 0.5402402204776552 0.821149109133704 -1e-07 0.5707136676844318 0.8415108819453061 1e-07 1 0 2 34 -35 
35 0.5090413157503713 0.8415106819453062 -1e-07 0.5402404204776551 0.8607421270039436 1e-07 1 0 2 35 -36 
36 0.4771586602596084 0.8607419270039437 -1e-07 0.5090415157503712 0.8788172126619653 1e-07 1 0 2 36 -37 
37 0.4506548757999451 0.8788170126619654 -1e-07 0.4771588602596084 0.8926983092436115 1e-07 1 4 2 37 -38 
38 0.4237476941033888 0.8926981092436116 -1e-07 0.4506550757999451 0.905780320027194 1e-07 1 4 2 38 -39 
39 0.3964612007416776 0.9057801200271941 -1e-07 0.4237478941033888 0.9180515348413257 1e-07 1 4 2 39 -40 
40 0.368819820821862 0.9180513348413258 -1e-07 0.3964614007416776 0.9295009692868207 1e-07 1 4 2 40 -41 
41 0.340848297122525 0.9295007692868208 -1e-07 0.368820020821862 0.940118374569219 1e-07 1 4 2 41 -42 
42 0.3125716679456447 0.9401181745692191 -1e-07 0.340848497122525 0.9498942466728458 1e-07 1 4 2 42 -43 
43 0.2840152447039228 0.9498940466728459 -1e-07 0.3125718679456447 0.958819834868193 1e-07 1 4 2 43 -44 
44 0.248689787164855 0.9588196348681931 -1e-07 0.2840154447039228 0.968583261128631 1e-07 1 0 2 44 -45 
45 0.2130302862749766 0.9685830611286311 -1e-07 0.248689987164855 0.9770456744352636 1e-07 1 0 2 45 -46 
46 0.1770846403195834 0.9770454744352637 -1e-07 0.2130304862749766 0.9841957079692418 1e-07 1 0 2 46 -47 
47 0.1409011319375826 0.9841955079692419 -1e-07 0.1770848403195834 0.9900237577165575 1e-07 1 0 2 47 -48 
48 0.1045283632676535 0.9900235577165576 -1e-07 0.1409013319375826 0.9945219953682732 1e-07 1 0 2 48 -49 
49 0.07472999358642417 0.9945217953682733 -1e-07 0.1045285632676535 0.9972038971811801 1e-07 1 5 2 49 -50 
50 0.04486473035051498 0.9972036971811802 -1e-07 0.07473019358642417 0.9989931665413145 1e-07 1 5 2 50 -51 
51 0.0149593070152636 0.9989929665413146 -1e-07 0.04486493035051499 0.9998882018102734 1e-07 1 5 2 51 -52 
52 -0.01495950701526348 0.9998880018102735 -1e-07 0.0149595070152636 0.9998882018102734 1e-07 1 5 2 52 -53 
53 -0.04486493035051464 0.9989929665413148 -1e-07 -0.01495930701526348 0.9998882018102734 1e-07 1 5 2 53 -54 
54 -0.07473019358642427 0.9972036971811802 -1e-07 -0.04486473035051464 0.9989931665413146 1e-07 1 5 2 54 -55 
55 -0.1045285632676533 0.9945217953682735 -1e-07 -0.07472999358642426 0.9972038971811801 1e-07 1 5 2 55 -56 
56 -0.1409013319375827 0.9900235577165576 -1e-07 -0.1045283632676533 0.9945219953682733 1e-07 1 0 2 56 -57 
57 -0.1770848403195833 0.9841955079692419 -1e-07 -0.1409011319375827 0.9900237577165575 1e-07 1 0 2 57 -58 
58 -0.2130304862749765 0.9770454744352637 -1e-07 -0.1770846403195833 0.9841957079692418 1e-07 1 0 2 58 -59 
59 -0.2486899871648546 0.9685830611286312 -1e-07 -0.2130302862749765 0.9770456744352636 1e-07 1 0 2 59 -60 
60 -0.2840154447039226 0.9588196348681931 -1e-07 -0.2486897871648546 0.9685832611286311 1e-07 1 0 2 60 -61 
61 -0.3125718679456443 0.949894046672846 -1e-07 -0.2840152447039226 0.958819834868193 1e-07 1 6 2 61 -62 
62 -0.340848497122525 0.9401181745692191 -1e-07 -0.3125716679456443 0.9498942466728459 1e-07 1 6 2 62 -63 
63 -0.3688200208218619 0.9295007692868208 -1e-07 -0.340848297122525 0.940118374569219 1e-07 1 6 2 63 -64 
64 -0.3964614007416775 0.918051334841326 -1e-07 -0.3688198208218619 0.9295009692868207 1e-07 1 6 2 64 -65 
65 -0.4237478941033886 0.9057801200271941 -1e-07 -0.3964612007416775 0.9180515348413258 1e-07 1 6 2 65 -66 
66 -0.4506550757999454 0.8926981092436115 -1e-07 -0.4237476941033886 0.905780320027194 1e-07 1 6 2 66 -67 
67 -0.4771588602596085 0.8788170126619654 -1e-07 -0.4506548757999454 0.8926983092436114 1e-07 1 6 2 67 -68 
68 -0.5090415157503713 0.8607419270039437 -1e-07 -0.4771586602596085 0.8788172126619653 1e-07 1 0 2 68 -69 
69 -0.540240420477655 0.8415106819453062 -1e-07 -0.5090413157503714 0.8607421270039436 1e-07 1 0 2 69 -70 
70 -0.5707136676844315 0.8211491091337042 -1e-07 -0.5402402204776551 0.8415108819453061 1e-07 1 0 2 70 -71 
71 -0.6004203253258839 0.7996845584870906 -1e-07 -0.5707134676844317 0.8211493091337041 1e-07 1 0 2 71 -72 
72 -0.6293204910498372 0.7771458614569711 -1e-07 -0.600420125325884 0.7996847584870905 1e-07 1 0 2 72 -73 
73 -0.6522875112781208 0.7579716231454533 -1e-07 -0.6293202910498373 0.777146061456971 1e-07 1 7 2 73 -74 
74 -0.6746706459320743 0.7381188974873407 -1e-07 -0.6522873112781209 0.7579718231454532 1e-07 1 7 2 74 -75 
75 -0.6964498590747666 0.7176054553608121 -1e-07 -0.6746704459320744 0.7381190974873406 1e-07 1 7 2 75 -76 
76 -0.7176056553608119 0.6964496590747669 -1e-07 -0.6964496590747667 0.717605655360812 1e-07 1 7 2 76 -77 
77 -0.7381190974873405 0.6746704459320745 -1e-07 -0.717605455360812 0.6964498590747668 1e-07 1 7 2 77 -78 
78 -0.7579718231454531 0.652287311278121 -1e-07 -0.7381188974873406 0.6746706459320744 1e-07 1 7 2 78 -79 
79 -0.7771460614569708 0.6293202910498374 -1e-07 -0.7579716231454532 0.6522875112781209 1e-07 1 7 2 79 -80 
80 -0.7996847584870905 0.6004201253258841 -1e-07 -0.777145861456971 0.6293204910498373 1e-07 1 0 2 80 -81 
81 -0.821149309133704 0.5707134676844318 -1e-07 -0.7996845584870906 0.600420325325884 1e-07 1 0 2 81 -82 
82 -0.841510881945306 0.5402402204776552 -1e-07 -0.8211491091337041 0.5707136676844317 1e-07 1 0 2 82 -83 
83 -0.8607421270039435 0.5090413157503715 -1e-07 -0.8415106819453061 0.5402404204776551 1e-07 1 0 2 83 -84 
84 -0.8788172126619652 0.4771586602596086 -1e-07 -0.8607419270039436 0.5090415157503714 1e-07 1 0 2 84 -85 
85 -0.8926983092436113 0.4506548757999456 -1e-07 -0.8788170126619653 0.4771588602596086 1e-07 1 8 2 85 -86 
86 -0.905780320027194 0.4237476941033888 -1e-07 -0.8926981092436114 0.4506550757999456 1e-07 1 8 2 86 -87 
87 -0.9180515348413256 0.3964612007416778 -1e-07 -0.9057801200271941 0.4237478941033888 1e-07 1 8 2 87 -88 
88 -0.9295009692868207 0.3688198208218619 -1e-07 -0.9180513348413257 0.3964614007416778 1e-07 1 8 2 88 -89 
89 -0.940118374569219 0.340848297122525 -1e-07 -0.9295007692868208 0.3688200208218619 1e-07 1 8 2 89 -90 
90 -0.9498942466728459 0.3125716679456443 -1e-07 -0.9401181745692191 0.340848497122525 1e-07 1 8 2 90 -91 
91 -0.958819834868193 0.2840152447039226 -1e-07 -0.949894046672846 0.3125718679456443 1e-07 1 8 2 91 -92 
92 -0.968583261128631 0.2486897871648548 -1e-07 -0.9588196348681931 0.2840154447039226 1e-07 1 0 2 92 -93 
93 -0.9770456744352636 0.2130302862749767 -1e-07 -0.9685830611286311 0.2486899871648548 1e-07 1 0 2 93 -94 
94 -0.9841957079692418 0.1770846403195834 -1e-07 -0.9770454744352637 0.2130304862749767 1e-07 1 0 2 94 -95 
95 -0.9900237577165575 0.1409011319375829 -1e-07 -0.9841955079692419 0.1770848403195834 1e-07 1 0 2 95 -96 
96 -0.9945219953682732 0.1045283632676537 -1e-07 -0.9900235577165576 0.1409013319375829 1e-07 1 0 2 96 -97 
97 -0.9972038971811801 0.07472999358642467 -1e-07 -0.9945217953682733 0.1045285632676537 1e-07 1 9 2 97 -98 
98 -0.9989931665413145 0.04486473035051505 -1e-07 -0.9972036971811802 0.07473019358642467 1e-07 1 9 2 98 -99 
99 -0.9998882018102734 0.01495930701526389 -1e-07 -0.9989929665413146 0.04486493035051505 1e-07 1 9 2 99 -100 
100 -0.9998882018102734 -0.01495950701526364 -1e-07 -0.9998880018102735 0.01495950701526389 1e-07 1 9 2 100 -101 
101 -0.9998882018102734 -0.04486493035051525 -1e-07 -0.9989929665413146 -0.01495930701526364 1e-07 1 9 2 101 -102 
102 -0.9989931665413145 -0.07473019358642442 -1e-07 -0.9972036971811802 -0.04486473035051524 1e-07 1 9 2 102 -103 
103 -0.9972038971811801 -0.1045285632676535 -1e-07 -0.9945217953682733 -0.07472999358642442 1e-07 1 9 2 103 -104 
104 -0.9945219953682732 -0.1409013319375831 -1e-07 -0.9900235577165576 -0.1045283632676535 1e-07 1 0 2 104 -105 
105 -0.9900237577165575 -0.1770848403195832 -1e-07 -0.984195507969242 -0.1409011319375831 1e-07 1 0 2 105 -106 
106 -0.9841957079692419 -0.2130304862749764 -1e-07 -0.9770454744352637 -0.1770846403195832 1e-07 1 0 2 106 -107 
107 -0.9770456744352636 -0.2486899871648542 -1e-07 -0.9685830611286314 -0.2130302862749764 1e-07 1 0 2 107 -108 
108 -0.9685832611286312 -0.2840154447039224 -1e-07 -0.9588196348681932 -0.2486897871648542 1e-07 1 0 2 108 -109 
109 -0.9588198348681931 -0.3125718679456441 -1e-07 -0.9498940466728462 -0.2840152447039224 1e-07 1 10 2 109 -110 
110 -0.9498942466728461 -0.3408484971225247 -1e-07 -0.9401181745692192 -0.3125716679456441 1e-07 1 10 2 110 -111 
111 -0.9401183745692191 -0.3688200208218617 -1e-07 -0.9295007692868209 -0.3408482971225247 1e-07 1 10 2 111 -112 
112 -0.9295009692868208 -0.3964614007416776 -1e-07 -0.9180513348413258 -0.3688198208218617 1e-07 1 10 2 112 -113 
113 -0.9180515348413257 -0.4237478941033886 -1e-07 -0.9057801200271942 -0.3964612007416776 1e-07 1 10 2 113 -114 
114 -0.9057803200271941 -0.4506550757999453 -1e-07 -0.8926981092436115 -0.4237476941033886 1e-07 1 10 2 114 -115 
115 -0.8926983092436114 -0.4771588602596084 -1e-07 -0.8788170126619654 -0.4506548757999453 1e-07 1 10 2 115 -116 
116 -0.8788172126619653 -0.5090415157503716 -1e-07 -0.8607419270039435 -0.4771586602596084 1e-07 1 0 2 116 -117 
117 -0.8607421270039434 -0.5402404204776549 -1e-07 -0.8415106819453062 -0.5090413157503717 1e-07 1 0 2 117 -118 
118 -0.8415108819453061 -0.5707136676844314 -1e-07 -0.8211491091337042 -0.540240220477655 1e-07 1 0 2 118 -119 
119 -0.8211493091337041 -0.6004203253258834 -1e-07 -0.799684558487091 -0.5707134676844315 1e-07 1 0 2 119 -120 
120 -0.7996847584870909 -0.6293204910498372 -1e-07 -0.7771458614569712 -0.6004201253258835 1e-07 1 0 2 120 -121 
121 -0.7771460614569711 -0.6522875112781208 -1e-07 -0.7579716231454533 -0.6293202910498373 1e-07 1 11 2 121 -122 
122 -0.7579718231454532 -0.6746706459320742 -1e-07 -0.7381188974873408 -0.6522873112781209 1e-07 1 11 2 122 -123 
123 -0.7381190974873407 -0.6964498590747665 -1e-07 -0.7176054553608121 -0.6746704459320743 1e-07 1 11 2 123 -124 
124 -0.717605655360812 -0.7176056553608118 -1e-07 -0.6964496590747669 -0.6964496590747666 1e-07 1 11 2 124 -125 
125 -0.6964498590747668 -0.7381190974873405 -1e-07 -0.6746704459320745 -0.7176054553608119 1e-07 1 11 2 125 -126 
126 -0.6746706459320744 -0.757971823145453 -1e-07 -0.6522873112781211 -0.7381188974873406 1e-07 1 11 2 126 -127 
127 -0.652287511278121 -0.7771460614569711 -1e-07 -0.6293202910498371 -0.7579716231454531 1e-07 1 11 2 127 -128 
128 -0.629320491049837 -0.7996847584870904 -1e-07 -0.6004201253258842 -0.7771458614569712 1e-07 1 0 2 128 -129 
129 -0.6004203253258841 -0.8211493091337037 -1e-07 -0.5707134676844322 -0.7996845584870905 1e-07 1 0 2 129 -130 
130 -0.5707136676844321 -0.841510881945306 -1e-07 -0.5402402204776552 -0.8211491091337038 1e-07 1 0 2 130 -131 
131 -0.5402404204776551 -0.8607421270039433 -1e-07 -0.5090413157503719 -0.8415106819453061 1e-07 1 0 2 131 -132 
132 -0.5090415157503718 -0.8788172126619652 -1e-07 -0.4771586602596087 -0.8607419270039434 1e-07 1 0 2 132 -133 
133 -0.4771588602596087 -0.892698309243611 -1e-07 -0.450654875799946 -0.8788170126619653 1e-07 1 12 2 133 -134 
134 -0.450655075799946 -0.9057803200271941 -1e-07 -0.4237476941033885 -0.8926981092436111 1e-07 1 12 2 134 -135 
135 -0.4237478941033885 -0.9180515348413256 -1e-07 -0.3964612007416778 -0.9057801200271942 1e-07 1 12 2 135 -136 
136 -0.3964614007416778 -0.9295009692868207 -1e-07 -0.368819820821862 -0.9180513348413257 1e-07 1 12 2 136 -137 
137 -0.368820020821862 -0.9401183745692188 -1e-07 -0.3408482971225255 -0.9295007692868208 1e-07 1 12 2 137 -138 
138 -0.3408484971225255 -0.9498942466728461 -1e-07 -0.3125716679456439 -0.9401181745692189 1e-07 1 12 2 138 -139 
139 -0.312571867945644 -0.958819834868193 -1e-07 -0.2840152447039226 -0.9498940466728462 1e-07 1 12 2 139 -140 
140 -0.2840154447039226 -0.9685832611286311 -1e-07 -0.2486897871648544 -0.9588196348681931 1e-07 1 0 2 140 -141 
141 -0.2486899871648544 -0.9770456744352636 -1e-07 -0.2130302862749767 -0.9685830611286312 1e-07 1 0 2 141 -142 
142 -0.2130304862749767 -0.9841957079692419 -1e-07 -0.1770846403195831 -0.9770454744352637 1e-07 1 0 2 142 -143 
143 -0.1770848403195831 -0.9900237577165575 -1e-07 -0.1409011319375829 -0.984195507969242 1e-07 1 0 2 143 -144 
144 -0.1409013319375829 -0.9945219953682732 -1e-07 -0.1045283632676542 -0.9900235577165576 1e-07 1 0 2 144 -145 
145 -0.1045285632676542 -0.9972038971811801 -1e-07 -0.07472999358642472 -0.9945217953682733 1e-07 1 13 2 145 -146 
146 -0.07473019358642473 -0.9989931665413145 -1e-07 -0.0448647303505151 -0.9972036971811802 1e-07 1 13 2 146 -147 
147 -0.04486493035051511 -0.9998882018102734 -1e-07 -0.01495930701526351 -0.9989929665413146 1e-07 1 13 2 147 -148 
148 -0.0149595070152635 -0.9998882018102734 -1e-07 0.01495950701526314 -0.9998880018102735 1e-07 1 13 2 148 -149 
149 0.01495930701526314 -0.9998882018102734 -1e-07 0.04486493035051475 -0.9989929665413148 1e-07 1 13 2 149 -150 
150 0.04486473035051474 -0.9989931665413146 -1e-07 0.07473019358642437 -0.9972036971811802 1e-07 1 13 2 150 -151 
151 0.07472999358642436 -0.9972038971811801 -1e-07 0.1045285632676539 -0.9945217953682733 1e-07 1 13 2 151 -152 
152 0.1045283632676539 -0.9945219953682732 -1e-07 0.1409013319375826 -0.9900235577165576 1e-07 1 0 2 152 -153 
153 0.1409011319375826 -0.9900237577165575 -1e-07 0.1770848403195827 -0.984195507969242 1e-07 1 0 2 153 -154 
154 0.1770846403195827 -0.9841957079692419 -1e-07 0.2130304862749764 -0.9770454744352637 1e-07 1 0 2 154 -155 
155 0.2130302862749764 -0.9770456744352636 -1e-07 0.2486899871648541 -0.9685830611286314 1e-07 1 0 2 155 -156 
156 0.2486897871648541 -0.9685832611286312 -1e-07 0.2840154447039223 -0.9588196348681932 1e-07 1 0 2 156 -157 
157 0.2840152447039223 -0.9588198348681931 -1e-07 0.3125718679456436 -0.9498940466728463 1e-07 1 14 2 157 -158 
158 0.3125716679456436 -0.9498942466728462 -1e-07 0.3408484971225251 -0.940118174569219 1e-07 1 14 2 158 -159 
159 0.3408482971225251 -0.9401183745692189 -1e-07 0.3688200208218616 -0.9295007692868209 1e-07 1 14 2 159 -160 
160 0.3688198208218616 -0.9295009692868208 -1e-07 0.3964614007416775 -0.9180513348413258 1e-07 1 14 2 160 -161 
161 0.3964612007416775 -0.9180515348413257 -1e-07 0.4237478941033881 -0.9057801200271944 1e-07 1 14 2 161 -162 
162 0.4237476941033881 -0.9057803200271943 -1e-07 0.4506550757999457 -0.8926981092436114 1e-07 1 14 2 162 -163 
163 0.4506548757999457 -0.8926983092436113 -1e-07 0.4771588602596084 -0.8788170126619654 1e-07 1 14 2 163 -164 
164 0.4771586602596083 -0.8788172126619653 -1e-07 0.5090415157503715 -0.8607419270039435 1e-07 1 0 2 164 -165 
165 0.5090413157503716 -0.8607421270039434 -1e-07 0.5402404204776549 -0.8415106819453063 1e-07 1 0 2 165 -166 
166 0.540240220477655 -0.8415108819453062 -1e-07 0.5707136676844318 -0.821149109133704 1e-07 1 0 2 166 -167 
167 0.5707134676844319 -0.8211493091337039 -1e-07 0.6004203253258837 -0.7996845584870907 1e-07 1 0 2 167 -168 
168 0.6004201253258838 -0.7996847584870906 -1e-07 0.6293204910498368 -0.7771458614569714 1e-07 1 0 2 168 -169 
169 0.6293202910498369 -0.7771460614569713 -1e-07 0.6522875112781207 -0.7579716231454534 1e-07 1 15 2 169 -170 
170 0.6522873112781208 -0.7579718231454533 -1e-07 0.6746706459320742 -0.7381188974873408 1e-07 1 15 2 170 -171 
171 0.6746704459320743 -0.7381190974873407 -1e-07 0.6964498590747669 -0.7176054553608119 1e-07 1 15 2 171 -172 
172 0.696449659074767 -0.7176056553608118 -1e-07 0.7176056553608114 -0.6964496590747673 1e-07 1 15 2 172 -173 
173 0.7176054553608116 -0.6964498590747672 -1e-07 0.7381190974873404 -0.6746704459320746 1e-07 1 15 2 173 -174 
174 0.7381188974873405 -0.6746706459320745 -1e-07 0.757971823145453 -0.6522873112781211 1e-07 1 15 2 174 -175 
175 0.7579716231454531 -0.652287511278121 -1e-07 0.7771460614569711 -0.6293202910498372 1e-07 1 15 2 175 -176 
176 0.7771458614569712 -0.6293204910498371 -1e-07 0.7996847584870904 -0.6004201253258842 1e-07 1 0 2 176 -177 
177 0.7996845584870905 -0.6004203253258841 -1e-07 0.8211493091337037 -0.5707134676844323 1e-07 1 0 2 177 -178 
178 0.8211491091337038 -0.5707136676844322 -1e-07 0.841510881945306 -0.5402402204776553 1e-07 1 0 2 178 -179 
179 0.8415106819453061 -0.5402404204776552 -1e-07 0.8607421270039431 -0.509041315750372 1e-07 1 0 2 179 -180 
180 0.8607419270039433 -0.5090415157503719 -1e-07 0.8788172126619651 -0.4771586602596087 1e-07 1 0 2 180 -181 
181 0.8788170126619652 -0.4771588602596087 -1e-07 0.892698309243611 -0.4506548757999461 1e-07 1 16 2 181 -182 
182 0.8926981092436111 -0.4506550757999461 -1e-07 0.9057803200271941 -0.4237476941033885 1e-07 1 16 2 182 -183 
183 0.9057801200271942 -0.4237478941033885 -1e-07 0.9180515348413256 -0.3964612007416779 1e-07 1 16 2 183 -184 
184 0.9180513348413257 -0.3964614007416779 -1e-07 0.9295009692868207 -0.368819820821862 1e-07 1 16 2 184 -185 
185 0.9295007692868208 -0.368820020821862 -1e-07 0.9401183745692188 -0.3408482971225255 1e-07 1 16 2 185 -186 
186 0.9401181745692189 -0.3408484971225255 -1e-07 0.9498942466728461 -0.312571667945644 1e-07 1 16 2 186 -187 
187 0.9498940466728462 -0.312571867945644 -1e-07 0.958819834868193 -0.2840152447039227 1e-07 1 16 2 187 -188 
188 0.9588196348681931 -0.2840154447039227 -1e-07 0.9685832611286311 -0.2486897871648545 1e-07 1 0 2 188 -189 
189 0.9685830611286312 -0.2486899871648545 -1e-07 0.9770456744352636 -0.2130302862749768 1e-07 1 0 2 189 -190 
190 0.9770454744352637 -0.2130304862749768 -1e-07 0.9841957079692419 -0.1770846403195831 1e-07 1 0 2 190 -191 
191 0.984195507969242 -0.1770848403195831 -1e-07 0.9900237577165575 -0.140901131937583 1e-07 1 0 2 191 -192 
192 0.9900235577165576 -0.140901331937583 -1e-07 0.9945219953682732 -0.1045283632676535 1e-07 1 0 2 192 -1 
1 -0.9998882018102734 -0.9998882018102734 -1e-07 0.9998882018102734 0.9998882018102734 1e-07 1 1 192 1 2 3 4 5 6 7 8 9 10 11 12 13 14 15 16 17 18 19 20 21 22 23 24 25 26 27 28 29 30 31 32 33 34 35 36 37 38 39 40 41 42 43 44 45 46 47 48 49 50 51 52 53 54 55 56 57 58 59 60 61 62 63 64 65 66 67 68 69 70 71 72 73 74 75 76 77 78 79 80 81 82 83 84 85 86 87 88 89 90 91 92 93 94 95 96 97 98 99 100 101 102 103 104 105 106 107 108 109 110 111 112 113 114 115 116 117 118 119 120 121 122 123 124 125 126 127 128 129 130 131 132 133 134 135 136 137 138 139 140 141 142 143 144 145 146 147 148 149 150 151 152 153 154 155 156 157 158 159 160 161 162 163 164 165 166 167 168 169 170 171 172 173 174 175 176 177 178 179 180 181 182 183 184 185 186 187 188 189 190 191 192 
$EndEntities
$Nodes
385 470 1 470
0 1 0 1
1
0.9945218953682733 -0.1045284632676535 0
0 2 0 1
2
0.9972037971811801 -0.07473009358642424 0
0 3 0 1
3
0.9989930665413147 -0.04486483035051493 0
0 4 0 1
4
0.9998881018102734 -0.01495940701526363 0
0 5 0 1
5
0.9998881018102734 0.01495940701526361 0
0 6 0 1
6
0.9989930665413147 0.04486483035051492 0
0 7 0 1
7
0.9972037971811801 0.07473009358642423 0
0 8 0 1
8
0.9945218953682733 0.1045284632676535 0
0 9 0 1
9
0.9900236577165575 0.1409012319375827 0
0 10 0 1
10
0.9841956079692419 0.1770847403195833 0
0 11 0 1
11
0.9770455744352636 0.2130303862749766 0
0 12 0 1
12
0.9685831611286311 0.2486898871648548 0
0 13 0 1
13
0.9588197348681931 0.2840153447039226 0
0 14 0 1
14
0.949894146672846 0.3125717679456445 0
0 15 0 1
15
0.940118274569219 0.3408483971225249 0
0 16 0 1
16
0.9295008692868207 0.3688199208218619 0
0 17 0 1
17
0.9180514348413259 0.3964613007416775 0
0 18 0 1
18
0.905780220027194 0.4237477941033887 0
0 19 0 1
19
0.8926982092436115 0.4506549757999452 0
0 20 0 1
20
0.8788171126619654 0.4771587602596084 0
0 21 0 1
21
0.8607420270039436 0.5090414157503713 0
0 22 0 1
22
0.8415107819453062 0.540240320477655 0
0 23 0 1
23
0.821149209133704 0.5707135676844316 0
0 24 0 1
24
0.7996846584870906 0.600420225325884 0
0 25 0 1
25
0.7771459614569708 0.6293203910498375 0
0 26 0 1
26
0.7579717231454529 0.6522874112781212 0
0 27 0 1
27
0.7381189974873407 0.6746705459320743 0
0 28 0 1
28
0.7176055553608119 0.6964497590747668 0
0 29 0 1
29
0.6964497590747669 0.7176055553608117 0
0 30 0 1
30
0.6746705459320743 0.7381189974873406 0
0 31 0 1
31
0.6522874112781212 0.7579717231454529 0
0 32 0 1
32
0.6293203910498375 0.7771459614569708 0
0 33 0 1
33
0.6004202253258841 0.7996846584870905 0
0 34 0 1
34
0.5707135676844318 0.8211492091337039 0
0 35 0 1
35
0.5402403204776551 0.8415107819453062 0
0 36 0 1
36
0.5090414157503712 0.8607420270039436 0
0 37 0 1
37
0.4771587602596084 0.8788171126619654 0
0 38 0 1
38
0.4506549757999451 0.8926982092436115 0
0 39 0 1
39
0.4237477941033888 0.905780220027194 0
0 40 0 1
40
0.3964613007416776 0.9180514348413258 0
0 41 0 1
41
0.368819920821862 0.9295008692868207 0
0 42 0 1
42
0.340848397122525 0.940118274569219 0
0 43 0 1
43
0.3125717679456447 0.9498941466728459 0
0 44 0 1
44
0.2840153447039228 0.9588197348681931 0
0 45 0 1
45
0.248689887164855 0.9685831611286311 0
0 46 0 1
46
0.2130303862749766 0.9770455744352636 0
0 47 0 1
47
0.1770847403195834 0.9841956079692419 0
0 48 0 1
48
0.1409012319375826 0.9900236577165575 0
0 49 0 1
49
0.1045284632676535 0.9945218953682733 0
0 50 0 1
50
0.07473009358642417 0.9972037971811801 0
0 51 0 1
51
0.04486483035051499 0.9989930665413146 0
0 52 0 1
52
0.01495940701526361 0.9998881018102734 0
0 53 0 1
53
-0.01495940701526348 0.9998881018102734 0
0 54 0 1
54
-0.04486483035051464 0.9989930665413147 0
0 55 0 1
55
-0.07473009358642427 0.9972037971811801 0
0 56 0 1
56
-0.1045284632676533 0.9945218953682734 0
0 57 0 1
57
-0.1409012319375827 0.9900236577165575 0
0 58 0 1
58
-0.1770847403195833 0.9841956079692419 0
0 59 0 1
59
-0.2130303862749765 0.9770455744352636 0
0 60 0 1
60
-0.2486898871648546 0.9685831611286312 0
0 61 0 1
61
-0.2840153447039226 0.9588197348681931 0
0 62 0 1
62
-0.3125717679456443 0.949894146672846 0
0 63 0 1
63
-0.340848397122525 0.940118274569219 0
0 64 0 1
64
-0.3688199208218619 0.9295008692868207 0
0 65 0 1
65
-0.3964613007416775 0.9180514348413259 0
0 66 0 1
66
-0.4237477941033886 0.905780220027194 0
0 67 0 1
67
-0.4506549757999454 0.8926982092436114 0
0 68 0 1
68
-0.4771587602596085 0.8788171126619654 0
0 69 0 1
69
-0.5090414157503713 0.8607420270039436 0
0 70 0 1
70
-0.540240320477655 0.8415107819453062 0
0 71 0 1
71
-0.5707135676844316 0.8211492091337041 0
0 72 0 1
72
-0.6004202253258839 0.7996846584870906 0
0 73 0 1
73
-0.6293203910498373 0.777145961456971 0
0 74 0 1
74
-0.6522874112781208 0.7579717231454532 0
0 75 0 1
75
-0.6746705459320743 0.7381189974873407 0
0 76 0 1
76
-0.6964497590747667 0.7176055553608121 0
0 77 0 1
77
-0.7176055553608119 0.6964497590747668 0
0 78 0 1
78
-0.7381189974873406 0.6746705459320744 0
0 79 0 1
79
-0.7579717231454531 0.652287411278121 0
0 80 0 1
80
-0.7771459614569709 0.6293203910498374 0
0 81 0 1
81
-0.7996846584870906 0.600420225325884 0
0 82 0 1
82
-0.821149209133704 0.5707135676844317 0
0 83 0 1
83
-0.841510781945306 0.5402403204776551 0
0 84 0 1
84
-0.8607420270039435 0.5090414157503714 0
0 85 0 1
85
-0.8788171126619653 0.4771587602596086 0
0 86 0 1
86
-0.8926982092436113 0.4506549757999456 0
0 87 0 1
87
-0.905780220027194 0.4237477941033888 0
0 88 0 1
88
-0.9180514348413257 0.3964613007416778 0
0 89 0 1
89
-0.9295008692868207 0.3688199208218619 0
0 90 0 1
90
-0.940118274569219 0.340848397122525 0
0 91 0 1
91
-0.949894146672846 0.3125717679456443 0
0 92 0 1
92
-0.9588197348681931 0.2840153447039226 0
0 93 0 1
93
-0.9685831611286311 0.2486898871648548 0
0 94 0 1
94
-0.9770455744352636 0.2130303862749767 0
0 95 0 1
95
-0.9841956079692419 0.1770847403195834 0
0 96 0 1
96
-0.9900236577165575 0.1409012319375829 0
0 97 0 1
97
-0.9945218953682733 0.1045284632676537 0
0 98 0 1
98
-0.9972037971811801 0.07473009358642467 0
0 99 0 1
99
-0.9989930665413146 0.04486483035051505 0
0 100 0 1
100
-0.9998881018102734 0.01495940701526389 0
0 101 0 1
101
-0.9998881018102734 -0.01495940701526364 0
0 102 0 1
102
-0.9989930665413146 -0.04486483035051524 0
0 103 0 1
103
-0.9972037971811801 -0.07473009358642442 0
0 104 0 1
104
-0.9945218953682733 -0.1045284632676535 0
0 105 0 1
105
-0.9900236577165575 -0.1409012319375831 0
0 106 0 1
106
-0.984195607969242 -0.1770847403195832 0
0 107 0 1
107
-0.9770455744352636 -0.2130303862749764 0
0 108 0 1
108
-0.9685831611286313 -0.2486898871648542 0
0 109 0 1
109
-0.9588197348681932 -0.2840153447039224 0
0 110 0 1
110
-0.9498941466728461 -0.3125717679456441 0
0 111 0 1
111
-0.9401182745692191 -0.3408483971225247 0
0 112 0 1
112
-0.9295008692868209 -0.3688199208218617 0
0 113 0 1
113
-0.9180514348413258 -0.3964613007416776 0
0 114 0 1
114
-0.9057802200271942 -0.4237477941033886 0
0 115 0 1
115
-0.8926982092436114 -0.4506549757999453 0
0 116 0 1
116
-0.8788171126619654 -0.4771587602596084 0
0 117 0 1
117
-0.8607420270039434 -0.5090414157503717 0
0 118 0 1
118
-0.8415107819453062 -0.5402403204776549 0
0 119 0 1
119
-0.8211492091337041 -0.5707135676844315 0
0 120 0 1
120
-0.7996846584870909 -0.6004202253258835 0
0 121 0 1
121
-0.7771459614569711 -0.6293203910498373 0
0 122 0 1
122
-0.7579717231454532 -0.6522874112781208 0
0 123 0 1
123
-0.7381189974873408 -0.6746705459320742 0
0 124 0 1
124
-0.7176055553608121 -0.6964497590747666 0
0 125 0 1
125
-0.6964497590747668 -0.7176055553608118 0
0 126 0 1
126
-0.6746705459320744 -0.7381189974873406 0
0 127 0 1
127
-0.6522874112781211 -0.757971723145453 0
0 128 0 1
128
-0.6293203910498371 -0.7771459614569711 0
0 129 0 1
129
-0.6004202253258841 -0.7996846584870905 0
0 130 0 1
130
-0.5707135676844322 -0.8211492091337037 0
0 131 0 1
131
-0.5402403204776551 -0.841510781945306 0
0 132 0 1
132
-0.5090414157503719 -0.8607420270039433 0
0 133 0 1
133
-0.4771587602596087 -0.8788171126619653 0
0 134 0 1
134
-0.450654975799946 -0.8926982092436111 0
0 135 0 1
135
-0.4237477941033885 -0.9057802200271942 0
0 136 0 1
136
-0.3964613007416778 -0.9180514348413257 0
0 137 0 1
137
-0.368819920821862 -0.9295008692868207 0
0 138 0 1
138
-0.3408483971225255 -0.9401182745692188 0
0 139 0 1
139
-0.312571767945644 -0.9498941466728461 0
0 140 0 1
140
-0.2840153447039226 -0.9588197348681931 0
0 141 0 1
141
-0.2486898871648544 -0.9685831611286312 0
0 142 0 1
142
-0.2130303862749767 -0.9770455744352636 0
0 143 0 1
143
-0.1770847403195831 -0.984195607969242 0
0 144 0 1
144
-0.1409012319375829 -0.9900236577165575 0
0 145 0 1
145
-0.1045284632676542 -0.9945218953682733 0
0 146 0 1
146
-0.07473009358642473 -0.9972037971811801 0
0 147 0 1
147
-0.0448648303505151 -0.9989930665413146 0
0 148 0 1
148
-0.0149594070152635 -0.9998881018102734 0
0 149 0 1
149
0.01495940701526314 -0.9998881018102734 0
0 150 0 1
150
0.04486483035051474 -0.9989930665413147 0
0 151 0 1
151
0.07473009358642436 -0.9972037971811801 0
0 152 0 1
152
0.1045284632676539 -0.9945218953682733 0
0 153 0 1
153
0.1409012319375826 -0.9900236577165575 0
0 154 0 1
154
0.1770847403195827 -0.984195607969242 0
0 155 0 1
155
0.2130303862749764 -0.9770455744352636 0
0 156 0 1
156
0.2486898871648541 -0.9685831611286313 0
0 157 0 1
157
0.2840153447039223 -0.9588197348681932 0
0 158 0 1
158
0.3125717679456436 -0.9498941466728462 0
0 159 0 1
159
0.3408483971225251 -0.9401182745692189 0
0 160 0 1
160
0.3688199208218616 -0.9295008692868209 0
0 161 0 1
161
0.3964613007416775 -0.9180514348413258 0
0 162 0 1
162
0.4237477941033881 -0.9057802200271944 0
0 163 0 1
163
0.4506549757999457 -0.8926982092436113 0
0 164 0 1
164
0.4771587602596083 -0.8788171126619654 0
0 165 0 1
165
0.5090414157503715 -0.8607420270039434 0
0 166 0 1
166
0.5402403204776549 -0.8415107819453063 0
0 167 0 1
167
0.5707135676844318 -0.8211492091337039 0
0 168 0 1
168
0.6004202253258838 -0.7996846584870907 0
0 169 0 1
169
0.6293203910498368 -0.7771459614569713 0
0 170 0 1
170
0.6522874112781207 -0.7579717231454534 0
0 171 0 1
171
0.6746705459320742 -0.7381189974873408 0
0 172 0 1
172
0.6964497590747669 -0.7176055553608118 0
0 173 0 1
173
0.7176055553608115 -0.6964497590747672 0
0 174 0 1
174
0.7381189974873404 -0.6746705459320745 0
0 175 0 1
175
0.757971723145453 -0.6522874112781211 0
0 176 0 1
176
0.7771459614569711 -0.6293203910498372 0
0 177 0 1
177
0.7996846584870905 -0.6004202253258841 0
0 178 0 1
178
0.8211492091337037 -0.5707135676844323 0
0 179 0 1
179
0.841510781945306 -0.5402403204776552 0
0 180 0 1
180
0.8607420270039432 -0.509041415750372 0
0 181 0 1
181
0.8788171126619652 -0.4771587602596087 0
0 182 0 1
182
0.8926982092436111 -0.4506549757999461 0
0 183 0 1
183
0.9057802200271942 -0.4237477941033885 0
0 184 0 1
184
0.9180514348413257 -0.3964613007416779 0
0 185 0 1
185
0.9295008692868207 -0.368819920821862 0
0 186 0 1
186
0.9401182745692188 -0.3408483971225255 0
0 187 0 1
187
0.9498941466728461 -0.312571767945644 0
0 188 0 1
188
0.9588197348681931 -0.2840153447039227 0
0 189 0 1
189
0.9685831611286312 -0.2486898871648545 0
0 190 0 1
190
0.9770455744352636 -0.2130303862749768 0
0 191 0 1
191
0.984195607969242 -0.1770847403195831 0
0 192 0 1
192
0.9900236577165575 -0.140901231937583 0
1 1 0 0
1 2 0 0
1 3 0 0
1 4 0 0
1 5 0 0
1 6 0 0
1 7 0 0
1 8 0 0
1 9 0 0
1 10 0 0
1 11 0 0
1 12 0 0
1 13 0 0
1 14 0 0
1 15 0 0
1 16 0 0
1 17 0 0
1 18 0 0
1 19 0 0
1 20 0 0
1 21 0 0
1 22 0 0
1 23 0 0
1 24 0 0
1 25 0 0
1 26 0 0
1 27 0 0
1 28 0 0
1 29 0 0
1 30 0 0
1 31 0 0
1 32 0 0
1 33 0 0
1 34 0 0
1 35 0 0
1 36 0 0
1 37 0 0
1 38 0 0
1 39 0 0
1 40 0 0
1 41 0 0
1 42 0 0
1 43 0 0
1 44 0 0
1 45 0 0
1 46 0 0
1 47 0 0
1 48 0 0
1 49 0 0
1 50 0 0
1 51 0 0
1 52 0 0
1 53 0 0
1 54 0 0
1 55 0 0
1 56 0 0
1 57 0 0
1 58 0 0
1 59 0 0
1 60 0 0
1 61 0 0
1 62 0 0
1 63 0 0
1 64 0 0
1 65 0 0
1 66 0 0
1 67 0 0
1 68 0 0
1 69 0 0
1 70 0 0
1 71 0 0
1 72 0 0
1 73 0 0
1 74 0 0
1 75 0 0
1 76 0 0
1 77 0 0
1 78 0 0
1 79 0 0
1 80 0 0
1 81 0 0
1 82 0 0
1 83 0 0
1 84 0 0
1 85 0 0
1 86 0 0
1 87 0 0
1 88 0 0
1 89 0 0
1 90 0 0
1 91 0 0
1 92 0 0
1 93 0 0
1 94 0 0
1 95 0 0
1 96 0 0
1 97 0 0
1 98 0 0
1 99 0 0
1 100 0 0
1 101 0 0
1 102 0 0
1 103 0 0
1 104 0 0
1 105 0 0
1 106 0 0
1 107 0 0
1 108 0 0
1 109 0 0
1 110 0 0
1 111 0 0
1 112 0 0
1 113 0 0
1 114 0 0
1 115 0 0
1 116 0 0
1 117 0 0
1 118 0 0
1 119 0 0
1 120 0 0
1 121 0 0
1 122 0 0
1 123 0 0
1 124 0 0
1 125 0 0
1 126 0 0
1 127 0 0
1 128 0 0
1 129 0 0
1 130 0 0
1 131 0 0
1 132 0 0
1 133 0 0
1 134 0 0
1 135 0 0
1 136 0 0
1 137 0 0
1 138 0 0
1 139 0 0
1 140 0 0
1 141 0 0
1 142 0 0
1 143 0 0
1 144 0 0
1 145 0 0
1 146 0 0
1 147 0 0
1 148 0 0
1 149 0 0
1 150 0 0
1 151 0 0
1 152 0 0
1 153 0 0
1 154 0 0
1 155 0 0
1 156 0 0
1 157 0 0
1 158 0 0
1 159 0 0
1 160 0 0
1 161 0 0
1 162 0 0
1 163 0 0
1 164 0 0
1 165 0 0
1 166 0 0
1 167 0 0
1 168 0 0
1 169 0 0
1 170 0 0
1 171 0 0
1 172 0 0
1 173 0 0
1 174 0 0
1 175 0 0
1 176 0 0
1 177 0 0
1 178 0 0
1 179 0 0
1 180 0 0
1 181 0 0
1 182 0 0
1 183 0 0
1 184 0 0
1 185 0 0
1 186 0 0
1 187 0 0
1 188 0 0
1 189 0 0
1 190 0 0
1 191 0 0
1 192 0 0
2 1 0 278
193
194
195
196
197
198
199
200
201
202
203
204
205
206
207
208
209
210
211
212
213
214
215
216
217
218
219
220
221
222
223
224
225
226
227
228
229
230
231
232
233
234
235
236
237
238
239
240
241
242
243
244
245
246
247
248
249
250
251
252
253
254
255
256
257
258
259
260
261
262
263
264
265
266
267
268
269
270
271
272
273
274
275
276
277
278
279
280
281
282
283
284
285
286
287
288
289
290
291
292
293
294
295
296
297
298
299
300
301
302
303
304
305
306
307
308
309
310
311
312
313
314
315
316
317
318
319
320
321
322
323
324
325
326
327
328
329
330
331
332
333
334
335
336
337
338
339
340
341
342
343
344
345
346
347
348
349
350
351
352
353
354
355
356
357
358
359
360
361
362
363
364
365
366
367
368
369
370
371
372
373
374
375
376
377
378
379
380
381
382
383
384
385
386
387
388
389
390
391
392
393
394
395
396
397
398
399
400
401
402
403
404
405
406
407
408
409
410
411
412
413
414
415
416
417
418
419
420
421
422
423
424
425
426
427
428
429
430
431
432
433
434
435
436
437
438
439
440
441
442
443
444
445
446
447
448
449
450
451
452
453
454
455
456
457
458
459
460
461
462
463
464
465
466
467
468
469
470
-0.4250516409709331 -0.8727428265569726 0
0.4250516409709326 0.8727428265569723 0
0.8759369117419415 -0.4258720312805031 0
-0.8759369117419413 0.4258720312805028 0
0.3165654732053336 -0.9176792685753667 0
-0.9176792685753665 -0.3165654732053336 0
-0.3182439289481963 0.920517931420462 0
0.9160455505482208 0.3177574663019972 0
-0.7286609970897457 -0.6462860138508092 0
-0.6462860138508093 0.7286609970897459 0
0.6436490137028639 -0.7266807317922129 0
0.05871229091454817 0.9689694555012049 0
0.7266807317922129 0.6436490137028643 0
-0.9722343552082405 0.0582479092483803 0
-0.05824790924838035 -0.9722343552082402 0
0.9722343552082404 -0.05824790924837993 0
0.9325463791762846 -0.2606836267834391 0
0.4788840501367796 -0.8447038912789979 0
-0.9636656281965438 -0.1191769879206853 0
-0.2586736903642479 -0.9359180088718391 0
-0.7621945312643617 0.5982030136725496 0
-0.5971436441740664 -0.765685356814274 0
-0.8447038912789977 -0.4788840501367798 0
0.5971436441740666 0.7656853568142737 0
-0.9359180088718387 0.258673690364248 0
-0.4788840501367795 0.8447038912789976 0
0.8416143510584325 0.4767094075076963 0
0.9613198178973451 0.1160297819767864 0
0.1191769879206851 -0.9636656281965436 0
0.765685356814274 -0.5971436441740664 0
0.2586736903642481 0.9359180088718386 0
-0.1191769879206849 0.9636656281965437 0
0.8166800645727527 -0.5049603333022438 0
0.7129595176600261 -0.4960658569195162 0
0.2223524920844852 -0.9401857467291491 0
0.164800251031888 -0.8397806798669156 0
-0.5075847621204516 -0.8220386720537869 0
-0.5055208100874733 -0.7226920695626204 0
-0.784690213631373 -0.5669780503643727 0
-0.739691232403287 -0.4843792494635091 0
-0.5612740427124399 0.7790524469228646 0
-0.4713393889531877 0.7352971022465675 0
0.5075847621204512 0.8220386720537867 0
0.4996304176706501 0.7141133404159525 0
-0.940185746729149 -0.2223524920844852 0
-0.8744644036724379 -0.1418741698479493 0
0.9557737953860405 -0.1539457469928885 0
0.8697785040635835 -0.09573159996567088 0
-0.8241073604105468 0.5079861213468293 0
-0.765149605124175 0.4210431478072238 0
-0.2235314718190484 0.9419323341250392 0
-0.1501944346967262 0.8441911399226825 0
0.9419323341250391 0.2235314718190484 0
0.8370844018300203 0.2496025644636244 0
0.1543665921793117 0.9537089830277231 0
0.1862779203518231 0.8486519827500177 0
0.7834272242124751 0.5651496653938911 0
-0.95577379538604 0.1539457469928885 0
0.5652204250587799 -0.7835277532960787 0
0.4685544159553559 -0.734877660914056 0
-0.1539457469928884 -0.9557737953860405 0
-0.1883189724979027 -0.8509549822517718 0
0.7362919525568326 0.4623707915337718 0
-0.8501530156638823 0.1898917865178779 0
0.9105855218218359 -0.345639216275362 0
-0.7090009245680686 0.6677949905027851 0
-0.345639216275362 -0.9105855218218359 0
0.7090009245680686 -0.6677949905027851 0
0.3994773636581992 -0.8882850310028231 0
-0.3994773636581992 0.8882850310028226 0
0.02913699540268759 -0.9735417278565386 0
0.667794990502785 0.7090009245680684 0
-0.6677949905027849 -0.7090009245680687 0
-0.0291369954026877 0.9735417278565386 0
-0.9735417278565385 -0.02913699540268799 0
-0.8882850310028229 -0.3994773636581992 0
0.3456392162753615 0.9105855218218356 0
0.9735417278565385 0.0291369954026879 0
-0.9105855218218356 0.3456392162753614 0
0.8882850310028226 0.3994773636581994 0
-0.662110217075084 0.5721090300544653 0
0.8306467251305806 -0.2751812127579176 0
-0.639196351078495 -0.6032280054846006 0
-0.3233102434053855 0.8148072686122282 0
0.6296109036520432 0.6155941043951925 0
-0.3475408794567743 -0.804770610534817 0
-0.8955279915588801 0.01456068035729222 0
0.321123191557911 -0.8174691989042789 0
-0.8254952406956731 -0.3279801354951701 0
0.01311352573507294 0.8765092320774294 0
-0.02351596489274637 -0.8695310581425864 0
0.6225438731096361 -0.6398127114084523 0
0.347540879456774 0.8047706105348167 0
0.8709530741144681 0.0646526054960017 0
-0.5538214540270424 0.6790672806472072 0
-0.4619865125490429 0.6225872022031482 0
-0.3549687957768677 0.7071554654901654 0
-0.352159020249309 0.5695377971974588 0
-0.4581529657831986 0.4995979306839985 0
-0.3491284050392162 0.4387123801883009 0
-0.2386194217763438 0.5089006414526724 0
-0.2347454837204969 0.3749493848005255 0
-0.1224151947160064 0.4466612354785475 0
-0.1153718259165355 0.30967618579748 0
-0.2386786602574638 0.2295567544635189 0
-0.1126584342534297 0.1630631283851558 0
0.0135040805813701 0.2449000977622356 0
0.02219012594439423 0.09480768229458994 0
-0.1091457462973064 0.01321435653373672 0
0.0253773441968066 -0.05768655105740787 0
0.1575359179091918 0.02340166421291077 0
-0.1069798308756344 -0.1371580768421073 0
0.1612462368320812 -0.1272048893177918 0
-0.238280489729135 -0.06626989735032573 0
0.2888265180054497 -0.04479008783064885 0
0.2858126048797643 0.1003095450071554 0
-0.2353379971395342 -0.2142558167354558 0
-0.108235139538001 -0.2856132965067741 0
0.309313693313131 -0.2066720227207303 0
-0.4588132965061973 0.3718305482780807 0
-0.3629188017146213 -0.1405035756261674 0
0.4115920811105627 0.03418244376688653 0
0.4090609435097657 0.1730075859464332 0
-0.2319713755320675 -0.3564627352508496 0
-0.1101437327594043 -0.427666064706355 0
0.5297655847949586 0.1071626770888218 0
0.5345726304453859 -0.02765077070356583 0
-0.2289997444763258 -0.4962011692610828 0
-0.3476261304265935 -0.4321419255096118 0
-0.1108109460310464 -0.5637635462810234 0
0.006542887403547836 -0.4979590148907897 0
0.5258369458727779 0.2429109116407533 0
0.4087940434915192 0.308717903134519 0
-0.3677779121449642 0.0001484639593278294 0
-0.487425083251966 -0.07382504121908504 0
-0.4947325745637586 0.08991363186284303 0
-0.4795176818163933 -0.2152280493412472 0
-0.1277167119416773 0.5800059010460528 0
-0.01062332939145921 0.520042489742453 0
-0.6057139700045192 -0.00381456579408268 0
-0.6224645716572142 0.130190968999298 0
0.005934724020278185 -0.6301092848279168 0
0.1211340435073354 -0.5672226923200031 0
0.1240007456941065 -0.435419135141244 0
0.2337808577130565 -0.5102497500620777 0
0.5206591660347329 0.3765599400985681 0
0.4084633211520385 0.4418881122105824 0
0.2951850681708323 0.3765283163939991 0
0.3037932849417433 0.5047424002529527 0
-0.01934023689322403 0.6489347711518103 0
0.6481021590518604 0.04417487193953018 0
0.6520766651023918 -0.08688264636708526 0
0.5386645845655592 -0.1547155410917288 0
-0.3427016009913725 -0.5626582966971048 0
-0.4531807463303159 -0.4950396075847767 0
0.0925090914115774 0.5952352927391 0
0.6222483862054979 0.3122669212664665 0
0.2312902935047348 -0.6343067912482803 0
0.3460852333661978 -0.5729124414579245 0
0.3457387692201249 -0.4343249475907676 0
0.4589865748449882 -0.5097054029199798 0
0.4725178226805641 -0.3704165112693085 0
0.1047253718214272 0.4701512313594332 0
0.6504477259883472 -0.2188237314374529 0
-0.5616580689181025 0.4297793023616165 0
-0.5596126980802378 0.3139519208171876 0
-0.1081963121820474 -0.6874934405104081 0
-0.4579994086083379 0.2428290396850576 0
0.4085520810977416 0.5705549023452881 0
0.2933344941151919 0.6189124583570627 0
0.07738477474239276 0.70669775147462 0
-0.7167231962024128 0.04425240700969771 0
-0.7055992880149897 -0.08494369776999745 0
-0.1343309364317244 0.7103861554806701 0
-0.4689586392794561 -0.3568139793902729 0
-0.5671118132244733 -0.4339165071119566 0
0.5889772087595885 -0.4649323789143817 0
0.163573744514548 -0.295850700330028 0
0.0241631656437292 -0.2105299803417193 0
-0.2274012533354677 -0.6234932375608692 0
0.6347779834519371 0.1781608608012551 0
0.6025488899968632 -0.3433335458463289 0
0.7288027639060252 -0.3242769989144698 0
-0.2424767565009255 0.07960553634681593 0
-0.599213610088561 -0.1431479257825677 0
-0.6034383907101538 -0.2887639109045425 0
-0.7192262800359678 -0.201699673967392 0
0.7800386755010985 -0.01705442430433027 0
0.1524733227891446 0.171682224544144 0
0.7668812963955403 0.1325363951033262 0
-0.7312449402933676 0.1754932383242591 0
-0.2382877781079162 0.641841650488856 0
0.5143616801112164 0.4988375701195367 0
0.1171519943215762 -0.7157307260257976 0
0.1518910157947711 0.3332911236960204 0
-0.3543884376514443 -0.2859010136422674 0
0.4199978771678794 -0.1067108964218002 0
0.437017755567188 -0.2406193999510137 0
-0.0008246949730462801 -0.7554476587465495 0
0.7611936001469851 -0.1399282600922324 0
0.3491095248275717 -0.7050396064857365 0
-0.003298419356163685 0.3870387646204677 0
0.2885872684279153 0.2398648007686935 0
0.009996638732574913 -0.3596663679962072 0
-0.3639362087660857 0.1518711297142183 0
-0.3389487752253548 -0.6875498917482262 0
-0.3476303393932695 0.3068001091280098 0
0.2331655840321218 -0.759011737513534 0
-0.03190265269126673 0.7831867643630168 0
-0.2371824598565828 -0.7455493326050113 0
0.6251200982102151 0.4448479183667619 0
-0.6753948827458218 -0.3951382629421434 0
0.2866831224224987 -0.3330003142120653 0
-0.6621695077140545 0.3660315267713748 0
-0.4522414183883213 -0.6324791397529915 0
-0.2414815044519918 0.7627732549526698 0
-0.5704515178910974 0.5603301536604376 0
0.4542817000891039 -0.628198009788394 0
0.7228814608122607 0.2683600753278034 0
0.805348510380119 0.3656767338982286 0
0.183284362862227 0.66273997199446 0
0.7712055810986889 -0.4214089458066027 0
0.3930665672278299 0.6902765449668334 0
-0.09257900548623524 -0.7999115078967547 0
0.5150416026749389 0.6130649871456012 0
-0.6435265862153174 -0.5108785358883503 0
-0.5487544986983292 -0.5479840236031063 0
-0.6617932089307192 0.4755828389694464 0
-0.7597755198905086 0.2968680101892056 0
0.8937277553886089 0.1605729265297284 0
0.8680886541412569 -0.1962771959547383 0
-0.6479663067479318 0.2483132462932433 0
0.1985416431804604 0.5512210046856832 0
0.264601685726461 0.7481043939420047 0
-0.8133408806405438 -0.05141644583696055 0
-0.8156061949605061 0.08951825924482228 0
0.557502488645938 -0.5761427264958028 0
-0.8569092041705073 0.2901219455555173 0
0.6678731984847528 -0.4166804353488416 0
0.2108272767818468 0.4471868152776177 0
0.5507301107922755 -0.6907577227412214 0
0.09489104135403902 0.8904069235171769 0
-0.8250103377566093 -0.2350331681409951 0
-0.7407627370235269 -0.3093661565498695 0
0.2487990781173172 -0.8544597287243982 0
0.432574310954486 0.7745216432216211 0
0.6876111268227647 0.545282466409623 0
-0.4294813810415514 -0.7570455350349024 0
-0.556555111931496 0.2050397615315259 0
0.06765426146850738 -0.8529495798058218 0
0.7003377225527732 0.374920196768864 0
0.2226345571945284 -0.4016751651617573 0
0.1547067242544686 0.7540778128781223 0
-0.1035226770643012 -0.9071545990422778 0
-0.5614611619480561 -0.6559106892659555 0
-0.2746611351231603 -0.8510688272754529 0
0.5794437411173062 0.6811768043519512 0
0.4046160174048237 -0.7974854241399665 0
-0.7886619180503304 -0.4015977987003819 0
-0.4068580927094367 0.7967541697629781 0
0.6594448949262551 -0.5736487180691673 0
0.2805466784349335 0.8496061035841027 0
-0.06761132771632242 0.8897737251221751 0
-0.2567961546708785 0.8738402773168792 0
-0.7464016297467114 0.5218657124343168 0
0.7543735821818653 -0.2342572035951244 0
0.08241188895775493 0.8099217445100637 0
-0.9196240715176873 -0.06696233537290253 0
0.9110724064257003 -0.01536728993915919 0
-0.909354158459492 0.09976211781666747 0
-0.6396866477478114 0.6542613345525755 0
0.8392048230900662 -0.3648066176294222 0
-0.7188185569791982 -0.5735117076835798 0
0.3841735740984923 -0.3230268051884334 0
-0.8477346995983821 0.3626676086415814 0
0.5373193843533579 -0.261357432925789 0
0.6042989875671523 0.5286996126313004 0
-0.7875282380241098 -0.1429934311126589 0
$EndNodes
$Elements
193 938 1 938
1 1 1 1
1 1 2 
1 2 1 1
2 2 3 
1 3 1 1
3 3 4 
1 4 1 1
4 4 5 
1 5 1 1
5 5 6 
1 6 1 1
6 6 7 
1 7 1 1
7 7 8 
1 8 1 1
8 8 9 
1 9 1 1
9 9 10 
1 10 1 1
10 10 11 
1 11 1 1
11 11 12 
1 12 1 1
12 12 13 
1 13 1 1
13 13 14 
1 14 1 1
14 14 15 
1 15 1 1
15 15 16 
1 16 1 1
16 16 17 
1 17 1 1
17 17 18 
1 18 1 1
18 18 19 
1 19 1 1
19 19 20 
1 20 1 1
20 20 21 
1 21 1 1
21 21 22 
1 22 1 1
22 22 23 
1 23 1 1
23 23 24 
1 24 1 1
24 24 25 
1 25 1 1
25 25 26 
1 26 1 1
26 26 27 
1 27 1 1
27 27 28 
1 28 1 1
28 28 29 
1 29 1 1
29 29 30 
1 30 1 1
30 30 31 
1 31 1 1
31 31 32 
1 32 1 1
32 32 33 
1 33 1 1
33 33 34 
1 34 1 1
34 34 35 
1 35 1 1
35 35 36 
1 36 1 1
36 36 37 
1 37 1 1
37 37 38 
1 38 1 1
38 38 39 
1 39 1 1
39 39 40 
1 40 1 1
40 40 41 
1 41 1 1
41 41 42 
1 42 1 1
42 42 43 
1 43 1 1
43 43 44 
1 44 1 1
44 44 45 
1 45 1 1
45 45 46 
1 46 1 1
46 46 47 
1 47 1 1
47 47 48 
1 48 1 1
48 48 49 
1 49 1 1
49 49 50 
1 50 1 1
50 50 51 
1 51 1 1
51 51 52 
1 52 1 1
52 52 53 
1 53 1 1
53 53 54 
1 54 1 1
54 54 55 
1 55 1 1
55 55 56 
1 56 1 1
56 56 57 
1 57 1 1
57 57 58 
1 58 1 1
58 58 59 
1 59 1 1
59 59 60 
1 60 1 1
60 60 61 
1 61 1 1
61 61 62 
1 62 1 1
62 62 63 
1 63 1 1
63 63 64 
1 64 1 1
64 64 65 
1 65 1 1
65 65 66 
1 66 1 1
66 66 67 
1 67 1 1
67 67 68 
1 68 1 1
68 68 69 
1 69 1 1
69 69 70 
1 70 1 1
70 70 71 
1 71 1 1
71 71 72 
1 72 1 1
72 72 73 
1 73 1 1
73 73 74 
1 74 1 1
74 74 75 
1 75 1 1
75 75 76 
1 76 1 1
76 76 77 
1 77 1 1
77 77 78 
1 78 1 1
78 78 79 
1 79 1 1
79 79 80 
1 80 1 1
80 80 81 
1 81 1 1
81 81 82 
1 82 1 1
82 82 83 
1 83 1 1
83 83 84 
1 84 1 1
84 84 85 
1 85 1 1
85 85 86 
1 86 1 1
86 86 87 
1 87 1 1
87 87 88 
1 88 1 1
88 88 89 
1 89 1 1
89 89 90 
1 90 1 1
90 90 91 
1 91 1 1
91 91 92 
1 92 1 1
92 92 93 
1 93 1 1
93 93 94 
1 94 1 1
94 94 95 
1 95 1 1
95 95 96 
1 96 1 1
96 96 97 
1 97 1 1
97 97 98 
1 98 1 1
98 98 99 
1 99 1 1
99 99 100 
1 100 1 1
100 100 101 
1 101 1 1
101 101 102 
1 102 1 1
102 102 103 
1 103 1 1
103 103 104 
1 104 1 1
104 104 105 
1 105 1 1
105 105 106 
1 106 1 1
106 106 107 
1 107 1 1
107 107 108 
1 108 1 1
108 108 109 
1 109 1 1
109 109 110 
1 110 1 1
110 110 111 
1 111 1 1
111 111 112 
1 112 1 1
112 112 113 
1 113 1 1
113 113 114 
1 114 1 1
114 114 115 
1 115 1 1
115 115 116 
1 116 1 1
116 116 117 
1 117 1 1
117 117 118 
1 118 1 1
118 118 119 
1 119 1 1
119 119 120 
1 120 1 1
120 120 121 
1 121 1 1
121 121 122 
1 122 1 1
122 122 123 
1 123 1 1
123 123 124 
1 124 1 1
124 124 125 
1 125 1 1
125 125 126 
1 126 1 1
126 126 127 
1 127 1 1
127 127 128 
1 128 1 1
128 128 129 
1 129 1 1
129 129 130 
1 130 1 1
130 130 131 
1 131 1 1
131 131 132 
1 132 1 1
132 132 133 
1 133 1 1
133 133 134 
1 134 1 1
134 134 135 
1 135 1 1
135 135 136 
1 136 1 1
136 136 137 
1 137 1 1
137 137 138 
1 138 1 1
138 138 139 
1 139 1 1
139 139 140 
1 140 1 1
140 140 141 
1 141 1 1
141 141 142 
1 142 1 1
142 142 143 
1 143 1 1
143 143 144 
1 144 1 1
144 144 145 
1 145 1 1
145 145 146 
1 146 1 1
146 146 147 
1 147 1 1
147 147 148 
1 148 1 1
148 148 149 
1 149 1 1
149 149 150 
1 150 1 1
150 150 151 
1 151 1 1
151 151 152 
1 152 1 1
152 152 153 
1 153 1 1
153 153 154 
1 154 1 1
154 154 155 
1 155 1 1
155 155 156 
1 156 1 1
156 156 157 
1 157 1 1
157 157 158 
1 158 1 1
158 158 159 
1 159 1 1
159 159 160 
1 160 1 1
160 160 161 
1 161 1 1
161 161 162 
1 162 1 1
162 162 163 
1 163 1 1
163 163 164 
1 164 1 1
164 164 165 
1 165 1 1
165 165 166 
1 166 1 1
166 166 167 
1 167 1 1
167 167 168 
1 168 1 1
168 168 169 
1 169 1 1
169 169 170 
1 170 1 1
170 170 171 
1 171 1 1
171 171 172 
1 172 1 1
172 172 173 
1 173 1 1
173 173 174 
1 174 1 1
174 174 175 
1 175 1 1
175 175 176 
1 176 1 1
176 176 177 
1 177 1 1
177 177 178 
1 178 1 1
178 178 179 
1 179 1 1
179 179 180 
1 180 1 1
180 180 181 
1 181 1 1
181 181 182 
1 182 1 1
182 182 183 
1 183 1 1
183 183 184 
1 184 1 1
184 184 185 
1 185 1 1
185 185 186 
1 186 1 1
186 186 187 
1 187 1 1
187 187 188 
1 188 1 1
188 188 189 
1 189 1 1
189 189 190 
1 190 1 1
190 190 191 
1 191 1 1
191 191 192 
1 192 1 1
192 192 1 
2 1 2 746
193 289 408 276 
194 230 440 407 
195 367 378 368 
196 166 251 210 
197 58 243 224 
198 142 253 212 
199 154 227 221 
200 22 249 219 
201 118 231 215 
202 34 235 216 
203 106 237 211 
204 46 247 223 
205 70 233 218 
206 130 229 214 
207 94 250 217 
208 178 225 222 
209 384 408 289 
210 407 440 398 
211 369 453 226 
212 427 428 279 
213 329 378 367 
214 386 442 228 
215 370 396 336 
216 221 442 263 
217 228 400 386 
218 360 441 328 
219 429 453 369 
220 297 399 397 
221 364 428 427 
222 246 411 382 
223 254 416 402 
224 366 401 244 
225 382 422 246 
226 371 396 370 
227 402 416 359 
228 328 397 360 
229 378 404 368 
230 387 395 340 
231 214 447 265 
232 10 422 220 
233 190 423 209 
234 245 422 10 
235 239 423 190 
236 263 442 283 
237 410 433 429 
238 397 399 360 
239 297 397 376 
240 255 412 219 
241 195 225 181 
242 193 229 133 
243 197 227 157 
244 208 239 1 
245 202 233 73 
246 198 237 109 
247 194 235 37 
248 204 247 49 
249 200 245 13 
250 196 241 85 
251 205 249 25 
252 203 251 169 
253 285 426 415 
254 383 421 256 
255 200 412 246 
256 316 388 321 
257 286 382 380 
258 401 455 244 
259 272 412 200 
260 429 433 284 
261 207 446 145 
262 367 388 329 
263 421 430 256 
264 145 446 253 
265 228 442 221 
266 219 412 272 
267 435 436 379 
268 199 456 61 
269 61 456 243 
270 381 395 387 
271 265 447 275 
272 364 427 365 
273 244 408 366 
274 305 371 370 
275 377 379 378 
276 380 461 286 
277 374 375 356 
278 372 402 359 
279 226 431 369 
280 321 388 367 
281 309 388 316 
282 322 372 359 
283 324 373 349 
284 365 377 332 
285 380 392 240 
286 409 420 357 
287 273 420 409 
288 340 432 387 
289 281 436 435 
290 365 379 377 
291 252 410 393 
292 240 461 380 
293 297 376 298 
294 336 444 370 
295 230 447 214 
296 302 371 305 
297 355 394 387 
298 293 384 290 
299 332 377 327 
300 311 390 389 
301 415 426 362 
302 380 382 343 
303 311 466 390 
304 290 384 289 
305 387 394 299 
306 379 470 435 
307 133 229 132 
308 181 225 180 
309 37 235 36 
310 49 247 48 
311 73 233 72 
312 121 231 120 
313 157 227 156 
314 1 239 192 
315 13 245 12 
316 97 250 96 
317 109 237 108 
318 61 243 60 
319 85 241 84 
320 25 249 24 
321 145 253 144 
322 169 251 168 
323 318 373 324 
324 393 400 280 
325 436 451 404 
326 354 468 390 
327 320 372 322 
328 298 376 301 
329 209 257 187 
330 212 259 139 
331 210 261 163 
332 222 260 175 
333 213 258 79 
334 215 268 115 
335 221 263 151 
336 214 265 127 
337 224 266 55 
338 216 264 31 
339 217 271 91 
340 220 270 7 
341 223 269 43 
342 218 262 67 
343 219 272 19 
344 339 385 361 
345 333 424 383 
346 232 418 404 
347 327 377 329 
348 314 318 315 
349 333 364 332 
350 344 380 343 
351 335 386 350 
352 316 320 317 
353 321 346 320 
354 359 391 334 
355 300 381 299 
356 328 332 327 
357 319 343 318 
358 307 314 308 
359 306 313 309 
360 381 387 299 
361 322 359 334 
362 324 349 338 
363 328 441 333 
364 342 366 330 
365 377 378 329 
366 309 316 310 
367 379 436 378 
368 326 327 313 
369 318 324 315 
370 305 311 307 
371 382 411 373 
372 311 389 307 
373 343 382 373 
374 306 309 304 
375 327 329 313 
376 320 322 317 
377 305 307 303 
378 314 315 308 
379 338 385 339 
380 321 347 346 
381 319 389 345 
382 343 373 318 
383 328 333 332 
384 344 392 380 
385 339 361 341 
386 330 384 293 
387 346 372 320 
388 334 386 335 
389 348 363 342 
390 319 344 343 
391 335 350 337 
392 412 443 411 
393 316 317 310 
394 316 321 320 
395 364 365 332 
396 324 338 325 
397 326 328 327 
398 333 383 364 
399 314 319 318 
400 361 362 341 
401 314 389 319 
402 363 401 342 
403 405 466 311 
404 301 306 304 
405 307 308 303 
406 322 334 323 
407 349 403 338 
408 350 351 337 
409 331 342 330 
410 366 408 384 
411 367 368 347 
412 309 310 304 
413 306 326 313 
414 353 369 354 
415 391 442 386 
416 345 356 344 
417 393 450 252 
418 389 390 345 
419 276 452 289 
420 366 384 330 
421 313 388 309 
422 305 370 311 
423 302 305 303 
424 303 381 300 
425 375 464 274 
426 338 339 325 
427 351 353 352 
428 291 357 312 
429 404 418 368 
430 374 468 354 
431 334 335 323 
432 331 348 342 
433 295 330 293 
434 278 402 398 
435 324 325 315 
436 350 400 393 
437 434 459 248 
438 304 371 302 
439 160 261 197 
440 136 259 193 
441 112 268 198 
442 100 267 206 
443 16 272 200 
444 124 265 201 
445 64 262 199 
446 172 260 203 
447 148 263 207 
448 40 269 194 
449 52 266 204 
450 28 264 205 
451 322 323 317 
452 369 374 354 
453 301 304 302 
454 308 381 303 
455 248 459 445 
456 334 391 386 
457 307 389 314 
458 301 376 306 
459 333 441 424 
460 357 358 312 
461 321 367 347 
462 339 341 340 
463 302 303 300 
464 295 331 330 
465 166 210 165 
466 142 212 141 
467 190 209 189 
468 58 224 57 
469 106 211 105 
470 118 215 117 
471 46 223 45 
472 70 218 69 
473 10 220 9 
474 34 216 33 
475 94 217 93 
476 22 219 21 
477 82 213 81 
478 130 214 129 
479 154 221 153 
480 178 222 177 
481 319 345 344 
482 356 392 344 
483 335 337 336 
484 426 454 248 
485 256 428 383 
486 353 354 352 
487 329 388 313 
488 308 395 381 
489 310 371 304 
490 167 251 166 
491 23 249 22 
492 131 229 130 
493 155 227 154 
494 179 225 178 
495 143 253 142 
496 83 241 82 
497 107 237 106 
498 191 239 190 
499 59 243 58 
500 47 247 46 
501 11 245 10 
502 35 235 34 
503 95 250 94 
504 71 233 70 
505 119 231 118 
506 411 443 349 
507 325 395 315 
508 351 352 337 
509 286 422 382 
510 306 376 326 
511 404 451 232 
512 350 393 351 
513 211 460 103 
514 103 460 267 
515 340 395 325 
516 398 440 278 
517 97 462 250 
518 323 396 317 
519 356 468 374 
520 291 409 357 
521 310 396 371 
522 386 400 350 
523 415 438 285 
524 346 398 372 
525 390 466 354 
526 336 396 323 
527 339 340 325 
528 373 411 349 
529 346 407 398 
530 121 465 231 
531 4 461 208 
532 270 461 4 
533 299 394 296 
534 271 467 88 
535 88 467 196 
536 206 462 97 
537 335 336 323 
538 331 355 348 
539 241 457 82 
540 301 302 300 
541 376 397 326 
542 82 457 213 
543 274 458 375 
544 315 395 308 
545 298 299 296 
546 291 312 292 
547 248 445 426 
548 358 360 312 
549 298 301 300 
550 317 396 310 
551 294 295 293 
552 342 401 366 
553 393 410 351 
554 104 211 103 
555 116 215 115 
556 140 212 139 
557 188 209 187 
558 20 219 19 
559 164 210 163 
560 32 216 31 
561 80 213 79 
562 92 217 91 
563 8 220 7 
564 68 218 67 
565 44 223 43 
566 56 224 55 
567 128 214 127 
568 176 222 175 
569 152 221 151 
570 288 291 290 
571 255 439 403 
572 294 297 296 
573 383 428 364 
574 292 293 290 
575 201 465 121 
576 281 451 436 
577 76 463 202 
578 258 463 76 
579 184 464 195 
580 257 464 184 
581 338 403 385 
582 242 421 406 
583 326 397 328 
584 298 300 299 
585 387 432 355 
586 287 409 288 
587 282 455 401 
588 370 405 311 
589 294 296 295 
590 415 417 236 
591 291 292 290 
592 312 399 292 
593 295 394 331 
594 292 294 293 
595 297 298 296 
596 417 469 277 
597 288 290 289 
598 246 412 411 
599 284 453 429 
600 331 394 355 
601 288 289 234 
602 435 470 238 
603 296 394 295 
604 360 399 312 
605 251 252 210 
606 235 236 216 
607 247 248 223 
608 243 244 224 
609 253 254 212 
610 249 255 219 
611 233 234 218 
612 237 238 211 
613 250 256 217 
614 227 228 221 
615 229 230 214 
616 231 232 215 
617 225 226 222 
618 294 399 297 
619 292 399 294 
620 359 416 391 
621 347 407 346 
622 374 431 375 
623 280 450 393 
624 398 402 372 
625 357 406 358 
626 345 468 356 
627 351 410 353 
628 287 463 409 
629 362 425 341 
630 361 417 415 
631 278 448 402 
632 252 433 410 
633 348 413 363 
634 355 425 348 
635 392 423 240 
636 369 431 374 
637 352 444 337 
638 439 469 403 
639 391 416 283 
640 410 429 353 
641 361 415 362 
642 392 458 423 
643 363 459 401 
644 385 417 361 
645 349 443 403 
646 289 452 234 
647 405 444 352 
648 288 409 291 
649 228 437 400 
650 378 436 404 
651 368 419 347 
652 406 420 242 
653 423 458 274 
654 375 458 356 
655 208 240 239 
656 200 246 245 
657 196 242 241 
658 413 425 362 
659 287 288 234 
660 365 470 379 
661 255 443 412 
662 347 419 407 
663 277 449 417 
664 414 464 375 
665 385 469 417 
666 402 448 254 
667 233 287 234 
668 225 414 226 
669 353 429 369 
670 370 444 405 
671 409 463 273 
672 209 274 257 
673 213 273 258 
674 220 286 270 
675 383 424 421 
676 354 466 352 
677 421 424 406 
678 283 442 391 
679 400 437 280 
680 352 466 405 
681 420 457 242 
682 267 279 206 
683 261 280 197 
684 265 275 201 
685 262 276 199 
686 260 284 203 
687 264 277 205 
688 268 281 198 
689 266 282 204 
690 269 285 194 
691 263 283 207 
692 259 278 193 
693 355 432 425 
694 419 447 407 
695 390 468 345 
696 209 423 274 
697 220 422 286 
698 187 257 186 
699 139 259 138 
700 134 193 133 
701 148 207 147 
702 160 197 159 
703 184 195 183 
704 136 193 135 
705 172 203 171 
706 79 258 78 
707 161 261 160 
708 182 195 181 
709 158 197 157 
710 100 206 99 
711 173 260 172 
712 17 272 16 
713 31 264 30 
714 103 267 102 
715 122 201 121 
716 170 203 169 
717 86 196 85 
718 125 265 124 
719 76 202 75 
720 65 262 64 
721 74 202 73 
722 113 268 112 
723 62 199 61 
724 101 267 100 
725 52 204 51 
726 151 263 150 
727 163 261 162 
728 146 207 145 
729 16 200 15 
730 55 266 54 
731 64 199 63 
732 110 198 109 
733 89 271 88 
734 98 206 97 
735 43 269 42 
736 88 196 87 
737 26 205 25 
738 115 268 114 
739 91 271 90 
740 67 262 66 
741 175 260 174 
742 112 198 111 
743 137 259 136 
744 185 257 184 
745 14 200 13 
746 50 204 49 
747 7 270 6 
748 2 208 1 
749 149 263 148 
750 28 205 27 
751 124 201 123 
752 40 194 39 
753 4 208 3 
754 38 194 37 
755 77 258 76 
756 41 269 40 
757 5 270 4 
758 127 265 126 
759 29 264 28 
760 53 266 52 
761 19 272 18 
762 250 462 256 
763 231 465 232 
764 375 431 414 
765 362 426 413 
766 285 454 426 
767 202 287 233 
768 195 414 225 
769 242 457 241 
770 414 431 226 
771 341 432 340 
772 246 422 245 
773 240 423 239 
774 242 467 421 
775 401 459 282 
776 282 434 204 
777 280 437 197 
778 281 435 198 
779 277 439 205 
780 278 440 193 
781 284 433 203 
782 285 438 194 
783 357 420 406 
784 403 443 255 
785 243 456 244 
786 337 444 336 
787 358 441 360 
788 253 446 254 
789 256 430 217 
790 424 441 358 
791 406 424 358 
792 356 458 392 
793 254 446 416 
794 445 459 363 
795 251 433 252 
796 247 434 248 
797 237 435 238 
798 235 438 236 
799 249 439 255 
800 227 437 228 
801 229 440 230 
802 407 447 230 
803 238 460 211 
804 418 419 368 
805 204 434 247 
806 198 435 237 
807 197 437 227 
808 194 438 235 
809 205 439 249 
810 193 440 229 
811 203 433 251 
812 275 419 418 
813 236 438 415 
814 283 446 207 
815 252 450 210 
816 254 448 212 
817 248 454 223 
818 244 455 224 
819 234 452 218 
820 232 451 215 
821 236 449 216 
822 226 453 222 
823 348 425 413 
824 213 457 273 
825 276 456 199 
826 244 456 408 
827 259 448 278 
828 260 453 284 
829 262 452 276 
830 264 449 277 
831 269 454 285 
832 261 450 280 
833 268 451 281 
834 266 455 282 
835 417 449 236 
836 256 462 428 
837 403 469 385 
838 232 465 418 
839 413 445 363 
840 208 461 240 
841 425 432 341 
842 196 467 242 
843 408 456 276 
844 286 461 270 
845 274 464 257 
846 273 463 258 
847 279 462 206 
848 275 465 201 
849 267 460 279 
850 426 445 413 
851 416 446 283 
852 273 457 420 
853 217 430 271 
854 212 448 259 
855 222 453 260 
856 216 449 264 
857 215 451 268 
858 218 452 262 
859 224 455 266 
860 210 450 261 
861 223 454 269 
862 427 460 238 
863 275 447 419 
864 195 464 414 
865 202 463 287 
866 428 462 279 
867 418 465 275 
868 277 469 439 
869 279 460 427 
870 421 467 430 
871 238 470 427 
872 282 459 434 
873 430 467 271 
874 427 470 365 
875 48 247 47 
876 72 233 71 
877 24 249 23 
878 12 245 11 
879 96 250 95 
880 36 235 35 
881 84 241 83 
882 60 243 59 
883 108 237 107 
884 156 227 155 
885 168 251 167 
886 192 239 191 
887 144 253 143 
888 120 231 119 
889 132 229 131 
890 180 225 179 
891 117 215 116 
892 105 211 104 
893 165 210 164 
894 141 212 140 
895 189 209 188 
896 33 216 32 
897 57 224 56 
898 45 223 44 
899 9 220 8 
900 69 218 68 
901 21 219 20 
902 93 217 92 
903 81 213 80 
904 153 221 152 
905 177 222 176 
906 129 214 128 
907 159 197 158 
908 171 203 170 
909 135 193 134 
910 183 195 182 
911 147 207 146 
912 30 264 29 
913 75 202 74 
914 87 196 86 
915 111 198 110 
916 150 263 149 
917 42 269 41 
918 63 199 62 
919 99 206 98 
920 102 267 101 
921 15 200 14 
922 174 260 173 
923 6 270 5 
924 123 201 122 
925 18 272 17 
926 66 262 65 
927 3 208 2 
928 27 205 26 
929 126 265 125 
930 39 194 38 
931 54 266 53 
932 51 204 50 
933 114 268 113 
934 90 271 89 
935 78 258 77 
936 186 257 185 
937 162 261 161 
938 138 259 137 
$EndElements
