$MeshFormat
4.1 0 8
$EndMeshFormat
$PhysicalNames
18
1 1 "Electrode1"
1 2 "Electrode2"
1 3 "Electrode3"
1 4 "Electrode4"
1 5 "Electrode5"
1 6 "Electrode6"
1 7 "Electrode7"
1 8 "Electrode8"
1 9 "Electrode9"
1 10 "Electrode10"
1 11 "Electrode11"
1 12 "Electrode12"
1 13 "Electrode13"
1 14 "Electrode14"
1 15 "Electrode15"
1 16 "Electrode16"
1 17 "No-Electrode"
2 1 "domain"
$EndPhysicalNames
$Entities
192 192 1 0
1 0.4972609476841366 -0.05226423163382673 0 0 
2 0.4986018985905901 -0.03736504679321212 0 0 
3 0.4994965332706574 -0.02243241517525747 0 0 
4 0.4999440509051367 -0.007479703507631816 0 0 
5 0.4999440509051367 0.007479703507631805 0 0 
6 0.4994965332706574 0.02243241517525746 0 0 
7 0.4986018985905901 0.03736504679321211 0 0 
8 0.4972609476841366 0.05226423163382673 0 0 
9 0.4950118288582788 0.07045061596879133 0 0 
10 0.4920978039846209 0.08854237015979165 0 0 
11 0.4885227872176318 0.1065151931374883 0 0 
12 0.4842915805643155 0.1243449435824274 0 0 
13 0.4794098674340965 0.1420076723519613 0 0 
14 0.474947073336423 0.1562858839728222 0 0 
15 0.4700591372846095 0.1704241985612625 0 0 
16 0.4647504346434104 0.184409960410931 0 0 
17 0.4590257174206629 0.1982306503708388 0 0 
18 0.452890110013597 0.2118738970516943 0 0 
19 0.4463491046218058 0.2253274878999726 0 0 
20 0.4394085563309827 0.2385793801298042 0 0 
21 0.4303710135019718 0.2545207078751857 0 0 
22 0.4207553909726531 0.2701201602388275 0 0 
23 0.410574604566852 0.2853567838422158 0 0 
24 0.3998423292435453 0.300210112662942 0 0 
25 0.3885729807284854 0.3146601955249188 0 0 
26 0.3789858615727265 0.3261437056390606 0 0 
27 0.3690594987436703 0.3373352729660372 0 0 
28 0.358802777680406 0.3482248795373834 0 0 
29 0.3482248795373835 0.3588027776804059 0 0 
30 0.3373352729660372 0.3690594987436703 0 0 
31 0.3261437056390606 0.3789858615727265 0 0 
32 0.3146601955249188 0.3885729807284854 0 0 
33 0.3002101126629421 0.3998423292435452 0 0 
34 0.2853567838422159 0.410574604566852 0 0 
35 0.2701201602388276 0.4207553909726531 0 0 
36 0.2545207078751856 0.4303710135019718 0 0 
37 0.2385793801298042 0.4394085563309827 0 0 
38 0.2253274878999726 0.4463491046218058 0 0 
39 0.2118738970516944 0.452890110013597 0 0 
40 0.1982306503708388 0.4590257174206629 0 0 
41 0.184409960410931 0.4647504346434104 0 0 
42 0.1704241985612625 0.4700591372846095 0 0 
43 0.1562858839728223 0.4749470733364229 0 0 
44 0.1420076723519614 0.4794098674340965 0 0 
45 0.1243449435824275 0.4842915805643155 0 0 
46 0.1065151931374883 0.4885227872176318 0 0 
47 0.08854237015979169 0.4920978039846209 0 0 
48 0.07045061596879129 0.4950118288582788 0 0 
49 0.05226423163382673 0.4972609476841366 0 0 
50 0.03736504679321209 0.4986018985905901 0 0 
51 0.02243241517525749 0.4994965332706573 0 0 
52 0.007479703507631803 0.4999440509051367 0 0 
53 -0.007479703507631741 0.4999440509051367 0 0 
54 -0.02243241517525732 0.4994965332706574 0 0 
55 -0.03736504679321213 0.4986018985905901 0 0 
56 -0.05226423163382667 0.4972609476841367 0 0 
57 -0.07045061596879135 0.4950118288582788 0 0 
58 -0.08854237015979163 0.4920978039846209 0 0 
59 -0.1065151931374882 0.4885227872176318 0 0 
60 -0.1243449435824273 0.4842915805643156 0 0 
61 -0.1420076723519613 0.4794098674340965 0 0 
62 -0.1562858839728222 0.474947073336423 0 0 
63 -0.1704241985612625 0.4700591372846095 0 0 
64 -0.184409960410931 0.4647504346434104 0 0 
65 -0.1982306503708387 0.4590257174206629 0 0 
66 -0.2118738970516943 0.452890110013597 0 0 
67 -0.2253274878999727 0.4463491046218057 0 0 
68 -0.2385793801298042 0.4394085563309827 0 0 
69 -0.2545207078751857 0.4303710135019718 0 0 
70 -0.2701201602388275 0.4207553909726531 0 0 
71 -0.2853567838422158 0.4105746045668521 0 0 
72 -0.300210112662942 0.3998423292435453 0 0 
73 -0.3146601955249186 0.3885729807284855 0 0 
74 -0.3261437056390604 0.3789858615727266 0 0 
75 -0.3373352729660372 0.3690594987436703 0 0 
76 -0.3482248795373833 0.358802777680406 0 0 
77 -0.358802777680406 0.3482248795373834 0 0 
78 -0.3690594987436703 0.3373352729660372 0 0 
79 -0.3789858615727266 0.3261437056390605 0 0 
80 -0.3885729807284855 0.3146601955249187 0 0 
81 -0.3998423292435453 0.300210112662942 0 0 
82 -0.410574604566852 0.2853567838422159 0 0 
83 -0.420755390972653 0.2701201602388276 0 0 
84 -0.4303710135019718 0.2545207078751857 0 0 
85 -0.4394085563309826 0.2385793801298043 0 0 
86 -0.4463491046218057 0.2253274878999728 0 0 
87 -0.452890110013597 0.2118738970516944 0 0 
88 -0.4590257174206628 0.1982306503708389 0 0 
89 -0.4647504346434104 0.1844099604109309 0 0 
90 -0.4700591372846095 0.1704241985612625 0 0 
91 -0.474947073336423 0.1562858839728222 0 0 
92 -0.4794098674340965 0.1420076723519613 0 0 
93 -0.4842915805643155 0.1243449435824274 0 0 
94 -0.4885227872176318 0.1065151931374883 0 0 
95 -0.4920978039846209 0.08854237015979172 0 0 
96 -0.4950118288582788 0.07045061596879143 0 0 
97 -0.4972609476841366 0.05226423163382687 0 0 
98 -0.4986018985905901 0.03736504679321234 0 0 
99 -0.4994965332706573 0.02243241517525752 0 0 
100 -0.4999440509051367 0.007479703507631944 0 0 
101 -0.4999440509051367 -0.007479703507631822 0 0 
102 -0.4994965332706573 -0.02243241517525762 0 0 
103 -0.4986018985905901 -0.03736504679321221 0 0 
104 -0.4972609476841366 -0.05226423163382675 0 0 
105 -0.4950118288582788 -0.07045061596879153 0 0 
106 -0.492097803984621 -0.08854237015979159 0 0 
107 -0.4885227872176318 -0.1065151931374882 0 0 
108 -0.4842915805643156 -0.1243449435824271 0 0 
109 -0.4794098674340966 -0.1420076723519612 0 0 
110 -0.4749470733364231 -0.1562858839728221 0 0 
111 -0.4700591372846096 -0.1704241985612624 0 0 
112 -0.4647504346434104 -0.1844099604109308 0 0 
113 -0.4590257174206629 -0.1982306503708388 0 0 
114 -0.4528901100135971 -0.2118738970516943 0 0 
115 -0.4463491046218057 -0.2253274878999727 0 0 
116 -0.4394085563309827 -0.2385793801298042 0 0 
117 -0.4303710135019717 -0.2545207078751858 0 0 
118 -0.4207553909726531 -0.2701201602388275 0 0 
119 -0.4105746045668521 -0.2853567838422157 0 0 
120 -0.3998423292435455 -0.3002101126629417 0 0 
121 -0.3885729807284856 -0.3146601955249186 0 0 
122 -0.3789858615727266 -0.3261437056390604 0 0 
123 -0.3690594987436704 -0.3373352729660371 0 0 
124 -0.358802777680406 -0.3482248795373833 0 0 
125 -0.3482248795373834 -0.3588027776804059 0 0 
126 -0.3373352729660372 -0.3690594987436703 0 0 
127 -0.3261437056390605 -0.3789858615727265 0 0 
128 -0.3146601955249185 -0.3885729807284856 0 0 
129 -0.3002101126629421 -0.3998423292435452 0 0 
130 -0.2853567838422161 -0.4105746045668519 0 0 
131 -0.2701201602388276 -0.420755390972653 0 0 
132 -0.2545207078751859 -0.4303710135019717 0 0 
133 -0.2385793801298043 -0.4394085563309826 0 0 
134 -0.225327487899973 -0.4463491046218055 0 0 
135 -0.2118738970516942 -0.4528901100135971 0 0 
136 -0.1982306503708389 -0.4590257174206628 0 0 
137 -0.184409960410931 -0.4647504346434104 0 0 
138 -0.1704241985612627 -0.4700591372846094 0 0 
139 -0.156285883972822 -0.4749470733364231 0 0 
140 -0.1420076723519613 -0.4794098674340965 0 0 
141 -0.1243449435824272 -0.4842915805643156 0 0 
142 -0.1065151931374884 -0.4885227872176318 0 0 
143 -0.08854237015979154 -0.492097803984621 0 0 
144 -0.07045061596879146 -0.4950118288582788 0 0 
145 -0.05226423163382712 -0.4972609476841366 0 0 
146 -0.03736504679321236 -0.4986018985905901 0 0 
147 -0.02243241517525755 -0.4994965332706573 0 0 
148 -0.007479703507631752 -0.4999440509051367 0 0 
149 0.007479703507631569 -0.4999440509051367 0 0 
150 0.02243241517525737 -0.4994965332706574 0 0 
151 0.03736504679321218 -0.4986018985905901 0 0 
152 0.05226423163382694 -0.4972609476841366 0 0 
153 0.07045061596879128 -0.4950118288582788 0 0 
154 0.08854237015979136 -0.492097803984621 0 0 
155 0.1065151931374882 -0.4885227872176318 0 0 
156 0.124344943582427 -0.4842915805643156 0 0 
157 0.1420076723519612 -0.4794098674340966 0 0 
158 0.1562858839728218 -0.4749470733364231 0 0 
159 0.1704241985612626 -0.4700591372846095 0 0 
160 0.1844099604109308 -0.4647504346434104 0 0 
161 0.1982306503708388 -0.4590257174206629 0 0 
162 0.2118738970516941 -0.4528901100135972 0 0 
163 0.2253274878999728 -0.4463491046218057 0 0 
164 0.2385793801298042 -0.4394085563309827 0 0 
165 0.2545207078751858 -0.4303710135019717 0 0 
166 0.2701201602388275 -0.4207553909726531 0 0 
167 0.2853567838422159 -0.410574604566852 0 0 
168 0.3002101126629419 -0.3998423292435453 0 0 
169 0.3146601955249184 -0.3885729807284857 0 0 
170 0.3261437056390604 -0.3789858615727267 0 0 
171 0.3373352729660371 -0.3690594987436704 0 0 
172 0.3482248795373835 -0.3588027776804059 0 0 
173 0.3588027776804057 -0.3482248795373836 0 0 
174 0.3690594987436702 -0.3373352729660373 0 0 
175 0.3789858615727265 -0.3261437056390605 0 0 
176 0.3885729807284856 -0.3146601955249186 0 0 
177 0.3998423292435452 -0.3002101126629421 0 0 
178 0.4105746045668519 -0.2853567838422161 0 0 
179 0.420755390972653 -0.2701201602388276 0 0 
180 0.4303710135019716 -0.254520707875186 0 0 
181 0.4394085563309826 -0.2385793801298044 0 0 
182 0.4463491046218055 -0.225327487899973 0 0 
183 0.4528901100135971 -0.2118738970516943 0 0 
184 0.4590257174206628 -0.198230650370839 0 0 
185 0.4647504346434104 -0.184409960410931 0 0 
186 0.4700591372846094 -0.1704241985612628 0 0 
187 0.4749470733364231 -0.156285883972822 0 0 
188 0.4794098674340965 -0.1420076723519614 0 0 
189 0.4842915805643156 -0.1243449435824272 0 0 
190 0.4885227872176318 -0.1065151931374884 0 0 
191 0.492097803984621 -0.08854237015979156 0 0 
192 0.4950118288582788 -0.0704506159687915 0 0 
1 0.4972608476841366 -0.05226433163382673 -1e-07 0.4986019985905901 -0.03736494679321212 1e-07 1 1 2 1 -2 
2 0.4986017985905901 -0.03736514679321212 -1e-07 0.4994966332706574 -0.02243231517525747 1e-07 1 1 2 2 -3 
3 0.4994964332706573 -0.02243251517525746 -1e-07 0.4999441509051367 -0.007479603507631816 1e-07 1 1 2 3 -4 
4 0.4999439509051367 -0.007479803507631816 -1e-07 0.4999441509051367 0.007479803507631806 1e-07 1 1 2 4 -5 
5 0.4994964332706573 0.007479603507631804 -1e-07 0.4999441509051367 0.02243251517525746 1e-07 1 1 2 5 -6 
6 0.4986017985905901 0.02243231517525746 -1e-07 0.4994966332706574 0.03736514679321212 1e-07 1 1 2 6 -7 
7 0.4972608476841366 0.03736494679321211 -1e-07 0.4986019985905901 0.05226433163382673 1e-07 1 1 2 7 -8 
8 0.4950117288582788 0.05226413163382673 -1e-07 0.4972610476841366 0.07045071596879134 1e-07 1 0 2 8 -9 
9 0.4920977039846209 0.07045051596879133 -1e-07 0.4950119288582788 0.08854247015979165 1e-07 1 0 2 9 -10 
10 0.4885226872176318 0.08854227015979164 -1e-07 0.4920979039846209 0.1065152931374883 1e-07 1 0 2 10 -11 
11 0.4842914805643155 0.1065150931374883 -1e-07 0.4885228872176318 0.1243450435824274 1e-07 1 0 2 11 -12 
12 0.4794097674340965 0.1243448435824274 -1e-07 0.4842916805643155 0.1420077723519613 1e-07 1 0 2 12 -13 
13 0.474946973336423 0.1420075723519613 -1e-07 0.4794099674340965 0.1562859839728222 1e-07 1 2 2 13 -14 
14 0.4700590372846095 0.1562857839728222 -1e-07 0.474947173336423 0.1704242985612625 1e-07 1 2 2 14 -15 
15 0.4647503346434104 0.1704240985612624 -1e-07 0.4700592372846095 0.184410060410931 1e-07 1 2 2 15 -16 
16 0.4590256174206629 0.184409860410931 -1e-07 0.4647505346434104 0.1982307503708388 1e-07 1 2 2 16 -17 
17 0.452890010013597 0.1982305503708388 -1e-07 0.459025817420663 0.2118739970516944 1e-07 1 2 2 17 -18 
18 0.4463490046218058 0.2118737970516943 -1e-07 0.452890210013597 0.2253275878999726 1e-07 1 2 2 18 -19 
19 0.4394084563309827 0.2253273878999726 -1e-07 0.4463492046218058 0.2385794801298042 1e-07 1 2 2 19 -20 
20 0.4303709135019718 0.2385792801298042 -1e-07 0.4394086563309827 0.2545208078751857 1e-07 1 0 2 20 -21 
21 0.4207552909726531 0.2545206078751857 -1e-07 0.4303711135019718 0.2701202602388275 1e-07 1 0 2 21 -22 
22 0.410574504566852 0.2701200602388275 -1e-07 0.4207554909726531 0.2853568838422158 1e-07 1 0 2 22 -23 
23 0.3998422292435453 0.2853566838422158 -1e-07 0.410574704566852 0.300210212662942 1e-07 1 0 2 23 -24 
24 0.3885728807284854 0.300210012662942 -1e-07 0.3998424292435453 0.3146602955249188 1e-07 1 0 2 24 -25 
25 0.3789857615727265 0.3146600955249187 -1e-07 0.3885730807284854 0.3261438056390606 1e-07 1 3 2 25 -26 
26 0.3690593987436703 0.3261436056390606 -1e-07 0.3789859615727265 0.3373353729660372 1e-07 1 3 2 26 -27 
27 0.358802677680406 0.3373351729660372 -1e-07 0.3690595987436703 0.3482249795373834 1e-07 1 3 2 27 -28 
28 0.3482247795373835 0.3482247795373834 -1e-07 0.358802877680406 0.3588028776804059 1e-07 1 3 2 28 -29 
29 0.3373351729660372 0.3588026776804059 -1e-07 0.3482249795373835 0.3690595987436703 1e-07 1 3 2 29 -30 
30 0.3261436056390606 0.3690593987436703 -1e-07 0.3373353729660372 0.3789859615727265 1e-07 1 3 2 30 -31 
31 0.3146600955249187 0.3789857615727265 -1e-07 0.3261438056390606 0.3885730807284854 1e-07 1 3 2 31 -32 
32 0.3002100126629421 0.3885728807284854 -1e-07 0.3146602955249188 0.3998424292435452 1e-07 1 0 2 32 -33 
33 0.2853566838422159 0.3998422292435452 -1e-07 0.3002102126629421 0.410574704566852 1e-07 1 0 2 33 -34 
34 0.2701200602388276 0.410574504566852 -1e-07 0.2853568838422159 0.4207554909726531 1e-07 1 0 2 34 -35 
35 0.2545206078751856 0.4207552909726531 -1e-07 0.2701202602388276 0.4303711135019718 1e-07 1 0 2 35 -36 
36 0.2385792801298042 0.4303709135019718 -1e-07 0.2545208078751856 0.4394086563309827 1e-07 1 0 2 36 -37 
37 0.2253273878999726 0.4394084563309827 -1e-07 0.2385794801298042 0.4463492046218058 1e-07 1 4 2 37 -38 
38 0.2118737970516944 0.4463490046218058 -1e-07 0.2253275878999726 0.452890210013597 1e-07 1 4 2 38 -39 
39 0.1982305503708388 0.452890010013597 -1e-07 0.2118739970516944 0.4590258174206629 1e-07 1 4 2 39 -40 
40 0.184409860410931 0.4590256174206629 -1e-07 0.1982307503708388 0.4647505346434104 1e-07 1 4 2 40 -41 
41 0.1704240985612625 0.4647503346434104 -1e-07 0.184410060410931 0.4700592372846095 1e-07 1 4 2 41 -42 
42 0.1562857839728223 0.4700590372846095 -1e-07 0.1704242985612625 0.4749471733364229 1e-07 1 4 2 42 -43 
43 0.1420075723519614 0.4749469733364229 -1e-07 0.1562859839728223 0.4794099674340965 1e-07 1 4 2 43 -44 
44 0.1243448435824275 0.4794097674340965 -1e-07 0.1420077723519614 0.4842916805643155 1e-07 1 0 2 44 -45 
45 0.1065150931374883 0.4842914805643155 -1e-07 0.1243450435824275 0.4885228872176318 1e-07 1 0 2 45 -46 
46 0.08854227015979169 0.4885226872176318 -1e-07 0.1065152931374883 0.4920979039846209 1e-07 1 0 2 46 -47 
47 0.07045051596879129 0.4920977039846209 -1e-07 0.08854247015979169 0.4950119288582788 1e-07 1 0 2 47 -48 
48 0.05226413163382673 0.4950117288582788 -1e-07 0.07045071596879129 0.4972610476841366 1e-07 1 0 2 48 -49 
49 0.03736494679321208 0.4972608476841366 -1e-07 0.05226433163382673 0.4986019985905901 1e-07 1 5 2 49 -50 
50 0.02243231517525749 0.4986017985905901 -1e-07 0.03736514679321209 0.4994966332706573 1e-07 1 5 2 50 -51 
51 0.007479603507631802 0.4994964332706573 -1e-07 0.02243251517525749 0.4999441509051367 1e-07 1 5 2 51 -52 
52 -0.007479803507631742 0.4999439509051367 -1e-07 0.007479803507631803 0.4999441509051367 1e-07 1 5 2 52 -53 
53 -0.02243251517525732 0.4994964332706573 -1e-07 -0.007479603507631741 0.4999441509051367 1e-07 1 5 2 53 -54 
54 -0.03736514679321214 0.4986017985905901 -1e-07 -0.02243231517525732 0.4994966332706574 1e-07 1 5 2 54 -55 
55 -0.05226433163382667 0.4972608476841367 -1e-07 -0.03736494679321213 0.4986019985905901 1e-07 1 5 2 55 -56 
56 -0.07045071596879135 0.4950117288582788 -1e-07 -0.05226413163382666 0.4972610476841367 1e-07 1 0 2 56 -57 
57 -0.08854247015979164 0.4920977039846209 -1e-07 -0.07045051596879134 0.4950119288582788 1e-07 1 0 2 57 -58 
58 -0.1065152931374882 0.4885226872176318 -1e-07 -0.08854227015979163 0.4920979039846209 1e-07 1 0 2 58 -59 
59 -0.1243450435824273 0.4842914805643156 -1e-07 -0.1065150931374882 0.4885228872176318 1e-07 1 0 2 59 -60 
60 -0.1420077723519613 0.4794097674340965 -1e-07 -0.1243448435824273 0.4842916805643156 1e-07 1 0 2 60 -61 
61 -0.1562859839728222 0.474946973336423 -1e-07 -0.1420075723519613 0.4794099674340965 1e-07 1 6 2 61 -62 
62 -0.1704242985612625 0.4700590372846095 -1e-07 -0.1562857839728222 0.474947173336423 1e-07 1 6 2 62 -63 
63 -0.184410060410931 0.4647503346434104 -1e-07 -0.1704240985612625 0.4700592372846095 1e-07 1 6 2 63 -64 
64 -0.1982307503708387 0.4590256174206629 -1e-07 -0.184409860410931 0.4647505346434104 1e-07 1 6 2 64 -65 
65 -0.2118739970516943 0.452890010013597 -1e-07 -0.1982305503708387 0.459025817420663 1e-07 1 6 2 65 -66 
66 -0.2253275878999727 0.4463490046218057 -1e-07 -0.2118737970516943 0.452890210013597 1e-07 1 6 2 66 -67 
67 -0.2385794801298042 0.4394084563309827 -1e-07 -0.2253273878999727 0.4463492046218057 1e-07 1 6 2 67 -68 
68 -0.2545208078751857 0.4303709135019718 -1e-07 -0.2385792801298042 0.4394086563309827 1e-07 1 0 2 68 -69 
69 -0.2701202602388275 0.4207552909726531 -1e-07 -0.2545206078751857 0.4303711135019718 1e-07 1 0 2 69 -70 
70 -0.2853568838422158 0.4105745045668521 -1e-07 -0.2701200602388275 0.4207554909726531 1e-07 1 0 2 70 -71 
71 -0.300210212662942 0.3998422292435453 -1e-07 -0.2853566838422158 0.4105747045668521 1e-07 1 0 2 71 -72 
72 -0.3146602955249186 0.3885728807284855 -1e-07 -0.3002100126629419 0.3998424292435453 1e-07 1 0 2 72 -73 
73 -0.3261438056390604 0.3789857615727266 -1e-07 -0.3146600955249186 0.3885730807284855 1e-07 1 7 2 73 -74 
74 -0.3373353729660372 0.3690593987436703 -1e-07 -0.3261436056390604 0.3789859615727266 1e-07 1 7 2 74 -75 
75 -0.3482249795373834 0.358802677680406 -1e-07 -0.3373351729660372 0.3690595987436703 1e-07 1 7 2 75 -76 
76 -0.358802877680406 0.3482247795373834 -1e-07 -0.3482247795373833 0.358802877680406 1e-07 1 7 2 76 -77 
77 -0.3690595987436703 0.3373351729660372 -1e-07 -0.358802677680406 0.3482249795373834 1e-07 1 7 2 77 -78 
78 -0.3789859615727266 0.3261436056390605 -1e-07 -0.3690593987436703 0.3373353729660372 1e-07 1 7 2 78 -79 
79 -0.3885730807284855 0.3146600955249187 -1e-07 -0.3789857615727266 0.3261438056390605 1e-07 1 7 2 79 -80 
80 -0.3998424292435453 0.300210012662942 -1e-07 -0.3885728807284854 0.3146602955249187 1e-07 1 0 2 80 -81 
81 -0.410574704566852 0.2853566838422159 -1e-07 -0.3998422292435453 0.300210212662942 1e-07 1 0 2 81 -82 
82 -0.420755490972653 0.2701200602388276 -1e-07 -0.410574504566852 0.2853568838422159 1e-07 1 0 2 82 -83 
83 -0.4303711135019718 0.2545206078751857 -1e-07 -0.420755290972653 0.2701202602388276 1e-07 1 0 2 83 -84 
84 -0.4394086563309826 0.2385792801298043 -1e-07 -0.4303709135019718 0.2545208078751857 1e-07 1 0 2 84 -85 
85 -0.4463492046218057 0.2253273878999728 -1e-07 -0.4394084563309826 0.2385794801298043 1e-07 1 8 2 85 -86 
86 -0.452890210013597 0.2118737970516944 -1e-07 -0.4463490046218057 0.2253275878999728 1e-07 1 8 2 86 -87 
87 -0.4590258174206628 0.1982305503708389 -1e-07 -0.452890010013597 0.2118739970516944 1e-07 1 8 2 87 -88 
88 -0.4647505346434104 0.1844098604109309 -1e-07 -0.4590256174206628 0.1982307503708389 1e-07 1 8 2 88 -89 
89 -0.4700592372846095 0.1704240985612625 -1e-07 -0.4647503346434104 0.1844100604109309 1e-07 1 8 2 89 -90 
90 -0.474947173336423 0.1562857839728222 -1e-07 -0.4700590372846095 0.1704242985612625 1e-07 1 8 2 90 -91 
91 -0.4794099674340965 0.1420075723519613 -1e-07 -0.474946973336423 0.1562859839728222 1e-07 1 8 2 91 -92 
92 -0.4842916805643155 0.1243448435824274 -1e-07 -0.4794097674340965 0.1420077723519613 1e-07 1 0 2 92 -93 
93 -0.4885228872176318 0.1065150931374883 -1e-07 -0.4842914805643155 0.1243450435824274 1e-07 1 0 2 93 -94 
94 -0.4920979039846209 0.08854227015979171 -1e-07 -0.4885226872176318 0.1065152931374883 1e-07 1 0 2 94 -95 
95 -0.4950119288582788 0.07045051596879143 -1e-07 -0.4920977039846209 0.08854247015979172 1e-07 1 0 2 95 -96 
96 -0.4972610476841366 0.05226413163382686 -1e-07 -0.4950117288582788 0.07045071596879143 1e-07 1 0 2 96 -97 
97 -0.4986019985905901 0.03736494679321233 -1e-07 -0.4972608476841366 0.05226433163382687 1e-07 1 9 2 97 -98 
98 -0.4994966332706573 0.02243231517525753 -1e-07 -0.4986017985905901 0.03736514679321234 1e-07 1 9 2 98 -99 
99 -0.4999441509051367 0.007479603507631944 -1e-07 -0.4994964332706573 0.02243251517525752 1e-07 1 9 2 99 -100 
100 -0.4999441509051367 -0.007479803507631823 -1e-07 -0.4999439509051367 0.007479803507631944 1e-07 1 9 2 100 -101 
101 -0.4999441509051367 -0.02243251517525762 -1e-07 -0.4994964332706573 -0.007479603507631822 1e-07 1 9 2 101 -102 
102 -0.4994966332706573 -0.03736514679321221 -1e-07 -0.4986017985905901 -0.02243231517525762 1e-07 1 9 2 102 -103 
103 -0.4986019985905901 -0.05226433163382675 -1e-07 -0.4972608476841366 -0.03736494679321221 1e-07 1 9 2 103 -104 
104 -0.4972610476841366 -0.07045071596879153 -1e-07 -0.4950117288582788 -0.05226413163382675 1e-07 1 0 2 104 -105 
105 -0.4950119288582788 -0.08854247015979159 -1e-07 -0.492097703984621 -0.07045051596879152 1e-07 1 0 2 105 -106 
106 -0.492097903984621 -0.1065152931374882 -1e-07 -0.4885226872176318 -0.08854227015979159 1e-07 1 0 2 106 -107 
107 -0.4885228872176318 -0.1243450435824271 -1e-07 -0.4842914805643156 -0.1065150931374882 1e-07 1 0 2 107 -108 
108 -0.4842916805643157 -0.1420077723519612 -1e-07 -0.4794097674340966 -0.1243448435824271 1e-07 1 0 2 108 -109 
109 -0.4794099674340966 -0.1562859839728221 -1e-07 -0.4749469733364231 -0.1420075723519612 1e-07 1 10 2 109 -110 
110 -0.4749471733364231 -0.1704242985612624 -1e-07 -0.4700590372846096 -0.1562857839728221 1e-07 1 10 2 110 -111 
111 -0.4700592372846096 -0.1844100604109308 -1e-07 -0.4647503346434104 -0.1704240985612624 1e-07 1 10 2 111 -112 
112 -0.4647505346434104 -0.1982307503708388 -1e-07 -0.4590256174206629 -0.1844098604109308 1e-07 1 10 2 112 -113 
113 -0.4590258174206629 -0.2118739970516943 -1e-07 -0.4528900100135971 -0.1982305503708388 1e-07 1 10 2 113 -114 
114 -0.4528902100135971 -0.2253275878999727 -1e-07 -0.4463490046218057 -0.2118737970516943 1e-07 1 10 2 114 -115 
115 -0.4463492046218057 -0.2385794801298042 -1e-07 -0.4394084563309827 -0.2253273878999727 1e-07 1 10 2 115 -116 
116 -0.4394086563309827 -0.2545208078751858 -1e-07 -0.4303709135019717 -0.2385792801298042 1e-07 1 0 2 116 -117 
117 -0.4303711135019717 -0.2701202602388275 -1e-07 -0.4207552909726531 -0.2545206078751858 1e-07 1 0 2 117 -118 
118 -0.4207554909726531 -0.2853568838422157 -1e-07 -0.4105745045668521 -0.2701200602388275 1e-07 1 0 2 118 -119 
119 -0.4105747045668521 -0.3002102126629417 -1e-07 -0.3998422292435455 -0.2853566838422157 1e-07 1 0 2 119 -120 
120 -0.3998424292435455 -0.3146602955249186 -1e-07 -0.3885728807284856 -0.3002100126629417 1e-07 1 0 2 120 -121 
121 -0.3885730807284856 -0.3261438056390604 -1e-07 -0.3789857615727266 -0.3146600955249186 1e-07 1 11 2 121 -122 
122 -0.3789859615727266 -0.3373353729660371 -1e-07 -0.3690593987436704 -0.3261436056390604 1e-07 1 11 2 122 -123 
123 -0.3690595987436704 -0.3482249795373833 -1e-07 -0.358802677680406 -0.3373351729660371 1e-07 1 11 2 123 -124 
124 -0.358802877680406 -0.3588028776804059 -1e-07 -0.3482247795373834 -0.3482247795373833 1e-07 1 11 2 124 -125 
125 -0.3482249795373834 -0.3690595987436703 -1e-07 -0.3373351729660372 -0.3588026776804059 1e-07 1 11 2 125 -126 
126 -0.3373353729660372 -0.3789859615727265 -1e-07 -0.3261436056390605 -0.3690593987436703 1e-07 1 11 2 126 -127 
127 -0.3261438056390605 -0.3885730807284856 -1e-07 -0.3146600955249185 -0.3789857615727265 1e-07 1 11 2 127 -128 
128 -0.3146602955249185 -0.3998424292435452 -1e-07 -0.3002100126629421 -0.3885728807284856 1e-07 1 0 2 128 -129 
129 -0.3002102126629421 -0.4105747045668519 -1e-07 -0.2853566838422161 -0.3998422292435452 1e-07 1 0 2 129 -130 
130 -0.2853568838422161 -0.420755490972653 -1e-07 -0.2701200602388276 -0.4105745045668519 1e-07 1 0 2 130 -131 
131 -0.2701202602388276 -0.4303711135019717 -1e-07 -0.2545206078751859 -0.420755290972653 1e-07 1 0 2 131 -132 
132 -0.2545208078751859 -0.4394086563309826 -1e-07 -0.2385792801298043 -0.4303709135019717 1e-07 1 0 2 132 -133 
133 -0.2385794801298043 -0.4463492046218056 -1e-07 -0.225327387899973 -0.4394084563309826 1e-07 1 12 2 133 -134 
134 -0.225327587899973 -0.4528902100135971 -1e-07 -0.2118737970516942 -0.4463490046218055 1e-07 1 12 2 134 -135 
135 -0.2118739970516942 -0.4590258174206628 -1e-07 -0.1982305503708389 -0.4528900100135971 1e-07 1 12 2 135 -136 
136 -0.1982307503708389 -0.4647505346434104 -1e-07 -0.184409860410931 -0.4590256174206628 1e-07 1 12 2 136 -137 
137 -0.184410060410931 -0.4700592372846094 -1e-07 -0.1704240985612627 -0.4647503346434104 1e-07 1 12 2 137 -138 
138 -0.1704242985612627 -0.4749471733364231 -1e-07 -0.156285783972822 -0.4700590372846094 1e-07 1 12 2 138 -139 
139 -0.156285983972822 -0.4794099674340965 -1e-07 -0.1420075723519613 -0.4749469733364231 1e-07 1 12 2 139 -140 
140 -0.1420077723519613 -0.4842916805643156 -1e-07 -0.1243448435824272 -0.4794097674340965 1e-07 1 0 2 140 -141 
141 -0.1243450435824272 -0.4885228872176318 -1e-07 -0.1065150931374884 -0.4842914805643156 1e-07 1 0 2 141 -142 
142 -0.1065152931374884 -0.492097903984621 -1e-07 -0.08854227015979153 -0.4885226872176318 1e-07 1 0 2 142 -143 
143 -0.08854247015979154 -0.4950119288582788 -1e-07 -0.07045051596879146 -0.492097703984621 1e-07 1 0 2 143 -144 
144 -0.07045071596879146 -0.4972610476841366 -1e-07 -0.05226413163382711 -0.4950117288582788 1e-07 1 0 2 144 -145 
145 -0.05226433163382712 -0.4986019985905901 -1e-07 -0.03736494679321236 -0.4972608476841366 1e-07 1 13 2 145 -146 
146 -0.03736514679321237 -0.4994966332706573 -1e-07 -0.02243231517525755 -0.4986017985905901 1e-07 1 13 2 146 -147 
147 -0.02243251517525755 -0.4999441509051367 -1e-07 -0.007479603507631753 -0.4994964332706573 1e-07 1 13 2 147 -148 
148 -0.007479803507631753 -0.4999441509051367 -1e-07 0.007479803507631571 -0.4999439509051367 1e-07 1 13 2 148 -149 
149 0.007479603507631569 -0.4999441509051367 -1e-07 0.02243251517525737 -0.4994964332706573 1e-07 1 13 2 149 -150 
150 0.02243231517525737 -0.4994966332706574 -1e-07 0.03736514679321219 -0.4986017985905901 1e-07 1 13 2 150 -151 
151 0.03736494679321218 -0.4986019985905901 -1e-07 0.05226433163382694 -0.4972608476841366 1e-07 1 13 2 151 -152 
152 0.05226413163382693 -0.4972610476841366 -1e-07 0.07045071596879128 -0.4950117288582788 1e-07 1 0 2 152 -153 
153 0.07045051596879127 -0.4950119288582788 -1e-07 0.08854247015979136 -0.492097703984621 1e-07 1 0 2 153 -154 
154 0.08854227015979135 -0.492097903984621 -1e-07 0.1065152931374882 -0.4885226872176318 1e-07 1 0 2 154 -155 
155 0.1065150931374882 -0.4885228872176318 -1e-07 0.124345043582427 -0.4842914805643156 1e-07 1 0 2 155 -156 
156 0.124344843582427 -0.4842916805643157 -1e-07 0.1420077723519612 -0.4794097674340966 1e-07 1 0 2 156 -157 
157 0.1420075723519612 -0.4794099674340966 -1e-07 0.1562859839728218 -0.4749469733364231 1e-07 1 14 2 157 -158 
158 0.1562857839728218 -0.4749471733364231 -1e-07 0.1704242985612626 -0.4700590372846095 1e-07 1 14 2 158 -159 
159 0.1704240985612626 -0.4700592372846095 -1e-07 0.1844100604109308 -0.4647503346434104 1e-07 1 14 2 159 -160 
160 0.1844098604109308 -0.4647505346434104 -1e-07 0.1982307503708388 -0.4590256174206629 1e-07 1 14 2 160 -161 
161 0.1982305503708388 -0.4590258174206629 -1e-07 0.2118739970516941 -0.4528900100135972 1e-07 1 14 2 161 -162 
162 0.2118737970516941 -0.4528902100135972 -1e-07 0.2253275878999728 -0.4463490046218057 1e-07 1 14 2 162 -163 
163 0.2253273878999728 -0.4463492046218057 -1e-07 0.2385794801298042 -0.4394084563309827 1e-07 1 14 2 163 -164 
164 0.2385792801298042 -0.4394086563309827 -1e-07 0.2545208078751858 -0.4303709135019717 1e-07 1 0 2 164 -165 
165 0.2545206078751858 -0.4303711135019717 -1e-07 0.2701202602388275 -0.4207552909726531 1e-07 1 0 2 165 -166 
166 0.2701200602388275 -0.4207554909726531 -1e-07 0.2853568838422159 -0.410574504566852 1e-07 1 0 2 166 -167 
167 0.2853566838422159 -0.410574704566852 -1e-07 0.3002102126629419 -0.3998422292435453 1e-07 1 0 2 167 -168 
168 0.3002100126629419 -0.3998424292435453 -1e-07 0.3146602955249184 -0.3885728807284857 1e-07 1 0 2 168 -169 
169 0.3146600955249184 -0.3885730807284857 -1e-07 0.3261438056390604 -0.3789857615727267 1e-07 1 15 2 169 -170 
170 0.3261436056390604 -0.3789859615727267 -1e-07 0.3373353729660371 -0.3690593987436704 1e-07 1 15 2 170 -171 
171 0.3373351729660371 -0.3690595987436704 -1e-07 0.3482249795373835 -0.3588026776804059 1e-07 1 15 2 171 -172 
172 0.3482247795373835 -0.3588028776804059 -1e-07 0.3588028776804058 -0.3482247795373836 1e-07 1 15 2 172 -173 
173 0.3588026776804057 -0.3482249795373836 -1e-07 0.3690595987436702 -0.3373351729660373 1e-07 1 15 2 173 -174 
174 0.3690593987436702 -0.3373353729660373 -1e-07 0.3789859615727265 -0.3261436056390605 1e-07 1 15 2 174 -175 
175 0.3789857615727265 -0.3261438056390605 -1e-07 0.3885730807284856 -0.3146600955249186 1e-07 1 15 2 175 -176 
176 0.3885728807284856 -0.3146602955249186 -1e-07 0.3998424292435452 -0.3002100126629421 1e-07 1 0 2 176 -177 
177 0.3998422292435452 -0.3002102126629421 -1e-07 0.4105747045668519 -0.2853566838422161 1e-07 1 0 2 177 -178 
178 0.4105745045668519 -0.2853568838422161 -1e-07 0.420755490972653 -0.2701200602388276 1e-07 1 0 2 178 -179 
179 0.420755290972653 -0.2701202602388276 -1e-07 0.4303711135019716 -0.254520607875186 1e-07 1 0 2 179 -180 
180 0.4303709135019716 -0.254520807875186 -1e-07 0.4394086563309826 -0.2385792801298044 1e-07 1 0 2 180 -181 
181 0.4394084563309826 -0.2385794801298044 -1e-07 0.4463492046218056 -0.225327387899973 1e-07 1 16 2 181 -182 
182 0.4463490046218055 -0.225327587899973 -1e-07 0.4528902100135971 -0.2118737970516943 1e-07 1 16 2 182 -183 
183 0.4528900100135971 -0.2118739970516943 -1e-07 0.4590258174206628 -0.1982305503708389 1e-07 1 16 2 183 -184 
184 0.4590256174206628 -0.198230750370839 -1e-07 0.4647505346434104 -0.184409860410931 1e-07 1 16 2 184 -185 
185 0.4647503346434104 -0.184410060410931 -1e-07 0.4700592372846094 -0.1704240985612628 1e-07 1 16 2 185 -186 
186 0.4700590372846094 -0.1704242985612628 -1e-07 0.4749471733364231 -0.156285783972822 1e-07 1 16 2 186 -187 
187 0.4749469733364231 -0.156285983972822 -1e-07 0.4794099674340965 -0.1420075723519613 1e-07 1 16 2 187 -188 
188 0.4794097674340965 -0.1420077723519614 -1e-07 0.4842916805643156 -0.1243448435824272 1e-07 1 0 2 188 -189 
189 0.4842914805643156 -0.1243450435824272 -1e-07 0.4885228872176318 -0.1065150931374884 1e-07 1 0 2 189 -190 
190 0.4885226872176318 -0.1065152931374884 -1e-07 0.492097903984621 -0.08854227015979156 1e-07 1 0 2 190 -191 
191 0.492097703984621 -0.08854247015979157 -1e-07 0.4950119288582788 -0.0704505159687915 1e-07 1 0 2 191 -192 
192 0.4950117288582788 -0.0704507159687915 -1e-07 0.4972610476841366 -0.05226413163382673 1e-07 1 0 2 192 -1 
1 -0.4999441509051367 -0.4999441509051367 -1e-07 0.4999441509051367 0.4999441509051367 1e-07 1 1 192 1 2 3 4 5 6 7 8 9 10 11 12 13 14 15 16 17 18 19 20 21 22 23 24 25 26 27 28 29 30 31 32 33 34 35 36 37 38 39 40 41 42 43 44 45 46 47 48 49 50 51 52 53 54 55 56 57 58 59 60 61 62 63 64 65 66 67 68 69 70 71 72 73 74 75 76 77 78 79 80 81 82 83 84 85 86 87 88 89 90 91 92 93 94 95 96 97 98 99 100 101 102 103 104 105 106 107 108 109 110 111 112 113 114 115 116 117 118 119 120 121 122 123 124 125 126 127 128 129 130 131 132 133 134 135 136 137 138 139 140 141 142 143 144 145 146 147 148 149 150 151 152 153 154 155 156 157 158 159 160 161 162 163 164 165 166 167 168 169 170 171 172 173 174 175 176 177 178 179 180 181 182 183 184 185 186 187 188 189 190 191 192 
$EndEntities
$Nodes
385 381 1 381
0 1 0 1
1
0.4972609476841366 -0.05226423163382673 0
0 2 0 1
2
0.4986018985905901 -0.03736504679321212 0
0 3 0 1
3
0.4994965332706574 -0.02243241517525747 0
0 4 0 1
4
0.4999440509051367 -0.007479703507631816 0
0 5 0 1
5
0.4999440509051367 0.007479703507631805 0
0 6 0 1
6
0.4994965332706574 0.02243241517525746 0
0 7 0 1
7
0.4986018985905901 0.03736504679321211 0
0 8 0 1
8
0.4972609476841366 0.05226423163382673 0
0 9 0 1
9
0.4950118288582788 0.07045061596879133 0
0 10 0 1
10
0.4920978039846209 0.08854237015979165 0
0 11 0 1
11
0.4885227872176318 0.1065151931374883 0
0 12 0 1
12
0.4842915805643155 0.1243449435824274 0
0 13 0 1
13
0.4794098674340965 0.1420076723519613 0
0 14 0 1
14
0.474947073336423 0.1562858839728222 0
0 15 0 1
15
0.4700591372846095 0.1704241985612625 0
0 16 0 1
16
0.4647504346434104 0.184409960410931 0
0 17 0 1
17
0.4590257174206629 0.1982306503708388 0
0 18 0 1
18
0.452890110013597 0.2118738970516943 0
0 19 0 1
19
0.4463491046218058 0.2253274878999726 0
0 20 0 1
20
0.4394085563309827 0.2385793801298042 0
0 21 0 1
21
0.4303710135019718 0.2545207078751857 0
0 22 0 1
22
0.4207553909726531 0.2701201602388275 0
0 23 0 1
23
0.410574604566852 0.2853567838422158 0
0 24 0 1
24
0.3998423292435453 0.300210112662942 0
0 25 0 1
25
0.3885729807284854 0.3146601955249188 0
0 26 0 1
26
0.3789858615727265 0.3261437056390606 0
0 27 0 1
27
0.3690594987436703 0.3373352729660372 0
0 28 0 1
28
0.358802777680406 0.3482248795373834 0
0 29 0 1
29
0.3482248795373835 0.3588027776804059 0
0 30 0 1
30
0.3373352729660372 0.3690594987436703 0
0 31 0 1
31
0.3261437056390606 0.3789858615727265 0
0 32 0 1
32
0.3146601955249188 0.3885729807284854 0
0 33 0 1
33
0.3002101126629421 0.3998423292435452 0
0 34 0 1
34
0.2853567838422159 0.410574604566852 0
0 35 0 1
35
0.2701201602388276 0.4207553909726531 0
0 36 0 1
36
0.2545207078751856 0.4303710135019718 0
0 37 0 1
37
0.2385793801298042 0.4394085563309827 0
0 38 0 1
38
0.2253274878999726 0.4463491046218058 0
0 39 0 1
39
0.2118738970516944 0.452890110013597 0
0 40 0 1
40
0.1982306503708388 0.4590257174206629 0
0 41 0 1
41
0.184409960410931 0.4647504346434104 0
0 42 0 1
42
0.1704241985612625 0.4700591372846095 0
0 43 0 1
43
0.1562858839728223 0.4749470733364229 0
0 44 0 1
44
0.1420076723519614 0.4794098674340965 0
0 45 0 1
45
0.1243449435824275 0.4842915805643155 0
0 46 0 1
46
0.1065151931374883 0.4885227872176318 0
0 47 0 1
47
0.08854237015979169 0.4920978039846209 0
0 48 0 1
48
0.07045061596879129 0.4950118288582788 0
0 49 0 1
49
0.05226423163382673 0.4972609476841366 0
0 50 0 1
50
0.03736504679321209 0.4986018985905901 0
0 51 0 1
51
0.02243241517525749 0.4994965332706573 0
0 52 0 1
52
0.007479703507631803 0.4999440509051367 0
0 53 0 1
53
-0.007479703507631741 0.4999440509051367 0
0 54 0 1
54
-0.02243241517525732 0.4994965332706574 0
0 55 0 1
55
-0.03736504679321213 0.4986018985905901 0
0 56 0 1
56
-0.05226423163382667 0.4972609476841367 0
0 57 0 1
57
-0.07045061596879135 0.4950118288582788 0
0 58 0 1
58
-0.08854237015979163 0.4920978039846209 0
0 59 0 1
59
-0.1065151931374882 0.4885227872176318 0
0 60 0 1
60
-0.1243449435824273 0.4842915805643156 0
0 61 0 1
61
-0.1420076723519613 0.4794098674340965 0
0 62 0 1
62
-0.1562858839728222 0.474947073336423 0
0 63 0 1
63
-0.1704241985612625 0.4700591372846095 0
0 64 0 1
64
-0.184409960410931 0.4647504346434104 0
0 65 0 1
65
-0.1982306503708387 0.4590257174206629 0
0 66 0 1
66
-0.2118738970516943 0.452890110013597 0
0 67 0 1
67
-0.2253274878999727 0.4463491046218057 0
0 68 0 1
68
-0.2385793801298042 0.4394085563309827 0
0 69 0 1
69
-0.2545207078751857 0.4303710135019718 0
0 70 0 1
70
-0.2701201602388275 0.4207553909726531 0
0 71 0 1
71
-0.2853567838422158 0.4105746045668521 0
0 72 0 1
72
-0.300210112662942 0.3998423292435453 0
0 73 0 1
73
-0.3146601955249186 0.3885729807284855 0
0 74 0 1
74
-0.3261437056390604 0.3789858615727266 0
0 75 0 1
75
-0.3373352729660372 0.3690594987436703 0
0 76 0 1
76
-0.3482248795373833 0.358802777680406 0
0 77 0 1
77
-0.358802777680406 0.3482248795373834 0
0 78 0 1
78
-0.3690594987436703 0.3373352729660372 0
0 79 0 1
79
-0.3789858615727266 0.3261437056390605 0
0 80 0 1
80
-0.3885729807284855 0.3146601955249187 0
0 81 0 1
81
-0.3998423292435453 0.300210112662942 0
0 82 0 1
82
-0.410574604566852 0.2853567838422159 0
0 83 0 1
83
-0.420755390972653 0.2701201602388276 0
0 84 0 1
84
-0.4303710135019718 0.2545207078751857 0
0 85 0 1
85
-0.4394085563309826 0.2385793801298043 0
0 86 0 1
86
-0.4463491046218057 0.2253274878999728 0
0 87 0 1
87
-0.452890110013597 0.2118738970516944 0
0 88 0 1
88
-0.4590257174206628 0.1982306503708389 0
0 89 0 1
89
-0.4647504346434104 0.1844099604109309 0
0 90 0 1
90
-0.4700591372846095 0.1704241985612625 0
0 91 0 1
91
-0.474947073336423 0.1562858839728222 0
0 92 0 1
92
-0.4794098674340965 0.1420076723519613 0
0 93 0 1
93
-0.4842915805643155 0.1243449435824274 0
0 94 0 1
94
-0.4885227872176318 0.1065151931374883 0
0 95 0 1
95
-0.4920978039846209 0.08854237015979172 0
0 96 0 1
96
-0.4950118288582788 0.07045061596879143 0
0 97 0 1
97
-0.4972609476841366 0.05226423163382687 0
0 98 0 1
98
-0.4986018985905901 0.03736504679321234 0
0 99 0 1
99
-0.4994965332706573 0.02243241517525752 0
0 100 0 1
100
-0.4999440509051367 0.007479703507631944 0
0 101 0 1
101
-0.4999440509051367 -0.007479703507631822 0
0 102 0 1
102
-0.4994965332706573 -0.02243241517525762 0
0 103 0 1
103
-0.4986018985905901 -0.03736504679321221 0
0 104 0 1
104
-0.4972609476841366 -0.05226423163382675 0
0 105 0 1
105
-0.4950118288582788 -0.07045061596879153 0
0 106 0 1
106
-0.492097803984621 -0.08854237015979159 0
0 107 0 1
107
-0.4885227872176318 -0.1065151931374882 0
0 108 0 1
108
-0.4842915805643156 -0.1243449435824271 0
0 109 0 1
109
-0.4794098674340966 -0.1420076723519612 0
0 110 0 1
110
-0.4749470733364231 -0.1562858839728221 0
0 111 0 1
111
-0.4700591372846096 -0.1704241985612624 0
0 112 0 1
112
-0.4647504346434104 -0.1844099604109308 0
0 113 0 1
113
-0.4590257174206629 -0.1982306503708388 0
0 114 0 1
114
-0.4528901100135971 -0.2118738970516943 0
0 115 0 1
115
-0.4463491046218057 -0.2253274878999727 0
0 116 0 1
116
-0.4394085563309827 -0.2385793801298042 0
0 117 0 1
117
-0.4303710135019717 -0.2545207078751858 0
0 118 0 1
118
-0.4207553909726531 -0.2701201602388275 0
0 119 0 1
119
-0.4105746045668521 -0.2853567838422157 0
0 120 0 1
120
-0.3998423292435455 -0.3002101126629417 0
0 121 0 1
121
-0.3885729807284856 -0.3146601955249186 0
0 122 0 1
122
-0.3789858615727266 -0.3261437056390604 0
0 123 0 1
123
-0.3690594987436704 -0.3373352729660371 0
0 124 0 1
124
-0.358802777680406 -0.3482248795373833 0
0 125 0 1
125
-0.3482248795373834 -0.3588027776804059 0
0 126 0 1
126
-0.3373352729660372 -0.3690594987436703 0
0 127 0 1
127
-0.3261437056390605 -0.3789858615727265 0
0 128 0 1
128
-0.3146601955249185 -0.3885729807284856 0
0 129 0 1
129
-0.3002101126629421 -0.3998423292435452 0
0 130 0 1
130
-0.2853567838422161 -0.4105746045668519 0
0 131 0 1
131
-0.2701201602388276 -0.420755390972653 0
0 132 0 1
132
-0.2545207078751859 -0.4303710135019717 0
0 133 0 1
133
-0.2385793801298043 -0.4394085563309826 0
0 134 0 1
134
-0.225327487899973 -0.4463491046218055 0
0 135 0 1
135
-0.2118738970516942 -0.4528901100135971 0
0 136 0 1
136
-0.1982306503708389 -0.4590257174206628 0
0 137 0 1
137
-0.184409960410931 -0.4647504346434104 0
0 138 0 1
138
-0.1704241985612627 -0.4700591372846094 0
0 139 0 1
139
-0.156285883972822 -0.4749470733364231 0
0 140 0 1
140
-0.1420076723519613 -0.4794098674340965 0
0 141 0 1
141
-0.1243449435824272 -0.4842915805643156 0
0 142 0 1
142
-0.1065151931374884 -0.4885227872176318 0
0 143 0 1
143
-0.08854237015979154 -0.492097803984621 0
0 144 0 1
144
-0.07045061596879146 -0.4950118288582788 0
0 145 0 1
145
-0.05226423163382712 -0.4972609476841366 0
0 146 0 1
146
-0.03736504679321236 -0.4986018985905901 0
0 147 0 1
147
-0.02243241517525755 -0.4994965332706573 0
0 148 0 1
148
-0.007479703507631752 -0.4999440509051367 0
0 149 0 1
149
0.007479703507631569 -0.4999440509051367 0
0 150 0 1
150
0.02243241517525737 -0.4994965332706574 0
0 151 0 1
151
0.03736504679321218 -0.4986018985905901 0
0 152 0 1
152
0.05226423163382694 -0.4972609476841366 0
0 153 0 1
153
0.07045061596879128 -0.4950118288582788 0
0 154 0 1
154
0.08854237015979136 -0.492097803984621 0
0 155 0 1
155
0.1065151931374882 -0.4885227872176318 0
0 156 0 1
156
0.124344943582427 -0.4842915805643156 0
0 157 0 1
157
0.1420076723519612 -0.4794098674340966 0
0 158 0 1
158
0.1562858839728218 -0.4749470733364231 0
0 159 0 1
159
0.1704241985612626 -0.4700591372846095 0
0 160 0 1
160
0.1844099604109308 -0.4647504346434104 0
0 161 0 1
161
0.1982306503708388 -0.4590257174206629 0
0 162 0 1
162
0.2118738970516941 -0.4528901100135972 0
0 163 0 1
163
0.2253274878999728 -0.4463491046218057 0
0 164 0 1
164
0.2385793801298042 -0.4394085563309827 0
0 165 0 1
165
0.2545207078751858 -0.4303710135019717 0
0 166 0 1
166
0.2701201602388275 -0.4207553909726531 0
0 167 0 1
167
0.2853567838422159 -0.410574604566852 0
0 168 0 1
168
0.3002101126629419 -0.3998423292435453 0
0 169 0 1
169
0.3146601955249184 -0.3885729807284857 0
0 170 0 1
170
0.3261437056390604 -0.3789858615727267 0
0 171 0 1
171
0.3373352729660371 -0.3690594987436704 0
0 172 0 1
172
0.3482248795373835 -0.3588027776804059 0
0 173 0 1
173
0.3588027776804057 -0.3482248795373836 0
0 174 0 1
174
0.3690594987436702 -0.3373352729660373 0
0 175 0 1
175
0.3789858615727265 -0.3261437056390605 0
0 176 0 1
176
0.3885729807284856 -0.3146601955249186 0
0 177 0 1
177
0.3998423292435452 -0.3002101126629421 0
0 178 0 1
178
0.4105746045668519 -0.2853567838422161 0
0 179 0 1
179
0.420755390972653 -0.2701201602388276 0
0 180 0 1
180
0.4303710135019716 -0.254520707875186 0
0 181 0 1
181
0.4394085563309826 -0.2385793801298044 0
0 182 0 1
182
0.4463491046218055 -0.225327487899973 0
0 183 0 1
183
0.4528901100135971 -0.2118738970516943 0
0 184 0 1
184
0.4590257174206628 -0.198230650370839 0
0 185 0 1
185
0.4647504346434104 -0.184409960410931 0
0 186 0 1
186
0.4700591372846094 -0.1704241985612628 0
0 187 0 1
187
0.4749470733364231 -0.156285883972822 0
0 188 0 1
188
0.4794098674340965 -0.1420076723519614 0
0 189 0 1
189
0.4842915805643156 -0.1243449435824272 0
0 190 0 1
190
0.4885227872176318 -0.1065151931374884 0
0 191 0 1
191
0.492097803984621 -0.08854237015979156 0
0 192 0 1
192
0.4950118288582788 -0.0704506159687915 0
1 1 0 0
1 2 0 0
1 3 0 0
1 4 0 0
1 5 0 0
1 6 0 0
1 7 0 0
1 8 0 0
1 9 0 0
1 10 0 0
1 11 0 0
1 12 0 0
1 13 0 0
1 14 0 0
1 15 0 0
1 16 0 0
1 17 0 0
1 18 0 0
1 19 0 0
1 20 0 0
1 21 0 0
1 22 0 0
1 23 0 0
1 24 0 0
1 25 0 0
1 26 0 0
1 27 0 0
1 28 0 0
1 29 0 0
1 30 0 0
1 31 0 0
1 32 0 0
1 33 0 0
1 34 0 0
1 35 0 0
1 36 0 0
1 37 0 0
1 38 0 0
1 39 0 0
1 40 0 0
1 41 0 0
1 42 0 0
1 43 0 0
1 44 0 0
1 45 0 0
1 46 0 0
1 47 0 0
1 48 0 0
1 49 0 0
1 50 0 0
1 51 0 0
1 52 0 0
1 53 0 0
1 54 0 0
1 55 0 0
1 56 0 0
1 57 0 0
1 58 0 0
1 59 0 0
1 60 0 0
1 61 0 0
1 62 0 0
1 63 0 0
1 64 0 0
1 65 0 0
1 66 0 0
1 67 0 0
1 68 0 0
1 69 0 0
1 70 0 0
1 71 0 0
1 72 0 0
1 73 0 0
1 74 0 0
1 75 0 0
1 76 0 0
1 77 0 0
1 78 0 0
1 79 0 0
1 80 0 0
1 81 0 0
1 82 0 0
1 83 0 0
1 84 0 0
1 85 0 0
1 86 0 0
1 87 0 0
1 88 0 0
1 89 0 0
1 90 0 0
1 91 0 0
1 92 0 0
1 93 0 0
1 94 0 0
1 95 0 0
1 96 0 0
1 97 0 0
1 98 0 0
1 99 0 0
1 100 0 0
1 101 0 0
1 102 0 0
1 103 0 0
1 104 0 0
1 105 0 0
1 106 0 0
1 107 0 0
1 108 0 0
1 109 0 0
1 110 0 0
1 111 0 0
1 112 0 0
1 113 0 0
1 114 0 0
1 115 0 0
1 116 0 0
1 117 0 0
1 118 0 0
1 119 0 0
1 120 0 0
1 121 0 0
1 122 0 0
1 123 0 0
1 124 0 0
1 125 0 0
1 126 0 0
1 127 0 0
1 128 0 0
1 129 0 0
1 130 0 0
1 131 0 0
1 132 0 0
1 133 0 0
1 134 0 0
1 135 0 0
1 136 0 0
1 137 0 0
1 138 0 0
1 139 0 0
1 140 0 0
1 141 0 0
1 142 0 0
1 143 0 0
1 144 0 0
1 145 0 0
1 146 0 0
1 147 0 0
1 148 0 0
1 149 0 0
1 150 0 0
1 151 0 0
1 152 0 0
1 153 0 0
1 154 0 0
1 155 0 0
1 156 0 0
1 157 0 0
1 158 0 0
1 159 0 0
1 160 0 0
1 161 0 0
1 162 0 0
1 163 0 0
1 164 0 0
1 165 0 0
1 166 0 0
1 167 0 0
1 168 0 0
1 169 0 0
1 170 0 0
1 171 0 0
1 172 0 0
1 173 0 0
1 174 0 0
1 175 0 0
1 176 0 0
1 177 0 0
1 178 0 0
1 179 0 0
1 180 0 0
1 181 0 0
1 182 0 0
1 183 0 0
1 184 0 0
1 185 0 0
1 186 0 0
1 187 0 0
1 188 0 0
1 189 0 0
1 190 0 0
1 191 0 0
1 192 0 0
2 1 0 189
193
194
195
196
197
198
199
200
201
202
203
204
205
206
207
208
209
210
211
212
213
214
215
216
217
218
219
220
221
222
223
224
225
226
227
228
229
230
231
232
233
234
235
236
237
238
239
240
241
242
243
244
245
246
247
248
249
250
251
252
253
254
255
256
257
258
259
260
261
262
263
264
265
266
267
268
269
270
271
272
273
274
275
276
277
278
279
280
281
282
283
284
285
286
287
288
289
290
291
292
293
294
295
296
297
298
299
300
301
302
303
304
305
306
307
308
309
310
311
312
313
314
315
316
317
318
319
320
321
322
323
324
325
326
327
328
329
330
331
332
333
334
335
336
337
338
339
340
341
342
343
344
345
346
347
348
349
350
351
352
353
354
355
356
357
358
359
360
361
362
363
364
365
366
367
368
369
370
371
372
373
374
375
376
377
378
379
380
381
-0.2117677185760398 -0.4358093544408446 0
0.2118347847909009 0.4374268461037347 0
0.4369003778025647 -0.2130186290903741 0
-0.4358823620600494 0.2112240830206507 0
0.1595176763361561 -0.4590973019698343 0
-0.4590973019698342 -0.1595176763361561 0
-0.1595176763361562 0.4590973019698341 0
0.4575733554660831 0.1588573925584585 0
-0.3631058288178598 -0.3230640475481028 0
-0.3221246166602277 0.3639980876392999 0
0.3230640475481028 -0.3631058288178597 0
0.02831381506663348 0.4851953726243071 0
0.3631058288178597 0.3230640475481029 0
-0.4851953726243071 0.02831381506663361 0
-0.02831381506663362 -0.485195372624307 0
0.4833797376673635 -0.02786171158887465 0
0.4666707313370252 -0.1301034305211901 0
-0.4785290901083521 -0.05799608683801157 0
0.2367065522845936 -0.4199090904874417 0
-0.1291271541153501 -0.4651969864952269 0
-0.3813591097500291 0.2987870538204112 0
-0.2973617383252023 -0.379380590896086 0
-0.4199090904874417 -0.2367065522845936 0
0.2973617383252024 0.3793805908960859 0
-0.4679590044359194 0.129336845182124 0
-0.2367065522845936 0.4199090904874416 0
0.4223519456394987 0.2394420250683897 0
0.480935964458673 0.05838726068434769 0
0.0579960868380115 -0.478529090108352 0
0.1295437570938215 0.4642973736372696 0
0.379380590896086 -0.2973617383252023 0
-0.05799608683801143 0.4785290901083521 0
0.4103384319517178 -0.2527224615070499 0
0.3432825758207571 -0.2422746965062301 0
0.1117657359095241 -0.4709661670625198 0
0.07365870954812415 -0.4130345468782176 0
-0.2539930606734149 -0.4120536802052735 0
-0.2452407695273679 -0.3435052011575255 0
-0.3923451068156865 -0.2834890251821863 0
-0.3577081326868295 -0.2292945998509653 0
-0.2823905796776953 0.3905148291628269 0
-0.2268892071126503 0.3565939934899175 0
0.2539930606734147 0.4120536802052733 0
0.2426231514573351 0.3460809079885879 0
-0.4709661670625198 -0.1117657359095241 0
-0.4133685547442753 -0.07400890550695566 0
0.4778868976930202 -0.07697287349644426 0
0.4185519531798979 -0.04487531303463467 0
-0.4120536802052734 0.2539930606734147 0
-0.367930335699539 0.2038986392077815 0
-0.1117657359095242 0.4709661670625196 0
-0.07447077466614214 0.4133240337439515 0
0.4709661670625195 0.1117657359095242 0
0.4057493136577594 0.1219088217489481 0
0.07697287349644419 0.47788689769302 0
0.08975634488050541 0.4102429508100522 0
0.3923451068156862 0.2834890251821864 0
-0.47788689769302 0.07697287349644424 0
-0.07697287349644422 -0.4778868976930202 0
-0.08607040835166245 -0.4121743967692399 0
0.2834890251821866 -0.3923451068156863 0
0.2280760565734094 -0.3548104897595917 0
0.455292760910918 -0.172819608137681 0
-0.3545004622840343 0.3338974952513926 0
-0.172819608137681 -0.455292760910918 0
0.3545004622840343 -0.3338974952513926 0
0.1997386818290996 -0.4441425155014115 0
0.0145684977013438 -0.4867708639282693 0
-0.1997386818290996 0.4441425155014113 0
-0.3338974952513925 -0.3545004622840344 0
0.3338974952513925 0.3545004622840341 0
-0.01456849770134385 0.4867708639282693 0
0.1728196081376808 0.4552927609109177 0
-0.4867708639282692 -0.01456849770134399 0
-0.4441425155014114 -0.1997386818290996 0
0.4867708639282692 0.01456849770134395 0
-0.4552927609109178 0.1728196081376807 0
0.4441425155014113 0.1997386818290997 0
0.3539643147602236 0.2298807499556812 0
-0.4125849278545063 0.09171513399971822 0
-0.3296598546473423 0.2711297378418174 0
-0.2935195463292601 0.2030548869999572 0
0.4091076305699957 -0.1234406637183104 0
0.3439557184420718 -0.07943521822702777 0
0.3575378766347685 -0.00499522409164728 0
0.2855364434892234 -0.03383162241867804 0
0.2735165885059137 -0.1084948470554004 0
0.2092744705309746 -0.05961800409679825 0
0.2310485611157132 0.03126425638901786 0
0.1411567701597823 -0.005934680380134821 0
0.1266905146616163 -0.1092340715088992 0
0.05608991637517343 -0.04319229693384924 0
0.06710584776058653 0.04978014006091873 0
-0.01951339669345164 0.01416218620196352 0
-0.03205832988479152 -0.07906222516241579 0
-0.1064451762990922 -0.02378360003626856 0
-0.005887016790734043 0.1085857880413705 0
-0.1203677031406369 -0.1121309185012916 0
-0.05904711006574901 -0.1578865075374826 0
0.07886746781117558 0.1420660118257473 0
0.008502692791686348 0.1986484124991548 0
-0.1897218291412312 -0.0621227944096681 0
-0.07859129434783112 0.156340034110311 0
-0.1830330010924341 0.02720665061075934 0
0.0871575225606873 0.2266198217959705 0
0.1593667685245999 0.1764675535659559 0
-0.2026869081147563 -0.1467883745157437 0
-0.2548129872141903 -0.01189809687277907 0
0.02134253660886884 0.2815760037315583 0
-0.2571171526628352 0.07456342691484084 0
0.157042895488503 0.2646595615002538 0
0.2308905459677224 0.2083144585740501 0
-0.2409417712102268 0.2714802342354838 0
-0.2146320143202623 0.1945562834235056 0
-0.1759388997933145 0.2523362910348882 0
-0.3394261555777027 0.1187279008023543 0
0.2287769075537829 0.1242291145916775 0
-0.3173297539469291 0.02445268613281876 0
-0.3152673527397843 -0.3027078240777665 0
-0.2363502208984798 -0.2748531891048658 0
-0.1733541759348035 -0.3237385865759794 0
-0.1624118612145412 -0.2459122385987045 0
-0.1123912954558871 -0.2875140064316707 0
0.3149282601672369 0.3038920559076511 0
-0.1592124014842657 0.4043808153627905 0
-0.09923191596197894 0.3431278884815985 0
-0.4375832530008061 0.008499409595669236 0
0.1592592495271084 -0.4041216915382832 0
0.09923191596197914 -0.3431278884815986 0
0.02454910689218986 -0.3561174065197609 0
0.05003203942723995 -0.2841819703221014 0
0.1404284282733416 -0.2668333880603589 0
0.07862459500963931 -0.2041724069609858 0
-0.4057148666300798 -0.1601110011966997 0
-0.3476689409058119 -0.09745031631591039 0
0.007207670132310914 0.4338140293501372 0
0.1742535977101633 0.3990416853869539 0
0.1205355850276238 0.3417020027420614 0
0.3015478119863575 -0.3132161330343702 0
0.2730534974559502 -0.2350666147971761 0
0.1532277908499967 -0.1889160078257285 0
-0.09505261867703339 0.06599401424620407 0
-0.05798705782493227 0.2555633703433663 0
0.3057958600130606 0.1687082326756916 0
0.2975794654660959 0.08991423921746249 0
0.15195210646221 0.08287993171053337 0
-0.1769430322494637 0.1172124678412379 0
0.04817418020972843 0.3528756415814724 0
0.3253115705981953 -0.16480637456948 0
-0.2739615978330392 -0.1033760838324684 0
-0.2707674792739753 -0.1762103847487227 0
-0.3658210425219897 -0.02505812640531902 0
-0.155285172175125 -0.4041079273122563 0
-0.007783764000094326 -0.4348304922331602 0
0.4261059230577557 0.03211498783626879 0
-0.04035512804377581 -0.2995500338859557 0
0.03698053227197129 -0.1307716995352156 0
-0.02582756025035753 0.3467134945386807 0
0.2192634942391227 -0.2877794824968166 0
-0.1691561983799678 0.3185327703866893 0
0.1663868833979428 -0.328783349716067 0
0.2039712055428772 -0.1447908974940806 0
0.3597712210049445 0.06527723242337988 0
-0.04168541606568361 -0.3689353633441151 0
0.2397074930833135 0.279896547866967 0
-0.005154949321567679 -0.2157656066415423 0
-0.2927510819320294 0.3312690629367896 0
0.3967055579423581 -0.1948470722548542 0
0.181253179264491 0.3275008720015629 0
-0.1361358822088624 0.2098809744114611 0
-0.2604818988403942 0.1421055951076761 0
-0.1015235993378229 -0.3493367190532028 0
-0.08748879992550944 -0.2309697495160396 0
0.2890572947983114 0.2381384089960082 0
0.3908492702965909 0.1772917313938107 0
-0.4131792577564391 0.1546203683917182 0
0.2072144252652488 -0.2223864790859927 0
-0.3373992821067288 -0.1706239418943241 0
0.2546961081881098 -0.1740059215221835 0
0.3503543292163786 0.1240160984714436 0
-0.2927386234084527 -0.2302665505449059 0
-0.2212062602597963 -0.2093777788183994 0
-0.1276899908338112 0.2758882589316007 0
-0.3091628057196911 -0.04735728746084149 0
-0.1422014404534982 -0.1838442612479435 0
-0.2079281793773502 -0.3838429499383759 0
0.3054520102822504 0.02556183287300247 0
0.08232202604300858 0.2909530032728915 0
-0.3802060925754731 0.04393447340445843 0
$EndNodes
$Elements
193 760 1 760
1 1 1 1
1 1 2 
1 2 1 1
2 2 3 
1 3 1 1
3 3 4 
1 4 1 1
4 4 5 
1 5 1 1
5 5 6 
1 6 1 1
6 6 7 
1 7 1 1
7 7 8 
1 8 1 1
8 8 9 
1 9 1 1
9 9 10 
1 10 1 1
10 10 11 
1 11 1 1
11 11 12 
1 12 1 1
12 12 13 
1 13 1 1
13 13 14 
1 14 1 1
14 14 15 
1 15 1 1
15 15 16 
1 16 1 1
16 16 17 
1 17 1 1
17 17 18 
1 18 1 1
18 18 19 
1 19 1 1
19 19 20 
1 20 1 1
20 20 21 
1 21 1 1
21 21 22 
1 22 1 1
22 22 23 
1 23 1 1
23 23 24 
1 24 1 1
24 24 25 
1 25 1 1
25 25 26 
1 26 1 1
26 26 27 
1 27 1 1
27 27 28 
1 28 1 1
28 28 29 
1 29 1 1
29 29 30 
1 30 1 1
30 30 31 
1 31 1 1
31 31 32 
1 32 1 1
32 32 33 
1 33 1 1
33 33 34 
1 34 1 1
34 34 35 
1 35 1 1
35 35 36 
1 36 1 1
36 36 37 
1 37 1 1
37 37 38 
1 38 1 1
38 38 39 
1 39 1 1
39 39 40 
1 40 1 1
40 40 41 
1 41 1 1
41 41 42 
1 42 1 1
42 42 43 
1 43 1 1
43 43 44 
1 44 1 1
44 44 45 
1 45 1 1
45 45 46 
1 46 1 1
46 46 47 
1 47 1 1
47 47 48 
1 48 1 1
48 48 49 
1 49 1 1
49 49 50 
1 50 1 1
50 50 51 
1 51 1 1
51 51 52 
1 52 1 1
52 52 53 
1 53 1 1
53 53 54 
1 54 1 1
54 54 55 
1 55 1 1
55 55 56 
1 56 1 1
56 56 57 
1 57 1 1
57 57 58 
1 58 1 1
58 58 59 
1 59 1 1
59 59 60 
1 60 1 1
60 60 61 
1 61 1 1
61 61 62 
1 62 1 1
62 62 63 
1 63 1 1
63 63 64 
1 64 1 1
64 64 65 
1 65 1 1
65 65 66 
1 66 1 1
66 66 67 
1 67 1 1
67 67 68 
1 68 1 1
68 68 69 
1 69 1 1
69 69 70 
1 70 1 1
70 70 71 
1 71 1 1
71 71 72 
1 72 1 1
72 72 73 
1 73 1 1
73 73 74 
1 74 1 1
74 74 75 
1 75 1 1
75 75 76 
1 76 1 1
76 76 77 
1 77 1 1
77 77 78 
1 78 1 1
78 78 79 
1 79 1 1
79 79 80 
1 80 1 1
80 80 81 
1 81 1 1
81 81 82 
1 82 1 1
82 82 83 
1 83 1 1
83 83 84 
1 84 1 1
84 84 85 
1 85 1 1
85 85 86 
1 86 1 1
86 86 87 
1 87 1 1
87 87 88 
1 88 1 1
88 88 89 
1 89 1 1
89 89 90 
1 90 1 1
90 90 91 
1 91 1 1
91 91 92 
1 92 1 1
92 92 93 
1 93 1 1
93 93 94 
1 94 1 1
94 94 95 
1 95 1 1
95 95 96 
1 96 1 1
96 96 97 
1 97 1 1
97 97 98 
1 98 1 1
98 98 99 
1 99 1 1
99 99 100 
1 100 1 1
100 100 101 
1 101 1 1
101 101 102 
1 102 1 1
102 102 103 
1 103 1 1
103 103 104 
1 104 1 1
104 104 105 
1 105 1 1
105 105 106 
1 106 1 1
106 106 107 
1 107 1 1
107 107 108 
1 108 1 1
108 108 109 
1 109 1 1
109 109 110 
1 110 1 1
110 110 111 
1 111 1 1
111 111 112 
1 112 1 1
112 112 113 
1 113 1 1
113 113 114 
1 114 1 1
114 114 115 
1 115 1 1
115 115 116 
1 116 1 1
116 116 117 
1 117 1 1
117 117 118 
1 118 1 1
118 118 119 
1 119 1 1
119 119 120 
1 120 1 1
120 120 121 
1 121 1 1
121 121 122 
1 122 1 1
122 122 123 
1 123 1 1
123 123 124 
1 124 1 1
124 124 125 
1 125 1 1
125 125 126 
1 126 1 1
126 126 127 
1 127 1 1
127 127 128 
1 128 1 1
128 128 129 
1 129 1 1
129 129 130 
1 130 1 1
130 130 131 
1 131 1 1
131 131 132 
1 132 1 1
132 132 133 
1 133 1 1
133 133 134 
1 134 1 1
134 134 135 
1 135 1 1
135 135 136 
1 136 1 1
136 136 137 
1 137 1 1
137 137 138 
1 138 1 1
138 138 139 
1 139 1 1
139 139 140 
1 140 1 1
140 140 141 
1 141 1 1
141 141 142 
1 142 1 1
142 142 143 
1 143 1 1
143 143 144 
1 144 1 1
144 144 145 
1 145 1 1
145 145 146 
1 146 1 1
146 146 147 
1 147 1 1
147 147 148 
1 148 1 1
148 148 149 
1 149 1 1
149 149 150 
1 150 1 1
150 150 151 
1 151 1 1
151 151 152 
1 152 1 1
152 152 153 
1 153 1 1
153 153 154 
1 154 1 1
154 154 155 
1 155 1 1
155 155 156 
1 156 1 1
156 156 157 
1 157 1 1
157 157 158 
1 158 1 1
158 158 159 
1 159 1 1
159 159 160 
1 160 1 1
160 160 161 
1 161 1 1
161 161 162 
1 162 1 1
162 162 163 
1 163 1 1
163 163 164 
1 164 1 1
164 164 165 
1 165 1 1
165 165 166 
1 166 1 1
166 166 167 
1 167 1 1
167 167 168 
1 168 1 1
168 168 169 
1 169 1 1
169 169 170 
1 170 1 1
170 170 171 
1 171 1 1
171 171 172 
1 172 1 1
172 172 173 
1 173 1 1
173 173 174 
1 174 1 1
174 174 175 
1 175 1 1
175 175 176 
1 176 1 1
176 176 177 
1 177 1 1
177 177 178 
1 178 1 1
178 178 179 
1 179 1 1
179 179 180 
1 180 1 1
180 180 181 
1 181 1 1
181 181 182 
1 182 1 1
182 182 183 
1 183 1 1
183 183 184 
1 184 1 1
184 184 185 
1 185 1 1
185 185 186 
1 186 1 1
186 186 187 
1 187 1 1
187 187 188 
1 188 1 1
188 188 189 
1 189 1 1
189 189 190 
1 190 1 1
190 190 191 
1 191 1 1
191 191 192 
1 192 1 1
192 192 1 
2 1 2 568
193 325 333 283 
194 276 341 275 
195 272 381 308 
196 305 352 234 
197 335 350 318 
198 283 349 325 
199 242 273 241 
200 246 347 245 
201 240 275 239 
202 301 350 335 
203 308 381 310 
204 335 375 362 
205 245 347 220 
206 239 275 209 
207 241 273 213 
208 348 365 315 
209 308 310 302 
210 281 337 309 
211 358 365 348 
212 324 353 351 
213 335 362 295 
214 295 362 339 
215 351 369 324 
216 307 352 305 
217 279 341 276 
218 242 274 273 
219 240 276 275 
220 295 339 334 
221 362 375 307 
222 349 358 325 
223 309 338 281 
224 291 358 349 
225 251 346 252 
226 253 331 254 
227 237 326 238 
228 247 328 248 
229 250 319 272 
230 231 311 232 
231 227 320 228 
232 243 317 244 
233 249 316 271 
234 235 329 236 
235 327 370 342 
236 342 370 343 
237 234 359 305 
238 341 360 275 
239 288 334 296 
240 230 311 214 
241 236 316 216 
242 248 329 222 
243 238 319 210 
244 254 320 211 
245 234 317 218 
246 226 331 223 
247 232 326 215 
248 244 328 224 
249 228 346 221 
250 207 346 251 
251 203 331 253 
252 198 326 237 
253 204 328 247 
254 206 319 250 
255 197 320 227 
256 201 311 231 
257 199 317 243 
258 194 329 235 
259 205 316 249 
260 330 380 303 
261 214 311 262 
262 210 319 266 
263 222 329 265 
264 216 316 263 
265 218 317 261 
266 215 326 267 
267 211 320 259 
268 224 328 264 
269 223 331 258 
270 221 346 260 
271 246 355 347 
272 268 347 208 
273 326 327 238 
274 317 318 244 
275 320 321 228 
276 318 375 335 
277 308 368 272 
278 334 339 296 
279 208 347 240 
280 292 338 298 
281 303 361 330 
282 286 334 288 
283 298 338 309 
284 252 345 212 
285 328 340 248 
286 212 345 257 
287 344 376 310 
288 348 364 356 
289 294 299 290 
290 302 310 300 
291 292 297 293 
292 297 301 293 
293 298 303 297 
294 291 377 365 
295 296 300 294 
296 288 294 290 
297 292 293 289 
298 310 376 300 
299 288 290 287 
300 336 367 271 
301 302 363 308 
302 319 381 272 
303 298 304 303 
304 285 292 289 
305 293 335 295 
306 296 302 300 
307 290 291 287 
308 300 342 294 
309 292 298 297 
310 315 364 348 
311 230 312 311 
312 248 330 329 
313 226 332 331 
314 290 377 291 
315 293 295 289 
316 288 296 294 
317 322 346 228 
318 301 335 293 
319 285 338 292 
320 309 336 304 
321 274 305 273 
322 242 308 274 
323 240 277 276 
324 286 288 287 
325 340 350 301 
326 291 349 287 
327 331 351 254 
328 303 380 297 
329 281 338 282 
330 281 379 337 
331 289 334 286 
332 309 337 336 
333 333 354 283 
334 306 363 339 
335 298 309 304 
336 285 289 286 
337 346 356 252 
338 296 339 302 
339 321 322 228 
340 282 338 285 
341 244 350 328 
342 286 287 284 
343 238 344 319 
344 295 334 289 
345 311 373 232 
346 342 343 299 
347 369 371 354 
348 329 361 236 
349 339 363 302 
350 316 366 271 
351 230 313 312 
352 226 341 332 
353 294 342 299 
354 324 333 325 
355 336 372 367 
356 166 253 211 
357 58 243 224 
358 142 251 212 
359 154 227 221 
360 190 239 209 
361 22 249 219 
362 34 235 216 
363 10 245 220 
364 118 231 215 
365 106 237 210 
366 46 247 222 
367 82 241 213 
368 70 233 218 
369 130 229 214 
370 94 250 217 
371 178 225 223 
372 333 369 354 
373 306 307 305 
374 313 315 314 
375 282 283 280 
376 278 279 276 
377 321 324 323 
378 282 285 284 
379 240 347 277 
380 285 286 284 
381 278 281 280 
382 274 306 305 
383 277 278 276 
384 327 344 238 
385 324 369 333 
386 248 340 330 
387 321 323 322 
388 313 314 312 
389 282 284 283 
390 278 280 279 
391 324 325 323 
392 281 282 280 
393 291 365 358 
394 284 349 283 
395 234 352 317 
396 254 353 320 
397 328 350 340 
398 236 357 316 
399 271 366 336 
400 287 349 284 
401 283 354 280 
402 300 376 342 
403 230 378 313 
404 318 350 244 
405 275 360 255 
406 273 359 256 
407 304 357 303 
408 323 348 322 
409 278 379 281 
410 313 364 315 
411 256 359 202 
412 255 360 195 
413 317 352 318 
414 320 353 321 
415 257 345 193 
416 242 368 308 
417 336 366 304 
418 339 362 306 
419 313 378 345 
420 332 351 331 
421 321 353 324 
422 351 353 254 
423 305 359 273 
424 232 370 326 
425 326 370 327 
426 312 374 373 
427 330 361 329 
428 325 358 323 
429 312 373 311 
430 345 364 313 
431 297 380 301 
432 196 368 242 
433 200 367 246 
434 280 354 279 
435 226 360 341 
436 340 380 330 
437 236 361 357 
438 225 360 226 
439 233 359 234 
440 345 378 193 
441 344 381 319 
442 322 356 346 
443 357 361 303 
444 337 372 336 
445 195 225 181 
446 193 229 133 
447 197 227 157 
448 208 239 1 
449 201 231 121 
450 202 233 73 
451 194 235 37 
452 198 237 109 
453 204 247 49 
454 199 243 61 
455 200 245 13 
456 196 241 85 
457 205 249 25 
458 206 250 97 
459 207 251 145 
460 203 253 169 
461 348 356 322 
462 301 380 340 
463 299 377 290 
464 272 368 217 
465 271 367 219 
466 308 363 274 
467 306 362 307 
468 347 355 277 
469 314 377 374 
470 232 373 370 
471 37 235 36 
472 133 229 132 
473 181 225 180 
474 49 247 48 
475 73 233 72 
476 121 231 120 
477 157 227 156 
478 1 239 192 
479 13 245 12 
480 97 250 96 
481 109 237 108 
482 61 243 60 
483 85 241 84 
484 25 249 24 
485 145 251 144 
486 169 253 168 
487 274 363 306 
488 270 367 200 
489 269 368 196 
490 310 381 344 
491 343 374 299 
492 252 364 345 
493 253 254 211 
494 247 248 222 
495 251 252 212 
496 249 271 219 
497 243 244 224 
498 235 236 216 
499 250 272 217 
500 231 232 215 
501 233 234 218 
502 225 226 223 
503 237 238 210 
504 227 228 221 
505 229 230 214 
506 315 365 314 
507 373 374 343 
508 337 379 355 
509 323 358 348 
510 342 376 327 
511 374 377 299 
512 314 374 312 
513 357 366 316 
514 370 373 343 
515 279 371 341 
516 195 360 225 
517 202 359 233 
518 307 375 352 
519 166 211 165 
520 142 212 141 
521 190 209 189 
522 58 224 57 
523 106 210 105 
524 46 222 45 
525 118 215 117 
526 70 218 69 
527 10 220 9 
528 34 216 33 
529 94 217 93 
530 22 219 21 
531 82 213 81 
532 130 214 129 
533 154 221 153 
534 178 223 177 
535 167 253 166 
536 23 249 22 
537 131 229 130 
538 155 227 154 
539 179 225 178 
540 143 251 142 
541 83 241 82 
542 107 237 106 
543 191 239 190 
544 59 243 58 
545 47 247 46 
546 11 245 10 
547 35 235 34 
548 95 250 94 
549 71 233 70 
550 119 231 118 
551 341 371 332 
552 355 379 277 
553 208 240 239 
554 196 242 241 
555 200 246 245 
556 356 364 252 
557 355 372 337 
558 304 366 357 
559 367 372 246 
560 217 368 269 
561 219 367 270 
562 277 379 278 
563 213 273 256 
564 209 275 255 
565 220 347 268 
566 352 375 318 
567 327 376 344 
568 104 210 103 
569 116 215 115 
570 20 219 19 
571 140 212 139 
572 188 209 187 
573 164 211 163 
574 32 216 31 
575 80 213 79 
576 92 217 91 
577 8 220 7 
578 68 218 67 
579 44 222 43 
580 56 224 55 
581 128 214 127 
582 176 223 175 
583 152 221 151 
584 209 255 187 
585 212 257 139 
586 223 258 175 
587 211 259 163 
588 213 256 79 
589 215 267 115 
590 221 260 151 
591 214 262 127 
592 210 266 103 
593 224 264 55 
594 216 263 31 
595 217 269 91 
596 220 268 7 
597 218 261 67 
598 222 265 43 
599 219 270 19 
600 354 371 279 
601 259 320 197 
602 262 311 201 
603 266 319 206 
604 261 317 199 
605 267 326 198 
606 264 328 204 
607 260 346 207 
608 258 331 203 
609 265 329 194 
610 263 316 205 
611 332 371 369 
612 332 369 351 
613 160 259 197 
614 184 255 195 
615 136 257 193 
616 112 267 198 
617 100 266 206 
618 88 269 196 
619 16 270 200 
620 124 262 201 
621 64 261 199 
622 76 256 202 
623 172 258 203 
624 148 260 207 
625 52 264 204 
626 4 268 208 
627 40 265 194 
628 28 263 205 
629 246 372 355 
630 229 378 230 
631 365 377 314 
632 187 255 186 
633 139 257 138 
634 134 193 133 
635 148 207 147 
636 184 195 183 
637 160 197 159 
638 136 193 135 
639 31 263 30 
640 172 203 171 
641 79 256 78 
642 158 197 157 
643 161 259 160 
644 182 195 181 
645 100 206 99 
646 17 270 16 
647 173 258 172 
648 103 266 102 
649 170 203 169 
650 122 201 121 
651 86 196 85 
652 125 262 124 
653 76 202 75 
654 74 202 73 
655 151 260 150 
656 113 267 112 
657 65 261 64 
658 101 266 100 
659 62 199 61 
660 146 207 145 
661 52 204 51 
662 163 259 162 
663 16 200 15 
664 55 264 54 
665 64 199 63 
666 110 198 109 
667 43 265 42 
668 98 206 97 
669 89 269 88 
670 88 196 87 
671 26 205 25 
672 115 267 114 
673 175 258 174 
674 67 261 66 
675 91 269 90 
676 112 198 111 
677 50 204 49 
678 14 200 13 
679 137 257 136 
680 185 255 184 
681 7 268 6 
682 2 208 1 
683 28 205 27 
684 40 194 39 
685 124 201 123 
686 4 208 3 
687 38 194 37 
688 149 260 148 
689 41 265 40 
690 77 256 76 
691 5 268 4 
692 127 262 126 
693 29 263 28 
694 53 264 52 
695 19 270 18 
696 193 378 229 
697 48 247 47 
698 72 233 71 
699 24 249 23 
700 12 245 11 
701 96 250 95 
702 36 235 35 
703 84 241 83 
704 60 243 59 
705 108 237 107 
706 156 227 155 
707 168 253 167 
708 120 231 119 
709 144 251 143 
710 192 239 191 
711 132 229 131 
712 180 225 179 
713 117 215 116 
714 105 210 104 
715 165 211 164 
716 141 212 140 
717 189 209 188 
718 33 216 32 
719 57 224 56 
720 45 222 44 
721 9 220 8 
722 69 218 68 
723 21 219 20 
724 93 217 92 
725 81 213 80 
726 153 221 152 
727 177 223 176 
728 129 214 128 
729 159 197 158 
730 171 203 170 
731 135 193 134 
732 183 195 182 
733 147 207 146 
734 30 263 29 
735 75 202 74 
736 87 196 86 
737 111 198 110 
738 150 260 149 
739 63 199 62 
740 102 266 101 
741 99 206 98 
742 42 265 41 
743 15 200 14 
744 174 258 173 
745 123 201 122 
746 6 268 5 
747 18 270 17 
748 66 261 65 
749 3 208 2 
750 27 205 26 
751 126 262 125 
752 39 194 38 
753 54 264 53 
754 114 267 113 
755 51 204 50 
756 90 269 89 
757 78 256 77 
758 186 255 185 
759 162 259 161 
760 138 257 137 
$EndElements
