$MeshFormat
4.1 0 8
$EndMeshFormat
$PhysicalNames
18
1 1 "Electrode1"
1 2 "Electrode2"
1 3 "Electrode3"
1 4 "Electrode4"
1 5 "Electrode5"
1 6 "Electrode6"
1 7 "Electrode7"
1 8 "Electrode8"
1 9 "Electrode9"
1 10 "Electrode10"
1 11 "Electrode11"
1 12 "Electrode12"
1 13 "Electrode13"
1 14 "Electrode14"
1 15 "Electrode15"
1 16 "Electrode16"
1 17 "No-Electrode"
2 1 "domain"
$EndPhysicalNames
$Entities
240 240 1 0
1 0.4972609476841366 -0.05226423163382673 0 0 
2 0.498342444022253 -0.04067933733392914 0 0 
3 0.4991540791356341 -0.02907241445523791 0 0 
4 0.4996954135095479 -0.01744974835125048 0 0 
5 0.4999661540018811 -0.005817632900698505 0 0 
6 0.4999661540018811 0.005817632900698505 0 0 
7 0.4996954135095479 0.01744974835125049 0 0 
8 0.4991540791356341 0.02907241445523792 0 0 
9 0.498342444022253 0.04067933733392914 0 0 
10 0.4972609476841366 0.05226423163382673 0 0 
11 0.4954329486934411 0.0674254651368615 0 0 
12 0.4931428007686157 0.08252380293033883 0 0 
13 0.4903926402016152 0.09754516100806412 0 0 
14 0.4871850323926176 0.1124755271719325 0 0 
15 0.4835229694569715 0.1273009741027638 0 0 
16 0.4794098674340965 0.1420076723519613 0 0 
17 0.4759756926510966 0.153124589812704 0 0 
18 0.4722837686338024 0.1641585876067805 0 0 
19 0.4683360946241988 0.1751036906297337 0 0 
20 0.4641348083574033 0.1859539719151933 0 0 
21 0.4596821849040446 0.1967035558444326 0 0 
22 0.4549806354382716 0.2073466213281195 0 0 
23 0.4500327059320606 0.2178774049585397 0 0 
24 0.4448410757765259 0.2282902041305828 0 0 
25 0.4394085563309827 0.2385793801298042 0 0 
26 0.4319177526021979 0.2518869885227631 0 0 
27 0.424024048078213 0.2649596321166025 0 0 
28 0.4157348061512726 0.2777851165098011 0 0 
29 0.4070577591781596 0.2903514778554699 0 0 
30 0.398001001267311 0.3026469940214472 0 0 
31 0.3885729807284854 0.3146601955249188 0 0 
32 0.381145956804209 0.3236166862382162 0 0 
33 0.373512535620498 0.3323979328069689 0 0 
34 0.3656768508095852 0.3409991800312492 0 0 
35 0.3576431455330257 0.34941577018395 0 0 
36 0.34941577018395 0.3576431455330257 0 0 
37 0.3409991800312492 0.3656768508095852 0 0 
38 0.3323979328069689 0.373512535620498 0 0 
39 0.3236166862382162 0.3811459568042089 0 0 
40 0.3146601955249188 0.3885729807284854 0 0 
41 0.3026469940214472 0.398001001267311 0 0 
42 0.2903514778554699 0.4070577591781596 0 0 
43 0.2777851165098011 0.4157348061512726 0 0 
44 0.2649596321166025 0.424024048078213 0 0 
45 0.2518869885227631 0.4319177526021978 0 0 
46 0.2385793801298042 0.4394085563309827 0 0 
47 0.2282902041305828 0.4448410757765259 0 0 
48 0.2178774049585397 0.4500327059320606 0 0 
49 0.2073466213281196 0.4549806354382716 0 0 
50 0.1967035558444326 0.4596821849040445 0 0 
51 0.1859539719151933 0.4641348083574033 0 0 
52 0.1751036906297337 0.4683360946241988 0 0 
53 0.1641585876067805 0.4722837686338023 0 0 
54 0.153124589812704 0.4759756926510966 0 0 
55 0.1420076723519614 0.4794098674340965 0 0 
56 0.1273009741027638 0.4835229694569715 0 0 
57 0.1124755271719326 0.4871850323926176 0 0 
58 0.09754516100806417 0.4903926402016152 0 0 
59 0.0825238029303388 0.4931428007686157 0 0 
60 0.06742546513686154 0.4954329486934411 0 0 
61 0.05226423163382673 0.4972609476841366 0 0 
62 0.04067933733392915 0.498342444022253 0 0 
63 0.02907241445523795 0.4991540791356341 0 0 
64 0.01744974835125054 0.4996954135095479 0 0 
65 0.005817632900698583 0.4999661540018811 0 0 
66 -0.00581763290069841 0.4999661540018811 0 0 
67 -0.01744974835125037 0.4996954135095479 0 0 
68 -0.02907241445523789 0.4991540791356341 0 0 
69 -0.04067933733392909 0.498342444022253 0 0 
70 -0.05226423163382667 0.4972609476841367 0 0 
71 -0.06742546513686137 0.4954329486934412 0 0 
72 -0.08252380293033885 0.4931428007686157 0 0 
73 -0.0975451610080641 0.4903926402016152 0 0 
74 -0.1124755271719324 0.4871850323926176 0 0 
75 -0.1273009741027639 0.4835229694569715 0 0 
76 -0.1420076723519613 0.4794098674340965 0 0 
77 -0.153124589812704 0.4759756926510966 0 0 
78 -0.1641585876067805 0.4722837686338024 0 0 
79 -0.1751036906297338 0.4683360946241988 0 0 
80 -0.1859539719151933 0.4641348083574033 0 0 
81 -0.1967035558444324 0.4596821849040446 0 0 
82 -0.2073466213281194 0.4549806354382717 0 0 
83 -0.2178774049585396 0.4500327059320606 0 0 
84 -0.2282902041305827 0.4448410757765259 0 0 
85 -0.2385793801298042 0.4394085563309827 0 0 
86 -0.2518869885227631 0.4319177526021979 0 0 
87 -0.2649596321166024 0.424024048078213 0 0 
88 -0.277785116509801 0.4157348061512727 0 0 
89 -0.2903514778554699 0.4070577591781596 0 0 
90 -0.3026469940214471 0.3980010012673111 0 0 
91 -0.3146601955249186 0.3885729807284855 0 0 
92 -0.3236166862382162 0.381145956804209 0 0 
93 -0.3323979328069689 0.373512535620498 0 0 
94 -0.3409991800312492 0.3656768508095853 0 0 
95 -0.34941577018395 0.3576431455330257 0 0 
96 -0.3576431455330257 0.3494157701839501 0 0 
97 -0.3656768508095852 0.3409991800312493 0 0 
98 -0.3735125356204979 0.3323979328069691 0 0 
99 -0.3811459568042089 0.3236166862382163 0 0 
100 -0.3885729807284855 0.3146601955249187 0 0 
101 -0.398001001267311 0.3026469940214472 0 0 
102 -0.4070577591781596 0.2903514778554699 0 0 
103 -0.4157348061512727 0.2777851165098011 0 0 
104 -0.424024048078213 0.2649596321166025 0 0 
105 -0.4319177526021978 0.2518869885227632 0 0 
106 -0.4394085563309826 0.2385793801298043 0 0 
107 -0.4448410757765259 0.2282902041305828 0 0 
108 -0.4500327059320606 0.2178774049585396 0 0 
109 -0.4549806354382716 0.2073466213281196 0 0 
110 -0.4596821849040446 0.1967035558444325 0 0 
111 -0.4641348083574033 0.1859539719151934 0 0 
112 -0.4683360946241988 0.1751036906297338 0 0 
113 -0.4722837686338023 0.1641585876067807 0 0 
114 -0.4759756926510966 0.1531245898127041 0 0 
115 -0.4794098674340965 0.1420076723519613 0 0 
116 -0.4835229694569715 0.1273009741027638 0 0 
117 -0.4871850323926176 0.1124755271719326 0 0 
118 -0.4903926402016152 0.0975451610080643 0 0 
119 -0.4931428007686157 0.08252380293033883 0 0 
120 -0.4954329486934411 0.06742546513686158 0 0 
121 -0.4972609476841366 0.05226423163382687 0 0 
122 -0.498342444022253 0.04067933733392919 0 0 
123 -0.4991540791356341 0.02907241445523787 0 0 
124 -0.4996954135095479 0.01744974835125057 0 0 
125 -0.4999661540018811 0.005817632900698502 0 0 
126 -0.4999661540018811 -0.005817632900698602 0 0 
127 -0.4996954135095479 -0.01744974835125045 0 0 
128 -0.4991540791356341 -0.02907241445523797 0 0 
129 -0.498342444022253 -0.04067933733392951 0 0 
130 -0.4972609476841366 -0.05226423163382675 0 0 
131 -0.4954329486934411 -0.06742546513686146 0 0 
132 -0.4931428007686157 -0.08252380293033872 0 0 
133 -0.4903926402016152 -0.09754516100806418 0 0 
134 -0.4871850323926176 -0.1124755271719325 0 0 
135 -0.4835229694569716 -0.1273009741027637 0 0 
136 -0.4794098674340966 -0.1420076723519612 0 0 
137 -0.4759756926510966 -0.153124589812704 0 0 
138 -0.4722837686338024 -0.1641585876067803 0 0 
139 -0.4683360946241988 -0.1751036906297336 0 0 
140 -0.4641348083574034 -0.1859539719151931 0 0 
141 -0.4596821849040445 -0.1967035558444326 0 0 
142 -0.4549806354382716 -0.2073466213281195 0 0 
143 -0.4500327059320606 -0.2178774049585397 0 0 
144 -0.4448410757765259 -0.2282902041305827 0 0 
145 -0.4394085563309827 -0.2385793801298042 0 0 
146 -0.4319177526021979 -0.2518869885227631 0 0 
147 -0.424024048078213 -0.2649596321166024 0 0 
148 -0.4157348061512727 -0.277785116509801 0 0 
149 -0.4070577591781596 -0.2903514778554699 0 0 
150 -0.3980010012673111 -0.3026469940214471 0 0 
151 -0.3885729807284856 -0.3146601955249186 0 0 
152 -0.381145956804209 -0.3236166862382162 0 0 
153 -0.3735125356204981 -0.3323979328069688 0 0 
154 -0.3656768508095853 -0.3409991800312492 0 0 
155 -0.3576431455330259 -0.3494157701839498 0 0 
156 -0.3494157701839499 -0.3576431455330258 0 0 
157 -0.3409991800312493 -0.3656768508095852 0 0 
158 -0.3323979328069689 -0.373512535620498 0 0 
159 -0.3236166862382163 -0.3811459568042089 0 0 
160 -0.3146601955249185 -0.3885729807284856 0 0 
161 -0.3026469940214471 -0.3980010012673111 0 0 
162 -0.2903514778554698 -0.4070577591781597 0 0 
163 -0.2777851165098011 -0.4157348061512726 0 0 
164 -0.2649596321166025 -0.424024048078213 0 0 
165 -0.2518869885227632 -0.4319177526021978 0 0 
166 -0.2385793801298043 -0.4394085563309826 0 0 
167 -0.2282902041305827 -0.4448410757765259 0 0 
168 -0.21787740495854 -0.4500327059320604 0 0 
169 -0.2073466213281196 -0.4549806354382716 0 0 
170 -0.1967035558444328 -0.4596821849040444 0 0 
171 -0.1859539719151933 -0.4641348083574033 0 0 
172 -0.1751036906297338 -0.4683360946241988 0 0 
173 -0.1641585876067803 -0.4722837686338024 0 0 
174 -0.1531245898127043 -0.4759756926510965 0 0 
175 -0.1420076723519613 -0.4794098674340965 0 0 
176 -0.1273009741027639 -0.4835229694569715 0 0 
177 -0.1124755271719326 -0.4871850323926176 0 0 
178 -0.09754516100806433 -0.4903926402016152 0 0 
179 -0.08252380293033908 -0.4931428007686157 0 0 
180 -0.06742546513686183 -0.4954329486934411 0 0 
181 -0.05226423163382712 -0.4972609476841366 0 0 
182 -0.04067933733392921 -0.498342444022253 0 0 
183 -0.02907241445523812 -0.4991540791356341 0 0 
184 -0.01744974835125038 -0.4996954135095479 0 0 
185 -0.005817632900698533 -0.4999661540018811 0 0 
186 0.00581763290069835 -0.4999661540018811 0 0 
187 0.0174497483512502 -0.4996954135095479 0 0 
188 0.02907241445523794 -0.4991540791356341 0 0 
189 0.04067933733392903 -0.498342444022253 0 0 
190 0.05226423163382694 -0.4972609476841366 0 0 
191 0.06742546513686164 -0.4954329486934411 0 0 
192 0.0825238029303389 -0.4931428007686157 0 0 
193 0.09754516100806415 -0.4903926402016152 0 0 
194 0.1124755271719325 -0.4871850323926176 0 0 
195 0.1273009741027637 -0.4835229694569716 0 0 
196 0.1420076723519612 -0.4794098674340966 0 0 
197 0.1531245898127042 -0.4759756926510965 0 0 
198 0.1641585876067801 -0.4722837686338025 0 0 
199 0.1751036906297336 -0.4683360946241988 0 0 
200 0.1859539719151931 -0.4641348083574034 0 0 
201 0.1967035558444326 -0.4596821849040446 0 0 
202 0.2073466213281195 -0.4549806354382716 0 0 
203 0.2178774049585399 -0.4500327059320605 0 0 
204 0.2282902041305825 -0.444841075776526 0 0 
205 0.2385793801298042 -0.4394085563309827 0 0 
206 0.2518869885227631 -0.4319177526021979 0 0 
207 0.2649596321166023 -0.4240240480782131 0 0 
208 0.2777851165098009 -0.4157348061512727 0 0 
209 0.2903514778554697 -0.4070577591781598 0 0 
210 0.3026469940214469 -0.3980010012673112 0 0 
211 0.3146601955249184 -0.3885729807284857 0 0 
212 0.3236166862382162 -0.381145956804209 0 0 
213 0.3323979328069688 -0.3735125356204981 0 0 
214 0.3409991800312493 -0.3656768508095852 0 0 
215 0.34941577018395 -0.3576431455330258 0 0 
216 0.3576431455330256 -0.3494157701839501 0 0 
217 0.365676850809585 -0.3409991800312495 0 0 
218 0.373512535620498 -0.3323979328069689 0 0 
219 0.3811459568042089 -0.3236166862382163 0 0 
220 0.3885729807284856 -0.3146601955249186 0 0 
221 0.3980010012673111 -0.3026469940214471 0 0 
222 0.4070577591781596 -0.2903514778554698 0 0 
223 0.4157348061512726 -0.2777851165098011 0 0 
224 0.4240240480782129 -0.2649596321166025 0 0 
225 0.4319177526021978 -0.2518869885227633 0 0 
226 0.4394085563309826 -0.2385793801298044 0 0 
227 0.4448410757765259 -0.2282902041305827 0 0 
228 0.4500327059320604 -0.2178774049585401 0 0 
229 0.4549806354382716 -0.2073466213281197 0 0 
230 0.4596821849040444 -0.1967035558444328 0 0 
231 0.4641348083574033 -0.1859539719151933 0 0 
232 0.4683360946241988 -0.1751036906297338 0 0 
233 0.4722837686338024 -0.1641585876067803 0 0 
234 0.4759756926510965 -0.1531245898127044 0 0 
235 0.4794098674340965 -0.1420076723519614 0 0 
236 0.4835229694569715 -0.1273009741027639 0 0 
237 0.4871850323926176 -0.1124755271719327 0 0 
238 0.4903926402016152 -0.09754516100806436 0 0 
239 0.4931428007686157 -0.08252380293033912 0 0 
240 0.4954329486934411 -0.06742546513686186 0 0 
1 0.4972608476841366 -0.05226433163382673 -1e-07 0.498342544022253 -0.04067923733392913 1e-07 1 1 2 1 -2 
2 0.498342344022253 -0.04067943733392914 -1e-07 0.4991541791356341 -0.02907231445523791 1e-07 1 1 2 2 -3 
3 0.4991539791356341 -0.02907251445523791 -1e-07 0.4996955135095479 -0.01744964835125048 1e-07 1 1 2 3 -4 
4 0.4996953135095479 -0.01744984835125048 -1e-07 0.4999662540018811 -0.005817532900698505 1e-07 1 1 2 4 -5 
5 0.4999660540018811 -0.005817732900698505 -1e-07 0.4999662540018811 0.005817732900698505 1e-07 1 1 2 5 -6 
6 0.4996953135095479 0.005817532900698505 -1e-07 0.4999662540018811 0.01744984835125049 1e-07 1 1 2 6 -7 
7 0.4991539791356341 0.01744964835125049 -1e-07 0.4996955135095479 0.02907251445523792 1e-07 1 1 2 7 -8 
8 0.498342344022253 0.02907231445523792 -1e-07 0.4991541791356341 0.04067943733392915 1e-07 1 1 2 8 -9 
9 0.4972608476841366 0.04067923733392914 -1e-07 0.498342544022253 0.05226433163382673 1e-07 1 1 2 9 -10 
10 0.4954328486934411 0.05226413163382673 -1e-07 0.4972610476841366 0.0674255651368615 1e-07 1 0 2 10 -11 
11 0.4931427007686157 0.0674253651368615 -1e-07 0.4954330486934411 0.08252390293033883 1e-07 1 0 2 11 -12 
12 0.4903925402016152 0.08252370293033882 -1e-07 0.4931429007686157 0.09754526100806413 1e-07 1 0 2 12 -13 
13 0.4871849323926176 0.09754506100806412 -1e-07 0.4903927402016152 0.1124756271719325 1e-07 1 0 2 13 -14 
14 0.4835228694569715 0.1124754271719325 -1e-07 0.4871851323926176 0.1273010741027638 1e-07 1 0 2 14 -15 
15 0.4794097674340965 0.1273008741027638 -1e-07 0.4835230694569715 0.1420077723519613 1e-07 1 0 2 15 -16 
16 0.4759755926510966 0.1420075723519613 -1e-07 0.4794099674340965 0.153124689812704 1e-07 1 2 2 16 -17 
17 0.4722836686338024 0.153124489812704 -1e-07 0.4759757926510966 0.1641586876067805 1e-07 1 2 2 17 -18 
18 0.4683359946241988 0.1641584876067805 -1e-07 0.4722838686338024 0.1751037906297337 1e-07 1 2 2 18 -19 
19 0.4641347083574033 0.1751035906297337 -1e-07 0.4683361946241988 0.1859540719151933 1e-07 1 2 2 19 -20 
20 0.4596820849040446 0.1859538719151933 -1e-07 0.4641349083574033 0.1967036558444326 1e-07 1 2 2 20 -21 
21 0.4549805354382716 0.1967034558444326 -1e-07 0.4596822849040446 0.2073467213281195 1e-07 1 2 2 21 -22 
22 0.4500326059320606 0.2073465213281195 -1e-07 0.4549807354382716 0.2178775049585397 1e-07 1 2 2 22 -23 
23 0.4448409757765259 0.2178773049585397 -1e-07 0.4500328059320606 0.2282903041305828 1e-07 1 2 2 23 -24 
24 0.4394084563309827 0.2282901041305828 -1e-07 0.4448411757765259 0.2385794801298042 1e-07 1 2 2 24 -25 
25 0.4319176526021979 0.2385792801298042 -1e-07 0.4394086563309827 0.2518870885227631 1e-07 1 0 2 25 -26 
26 0.424023948078213 0.2518868885227631 -1e-07 0.4319178526021979 0.2649597321166025 1e-07 1 0 2 26 -27 
27 0.4157347061512726 0.2649595321166024 -1e-07 0.424024148078213 0.2777852165098011 1e-07 1 0 2 27 -28 
28 0.4070576591781596 0.2777850165098011 -1e-07 0.4157349061512726 0.2903515778554699 1e-07 1 0 2 28 -29 
29 0.398000901267311 0.2903513778554699 -1e-07 0.4070578591781596 0.3026470940214472 1e-07 1 0 2 29 -30 
30 0.3885728807284854 0.3026468940214472 -1e-07 0.398001101267311 0.3146602955249188 1e-07 1 0 2 30 -31 
31 0.381145856804209 0.3146600955249187 -1e-07 0.3885730807284854 0.3236167862382162 1e-07 1 3 2 31 -32 
32 0.373512435620498 0.3236165862382162 -1e-07 0.381146056804209 0.3323980328069689 1e-07 1 3 2 32 -33 
33 0.3656767508095852 0.3323978328069689 -1e-07 0.373512635620498 0.3409992800312492 1e-07 1 3 2 33 -34 
34 0.3576430455330257 0.3409990800312492 -1e-07 0.3656769508095852 0.34941587018395 1e-07 1 3 2 34 -35 
35 0.34941567018395 0.34941567018395 -1e-07 0.3576432455330257 0.3576432455330257 1e-07 1 3 2 35 -36 
36 0.3409990800312492 0.3576430455330257 -1e-07 0.34941587018395 0.3656769508095852 1e-07 1 3 2 36 -37 
37 0.3323978328069689 0.3656767508095852 -1e-07 0.3409992800312492 0.373512635620498 1e-07 1 3 2 37 -38 
38 0.3236165862382162 0.373512435620498 -1e-07 0.3323980328069689 0.3811460568042089 1e-07 1 3 2 38 -39 
39 0.3146600955249187 0.3811458568042089 -1e-07 0.3236167862382162 0.3885730807284854 1e-07 1 3 2 39 -40 
40 0.3026468940214472 0.3885728807284854 -1e-07 0.3146602955249188 0.398001101267311 1e-07 1 0 2 40 -41 
41 0.2903513778554699 0.398000901267311 -1e-07 0.3026470940214472 0.4070578591781596 1e-07 1 0 2 41 -42 
42 0.2777850165098011 0.4070576591781596 -1e-07 0.2903515778554699 0.4157349061512726 1e-07 1 0 2 42 -43 
43 0.2649595321166024 0.4157347061512726 -1e-07 0.2777852165098011 0.424024148078213 1e-07 1 0 2 43 -44 
44 0.2518868885227631 0.424023948078213 -1e-07 0.2649597321166025 0.4319178526021978 1e-07 1 0 2 44 -45 
45 0.2385792801298042 0.4319176526021978 -1e-07 0.2518870885227631 0.4394086563309827 1e-07 1 0 2 45 -46 
46 0.2282901041305828 0.4394084563309827 -1e-07 0.2385794801298042 0.4448411757765259 1e-07 1 4 2 46 -47 
47 0.2178773049585397 0.4448409757765259 -1e-07 0.2282903041305828 0.4500328059320606 1e-07 1 4 2 47 -48 
48 0.2073465213281196 0.4500326059320606 -1e-07 0.2178775049585397 0.4549807354382716 1e-07 1 4 2 48 -49 
49 0.1967034558444326 0.4549805354382716 -1e-07 0.2073467213281196 0.4596822849040445 1e-07 1 4 2 49 -50 
50 0.1859538719151933 0.4596820849040445 -1e-07 0.1967036558444326 0.4641349083574033 1e-07 1 4 2 50 -51 
51 0.1751035906297337 0.4641347083574033 -1e-07 0.1859540719151933 0.4683361946241988 1e-07 1 4 2 51 -52 
52 0.1641584876067805 0.4683359946241988 -1e-07 0.1751037906297337 0.4722838686338023 1e-07 1 4 2 52 -53 
53 0.153124489812704 0.4722836686338023 -1e-07 0.1641586876067805 0.4759757926510966 1e-07 1 4 2 53 -54 
54 0.1420075723519614 0.4759755926510966 -1e-07 0.1531246898127041 0.4794099674340965 1e-07 1 4 2 54 -55 
55 0.1273008741027638 0.4794097674340965 -1e-07 0.1420077723519614 0.4835230694569715 1e-07 1 0 2 55 -56 
56 0.1124754271719326 0.4835228694569715 -1e-07 0.1273010741027638 0.4871851323926176 1e-07 1 0 2 56 -57 
57 0.09754506100806416 0.4871849323926176 -1e-07 0.1124756271719326 0.4903927402016152 1e-07 1 0 2 57 -58 
58 0.0825237029303388 0.4903925402016152 -1e-07 0.09754526100806417 0.4931429007686157 1e-07 1 0 2 58 -59 
59 0.06742536513686154 0.4931427007686157 -1e-07 0.0825239029303388 0.4954330486934411 1e-07 1 0 2 59 -60 
60 0.05226413163382673 0.4954328486934411 -1e-07 0.06742556513686154 0.4972610476841366 1e-07 1 0 2 60 -61 
61 0.04067923733392915 0.4972608476841366 -1e-07 0.05226433163382673 0.498342544022253 1e-07 1 5 2 61 -62 
62 0.02907231445523795 0.498342344022253 -1e-07 0.04067943733392915 0.4991541791356341 1e-07 1 5 2 62 -63 
63 0.01744964835125054 0.4991539791356341 -1e-07 0.02907251445523795 0.4996955135095479 1e-07 1 5 2 63 -64 
64 0.005817532900698583 0.4996953135095479 -1e-07 0.01744984835125054 0.4999662540018811 1e-07 1 5 2 64 -65 
65 -0.00581773290069841 0.4999660540018811 -1e-07 0.005817732900698583 0.4999662540018811 1e-07 1 5 2 65 -66 
66 -0.01744984835125037 0.4996953135095479 -1e-07 -0.00581753290069841 0.4999662540018811 1e-07 1 5 2 66 -67 
67 -0.02907251445523789 0.4991539791356341 -1e-07 -0.01744964835125037 0.4996955135095479 1e-07 1 5 2 67 -68 
68 -0.04067943733392909 0.498342344022253 -1e-07 -0.02907231445523789 0.4991541791356341 1e-07 1 5 2 68 -69 
69 -0.05226433163382667 0.4972608476841367 -1e-07 -0.04067923733392909 0.498342544022253 1e-07 1 5 2 69 -70 
70 -0.06742556513686138 0.4954328486934412 -1e-07 -0.05226413163382666 0.4972610476841367 1e-07 1 0 2 70 -71 
71 -0.08252390293033886 0.4931427007686157 -1e-07 -0.06742536513686137 0.4954330486934412 1e-07 1 0 2 71 -72 
72 -0.0975452610080641 0.4903925402016152 -1e-07 -0.08252370293033885 0.4931429007686157 1e-07 1 0 2 72 -73 
73 -0.1124756271719324 0.4871849323926176 -1e-07 -0.09754506100806409 0.4903927402016152 1e-07 1 0 2 73 -74 
74 -0.1273010741027639 0.4835228694569715 -1e-07 -0.1124754271719324 0.4871851323926176 1e-07 1 0 2 74 -75 
75 -0.1420077723519613 0.4794097674340965 -1e-07 -0.1273008741027639 0.4835230694569715 1e-07 1 0 2 75 -76 
76 -0.153124689812704 0.4759755926510966 -1e-07 -0.1420075723519613 0.4794099674340965 1e-07 1 6 2 76 -77 
77 -0.1641586876067805 0.4722836686338024 -1e-07 -0.153124489812704 0.4759757926510966 1e-07 1 6 2 77 -78 
78 -0.1751037906297338 0.4683359946241988 -1e-07 -0.1641584876067805 0.4722838686338024 1e-07 1 6 2 78 -79 
79 -0.1859540719151933 0.4641347083574033 -1e-07 -0.1751035906297338 0.4683361946241988 1e-07 1 6 2 79 -80 
80 -0.1967036558444324 0.4596820849040446 -1e-07 -0.1859538719151933 0.4641349083574033 1e-07 1 6 2 80 -81 
81 -0.2073467213281194 0.4549805354382717 -1e-07 -0.1967034558444324 0.4596822849040446 1e-07 1 6 2 81 -82 
82 -0.2178775049585396 0.4500326059320606 -1e-07 -0.2073465213281194 0.4549807354382717 1e-07 1 6 2 82 -83 
83 -0.2282903041305827 0.4448409757765259 -1e-07 -0.2178773049585395 0.4500328059320606 1e-07 1 6 2 83 -84 
84 -0.2385794801298042 0.4394084563309827 -1e-07 -0.2282901041305827 0.4448411757765259 1e-07 1 6 2 84 -85 
85 -0.2518870885227631 0.4319176526021979 -1e-07 -0.2385792801298042 0.4394086563309827 1e-07 1 0 2 85 -86 
86 -0.2649597321166024 0.424023948078213 -1e-07 -0.2518868885227631 0.4319178526021979 1e-07 1 0 2 86 -87 
87 -0.277785216509801 0.4157347061512727 -1e-07 -0.2649595321166024 0.424024148078213 1e-07 1 0 2 87 -88 
88 -0.2903515778554699 0.4070576591781596 -1e-07 -0.277785016509801 0.4157349061512727 1e-07 1 0 2 88 -89 
89 -0.3026470940214471 0.3980009012673111 -1e-07 -0.2903513778554699 0.4070578591781596 1e-07 1 0 2 89 -90 
90 -0.3146602955249186 0.3885728807284855 -1e-07 -0.3026468940214471 0.3980011012673111 1e-07 1 0 2 90 -91 
91 -0.3236167862382162 0.381145856804209 -1e-07 -0.3146600955249186 0.3885730807284855 1e-07 1 7 2 91 -92 
92 -0.3323980328069689 0.373512435620498 -1e-07 -0.3236165862382162 0.381146056804209 1e-07 1 7 2 92 -93 
93 -0.3409992800312492 0.3656767508095853 -1e-07 -0.3323978328069689 0.373512635620498 1e-07 1 7 2 93 -94 
94 -0.34941587018395 0.3576430455330257 -1e-07 -0.3409990800312492 0.3656769508095853 1e-07 1 7 2 94 -95 
95 -0.3576432455330257 0.3494156701839501 -1e-07 -0.34941567018395 0.3576432455330257 1e-07 1 7 2 95 -96 
96 -0.3656769508095852 0.3409990800312493 -1e-07 -0.3576430455330257 0.3494158701839501 1e-07 1 7 2 96 -97 
97 -0.3735126356204979 0.3323978328069691 -1e-07 -0.3656767508095852 0.3409992800312493 1e-07 1 7 2 97 -98 
98 -0.3811460568042089 0.3236165862382163 -1e-07 -0.3735124356204979 0.3323980328069691 1e-07 1 7 2 98 -99 
99 -0.3885730807284855 0.3146600955249187 -1e-07 -0.3811458568042089 0.3236167862382163 1e-07 1 7 2 99 -100 
100 -0.398001101267311 0.3026468940214472 -1e-07 -0.3885728807284854 0.3146602955249187 1e-07 1 0 2 100 -101 
101 -0.4070578591781596 0.2903513778554699 -1e-07 -0.398000901267311 0.3026470940214472 1e-07 1 0 2 101 -102 
102 -0.4157349061512727 0.2777850165098011 -1e-07 -0.4070576591781596 0.2903515778554699 1e-07 1 0 2 102 -103 
103 -0.424024148078213 0.2649595321166025 -1e-07 -0.4157347061512727 0.2777852165098011 1e-07 1 0 2 103 -104 
104 -0.4319178526021978 0.2518868885227632 -1e-07 -0.424023948078213 0.2649597321166025 1e-07 1 0 2 104 -105 
105 -0.4394086563309826 0.2385792801298043 -1e-07 -0.4319176526021978 0.2518870885227632 1e-07 1 0 2 105 -106 
106 -0.4448411757765259 0.2282901041305828 -1e-07 -0.4394084563309826 0.2385794801298043 1e-07 1 8 2 106 -107 
107 -0.4500328059320606 0.2178773049585396 -1e-07 -0.4448409757765259 0.2282903041305828 1e-07 1 8 2 107 -108 
108 -0.4549807354382716 0.2073465213281196 -1e-07 -0.4500326059320606 0.2178775049585396 1e-07 1 8 2 108 -109 
109 -0.4596822849040446 0.1967034558444325 -1e-07 -0.4549805354382715 0.2073467213281196 1e-07 1 8 2 109 -110 
110 -0.4641349083574033 0.1859538719151934 -1e-07 -0.4596820849040446 0.1967036558444325 1e-07 1 8 2 110 -111 
111 -0.4683361946241988 0.1751035906297338 -1e-07 -0.4641347083574033 0.1859540719151934 1e-07 1 8 2 111 -112 
112 -0.4722838686338023 0.1641584876067807 -1e-07 -0.4683359946241988 0.1751037906297338 1e-07 1 8 2 112 -113 
113 -0.4759757926510966 0.1531244898127041 -1e-07 -0.4722836686338023 0.1641586876067807 1e-07 1 8 2 113 -114 
114 -0.4794099674340965 0.1420075723519613 -1e-07 -0.4759755926510966 0.1531246898127041 1e-07 1 8 2 114 -115 
115 -0.4835230694569715 0.1273008741027638 -1e-07 -0.4794097674340965 0.1420077723519613 1e-07 1 0 2 115 -116 
116 -0.4871851323926176 0.1124754271719326 -1e-07 -0.4835228694569715 0.1273010741027638 1e-07 1 0 2 116 -117 
117 -0.4903927402016152 0.0975450610080643 -1e-07 -0.4871849323926176 0.1124756271719326 1e-07 1 0 2 117 -118 
118 -0.4931429007686157 0.08252370293033882 -1e-07 -0.4903925402016152 0.09754526100806431 1e-07 1 0 2 118 -119 
119 -0.4954330486934411 0.06742536513686158 -1e-07 -0.4931427007686157 0.08252390293033883 1e-07 1 0 2 119 -120 
120 -0.4972610476841366 0.05226413163382686 -1e-07 -0.4954328486934411 0.06742556513686158 1e-07 1 0 2 120 -121 
121 -0.498342544022253 0.04067923733392918 -1e-07 -0.4972608476841366 0.05226433163382687 1e-07 1 9 2 121 -122 
122 -0.4991541791356341 0.02907231445523787 -1e-07 -0.498342344022253 0.04067943733392919 1e-07 1 9 2 122 -123 
123 -0.4996955135095479 0.01744964835125057 -1e-07 -0.4991539791356341 0.02907251445523787 1e-07 1 9 2 123 -124 
124 -0.4999662540018811 0.005817532900698501 -1e-07 -0.4996953135095479 0.01744984835125057 1e-07 1 9 2 124 -125 
125 -0.4999662540018811 -0.005817732900698602 -1e-07 -0.4999660540018811 0.005817732900698503 1e-07 1 9 2 125 -126 
126 -0.4999662540018811 -0.01744984835125045 -1e-07 -0.4996953135095479 -0.005817532900698602 1e-07 1 9 2 126 -127 
127 -0.4996955135095479 -0.02907251445523797 -1e-07 -0.4991539791356341 -0.01744964835125045 1e-07 1 9 2 127 -128 
128 -0.4991541791356341 -0.04067943733392951 -1e-07 -0.498342344022253 -0.02907231445523797 1e-07 1 9 2 128 -129 
129 -0.498342544022253 -0.05226433163382675 -1e-07 -0.4972608476841366 -0.0406792373339295 1e-07 1 9 2 129 -130 
130 -0.4972610476841366 -0.06742556513686146 -1e-07 -0.4954328486934411 -0.05226413163382675 1e-07 1 0 2 130 -131 
131 -0.4954330486934411 -0.08252390293033872 -1e-07 -0.4931427007686157 -0.06742536513686145 1e-07 1 0 2 131 -132 
132 -0.4931429007686157 -0.09754526100806418 -1e-07 -0.4903925402016152 -0.08252370293033871 1e-07 1 0 2 132 -133 
133 -0.4903927402016152 -0.1124756271719325 -1e-07 -0.4871849323926176 -0.09754506100806418 1e-07 1 0 2 133 -134 
134 -0.4871851323926176 -0.1273010741027637 -1e-07 -0.4835228694569716 -0.1124754271719325 1e-07 1 0 2 134 -135 
135 -0.4835230694569716 -0.1420077723519612 -1e-07 -0.4794097674340966 -0.1273008741027637 1e-07 1 0 2 135 -136 
136 -0.4794099674340966 -0.153124689812704 -1e-07 -0.4759755926510966 -0.1420075723519612 1e-07 1 10 2 136 -137 
137 -0.4759757926510966 -0.1641586876067803 -1e-07 -0.4722836686338024 -0.153124489812704 1e-07 1 10 2 137 -138 
138 -0.4722838686338025 -0.1751037906297336 -1e-07 -0.4683359946241988 -0.1641584876067803 1e-07 1 10 2 138 -139 
139 -0.4683361946241988 -0.1859540719151931 -1e-07 -0.4641347083574034 -0.1751035906297336 1e-07 1 10 2 139 -140 
140 -0.4641349083574034 -0.1967036558444326 -1e-07 -0.4596820849040445 -0.1859538719151931 1e-07 1 10 2 140 -141 
141 -0.4596822849040445 -0.2073467213281195 -1e-07 -0.4549805354382716 -0.1967034558444326 1e-07 1 10 2 141 -142 
142 -0.4549807354382716 -0.2178775049585397 -1e-07 -0.4500326059320606 -0.2073465213281195 1e-07 1 10 2 142 -143 
143 -0.4500328059320606 -0.2282903041305827 -1e-07 -0.4448409757765259 -0.2178773049585397 1e-07 1 10 2 143 -144 
144 -0.4448411757765259 -0.2385794801298042 -1e-07 -0.4394084563309827 -0.2282901041305827 1e-07 1 10 2 144 -145 
145 -0.4394086563309827 -0.2518870885227631 -1e-07 -0.4319176526021979 -0.2385792801298042 1e-07 1 0 2 145 -146 
146 -0.4319178526021979 -0.2649597321166024 -1e-07 -0.424023948078213 -0.2518868885227631 1e-07 1 0 2 146 -147 
147 -0.424024148078213 -0.277785216509801 -1e-07 -0.4157347061512727 -0.2649595321166024 1e-07 1 0 2 147 -148 
148 -0.4157349061512727 -0.2903515778554699 -1e-07 -0.4070576591781596 -0.277785016509801 1e-07 1 0 2 148 -149 
149 -0.4070578591781596 -0.3026470940214471 -1e-07 -0.3980009012673111 -0.2903513778554699 1e-07 1 0 2 149 -150 
150 -0.3980011012673111 -0.3146602955249186 -1e-07 -0.3885728807284856 -0.3026468940214471 1e-07 1 0 2 150 -151 
151 -0.3885730807284856 -0.3236167862382162 -1e-07 -0.381145856804209 -0.3146600955249186 1e-07 1 11 2 151 -152 
152 -0.381146056804209 -0.3323980328069688 -1e-07 -0.3735124356204981 -0.3236165862382162 1e-07 1 11 2 152 -153 
153 -0.3735126356204981 -0.3409992800312492 -1e-07 -0.3656767508095853 -0.3323978328069688 1e-07 1 11 2 153 -154 
154 -0.3656769508095853 -0.3494158701839498 -1e-07 -0.3576430455330259 -0.3409990800312492 1e-07 1 11 2 154 -155 
155 -0.3576432455330259 -0.3576432455330258 -1e-07 -0.3494156701839499 -0.3494156701839498 1e-07 1 11 2 155 -156 
156 -0.3494158701839499 -0.3656769508095852 -1e-07 -0.3409990800312493 -0.3576430455330258 1e-07 1 11 2 156 -157 
157 -0.3409992800312493 -0.373512635620498 -1e-07 -0.3323978328069689 -0.3656767508095852 1e-07 1 11 2 157 -158 
158 -0.3323980328069689 -0.3811460568042089 -1e-07 -0.3236165862382163 -0.373512435620498 1e-07 1 11 2 158 -159 
159 -0.3236167862382163 -0.3885730807284856 -1e-07 -0.3146600955249185 -0.3811458568042089 1e-07 1 11 2 159 -160 
160 -0.3146602955249185 -0.3980011012673111 -1e-07 -0.3026468940214471 -0.3885728807284856 1e-07 1 0 2 160 -161 
161 -0.3026470940214471 -0.4070578591781597 -1e-07 -0.2903513778554698 -0.3980009012673111 1e-07 1 0 2 161 -162 
162 -0.2903515778554698 -0.4157349061512726 -1e-07 -0.2777850165098011 -0.4070576591781597 1e-07 1 0 2 162 -163 
163 -0.2777852165098011 -0.424024148078213 -1e-07 -0.2649595321166025 -0.4157347061512726 1e-07 1 0 2 163 -164 
164 -0.2649597321166025 -0.4319178526021978 -1e-07 -0.2518868885227632 -0.424023948078213 1e-07 1 0 2 164 -165 
165 -0.2518870885227632 -0.4394086563309826 -1e-07 -0.2385792801298043 -0.4319176526021978 1e-07 1 0 2 165 -166 
166 -0.2385794801298043 -0.4448411757765259 -1e-07 -0.2282901041305826 -0.4394084563309826 1e-07 1 12 2 166 -167 
167 -0.2282903041305827 -0.4500328059320604 -1e-07 -0.21787730495854 -0.4448409757765259 1e-07 1 12 2 167 -168 
168 -0.2178775049585401 -0.4549807354382716 -1e-07 -0.2073465213281196 -0.4500326059320604 1e-07 1 12 2 168 -169 
169 -0.2073467213281196 -0.4596822849040444 -1e-07 -0.1967034558444328 -0.4549805354382715 1e-07 1 12 2 169 -170 
170 -0.1967036558444328 -0.4641349083574033 -1e-07 -0.1859538719151932 -0.4596820849040444 1e-07 1 12 2 170 -171 
171 -0.1859540719151933 -0.4683361946241988 -1e-07 -0.1751035906297338 -0.4641347083574033 1e-07 1 12 2 171 -172 
172 -0.1751037906297338 -0.4722838686338025 -1e-07 -0.1641584876067803 -0.4683359946241988 1e-07 1 12 2 172 -173 
173 -0.1641586876067803 -0.4759757926510965 -1e-07 -0.1531244898127043 -0.4722836686338024 1e-07 1 12 2 173 -174 
174 -0.1531246898127043 -0.4794099674340965 -1e-07 -0.1420075723519613 -0.4759755926510965 1e-07 1 12 2 174 -175 
175 -0.1420077723519613 -0.4835230694569715 -1e-07 -0.1273008741027639 -0.4794097674340965 1e-07 1 0 2 175 -176 
176 -0.1273010741027639 -0.4871851323926176 -1e-07 -0.1124754271719326 -0.4835228694569715 1e-07 1 0 2 176 -177 
177 -0.1124756271719326 -0.4903927402016152 -1e-07 -0.09754506100806433 -0.4871849323926176 1e-07 1 0 2 177 -178 
178 -0.09754526100806434 -0.4931429007686157 -1e-07 -0.08252370293033907 -0.4903925402016152 1e-07 1 0 2 178 -179 
179 -0.08252390293033908 -0.4954330486934411 -1e-07 -0.06742536513686183 -0.4931427007686157 1e-07 1 0 2 179 -180 
180 -0.06742556513686183 -0.4972610476841366 -1e-07 -0.05226413163382711 -0.4954328486934411 1e-07 1 0 2 180 -181 
181 -0.05226433163382712 -0.498342544022253 -1e-07 -0.04067923733392921 -0.4972608476841366 1e-07 1 13 2 181 -182 
182 -0.04067943733392922 -0.4991541791356341 -1e-07 -0.02907231445523812 -0.498342344022253 1e-07 1 13 2 182 -183 
183 -0.02907251445523812 -0.4996955135095479 -1e-07 -0.01744964835125038 -0.4991539791356341 1e-07 1 13 2 183 -184 
184 -0.01744984835125038 -0.4999662540018811 -1e-07 -0.005817532900698533 -0.4996953135095479 1e-07 1 13 2 184 -185 
185 -0.005817732900698533 -0.4999662540018811 -1e-07 0.005817732900698349 -0.4999660540018811 1e-07 1 13 2 185 -186 
186 0.005817532900698349 -0.4999662540018811 -1e-07 0.0174498483512502 -0.4996953135095479 1e-07 1 13 2 186 -187 
187 0.0174496483512502 -0.4996955135095479 -1e-07 0.02907251445523793 -0.4991539791356341 1e-07 1 13 2 187 -188 
188 0.02907231445523794 -0.4991541791356341 -1e-07 0.04067943733392904 -0.498342344022253 1e-07 1 13 2 188 -189 
189 0.04067923733392903 -0.498342544022253 -1e-07 0.05226433163382694 -0.4972608476841366 1e-07 1 13 2 189 -190 
190 0.05226413163382693 -0.4972610476841366 -1e-07 0.06742556513686164 -0.4954328486934411 1e-07 1 0 2 190 -191 
191 0.06742536513686163 -0.4954330486934411 -1e-07 0.0825239029303389 -0.4931427007686157 1e-07 1 0 2 191 -192 
192 0.08252370293033889 -0.4931429007686157 -1e-07 0.09754526100806415 -0.4903925402016152 1e-07 1 0 2 192 -193 
193 0.09754506100806415 -0.4903927402016152 -1e-07 0.1124756271719325 -0.4871849323926176 1e-07 1 0 2 193 -194 
194 0.1124754271719325 -0.4871851323926176 -1e-07 0.1273010741027637 -0.4835228694569716 1e-07 1 0 2 194 -195 
195 0.1273008741027637 -0.4835230694569716 -1e-07 0.1420077723519612 -0.4794097674340966 1e-07 1 0 2 195 -196 
196 0.1420075723519612 -0.4794099674340966 -1e-07 0.1531246898127042 -0.4759755926510965 1e-07 1 14 2 196 -197 
197 0.1531244898127042 -0.4759757926510965 -1e-07 0.1641586876067801 -0.4722836686338025 1e-07 1 14 2 197 -198 
198 0.1641584876067801 -0.4722838686338025 -1e-07 0.1751037906297336 -0.4683359946241988 1e-07 1 14 2 198 -199 
199 0.1751035906297336 -0.4683361946241988 -1e-07 0.1859540719151931 -0.4641347083574034 1e-07 1 14 2 199 -200 
200 0.1859538719151931 -0.4641349083574034 -1e-07 0.1967036558444326 -0.4596820849040446 1e-07 1 14 2 200 -201 
201 0.1967034558444326 -0.4596822849040446 -1e-07 0.2073467213281195 -0.4549805354382716 1e-07 1 14 2 201 -202 
202 0.2073465213281195 -0.4549807354382716 -1e-07 0.2178775049585399 -0.4500326059320605 1e-07 1 14 2 202 -203 
203 0.2178773049585399 -0.4500328059320605 -1e-07 0.2282903041305825 -0.444840975776526 1e-07 1 14 2 203 -204 
204 0.2282901041305825 -0.444841175776526 -1e-07 0.2385794801298042 -0.4394084563309827 1e-07 1 14 2 204 -205 
205 0.2385792801298042 -0.4394086563309827 -1e-07 0.2518870885227631 -0.4319176526021979 1e-07 1 0 2 205 -206 
206 0.2518868885227631 -0.4319178526021979 -1e-07 0.2649597321166023 -0.4240239480782131 1e-07 1 0 2 206 -207 
207 0.2649595321166023 -0.4240241480782131 -1e-07 0.2777852165098009 -0.4157347061512727 1e-07 1 0 2 207 -208 
208 0.2777850165098009 -0.4157349061512727 -1e-07 0.2903515778554697 -0.4070576591781598 1e-07 1 0 2 208 -209 
209 0.2903513778554697 -0.4070578591781598 -1e-07 0.3026470940214469 -0.3980009012673112 1e-07 1 0 2 209 -210 
210 0.3026468940214469 -0.3980011012673113 -1e-07 0.3146602955249184 -0.3885728807284857 1e-07 1 0 2 210 -211 
211 0.3146600955249184 -0.3885730807284857 -1e-07 0.3236167862382162 -0.381145856804209 1e-07 1 15 2 211 -212 
212 0.3236165862382162 -0.381146056804209 -1e-07 0.3323980328069688 -0.3735124356204981 1e-07 1 15 2 212 -213 
213 0.3323978328069688 -0.3735126356204981 -1e-07 0.3409992800312494 -0.3656767508095852 1e-07 1 15 2 213 -214 
214 0.3409990800312493 -0.3656769508095852 -1e-07 0.34941587018395 -0.3576430455330258 1e-07 1 15 2 214 -215 
215 0.34941567018395 -0.3576432455330258 -1e-07 0.3576432455330256 -0.3494156701839501 1e-07 1 15 2 215 -216 
216 0.3576430455330256 -0.3494158701839501 -1e-07 0.365676950809585 -0.3409990800312495 1e-07 1 15 2 216 -217 
217 0.365676750809585 -0.3409992800312495 -1e-07 0.373512635620498 -0.3323978328069689 1e-07 1 15 2 217 -218 
218 0.373512435620498 -0.3323980328069689 -1e-07 0.3811460568042089 -0.3236165862382163 1e-07 1 15 2 218 -219 
219 0.3811458568042089 -0.3236167862382163 -1e-07 0.3885730807284856 -0.3146600955249186 1e-07 1 15 2 219 -220 
220 0.3885728807284856 -0.3146602955249186 -1e-07 0.3980011012673111 -0.3026468940214471 1e-07 1 0 2 220 -221 
221 0.3980009012673111 -0.3026470940214471 -1e-07 0.4070578591781596 -0.2903513778554698 1e-07 1 0 2 221 -222 
222 0.4070576591781596 -0.2903515778554698 -1e-07 0.4157349061512726 -0.2777850165098011 1e-07 1 0 2 222 -223 
223 0.4157347061512726 -0.2777852165098011 -1e-07 0.4240241480782129 -0.2649595321166025 1e-07 1 0 2 223 -224 
224 0.4240239480782129 -0.2649597321166025 -1e-07 0.4319178526021978 -0.2518868885227633 1e-07 1 0 2 224 -225 
225 0.4319176526021978 -0.2518870885227633 -1e-07 0.4394086563309826 -0.2385792801298044 1e-07 1 0 2 225 -226 
226 0.4394084563309826 -0.2385794801298044 -1e-07 0.4448411757765259 -0.2282901041305827 1e-07 1 16 2 226 -227 
227 0.4448409757765259 -0.2282903041305827 -1e-07 0.4500328059320604 -0.2178773049585401 1e-07 1 16 2 227 -228 
228 0.4500326059320604 -0.2178775049585401 -1e-07 0.4549807354382716 -0.2073465213281196 1e-07 1 16 2 228 -229 
229 0.4549805354382715 -0.2073467213281197 -1e-07 0.4596822849040444 -0.1967034558444328 1e-07 1 16 2 229 -230 
230 0.4596820849040444 -0.1967036558444328 -1e-07 0.4641349083574033 -0.1859538719151933 1e-07 1 16 2 230 -231 
231 0.4641347083574033 -0.1859540719151933 -1e-07 0.4683361946241988 -0.1751035906297338 1e-07 1 16 2 231 -232 
232 0.4683359946241988 -0.1751037906297338 -1e-07 0.4722838686338025 -0.1641584876067803 1e-07 1 16 2 232 -233 
233 0.4722836686338024 -0.1641586876067803 -1e-07 0.4759757926510965 -0.1531244898127044 1e-07 1 16 2 233 -234 
234 0.4759755926510965 -0.1531246898127044 -1e-07 0.4794099674340965 -0.1420075723519613 1e-07 1 16 2 234 -235 
235 0.4794097674340965 -0.1420077723519614 -1e-07 0.4835230694569715 -0.1273008741027639 1e-07 1 0 2 235 -236 
236 0.4835228694569715 -0.1273010741027639 -1e-07 0.4871851323926176 -0.1124754271719327 1e-07 1 0 2 236 -237 
237 0.4871849323926176 -0.1124756271719327 -1e-07 0.4903927402016152 -0.09754506100806436 1e-07 1 0 2 237 -238 
238 0.4903925402016152 -0.09754526100806436 -1e-07 0.4931429007686157 -0.08252370293033912 1e-07 1 0 2 238 -239 
239 0.4931427007686157 -0.08252390293033912 -1e-07 0.4954330486934411 -0.06742536513686186 1e-07 1 0 2 239 -240 
240 0.4954328486934411 -0.06742556513686186 -1e-07 0.4972610476841366 -0.05226413163382673 1e-07 1 0 2 240 -1 
1 -0.4999662540018811 -0.4999662540018811 -1e-07 0.4999662540018811 0.4999662540018811 1e-07 1 1 240 1 2 3 4 5 6 7 8 9 10 11 12 13 14 15 16 17 18 19 20 21 22 23 24 25 26 27 28 29 30 31 32 33 34 35 36 37 38 39 40 41 42 43 44 45 46 47 48 49 50 51 52 53 54 55 56 57 58 59 60 61 62 63 64 65 66 67 68 69 70 71 72 73 74 75 76 77 78 79 80 81 82 83 84 85 86 87 88 89 90 91 92 93 94 95 96 97 98 99 100 101 102 103 104 105 106 107 108 109 110 111 112 113 114 115 116 117 118 119 120 121 122 123 124 125 126 127 128 129 130 131 132 133 134 135 136 137 138 139 140 141 142 143 144 145 146 147 148 149 150 151 152 153 154 155 156 157 158 159 160 161 162 163 164 165 166 167 168 169 170 171 172 173 174 175 176 177 178 179 180 181 182 183 184 185 186 187 188 189 190 191 192 193 194 195 196 197 198 199 200 201 202 203 204 205 206 207 208 209 210 211 212 213 214 215 216 217 218 219 220 221 222 223 224 225 226 227 228 229 230 231 232 233 234 235 236 237 238 239 240 
$EndEntities
$Nodes
481 510 1 510
0 1 0 1
1
0.4972609476841366 -0.05226423163382673 0
0 2 0 1
2
0.498342444022253 -0.04067933733392914 0
0 3 0 1
3
0.4991540791356341 -0.02907241445523791 0
0 4 0 1
4
0.4996954135095479 -0.01744974835125048 0
0 5 0 1
5
0.4999661540018811 -0.005817632900698505 0
0 6 0 1
6
0.4999661540018811 0.005817632900698505 0
0 7 0 1
7
0.4996954135095479 0.01744974835125049 0
0 8 0 1
8
0.4991540791356341 0.02907241445523792 0
0 9 0 1
9
0.498342444022253 0.04067933733392914 0
0 10 0 1
10
0.4972609476841366 0.05226423163382673 0
0 11 0 1
11
0.4954329486934411 0.0674254651368615 0
0 12 0 1
12
0.4931428007686157 0.08252380293033883 0
0 13 0 1
13
0.4903926402016152 0.09754516100806412 0
0 14 0 1
14
0.4871850323926176 0.1124755271719325 0
0 15 0 1
15
0.4835229694569715 0.1273009741027638 0
0 16 0 1
16
0.4794098674340965 0.1420076723519613 0
0 17 0 1
17
0.4759756926510966 0.153124589812704 0
0 18 0 1
18
0.4722837686338024 0.1641585876067805 0
0 19 0 1
19
0.4683360946241988 0.1751036906297337 0
0 20 0 1
20
0.4641348083574033 0.1859539719151933 0
0 21 0 1
21
0.4596821849040446 0.1967035558444326 0
0 22 0 1
22
0.4549806354382716 0.2073466213281195 0
0 23 0 1
23
0.4500327059320606 0.2178774049585397 0
0 24 0 1
24
0.4448410757765259 0.2282902041305828 0
0 25 0 1
25
0.4394085563309827 0.2385793801298042 0
0 26 0 1
26
0.4319177526021979 0.2518869885227631 0
0 27 0 1
27
0.424024048078213 0.2649596321166025 0
0 28 0 1
28
0.4157348061512726 0.2777851165098011 0
0 29 0 1
29
0.4070577591781596 0.2903514778554699 0
0 30 0 1
30
0.398001001267311 0.3026469940214472 0
0 31 0 1
31
0.3885729807284854 0.3146601955249188 0
0 32 0 1
32
0.381145956804209 0.3236166862382162 0
0 33 0 1
33
0.373512535620498 0.3323979328069689 0
0 34 0 1
34
0.3656768508095852 0.3409991800312492 0
0 35 0 1
35
0.3576431455330257 0.34941577018395 0
0 36 0 1
36
0.34941577018395 0.3576431455330257 0
0 37 0 1
37
0.3409991800312492 0.3656768508095852 0
0 38 0 1
38
0.3323979328069689 0.373512535620498 0
0 39 0 1
39
0.3236166862382162 0.3811459568042089 0
0 40 0 1
40
0.3146601955249188 0.3885729807284854 0
0 41 0 1
41
0.3026469940214472 0.398001001267311 0
0 42 0 1
42
0.2903514778554699 0.4070577591781596 0
0 43 0 1
43
0.2777851165098011 0.4157348061512726 0
0 44 0 1
44
0.2649596321166025 0.424024048078213 0
0 45 0 1
45
0.2518869885227631 0.4319177526021978 0
0 46 0 1
46
0.2385793801298042 0.4394085563309827 0
0 47 0 1
47
0.2282902041305828 0.4448410757765259 0
0 48 0 1
48
0.2178774049585397 0.4500327059320606 0
0 49 0 1
49
0.2073466213281196 0.4549806354382716 0
0 50 0 1
50
0.1967035558444326 0.4596821849040445 0
0 51 0 1
51
0.1859539719151933 0.4641348083574033 0
0 52 0 1
52
0.1751036906297337 0.4683360946241988 0
0 53 0 1
53
0.1641585876067805 0.4722837686338023 0
0 54 0 1
54
0.153124589812704 0.4759756926510966 0
0 55 0 1
55
0.1420076723519614 0.4794098674340965 0
0 56 0 1
56
0.1273009741027638 0.4835229694569715 0
0 57 0 1
57
0.1124755271719326 0.4871850323926176 0
0 58 0 1
58
0.09754516100806417 0.4903926402016152 0
0 59 0 1
59
0.0825238029303388 0.4931428007686157 0
0 60 0 1
60
0.06742546513686154 0.4954329486934411 0
0 61 0 1
61
0.05226423163382673 0.4972609476841366 0
0 62 0 1
62
0.04067933733392915 0.498342444022253 0
0 63 0 1
63
0.02907241445523795 0.4991540791356341 0
0 64 0 1
64
0.01744974835125054 0.4996954135095479 0
0 65 0 1
65
0.005817632900698583 0.4999661540018811 0
0 66 0 1
66
-0.00581763290069841 0.4999661540018811 0
0 67 0 1
67
-0.01744974835125037 0.4996954135095479 0
0 68 0 1
68
-0.02907241445523789 0.4991540791356341 0
0 69 0 1
69
-0.04067933733392909 0.498342444022253 0
0 70 0 1
70
-0.05226423163382667 0.4972609476841367 0
0 71 0 1
71
-0.06742546513686137 0.4954329486934412 0
0 72 0 1
72
-0.08252380293033885 0.4931428007686157 0
0 73 0 1
73
-0.0975451610080641 0.4903926402016152 0
0 74 0 1
74
-0.1124755271719324 0.4871850323926176 0
0 75 0 1
75
-0.1273009741027639 0.4835229694569715 0
0 76 0 1
76
-0.1420076723519613 0.4794098674340965 0
0 77 0 1
77
-0.153124589812704 0.4759756926510966 0
0 78 0 1
78
-0.1641585876067805 0.4722837686338024 0
0 79 0 1
79
-0.1751036906297338 0.4683360946241988 0
0 80 0 1
80
-0.1859539719151933 0.4641348083574033 0
0 81 0 1
81
-0.1967035558444324 0.4596821849040446 0
0 82 0 1
82
-0.2073466213281194 0.4549806354382717 0
0 83 0 1
83
-0.2178774049585396 0.4500327059320606 0
0 84 0 1
84
-0.2282902041305827 0.4448410757765259 0
0 85 0 1
85
-0.2385793801298042 0.4394085563309827 0
0 86 0 1
86
-0.2518869885227631 0.4319177526021979 0
0 87 0 1
87
-0.2649596321166024 0.424024048078213 0
0 88 0 1
88
-0.277785116509801 0.4157348061512727 0
0 89 0 1
89
-0.2903514778554699 0.4070577591781596 0
0 90 0 1
90
-0.3026469940214471 0.3980010012673111 0
0 91 0 1
91
-0.3146601955249186 0.3885729807284855 0
0 92 0 1
92
-0.3236166862382162 0.381145956804209 0
0 93 0 1
93
-0.3323979328069689 0.373512535620498 0
0 94 0 1
94
-0.3409991800312492 0.3656768508095853 0
0 95 0 1
95
-0.34941577018395 0.3576431455330257 0
0 96 0 1
96
-0.3576431455330257 0.3494157701839501 0
0 97 0 1
97
-0.3656768508095852 0.3409991800312493 0
0 98 0 1
98
-0.3735125356204979 0.3323979328069691 0
0 99 0 1
99
-0.3811459568042089 0.3236166862382163 0
0 100 0 1
100
-0.3885729807284855 0.3146601955249187 0
0 101 0 1
101
-0.398001001267311 0.3026469940214472 0
0 102 0 1
102
-0.4070577591781596 0.2903514778554699 0
0 103 0 1
103
-0.4157348061512727 0.2777851165098011 0
0 104 0 1
104
-0.424024048078213 0.2649596321166025 0
0 105 0 1
105
-0.4319177526021978 0.2518869885227632 0
0 106 0 1
106
-0.4394085563309826 0.2385793801298043 0
0 107 0 1
107
-0.4448410757765259 0.2282902041305828 0
0 108 0 1
108
-0.4500327059320606 0.2178774049585396 0
0 109 0 1
109
-0.4549806354382716 0.2073466213281196 0
0 110 0 1
110
-0.4596821849040446 0.1967035558444325 0
0 111 0 1
111
-0.4641348083574033 0.1859539719151934 0
0 112 0 1
112
-0.4683360946241988 0.1751036906297338 0
0 113 0 1
113
-0.4722837686338023 0.1641585876067807 0
0 114 0 1
114
-0.4759756926510966 0.1531245898127041 0
0 115 0 1
115
-0.4794098674340965 0.1420076723519613 0
0 116 0 1
116
-0.4835229694569715 0.1273009741027638 0
0 117 0 1
117
-0.4871850323926176 0.1124755271719326 0
0 118 0 1
118
-0.4903926402016152 0.0975451610080643 0
0 119 0 1
119
-0.4931428007686157 0.08252380293033883 0
0 120 0 1
120
-0.4954329486934411 0.06742546513686158 0
0 121 0 1
121
-0.4972609476841366 0.05226423163382687 0
0 122 0 1
122
-0.498342444022253 0.04067933733392919 0
0 123 0 1
123
-0.4991540791356341 0.02907241445523787 0
0 124 0 1
124
-0.4996954135095479 0.01744974835125057 0
0 125 0 1
125
-0.4999661540018811 0.005817632900698502 0
0 126 0 1
126
-0.4999661540018811 -0.005817632900698602 0
0 127 0 1
127
-0.4996954135095479 -0.01744974835125045 0
0 128 0 1
128
-0.4991540791356341 -0.02907241445523797 0
0 129 0 1
129
-0.498342444022253 -0.04067933733392951 0
0 130 0 1
130
-0.4972609476841366 -0.05226423163382675 0
0 131 0 1
131
-0.4954329486934411 -0.06742546513686146 0
0 132 0 1
132
-0.4931428007686157 -0.08252380293033872 0
0 133 0 1
133
-0.4903926402016152 -0.09754516100806418 0
0 134 0 1
134
-0.4871850323926176 -0.1124755271719325 0
0 135 0 1
135
-0.4835229694569716 -0.1273009741027637 0
0 136 0 1
136
-0.4794098674340966 -0.1420076723519612 0
0 137 0 1
137
-0.4759756926510966 -0.153124589812704 0
0 138 0 1
138
-0.4722837686338024 -0.1641585876067803 0
0 139 0 1
139
-0.4683360946241988 -0.1751036906297336 0
0 140 0 1
140
-0.4641348083574034 -0.1859539719151931 0
0 141 0 1
141
-0.4596821849040445 -0.1967035558444326 0
0 142 0 1
142
-0.4549806354382716 -0.2073466213281195 0
0 143 0 1
143
-0.4500327059320606 -0.2178774049585397 0
0 144 0 1
144
-0.4448410757765259 -0.2282902041305827 0
0 145 0 1
145
-0.4394085563309827 -0.2385793801298042 0
0 146 0 1
146
-0.4319177526021979 -0.2518869885227631 0
0 147 0 1
147
-0.424024048078213 -0.2649596321166024 0
0 148 0 1
148
-0.4157348061512727 -0.277785116509801 0
0 149 0 1
149
-0.4070577591781596 -0.2903514778554699 0
0 150 0 1
150
-0.3980010012673111 -0.3026469940214471 0
0 151 0 1
151
-0.3885729807284856 -0.3146601955249186 0
0 152 0 1
152
-0.381145956804209 -0.3236166862382162 0
0 153 0 1
153
-0.3735125356204981 -0.3323979328069688 0
0 154 0 1
154
-0.3656768508095853 -0.3409991800312492 0
0 155 0 1
155
-0.3576431455330259 -0.3494157701839498 0
0 156 0 1
156
-0.3494157701839499 -0.3576431455330258 0
0 157 0 1
157
-0.3409991800312493 -0.3656768508095852 0
0 158 0 1
158
-0.3323979328069689 -0.373512535620498 0
0 159 0 1
159
-0.3236166862382163 -0.3811459568042089 0
0 160 0 1
160
-0.3146601955249185 -0.3885729807284856 0
0 161 0 1
161
-0.3026469940214471 -0.3980010012673111 0
0 162 0 1
162
-0.2903514778554698 -0.4070577591781597 0
0 163 0 1
163
-0.2777851165098011 -0.4157348061512726 0
0 164 0 1
164
-0.2649596321166025 -0.424024048078213 0
0 165 0 1
165
-0.2518869885227632 -0.4319177526021978 0
0 166 0 1
166
-0.2385793801298043 -0.4394085563309826 0
0 167 0 1
167
-0.2282902041305827 -0.4448410757765259 0
0 168 0 1
168
-0.21787740495854 -0.4500327059320604 0
0 169 0 1
169
-0.2073466213281196 -0.4549806354382716 0
0 170 0 1
170
-0.1967035558444328 -0.4596821849040444 0
0 171 0 1
171
-0.1859539719151933 -0.4641348083574033 0
0 172 0 1
172
-0.1751036906297338 -0.4683360946241988 0
0 173 0 1
173
-0.1641585876067803 -0.4722837686338024 0
0 174 0 1
174
-0.1531245898127043 -0.4759756926510965 0
0 175 0 1
175
-0.1420076723519613 -0.4794098674340965 0
0 176 0 1
176
-0.1273009741027639 -0.4835229694569715 0
0 177 0 1
177
-0.1124755271719326 -0.4871850323926176 0
0 178 0 1
178
-0.09754516100806433 -0.4903926402016152 0
0 179 0 1
179
-0.08252380293033908 -0.4931428007686157 0
0 180 0 1
180
-0.06742546513686183 -0.4954329486934411 0
0 181 0 1
181
-0.05226423163382712 -0.4972609476841366 0
0 182 0 1
182
-0.04067933733392921 -0.498342444022253 0
0 183 0 1
183
-0.02907241445523812 -0.4991540791356341 0
0 184 0 1
184
-0.01744974835125038 -0.4996954135095479 0
0 185 0 1
185
-0.005817632900698533 -0.4999661540018811 0
0 186 0 1
186
0.00581763290069835 -0.4999661540018811 0
0 187 0 1
187
0.0174497483512502 -0.4996954135095479 0
0 188 0 1
188
0.02907241445523794 -0.4991540791356341 0
0 189 0 1
189
0.04067933733392903 -0.498342444022253 0
0 190 0 1
190
0.05226423163382694 -0.4972609476841366 0
0 191 0 1
191
0.06742546513686164 -0.4954329486934411 0
0 192 0 1
192
0.0825238029303389 -0.4931428007686157 0
0 193 0 1
193
0.09754516100806415 -0.4903926402016152 0
0 194 0 1
194
0.1124755271719325 -0.4871850323926176 0
0 195 0 1
195
0.1273009741027637 -0.4835229694569716 0
0 196 0 1
196
0.1420076723519612 -0.4794098674340966 0
0 197 0 1
197
0.1531245898127042 -0.4759756926510965 0
0 198 0 1
198
0.1641585876067801 -0.4722837686338025 0
0 199 0 1
199
0.1751036906297336 -0.4683360946241988 0
0 200 0 1
200
0.1859539719151931 -0.4641348083574034 0
0 201 0 1
201
0.1967035558444326 -0.4596821849040446 0
0 202 0 1
202
0.2073466213281195 -0.4549806354382716 0
0 203 0 1
203
0.2178774049585399 -0.4500327059320605 0
0 204 0 1
204
0.2282902041305825 -0.444841075776526 0
0 205 0 1
205
0.2385793801298042 -0.4394085563309827 0
0 206 0 1
206
0.2518869885227631 -0.4319177526021979 0
0 207 0 1
207
0.2649596321166023 -0.4240240480782131 0
0 208 0 1
208
0.2777851165098009 -0.4157348061512727 0
0 209 0 1
209
0.2903514778554697 -0.4070577591781598 0
0 210 0 1
210
0.3026469940214469 -0.3980010012673112 0
0 211 0 1
211
0.3146601955249184 -0.3885729807284857 0
0 212 0 1
212
0.3236166862382162 -0.381145956804209 0
0 213 0 1
213
0.3323979328069688 -0.3735125356204981 0
0 214 0 1
214
0.3409991800312493 -0.3656768508095852 0
0 215 0 1
215
0.34941577018395 -0.3576431455330258 0
0 216 0 1
216
0.3576431455330256 -0.3494157701839501 0
0 217 0 1
217
0.365676850809585 -0.3409991800312495 0
0 218 0 1
218
0.373512535620498 -0.3323979328069689 0
0 219 0 1
219
0.3811459568042089 -0.3236166862382163 0
0 220 0 1
220
0.3885729807284856 -0.3146601955249186 0
0 221 0 1
221
0.3980010012673111 -0.3026469940214471 0
0 222 0 1
222
0.4070577591781596 -0.2903514778554698 0
0 223 0 1
223
0.4157348061512726 -0.2777851165098011 0
0 224 0 1
224
0.4240240480782129 -0.2649596321166025 0
0 225 0 1
225
0.4319177526021978 -0.2518869885227633 0
0 226 0 1
226
0.4394085563309826 -0.2385793801298044 0
0 227 0 1
227
0.4448410757765259 -0.2282902041305827 0
0 228 0 1
228
0.4500327059320604 -0.2178774049585401 0
0 229 0 1
229
0.4549806354382716 -0.2073466213281197 0
0 230 0 1
230
0.4596821849040444 -0.1967035558444328 0
0 231 0 1
231
0.4641348083574033 -0.1859539719151933 0
0 232 0 1
232
0.4683360946241988 -0.1751036906297338 0
0 233 0 1
233
0.4722837686338024 -0.1641585876067803 0
0 234 0 1
234
0.4759756926510965 -0.1531245898127044 0
0 235 0 1
235
0.4794098674340965 -0.1420076723519614 0
0 236 0 1
236
0.4835229694569715 -0.1273009741027639 0
0 237 0 1
237
0.4871850323926176 -0.1124755271719327 0
0 238 0 1
238
0.4903926402016152 -0.09754516100806436 0
0 239 0 1
239
0.4931428007686157 -0.08252380293033912 0
0 240 0 1
240
0.4954329486934411 -0.06742546513686186 0
1 1 0 0
1 2 0 0
1 3 0 0
1 4 0 0
1 5 0 0
1 6 0 0
1 7 0 0
1 8 0 0
1 9 0 0
1 10 0 0
1 11 0 0
1 12 0 0
1 13 0 0
1 14 0 0
1 15 0 0
1 16 0 0
1 17 0 0
1 18 0 0
1 19 0 0
1 20 0 0
1 21 0 0
1 22 0 0
1 23 0 0
1 24 0 0
1 25 0 0
1 26 0 0
1 27 0 0
1 28 0 0
1 29 0 0
1 30 0 0
1 31 0 0
1 32 0 0
1 33 0 0
1 34 0 0
1 35 0 0
1 36 0 0
1 37 0 0
1 38 0 0
1 39 0 0
1 40 0 0
1 41 0 0
1 42 0 0
1 43 0 0
1 44 0 0
1 45 0 0
1 46 0 0
1 47 0 0
1 48 0 0
1 49 0 0
1 50 0 0
1 51 0 0
1 52 0 0
1 53 0 0
1 54 0 0
1 55 0 0
1 56 0 0
1 57 0 0
1 58 0 0
1 59 0 0
1 60 0 0
1 61 0 0
1 62 0 0
1 63 0 0
1 64 0 0
1 65 0 0
1 66 0 0
1 67 0 0
1 68 0 0
1 69 0 0
1 70 0 0
1 71 0 0
1 72 0 0
1 73 0 0
1 74 0 0
1 75 0 0
1 76 0 0
1 77 0 0
1 78 0 0
1 79 0 0
1 80 0 0
1 81 0 0
1 82 0 0
1 83 0 0
1 84 0 0
1 85 0 0
1 86 0 0
1 87 0 0
1 88 0 0
1 89 0 0
1 90 0 0
1 91 0 0
1 92 0 0
1 93 0 0
1 94 0 0
1 95 0 0
1 96 0 0
1 97 0 0
1 98 0 0
1 99 0 0
1 100 0 0
1 101 0 0
1 102 0 0
1 103 0 0
1 104 0 0
1 105 0 0
1 106 0 0
1 107 0 0
1 108 0 0
1 109 0 0
1 110 0 0
1 111 0 0
1 112 0 0
1 113 0 0
1 114 0 0
1 115 0 0
1 116 0 0
1 117 0 0
1 118 0 0
1 119 0 0
1 120 0 0
1 121 0 0
1 122 0 0
1 123 0 0
1 124 0 0
1 125 0 0
1 126 0 0
1 127 0 0
1 128 0 0
1 129 0 0
1 130 0 0
1 131 0 0
1 132 0 0
1 133 0 0
1 134 0 0
1 135 0 0
1 136 0 0
1 137 0 0
1 138 0 0
1 139 0 0
1 140 0 0
1 141 0 0
1 142 0 0
1 143 0 0
1 144 0 0
1 145 0 0
1 146 0 0
1 147 0 0
1 148 0 0
1 149 0 0
1 150 0 0
1 151 0 0
1 152 0 0
1 153 0 0
1 154 0 0
1 155 0 0
1 156 0 0
1 157 0 0
1 158 0 0
1 159 0 0
1 160 0 0
1 161 0 0
1 162 0 0
1 163 0 0
1 164 0 0
1 165 0 0
1 166 0 0
1 167 0 0
1 168 0 0
1 169 0 0
1 170 0 0
1 171 0 0
1 172 0 0
1 173 0 0
1 174 0 0
1 175 0 0
1 176 0 0
1 177 0 0
1 178 0 0
1 179 0 0
1 180 0 0
1 181 0 0
1 182 0 0
1 183 0 0
1 184 0 0
1 185 0 0
1 186 0 0
1 187 0 0
1 188 0 0
1 189 0 0
1 190 0 0
1 191 0 0
1 192 0 0
1 193 0 0
1 194 0 0
1 195 0 0
1 196 0 0
1 197 0 0
1 198 0 0
1 199 0 0
1 200 0 0
1 201 0 0
1 202 0 0
1 203 0 0
1 204 0 0
1 205 0 0
1 206 0 0
1 207 0 0
1 208 0 0
1 209 0 0
1 210 0 0
1 211 0 0
1 212 0 0
1 213 0 0
1 214 0 0
1 215 0 0
1 216 0 0
1 217 0 0
1 218 0 0
1 219 0 0
1 220 0 0
1 221 0 0
1 222 0 0
1 223 0 0
1 224 0 0
1 225 0 0
1 226 0 0
1 227 0 0
1 228 0 0
1 229 0 0
1 230 0 0
1 231 0 0
1 232 0 0
1 233 0 0
1 234 0 0
1 235 0 0
1 236 0 0
1 237 0 0
1 238 0 0
1 239 0 0
1 240 0 0
2 1 0 270
241
242
243
244
245
246
247
248
249
250
251
252
253
254
255
256
257
258
259
260
261
262
263
264
265
266
267
268
269
270
271
272
273
274
275
276
277
278
279
280
281
282
283
284
285
286
287
288
289
290
291
292
293
294
295
296
297
298
299
300
301
302
303
304
305
306
307
308
309
310
311
312
313
314
315
316
317
318
319
320
321
322
323
324
325
326
327
328
329
330
331
332
333
334
335
336
337
338
339
340
341
342
343
344
345
346
347
348
349
350
351
352
353
354
355
356
357
358
359
360
361
362
363
364
365
366
367
368
369
370
371
372
373
374
375
376
377
378
379
380
381
382
383
384
385
386
387
388
389
390
391
392
393
394
395
396
397
398
399
400
401
402
403
404
405
406
407
408
409
410
411
412
413
414
415
416
417
418
419
420
421
422
423
424
425
426
427
428
429
430
431
432
433
434
435
436
437
438
439
440
441
442
443
444
445
446
447
448
449
450
451
452
453
454
455
456
457
458
459
460
461
462
463
464
465
466
467
468
469
470
471
472
473
474
475
476
477
478
479
480
481
482
483
484
485
486
487
488
489
490
491
492
493
494
495
496
497
498
499
500
501
502
503
504
505
506
507
508
509
510
-0.1539148038907529 -0.4635881914141414 0
0.1539148038907527 0.4635881914141411 0
0.4635881914141414 -0.153914803890753 0
-0.4645740082474777 0.1554442887219237 0
0.2181015184640579 -0.4352006888379184 0
-0.4329866518060423 -0.2149975738523805 0
0.4351516055064544 0.2148301781603959 0
-0.218101518464058 0.4352006888379183 0
0.03495543554642978 -0.4855368466420296 0
-0.3226458948863304 -0.3716229197142448 0
0.3680436222907216 -0.3186091712623021 0
-0.03495543554642976 0.4855368466420296 0
0.4855368466420296 0.0349554355464298 0
-0.3650025145625325 0.3198157119128149 0
-0.4828030782482703 -0.03303804199415063 0
0.3177455824803972 0.3643196907389225 0
0.4255103472443473 -0.2395182065517461 0
0.1315163039311407 -0.4702462000719003 0
-0.4847799500879757 0.05845020850664098 0
0.3014606512936699 -0.3841217288872972 0
0.05845020850664091 0.4847799500879757 0
0.4847799500879757 -0.05845020850664105 0
-0.239518206551746 -0.4255103472443473 0
0.3841217288872971 0.3014606512936703 0
-0.3016796658422369 0.3818637452766458 0
-0.4255103472443473 0.2395182065517462 0
-0.4678231760659984 -0.1282893162141331 0
0.239518206551746 0.4255103472443474 0
-0.3841217288872971 -0.3014606512936702 0
-0.05845020850664118 -0.4847799500879756 0
-0.1315163039311409 0.4702462000719005 0
0.4702462000719004 0.1315163039311409 0
-0.3372148914691326 0.3443217855170179 0
-0.2917103407145793 0.3374966025090583 0
0.4471584023489429 0.1797796935666179 0
0.4131672598178083 0.139318224781316 0
-0.448114245088144 0.1979534273117675 0
-0.394471694450873 0.1597592698844621 0
0.3384499709127834 -0.3473717061912026 0
0.2881790685602447 -0.3213202213702945 0
-0.1797536040735939 0.450448806076345 0
-0.1454031259684038 0.4097971453689303 0
-0.4519015166489116 -0.1818337881483072 0
-0.4094699635579225 -0.1780356927305067 0
-0.006308619515321449 -0.4849491585649591 0
-0.02939900874669296 -0.4350315512997712 0
-0.3543710172858249 -0.3382500822515819 0
-0.2946666645193172 -0.3188445355457211 0
0.3479172557865364 0.3409269364067419 0
0.3045499245596617 0.3121356433513163 0
0.4849491585649591 -0.006308619515321437 0
0.4327855988027581 -0.02680344822343247 0
0.1797536040735939 -0.4504488060763451 0
0.1393182247813162 -0.4131672598178082 0
0.4481142450881439 -0.1979534273117677 0
0.388332748866641 -0.1887042165429621 0
-0.4871319439757502 0.004933511681038183 0
-0.4370710731301056 -0.007902360960727918 0
0.00630861951532149 0.4849491585649591 0
0.02939900874669307 0.4350315512997712 0
-0.1979534273117677 -0.4481142450881438 0
0.1979534273117676 0.4481142450881438 0
-0.1780840617850882 -0.3861997792420565 0
0.1936405096956961 0.3906662326671766 0
0.4021784485396619 0.260923752944255 0
-0.3949691440016533 0.2717132396606492 0
0.2475189660953384 -0.4135871322354406 0
0.4656224436668892 -0.1177534448202167 0
-0.1177534448202166 -0.4656224436668893 0
0.3869506500297311 -0.28738327886154 0
0.1177534448202164 0.4656224436668892 0
0.07040476333794586 -0.476826093903185 0
0.4812123306469583 0.07299130775227722 0
-0.07299130775227716 0.4812123306469584 0
-0.2488214172337887 0.4180685457798974 0
-0.4758587599114029 0.1022324742420291 0
-0.4087722318143922 -0.2641936802263563 0
-0.479511237108488 -0.08724281944840126 0
-0.2757884520768257 -0.4011519000491404 0
0.2768363262211073 0.4006302725892516 0
-0.4239897541262653 0.05987667263796072 0
-0.3734858149862463 0.006009120140521461 0
-0.3510458667594077 0.0712520467235359 0
-0.3054845839617728 0.01794967441559189 0
-0.2842768307923337 0.08356417761041539 0
-0.2361382044350945 0.03021469168059019 0
-0.211776545917148 0.09863153358027502 0
-0.1618059520419397 0.04297109279841485 0
-0.135647153741933 0.1174515504260269 0
-0.08201379354172079 0.05905473667237247 0
-0.1113705311082209 -0.01695494472629403 0
-0.02821721874586197 -0.005368678719204999 0
-0.001822750043045759 0.07567048524018757 0
0.05504905667269558 0.01227135042338624 0
0.02710241931758348 -0.07082331561209437 0
0.08150185751041482 0.09378660218416934 0
0.1222576643529693 -0.05192548487669867 0
0.08399767229378133 -0.1340615160992923 0
0.009842488018026421 -0.1493271554282587 0
0.0277439676925056 0.1549138040224292 0
-0.2623669636403285 -0.03417293235755471 0
0.1068009125433052 0.1703110992717522 0
0.1606390146804721 0.1120936583744459 0
0.1644924699429401 -0.123274257977499 0
0.1377522116204357 -0.1940719140250889 0
0.05368961866885254 0.2294189905019038 0
-0.1942433655421714 0.1645555469417489 0
0.2113445624308591 -0.1753695755138011 0
0.2387363032333578 -0.1129959059060646 0
0.1835186581271198 0.1851821559900503 0
0.2326419486207265 0.1269536638949829 0
-0.02524843934365854 0.2133231328289695 0
0.2141967285051495 0.05574727229916761 0
0.2795021236477047 0.07122695451620048 0
0.003324870279982711 0.2877240165603101 0
-0.07071144919757233 0.2748040304866737 0
0.08457990389364331 0.3060549339299761 0
0.1971056893889727 -0.2480895193558619 0
0.1139657768364859 -0.2648909468778466 0
-0.3873613584135105 -0.05316582329494896 0
-0.04144415843996621 0.3381096681753443 0
0.2507298364492136 0.1914386948686108 0
0.2043359366824158 0.2583673421504269 0
-0.342038258523354 -0.257422517365732 0
-0.2683434420540867 -0.2598452628534316 0
-0.2970409229716145 -0.1973321886439272 0
-0.2292735181644896 -0.2029787850980281 0
-0.2013936203510283 -0.2631776010761945 0
-0.1593482455705299 -0.2079610797575388 0
-0.134038624633408 -0.2774208252056263 0
-0.1900496310212974 -0.1460022544906343 0
-0.3718119141323051 0.2141503923057594 0
0.3440561061853257 0.2609168649347968 0
0.2809819276420861 -0.1595808576994051 0
0.3070515973688924 -0.09797448544339235 0
-0.1167775269830274 -0.1478790835158918 0
0.2697809741746103 0.005652675073998473 0
0.3310035692035765 0.03582784950464765 0
0.1619393783484651 -0.3166320527246135 0
0.09244515095723395 -0.3303541109785022 0
0.04458464115566848 -0.2801871424264336 0
0.02660961947511051 -0.3409150503013267 0
-0.02098093560359183 -0.2986597706714346 0
-0.2738866784819832 0.3948948281716241 0
0.08765277305369289 0.4787588427904628 0
-0.08765277305369309 -0.4787588427904628 0
0.2765537540740886 -0.4005134945062324 0
0.4787588427904628 -0.08765277305369314 0
-0.1033906800200464 0.4751060236956596 0
0.4747260612799361 0.1042262748418653 0
0.1022324742420289 -0.4758587599114029 0
0.4087722318143919 -0.2641936802263566 0
-0.1151777418012222 0.3289819531718588 0
-0.138405402067977 0.2685410190782913 0
-0.1873756318591238 0.3130993292019018 0
0.4390368115992626 0.03890527268588629 0
0.1341020923731187 0.4167150156036176 0
-0.04015877973404891 0.4378939286208937 0
0.3336021567361942 -0.2849894529920769 0
-0.1307281228103629 -0.4158263873535628 0
0.4166234945333692 -0.1325874661283078 0
0.2690884518162745 -0.2656149930755929 0
-0.3336868669622365 0.1404196846566223 0
-0.2983911654713589 0.206463898876152 0
0.0337792400649605 -0.4415035000463017 0
-0.3377189276577122 0.2831318320335129 0
-0.2561727096790984 0.2736780023601886 0
0.3913709221999512 0.2020756492379021 0
0.3550725406885081 0.1388693088888452 0
0.1396107899328613 0.3522894555152031 0
-0.1378866848363094 -0.3512531869100955 0
-0.0812691020190633 -0.3813275008468172 0
-0.2978379012284736 -0.3736030816484476 0
-0.4176728671506498 -0.238623442814492 0
-0.3768529136435388 0.2983935946306686 0
0.2946042606893768 0.3802972325284262 0
-0.4653475648805587 0.1268676088109021 0
0.4200054570358496 0.2336591897990241 0
-0.4785660646566977 -0.06079216267681564 0
0.1962428509719081 -0.01545171506912124 0
0.02917965519604943 0.356423875274824 0
0.1979187821101144 -0.3827543622811858 0
-0.1166658340916341 0.2027551837840968 0
0.1306177163614683 0.2410965133475627 0
-0.06116650088657322 -0.09097251970319653 0
0.4395116250780316 -0.1730698143220074 0
-0.1718279928222235 -0.4395255027825055 0
0.1464739409150002 -0.4495604563853081 0
-0.03671506244750979 -0.471392854742212 0
-0.4222031647108548 0.2105027327867855 0
0.4234501340450654 -0.2117885245530518 0
0.3074787121011353 -0.358684361895206 0
0.1746288449027933 0.4395164013112772 0
-0.2103036583801474 -0.4229337025625878 0
-0.356049322586356 -0.309508954132771 0
0.3558839179739213 0.3119091191719517 0
-0.3308551072459288 -0.3478785099479111 0
-0.4473906306173006 -0.1496948109936293 0
-0.4407437478331137 0.1702957165550997 0
-0.3173239034142268 0.3636681251454858 0
0.03671506244750972 0.4713928547422125 0
0.4712018723870242 -0.03649435151866106 0
-0.4717448740796639 0.03085163060901316 0
0.4494110719958767 0.1466966137382599 0
0.2086514329251876 0.4331135013365886 0
-0.1456973844276915 0.4503201742768992 0
0.1989419938467807 0.32527968499676 0
-0.0556090005115811 0.1371948154956804 0
-0.01705542923811172 -0.226204973698043 0
-0.2061394463925686 0.3836533572348802 0
0.3848582020092574 0.07747310776299253 0
0.1383145287822682 0.03442028055589154 0
0.2259781504120009 -0.3083299628618307 0
-0.2603005709240087 -0.1430953757391274 0
-0.3252183837416371 -0.1372238090890846 0
0.06218122678104768 -0.2081239414258272 0
-0.09053768084378222 -0.2141575872954759 0
-0.1894853329331627 -0.02512739382977168 0
0.3465400906973006 -0.1460490596571133 0
0.3788555911444985 -0.07357221869756767 0
0.2755649938256658 0.2546531445585876 0
-0.3974381415149211 -0.1167094606823513 0
-0.2381701412167746 -0.3102619965962011 0
-0.3270364059582136 -0.04397455525189954 0
-0.1502444184736907 -0.08490799043619618 0
-0.1967629283698718 0.2376143541484316 0
-0.2604336484495015 0.144751320138423 0
0.3203259854345142 -0.2133813248640355 0
0.08252918293405688 0.3828436634669932 0
0.3181153361246259 0.1971248256203137 0
-0.08742302690718375 0.3843213867821967 0
0.325005251579132 -0.0327741563439612 0
0.2611322051990137 0.3499622173181604 0
-0.2244488586490105 -0.08950172463489485 0
0.3819241707230808 0.003176067781427524 0
-0.4311388352586507 0.1210864850452542 0
-0.3937939450688477 -0.2224653063924471 0
-0.2921320049844709 -0.09084694538055454 0
0.06995465781668785 -0.3841755127499897 0
-0.08631420104327288 -0.3203758840972571 0
-0.1839475498343149 -0.319405743853518 0
0.150781268253473 0.2972445582412668 0
-0.02208946022769127 0.390356082030606 0
0.2552275076039784 -0.05435255650677004 0
-0.2412007635024004 0.2054126244929888 0
-0.1509345913050845 0.3639668955625022 0
-0.2377760030740975 0.339500959757903 0
0.2951175727821152 0.1356433781406346 0
-0.2397895794490859 -0.3697388858427524 0
0.01472866879571387 -0.3918970677431178 0
0.2635840120923703 -0.3670444662910695 0
-0.07742396034345427 -0.4475342186839558 0
0.4469468276304253 -0.07618770156407427 0
0.09909708644129717 -0.4444768261265566 0
0.3838491791672692 -0.2414226692273956 0
0.07808596755456121 0.447877760236846 0
-0.3503741613482855 -0.09069029023945495 0
0.2559283319533964 -0.2116242960273416 0
-0.02839112818190618 -0.3596495609721561 0
-0.06978537427243332 -0.2673638081935674 0
0.1353605203095943 -0.3619803629270007 0
-0.05727557674243671 -0.1630631584216578 0
-0.4426194401420039 -0.06684799562824785 0
0.2465766397996138 0.3015826420407366 0
0.4446654196315714 0.1015895864991055 0
-0.1037972298201132 0.4441281699233482 0
-0.3564204178000062 -0.1832260220720826 0
-0.3868666035114867 0.110478831789567 0
0.1945480682959703 -0.0725717513520793 0
0.3318207687661574 0.09006381019149207 0
$EndNodes
$Elements
241 1018 1 1018
1 1 1 1
1 1 2 
1 2 1 1
2 2 3 
1 3 1 1
3 3 4 
1 4 1 1
4 4 5 
1 5 1 1
5 5 6 
1 6 1 1
6 6 7 
1 7 1 1
7 7 8 
1 8 1 1
8 8 9 
1 9 1 1
9 9 10 
1 10 1 1
10 10 11 
1 11 1 1
11 11 12 
1 12 1 1
12 12 13 
1 13 1 1
13 13 14 
1 14 1 1
14 14 15 
1 15 1 1
15 15 16 
1 16 1 1
16 16 17 
1 17 1 1
17 17 18 
1 18 1 1
18 18 19 
1 19 1 1
19 19 20 
1 20 1 1
20 20 21 
1 21 1 1
21 21 22 
1 22 1 1
22 22 23 
1 23 1 1
23 23 24 
1 24 1 1
24 24 25 
1 25 1 1
25 25 26 
1 26 1 1
26 26 27 
1 27 1 1
27 27 28 
1 28 1 1
28 28 29 
1 29 1 1
29 29 30 
1 30 1 1
30 30 31 
1 31 1 1
31 31 32 
1 32 1 1
32 32 33 
1 33 1 1
33 33 34 
1 34 1 1
34 34 35 
1 35 1 1
35 35 36 
1 36 1 1
36 36 37 
1 37 1 1
37 37 38 
1 38 1 1
38 38 39 
1 39 1 1
39 39 40 
1 40 1 1
40 40 41 
1 41 1 1
41 41 42 
1 42 1 1
42 42 43 
1 43 1 1
43 43 44 
1 44 1 1
44 44 45 
1 45 1 1
45 45 46 
1 46 1 1
46 46 47 
1 47 1 1
47 47 48 
1 48 1 1
48 48 49 
1 49 1 1
49 49 50 
1 50 1 1
50 50 51 
1 51 1 1
51 51 52 
1 52 1 1
52 52 53 
1 53 1 1
53 53 54 
1 54 1 1
54 54 55 
1 55 1 1
55 55 56 
1 56 1 1
56 56 57 
1 57 1 1
57 57 58 
1 58 1 1
58 58 59 
1 59 1 1
59 59 60 
1 60 1 1
60 60 61 
1 61 1 1
61 61 62 
1 62 1 1
62 62 63 
1 63 1 1
63 63 64 
1 64 1 1
64 64 65 
1 65 1 1
65 65 66 
1 66 1 1
66 66 67 
1 67 1 1
67 67 68 
1 68 1 1
68 68 69 
1 69 1 1
69 69 70 
1 70 1 1
70 70 71 
1 71 1 1
71 71 72 
1 72 1 1
72 72 73 
1 73 1 1
73 73 74 
1 74 1 1
74 74 75 
1 75 1 1
75 75 76 
1 76 1 1
76 76 77 
1 77 1 1
77 77 78 
1 78 1 1
78 78 79 
1 79 1 1
79 79 80 
1 80 1 1
80 80 81 
1 81 1 1
81 81 82 
1 82 1 1
82 82 83 
1 83 1 1
83 83 84 
1 84 1 1
84 84 85 
1 85 1 1
85 85 86 
1 86 1 1
86 86 87 
1 87 1 1
87 87 88 
1 88 1 1
88 88 89 
1 89 1 1
89 89 90 
1 90 1 1
90 90 91 
1 91 1 1
91 91 92 
1 92 1 1
92 92 93 
1 93 1 1
93 93 94 
1 94 1 1
94 94 95 
1 95 1 1
95 95 96 
1 96 1 1
96 96 97 
1 97 1 1
97 97 98 
1 98 1 1
98 98 99 
1 99 1 1
99 99 100 
1 100 1 1
100 100 101 
1 101 1 1
101 101 102 
1 102 1 1
102 102 103 
1 103 1 1
103 103 104 
1 104 1 1
104 104 105 
1 105 1 1
105 105 106 
1 106 1 1
106 106 107 
1 107 1 1
107 107 108 
1 108 1 1
108 108 109 
1 109 1 1
109 109 110 
1 110 1 1
110 110 111 
1 111 1 1
111 111 112 
1 112 1 1
112 112 113 
1 113 1 1
113 113 114 
1 114 1 1
114 114 115 
1 115 1 1
115 115 116 
1 116 1 1
116 116 117 
1 117 1 1
117 117 118 
1 118 1 1
118 118 119 
1 119 1 1
119 119 120 
1 120 1 1
120 120 121 
1 121 1 1
121 121 122 
1 122 1 1
122 122 123 
1 123 1 1
123 123 124 
1 124 1 1
124 124 125 
1 125 1 1
125 125 126 
1 126 1 1
126 126 127 
1 127 1 1
127 127 128 
1 128 1 1
128 128 129 
1 129 1 1
129 129 130 
1 130 1 1
130 130 131 
1 131 1 1
131 131 132 
1 132 1 1
132 132 133 
1 133 1 1
133 133 134 
1 134 1 1
134 134 135 
1 135 1 1
135 135 136 
1 136 1 1
136 136 137 
1 137 1 1
137 137 138 
1 138 1 1
138 138 139 
1 139 1 1
139 139 140 
1 140 1 1
140 140 141 
1 141 1 1
141 141 142 
1 142 1 1
142 142 143 
1 143 1 1
143 143 144 
1 144 1 1
144 144 145 
1 145 1 1
145 145 146 
1 146 1 1
146 146 147 
1 147 1 1
147 147 148 
1 148 1 1
148 148 149 
1 149 1 1
149 149 150 
1 150 1 1
150 150 151 
1 151 1 1
151 151 152 
1 152 1 1
152 152 153 
1 153 1 1
153 153 154 
1 154 1 1
154 154 155 
1 155 1 1
155 155 156 
1 156 1 1
156 156 157 
1 157 1 1
157 157 158 
1 158 1 1
158 158 159 
1 159 1 1
159 159 160 
1 160 1 1
160 160 161 
1 161 1 1
161 161 162 
1 162 1 1
162 162 163 
1 163 1 1
163 163 164 
1 164 1 1
164 164 165 
1 165 1 1
165 165 166 
1 166 1 1
166 166 167 
1 167 1 1
167 167 168 
1 168 1 1
168 168 169 
1 169 1 1
169 169 170 
1 170 1 1
170 170 171 
1 171 1 1
171 171 172 
1 172 1 1
172 172 173 
1 173 1 1
173 173 174 
1 174 1 1
174 174 175 
1 175 1 1
175 175 176 
1 176 1 1
176 176 177 
1 177 1 1
177 177 178 
1 178 1 1
178 178 179 
1 179 1 1
179 179 180 
1 180 1 1
180 180 181 
1 181 1 1
181 181 182 
1 182 1 1
182 182 183 
1 183 1 1
183 183 184 
1 184 1 1
184 184 185 
1 185 1 1
185 185 186 
1 186 1 1
186 186 187 
1 187 1 1
187 187 188 
1 188 1 1
188 188 189 
1 189 1 1
189 189 190 
1 190 1 1
190 190 191 
1 191 1 1
191 191 192 
1 192 1 1
192 192 193 
1 193 1 1
193 193 194 
1 194 1 1
194 194 195 
1 195 1 1
195 195 196 
1 196 1 1
196 196 197 
1 197 1 1
197 197 198 
1 198 1 1
198 198 199 
1 199 1 1
199 199 200 
1 200 1 1
200 200 201 
1 201 1 1
201 201 202 
1 202 1 1
202 202 203 
1 203 1 1
203 203 204 
1 204 1 1
204 204 205 
1 205 1 1
205 205 206 
1 206 1 1
206 206 207 
1 207 1 1
207 207 208 
1 208 1 1
208 208 209 
1 209 1 1
209 209 210 
1 210 1 1
210 210 211 
1 211 1 1
211 211 212 
1 212 1 1
212 212 213 
1 213 1 1
213 213 214 
1 214 1 1
214 214 215 
1 215 1 1
215 215 216 
1 216 1 1
216 216 217 
1 217 1 1
217 217 218 
1 218 1 1
218 218 219 
1 219 1 1
219 219 220 
1 220 1 1
220 220 221 
1 221 1 1
221 221 222 
1 222 1 1
222 222 223 
1 223 1 1
223 223 224 
1 224 1 1
224 224 225 
1 225 1 1
225 225 226 
1 226 1 1
226 226 227 
1 227 1 1
227 227 228 
1 228 1 1
228 228 229 
1 229 1 1
229 229 230 
1 230 1 1
230 230 231 
1 231 1 1
231 231 232 
1 232 1 1
232 232 233 
1 233 1 1
233 233 234 
1 234 1 1
234 234 235 
1 235 1 1
235 235 236 
1 236 1 1
236 236 237 
1 237 1 1
237 237 238 
1 238 1 1
238 238 239 
1 239 1 1
239 239 240 
1 240 1 1
240 240 1 
2 1 2 778
241 459 468 296 
242 356 423 352 
243 372 406 306 
244 373 408 305 
245 254 406 273 
246 247 408 275 
247 394 466 423 
248 407 466 395 
249 304 473 268 
250 273 406 274 
251 275 408 276 
252 292 475 460 
253 423 466 347 
254 413 489 288 
255 325 403 323 
256 461 470 373 
257 268 473 320 
258 395 487 407 
259 374 468 459 
260 462 503 267 
261 394 423 356 
262 460 475 472 
263 279 399 280 
264 281 450 282 
265 291 396 292 
266 285 405 286 
267 299 398 300 
268 293 422 294 
269 404 407 406 
270 325 467 403 
271 421 469 300 
272 252 398 299 
273 251 399 279 
274 248 450 281 
275 253 396 291 
276 249 405 285 
277 245 422 293 
278 245 293 202 
279 255 297 127 
280 251 279 217 
281 246 283 142 
282 249 285 187 
283 248 281 82 
284 252 299 67 
285 253 291 7 
286 254 273 97 
287 247 275 22 
288 256 289 37 
289 469 496 300 
290 422 453 379 
291 267 503 318 
292 358 453 402 
293 403 508 323 
294 362 470 461 
295 420 452 337 
296 471 483 398 
297 402 498 358 
298 404 406 372 
299 337 452 334 
300 447 473 304 
301 468 495 296 
302 423 448 352 
303 384 450 315 
304 438 462 267 
305 406 415 306 
306 408 418 305 
307 288 489 463 
308 274 487 384 
309 361 483 471 
310 384 487 450 
311 274 384 265 
312 286 499 412 
313 330 448 329 
314 378 475 451 
315 363 424 350 
316 259 321 316 
317 269 364 317 
318 266 372 306 
319 264 373 305 
320 331 465 425 
321 339 456 338 
322 460 493 292 
323 425 465 376 
324 397 410 304 
325 399 402 280 
326 400 411 303 
327 379 501 422 
328 284 507 462 
329 395 466 394 
330 404 485 407 
331 410 469 357 
332 479 494 294 
333 403 467 404 
334 355 421 361 
335 412 492 286 
336 350 424 342 
337 422 501 294 
338 329 448 423 
339 373 470 408 
340 346 424 357 
341 294 501 479 
342 422 491 453 
343 333 448 330 
344 462 507 455 
345 364 477 317 
346 321 476 316 
347 357 421 355 
348 345 348 344 
349 342 424 346 
350 351 362 350 
351 345 358 348 
352 451 475 396 
353 357 482 410 
354 449 456 339 
355 338 345 344 
356 355 361 356 
357 342 346 340 
358 338 344 337 
359 343 350 342 
360 336 342 340 
361 370 481 411 
362 300 483 421 
363 401 459 296 
364 348 374 349 
365 346 357 355 
366 346 355 352 
367 359 379 358 
368 364 507 477 
369 335 338 337 
370 343 351 350 
371 362 363 350 
372 361 393 356 
373 377 378 354 
374 336 340 333 
375 366 507 364 
376 374 375 349 
377 334 452 336 
378 481 489 303 
379 355 356 352 
380 331 425 332 
381 336 343 342 
382 374 459 375 
383 449 502 457 
384 353 354 351 
385 335 337 334 
386 359 380 379 
387 348 349 344 
388 335 339 338 
389 337 509 420 
390 480 499 383 
391 393 395 394 
392 346 352 340 
393 490 499 286 
394 345 359 358 
395 334 336 333 
396 298 322 321 
397 278 403 372 
398 288 365 364 
399 408 409 276 
400 406 407 274 
401 329 347 327 
402 353 377 354 
403 381 382 380 
404 457 500 449 
405 332 425 335 
406 329 423 347 
407 379 453 358 
408 451 510 378 
409 358 498 348 
410 343 353 351 
411 472 475 378 
412 304 433 397 
413 303 427 400 
414 296 426 401 
415 332 335 334 
416 338 456 345 
417 357 469 421 
418 454 455 366 
419 363 482 424 
420 393 394 356 
421 340 448 333 
422 335 425 339 
423 407 487 274 
424 410 447 304 
425 420 484 377 
426 400 412 411 
427 381 383 382 
428 286 429 285 
429 292 442 291 
430 300 441 299 
431 274 440 273 
432 280 432 279 
433 294 428 293 
434 282 446 281 
435 276 444 275 
436 411 480 370 
437 298 360 322 
438 347 467 327 
439 288 437 413 
440 332 334 333 
441 359 381 380 
442 352 448 340 
443 424 482 357 
444 368 370 369 
445 290 461 373 
446 396 475 292 
447 411 481 303 
448 360 464 322 
449 332 333 330 
450 365 368 367 
451 353 420 377 
452 365 366 364 
453 403 404 372 
454 322 323 321 
455 324 341 326 
456 402 453 280 
457 413 437 250 
458 398 483 300 
459 412 499 480 
460 450 486 282 
461 405 490 286 
462 421 483 361 
463 447 482 363 
464 328 329 327 
465 328 331 330 
466 265 440 274 
467 268 445 304 
468 377 472 378 
469 269 317 149 
470 264 305 29 
471 268 320 44 
472 259 316 119 
473 267 318 134 
474 263 319 164 
475 266 306 104 
476 401 460 459 
477 420 509 484 
478 336 452 343 
479 326 327 325 
480 344 509 337 
481 381 449 383 
482 324 325 323 
483 368 369 367 
484 409 451 276 
485 369 371 367 
486 367 454 366 
487 351 488 362 
488 372 430 278 
489 364 435 288 
490 373 436 290 
491 321 443 298 
492 322 464 324 
493 365 367 366 
494 322 324 323 
495 328 330 329 
496 331 332 330 
497 370 457 369 
498 345 456 359 
499 368 481 370 
500 326 328 327 
501 369 376 371 
502 324 326 325 
503 339 502 449 
504 288 463 365 
505 247 418 408 
506 254 415 406 
507 343 452 353 
508 328 458 331 
509 362 461 363 
510 341 458 326 
511 282 486 471 
512 371 454 367 
513 353 452 420 
514 359 456 381 
515 365 463 368 
516 449 500 383 
517 259 443 321 
518 264 436 373 
519 269 435 364 
520 266 430 372 
521 399 468 402 
522 323 508 321 
523 324 464 341 
524 369 457 376 
525 463 489 481 
526 381 456 449 
527 319 489 413 
528 326 458 328 
529 459 460 375 
530 407 485 466 
531 361 471 393 
532 458 474 465 
533 471 486 393 
534 321 508 476 
535 378 510 354 
536 327 467 325 
537 397 469 410 
538 362 488 470 
539 458 465 331 
540 256 473 290 
541 246 477 284 
542 376 502 425 
543 341 474 458 
544 376 465 371 
545 408 470 409 
546 244 476 439 
547 363 504 447 
548 354 488 351 
549 382 479 380 
550 347 485 467 
551 284 462 438 
552 416 473 256 
553 417 476 244 
554 414 477 246 
555 455 497 462 
556 360 503 462 
557 479 501 380 
558 465 474 371 
559 393 486 395 
560 425 502 339 
561 450 487 395 
562 348 498 374 
563 255 503 298 
564 400 492 412 
565 377 484 472 
566 398 506 471 
567 455 507 366 
568 380 501 379 
569 383 499 382 
570 401 493 460 
571 395 486 450 
572 228 431 227 
573 183 429 182 
574 168 434 167 
575 3 442 2 
576 123 443 122 
577 63 441 62 
578 93 440 92 
579 33 436 32 
580 138 438 137 
581 198 428 197 
582 78 446 77 
583 153 435 152 
584 18 444 17 
585 232 426 231 
586 157 437 156 
587 108 430 107 
588 48 445 47 
589 172 427 171 
590 112 439 111 
591 52 433 51 
592 213 432 212 
593 454 478 455 
594 439 476 278 
595 298 503 360 
596 460 472 375 
597 375 484 349 
598 383 500 480 
599 453 491 280 
600 412 480 411 
601 278 508 403 
602 479 490 405 
603 71 314 70 
604 11 313 10 
605 56 311 55 
606 86 315 85 
607 236 308 235 
608 176 309 175 
609 221 310 220 
610 191 312 190 
611 206 307 205 
612 341 478 474 
613 410 482 447 
614 434 489 263 
615 447 504 473 
616 371 474 454 
617 255 298 297 
618 246 284 283 
619 256 290 289 
620 290 504 461 
621 313 505 396 
622 464 478 341 
623 474 478 454 
624 484 509 349 
625 399 495 468 
626 205 307 245 
627 220 310 251 
628 190 312 249 
629 175 309 241 
630 235 308 243 
631 10 313 253 
632 70 314 252 
633 85 315 248 
634 55 311 242 
635 307 491 422 
636 309 492 400 
637 312 494 405 
638 308 493 401 
639 310 495 399 
640 311 496 397 
641 446 506 271 
642 349 509 344 
643 396 505 451 
644 419 503 255 
645 382 490 479 
646 303 489 434 
647 370 500 457 
648 360 497 464 
649 263 489 319 
650 432 491 260 
651 442 493 262 
652 428 494 258 
653 441 496 261 
654 429 492 270 
655 431 495 257 
656 467 485 404 
657 451 505 276 
658 468 498 402 
659 463 481 368 
660 461 504 363 
661 397 496 469 
662 165 263 164 
663 45 268 44 
664 150 269 149 
665 120 259 119 
666 30 264 29 
667 135 267 134 
668 105 266 104 
669 42 320 41 
670 225 392 224 
671 75 389 74 
672 102 306 101 
673 149 317 148 
674 195 391 194 
675 15 390 14 
676 117 316 116 
677 134 318 133 
678 132 318 131 
679 60 385 59 
680 27 305 26 
681 29 305 28 
682 58 385 57 
683 208 387 207 
684 210 387 209 
685 162 319 161 
686 119 316 118 
687 73 314 72 
688 178 386 177 
689 238 388 237 
690 104 306 103 
691 180 386 179 
692 240 388 239 
693 147 317 146 
694 13 313 12 
695 164 319 163 
696 88 315 87 
697 193 391 192 
698 90 384 89 
699 44 320 43 
700 223 392 222 
701 282 506 446 
702 472 484 375 
703 313 396 253 
704 310 399 251 
705 312 405 249 
706 314 398 252 
707 311 397 242 
708 315 450 248 
709 307 422 245 
710 309 400 241 
711 308 401 243 
712 314 506 398 
713 374 498 468 
714 473 504 290 
715 466 485 347 
716 470 488 409 
717 280 491 432 
718 292 493 442 
719 294 494 428 
720 300 496 441 
721 286 492 429 
722 296 495 431 
723 354 510 488 
724 457 502 376 
725 462 497 360 
726 488 510 409 
727 471 506 282 
728 409 510 451 
729 478 497 455 
730 476 508 278 
731 464 497 478 
732 444 505 272 
733 2 262 1 
734 227 257 226 
735 212 260 211 
736 197 258 196 
737 62 261 61 
738 32 264 31 
739 182 270 181 
740 107 266 106 
741 122 259 121 
742 167 263 166 
743 17 272 16 
744 137 267 136 
745 77 271 76 
746 47 268 46 
747 152 269 151 
748 92 265 91 
749 284 438 283 
750 298 443 297 
751 290 436 289 
752 262 493 388 
753 260 491 387 
754 270 492 386 
755 261 496 385 
756 258 494 391 
757 257 495 392 
758 405 494 479 
759 271 506 389 
760 387 491 307 
761 388 493 308 
762 385 496 311 
763 386 492 309 
764 391 494 312 
765 392 495 310 
766 276 505 444 
767 390 505 313 
768 480 500 370 
769 397 433 242 
770 400 427 241 
771 401 426 243 
772 320 473 416 
773 477 507 284 
774 316 476 417 
775 317 477 414 
776 272 505 390 
777 382 499 490 
778 430 439 278 
779 435 437 288 
780 389 506 314 
781 304 445 433 
782 303 434 427 
783 296 431 426 
784 229 295 228 
785 199 293 198 
786 156 287 155 
787 128 255 127 
788 169 301 168 
789 109 277 108 
790 184 285 183 
791 188 249 187 
792 81 281 80 
793 171 301 170 
794 34 289 33 
795 126 297 125 
796 83 248 82 
797 139 283 138 
798 40 256 39 
799 68 252 67 
800 160 250 159 
801 190 249 189 
802 201 293 200 
803 231 295 230 
804 51 302 50 
805 98 254 97 
806 8 253 7 
807 25 247 24 
808 100 254 99 
809 220 251 219 
810 94 273 93 
811 216 279 215 
812 6 291 5 
813 218 251 217 
814 141 283 140 
815 158 250 157 
816 19 275 18 
817 53 242 52 
818 115 244 114 
819 96 273 95 
820 49 302 48 
821 85 248 84 
822 214 279 213 
823 21 275 20 
824 70 252 69 
825 145 246 144 
826 130 255 129 
827 66 299 65 
828 10 253 9 
829 113 244 112 
830 143 246 142 
831 154 287 153 
832 23 247 22 
833 64 299 63 
834 124 297 123 
835 4 291 3 
836 203 245 202 
837 173 241 172 
838 233 243 232 
839 186 285 185 
840 79 281 78 
841 55 242 54 
842 111 277 110 
843 38 256 37 
844 205 245 204 
845 235 243 234 
846 175 241 174 
847 36 289 35 
848 318 503 419 
849 427 434 301 
850 426 431 295 
851 277 439 430 
852 433 445 302 
853 287 437 435 
854 182 429 270 
855 227 431 257 
856 2 442 262 
857 62 441 261 
858 122 443 259 
859 32 436 264 
860 92 440 265 
861 167 434 263 
862 152 435 269 
863 137 438 267 
864 197 428 258 
865 77 446 271 
866 17 444 272 
867 212 432 260 
868 107 430 266 
869 47 445 268 
870 295 431 228 
871 285 429 183 
872 301 434 168 
873 291 442 3 
874 297 443 123 
875 283 438 138 
876 299 441 63 
877 289 436 33 
878 273 440 93 
879 281 446 78 
880 293 428 198 
881 275 444 18 
882 287 435 153 
883 231 426 295 
884 156 437 287 
885 171 427 301 
886 111 439 277 
887 250 437 157 
888 277 430 108 
889 243 426 232 
890 51 433 302 
891 302 445 48 
892 241 427 172 
893 244 439 112 
894 242 433 52 
895 279 432 213 
896 320 416 41 
897 271 389 75 
898 272 390 15 
899 318 419 131 
900 305 418 26 
901 257 392 225 
902 262 388 240 
903 319 413 161 
904 261 385 60 
905 258 391 195 
906 317 414 146 
907 316 417 116 
908 270 386 180 
909 260 387 210 
910 306 415 101 
911 265 384 90 
912 88 384 315 
913 57 385 311 
914 177 386 309 
915 207 387 307 
916 237 388 308 
917 73 389 314 
918 13 390 313 
919 192 391 312 
920 222 392 310 
921 72 314 71 
922 89 384 88 
923 133 318 132 
924 43 320 42 
925 209 387 208 
926 59 385 58 
927 103 306 102 
928 28 305 27 
929 87 315 86 
930 12 313 11 
931 14 390 13 
932 57 311 56 
933 192 312 191 
934 179 386 178 
935 222 310 221 
936 148 317 147 
937 224 392 223 
938 118 316 117 
939 239 388 238 
940 194 391 193 
941 74 389 73 
942 177 309 176 
943 163 319 162 
944 207 307 206 
945 237 308 236 
946 1 262 240 
947 31 264 30 
948 41 416 40 
949 61 261 60 
950 166 263 165 
951 211 260 210 
952 16 272 15 
953 46 268 45 
954 196 258 195 
955 26 418 25 
956 181 270 180 
957 146 414 145 
958 91 265 90 
959 106 266 105 
960 161 413 160 
961 136 267 135 
962 121 259 120 
963 151 269 150 
964 131 419 130 
965 226 257 225 
966 101 415 100 
967 76 271 75 
968 116 417 115 
969 100 415 254 
970 115 417 244 
971 160 413 250 
972 40 416 256 
973 145 414 246 
974 25 418 247 
975 130 419 255 
976 129 255 128 
977 39 256 38 
978 114 244 113 
979 125 297 124 
980 84 248 83 
981 99 254 98 
982 54 242 53 
983 20 275 19 
984 80 281 79 
985 50 302 49 
986 5 291 4 
987 9 253 8 
988 65 299 64 
989 215 279 214 
990 24 247 23 
991 69 252 68 
992 35 289 34 
993 144 246 143 
994 95 273 94 
995 219 251 218 
996 185 285 184 
997 110 277 109 
998 189 249 188 
999 140 283 139 
1000 159 250 158 
1001 155 287 154 
1002 170 301 169 
1003 200 293 199 
1004 230 295 229 
1005 174 241 173 
1006 204 245 203 
1007 234 243 233 
1008 7 291 6 
1009 22 275 21 
1010 37 289 36 
1011 67 299 66 
1012 82 281 81 
1013 97 273 96 
1014 127 297 126 
1015 142 283 141 
1016 187 285 186 
1017 202 293 201 
1018 217 279 216 
$EndElements
