$MeshFormat
4.1 0 8
$EndMeshFormat
$PhysicalNames
18
1 1 "Electrode1"
1 2 "Electrode2"
1 3 "Electrode3"
1 4 "Electrode4"
1 5 "Electrode5"
1 6 "Electrode6"
1 7 "Electrode7"
1 8 "Electrode8"
1 9 "Electrode9"
1 10 "Electrode10"
1 11 "Electrode11"
1 12 "Electrode12"
1 13 "Electrode13"
1 14 "Electrode14"
1 15 "Electrode15"
1 16 "Electrode16"
1 17 "No-Electrode"
2 1 "domain"
$EndPhysicalNames
$Entities
192 192 1 0
1 0.9945218953682733 -0.1045284632676535 0 0 
2 0.9972037971811801 -0.07473009358642424 0 0 
3 0.9989930665413147 -0.04486483035051493 0 0 
4 0.9998881018102734 -0.01495940701526363 0 0 
5 0.9998881018102734 0.01495940701526361 0 0 
6 0.9989930665413147 0.04486483035051492 0 0 
7 0.9972037971811801 0.07473009358642423 0 0 
8 0.9945218953682733 0.1045284632676535 0 0 
9 0.9900236577165575 0.1409012319375827 0 0 
10 0.9841956079692419 0.1770847403195833 0 0 
11 0.9770455744352636 0.2130303862749766 0 0 
12 0.9685831611286311 0.2486898871648548 0 0 
13 0.9588197348681931 0.2840153447039226 0 0 
14 0.949894146672846 0.3125717679456445 0 0 
15 0.940118274569219 0.3408483971225249 0 0 
16 0.9295008692868207 0.3688199208218619 0 0 
17 0.9180514348413259 0.3964613007416775 0 0 
18 0.905780220027194 0.4237477941033887 0 0 
19 0.8926982092436115 0.4506549757999452 0 0 
20 0.8788171126619654 0.4771587602596084 0 0 
21 0.8607420270039436 0.5090414157503713 0 0 
22 0.8415107819453062 0.540240320477655 0 0 
23 0.821149209133704 0.5707135676844316 0 0 
24 0.7996846584870906 0.600420225325884 0 0 
25 0.7771459614569708 0.6293203910498375 0 0 
26 0.7579717231454529 0.6522874112781212 0 0 
27 0.7381189974873407 0.6746705459320743 0 0 
28 0.7176055553608119 0.6964497590747668 0 0 
29 0.6964497590747669 0.7176055553608117 0 0 
30 0.6746705459320743 0.7381189974873406 0 0 
31 0.6522874112781212 0.7579717231454529 0 0 
32 0.6293203910498375 0.7771459614569708 0 0 
33 0.6004202253258841 0.7996846584870905 0 0 
34 0.5707135676844318 0.8211492091337039 0 0 
35 0.5402403204776551 0.8415107819453062 0 0 
36 0.5090414157503712 0.8607420270039436 0 0 
37 0.4771587602596084 0.8788171126619654 0 0 
38 0.4506549757999451 0.8926982092436115 0 0 
39 0.4237477941033888 0.905780220027194 0 0 
40 0.3964613007416776 0.9180514348413258 0 0 
41 0.368819920821862 0.9295008692868207 0 0 
42 0.340848397122525 0.940118274569219 0 0 
43 0.3125717679456447 0.9498941466728459 0 0 
44 0.2840153447039228 0.9588197348681931 0 0 
45 0.248689887164855 0.9685831611286311 0 0 
46 0.2130303862749766 0.9770455744352636 0 0 
47 0.1770847403195834 0.9841956079692419 0 0 
48 0.1409012319375826 0.9900236577165575 0 0 
49 0.1045284632676535 0.9945218953682733 0 0 
50 0.07473009358642417 0.9972037971811801 0 0 
51 0.04486483035051499 0.9989930665413146 0 0 
52 0.01495940701526361 0.9998881018102734 0 0 
53 -0.01495940701526348 0.9998881018102734 0 0 
54 -0.04486483035051464 0.9989930665413147 0 0 
55 -0.07473009358642427 0.9972037971811801 0 0 
56 -0.1045284632676533 0.9945218953682734 0 0 
57 -0.1409012319375827 0.9900236577165575 0 0 
58 -0.1770847403195833 0.9841956079692419 0 0 
59 -0.2130303862749765 0.9770455744352636 0 0 
60 -0.2486898871648546 0.9685831611286312 0 0 
61 -0.2840153447039226 0.9588197348681931 0 0 
62 -0.3125717679456443 0.949894146672846 0 0 
63 -0.340848397122525 0.940118274569219 0 0 
64 -0.3688199208218619 0.9295008692868207 0 0 
65 -0.3964613007416775 0.9180514348413259 0 0 
66 -0.4237477941033886 0.905780220027194 0 0 
67 -0.4506549757999454 0.8926982092436114 0 0 
68 -0.4771587602596085 0.8788171126619654 0 0 
69 -0.5090414157503713 0.8607420270039436 0 0 
70 -0.540240320477655 0.8415107819453062 0 0 
71 -0.5707135676844316 0.8211492091337041 0 0 
72 -0.6004202253258839 0.7996846584870906 0 0 
73 -0.6293203910498373 0.777145961456971 0 0 
74 -0.6522874112781208 0.7579717231454532 0 0 
75 -0.6746705459320743 0.7381189974873407 0 0 
76 -0.6964497590747667 0.7176055553608121 0 0 
77 -0.7176055553608119 0.6964497590747668 0 0 
78 -0.7381189974873406 0.6746705459320744 0 0 
79 -0.7579717231454531 0.652287411278121 0 0 
80 -0.7771459614569709 0.6293203910498374 0 0 
81 -0.7996846584870906 0.600420225325884 0 0 
82 -0.821149209133704 0.5707135676844317 0 0 
83 -0.841510781945306 0.5402403204776551 0 0 
84 -0.8607420270039435 0.5090414157503714 0 0 
85 -0.8788171126619653 0.4771587602596086 0 0 
86 -0.8926982092436113 0.4506549757999456 0 0 
87 -0.905780220027194 0.4237477941033888 0 0 
88 -0.9180514348413257 0.3964613007416778 0 0 
89 -0.9295008692868207 0.3688199208218619 0 0 
90 -0.940118274569219 0.340848397122525 0 0 
91 -0.949894146672846 0.3125717679456443 0 0 
92 -0.9588197348681931 0.2840153447039226 0 0 
93 -0.9685831611286311 0.2486898871648548 0 0 
94 -0.9770455744352636 0.2130303862749767 0 0 
95 -0.9841956079692419 0.1770847403195834 0 0 
96 -0.9900236577165575 0.1409012319375829 0 0 
97 -0.9945218953682733 0.1045284632676537 0 0 
98 -0.9972037971811801 0.07473009358642467 0 0 
99 -0.9989930665413146 0.04486483035051505 0 0 
100 -0.9998881018102734 0.01495940701526389 0 0 
101 -0.9998881018102734 -0.01495940701526364 0 0 
102 -0.9989930665413146 -0.04486483035051524 0 0 
103 -0.9972037971811801 -0.07473009358642442 0 0 
104 -0.9945218953682733 -0.1045284632676535 0 0 
105 -0.9900236577165575 -0.1409012319375831 0 0 
106 -0.984195607969242 -0.1770847403195832 0 0 
107 -0.9770455744352636 -0.2130303862749764 0 0 
108 -0.9685831611286313 -0.2486898871648542 0 0 
109 -0.9588197348681932 -0.2840153447039224 0 0 
110 -0.9498941466728461 -0.3125717679456441 0 0 
111 -0.9401182745692191 -0.3408483971225247 0 0 
112 -0.9295008692868209 -0.3688199208218617 0 0 
113 -0.9180514348413258 -0.3964613007416776 0 0 
114 -0.9057802200271942 -0.4237477941033886 0 0 
115 -0.8926982092436114 -0.4506549757999453 0 0 
116 -0.8788171126619654 -0.4771587602596084 0 0 
117 -0.8607420270039434 -0.5090414157503717 0 0 
118 -0.8415107819453062 -0.5402403204776549 0 0 
119 -0.8211492091337041 -0.5707135676844315 0 0 
120 -0.7996846584870909 -0.6004202253258835 0 0 
121 -0.7771459614569711 -0.6293203910498373 0 0 
122 -0.7579717231454532 -0.6522874112781208 0 0 
123 -0.7381189974873408 -0.6746705459320742 0 0 
124 -0.7176055553608121 -0.6964497590747666 0 0 
125 -0.6964497590747668 -0.7176055553608118 0 0 
126 -0.6746705459320744 -0.7381189974873406 0 0 
127 -0.6522874112781211 -0.757971723145453 0 0 
128 -0.6293203910498371 -0.7771459614569711 0 0 
129 -0.6004202253258841 -0.7996846584870905 0 0 
130 -0.5707135676844322 -0.8211492091337037 0 0 
131 -0.5402403204776551 -0.841510781945306 0 0 
132 -0.5090414157503719 -0.8607420270039433 0 0 
133 -0.4771587602596087 -0.8788171126619653 0 0 
134 -0.450654975799946 -0.8926982092436111 0 0 
135 -0.4237477941033885 -0.9057802200271942 0 0 
136 -0.3964613007416778 -0.9180514348413257 0 0 
137 -0.368819920821862 -0.9295008692868207 0 0 
138 -0.3408483971225255 -0.9401182745692188 0 0 
139 -0.312571767945644 -0.9498941466728461 0 0 
140 -0.2840153447039226 -0.9588197348681931 0 0 
141 -0.2486898871648544 -0.9685831611286312 0 0 
142 -0.2130303862749767 -0.9770455744352636 0 0 
143 -0.1770847403195831 -0.984195607969242 0 0 
144 -0.1409012319375829 -0.9900236577165575 0 0 
145 -0.1045284632676542 -0.9945218953682733 0 0 
146 -0.07473009358642473 -0.9972037971811801 0 0 
147 -0.0448648303505151 -0.9989930665413146 0 0 
148 -0.0149594070152635 -0.9998881018102734 0 0 
149 0.01495940701526314 -0.9998881018102734 0 0 
150 0.04486483035051474 -0.9989930665413147 0 0 
151 0.07473009358642436 -0.9972037971811801 0 0 
152 0.1045284632676539 -0.9945218953682733 0 0 
153 0.1409012319375826 -0.9900236577165575 0 0 
154 0.1770847403195827 -0.984195607969242 0 0 
155 0.2130303862749764 -0.9770455744352636 0 0 
156 0.2486898871648541 -0.9685831611286313 0 0 
157 0.2840153447039223 -0.9588197348681932 0 0 
158 0.3125717679456436 -0.9498941466728462 0 0 
159 0.3408483971225251 -0.9401182745692189 0 0 
160 0.3688199208218616 -0.9295008692868209 0 0 
161 0.3964613007416775 -0.9180514348413258 0 0 
162 0.4237477941033881 -0.9057802200271944 0 0 
163 0.4506549757999457 -0.8926982092436113 0 0 
164 0.4771587602596083 -0.8788171126619654 0 0 
165 0.5090414157503715 -0.8607420270039434 0 0 
166 0.5402403204776549 -0.8415107819453063 0 0 
167 0.5707135676844318 -0.8211492091337039 0 0 
168 0.6004202253258838 -0.7996846584870907 0 0 
169 0.6293203910498368 -0.7771459614569713 0 0 
170 0.6522874112781207 -0.7579717231454534 0 0 
171 0.6746705459320742 -0.7381189974873408 0 0 
172 0.6964497590747669 -0.7176055553608118 0 0 
173 0.7176055553608115 -0.6964497590747672 0 0 
174 0.7381189974873404 -0.6746705459320745 0 0 
175 0.757971723145453 -0.6522874112781211 0 0 
176 0.7771459614569711 -0.6293203910498372 0 0 
177 0.7996846584870905 -0.6004202253258841 0 0 
178 0.8211492091337037 -0.5707135676844323 0 0 
179 0.841510781945306 -0.5402403204776552 0 0 
180 0.8607420270039432 -0.509041415750372 0 0 
181 0.8788171126619652 -0.4771587602596087 0 0 
182 0.8926982092436111 -0.4506549757999461 0 0 
183 0.9057802200271942 -0.4237477941033885 0 0 
184 0.9180514348413257 -0.3964613007416779 0 0 
185 0.9295008692868207 -0.368819920821862 0 0 
186 0.9401182745692188 -0.3408483971225255 0 0 
187 0.9498941466728461 -0.312571767945644 0 0 
188 0.9588197348681931 -0.2840153447039227 0 0 
189 0.9685831611286312 -0.2486898871648545 0 0 
190 0.9770455744352636 -0.2130303862749768 0 0 
191 0.984195607969242 -0.1770847403195831 0 0 
192 0.9900236577165575 -0.140901231937583 0 0 
1 0.9945217953682733 -0.1045285632676535 -1e-07 0.9972038971811801 -0.07472999358642424 1e-07 1 1 2 1 -2 
2 0.9972036971811802 -0.07473019358642424 -1e-07 0.9989931665413146 -0.04486473035051493 1e-07 1 1 2 2 -3 
3 0.9989929665413148 -0.04486493035051493 -1e-07 0.9998882018102734 -0.01495930701526363 1e-07 1 1 2 3 -4 
4 0.9998880018102735 -0.01495950701526363 -1e-07 0.9998882018102734 0.01495950701526361 1e-07 1 1 2 4 -5 
5 0.9989929665413148 0.01495930701526361 -1e-07 0.9998882018102734 0.04486493035051492 1e-07 1 1 2 5 -6 
6 0.9972036971811802 0.04486473035051491 -1e-07 0.9989931665413146 0.07473019358642423 1e-07 1 1 2 6 -7 
7 0.9945217953682733 0.07472999358642422 -1e-07 0.9972038971811801 0.1045285632676535 1e-07 1 1 2 7 -8 
8 0.9900235577165576 0.1045283632676535 -1e-07 0.9945219953682732 0.1409013319375827 1e-07 1 0 2 8 -9 
9 0.9841955079692419 0.1409011319375827 -1e-07 0.9900237577165575 0.1770848403195833 1e-07 1 0 2 9 -10 
10 0.9770454744352637 0.1770846403195833 -1e-07 0.9841957079692418 0.2130304862749766 1e-07 1 0 2 10 -11 
11 0.9685830611286311 0.2130302862749766 -1e-07 0.9770456744352636 0.2486899871648548 1e-07 1 0 2 11 -12 
12 0.9588196348681931 0.2486897871648548 -1e-07 0.968583261128631 0.2840154447039226 1e-07 1 0 2 12 -13 
13 0.949894046672846 0.2840152447039226 -1e-07 0.958819834868193 0.3125718679456445 1e-07 1 2 2 13 -14 
14 0.9401181745692191 0.3125716679456444 -1e-07 0.9498942466728459 0.3408484971225249 1e-07 1 2 2 14 -15 
15 0.9295007692868208 0.3408482971225249 -1e-07 0.940118374569219 0.3688200208218619 1e-07 1 2 2 15 -16 
16 0.918051334841326 0.3688198208218619 -1e-07 0.9295009692868207 0.3964614007416775 1e-07 1 2 2 16 -17 
17 0.9057801200271941 0.3964612007416775 -1e-07 0.9180515348413258 0.4237478941033887 1e-07 1 2 2 17 -18 
18 0.8926981092436116 0.4237476941033887 -1e-07 0.905780320027194 0.4506550757999452 1e-07 1 2 2 18 -19 
19 0.8788170126619654 0.4506548757999452 -1e-07 0.8926983092436115 0.4771588602596084 1e-07 1 2 2 19 -20 
20 0.8607419270039437 0.4771586602596084 -1e-07 0.8788172126619653 0.5090415157503713 1e-07 1 0 2 20 -21 
21 0.8415106819453062 0.5090413157503714 -1e-07 0.8607421270039436 0.540240420477655 1e-07 1 0 2 21 -22 
22 0.8211491091337041 0.5402402204776551 -1e-07 0.8415108819453061 0.5707136676844315 1e-07 1 0 2 22 -23 
23 0.7996845584870906 0.5707134676844317 -1e-07 0.821149309133704 0.600420325325884 1e-07 1 0 2 23 -24 
24 0.7771458614569708 0.6004201253258841 -1e-07 0.7996847584870905 0.6293204910498374 1e-07 1 0 2 24 -25 
25 0.757971623145453 0.6293202910498376 -1e-07 0.7771460614569707 0.6522875112781211 1e-07 1 3 2 25 -26 
26 0.7381188974873407 0.6522873112781212 -1e-07 0.7579718231454529 0.6746706459320743 1e-07 1 3 2 26 -27 
27 0.717605455360812 0.6746704459320744 -1e-07 0.7381190974873406 0.6964498590747668 1e-07 1 3 2 27 -28 
28 0.696449659074767 0.6964496590747669 -1e-07 0.7176056553608119 0.7176056553608117 1e-07 1 3 2 28 -29 
29 0.6746704459320744 0.7176054553608118 -1e-07 0.6964498590747669 0.7381190974873405 1e-07 1 3 2 29 -30 
30 0.6522873112781212 0.7381188974873406 -1e-07 0.6746706459320743 0.7579718231454529 1e-07 1 3 2 30 -31 
31 0.6293202910498376 0.757971623145453 -1e-07 0.6522875112781211 0.7771460614569707 1e-07 1 3 2 31 -32 
32 0.6004201253258842 0.7771458614569708 -1e-07 0.6293204910498374 0.7996847584870904 1e-07 1 0 2 32 -33 
33 0.5707134676844319 0.7996845584870905 -1e-07 0.6004203253258841 0.8211493091337039 1e-07 1 0 2 33 -34 
34 0.5402402204776552 0.821149109133704 -1e-07 0.5707136676844318 0.8415108819453061 1e-07 1 0 2 34 -35 
35 0.5090413157503713 0.8415106819453062 -1e-07 0.5402404204776551 0.8607421270039436 1e-07 1 0 2 35 -36 
36 0.4771586602596084 0.8607419270039437 -1e-07 0.5090415157503712 0.8788172126619653 1e-07 1 0 2 36 -37 
37 0.4506548757999451 0.8788170126619654 -1e-07 0.4771588602596084 0.8926983092436115 1e-07 1 4 2 37 -38 
38 0.4237476941033888 0.8926981092436116 -1e-07 0.4506550757999451 0.905780320027194 1e-07 1 4 2 38 -39 
39 0.3964612007416776 0.9057801200271941 -1e-07 0.4237478941033888 0.9180515348413257 1e-07 1 4 2 39 -40 
40 0.368819820821862 0.9180513348413258 -1e-07 0.3964614007416776 0.9295009692868207 1e-07 1 4 2 40 -41 
41 0.340848297122525 0.9295007692868208 -1e-07 0.368820020821862 0.940118374569219 1e-07 1 4 2 41 -42 
42 0.3125716679456447 0.9401181745692191 -1e-07 0.340848497122525 0.9498942466728458 1e-07 1 4 2 42 -43 
43 0.2840152447039228 0.9498940466728459 -1e-07 0.3125718679456447 0.958819834868193 1e-07 1 4 2 43 -44 
44 0.248689787164855 0.9588196348681931 -1e-07 0.2840154447039228 0.968583261128631 1e-07 1 0 2 44 -45 
45 0.2130302862749766 0.9685830611286311 -1e-07 0.248689987164855 0.9770456744352636 1e-07 1 0 2 45 -46 
46 0.1770846403195834 0.9770454744352637 -1e-07 0.2130304862749766 0.9841957079692418 1e-07 1 0 2 46 -47 
47 0.1409011319375826 0.9841955079692419 -1e-07 0.1770848403195834 0.9900237577165575 1e-07 1 0 2 47 -48 
48 0.1045283632676535 0.9900235577165576 -1e-07 0.1409013319375826 0.9945219953682732 1e-07 1 0 2 48 -49 
49 0.07472999358642417 0.9945217953682733 -1e-07 0.1045285632676535 0.9972038971811801 1e-07 1 5 2 49 -50 
50 0.04486473035051498 0.9972036971811802 -1e-07 0.07473019358642417 0.9989931665413145 1e-07 1 5 2 50 -51 
51 0.0149593070152636 0.9989929665413146 -1e-07 0.04486493035051499 0.9998882018102734 1e-07 1 5 2 51 -52 
52 -0.01495950701526348 0.9998880018102735 -1e-07 0.0149595070152636 0.9998882018102734 1e-07 1 5 2 52 -53 
53 -0.04486493035051464 0.9989929665413148 -1e-07 -0.01495930701526348 0.9998882018102734 1e-07 1 5 2 53 -54 
54 -0.07473019358642427 0.9972036971811802 -1e-07 -0.04486473035051464 0.9989931665413146 1e-07 1 5 2 54 -55 
55 -0.1045285632676533 0.9945217953682735 -1e-07 -0.07472999358642426 0.9972038971811801 1e-07 1 5 2 55 -56 
56 -0.1409013319375827 0.9900235577165576 -1e-07 -0.1045283632676533 0.9945219953682733 1e-07 1 0 2 56 -57 
57 -0.1770848403195833 0.9841955079692419 -1e-07 -0.1409011319375827 0.9900237577165575 1e-07 1 0 2 57 -58 
58 -0.2130304862749765 0.9770454744352637 -1e-07 -0.1770846403195833 0.9841957079692418 1e-07 1 0 2 58 -59 
59 -0.2486899871648546 0.9685830611286312 -1e-07 -0.2130302862749765 0.9770456744352636 1e-07 1 0 2 59 -60 
60 -0.2840154447039226 0.9588196348681931 -1e-07 -0.2486897871648546 0.9685832611286311 1e-07 1 0 2 60 -61 
61 -0.3125718679456443 0.949894046672846 -1e-07 -0.2840152447039226 0.958819834868193 1e-07 1 6 2 61 -62 
62 -0.340848497122525 0.9401181745692191 -1e-07 -0.3125716679456443 0.9498942466728459 1e-07 1 6 2 62 -63 
63 -0.3688200208218619 0.9295007692868208 -1e-07 -0.340848297122525 0.940118374569219 1e-07 1 6 2 63 -64 
64 -0.3964614007416775 0.918051334841326 -1e-07 -0.3688198208218619 0.9295009692868207 1e-07 1 6 2 64 -65 
65 -0.4237478941033886 0.9057801200271941 -1e-07 -0.3964612007416775 0.9180515348413258 1e-07 1 6 2 65 -66 
66 -0.4506550757999454 0.8926981092436115 -1e-07 -0.4237476941033886 0.905780320027194 1e-07 1 6 2 66 -67 
67 -0.4771588602596085 0.8788170126619654 -1e-07 -0.4506548757999454 0.8926983092436114 1e-07 1 6 2 67 -68 
68 -0.5090415157503713 0.8607419270039437 -1e-07 -0.4771586602596085 0.8788172126619653 1e-07 1 0 2 68 -69 
69 -0.540240420477655 0.8415106819453062 -1e-07 -0.5090413157503714 0.8607421270039436 1e-07 1 0 2 69 -70 
70 -0.5707136676844315 0.8211491091337042 -1e-07 -0.5402402204776551 0.8415108819453061 1e-07 1 0 2 70 -71 
71 -0.6004203253258839 0.7996845584870906 -1e-07 -0.5707134676844317 0.8211493091337041 1e-07 1 0 2 71 -72 
72 -0.6293204910498372 0.7771458614569711 -1e-07 -0.600420125325884 0.7996847584870905 1e-07 1 0 2 72 -73 
73 -0.6522875112781208 0.7579716231454533 -1e-07 -0.6293202910498373 0.777146061456971 1e-07 1 7 2 73 -74 
74 -0.6746706459320743 0.7381188974873407 -1e-07 -0.6522873112781209 0.7579718231454532 1e-07 1 7 2 74 -75 
75 -0.6964498590747666 0.7176054553608121 -1e-07 -0.6746704459320744 0.7381190974873406 1e-07 1 7 2 75 -76 
76 -0.7176056553608119 0.6964496590747669 -1e-07 -0.6964496590747667 0.717605655360812 1e-07 1 7 2 76 -77 
77 -0.7381190974873405 0.6746704459320745 -1e-07 -0.717605455360812 0.6964498590747668 1e-07 1 7 2 77 -78 
78 -0.7579718231454531 0.652287311278121 -1e-07 -0.7381188974873406 0.6746706459320744 1e-07 1 7 2 78 -79 
79 -0.7771460614569708 0.6293202910498374 -1e-07 -0.7579716231454532 0.6522875112781209 1e-07 1 7 2 79 -80 
80 -0.7996847584870905 0.6004201253258841 -1e-07 -0.777145861456971 0.6293204910498373 1e-07 1 0 2 80 -81 
81 -0.821149309133704 0.5707134676844318 -1e-07 -0.7996845584870906 0.600420325325884 1e-07 1 0 2 81 -82 
82 -0.841510881945306 0.5402402204776552 -1e-07 -0.8211491091337041 0.5707136676844317 1e-07 1 0 2 82 -83 
83 -0.8607421270039435 0.5090413157503715 -1e-07 -0.8415106819453061 0.5402404204776551 1e-07 1 0 2 83 -84 
84 -0.8788172126619652 0.4771586602596086 -1e-07 -0.8607419270039436 0.5090415157503714 1e-07 1 0 2 84 -85 
85 -0.8926983092436113 0.4506548757999456 -1e-07 -0.8788170126619653 0.4771588602596086 1e-07 1 8 2 85 -86 
86 -0.905780320027194 0.4237476941033888 -1e-07 -0.8926981092436114 0.4506550757999456 1e-07 1 8 2 86 -87 
87 -0.9180515348413256 0.3964612007416778 -1e-07 -0.9057801200271941 0.4237478941033888 1e-07 1 8 2 87 -88 
88 -0.9295009692868207 0.3688198208218619 -1e-07 -0.9180513348413257 0.3964614007416778 1e-07 1 8 2 88 -89 
89 -0.940118374569219 0.340848297122525 -1e-07 -0.9295007692868208 0.3688200208218619 1e-07 1 8 2 89 -90 
90 -0.9498942466728459 0.3125716679456443 -1e-07 -0.9401181745692191 0.340848497122525 1e-07 1 8 2 90 -91 
91 -0.958819834868193 0.2840152447039226 -1e-07 -0.949894046672846 0.3125718679456443 1e-07 1 8 2 91 -92 
92 -0.968583261128631 0.2486897871648548 -1e-07 -0.9588196348681931 0.2840154447039226 1e-07 1 0 2 92 -93 
93 -0.9770456744352636 0.2130302862749767 -1e-07 -0.9685830611286311 0.2486899871648548 1e-07 1 0 2 93 -94 
94 -0.9841957079692418 0.1770846403195834 -1e-07 -0.9770454744352637 0.2130304862749767 1e-07 1 0 2 94 -95 
95 -0.9900237577165575 0.1409011319375829 -1e-07 -0.9841955079692419 0.1770848403195834 1e-07 1 0 2 95 -96 
96 -0.9945219953682732 0.1045283632676537 -1e-07 -0.9900235577165576 0.1409013319375829 1e-07 1 0 2 96 -97 
97 -0.9972038971811801 0.07472999358642467 -1e-07 -0.9945217953682733 0.1045285632676537 1e-07 1 9 2 97 -98 
98 -0.9989931665413145 0.04486473035051505 -1e-07 -0.9972036971811802 0.07473019358642467 1e-07 1 9 2 98 -99 
99 -0.9998882018102734 0.01495930701526389 -1e-07 -0.9989929665413146 0.04486493035051505 1e-07 1 9 2 99 -100 
100 -0.9998882018102734 -0.01495950701526364 -1e-07 -0.9998880018102735 0.01495950701526389 1e-07 1 9 2 100 -101 
101 -0.9998882018102734 -0.04486493035051525 -1e-07 -0.9989929665413146 -0.01495930701526364 1e-07 1 9 2 101 -102 
102 -0.9989931665413145 -0.07473019358642442 -1e-07 -0.9972036971811802 -0.04486473035051524 1e-07 1 9 2 102 -103 
103 -0.9972038971811801 -0.1045285632676535 -1e-07 -0.9945217953682733 -0.07472999358642442 1e-07 1 9 2 103 -104 
104 -0.9945219953682732 -0.1409013319375831 -1e-07 -0.9900235577165576 -0.1045283632676535 1e-07 1 0 2 104 -105 
105 -0.9900237577165575 -0.1770848403195832 -1e-07 -0.984195507969242 -0.1409011319375831 1e-07 1 0 2 105 -106 
106 -0.9841957079692419 -0.2130304862749764 -1e-07 -0.9770454744352637 -0.1770846403195832 1e-07 1 0 2 106 -107 
107 -0.9770456744352636 -0.2486899871648542 -1e-07 -0.9685830611286314 -0.2130302862749764 1e-07 1 0 2 107 -108 
108 -0.9685832611286312 -0.2840154447039224 -1e-07 -0.9588196348681932 -0.2486897871648542 1e-07 1 0 2 108 -109 
109 -0.9588198348681931 -0.3125718679456441 -1e-07 -0.9498940466728462 -0.2840152447039224 1e-07 1 10 2 109 -110 
110 -0.9498942466728461 -0.3408484971225247 -1e-07 -0.9401181745692192 -0.3125716679456441 1e-07 1 10 2 110 -111 
111 -0.9401183745692191 -0.3688200208218617 -1e-07 -0.9295007692868209 -0.3408482971225247 1e-07 1 10 2 111 -112 
112 -0.9295009692868208 -0.3964614007416776 -1e-07 -0.9180513348413258 -0.3688198208218617 1e-07 1 10 2 112 -113 
113 -0.9180515348413257 -0.4237478941033886 -1e-07 -0.9057801200271942 -0.3964612007416776 1e-07 1 10 2 113 -114 
114 -0.9057803200271941 -0.4506550757999453 -1e-07 -0.8926981092436115 -0.4237476941033886 1e-07 1 10 2 114 -115 
115 -0.8926983092436114 -0.4771588602596084 -1e-07 -0.8788170126619654 -0.4506548757999453 1e-07 1 10 2 115 -116 
116 -0.8788172126619653 -0.5090415157503716 -1e-07 -0.8607419270039435 -0.4771586602596084 1e-07 1 0 2 116 -117 
117 -0.8607421270039434 -0.5402404204776549 -1e-07 -0.8415106819453062 -0.5090413157503717 1e-07 1 0 2 117 -118 
118 -0.8415108819453061 -0.5707136676844314 -1e-07 -0.8211491091337042 -0.540240220477655 1e-07 1 0 2 118 -119 
119 -0.8211493091337041 -0.6004203253258834 -1e-07 -0.799684558487091 -0.5707134676844315 1e-07 1 0 2 119 -120 
120 -0.7996847584870909 -0.6293204910498372 -1e-07 -0.7771458614569712 -0.6004201253258835 1e-07 1 0 2 120 -121 
121 -0.7771460614569711 -0.6522875112781208 -1e-07 -0.7579716231454533 -0.6293202910498373 1e-07 1 11 2 121 -122 
122 -0.7579718231454532 -0.6746706459320742 -1e-07 -0.7381188974873408 -0.6522873112781209 1e-07 1 11 2 122 -123 
123 -0.7381190974873407 -0.6964498590747665 -1e-07 -0.7176054553608121 -0.6746704459320743 1e-07 1 11 2 123 -124 
124 -0.717605655360812 -0.7176056553608118 -1e-07 -0.6964496590747669 -0.6964496590747666 1e-07 1 11 2 124 -125 
125 -0.6964498590747668 -0.7381190974873405 -1e-07 -0.6746704459320745 -0.7176054553608119 1e-07 1 11 2 125 -126 
126 -0.6746706459320744 -0.757971823145453 -1e-07 -0.6522873112781211 -0.7381188974873406 1e-07 1 11 2 126 -127 
127 -0.652287511278121 -0.7771460614569711 -1e-07 -0.6293202910498371 -0.7579716231454531 1e-07 1 11 2 127 -128 
128 -0.629320491049837 -0.7996847584870904 -1e-07 -0.6004201253258842 -0.7771458614569712 1e-07 1 0 2 128 -129 
129 -0.6004203253258841 -0.8211493091337037 -1e-07 -0.5707134676844322 -0.7996845584870905 1e-07 1 0 2 129 -130 
130 -0.5707136676844321 -0.841510881945306 -1e-07 -0.5402402204776552 -0.8211491091337038 1e-07 1 0 2 130 -131 
131 -0.5402404204776551 -0.8607421270039433 -1e-07 -0.5090413157503719 -0.8415106819453061 1e-07 1 0 2 131 -132 
132 -0.5090415157503718 -0.8788172126619652 -1e-07 -0.4771586602596087 -0.8607419270039434 1e-07 1 0 2 132 -133 
133 -0.4771588602596087 -0.892698309243611 -1e-07 -0.450654875799946 -0.8788170126619653 1e-07 1 12 2 133 -134 
134 -0.450655075799946 -0.9057803200271941 -1e-07 -0.4237476941033885 -0.8926981092436111 1e-07 1 12 2 134 -135 
135 -0.4237478941033885 -0.9180515348413256 -1e-07 -0.3964612007416778 -0.9057801200271942 1e-07 1 12 2 135 -136 
136 -0.3964614007416778 -0.9295009692868207 -1e-07 -0.368819820821862 -0.9180513348413257 1e-07 1 12 2 136 -137 
137 -0.368820020821862 -0.9401183745692188 -1e-07 -0.3408482971225255 -0.9295007692868208 1e-07 1 12 2 137 -138 
138 -0.3408484971225255 -0.9498942466728461 -1e-07 -0.3125716679456439 -0.9401181745692189 1e-07 1 12 2 138 -139 
139 -0.312571867945644 -0.958819834868193 -1e-07 -0.2840152447039226 -0.9498940466728462 1e-07 1 12 2 139 -140 
140 -0.2840154447039226 -0.9685832611286311 -1e-07 -0.2486897871648544 -0.9588196348681931 1e-07 1 0 2 140 -141 
141 -0.2486899871648544 -0.9770456744352636 -1e-07 -0.2130302862749767 -0.9685830611286312 1e-07 1 0 2 141 -142 
142 -0.2130304862749767 -0.9841957079692419 -1e-07 -0.1770846403195831 -0.9770454744352637 1e-07 1 0 2 142 -143 
143 -0.1770848403195831 -0.9900237577165575 -1e-07 -0.1409011319375829 -0.984195507969242 1e-07 1 0 2 143 -144 
144 -0.1409013319375829 -0.9945219953682732 -1e-07 -0.1045283632676542 -0.9900235577165576 1e-07 1 0 2 144 -145 
145 -0.1045285632676542 -0.9972038971811801 -1e-07 -0.07472999358642472 -0.9945217953682733 1e-07 1 13 2 145 -146 
146 -0.07473019358642473 -0.9989931665413145 -1e-07 -0.0448647303505151 -0.9972036971811802 1e-07 1 13 2 146 -147 
147 -0.04486493035051511 -0.9998882018102734 -1e-07 -0.01495930701526351 -0.9989929665413146 1e-07 1 13 2 147 -148 
148 -0.0149595070152635 -0.9998882018102734 -1e-07 0.01495950701526314 -0.9998880018102735 1e-07 1 13 2 148 -149 
149 0.01495930701526314 -0.9998882018102734 -1e-07 0.04486493035051475 -0.9989929665413148 1e-07 1 13 2 149 -150 
150 0.04486473035051474 -0.9989931665413146 -1e-07 0.07473019358642437 -0.9972036971811802 1e-07 1 13 2 150 -151 
151 0.07472999358642436 -0.9972038971811801 -1e-07 0.1045285632676539 -0.9945217953682733 1e-07 1 13 2 151 -152 
152 0.1045283632676539 -0.9945219953682732 -1e-07 0.1409013319375826 -0.9900235577165576 1e-07 1 0 2 152 -153 
153 0.1409011319375826 -0.9900237577165575 -1e-07 0.1770848403195827 -0.984195507969242 1e-07 1 0 2 153 -154 
154 0.1770846403195827 -0.9841957079692419 -1e-07 0.2130304862749764 -0.9770454744352637 1e-07 1 0 2 154 -155 
155 0.2130302862749764 -0.9770456744352636 -1e-07 0.2486899871648541 -0.9685830611286314 1e-07 1 0 2 155 -156 
156 0.2486897871648541 -0.9685832611286312 -1e-07 0.2840154447039223 -0.9588196348681932 1e-07 1 0 2 156 -157 
157 0.2840152447039223 -0.9588198348681931 -1e-07 0.3125718679456436 -0.9498940466728463 1e-07 1 14 2 157 -158 
158 0.3125716679456436 -0.9498942466728462 -1e-07 0.3408484971225251 -0.940118174569219 1e-07 1 14 2 158 -159 
159 0.3408482971225251 -0.9401183745692189 -1e-07 0.3688200208218616 -0.9295007692868209 1e-07 1 14 2 159 -160 
160 0.3688198208218616 -0.9295009692868208 -1e-07 0.3964614007416775 -0.9180513348413258 1e-07 1 14 2 160 -161 
161 0.3964612007416775 -0.9180515348413257 -1e-07 0.4237478941033881 -0.9057801200271944 1e-07 1 14 2 161 -162 
162 0.4237476941033881 -0.9057803200271943 -1e-07 0.4506550757999457 -0.8926981092436114 1e-07 1 14 2 162 -163 
163 0.4506548757999457 -0.8926983092436113 -1e-07 0.4771588602596084 -0.8788170126619654 1e-07 1 14 2 163 -164 
164 0.4771586602596083 -0.8788172126619653 -1e-07 0.5090415157503715 -0.8607419270039435 1e-07 1 0 2 164 -165 
165 0.5090413157503716 -0.8607421270039434 -1e-07 0.5402404204776549 -0.8415106819453063 1e-07 1 0 2 165 -166 
166 0.540240220477655 -0.8415108819453062 -1e-07 0.5707136676844318 -0.821149109133704 1e-07 1 0 2 166 -167 
167 0.5707134676844319 -0.8211493091337039 -1e-07 0.6004203253258837 -0.7996845584870907 1e-07 1 0 2 167 -168 
168 0.6004201253258838 -0.7996847584870906 -1e-07 0.6293204910498368 -0.7771458614569714 1e-07 1 0 2 168 -169 
169 0.6293202910498369 -0.7771460614569713 -1e-07 0.6522875112781207 -0.7579716231454534 1e-07 1 15 2 169 -170 
170 0.6522873112781208 -0.7579718231454533 -1e-07 0.6746706459320742 -0.7381188974873408 1e-07 1 15 2 170 -171 
171 0.6746704459320743 -0.7381190974873407 -1e-07 0.6964498590747669 -0.7176054553608119 1e-07 1 15 2 171 -172 
172 0.696449659074767 -0.7176056553608118 -1e-07 0.7176056553608114 -0.6964496590747673 1e-07 1 15 2 172 -173 
173 0.7176054553608116 -0.6964498590747672 -1e-07 0.7381190974873404 -0.6746704459320746 1e-07 1 15 2 173 -174 
174 0.7381188974873405 -0.6746706459320745 -1e-07 0.757971823145453 -0.6522873112781211 1e-07 1 15 2 174 -175 
175 0.7579716231454531 -0.652287511278121 -1e-07 0.7771460614569711 -0.6293202910498372 1e-07 1 15 2 175 -176 
176 0.7771458614569712 -0.6293204910498371 -1e-07 0.7996847584870904 -0.6004201253258842 1e-07 1 0 2 176 -177 
177 0.7996845584870905 -0.6004203253258841 -1e-07 0.8211493091337037 -0.5707134676844323 1e-07 1 0 2 177 -178 
178 0.8211491091337038 -0.5707136676844322 -1e-07 0.841510881945306 -0.5402402204776553 1e-07 1 0 2 178 -179 
179 0.8415106819453061 -0.5402404204776552 -1e-07 0.8607421270039431 -0.509041315750372 1e-07 1 0 2 179 -180 
180 0.8607419270039433 -0.5090415157503719 -1e-07 0.8788172126619651 -0.4771586602596087 1e-07 1 0 2 180 -181 
181 0.8788170126619652 -0.4771588602596087 -1e-07 0.892698309243611 -0.4506548757999461 1e-07 1 16 2 181 -182 
182 0.8926981092436111 -0.4506550757999461 -1e-07 0.9057803200271941 -0.4237476941033885 1e-07 1 16 2 182 -183 
183 0.9057801200271942 -0.4237478941033885 -1e-07 0.9180515348413256 -0.3964612007416779 1e-07 1 16 2 183 -184 
184 0.9180513348413257 -0.3964614007416779 -1e-07 0.9295009692868207 -0.368819820821862 1e-07 1 16 2 184 -185 
185 0.9295007692868208 -0.368820020821862 -1e-07 0.9401183745692188 -0.3408482971225255 1e-07 1 16 2 185 -186 
186 0.9401181745692189 -0.3408484971225255 -1e-07 0.9498942466728461 -0.312571667945644 1e-07 1 16 2 186 -187 
187 0.9498940466728462 -0.312571867945644 -1e-07 0.958819834868193 -0.2840152447039227 1e-07 1 16 2 187 -188 
188 0.9588196348681931 -0.2840154447039227 -1e-07 0.9685832611286311 -0.2486897871648545 1e-07 1 0 2 188 -189 
189 0.9685830611286312 -0.2486899871648545 -1e-07 0.9770456744352636 -0.2130302862749768 1e-07 1 0 2 189 -190 
190 0.9770454744352637 -0.2130304862749768 -1e-07 0.9841957079692419 -0.1770846403195831 1e-07 1 0 2 190 -191 
191 0.984195507969242 -0.1770848403195831 -1e-07 0.9900237577165575 -0.140901131937583 1e-07 1 0 2 191 -192 
192 0.9900235577165576 -0.140901331937583 -1e-07 0.9945219953682732 -0.1045283632676535 1e-07 1 0 2 192 -1 
1 -0.9998882018102734 -0.9998882018102734 -1e-07 0.9998882018102734 0.9998882018102734 1e-07 1 1 192 1 2 3 4 5 6 7 8 9 10 11 12 13 14 15 16 17 18 19 20 21 22 23 24 25 26 27 28 29 30 31 32 33 34 35 36 37 38 39 40 41 42 43 44 45 46 47 48 49 50 51 52 53 54 55 56 57 58 59 60 61 62 63 64 65 66 67 68 69 70 71 72 73 74 75 76 77 78 79 80 81 82 83 84 85 86 87 88 89 90 91 92 93 94 95 96 97 98 99 100 101 102 103 104 105 106 107 108 109 110 111 112 113 114 115 116 117 118 119 120 121 122 123 124 125 126 127 128 129 130 131 132 133 134 135 136 137 138 139 140 141 142 143 144 145 146 147 148 149 150 151 152 153 154 155 156 157 158 159 160 161 162 163 164 165 166 167 168 169 170 171 172 173 174 175 176 177 178 179 180 181 182 183 184 185 186 187 188 189 190 191 192 
$EndEntities
$Nodes
385 469 1 469
0 1 0 1
1
0.9945218953682733 -0.1045284632676535 0
0 2 0 1
2
0.9972037971811801 -0.07473009358642424 0
0 3 0 1
3
0.9989930665413147 -0.04486483035051493 0
0 4 0 1
4
0.9998881018102734 -0.01495940701526363 0
0 5 0 1
5
0.9998881018102734 0.01495940701526361 0
0 6 0 1
6
0.9989930665413147 0.04486483035051492 0
0 7 0 1
7
0.9972037971811801 0.07473009358642423 0
0 8 0 1
8
0.9945218953682733 0.1045284632676535 0
0 9 0 1
9
0.9900236577165575 0.1409012319375827 0
0 10 0 1
10
0.9841956079692419 0.1770847403195833 0
0 11 0 1
11
0.9770455744352636 0.2130303862749766 0
0 12 0 1
12
0.9685831611286311 0.2486898871648548 0
0 13 0 1
13
0.9588197348681931 0.2840153447039226 0
0 14 0 1
14
0.949894146672846 0.3125717679456445 0
0 15 0 1
15
0.940118274569219 0.3408483971225249 0
0 16 0 1
16
0.9295008692868207 0.3688199208218619 0
0 17 0 1
17
0.9180514348413259 0.3964613007416775 0
0 18 0 1
18
0.905780220027194 0.4237477941033887 0
0 19 0 1
19
0.8926982092436115 0.4506549757999452 0
0 20 0 1
20
0.8788171126619654 0.4771587602596084 0
0 21 0 1
21
0.8607420270039436 0.5090414157503713 0
0 22 0 1
22
0.8415107819453062 0.540240320477655 0
0 23 0 1
23
0.821149209133704 0.5707135676844316 0
0 24 0 1
24
0.7996846584870906 0.600420225325884 0
0 25 0 1
25
0.7771459614569708 0.6293203910498375 0
0 26 0 1
26
0.7579717231454529 0.6522874112781212 0
0 27 0 1
27
0.7381189974873407 0.6746705459320743 0
0 28 0 1
28
0.7176055553608119 0.6964497590747668 0
0 29 0 1
29
0.6964497590747669 0.7176055553608117 0
0 30 0 1
30
0.6746705459320743 0.7381189974873406 0
0 31 0 1
31
0.6522874112781212 0.7579717231454529 0
0 32 0 1
32
0.6293203910498375 0.7771459614569708 0
0 33 0 1
33
0.6004202253258841 0.7996846584870905 0
0 34 0 1
34
0.5707135676844318 0.8211492091337039 0
0 35 0 1
35
0.5402403204776551 0.8415107819453062 0
0 36 0 1
36
0.5090414157503712 0.8607420270039436 0
0 37 0 1
37
0.4771587602596084 0.8788171126619654 0
0 38 0 1
38
0.4506549757999451 0.8926982092436115 0
0 39 0 1
39
0.4237477941033888 0.905780220027194 0
0 40 0 1
40
0.3964613007416776 0.9180514348413258 0
0 41 0 1
41
0.368819920821862 0.9295008692868207 0
0 42 0 1
42
0.340848397122525 0.940118274569219 0
0 43 0 1
43
0.3125717679456447 0.9498941466728459 0
0 44 0 1
44
0.2840153447039228 0.9588197348681931 0
0 45 0 1
45
0.248689887164855 0.9685831611286311 0
0 46 0 1
46
0.2130303862749766 0.9770455744352636 0
0 47 0 1
47
0.1770847403195834 0.9841956079692419 0
0 48 0 1
48
0.1409012319375826 0.9900236577165575 0
0 49 0 1
49
0.1045284632676535 0.9945218953682733 0
0 50 0 1
50
0.07473009358642417 0.9972037971811801 0
0 51 0 1
51
0.04486483035051499 0.9989930665413146 0
0 52 0 1
52
0.01495940701526361 0.9998881018102734 0
0 53 0 1
53
-0.01495940701526348 0.9998881018102734 0
0 54 0 1
54
-0.04486483035051464 0.9989930665413147 0
0 55 0 1
55
-0.07473009358642427 0.9972037971811801 0
0 56 0 1
56
-0.1045284632676533 0.9945218953682734 0
0 57 0 1
57
-0.1409012319375827 0.9900236577165575 0
0 58 0 1
58
-0.1770847403195833 0.9841956079692419 0
0 59 0 1
59
-0.2130303862749765 0.9770455744352636 0
0 60 0 1
60
-0.2486898871648546 0.9685831611286312 0
0 61 0 1
61
-0.2840153447039226 0.9588197348681931 0
0 62 0 1
62
-0.3125717679456443 0.949894146672846 0
0 63 0 1
63
-0.340848397122525 0.940118274569219 0
0 64 0 1
64
-0.3688199208218619 0.9295008692868207 0
0 65 0 1
65
-0.3964613007416775 0.9180514348413259 0
0 66 0 1
66
-0.4237477941033886 0.905780220027194 0
0 67 0 1
67
-0.4506549757999454 0.8926982092436114 0
0 68 0 1
68
-0.4771587602596085 0.8788171126619654 0
0 69 0 1
69
-0.5090414157503713 0.8607420270039436 0
0 70 0 1
70
-0.540240320477655 0.8415107819453062 0
0 71 0 1
71
-0.5707135676844316 0.8211492091337041 0
0 72 0 1
72
-0.6004202253258839 0.7996846584870906 0
0 73 0 1
73
-0.6293203910498373 0.777145961456971 0
0 74 0 1
74
-0.6522874112781208 0.7579717231454532 0
0 75 0 1
75
-0.6746705459320743 0.7381189974873407 0
0 76 0 1
76
-0.6964497590747667 0.7176055553608121 0
0 77 0 1
77
-0.7176055553608119 0.6964497590747668 0
0 78 0 1
78
-0.7381189974873406 0.6746705459320744 0
0 79 0 1
79
-0.7579717231454531 0.652287411278121 0
0 80 0 1
80
-0.7771459614569709 0.6293203910498374 0
0 81 0 1
81
-0.7996846584870906 0.600420225325884 0
0 82 0 1
82
-0.821149209133704 0.5707135676844317 0
0 83 0 1
83
-0.841510781945306 0.5402403204776551 0
0 84 0 1
84
-0.8607420270039435 0.5090414157503714 0
0 85 0 1
85
-0.8788171126619653 0.4771587602596086 0
0 86 0 1
86
-0.8926982092436113 0.4506549757999456 0
0 87 0 1
87
-0.905780220027194 0.4237477941033888 0
0 88 0 1
88
-0.9180514348413257 0.3964613007416778 0
0 89 0 1
89
-0.9295008692868207 0.3688199208218619 0
0 90 0 1
90
-0.940118274569219 0.340848397122525 0
0 91 0 1
91
-0.949894146672846 0.3125717679456443 0
0 92 0 1
92
-0.9588197348681931 0.2840153447039226 0
0 93 0 1
93
-0.9685831611286311 0.2486898871648548 0
0 94 0 1
94
-0.9770455744352636 0.2130303862749767 0
0 95 0 1
95
-0.9841956079692419 0.1770847403195834 0
0 96 0 1
96
-0.9900236577165575 0.1409012319375829 0
0 97 0 1
97
-0.9945218953682733 0.1045284632676537 0
0 98 0 1
98
-0.9972037971811801 0.07473009358642467 0
0 99 0 1
99
-0.9989930665413146 0.04486483035051505 0
0 100 0 1
100
-0.9998881018102734 0.01495940701526389 0
0 101 0 1
101
-0.9998881018102734 -0.01495940701526364 0
0 102 0 1
102
-0.9989930665413146 -0.04486483035051524 0
0 103 0 1
103
-0.9972037971811801 -0.07473009358642442 0
0 104 0 1
104
-0.9945218953682733 -0.1045284632676535 0
0 105 0 1
105
-0.9900236577165575 -0.1409012319375831 0
0 106 0 1
106
-0.984195607969242 -0.1770847403195832 0
0 107 0 1
107
-0.9770455744352636 -0.2130303862749764 0
0 108 0 1
108
-0.9685831611286313 -0.2486898871648542 0
0 109 0 1
109
-0.9588197348681932 -0.2840153447039224 0
0 110 0 1
110
-0.9498941466728461 -0.3125717679456441 0
0 111 0 1
111
-0.9401182745692191 -0.3408483971225247 0
0 112 0 1
112
-0.9295008692868209 -0.3688199208218617 0
0 113 0 1
113
-0.9180514348413258 -0.3964613007416776 0
0 114 0 1
114
-0.9057802200271942 -0.4237477941033886 0
0 115 0 1
115
-0.8926982092436114 -0.4506549757999453 0
0 116 0 1
116
-0.8788171126619654 -0.4771587602596084 0
0 117 0 1
117
-0.8607420270039434 -0.5090414157503717 0
0 118 0 1
118
-0.8415107819453062 -0.5402403204776549 0
0 119 0 1
119
-0.8211492091337041 -0.5707135676844315 0
0 120 0 1
120
-0.7996846584870909 -0.6004202253258835 0
0 121 0 1
121
-0.7771459614569711 -0.6293203910498373 0
0 122 0 1
122
-0.7579717231454532 -0.6522874112781208 0
0 123 0 1
123
-0.7381189974873408 -0.6746705459320742 0
0 124 0 1
124
-0.7176055553608121 -0.6964497590747666 0
0 125 0 1
125
-0.6964497590747668 -0.7176055553608118 0
0 126 0 1
126
-0.6746705459320744 -0.7381189974873406 0
0 127 0 1
127
-0.6522874112781211 -0.757971723145453 0
0 128 0 1
128
-0.6293203910498371 -0.7771459614569711 0
0 129 0 1
129
-0.6004202253258841 -0.7996846584870905 0
0 130 0 1
130
-0.5707135676844322 -0.8211492091337037 0
0 131 0 1
131
-0.5402403204776551 -0.841510781945306 0
0 132 0 1
132
-0.5090414157503719 -0.8607420270039433 0
0 133 0 1
133
-0.4771587602596087 -0.8788171126619653 0
0 134 0 1
134
-0.450654975799946 -0.8926982092436111 0
0 135 0 1
135
-0.4237477941033885 -0.9057802200271942 0
0 136 0 1
136
-0.3964613007416778 -0.9180514348413257 0
0 137 0 1
137
-0.368819920821862 -0.9295008692868207 0
0 138 0 1
138
-0.3408483971225255 -0.9401182745692188 0
0 139 0 1
139
-0.312571767945644 -0.9498941466728461 0
0 140 0 1
140
-0.2840153447039226 -0.9588197348681931 0
0 141 0 1
141
-0.2486898871648544 -0.9685831611286312 0
0 142 0 1
142
-0.2130303862749767 -0.9770455744352636 0
0 143 0 1
143
-0.1770847403195831 -0.984195607969242 0
0 144 0 1
144
-0.1409012319375829 -0.9900236577165575 0
0 145 0 1
145
-0.1045284632676542 -0.9945218953682733 0
0 146 0 1
146
-0.07473009358642473 -0.9972037971811801 0
0 147 0 1
147
-0.0448648303505151 -0.9989930665413146 0
0 148 0 1
148
-0.0149594070152635 -0.9998881018102734 0
0 149 0 1
149
0.01495940701526314 -0.9998881018102734 0
0 150 0 1
150
0.04486483035051474 -0.9989930665413147 0
0 151 0 1
151
0.07473009358642436 -0.9972037971811801 0
0 152 0 1
152
0.1045284632676539 -0.9945218953682733 0
0 153 0 1
153
0.1409012319375826 -0.9900236577165575 0
0 154 0 1
154
0.1770847403195827 -0.984195607969242 0
0 155 0 1
155
0.2130303862749764 -0.9770455744352636 0
0 156 0 1
156
0.2486898871648541 -0.9685831611286313 0
0 157 0 1
157
0.2840153447039223 -0.9588197348681932 0
0 158 0 1
158
0.3125717679456436 -0.9498941466728462 0
0 159 0 1
159
0.3408483971225251 -0.9401182745692189 0
0 160 0 1
160
0.3688199208218616 -0.9295008692868209 0
0 161 0 1
161
0.3964613007416775 -0.9180514348413258 0
0 162 0 1
162
0.4237477941033881 -0.9057802200271944 0
0 163 0 1
163
0.4506549757999457 -0.8926982092436113 0
0 164 0 1
164
0.4771587602596083 -0.8788171126619654 0
0 165 0 1
165
0.5090414157503715 -0.8607420270039434 0
0 166 0 1
166
0.5402403204776549 -0.8415107819453063 0
0 167 0 1
167
0.5707135676844318 -0.8211492091337039 0
0 168 0 1
168
0.6004202253258838 -0.7996846584870907 0
0 169 0 1
169
0.6293203910498368 -0.7771459614569713 0
0 170 0 1
170
0.6522874112781207 -0.7579717231454534 0
0 171 0 1
171
0.6746705459320742 -0.7381189974873408 0
0 172 0 1
172
0.6964497590747669 -0.7176055553608118 0
0 173 0 1
173
0.7176055553608115 -0.6964497590747672 0
0 174 0 1
174
0.7381189974873404 -0.6746705459320745 0
0 175 0 1
175
0.757971723145453 -0.6522874112781211 0
0 176 0 1
176
0.7771459614569711 -0.6293203910498372 0
0 177 0 1
177
0.7996846584870905 -0.6004202253258841 0
0 178 0 1
178
0.8211492091337037 -0.5707135676844323 0
0 179 0 1
179
0.841510781945306 -0.5402403204776552 0
0 180 0 1
180
0.8607420270039432 -0.509041415750372 0
0 181 0 1
181
0.8788171126619652 -0.4771587602596087 0
0 182 0 1
182
0.8926982092436111 -0.4506549757999461 0
0 183 0 1
183
0.9057802200271942 -0.4237477941033885 0
0 184 0 1
184
0.9180514348413257 -0.3964613007416779 0
0 185 0 1
185
0.9295008692868207 -0.368819920821862 0
0 186 0 1
186
0.9401182745692188 -0.3408483971225255 0
0 187 0 1
187
0.9498941466728461 -0.312571767945644 0
0 188 0 1
188
0.9588197348681931 -0.2840153447039227 0
0 189 0 1
189
0.9685831611286312 -0.2486898871648545 0
0 190 0 1
190
0.9770455744352636 -0.2130303862749768 0
0 191 0 1
191
0.984195607969242 -0.1770847403195831 0
0 192 0 1
192
0.9900236577165575 -0.140901231937583 0
1 1 0 0
1 2 0 0
1 3 0 0
1 4 0 0
1 5 0 0
1 6 0 0
1 7 0 0
1 8 0 0
1 9 0 0
1 10 0 0
1 11 0 0
1 12 0 0
1 13 0 0
1 14 0 0
1 15 0 0
1 16 0 0
1 17 0 0
1 18 0 0
1 19 0 0
1 20 0 0
1 21 0 0
1 22 0 0
1 23 0 0
1 24 0 0
1 25 0 0
1 26 0 0
1 27 0 0
1 28 0 0
1 29 0 0
1 30 0 0
1 31 0 0
1 32 0 0
1 33 0 0
1 34 0 0
1 35 0 0
1 36 0 0
1 37 0 0
1 38 0 0
1 39 0 0
1 40 0 0
1 41 0 0
1 42 0 0
1 43 0 0
1 44 0 0
1 45 0 0
1 46 0 0
1 47 0 0
1 48 0 0
1 49 0 0
1 50 0 0
1 51 0 0
1 52 0 0
1 53 0 0
1 54 0 0
1 55 0 0
1 56 0 0
1 57 0 0
1 58 0 0
1 59 0 0
1 60 0 0
1 61 0 0
1 62 0 0
1 63 0 0
1 64 0 0
1 65 0 0
1 66 0 0
1 67 0 0
1 68 0 0
1 69 0 0
1 70 0 0
1 71 0 0
1 72 0 0
1 73 0 0
1 74 0 0
1 75 0 0
1 76 0 0
1 77 0 0
1 78 0 0
1 79 0 0
1 80 0 0
1 81 0 0
1 82 0 0
1 83 0 0
1 84 0 0
1 85 0 0
1 86 0 0
1 87 0 0
1 88 0 0
1 89 0 0
1 90 0 0
1 91 0 0
1 92 0 0
1 93 0 0
1 94 0 0
1 95 0 0
1 96 0 0
1 97 0 0
1 98 0 0
1 99 0 0
1 100 0 0
1 101 0 0
1 102 0 0
1 103 0 0
1 104 0 0
1 105 0 0
1 106 0 0
1 107 0 0
1 108 0 0
1 109 0 0
1 110 0 0
1 111 0 0
1 112 0 0
1 113 0 0
1 114 0 0
1 115 0 0
1 116 0 0
1 117 0 0
1 118 0 0
1 119 0 0
1 120 0 0
1 121 0 0
1 122 0 0
1 123 0 0
1 124 0 0
1 125 0 0
1 126 0 0
1 127 0 0
1 128 0 0
1 129 0 0
1 130 0 0
1 131 0 0
1 132 0 0
1 133 0 0
1 134 0 0
1 135 0 0
1 136 0 0
1 137 0 0
1 138 0 0
1 139 0 0
1 140 0 0
1 141 0 0
1 142 0 0
1 143 0 0
1 144 0 0
1 145 0 0
1 146 0 0
1 147 0 0
1 148 0 0
1 149 0 0
1 150 0 0
1 151 0 0
1 152 0 0
1 153 0 0
1 154 0 0
1 155 0 0
1 156 0 0
1 157 0 0
1 158 0 0
1 159 0 0
1 160 0 0
1 161 0 0
1 162 0 0
1 163 0 0
1 164 0 0
1 165 0 0
1 166 0 0
1 167 0 0
1 168 0 0
1 169 0 0
1 170 0 0
1 171 0 0
1 172 0 0
1 173 0 0
1 174 0 0
1 175 0 0
1 176 0 0
1 177 0 0
1 178 0 0
1 179 0 0
1 180 0 0
1 181 0 0
1 182 0 0
1 183 0 0
1 184 0 0
1 185 0 0
1 186 0 0
1 187 0 0
1 188 0 0
1 189 0 0
1 190 0 0
1 191 0 0
1 192 0 0
2 1 0 277
193
194
195
196
197
198
199
200
201
202
203
204
205
206
207
208
209
210
211
212
213
214
215
216
217
218
219
220
221
222
223
224
225
226
227
228
229
230
231
232
233
234
235
236
237
238
239
240
241
242
243
244
245
246
247
248
249
250
251
252
253
254
255
256
257
258
259
260
261
262
263
264
265
266
267
268
269
270
271
272
273
274
275
276
277
278
279
280
281
282
283
284
285
286
287
288
289
290
291
292
293
294
295
296
297
298
299
300
301
302
303
304
305
306
307
308
309
310
311
312
313
314
315
316
317
318
319
320
321
322
323
324
325
326
327
328
329
330
331
332
333
334
335
336
337
338
339
340
341
342
343
344
345
346
347
348
349
350
351
352
353
354
355
356
357
358
359
360
361
362
363
364
365
366
367
368
369
370
371
372
373
374
375
376
377
378
379
380
381
382
383
384
385
386
387
388
389
390
391
392
393
394
395
396
397
398
399
400
401
402
403
404
405
406
407
408
409
410
411
412
413
414
415
416
417
418
419
420
421
422
423
424
425
426
427
428
429
430
431
432
433
434
435
436
437
438
439
440
441
442
443
444
445
446
447
448
449
450
451
452
453
454
455
456
457
458
459
460
461
462
463
464
465
466
467
468
469
-0.4250284807289731 -0.8726853809141975 0
0.4250284807289726 0.8726853809141972 0
0.8837097520640584 -0.428787974095801 0
-0.873372416408818 0.4224483416057763 0
0.3165412297659214 -0.917622271607667 0
-0.9176222716076667 -0.3165412297659215 0
-0.3165412297659217 0.9176222716076666 0
0.9165046548016973 0.3167581782236407 0
-0.7251579237704018 -0.6425020679020537 0
-0.6462860138508093 0.7286609970897459 0
0.6436048038901596 -0.7266373510229466 0
0.05871287713678499 0.9689075196067254 0
0.7252880207386294 0.6425990396244292 0
-0.9722343552082405 0.0582479092483803 0
-0.05824790924838035 -0.9722343552082402 0
0.9722343552082404 -0.05824790924837993 0
0.9324789377868405 -0.2606630908860136 0
0.4788840501367796 -0.8447038912789979 0
-0.9636656281965438 -0.1191769879206853 0
-0.2586736903642479 -0.9359180088718391 0
-0.7622841835316949 0.5982545757279112 0
-0.5971436441740664 -0.765685356814274 0
-0.8447038912789977 -0.4788840501367798 0
0.5971436441740666 0.7656853568142737 0
-0.9359180088718387 0.258673690364248 0
-0.4788840501367795 0.8447038912789976 0
0.8405821868479229 0.4726659324323806 0
0.9612496514302802 0.1160229459697037 0
0.765685356814274 -0.5971436441740664 0
0.1191769879206851 -0.9636656281965436 0
0.2586736903642481 0.9359180088718386 0
-0.1191769879206849 0.9636656281965437 0
0.821774984149915 -0.5067430884802497 0
0.7127087245042232 -0.4987100188838255 0
0.2223365640190563 -0.9401244227105047 0
0.1627599022464288 -0.84412911223271 0
-0.5075526623340945 -0.8219840465812779 0
-0.5034311856611982 -0.7111969012485541 0
-0.784690213631373 -0.5669780503643727 0
-0.7334898000749053 -0.4676089414303556 0
-0.5611455183310963 0.778864328211934 0
-0.470963190189959 0.7342211768887951 0
0.5075526623340941 0.8219840465812777 0
0.4987100188838257 0.7127087245042227 0
-0.9401244227105047 -0.2223365640190563 0
-0.8528148466674195 -0.1489151349672301 0
0.9557737953860405 -0.1539457469928885 0
0.8672263711576322 -0.08945052527838469 0
-0.8241073604105468 0.5079861213468293 0
-0.7610030444464672 0.4119236670957873 0
-0.2223365640190565 0.9401244227105043 0
-0.1513199359093264 0.8566024083061753 0
0.9419323341250391 0.2235314718190484 0
0.8364264218866784 0.2544183175863337 0
0.1543578401070128 0.9536462316152969 0
0.1861560388364366 0.8361706659482376 0
0.7846902136313724 0.5669780503643729 0
-0.95577379538604 0.1539457469928885 0
-0.1539457469928884 -0.9557737953860405 0
-0.1880061581352628 -0.8493050649929984 0
0.5651822417591963 -0.7834771926971511 0
0.4653570104185184 -0.7371556484094058 0
0.9105855218218359 -0.345639216275362 0
-0.7090009245680686 0.6677949905027851 0
0.7334898000749049 0.4676089414303556 0
-0.8570319333302185 0.180173992721449 0
-0.345639216275362 -0.9105855218218359 0
0.7090009245680686 -0.6677949905027851 0
0.3994773636581992 -0.8882850310028231 0
0.02913699540268759 -0.9735417278565386 0
-0.3994773636581992 0.8882850310028226 0
0.667794990502785 0.7090009245680683 0
-0.0291369954026877 0.9735417278565386 0
-0.6677949905027848 -0.7090009245680687 0
0.3456392162753615 0.9105855218218355 0
-0.9735417278565385 -0.02913699540268799 0
-0.8882850310028229 -0.3994773636581992 0
0.9735417278565385 0.0291369954026879 0
-0.9105855218218356 0.3456392162753614 0
0.8882850310028226 0.3994773636581994 0
-0.6625043515030655 0.5704273625477042 0
0.8405586584498651 -0.2888618400583071 0
-0.6288682199112424 -0.6135489841252346 0
0.6098194951446969 0.6082218930463399 0
-0.8726524401346625 0.01710869141703043 0
-0.3447031366433584 -0.8072940989403861 0
-0.3311044218508889 0.8375515952857397 0
0.321713029312313 -0.8165532321952825 0
-0.8132392203760953 -0.3226880520278359 0
0.345518084465276 0.8083584877771017 0
0.01308828953297892 0.874822442074127 0
-0.02373374911791312 -0.8744169529805045 0
0.6093380628418886 -0.6278476994076929 0
0.8710504349835791 0.06345679585419081 0
-0.5546188504516234 0.6818579493256474 0
-0.4600500553407895 0.62307235065836 0
-0.3723600715029337 0.6784355637787383 0
-0.35516806767606 0.5622142231856814 0
-0.2510582250919673 0.6255659764426831 0
-0.2460353878833424 0.492217658648368 0
-0.3496677998681857 0.4368123707400511 0
-0.2351589569198981 0.37063105752687 0
-0.1287939432636357 0.4268656753694005 0
-0.1192619902842063 0.298622343536479 0
-0.2608651957972989 0.2300062236680754 0
-0.119188353378872 0.1523517054337534 0
0.03048966831585499 0.2452482631130127 0
0.02226680877708988 0.08220127165731896 0
-0.1130110486435851 0.0002188402659916781 0
0.02185601627751899 -0.0716802352810165 0
0.1555063116213776 0.007471296598102682 0
-0.111419550178506 -0.1506857326754401 0
0.1572294743368398 -0.1426153582401505 0
-0.2425536216456132 -0.07934542591814642 0
0.2879576788573388 -0.06245167479362481 0
0.2837797004925243 0.08741031187604718 0
-0.2378555766341056 -0.2268783882062184 0
-0.1128490921573876 -0.299081729365421 0
0.2910477208263422 -0.2085189848358979 0
-0.3651222946096285 -0.1551972715058145 0
0.4109139508842175 0.01802374600353514 0
0.409070507149917 0.1584865156801846 0
-0.2353972765731361 -0.3718787607369897 0
-0.114529720672546 -0.4420743931914251 0
0.5294558685127733 0.09039121779879883 0
0.5321402408473901 -0.0508000214597326 0
0.5262886552074321 0.2273415546413781 0
0.4094496069222944 0.2951773310686691 0
-0.2342321670366516 -0.5101494601980171 0
-0.3516062614246677 -0.4437248702511958 0
-0.1162177721995889 -0.5778872807131697 0
0.001517918069020047 -0.5121063980307519 0
-0.3715430204982725 -0.01258882268930797 0
-0.490353133692246 -0.0865506241791496 0
-0.496177081699006 0.05103060765013866 0
-0.4819678581985368 -0.2301315801814747 0
-0.6102350367969098 -0.02022797502688999 0
-0.6142471337944592 0.1139376475764818 0
-0.5033372277561828 0.1853635055502461 0
0.1584424226844297 -0.3121926038252453 0
0.302461786813231 -0.3559939580333571 0
0.4160031128781685 -0.2791189581671916 0
0.420381198941318 -0.416865559170277 0
0.3168818303898193 -0.4858911115529024 0
0.5319939241646616 -0.3429843044610325 0
0.5217371488901129 0.3623736979618922 0
0.408072662139996 0.4295328212112328 0
0.2928061168592754 0.3628202979494737 0
0.2926408382593628 0.4973051242770888 0
0.1835294317265546 0.4304949667699057 0
0.1791195991025172 0.5643900970321578 0
0.001349156766089408 -0.6430956356005113 0
0.645292833082626 0.02630655466692082 0
0.6593147234429211 -0.1170702658763642 0
-0.6192739656895816 0.2444172452744073 0
0.1094202842618766 -0.5852014128392549 0
0.6316536796580714 0.293079976106036 0
-0.3491171181026074 -0.5766259095412246 0
-0.4552975512960965 -0.5093503596246335 0
0.4255911795349478 -0.5497249872209783 0
0.3193770181019395 -0.599102065282081 0
-0.5177287746881354 0.3161893970093823 0
0.2961491113876074 0.6193595418499741 0
0.06234303152290897 0.4897961585070661 0
0.06405200349451542 0.6305205905392517 0
-0.1243020972083077 -0.7201247832199595 0
0.5329931378463973 0.5024396547077012 0
0.534130329562585 -0.1976457043709495 0
0.6407837824969412 -0.2643634257787774 0
0.1754079358297467 0.2941632479854278 0
-0.7361265502593808 0.03621180353923455 0
-0.7249214433002967 -0.09517181816686382 0
-0.4711926049082998 -0.3718514320690301 0
-0.5674911370593092 -0.4452176434260826 0
0.1099373614613579 -0.725499989936894 0
-0.6316241544270941 0.3831881921367742 0
-0.5198102777046626 0.4459240924741082 0
0.1191979437227178 -0.4493130555943133 0
-0.04156878772814565 0.5763213671626408 0
-0.03045317360776554 0.6931704602384614 0
0.01970562024603918 -0.2249602033025148 0
-0.3934812814524435 0.2587028396965906 0
-0.2348535583568587 -0.6383217086484994 0
0.6352253457344995 0.1605558243709208 0
0.1917054857810197 0.6989656559194075 0
0.4120321723093403 -0.1300852662706435 0
-0.2481671362702905 0.06914620100984895 0
0.5276163392980224 -0.4657769642903559 0
-0.6075911369916417 -0.1595145457754288 0
-0.6036264067994365 -0.2925160524632978 0
-0.729061908760539 -0.2172735198548026 0
0.405646678846812 0.554345080128934 0
0.07225685008927128 0.7717508286555844 0
-0.3571903120580623 -0.2999437171584539 0
-0.7384141323088105 0.1778937042664577 0
0.7515035009858611 0.1021742784667534 0
0.7761445017350621 -0.02270962391776577 0
-0.7163950298602024 0.3006033293251992 0
0.6502915527391857 -0.4058219718463008 0
0.7540147990303929 -0.2180744137256696 0
0.004974450513340286 -0.3735055604278152 0
-0.007102466548789862 0.3773959340305582 0
-0.3818415776581017 0.1242346852987277 0
0.1585487299708862 0.1547596766600598 0
0.2881770995374406 0.2254695635366437 0
0.6369787164600135 0.4155671363994148 0
-0.01075062926934128 -0.7675991558419649 0
-0.3427457869329406 -0.6950213323287489 0
-0.2492372750851116 -0.7572684615529068 0
0.7543690017990996 -0.334966835745283 0
0.4062457867997318 0.6669260217819502 0
0.5054453213491614 0.6209375857461488 0
0.2067778369434055 -0.6497274787111135 0
0.2304593096044293 -0.7675714363193423 0
0.7454182357195407 0.2197969404486909 0
0.7475467041686394 0.3489686239976555 0
-0.6740303351400088 -0.3999846943627855 0
-0.6775168574315764 0.4681127466945523 0
-0.5525772263203402 0.5695628801118783 0
-0.4365500569448496 -0.6409390432660702 0
-0.1319586310861267 0.6564292479126986 0
-0.1967659221287737 0.7490721104734941 0
-0.0906168696110936 -0.8163345308014472 0
-0.8275314410068844 0.2996222773791827 0
0.2510774062004379 0.7698585958285771 0
0.7656804688937845 -0.4288124394275902 0
0.8702537410143172 0.165212212923472 0
0.8725943106014444 -0.191396456609378 0
0.2156142294531981 -0.5329735231541913 0
0.523100352106153 -0.5808917486778176 0
0.4301291535528257 -0.6473262384552615 0
-0.4483170017016993 0.5149843566791055 0
0.3401840975196326 -0.716171565561182 0
-0.6603239806981053 -0.5264938795929748 0
-0.8173106962416966 -0.06055754126386993 0
-0.8187346767910105 0.09904681272380843 0
-0.5473169917349008 -0.5896758502273277 0
0.6626617273706187 0.5265699488880458 0
0.5424204913682887 -0.6873268024751706 0
0.1016327433773656 0.8809319442174091 0
-0.8533621065679823 -0.2416704000575256 0
-0.7215586197000807 -0.3186877999749481 0
-0.2416704000575252 0.8533621065679825 0
0.2507620069896298 -0.8572000950131013 0
0.42862300613756 0.7724448466963036 0
-0.4266685515409024 -0.7581868005465391 0
0.2220304632994302 -0.4286060149454831 0
-0.1107203084806449 0.7704270063047453 0
-0.02454974592962398 0.7966762209659117 0
-0.1387289897440616 0.5414694647153911 0
-0.4346071034094262 0.3854442840626374 0
0.06442114477398415 -0.8581420945075259 0
-0.5889110063968385 -0.6778216033966918 0
0.5757826940109071 0.6833108969358106 0
-0.2745621631574715 -0.8508192936862439 0
-0.3905244814012603 0.7859868276549222 0
0.4011231102090886 -0.8005738736895384 0
-0.07076817706654569 0.8779089580020378 0
-0.787322490528422 -0.4025840792420003 0
0.6836470832657869 -0.5801608698148372 0
0.6177836857925432 -0.5265348788201383 0
0.7844883974136579 -0.1243142387866248 0
-0.1031798160621988 -0.9104310991229174 0
-0.6009883957111003 0.4927989030189926 0
0.8356469653453366 0.3409881065600406 0
0.2832727006812341 0.8684642378200725 0
0.9100142487918875 -0.01546227903381922 0
-0.03759538254411552 0.4742679813530931 0
0.3220472415394442 0.720293065335877 0
0.09509603757904095 0.3654982512153844 0
-0.911824849369741 0.1021752693952017 0
-0.3324640430690715 0.3350117042356685 0
-0.6369061876281121 0.6559849558230955 0
-0.2928685281691746 0.7408403217637378 0
-0.91286485604634 -0.06923467695397786 0
0.8466933668352311 -0.4009289318854849 0
-0.7448882475235648 0.5190556748650095 0
$EndNodes
$Elements
193 936 1 936
1 1 1 1
1 1 2 
1 2 1 1
2 2 3 
1 3 1 1
3 3 4 
1 4 1 1
4 4 5 
1 5 1 1
5 5 6 
1 6 1 1
6 6 7 
1 7 1 1
7 7 8 
1 8 1 1
8 8 9 
1 9 1 1
9 9 10 
1 10 1 1
10 10 11 
1 11 1 1
11 11 12 
1 12 1 1
12 12 13 
1 13 1 1
13 13 14 
1 14 1 1
14 14 15 
1 15 1 1
15 15 16 
1 16 1 1
16 16 17 
1 17 1 1
17 17 18 
1 18 1 1
18 18 19 
1 19 1 1
19 19 20 
1 20 1 1
20 20 21 
1 21 1 1
21 21 22 
1 22 1 1
22 22 23 
1 23 1 1
23 23 24 
1 24 1 1
24 24 25 
1 25 1 1
25 25 26 
1 26 1 1
26 26 27 
1 27 1 1
27 27 28 
1 28 1 1
28 28 29 
1 29 1 1
29 29 30 
1 30 1 1
30 30 31 
1 31 1 1
31 31 32 
1 32 1 1
32 32 33 
1 33 1 1
33 33 34 
1 34 1 1
34 34 35 
1 35 1 1
35 35 36 
1 36 1 1
36 36 37 
1 37 1 1
37 37 38 
1 38 1 1
38 38 39 
1 39 1 1
39 39 40 
1 40 1 1
40 40 41 
1 41 1 1
41 41 42 
1 42 1 1
42 42 43 
1 43 1 1
43 43 44 
1 44 1 1
44 44 45 
1 45 1 1
45 45 46 
1 46 1 1
46 46 47 
1 47 1 1
47 47 48 
1 48 1 1
48 48 49 
1 49 1 1
49 49 50 
1 50 1 1
50 50 51 
1 51 1 1
51 51 52 
1 52 1 1
52 52 53 
1 53 1 1
53 53 54 
1 54 1 1
54 54 55 
1 55 1 1
55 55 56 
1 56 1 1
56 56 57 
1 57 1 1
57 57 58 
1 58 1 1
58 58 59 
1 59 1 1
59 59 60 
1 60 1 1
60 60 61 
1 61 1 1
61 61 62 
1 62 1 1
62 62 63 
1 63 1 1
63 63 64 
1 64 1 1
64 64 65 
1 65 1 1
65 65 66 
1 66 1 1
66 66 67 
1 67 1 1
67 67 68 
1 68 1 1
68 68 69 
1 69 1 1
69 69 70 
1 70 1 1
70 70 71 
1 71 1 1
71 71 72 
1 72 1 1
72 72 73 
1 73 1 1
73 73 74 
1 74 1 1
74 74 75 
1 75 1 1
75 75 76 
1 76 1 1
76 76 77 
1 77 1 1
77 77 78 
1 78 1 1
78 78 79 
1 79 1 1
79 79 80 
1 80 1 1
80 80 81 
1 81 1 1
81 81 82 
1 82 1 1
82 82 83 
1 83 1 1
83 83 84 
1 84 1 1
84 84 85 
1 85 1 1
85 85 86 
1 86 1 1
86 86 87 
1 87 1 1
87 87 88 
1 88 1 1
88 88 89 
1 89 1 1
89 89 90 
1 90 1 1
90 90 91 
1 91 1 1
91 91 92 
1 92 1 1
92 92 93 
1 93 1 1
93 93 94 
1 94 1 1
94 94 95 
1 95 1 1
95 95 96 
1 96 1 1
96 96 97 
1 97 1 1
97 97 98 
1 98 1 1
98 98 99 
1 99 1 1
99 99 100 
1 100 1 1
100 100 101 
1 101 1 1
101 101 102 
1 102 1 1
102 102 103 
1 103 1 1
103 103 104 
1 104 1 1
104 104 105 
1 105 1 1
105 105 106 
1 106 1 1
106 106 107 
1 107 1 1
107 107 108 
1 108 1 1
108 108 109 
1 109 1 1
109 109 110 
1 110 1 1
110 110 111 
1 111 1 1
111 111 112 
1 112 1 1
112 112 113 
1 113 1 1
113 113 114 
1 114 1 1
114 114 115 
1 115 1 1
115 115 116 
1 116 1 1
116 116 117 
1 117 1 1
117 117 118 
1 118 1 1
118 118 119 
1 119 1 1
119 119 120 
1 120 1 1
120 120 121 
1 121 1 1
121 121 122 
1 122 1 1
122 122 123 
1 123 1 1
123 123 124 
1 124 1 1
124 124 125 
1 125 1 1
125 125 126 
1 126 1 1
126 126 127 
1 127 1 1
127 127 128 
1 128 1 1
128 128 129 
1 129 1 1
129 129 130 
1 130 1 1
130 130 131 
1 131 1 1
131 131 132 
1 132 1 1
132 132 133 
1 133 1 1
133 133 134 
1 134 1 1
134 134 135 
1 135 1 1
135 135 136 
1 136 1 1
136 136 137 
1 137 1 1
137 137 138 
1 138 1 1
138 138 139 
1 139 1 1
139 139 140 
1 140 1 1
140 140 141 
1 141 1 1
141 141 142 
1 142 1 1
142 142 143 
1 143 1 1
143 143 144 
1 144 1 1
144 144 145 
1 145 1 1
145 145 146 
1 146 1 1
146 146 147 
1 147 1 1
147 147 148 
1 148 1 1
148 148 149 
1 149 1 1
149 149 150 
1 150 1 1
150 150 151 
1 151 1 1
151 151 152 
1 152 1 1
152 152 153 
1 153 1 1
153 153 154 
1 154 1 1
154 154 155 
1 155 1 1
155 155 156 
1 156 1 1
156 156 157 
1 157 1 1
157 157 158 
1 158 1 1
158 158 159 
1 159 1 1
159 159 160 
1 160 1 1
160 160 161 
1 161 1 1
161 161 162 
1 162 1 1
162 162 163 
1 163 1 1
163 163 164 
1 164 1 1
164 164 165 
1 165 1 1
165 165 166 
1 166 1 1
166 166 167 
1 167 1 1
167 167 168 
1 168 1 1
168 168 169 
1 169 1 1
169 169 170 
1 170 1 1
170 170 171 
1 171 1 1
171 171 172 
1 172 1 1
172 172 173 
1 173 1 1
173 173 174 
1 174 1 1
174 174 175 
1 175 1 1
175 175 176 
1 176 1 1
176 176 177 
1 177 1 1
177 177 178 
1 178 1 1
178 178 179 
1 179 1 1
179 179 180 
1 180 1 1
180 180 181 
1 181 1 1
181 181 182 
1 182 1 1
182 182 183 
1 183 1 1
183 183 184 
1 184 1 1
184 184 185 
1 185 1 1
185 185 186 
1 186 1 1
186 186 187 
1 187 1 1
187 187 188 
1 188 1 1
188 188 189 
1 189 1 1
189 189 190 
1 190 1 1
190 190 191 
1 191 1 1
191 191 192 
1 192 1 1
192 192 1 
2 1 2 744
193 360 361 346 
194 408 457 219 
195 365 382 366 
196 388 419 407 
197 257 408 219 
198 166 253 210 
199 58 243 224 
200 142 251 212 
201 154 227 222 
202 22 249 219 
203 34 235 216 
204 118 231 215 
205 106 237 211 
206 46 247 223 
207 70 233 218 
208 130 229 214 
209 94 250 217 
210 178 225 221 
211 407 419 246 
212 201 426 231 
213 248 385 377 
214 328 382 365 
215 332 393 370 
216 318 360 346 
217 196 416 242 
218 230 438 412 
219 219 457 272 
220 238 383 364 
221 361 392 346 
222 412 438 400 
223 373 393 332 
224 358 401 252 
225 271 416 196 
226 205 430 249 
227 222 444 262 
228 252 415 358 
229 275 426 201 
230 382 409 366 
231 402 468 274 
232 365 386 328 
233 374 395 297 
234 10 419 220 
235 190 420 209 
236 245 419 10 
237 239 420 190 
238 359 430 276 
239 297 395 379 
240 318 378 360 
241 387 416 258 
242 276 404 359 
243 277 427 363 
244 299 396 362 
245 377 417 248 
246 418 468 402 
247 349 408 398 
248 423 431 422 
249 242 390 368 
250 398 408 257 
251 193 229 133 
252 197 227 157 
253 208 239 1 
254 201 231 121 
255 202 233 73 
256 198 237 109 
257 194 235 37 
258 204 247 49 
259 199 243 61 
260 196 241 85 
261 200 245 13 
262 205 249 25 
263 203 253 169 
264 390 416 387 
265 334 378 311 
266 276 430 205 
267 262 444 284 
268 181 468 225 
269 389 459 286 
270 363 428 277 
271 406 425 405 
272 364 427 238 
273 388 389 286 
274 305 373 332 
275 195 468 181 
276 360 378 334 
277 381 383 382 
278 238 433 383 
279 328 386 312 
280 367 444 228 
281 228 406 367 
282 248 432 385 
283 254 431 423 
284 362 462 299 
285 231 426 232 
286 242 416 390 
287 323 375 358 
288 319 376 349 
289 364 381 329 
290 228 444 222 
291 392 402 274 
292 364 383 381 
293 375 401 358 
294 311 378 307 
295 297 379 298 
296 357 385 372 
297 359 384 339 
298 370 439 332 
299 302 373 305 
300 274 468 255 
301 380 391 337 
302 300 396 299 
303 329 381 326 
304 240 459 389 
305 383 433 281 
306 377 385 357 
307 335 380 337 
308 317 376 319 
309 343 377 357 
310 321 375 323 
311 368 410 242 
312 298 379 301 
313 226 418 391 
314 249 430 257 
315 361 402 392 
316 326 381 328 
317 333 335 334 
318 313 317 314 
319 330 363 329 
320 315 321 316 
321 322 350 321 
322 405 425 353 
323 318 345 317 
324 327 329 326 
325 336 352 335 
326 306 312 309 
327 307 313 308 
328 322 386 365 
329 323 358 344 
330 381 382 328 
331 309 315 310 
332 319 349 338 
333 312 386 309 
334 335 337 334 
335 305 311 307 
336 332 333 311 
337 325 326 312 
338 317 319 314 
339 306 309 304 
340 341 355 343 
341 368 390 347 
342 133 229 132 
343 181 225 180 
344 37 235 36 
345 49 247 48 
346 73 233 72 
347 121 231 120 
348 157 227 156 
349 1 239 192 
350 13 245 12 
351 97 250 96 
352 109 237 108 
353 61 243 60 
354 85 241 84 
355 25 249 24 
356 145 251 144 
357 169 253 168 
358 326 328 312 
359 333 334 311 
360 321 323 316 
361 305 307 303 
362 339 384 341 
363 352 380 335 
364 330 387 363 
365 355 377 343 
366 322 351 350 
367 313 314 308 
368 338 359 339 
369 345 376 317 
370 327 330 329 
371 346 389 345 
372 318 346 345 
373 350 375 321 
374 315 386 322 
375 344 367 348 
376 315 316 310 
377 315 322 321 
378 363 364 329 
379 337 361 360 
380 336 353 352 
381 313 318 317 
382 341 384 355 
383 319 338 320 
384 357 372 371 
385 354 368 347 
386 325 327 326 
387 301 306 304 
388 333 336 335 
389 323 344 324 
390 307 308 303 
391 209 255 187 
392 212 259 139 
393 221 260 175 
394 213 256 79 
395 210 261 163 
396 215 269 115 
397 222 262 151 
398 224 265 55 
399 216 264 31 
400 214 266 127 
401 217 271 91 
402 220 270 7 
403 218 263 67 
404 219 272 19 
405 309 310 304 
406 365 366 351 
407 349 398 338 
408 331 347 330 
409 363 427 364 
410 355 461 377 
411 306 325 312 
412 302 305 303 
413 305 332 311 
414 343 357 356 
415 377 461 417 
416 286 419 388 
417 358 399 344 
418 246 408 407 
419 338 339 320 
420 354 369 368 
421 411 456 369 
422 307 378 313 
423 429 445 230 
424 344 348 324 
425 337 360 334 
426 341 343 342 
427 308 397 396 
428 383 434 382 
429 304 373 302 
430 319 320 314 
431 301 304 302 
432 309 386 315 
433 388 407 376 
434 331 354 347 
435 323 324 316 
436 357 371 356 
437 369 424 411 
438 302 303 300 
439 426 429 366 
440 322 365 351 
441 339 341 340 
442 327 331 330 
443 301 379 306 
444 347 387 330 
445 434 451 409 
446 345 388 376 
447 310 373 304 
448 313 378 318 
449 297 464 374 
450 343 356 342 
451 303 396 300 
452 396 397 362 
453 391 418 402 
454 281 434 383 
455 306 379 325 
456 337 391 361 
457 145 455 251 
458 412 429 230 
459 324 393 316 
460 403 404 236 
461 246 457 408 
462 310 393 373 
463 341 342 340 
464 280 425 406 
465 166 210 165 
466 142 212 141 
467 190 209 189 
468 58 224 57 
469 106 211 105 
470 46 223 45 
471 118 215 117 
472 70 218 69 
473 10 220 9 
474 34 216 33 
475 94 217 93 
476 22 219 21 
477 82 213 81 
478 130 214 129 
479 154 222 153 
480 178 221 177 
481 160 261 197 
482 136 259 193 
483 112 269 198 
484 124 266 201 
485 100 268 206 
486 88 271 196 
487 16 272 200 
488 64 263 199 
489 172 260 203 
490 148 262 207 
491 52 265 204 
492 40 267 194 
493 28 264 205 
494 370 393 324 
495 339 340 320 
496 167 253 166 
497 23 249 22 
498 131 229 130 
499 155 227 154 
500 179 225 178 
501 143 251 142 
502 83 241 82 
503 191 239 190 
504 107 237 106 
505 59 243 58 
506 47 247 46 
507 11 245 10 
508 35 235 34 
509 95 250 94 
510 71 233 70 
511 119 231 118 
512 301 302 300 
513 327 395 331 
514 314 397 308 
515 207 455 145 
516 348 370 324 
517 347 390 387 
518 296 394 295 
519 345 389 388 
520 379 395 325 
521 223 458 43 
522 43 458 267 
523 298 299 296 
524 298 301 300 
525 331 374 354 
526 413 440 414 
527 448 466 279 
528 299 394 296 
529 331 395 374 
530 316 393 310 
531 289 466 448 
532 294 295 292 
533 366 429 351 
534 97 463 250 
535 294 297 296 
536 290 291 289 
537 274 420 392 
538 290 293 292 
539 376 407 349 
540 409 451 232 
541 385 432 283 
542 325 395 327 
543 211 467 103 
544 103 467 268 
545 298 300 299 
546 270 459 4 
547 4 459 208 
548 342 362 340 
549 294 296 295 
550 206 463 97 
551 290 292 291 
552 297 298 296 
553 293 294 292 
554 332 439 333 
555 359 404 384 
556 387 428 363 
557 338 398 359 
558 320 397 314 
559 308 396 303 
560 288 290 289 
561 384 404 403 
562 299 462 394 
563 104 211 103 
564 116 215 115 
565 140 212 139 
566 188 209 187 
567 20 219 19 
568 164 210 163 
569 32 216 31 
570 80 213 79 
571 92 217 91 
572 8 220 7 
573 68 218 67 
574 44 223 43 
575 56 224 55 
576 128 214 127 
577 176 221 175 
578 152 222 151 
579 380 453 391 
580 346 454 389 
581 358 415 399 
582 288 289 234 
583 385 441 372 
584 340 397 320 
585 258 428 387 
586 232 426 409 
587 244 435 414 
588 76 465 202 
589 256 465 76 
590 398 430 359 
591 344 399 367 
592 435 466 414 
593 253 254 210 
594 235 236 216 
595 243 244 224 
596 247 248 223 
597 251 252 212 
598 227 228 222 
599 231 232 215 
600 249 257 219 
601 237 238 211 
602 233 234 218 
603 250 258 217 
604 225 226 221 
605 229 230 214 
606 362 397 340 
607 372 440 413 
608 441 450 440 
609 350 400 375 
610 285 453 422 
611 350 412 400 
612 409 426 366 
613 279 466 435 
614 369 456 368 
615 384 403 355 
616 413 414 291 
617 407 408 349 
618 275 429 426 
619 348 421 370 
620 425 449 254 
621 290 424 293 
622 289 448 234 
623 400 438 278 
624 336 421 353 
625 367 405 348 
626 294 464 297 
627 374 443 354 
628 394 462 356 
629 292 442 291 
630 424 443 293 
631 423 425 254 
632 241 469 82 
633 392 454 346 
634 440 450 244 
635 82 469 213 
636 420 454 392 
637 356 462 342 
638 391 402 361 
639 351 412 350 
640 399 444 367 
641 278 401 400 
642 391 453 226 
643 208 240 239 
644 200 246 245 
645 196 242 241 
646 352 423 422 
647 283 441 385 
648 287 288 234 
649 372 413 371 
650 399 415 284 
651 414 440 244 
652 258 416 217 
653 352 422 380 
654 291 442 413 
655 353 423 352 
656 411 424 288 
657 353 421 405 
658 367 406 405 
659 368 456 410 
660 281 451 434 
661 437 461 403 
662 400 401 375 
663 291 466 289 
664 233 287 234 
665 374 464 443 
666 369 443 424 
667 209 274 255 
668 213 273 256 
669 220 286 270 
670 414 466 291 
671 282 461 437 
672 422 431 285 
673 276 446 404 
674 225 418 226 
675 287 411 288 
676 421 439 370 
677 266 275 201 
678 261 280 197 
679 269 281 198 
680 263 279 199 
681 268 277 206 
682 260 285 203 
683 265 283 204 
684 262 284 207 
685 259 278 193 
686 267 282 194 
687 264 276 205 
688 389 454 240 
689 356 460 394 
690 220 419 286 
691 209 420 274 
692 251 455 252 
693 406 436 280 
694 333 439 336 
695 250 463 258 
696 187 255 186 
697 139 259 138 
698 134 193 133 
699 148 207 147 
700 160 197 159 
701 184 195 183 
702 136 193 135 
703 31 264 30 
704 172 203 171 
705 158 197 157 
706 79 256 78 
707 125 266 124 
708 161 261 160 
709 182 195 181 
710 100 206 99 
711 173 260 172 
712 17 272 16 
713 103 268 102 
714 122 201 121 
715 170 203 169 
716 86 196 85 
717 76 202 75 
718 74 202 73 
719 113 269 112 
720 62 199 61 
721 65 263 64 
722 101 268 100 
723 151 262 150 
724 163 261 162 
725 52 204 51 
726 146 207 145 
727 16 200 15 
728 55 265 54 
729 64 199 63 
730 110 198 109 
731 43 267 42 
732 89 271 88 
733 98 206 97 
734 88 196 87 
735 26 205 25 
736 115 269 114 
737 67 263 66 
738 91 271 90 
739 175 260 174 
740 137 259 136 
741 185 255 184 
742 112 198 111 
743 14 200 13 
744 50 204 49 
745 7 270 6 
746 2 208 1 
747 28 205 27 
748 40 194 39 
749 124 201 123 
750 149 262 148 
751 4 208 3 
752 77 256 76 
753 38 194 37 
754 41 267 40 
755 5 270 4 
756 127 266 126 
757 29 264 28 
758 53 265 52 
759 19 272 18 
760 394 460 295 
761 452 453 285 
762 288 424 290 
763 422 453 380 
764 242 469 241 
765 295 442 292 
766 240 420 239 
767 246 419 245 
768 217 416 271 
769 382 434 409 
770 202 287 233 
771 236 437 403 
772 257 430 398 
773 283 432 204 
774 282 437 194 
775 280 436 197 
776 279 435 199 
777 281 433 198 
778 285 431 203 
779 278 438 193 
780 354 443 369 
781 442 460 371 
782 253 431 254 
783 237 433 238 
784 227 436 228 
785 247 432 248 
786 235 437 236 
787 243 435 244 
788 229 438 230 
789 248 458 223 
790 371 460 356 
791 238 467 211 
792 404 446 236 
793 283 450 441 
794 228 436 406 
795 401 447 252 
796 295 460 442 
797 278 447 401 
798 236 446 216 
799 234 448 218 
800 244 450 224 
801 252 447 212 
802 230 445 214 
803 254 449 210 
804 232 451 215 
805 226 452 221 
806 342 462 362 
807 204 432 247 
808 194 437 235 
809 198 433 237 
810 199 435 243 
811 197 436 227 
812 193 438 229 
813 203 431 253 
814 293 464 294 
815 213 469 273 
816 284 444 399 
817 200 457 246 
818 410 469 242 
819 275 445 429 
820 266 445 275 
821 260 452 285 
822 259 447 278 
823 265 450 283 
824 261 449 280 
825 264 446 276 
826 263 448 279 
827 269 451 281 
828 405 421 348 
829 240 454 420 
830 252 455 415 
831 225 468 418 
832 208 459 240 
833 255 468 184 
834 258 463 428 
835 280 449 425 
836 410 456 273 
837 336 439 421 
838 286 459 270 
839 273 465 256 
840 284 455 207 
841 277 463 206 
842 267 458 282 
843 268 467 277 
844 273 456 411 
845 417 458 248 
846 273 469 410 
847 411 465 273 
848 351 429 412 
849 287 465 411 
850 443 464 293 
851 353 425 423 
852 403 461 355 
853 413 442 371 
854 212 447 259 
855 216 446 264 
856 221 452 260 
857 215 451 269 
858 214 445 266 
859 218 448 263 
860 224 450 265 
861 210 449 261 
862 282 458 417 
863 415 455 284 
864 202 465 287 
865 427 467 238 
866 417 461 282 
867 272 457 200 
868 428 463 277 
869 372 441 440 
870 226 453 452 
871 277 467 427 
872 184 468 195 
873 48 247 47 
874 72 233 71 
875 24 249 23 
876 12 245 11 
877 96 250 95 
878 36 235 35 
879 60 243 59 
880 84 241 83 
881 108 237 107 
882 168 253 167 
883 156 227 155 
884 192 239 191 
885 144 251 143 
886 120 231 119 
887 132 229 131 
888 180 225 179 
889 117 215 116 
890 165 210 164 
891 105 211 104 
892 141 212 140 
893 189 209 188 
894 33 216 32 
895 57 224 56 
896 45 223 44 
897 9 220 8 
898 69 218 68 
899 21 219 20 
900 93 217 92 
901 81 213 80 
902 153 222 152 
903 177 221 176 
904 129 214 128 
905 159 197 158 
906 171 203 170 
907 135 193 134 
908 183 195 182 
909 75 202 74 
910 87 196 86 
911 147 207 146 
912 30 264 29 
913 111 198 110 
914 150 262 149 
915 63 199 62 
916 99 206 98 
917 102 268 101 
918 42 267 41 
919 174 260 173 
920 15 200 14 
921 123 201 122 
922 6 270 5 
923 18 272 17 
924 66 263 65 
925 3 208 2 
926 27 205 26 
927 39 194 38 
928 126 266 125 
929 54 265 53 
930 114 269 113 
931 51 204 50 
932 90 271 89 
933 78 256 77 
934 186 255 185 
935 162 261 161 
936 138 259 137 
$EndElements
