$MeshFormat
4.1 0 8
$EndMeshFormat
$PhysicalNames
18
1 1 "Electrode1"
1 2 "Electrode2"
1 3 "Electrode3"
1 4 "Electrode4"
1 5 "Electrode5"
1 6 "Electrode6"
1 7 "Electrode7"
1 8 "Electrode8"
1 9 "Electrode9"
1 10 "Electrode10"
1 11 "Electrode11"
1 12 "Electrode12"
1 13 "Electrode13"
1 14 "Electrode14"
1 15 "Electrode15"
1 16 "Electrode16"
1 17 "No-Electrode"
2 1 "domain"
$EndPhysicalNames
$Entities
192 192 1 0
1 0.9945218953682733 -0.1045284632676535 0 0 
2 0.9972037971811801 -0.07473009358642424 0 0 
3 0.9989930665413147 -0.04486483035051493 0 0 
4 0.9998881018102734 -0.01495940701526363 0 0 
5 0.9998881018102734 0.01495940701526361 0 0 
6 0.9989930665413147 0.04486483035051492 0 0 
7 0.9972037971811801 0.07473009358642423 0 0 
8 0.9945218953682733 0.1045284632676535 0 0 
9 0.9900236577165575 0.1409012319375827 0 0 
10 0.9841956079692419 0.1770847403195833 0 0 
11 0.9770455744352636 0.2130303862749766 0 0 
12 0.9685831611286311 0.2486898871648548 0 0 
13 0.9588197348681931 0.2840153447039226 0 0 
14 0.949894146672846 0.3125717679456445 0 0 
15 0.940118274569219 0.3408483971225249 0 0 
16 0.9295008692868207 0.3688199208218619 0 0 
17 0.9180514348413259 0.3964613007416775 0 0 
18 0.905780220027194 0.4237477941033887 0 0 
19 0.8926982092436115 0.4506549757999452 0 0 
20 0.8788171126619654 0.4771587602596084 0 0 
21 0.8607420270039436 0.5090414157503713 0 0 
22 0.8415107819453062 0.540240320477655 0 0 
23 0.821149209133704 0.5707135676844316 0 0 
24 0.7996846584870906 0.600420225325884 0 0 
25 0.7771459614569708 0.6293203910498375 0 0 
26 0.7579717231454529 0.6522874112781212 0 0 
27 0.7381189974873407 0.6746705459320743 0 0 
28 0.7176055553608119 0.6964497590747668 0 0 
29 0.6964497590747669 0.7176055553608117 0 0 
30 0.6746705459320743 0.7381189974873406 0 0 
31 0.6522874112781212 0.7579717231454529 0 0 
32 0.6293203910498375 0.7771459614569708 0 0 
33 0.6004202253258841 0.7996846584870905 0 0 
34 0.5707135676844318 0.8211492091337039 0 0 
35 0.5402403204776551 0.8415107819453062 0 0 
36 0.5090414157503712 0.8607420270039436 0 0 
37 0.4771587602596084 0.8788171126619654 0 0 
38 0.4506549757999451 0.8926982092436115 0 0 
39 0.4237477941033888 0.905780220027194 0 0 
40 0.3964613007416776 0.9180514348413258 0 0 
41 0.368819920821862 0.9295008692868207 0 0 
42 0.340848397122525 0.940118274569219 0 0 
43 0.3125717679456447 0.9498941466728459 0 0 
44 0.2840153447039228 0.9588197348681931 0 0 
45 0.248689887164855 0.9685831611286311 0 0 
46 0.2130303862749766 0.9770455744352636 0 0 
47 0.1770847403195834 0.9841956079692419 0 0 
48 0.1409012319375826 0.9900236577165575 0 0 
49 0.1045284632676535 0.9945218953682733 0 0 
50 0.07473009358642417 0.9972037971811801 0 0 
51 0.04486483035051499 0.9989930665413146 0 0 
52 0.01495940701526361 0.9998881018102734 0 0 
53 -0.01495940701526348 0.9998881018102734 0 0 
54 -0.04486483035051464 0.9989930665413147 0 0 
55 -0.07473009358642427 0.9972037971811801 0 0 
56 -0.1045284632676533 0.9945218953682734 0 0 
57 -0.1409012319375827 0.9900236577165575 0 0 
58 -0.1770847403195833 0.9841956079692419 0 0 
59 -0.2130303862749765 0.9770455744352636 0 0 
60 -0.2486898871648546 0.9685831611286312 0 0 
61 -0.2840153447039226 0.9588197348681931 0 0 
62 -0.3125717679456443 0.949894146672846 0 0 
63 -0.340848397122525 0.940118274569219 0 0 
64 -0.3688199208218619 0.9295008692868207 0 0 
65 -0.3964613007416775 0.9180514348413259 0 0 
66 -0.4237477941033886 0.905780220027194 0 0 
67 -0.4506549757999454 0.8926982092436114 0 0 
68 -0.4771587602596085 0.8788171126619654 0 0 
69 -0.5090414157503713 0.8607420270039436 0 0 
70 -0.540240320477655 0.8415107819453062 0 0 
71 -0.5707135676844316 0.8211492091337041 0 0 
72 -0.6004202253258839 0.7996846584870906 0 0 
73 -0.6293203910498373 0.777145961456971 0 0 
74 -0.6522874112781208 0.7579717231454532 0 0 
75 -0.6746705459320743 0.7381189974873407 0 0 
76 -0.6964497590747667 0.7176055553608121 0 0 
77 -0.7176055553608119 0.6964497590747668 0 0 
78 -0.7381189974873406 0.6746705459320744 0 0 
79 -0.7579717231454531 0.652287411278121 0 0 
80 -0.7771459614569709 0.6293203910498374 0 0 
81 -0.7996846584870906 0.600420225325884 0 0 
82 -0.821149209133704 0.5707135676844317 0 0 
83 -0.841510781945306 0.5402403204776551 0 0 
84 -0.8607420270039435 0.5090414157503714 0 0 
85 -0.8788171126619653 0.4771587602596086 0 0 
86 -0.8926982092436113 0.4506549757999456 0 0 
87 -0.905780220027194 0.4237477941033888 0 0 
88 -0.9180514348413257 0.3964613007416778 0 0 
89 -0.9295008692868207 0.3688199208218619 0 0 
90 -0.940118274569219 0.340848397122525 0 0 
91 -0.949894146672846 0.3125717679456443 0 0 
92 -0.9588197348681931 0.2840153447039226 0 0 
93 -0.9685831611286311 0.2486898871648548 0 0 
94 -0.9770455744352636 0.2130303862749767 0 0 
95 -0.9841956079692419 0.1770847403195834 0 0 
96 -0.9900236577165575 0.1409012319375829 0 0 
97 -0.9945218953682733 0.1045284632676537 0 0 
98 -0.9972037971811801 0.07473009358642467 0 0 
99 -0.9989930665413146 0.04486483035051505 0 0 
100 -0.9998881018102734 0.01495940701526389 0 0 
101 -0.9998881018102734 -0.01495940701526364 0 0 
102 -0.9989930665413146 -0.04486483035051524 0 0 
103 -0.9972037971811801 -0.07473009358642442 0 0 
104 -0.9945218953682733 -0.1045284632676535 0 0 
105 -0.9900236577165575 -0.1409012319375831 0 0 
106 -0.984195607969242 -0.1770847403195832 0 0 
107 -0.9770455744352636 -0.2130303862749764 0 0 
108 -0.9685831611286313 -0.2486898871648542 0 0 
109 -0.9588197348681932 -0.2840153447039224 0 0 
110 -0.9498941466728461 -0.3125717679456441 0 0 
111 -0.9401182745692191 -0.3408483971225247 0 0 
112 -0.9295008692868209 -0.3688199208218617 0 0 
113 -0.9180514348413258 -0.3964613007416776 0 0 
114 -0.9057802200271942 -0.4237477941033886 0 0 
115 -0.8926982092436114 -0.4506549757999453 0 0 
116 -0.8788171126619654 -0.4771587602596084 0 0 
117 -0.8607420270039434 -0.5090414157503717 0 0 
118 -0.8415107819453062 -0.5402403204776549 0 0 
119 -0.8211492091337041 -0.5707135676844315 0 0 
120 -0.7996846584870909 -0.6004202253258835 0 0 
121 -0.7771459614569711 -0.6293203910498373 0 0 
122 -0.7579717231454532 -0.6522874112781208 0 0 
123 -0.7381189974873408 -0.6746705459320742 0 0 
124 -0.7176055553608121 -0.6964497590747666 0 0 
125 -0.6964497590747668 -0.7176055553608118 0 0 
126 -0.6746705459320744 -0.7381189974873406 0 0 
127 -0.6522874112781211 -0.757971723145453 0 0 
128 -0.6293203910498371 -0.7771459614569711 0 0 
129 -0.6004202253258841 -0.7996846584870905 0 0 
130 -0.5707135676844322 -0.8211492091337037 0 0 
131 -0.5402403204776551 -0.841510781945306 0 0 
132 -0.5090414157503719 -0.8607420270039433 0 0 
133 -0.4771587602596087 -0.8788171126619653 0 0 
134 -0.450654975799946 -0.8926982092436111 0 0 
135 -0.4237477941033885 -0.9057802200271942 0 0 
136 -0.3964613007416778 -0.9180514348413257 0 0 
137 -0.368819920821862 -0.9295008692868207 0 0 
138 -0.3408483971225255 -0.9401182745692188 0 0 
139 -0.312571767945644 -0.9498941466728461 0 0 
140 -0.2840153447039226 -0.9588197348681931 0 0 
141 -0.2486898871648544 -0.9685831611286312 0 0 
142 -0.2130303862749767 -0.9770455744352636 0 0 
143 -0.1770847403195831 -0.984195607969242 0 0 
144 -0.1409012319375829 -0.9900236577165575 0 0 
145 -0.1045284632676542 -0.9945218953682733 0 0 
146 -0.07473009358642473 -0.9972037971811801 0 0 
147 -0.0448648303505151 -0.9989930665413146 0 0 
148 -0.0149594070152635 -0.9998881018102734 0 0 
149 0.01495940701526314 -0.9998881018102734 0 0 
150 0.04486483035051474 -0.9989930665413147 0 0 
151 0.07473009358642436 -0.9972037971811801 0 0 
152 0.1045284632676539 -0.9945218953682733 0 0 
153 0.1409012319375826 -0.9900236577165575 0 0 
154 0.1770847403195827 -0.984195607969242 0 0 
155 0.2130303862749764 -0.9770455744352636 0 0 
156 0.2486898871648541 -0.9685831611286313 0 0 
157 0.2840153447039223 -0.9588197348681932 0 0 
158 0.3125717679456436 -0.9498941466728462 0 0 
159 0.3408483971225251 -0.9401182745692189 0 0 
160 0.3688199208218616 -0.9295008692868209 0 0 
161 0.3964613007416775 -0.9180514348413258 0 0 
162 0.4237477941033881 -0.9057802200271944 0 0 
163 0.4506549757999457 -0.8926982092436113 0 0 
164 0.4771587602596083 -0.8788171126619654 0 0 
165 0.5090414157503715 -0.8607420270039434 0 0 
166 0.5402403204776549 -0.8415107819453063 0 0 
167 0.5707135676844318 -0.8211492091337039 0 0 
168 0.6004202253258838 -0.7996846584870907 0 0 
169 0.6293203910498368 -0.7771459614569713 0 0 
170 0.6522874112781207 -0.7579717231454534 0 0 
171 0.6746705459320742 -0.7381189974873408 0 0 
172 0.6964497590747669 -0.7176055553608118 0 0 
173 0.7176055553608115 -0.6964497590747672 0 0 
174 0.7381189974873404 -0.6746705459320745 0 0 
175 0.757971723145453 -0.6522874112781211 0 0 
176 0.7771459614569711 -0.6293203910498372 0 0 
177 0.7996846584870905 -0.6004202253258841 0 0 
178 0.8211492091337037 -0.5707135676844323 0 0 
179 0.841510781945306 -0.5402403204776552 0 0 
180 0.8607420270039432 -0.509041415750372 0 0 
181 0.8788171126619652 -0.4771587602596087 0 0 
182 0.8926982092436111 -0.4506549757999461 0 0 
183 0.9057802200271942 -0.4237477941033885 0 0 
184 0.9180514348413257 -0.3964613007416779 0 0 
185 0.9295008692868207 -0.368819920821862 0 0 
186 0.9401182745692188 -0.3408483971225255 0 0 
187 0.9498941466728461 -0.312571767945644 0 0 
188 0.9588197348681931 -0.2840153447039227 0 0 
189 0.9685831611286312 -0.2486898871648545 0 0 
190 0.9770455744352636 -0.2130303862749768 0 0 
191 0.984195607969242 -0.1770847403195831 0 0 
192 0.9900236577165575 -0.140901231937583 0 0 
1 0.9945217953682733 -0.1045285632676535 -1e-07 0.9972038971811801 -0.07472999358642424 1e-07 1 1 2 1 -2 
2 0.9972036971811802 -0.07473019358642424 -1e-07 0.9989931665413146 -0.04486473035051493 1e-07 1 1 2 2 -3 
3 0.9989929665413148 -0.04486493035051493 -1e-07 0.9998882018102734 -0.01495930701526363 1e-07 1 1 2 3 -4 
4 0.9998880018102735 -0.01495950701526363 -1e-07 0.9998882018102734 0.01495950701526361 1e-07 1 1 2 4 -5 
5 0.9989929665413148 0.01495930701526361 -1e-07 0.9998882018102734 0.04486493035051492 1e-07 1 1 2 5 -6 
6 0.9972036971811802 0.04486473035051491 -1e-07 0.9989931665413146 0.07473019358642423 1e-07 1 1 2 6 -7 
7 0.9945217953682733 0.07472999358642422 -1e-07 0.9972038971811801 0.1045285632676535 1e-07 1 1 2 7 -8 
8 0.9900235577165576 0.1045283632676535 -1e-07 0.9945219953682732 0.1409013319375827 1e-07 1 0 2 8 -9 
9 0.9841955079692419 0.1409011319375827 -1e-07 0.9900237577165575 0.1770848403195833 1e-07 1 0 2 9 -10 
10 0.9770454744352637 0.1770846403195833 -1e-07 0.9841957079692418 0.2130304862749766 1e-07 1 0 2 10 -11 
11 0.9685830611286311 0.2130302862749766 -1e-07 0.9770456744352636 0.2486899871648548 1e-07 1 0 2 11 -12 
12 0.9588196348681931 0.2486897871648548 -1e-07 0.968583261128631 0.2840154447039226 1e-07 1 0 2 12 -13 
13 0.949894046672846 0.2840152447039226 -1e-07 0.958819834868193 0.3125718679456445 1e-07 1 2 2 13 -14 
14 0.9401181745692191 0.3125716679456444 -1e-07 0.9498942466728459 0.3408484971225249 1e-07 1 2 2 14 -15 
15 0.9295007692868208 0.3408482971225249 -1e-07 0.940118374569219 0.3688200208218619 1e-07 1 2 2 15 -16 
16 0.918051334841326 0.3688198208218619 -1e-07 0.9295009692868207 0.3964614007416775 1e-07 1 2 2 16 -17 
17 0.9057801200271941 0.3964612007416775 -1e-07 0.9180515348413258 0.4237478941033887 1e-07 1 2 2 17 -18 
18 0.8926981092436116 0.4237476941033887 -1e-07 0.905780320027194 0.4506550757999452 1e-07 1 2 2 18 -19 
19 0.8788170126619654 0.4506548757999452 -1e-07 0.8926983092436115 0.4771588602596084 1e-07 1 2 2 19 -20 
20 0.8607419270039437 0.4771586602596084 -1e-07 0.8788172126619653 0.5090415157503713 1e-07 1 0 2 20 -21 
21 0.8415106819453062 0.5090413157503714 -1e-07 0.8607421270039436 0.540240420477655 1e-07 1 0 2 21 -22 
22 0.8211491091337041 0.5402402204776551 -1e-07 0.8415108819453061 0.5707136676844315 1e-07 1 0 2 22 -23 
23 0.7996845584870906 0.5707134676844317 -1e-07 0.821149309133704 0.600420325325884 1e-07 1 0 2 23 -24 
24 0.7771458614569708 0.6004201253258841 -1e-07 0.7996847584870905 0.6293204910498374 1e-07 1 0 2 24 -25 
25 0.757971623145453 0.6293202910498376 -1e-07 0.7771460614569707 0.6522875112781211 1e-07 1 3 2 25 -26 
26 0.7381188974873407 0.6522873112781212 -1e-07 0.7579718231454529 0.6746706459320743 1e-07 1 3 2 26 -27 
27 0.717605455360812 0.6746704459320744 -1e-07 0.7381190974873406 0.6964498590747668 1e-07 1 3 2 27 -28 
28 0.696449659074767 0.6964496590747669 -1e-07 0.7176056553608119 0.7176056553608117 1e-07 1 3 2 28 -29 
29 0.6746704459320744 0.7176054553608118 -1e-07 0.6964498590747669 0.7381190974873405 1e-07 1 3 2 29 -30 
30 0.6522873112781212 0.7381188974873406 -1e-07 0.6746706459320743 0.7579718231454529 1e-07 1 3 2 30 -31 
31 0.6293202910498376 0.757971623145453 -1e-07 0.6522875112781211 0.7771460614569707 1e-07 1 3 2 31 -32 
32 0.6004201253258842 0.7771458614569708 -1e-07 0.6293204910498374 0.7996847584870904 1e-07 1 0 2 32 -33 
33 0.5707134676844319 0.7996845584870905 -1e-07 0.6004203253258841 0.8211493091337039 1e-07 1 0 2 33 -34 
34 0.5402402204776552 0.821149109133704 -1e-07 0.5707136676844318 0.8415108819453061 1e-07 1 0 2 34 -35 
35 0.5090413157503713 0.8415106819453062 -1e-07 0.5402404204776551 0.8607421270039436 1e-07 1 0 2 35 -36 
36 0.4771586602596084 0.8607419270039437 -1e-07 0.5090415157503712 0.8788172126619653 1e-07 1 0 2 36 -37 
37 0.4506548757999451 0.8788170126619654 -1e-07 0.4771588602596084 0.8926983092436115 1e-07 1 4 2 37 -38 
38 0.4237476941033888 0.8926981092436116 -1e-07 0.4506550757999451 0.905780320027194 1e-07 1 4 2 38 -39 
39 0.3964612007416776 0.9057801200271941 -1e-07 0.4237478941033888 0.9180515348413257 1e-07 1 4 2 39 -40 
40 0.368819820821862 0.9180513348413258 -1e-07 0.3964614007416776 0.9295009692868207 1e-07 1 4 2 40 -41 
41 0.340848297122525 0.9295007692868208 -1e-07 0.368820020821862 0.940118374569219 1e-07 1 4 2 41 -42 
42 0.3125716679456447 0.9401181745692191 -1e-07 0.340848497122525 0.9498942466728458 1e-07 1 4 2 42 -43 
43 0.2840152447039228 0.9498940466728459 -1e-07 0.3125718679456447 0.958819834868193 1e-07 1 4 2 43 -44 
44 0.248689787164855 0.9588196348681931 -1e-07 0.2840154447039228 0.968583261128631 1e-07 1 0 2 44 -45 
45 0.2130302862749766 0.9685830611286311 -1e-07 0.248689987164855 0.9770456744352636 1e-07 1 0 2 45 -46 
46 0.1770846403195834 0.9770454744352637 -1e-07 0.2130304862749766 0.9841957079692418 1e-07 1 0 2 46 -47 
47 0.1409011319375826 0.9841955079692419 -1e-07 0.1770848403195834 0.9900237577165575 1e-07 1 0 2 47 -48 
48 0.1045283632676535 0.9900235577165576 -1e-07 0.1409013319375826 0.9945219953682732 1e-07 1 0 2 48 -49 
49 0.07472999358642417 0.9945217953682733 -1e-07 0.1045285632676535 0.9972038971811801 1e-07 1 5 2 49 -50 
50 0.04486473035051498 0.9972036971811802 -1e-07 0.07473019358642417 0.9989931665413145 1e-07 1 5 2 50 -51 
51 0.0149593070152636 0.9989929665413146 -1e-07 0.04486493035051499 0.9998882018102734 1e-07 1 5 2 51 -52 
52 -0.01495950701526348 0.9998880018102735 -1e-07 0.0149595070152636 0.9998882018102734 1e-07 1 5 2 52 -53 
53 -0.04486493035051464 0.9989929665413148 -1e-07 -0.01495930701526348 0.9998882018102734 1e-07 1 5 2 53 -54 
54 -0.07473019358642427 0.9972036971811802 -1e-07 -0.04486473035051464 0.9989931665413146 1e-07 1 5 2 54 -55 
55 -0.1045285632676533 0.9945217953682735 -1e-07 -0.07472999358642426 0.9972038971811801 1e-07 1 5 2 55 -56 
56 -0.1409013319375827 0.9900235577165576 -1e-07 -0.1045283632676533 0.9945219953682733 1e-07 1 0 2 56 -57 
57 -0.1770848403195833 0.9841955079692419 -1e-07 -0.1409011319375827 0.9900237577165575 1e-07 1 0 2 57 -58 
58 -0.2130304862749765 0.9770454744352637 -1e-07 -0.1770846403195833 0.9841957079692418 1e-07 1 0 2 58 -59 
59 -0.2486899871648546 0.9685830611286312 -1e-07 -0.2130302862749765 0.9770456744352636 1e-07 1 0 2 59 -60 
60 -0.2840154447039226 0.9588196348681931 -1e-07 -0.2486897871648546 0.9685832611286311 1e-07 1 0 2 60 -61 
61 -0.3125718679456443 0.949894046672846 -1e-07 -0.2840152447039226 0.958819834868193 1e-07 1 6 2 61 -62 
62 -0.340848497122525 0.9401181745692191 -1e-07 -0.3125716679456443 0.9498942466728459 1e-07 1 6 2 62 -63 
63 -0.3688200208218619 0.9295007692868208 -1e-07 -0.340848297122525 0.940118374569219 1e-07 1 6 2 63 -64 
64 -0.3964614007416775 0.918051334841326 -1e-07 -0.3688198208218619 0.9295009692868207 1e-07 1 6 2 64 -65 
65 -0.4237478941033886 0.9057801200271941 -1e-07 -0.3964612007416775 0.9180515348413258 1e-07 1 6 2 65 -66 
66 -0.4506550757999454 0.8926981092436115 -1e-07 -0.4237476941033886 0.905780320027194 1e-07 1 6 2 66 -67 
67 -0.4771588602596085 0.8788170126619654 -1e-07 -0.4506548757999454 0.8926983092436114 1e-07 1 6 2 67 -68 
68 -0.5090415157503713 0.8607419270039437 -1e-07 -0.4771586602596085 0.8788172126619653 1e-07 1 0 2 68 -69 
69 -0.540240420477655 0.8415106819453062 -1e-07 -0.5090413157503714 0.8607421270039436 1e-07 1 0 2 69 -70 
70 -0.5707136676844315 0.8211491091337042 -1e-07 -0.5402402204776551 0.8415108819453061 1e-07 1 0 2 70 -71 
71 -0.6004203253258839 0.7996845584870906 -1e-07 -0.5707134676844317 0.8211493091337041 1e-07 1 0 2 71 -72 
72 -0.6293204910498372 0.7771458614569711 -1e-07 -0.600420125325884 0.7996847584870905 1e-07 1 0 2 72 -73 
73 -0.6522875112781208 0.7579716231454533 -1e-07 -0.6293202910498373 0.777146061456971 1e-07 1 7 2 73 -74 
74 -0.6746706459320743 0.7381188974873407 -1e-07 -0.6522873112781209 0.7579718231454532 1e-07 1 7 2 74 -75 
75 -0.6964498590747666 0.7176054553608121 -1e-07 -0.6746704459320744 0.7381190974873406 1e-07 1 7 2 75 -76 
76 -0.7176056553608119 0.6964496590747669 -1e-07 -0.6964496590747667 0.717605655360812 1e-07 1 7 2 76 -77 
77 -0.7381190974873405 0.6746704459320745 -1e-07 -0.717605455360812 0.6964498590747668 1e-07 1 7 2 77 -78 
78 -0.7579718231454531 0.652287311278121 -1e-07 -0.7381188974873406 0.6746706459320744 1e-07 1 7 2 78 -79 
79 -0.7771460614569708 0.6293202910498374 -1e-07 -0.7579716231454532 0.6522875112781209 1e-07 1 7 2 79 -80 
80 -0.7996847584870905 0.6004201253258841 -1e-07 -0.777145861456971 0.6293204910498373 1e-07 1 0 2 80 -81 
81 -0.821149309133704 0.5707134676844318 -1e-07 -0.7996845584870906 0.600420325325884 1e-07 1 0 2 81 -82 
82 -0.841510881945306 0.5402402204776552 -1e-07 -0.8211491091337041 0.5707136676844317 1e-07 1 0 2 82 -83 
83 -0.8607421270039435 0.5090413157503715 -1e-07 -0.8415106819453061 0.5402404204776551 1e-07 1 0 2 83 -84 
84 -0.8788172126619652 0.4771586602596086 -1e-07 -0.8607419270039436 0.5090415157503714 1e-07 1 0 2 84 -85 
85 -0.8926983092436113 0.4506548757999456 -1e-07 -0.8788170126619653 0.4771588602596086 1e-07 1 8 2 85 -86 
86 -0.905780320027194 0.4237476941033888 -1e-07 -0.8926981092436114 0.4506550757999456 1e-07 1 8 2 86 -87 
87 -0.9180515348413256 0.3964612007416778 -1e-07 -0.9057801200271941 0.4237478941033888 1e-07 1 8 2 87 -88 
88 -0.9295009692868207 0.3688198208218619 -1e-07 -0.9180513348413257 0.3964614007416778 1e-07 1 8 2 88 -89 
89 -0.940118374569219 0.340848297122525 -1e-07 -0.9295007692868208 0.3688200208218619 1e-07 1 8 2 89 -90 
90 -0.9498942466728459 0.3125716679456443 -1e-07 -0.9401181745692191 0.340848497122525 1e-07 1 8 2 90 -91 
91 -0.958819834868193 0.2840152447039226 -1e-07 -0.949894046672846 0.3125718679456443 1e-07 1 8 2 91 -92 
92 -0.968583261128631 0.2486897871648548 -1e-07 -0.9588196348681931 0.2840154447039226 1e-07 1 0 2 92 -93 
93 -0.9770456744352636 0.2130302862749767 -1e-07 -0.9685830611286311 0.2486899871648548 1e-07 1 0 2 93 -94 
94 -0.9841957079692418 0.1770846403195834 -1e-07 -0.9770454744352637 0.2130304862749767 1e-07 1 0 2 94 -95 
95 -0.9900237577165575 0.1409011319375829 -1e-07 -0.9841955079692419 0.1770848403195834 1e-07 1 0 2 95 -96 
96 -0.9945219953682732 0.1045283632676537 -1e-07 -0.9900235577165576 0.1409013319375829 1e-07 1 0 2 96 -97 
97 -0.9972038971811801 0.07472999358642467 -1e-07 -0.9945217953682733 0.1045285632676537 1e-07 1 9 2 97 -98 
98 -0.9989931665413145 0.04486473035051505 -1e-07 -0.9972036971811802 0.07473019358642467 1e-07 1 9 2 98 -99 
99 -0.9998882018102734 0.01495930701526389 -1e-07 -0.9989929665413146 0.04486493035051505 1e-07 1 9 2 99 -100 
100 -0.9998882018102734 -0.01495950701526364 -1e-07 -0.9998880018102735 0.01495950701526389 1e-07 1 9 2 100 -101 
101 -0.9998882018102734 -0.04486493035051525 -1e-07 -0.9989929665413146 -0.01495930701526364 1e-07 1 9 2 101 -102 
102 -0.9989931665413145 -0.07473019358642442 -1e-07 -0.9972036971811802 -0.04486473035051524 1e-07 1 9 2 102 -103 
103 -0.9972038971811801 -0.1045285632676535 -1e-07 -0.9945217953682733 -0.07472999358642442 1e-07 1 9 2 103 -104 
104 -0.9945219953682732 -0.1409013319375831 -1e-07 -0.9900235577165576 -0.1045283632676535 1e-07 1 0 2 104 -105 
105 -0.9900237577165575 -0.1770848403195832 -1e-07 -0.984195507969242 -0.1409011319375831 1e-07 1 0 2 105 -106 
106 -0.9841957079692419 -0.2130304862749764 -1e-07 -0.9770454744352637 -0.1770846403195832 1e-07 1 0 2 106 -107 
107 -0.9770456744352636 -0.2486899871648542 -1e-07 -0.9685830611286314 -0.2130302862749764 1e-07 1 0 2 107 -108 
108 -0.9685832611286312 -0.2840154447039224 -1e-07 -0.9588196348681932 -0.2486897871648542 1e-07 1 0 2 108 -109 
109 -0.9588198348681931 -0.3125718679456441 -1e-07 -0.9498940466728462 -0.2840152447039224 1e-07 1 10 2 109 -110 
110 -0.9498942466728461 -0.3408484971225247 -1e-07 -0.9401181745692192 -0.3125716679456441 1e-07 1 10 2 110 -111 
111 -0.9401183745692191 -0.3688200208218617 -1e-07 -0.9295007692868209 -0.3408482971225247 1e-07 1 10 2 111 -112 
112 -0.9295009692868208 -0.3964614007416776 -1e-07 -0.9180513348413258 -0.3688198208218617 1e-07 1 10 2 112 -113 
113 -0.9180515348413257 -0.4237478941033886 -1e-07 -0.9057801200271942 -0.3964612007416776 1e-07 1 10 2 113 -114 
114 -0.9057803200271941 -0.4506550757999453 -1e-07 -0.8926981092436115 -0.4237476941033886 1e-07 1 10 2 114 -115 
115 -0.8926983092436114 -0.4771588602596084 -1e-07 -0.8788170126619654 -0.4506548757999453 1e-07 1 10 2 115 -116 
116 -0.8788172126619653 -0.5090415157503716 -1e-07 -0.8607419270039435 -0.4771586602596084 1e-07 1 0 2 116 -117 
117 -0.8607421270039434 -0.5402404204776549 -1e-07 -0.8415106819453062 -0.5090413157503717 1e-07 1 0 2 117 -118 
118 -0.8415108819453061 -0.5707136676844314 -1e-07 -0.8211491091337042 -0.540240220477655 1e-07 1 0 2 118 -119 
119 -0.8211493091337041 -0.6004203253258834 -1e-07 -0.799684558487091 -0.5707134676844315 1e-07 1 0 2 119 -120 
120 -0.7996847584870909 -0.6293204910498372 -1e-07 -0.7771458614569712 -0.6004201253258835 1e-07 1 0 2 120 -121 
121 -0.7771460614569711 -0.6522875112781208 -1e-07 -0.7579716231454533 -0.6293202910498373 1e-07 1 11 2 121 -122 
122 -0.7579718231454532 -0.6746706459320742 -1e-07 -0.7381188974873408 -0.6522873112781209 1e-07 1 11 2 122 -123 
123 -0.7381190974873407 -0.6964498590747665 -1e-07 -0.7176054553608121 -0.6746704459320743 1e-07 1 11 2 123 -124 
124 -0.717605655360812 -0.7176056553608118 -1e-07 -0.6964496590747669 -0.6964496590747666 1e-07 1 11 2 124 -125 
125 -0.6964498590747668 -0.7381190974873405 -1e-07 -0.6746704459320745 -0.7176054553608119 1e-07 1 11 2 125 -126 
126 -0.6746706459320744 -0.757971823145453 -1e-07 -0.6522873112781211 -0.7381188974873406 1e-07 1 11 2 126 -127 
127 -0.652287511278121 -0.7771460614569711 -1e-07 -0.6293202910498371 -0.7579716231454531 1e-07 1 11 2 127 -128 
128 -0.629320491049837 -0.7996847584870904 -1e-07 -0.6004201253258842 -0.7771458614569712 1e-07 1 0 2 128 -129 
129 -0.6004203253258841 -0.8211493091337037 -1e-07 -0.5707134676844322 -0.7996845584870905 1e-07 1 0 2 129 -130 
130 -0.5707136676844321 -0.841510881945306 -1e-07 -0.5402402204776552 -0.8211491091337038 1e-07 1 0 2 130 -131 
131 -0.5402404204776551 -0.8607421270039433 -1e-07 -0.5090413157503719 -0.8415106819453061 1e-07 1 0 2 131 -132 
132 -0.5090415157503718 -0.8788172126619652 -1e-07 -0.4771586602596087 -0.8607419270039434 1e-07 1 0 2 132 -133 
133 -0.4771588602596087 -0.892698309243611 -1e-07 -0.450654875799946 -0.8788170126619653 1e-07 1 12 2 133 -134 
134 -0.450655075799946 -0.9057803200271941 -1e-07 -0.4237476941033885 -0.8926981092436111 1e-07 1 12 2 134 -135 
135 -0.4237478941033885 -0.9180515348413256 -1e-07 -0.3964612007416778 -0.9057801200271942 1e-07 1 12 2 135 -136 
136 -0.3964614007416778 -0.9295009692868207 -1e-07 -0.368819820821862 -0.9180513348413257 1e-07 1 12 2 136 -137 
137 -0.368820020821862 -0.9401183745692188 -1e-07 -0.3408482971225255 -0.9295007692868208 1e-07 1 12 2 137 -138 
138 -0.3408484971225255 -0.9498942466728461 -1e-07 -0.3125716679456439 -0.9401181745692189 1e-07 1 12 2 138 -139 
139 -0.312571867945644 -0.958819834868193 -1e-07 -0.2840152447039226 -0.9498940466728462 1e-07 1 12 2 139 -140 
140 -0.2840154447039226 -0.9685832611286311 -1e-07 -0.2486897871648544 -0.9588196348681931 1e-07 1 0 2 140 -141 
141 -0.2486899871648544 -0.9770456744352636 -1e-07 -0.2130302862749767 -0.9685830611286312 1e-07 1 0 2 141 -142 
142 -0.2130304862749767 -0.9841957079692419 -1e-07 -0.1770846403195831 -0.9770454744352637 1e-07 1 0 2 142 -143 
143 -0.1770848403195831 -0.9900237577165575 -1e-07 -0.1409011319375829 -0.984195507969242 1e-07 1 0 2 143 -144 
144 -0.1409013319375829 -0.9945219953682732 -1e-07 -0.1045283632676542 -0.9900235577165576 1e-07 1 0 2 144 -145 
145 -0.1045285632676542 -0.9972038971811801 -1e-07 -0.07472999358642472 -0.9945217953682733 1e-07 1 13 2 145 -146 
146 -0.07473019358642473 -0.9989931665413145 -1e-07 -0.0448647303505151 -0.9972036971811802 1e-07 1 13 2 146 -147 
147 -0.04486493035051511 -0.9998882018102734 -1e-07 -0.01495930701526351 -0.9989929665413146 1e-07 1 13 2 147 -148 
148 -0.0149595070152635 -0.9998882018102734 -1e-07 0.01495950701526314 -0.9998880018102735 1e-07 1 13 2 148 -149 
149 0.01495930701526314 -0.9998882018102734 -1e-07 0.04486493035051475 -0.9989929665413148 1e-07 1 13 2 149 -150 
150 0.04486473035051474 -0.9989931665413146 -1e-07 0.07473019358642437 -0.9972036971811802 1e-07 1 13 2 150 -151 
151 0.07472999358642436 -0.9972038971811801 -1e-07 0.1045285632676539 -0.9945217953682733 1e-07 1 13 2 151 -152 
152 0.1045283632676539 -0.9945219953682732 -1e-07 0.1409013319375826 -0.9900235577165576 1e-07 1 0 2 152 -153 
153 0.1409011319375826 -0.9900237577165575 -1e-07 0.1770848403195827 -0.984195507969242 1e-07 1 0 2 153 -154 
154 0.1770846403195827 -0.9841957079692419 -1e-07 0.2130304862749764 -0.9770454744352637 1e-07 1 0 2 154 -155 
155 0.2130302862749764 -0.9770456744352636 -1e-07 0.2486899871648541 -0.9685830611286314 1e-07 1 0 2 155 -156 
156 0.2486897871648541 -0.9685832611286312 -1e-07 0.2840154447039223 -0.9588196348681932 1e-07 1 0 2 156 -157 
157 0.2840152447039223 -0.9588198348681931 -1e-07 0.3125718679456436 -0.9498940466728463 1e-07 1 14 2 157 -158 
158 0.3125716679456436 -0.9498942466728462 -1e-07 0.3408484971225251 -0.940118174569219 1e-07 1 14 2 158 -159 
159 0.3408482971225251 -0.9401183745692189 -1e-07 0.3688200208218616 -0.9295007692868209 1e-07 1 14 2 159 -160 
160 0.3688198208218616 -0.9295009692868208 -1e-07 0.3964614007416775 -0.9180513348413258 1e-07 1 14 2 160 -161 
161 0.3964612007416775 -0.9180515348413257 -1e-07 0.4237478941033881 -0.9057801200271944 1e-07 1 14 2 161 -162 
162 0.4237476941033881 -0.9057803200271943 -1e-07 0.4506550757999457 -0.8926981092436114 1e-07 1 14 2 162 -163 
163 0.4506548757999457 -0.8926983092436113 -1e-07 0.4771588602596084 -0.8788170126619654 1e-07 1 14 2 163 -164 
164 0.4771586602596083 -0.8788172126619653 -1e-07 0.5090415157503715 -0.8607419270039435 1e-07 1 0 2 164 -165 
165 0.5090413157503716 -0.8607421270039434 -1e-07 0.5402404204776549 -0.8415106819453063 1e-07 1 0 2 165 -166 
166 0.540240220477655 -0.8415108819453062 -1e-07 0.5707136676844318 -0.821149109133704 1e-07 1 0 2 166 -167 
167 0.5707134676844319 -0.8211493091337039 -1e-07 0.6004203253258837 -0.7996845584870907 1e-07 1 0 2 167 -168 
168 0.6004201253258838 -0.7996847584870906 -1e-07 0.6293204910498368 -0.7771458614569714 1e-07 1 0 2 168 -169 
169 0.6293202910498369 -0.7771460614569713 -1e-07 0.6522875112781207 -0.7579716231454534 1e-07 1 15 2 169 -170 
170 0.6522873112781208 -0.7579718231454533 -1e-07 0.6746706459320742 -0.7381188974873408 1e-07 1 15 2 170 -171 
171 0.6746704459320743 -0.7381190974873407 -1e-07 0.6964498590747669 -0.7176054553608119 1e-07 1 15 2 171 -172 
172 0.696449659074767 -0.7176056553608118 -1e-07 0.7176056553608114 -0.6964496590747673 1e-07 1 15 2 172 -173 
173 0.7176054553608116 -0.6964498590747672 -1e-07 0.7381190974873404 -0.6746704459320746 1e-07 1 15 2 173 -174 
174 0.7381188974873405 -0.6746706459320745 -1e-07 0.757971823145453 -0.6522873112781211 1e-07 1 15 2 174 -175 
175 0.7579716231454531 -0.652287511278121 -1e-07 0.7771460614569711 -0.6293202910498372 1e-07 1 15 2 175 -176 
176 0.7771458614569712 -0.6293204910498371 -1e-07 0.7996847584870904 -0.6004201253258842 1e-07 1 0 2 176 -177 
177 0.7996845584870905 -0.6004203253258841 -1e-07 0.8211493091337037 -0.5707134676844323 1e-07 1 0 2 177 -178 
178 0.8211491091337038 -0.5707136676844322 -1e-07 0.841510881945306 -0.5402402204776553 1e-07 1 0 2 178 -179 
179 0.8415106819453061 -0.5402404204776552 -1e-07 0.8607421270039431 -0.509041315750372 1e-07 1 0 2 179 -180 
180 0.8607419270039433 -0.5090415157503719 -1e-07 0.8788172126619651 -0.4771586602596087 1e-07 1 0 2 180 -181 
181 0.8788170126619652 -0.4771588602596087 -1e-07 0.892698309243611 -0.4506548757999461 1e-07 1 16 2 181 -182 
182 0.8926981092436111 -0.4506550757999461 -1e-07 0.9057803200271941 -0.4237476941033885 1e-07 1 16 2 182 -183 
183 0.9057801200271942 -0.4237478941033885 -1e-07 0.9180515348413256 -0.3964612007416779 1e-07 1 16 2 183 -184 
184 0.9180513348413257 -0.3964614007416779 -1e-07 0.9295009692868207 -0.368819820821862 1e-07 1 16 2 184 -185 
185 0.9295007692868208 -0.368820020821862 -1e-07 0.9401183745692188 -0.3408482971225255 1e-07 1 16 2 185 -186 
186 0.9401181745692189 -0.3408484971225255 -1e-07 0.9498942466728461 -0.312571667945644 1e-07 1 16 2 186 -187 
187 0.9498940466728462 -0.312571867945644 -1e-07 0.958819834868193 -0.2840152447039227 1e-07 1 16 2 187 -188 
188 0.9588196348681931 -0.2840154447039227 -1e-07 0.9685832611286311 -0.2486897871648545 1e-07 1 0 2 188 -189 
189 0.9685830611286312 -0.2486899871648545 -1e-07 0.9770456744352636 -0.2130302862749768 1e-07 1 0 2 189 -190 
190 0.9770454744352637 -0.2130304862749768 -1e-07 0.9841957079692419 -0.1770846403195831 1e-07 1 0 2 190 -191 
191 0.984195507969242 -0.1770848403195831 -1e-07 0.9900237577165575 -0.140901131937583 1e-07 1 0 2 191 -192 
192 0.9900235577165576 -0.140901331937583 -1e-07 0.9945219953682732 -0.1045283632676535 1e-07 1 0 2 192 -1 
1 -0.9998882018102734 -0.9998882018102734 -1e-07 0.9998882018102734 0.9998882018102734 1e-07 1 1 192 1 2 3 4 5 6 7 8 9 10 11 12 13 14 15 16 17 18 19 20 21 22 23 24 25 26 27 28 29 30 31 32 33 34 35 36 37 38 39 40 41 42 43 44 45 46 47 48 49 50 51 52 53 54 55 56 57 58 59 60 61 62 63 64 65 66 67 68 69 70 71 72 73 74 75 76 77 78 79 80 81 82 83 84 85 86 87 88 89 90 91 92 93 94 95 96 97 98 99 100 101 102 103 104 105 106 107 108 109 110 111 112 113 114 115 116 117 118 119 120 121 122 123 124 125 126 127 128 129 130 131 132 133 134 135 136 137 138 139 140 141 142 143 144 145 146 147 148 149 150 151 152 153 154 155 156 157 158 159 160 161 162 163 164 165 166 167 168 169 170 171 172 173 174 175 176 177 178 179 180 181 182 183 184 185 186 187 188 189 190 191 192 
$EndEntities
$Nodes
385 338 1 338
0 1 0 1
1
0.9945218953682733 -0.1045284632676535 0
0 2 0 1
2
0.9972037971811801 -0.07473009358642424 0
0 3 0 1
3
0.9989930665413147 -0.04486483035051493 0
0 4 0 1
4
0.9998881018102734 -0.01495940701526363 0
0 5 0 1
5
0.9998881018102734 0.01495940701526361 0
0 6 0 1
6
0.9989930665413147 0.04486483035051492 0
0 7 0 1
7
0.9972037971811801 0.07473009358642423 0
0 8 0 1
8
0.9945218953682733 0.1045284632676535 0
0 9 0 1
9
0.9900236577165575 0.1409012319375827 0
0 10 0 1
10
0.9841956079692419 0.1770847403195833 0
0 11 0 1
11
0.9770455744352636 0.2130303862749766 0
0 12 0 1
12
0.9685831611286311 0.2486898871648548 0
0 13 0 1
13
0.9588197348681931 0.2840153447039226 0
0 14 0 1
14
0.949894146672846 0.3125717679456445 0
0 15 0 1
15
0.940118274569219 0.3408483971225249 0
0 16 0 1
16
0.9295008692868207 0.3688199208218619 0
0 17 0 1
17
0.9180514348413259 0.3964613007416775 0
0 18 0 1
18
0.905780220027194 0.4237477941033887 0
0 19 0 1
19
0.8926982092436115 0.4506549757999452 0
0 20 0 1
20
0.8788171126619654 0.4771587602596084 0
0 21 0 1
21
0.8607420270039436 0.5090414157503713 0
0 22 0 1
22
0.8415107819453062 0.540240320477655 0
0 23 0 1
23
0.821149209133704 0.5707135676844316 0
0 24 0 1
24
0.7996846584870906 0.600420225325884 0
0 25 0 1
25
0.7771459614569708 0.6293203910498375 0
0 26 0 1
26
0.7579717231454529 0.6522874112781212 0
0 27 0 1
27
0.7381189974873407 0.6746705459320743 0
0 28 0 1
28
0.7176055553608119 0.6964497590747668 0
0 29 0 1
29
0.6964497590747669 0.7176055553608117 0
0 30 0 1
30
0.6746705459320743 0.7381189974873406 0
0 31 0 1
31
0.6522874112781212 0.7579717231454529 0
0 32 0 1
32
0.6293203910498375 0.7771459614569708 0
0 33 0 1
33
0.6004202253258841 0.7996846584870905 0
0 34 0 1
34
0.5707135676844318 0.8211492091337039 0
0 35 0 1
35
0.5402403204776551 0.8415107819453062 0
0 36 0 1
36
0.5090414157503712 0.8607420270039436 0
0 37 0 1
37
0.4771587602596084 0.8788171126619654 0
0 38 0 1
38
0.4506549757999451 0.8926982092436115 0
0 39 0 1
39
0.4237477941033888 0.905780220027194 0
0 40 0 1
40
0.3964613007416776 0.9180514348413258 0
0 41 0 1
41
0.368819920821862 0.9295008692868207 0
0 42 0 1
42
0.340848397122525 0.940118274569219 0
0 43 0 1
43
0.3125717679456447 0.9498941466728459 0
0 44 0 1
44
0.2840153447039228 0.9588197348681931 0
0 45 0 1
45
0.248689887164855 0.9685831611286311 0
0 46 0 1
46
0.2130303862749766 0.9770455744352636 0
0 47 0 1
47
0.1770847403195834 0.9841956079692419 0
0 48 0 1
48
0.1409012319375826 0.9900236577165575 0
0 49 0 1
49
0.1045284632676535 0.9945218953682733 0
0 50 0 1
50
0.07473009358642417 0.9972037971811801 0
0 51 0 1
51
0.04486483035051499 0.9989930665413146 0
0 52 0 1
52
0.01495940701526361 0.9998881018102734 0
0 53 0 1
53
-0.01495940701526348 0.9998881018102734 0
0 54 0 1
54
-0.04486483035051464 0.9989930665413147 0
0 55 0 1
55
-0.07473009358642427 0.9972037971811801 0
0 56 0 1
56
-0.1045284632676533 0.9945218953682734 0
0 57 0 1
57
-0.1409012319375827 0.9900236577165575 0
0 58 0 1
58
-0.1770847403195833 0.9841956079692419 0
0 59 0 1
59
-0.2130303862749765 0.9770455744352636 0
0 60 0 1
60
-0.2486898871648546 0.9685831611286312 0
0 61 0 1
61
-0.2840153447039226 0.9588197348681931 0
0 62 0 1
62
-0.3125717679456443 0.949894146672846 0
0 63 0 1
63
-0.340848397122525 0.940118274569219 0
0 64 0 1
64
-0.3688199208218619 0.9295008692868207 0
0 65 0 1
65
-0.3964613007416775 0.9180514348413259 0
0 66 0 1
66
-0.4237477941033886 0.905780220027194 0
0 67 0 1
67
-0.4506549757999454 0.8926982092436114 0
0 68 0 1
68
-0.4771587602596085 0.8788171126619654 0
0 69 0 1
69
-0.5090414157503713 0.8607420270039436 0
0 70 0 1
70
-0.540240320477655 0.8415107819453062 0
0 71 0 1
71
-0.5707135676844316 0.8211492091337041 0
0 72 0 1
72
-0.6004202253258839 0.7996846584870906 0
0 73 0 1
73
-0.6293203910498373 0.777145961456971 0
0 74 0 1
74
-0.6522874112781208 0.7579717231454532 0
0 75 0 1
75
-0.6746705459320743 0.7381189974873407 0
0 76 0 1
76
-0.6964497590747667 0.7176055553608121 0
0 77 0 1
77
-0.7176055553608119 0.6964497590747668 0
0 78 0 1
78
-0.7381189974873406 0.6746705459320744 0
0 79 0 1
79
-0.7579717231454531 0.652287411278121 0
0 80 0 1
80
-0.7771459614569709 0.6293203910498374 0
0 81 0 1
81
-0.7996846584870906 0.600420225325884 0
0 82 0 1
82
-0.821149209133704 0.5707135676844317 0
0 83 0 1
83
-0.841510781945306 0.5402403204776551 0
0 84 0 1
84
-0.8607420270039435 0.5090414157503714 0
0 85 0 1
85
-0.8788171126619653 0.4771587602596086 0
0 86 0 1
86
-0.8926982092436113 0.4506549757999456 0
0 87 0 1
87
-0.905780220027194 0.4237477941033888 0
0 88 0 1
88
-0.9180514348413257 0.3964613007416778 0
0 89 0 1
89
-0.9295008692868207 0.3688199208218619 0
0 90 0 1
90
-0.940118274569219 0.340848397122525 0
0 91 0 1
91
-0.949894146672846 0.3125717679456443 0
0 92 0 1
92
-0.9588197348681931 0.2840153447039226 0
0 93 0 1
93
-0.9685831611286311 0.2486898871648548 0
0 94 0 1
94
-0.9770455744352636 0.2130303862749767 0
0 95 0 1
95
-0.9841956079692419 0.1770847403195834 0
0 96 0 1
96
-0.9900236577165575 0.1409012319375829 0
0 97 0 1
97
-0.9945218953682733 0.1045284632676537 0
0 98 0 1
98
-0.9972037971811801 0.07473009358642467 0
0 99 0 1
99
-0.9989930665413146 0.04486483035051505 0
0 100 0 1
100
-0.9998881018102734 0.01495940701526389 0
0 101 0 1
101
-0.9998881018102734 -0.01495940701526364 0
0 102 0 1
102
-0.9989930665413146 -0.04486483035051524 0
0 103 0 1
103
-0.9972037971811801 -0.07473009358642442 0
0 104 0 1
104
-0.9945218953682733 -0.1045284632676535 0
0 105 0 1
105
-0.9900236577165575 -0.1409012319375831 0
0 106 0 1
106
-0.984195607969242 -0.1770847403195832 0
0 107 0 1
107
-0.9770455744352636 -0.2130303862749764 0
0 108 0 1
108
-0.9685831611286313 -0.2486898871648542 0
0 109 0 1
109
-0.9588197348681932 -0.2840153447039224 0
0 110 0 1
110
-0.9498941466728461 -0.3125717679456441 0
0 111 0 1
111
-0.9401182745692191 -0.3408483971225247 0
0 112 0 1
112
-0.9295008692868209 -0.3688199208218617 0
0 113 0 1
113
-0.9180514348413258 -0.3964613007416776 0
0 114 0 1
114
-0.9057802200271942 -0.4237477941033886 0
0 115 0 1
115
-0.8926982092436114 -0.4506549757999453 0
0 116 0 1
116
-0.8788171126619654 -0.4771587602596084 0
0 117 0 1
117
-0.8607420270039434 -0.5090414157503717 0
0 118 0 1
118
-0.8415107819453062 -0.5402403204776549 0
0 119 0 1
119
-0.8211492091337041 -0.5707135676844315 0
0 120 0 1
120
-0.7996846584870909 -0.6004202253258835 0
0 121 0 1
121
-0.7771459614569711 -0.6293203910498373 0
0 122 0 1
122
-0.7579717231454532 -0.6522874112781208 0
0 123 0 1
123
-0.7381189974873408 -0.6746705459320742 0
0 124 0 1
124
-0.7176055553608121 -0.6964497590747666 0
0 125 0 1
125
-0.6964497590747668 -0.7176055553608118 0
0 126 0 1
126
-0.6746705459320744 -0.7381189974873406 0
0 127 0 1
127
-0.6522874112781211 -0.757971723145453 0
0 128 0 1
128
-0.6293203910498371 -0.7771459614569711 0
0 129 0 1
129
-0.6004202253258841 -0.7996846584870905 0
0 130 0 1
130
-0.5707135676844322 -0.8211492091337037 0
0 131 0 1
131
-0.5402403204776551 -0.841510781945306 0
0 132 0 1
132
-0.5090414157503719 -0.8607420270039433 0
0 133 0 1
133
-0.4771587602596087 -0.8788171126619653 0
0 134 0 1
134
-0.450654975799946 -0.8926982092436111 0
0 135 0 1
135
-0.4237477941033885 -0.9057802200271942 0
0 136 0 1
136
-0.3964613007416778 -0.9180514348413257 0
0 137 0 1
137
-0.368819920821862 -0.9295008692868207 0
0 138 0 1
138
-0.3408483971225255 -0.9401182745692188 0
0 139 0 1
139
-0.312571767945644 -0.9498941466728461 0
0 140 0 1
140
-0.2840153447039226 -0.9588197348681931 0
0 141 0 1
141
-0.2486898871648544 -0.9685831611286312 0
0 142 0 1
142
-0.2130303862749767 -0.9770455744352636 0
0 143 0 1
143
-0.1770847403195831 -0.984195607969242 0
0 144 0 1
144
-0.1409012319375829 -0.9900236577165575 0
0 145 0 1
145
-0.1045284632676542 -0.9945218953682733 0
0 146 0 1
146
-0.07473009358642473 -0.9972037971811801 0
0 147 0 1
147
-0.0448648303505151 -0.9989930665413146 0
0 148 0 1
148
-0.0149594070152635 -0.9998881018102734 0
0 149 0 1
149
0.01495940701526314 -0.9998881018102734 0
0 150 0 1
150
0.04486483035051474 -0.9989930665413147 0
0 151 0 1
151
0.07473009358642436 -0.9972037971811801 0
0 152 0 1
152
0.1045284632676539 -0.9945218953682733 0
0 153 0 1
153
0.1409012319375826 -0.9900236577165575 0
0 154 0 1
154
0.1770847403195827 -0.984195607969242 0
0 155 0 1
155
0.2130303862749764 -0.9770455744352636 0
0 156 0 1
156
0.2486898871648541 -0.9685831611286313 0
0 157 0 1
157
0.2840153447039223 -0.9588197348681932 0
0 158 0 1
158
0.3125717679456436 -0.9498941466728462 0
0 159 0 1
159
0.3408483971225251 -0.9401182745692189 0
0 160 0 1
160
0.3688199208218616 -0.9295008692868209 0
0 161 0 1
161
0.3964613007416775 -0.9180514348413258 0
0 162 0 1
162
0.4237477941033881 -0.9057802200271944 0
0 163 0 1
163
0.4506549757999457 -0.8926982092436113 0
0 164 0 1
164
0.4771587602596083 -0.8788171126619654 0
0 165 0 1
165
0.5090414157503715 -0.8607420270039434 0
0 166 0 1
166
0.5402403204776549 -0.8415107819453063 0
0 167 0 1
167
0.5707135676844318 -0.8211492091337039 0
0 168 0 1
168
0.6004202253258838 -0.7996846584870907 0
0 169 0 1
169
0.6293203910498368 -0.7771459614569713 0
0 170 0 1
170
0.6522874112781207 -0.7579717231454534 0
0 171 0 1
171
0.6746705459320742 -0.7381189974873408 0
0 172 0 1
172
0.6964497590747669 -0.7176055553608118 0
0 173 0 1
173
0.7176055553608115 -0.6964497590747672 0
0 174 0 1
174
0.7381189974873404 -0.6746705459320745 0
0 175 0 1
175
0.757971723145453 -0.6522874112781211 0
0 176 0 1
176
0.7771459614569711 -0.6293203910498372 0
0 177 0 1
177
0.7996846584870905 -0.6004202253258841 0
0 178 0 1
178
0.8211492091337037 -0.5707135676844323 0
0 179 0 1
179
0.841510781945306 -0.5402403204776552 0
0 180 0 1
180
0.8607420270039432 -0.509041415750372 0
0 181 0 1
181
0.8788171126619652 -0.4771587602596087 0
0 182 0 1
182
0.8926982092436111 -0.4506549757999461 0
0 183 0 1
183
0.9057802200271942 -0.4237477941033885 0
0 184 0 1
184
0.9180514348413257 -0.3964613007416779 0
0 185 0 1
185
0.9295008692868207 -0.368819920821862 0
0 186 0 1
186
0.9401182745692188 -0.3408483971225255 0
0 187 0 1
187
0.9498941466728461 -0.312571767945644 0
0 188 0 1
188
0.9588197348681931 -0.2840153447039227 0
0 189 0 1
189
0.9685831611286312 -0.2486898871648545 0
0 190 0 1
190
0.9770455744352636 -0.2130303862749768 0
0 191 0 1
191
0.984195607969242 -0.1770847403195831 0
0 192 0 1
192
0.9900236577165575 -0.140901231937583 0
1 1 0 0
1 2 0 0
1 3 0 0
1 4 0 0
1 5 0 0
1 6 0 0
1 7 0 0
1 8 0 0
1 9 0 0
1 10 0 0
1 11 0 0
1 12 0 0
1 13 0 0
1 14 0 0
1 15 0 0
1 16 0 0
1 17 0 0
1 18 0 0
1 19 0 0
1 20 0 0
1 21 0 0
1 22 0 0
1 23 0 0
1 24 0 0
1 25 0 0
1 26 0 0
1 27 0 0
1 28 0 0
1 29 0 0
1 30 0 0
1 31 0 0
1 32 0 0
1 33 0 0
1 34 0 0
1 35 0 0
1 36 0 0
1 37 0 0
1 38 0 0
1 39 0 0
1 40 0 0
1 41 0 0
1 42 0 0
1 43 0 0
1 44 0 0
1 45 0 0
1 46 0 0
1 47 0 0
1 48 0 0
1 49 0 0
1 50 0 0
1 51 0 0
1 52 0 0
1 53 0 0
1 54 0 0
1 55 0 0
1 56 0 0
1 57 0 0
1 58 0 0
1 59 0 0
1 60 0 0
1 61 0 0
1 62 0 0
1 63 0 0
1 64 0 0
1 65 0 0
1 66 0 0
1 67 0 0
1 68 0 0
1 69 0 0
1 70 0 0
1 71 0 0
1 72 0 0
1 73 0 0
1 74 0 0
1 75 0 0
1 76 0 0
1 77 0 0
1 78 0 0
1 79 0 0
1 80 0 0
1 81 0 0
1 82 0 0
1 83 0 0
1 84 0 0
1 85 0 0
1 86 0 0
1 87 0 0
1 88 0 0
1 89 0 0
1 90 0 0
1 91 0 0
1 92 0 0
1 93 0 0
1 94 0 0
1 95 0 0
1 96 0 0
1 97 0 0
1 98 0 0
1 99 0 0
1 100 0 0
1 101 0 0
1 102 0 0
1 103 0 0
1 104 0 0
1 105 0 0
1 106 0 0
1 107 0 0
1 108 0 0
1 109 0 0
1 110 0 0
1 111 0 0
1 112 0 0
1 113 0 0
1 114 0 0
1 115 0 0
1 116 0 0
1 117 0 0
1 118 0 0
1 119 0 0
1 120 0 0
1 121 0 0
1 122 0 0
1 123 0 0
1 124 0 0
1 125 0 0
1 126 0 0
1 127 0 0
1 128 0 0
1 129 0 0
1 130 0 0
1 131 0 0
1 132 0 0
1 133 0 0
1 134 0 0
1 135 0 0
1 136 0 0
1 137 0 0
1 138 0 0
1 139 0 0
1 140 0 0
1 141 0 0
1 142 0 0
1 143 0 0
1 144 0 0
1 145 0 0
1 146 0 0
1 147 0 0
1 148 0 0
1 149 0 0
1 150 0 0
1 151 0 0
1 152 0 0
1 153 0 0
1 154 0 0
1 155 0 0
1 156 0 0
1 157 0 0
1 158 0 0
1 159 0 0
1 160 0 0
1 161 0 0
1 162 0 0
1 163 0 0
1 164 0 0
1 165 0 0
1 166 0 0
1 167 0 0
1 168 0 0
1 169 0 0
1 170 0 0
1 171 0 0
1 172 0 0
1 173 0 0
1 174 0 0
1 175 0 0
1 176 0 0
1 177 0 0
1 178 0 0
1 179 0 0
1 180 0 0
1 181 0 0
1 182 0 0
1 183 0 0
1 184 0 0
1 185 0 0
1 186 0 0
1 187 0 0
1 188 0 0
1 189 0 0
1 190 0 0
1 191 0 0
1 192 0 0
2 1 0 146
193
194
195
196
197
198
199
200
201
202
203
204
205
206
207
208
209
210
211
212
213
214
215
216
217
218
219
220
221
222
223
224
225
226
227
228
229
230
231
232
233
234
235
236
237
238
239
240
241
242
243
244
245
246
247
248
249
250
251
252
253
254
255
256
257
258
259
260
261
262
263
264
265
266
267
268
269
270
271
272
273
274
275
276
277
278
279
280
281
282
283
284
285
286
287
288
289
290
291
292
293
294
295
296
297
298
299
300
301
302
303
304
305
306
307
308
309
310
311
312
313
314
315
316
317
318
319
320
321
322
323
324
325
326
327
328
329
330
331
332
333
334
335
336
337
338
-0.423956409123707 -0.8743702356090627 0
0.4210385962177146 0.8621213434175417 0
0.8743261128300031 -0.4239373546636687 0
-0.8703933694142473 0.4265171786675486 0
0.318111254371877 -0.9177883478862268 0
-0.9177883478862265 -0.318111254371877 0
-0.3184748758706668 0.9180157676411127 0
0.9170542431409997 0.3138678644842443 0
-0.7183848984343209 -0.6275396256190027 0
0.6451188721294547 -0.7261899630924389 0
-0.6455381983933246 0.7262571629049539 0
0.06096536952014791 0.9673596771305302 0
0.7262571629049536 0.6455381983933247 0
-0.970264093254254 0.05708079148734084 0
-0.05732591817811756 -0.9696617764864269 0
0.9673596771305302 -0.06096536952014796 0
0.9359180088718391 -0.258673690364248 0
-0.9575917758492265 -0.1167477026002333 0
0.469145646452827 -0.8347339787677902 0
-0.2585207552656285 -0.9292079541981929 0
-0.765685356814274 0.5971436441740665 0
-0.5971436441740664 -0.765685356814274 0
-0.8347339787677901 -0.469145646452827 0
0.5944043458658838 0.7595153120996979 0
-0.9359180088718387 0.258673690364248 0
-0.4742336456400812 0.8398161935077844 0
0.8447038912789975 0.4788840501367794 0
0.9636656281965434 0.119176987920685 0
0.7528729246311691 -0.5916593718115652 0
0.2586736903642481 0.9359180088718386 0
0.1139951964179173 -0.9507279043389788 0
-0.1191769879206849 0.9636656281965437 0
0.8241073604105469 -0.50798612134683 0
0.6716149074501295 -0.4717825869455143 0
0.2235314718190482 -0.9419323341250395 0
0.1413027889290566 -0.8085041218788672 0
-0.5079861213468297 -0.824107360410547 0
-0.4717825869455143 -0.6716149074501295 0
-0.5669780503643727 0.7846902136313727 0
-0.4399478870202454 0.692886173884765 0
-0.784417416831317 -0.5635747552745021 0
0.5090450827830379 0.8213822745400188 0
0.4795942938433975 0.7023641352334203 0
-0.9419323341250395 -0.2235314718190482 0
-0.8085041218788673 -0.1413027889290564 0
0.9546016469519141 -0.1517951340499081 0
0.8631700212346232 -0.08694078715074102 0
-0.8241073604105468 0.5079861213468293 0
-0.7474884134435428 0.3711079239632251 0
-0.2235314718190484 0.9419323341250392 0
0.9419323341250391 0.2235314718190484 0
0.7883140488476916 0.2622223817283498 0
0.151795134049908 0.9546016469519136 0
0.08301474165158063 0.8378568619854483 0
0.7846902136313724 0.5669780503643729 0
-0.95577379538604 0.1539457469928885 0
0.5669780503643732 -0.7846902136313726 0
-0.1539457469928884 -0.9557737953860405 0
-0.1788543778636102 -0.8010346464250276 0
-0.708519378425709 -0.4632251947643235 0
0.4203506973379116 -0.6893698218685286 0
0.9056228688922145 -0.3463147404976786 0
-0.7090009245680686 0.6677949905027851 0
0.3386295462640928 0.9017925211317909 0
0.7042654254574718 -0.6665011619753691 0
-0.3459979473467676 -0.9078497935682532 0
0.02670336679471029 -0.9692783493977042 0
-0.3972723539828384 0.8865616575692512 0
0.3955974596954568 -0.8852774922541592 0
-0.6549446630387178 -0.7003761205616679 0
0.6670426030716001 0.7063003546136977 0
-0.9735417278565385 -0.02913699540268799 0
-0.885277492254159 -0.3955974596954568 0
0.9735417278565385 0.0291369954026879 0
-0.9018261827616215 0.3405709230577708 0
-0.02932823433084138 0.9598316215862657 0
0.8783865635524228 0.3966888826801971 0
0.7131464089551685 0.4269009182338662 0
0.5950469314099807 0.2786143313132464 0
-0.8108270427139042 0.1960143064918812 0
-0.6189477279441236 0.2146226684109436 0
-0.5428122671279618 0.413015360381546 0
-0.4254997789375542 0.2468822720046543 0
-0.5054134431602284 0.04105947303737773 0
-0.3032470823612148 0.07125555651902421 0
-0.2168479352746918 0.2745709381235501 0
-0.08493741708385259 0.09889659922329187 0
-0.1776986545913627 -0.1061684363539502 0
0.04445579329313289 -0.07932008738893043 0
-0.0002384562706368044 0.3013850338518657 0
-0.04983465663166765 -0.2823938642579323 0
0.1721991100231819 -0.2603561098046941 0
0.2676388309976107 -0.06124240575660157 0
-0.2680721495874008 -0.3052537309545348 0
-0.1267083003540349 0.4673171530016509 0
0.3842165646063593 -0.2384690019050257 0
0.07935913513472927 0.4911109901755716 0
0.2088244307512095 0.3307257193687461 0
0.07720719187844956 -0.4574135115054638 0
0.4937707830648193 -0.02964378798229454 0
-0.1253517741430356 0.8219466570899678 0
0.5643324685110921 -0.2134687283740007 0
0.5408017060350803 0.4266922055475247 0
0.2608439311207034 0.4958858442479755 0
0.3363759209743784 0.1351986963890202 0
-0.1436059131026917 -0.4702496735022568 0
-0.02218100344880999 -0.6553039420466518 0
0.6591572329676669 0.1007271579694791 0
0.2921136204276251 -0.4272706442874885 0
0.2625131596231788 0.8064011121362928 0
-0.3559036009813265 -0.4860205182113516 0
-0.4622129588898593 -0.3200778436993016 0
-0.3893374827876563 -0.1333145819868261 0
-0.6047443626851811 -0.165732005793323 0
0.128686517110307 0.1209405926145653 0
0.2322483981051179 -0.6206264441397711 0
-0.3349774412094474 0.4284224562693743 0
-0.03611038979948776 0.6480056053872372 0
0.492800905779708 -0.4083668934363305 0
-0.2578550920603884 0.6248918120654755 0
-0.6968620154065543 0.02618671250179384 0
-0.5734319406134331 0.619902565051496 0
0.7776464552247841 -0.3459732214088484 0
-0.2429337162620574 -0.6331068252668144 0
-0.5702442251746301 -0.5121971599288089 0
0.5845089770952936 -0.6104262159337573 0
-0.01861509919167741 -0.8728977908513851 0
-0.7901826881912419 -0.3116464663777247 0
0.3143268166730421 -0.8140332201314832 0
0.6158023232592349 0.5973100513445172 0
-0.3195238715051862 0.8180072279833421 0
-0.3471474163077307 -0.8058988175611468 0
0.4031605126683246 0.3282808783394375 0
0.8354986138412859 0.08333596549406819 0
0.6708817486571771 -0.06149622519214788 0
-0.8819092246207691 0.02086286722027523 0
0.1649264853241038 0.6551749498912406 0
0.4044045197491312 -0.5512120039331753 0
-0.437236175448757 0.5478756960302791 0
0.5031033549454886 0.1566970006486071 0
-0.6236447717346987 -0.3359390851738502 0
0.7367338367646391 -0.191530042766517 0
-0.6937543771629711 0.5294917675699913 0
0.4304520890574197 0.5388489728779198 0
0.625867436156104 -0.3461966158457675 0
0.3365614258644196 0.6767993929673983 0
$EndNodes
$Elements
193 674 1 674
1 1 1 1
1 1 2 
1 2 1 1
2 2 3 
1 3 1 1
3 3 4 
1 4 1 1
4 4 5 
1 5 1 1
5 5 6 
1 6 1 1
6 6 7 
1 7 1 1
7 7 8 
1 8 1 1
8 8 9 
1 9 1 1
9 9 10 
1 10 1 1
10 10 11 
1 11 1 1
11 11 12 
1 12 1 1
12 12 13 
1 13 1 1
13 13 14 
1 14 1 1
14 14 15 
1 15 1 1
15 15 16 
1 16 1 1
16 16 17 
1 17 1 1
17 17 18 
1 18 1 1
18 18 19 
1 19 1 1
19 19 20 
1 20 1 1
20 20 21 
1 21 1 1
21 21 22 
1 22 1 1
22 22 23 
1 23 1 1
23 23 24 
1 24 1 1
24 24 25 
1 25 1 1
25 25 26 
1 26 1 1
26 26 27 
1 27 1 1
27 27 28 
1 28 1 1
28 28 29 
1 29 1 1
29 29 30 
1 30 1 1
30 30 31 
1 31 1 1
31 31 32 
1 32 1 1
32 32 33 
1 33 1 1
33 33 34 
1 34 1 1
34 34 35 
1 35 1 1
35 35 36 
1 36 1 1
36 36 37 
1 37 1 1
37 37 38 
1 38 1 1
38 38 39 
1 39 1 1
39 39 40 
1 40 1 1
40 40 41 
1 41 1 1
41 41 42 
1 42 1 1
42 42 43 
1 43 1 1
43 43 44 
1 44 1 1
44 44 45 
1 45 1 1
45 45 46 
1 46 1 1
46 46 47 
1 47 1 1
47 47 48 
1 48 1 1
48 48 49 
1 49 1 1
49 49 50 
1 50 1 1
50 50 51 
1 51 1 1
51 51 52 
1 52 1 1
52 52 53 
1 53 1 1
53 53 54 
1 54 1 1
54 54 55 
1 55 1 1
55 55 56 
1 56 1 1
56 56 57 
1 57 1 1
57 57 58 
1 58 1 1
58 58 59 
1 59 1 1
59 59 60 
1 60 1 1
60 60 61 
1 61 1 1
61 61 62 
1 62 1 1
62 62 63 
1 63 1 1
63 63 64 
1 64 1 1
64 64 65 
1 65 1 1
65 65 66 
1 66 1 1
66 66 67 
1 67 1 1
67 67 68 
1 68 1 1
68 68 69 
1 69 1 1
69 69 70 
1 70 1 1
70 70 71 
1 71 1 1
71 71 72 
1 72 1 1
72 72 73 
1 73 1 1
73 73 74 
1 74 1 1
74 74 75 
1 75 1 1
75 75 76 
1 76 1 1
76 76 77 
1 77 1 1
77 77 78 
1 78 1 1
78 78 79 
1 79 1 1
79 79 80 
1 80 1 1
80 80 81 
1 81 1 1
81 81 82 
1 82 1 1
82 82 83 
1 83 1 1
83 83 84 
1 84 1 1
84 84 85 
1 85 1 1
85 85 86 
1 86 1 1
86 86 87 
1 87 1 1
87 87 88 
1 88 1 1
88 88 89 
1 89 1 1
89 89 90 
1 90 1 1
90 90 91 
1 91 1 1
91 91 92 
1 92 1 1
92 92 93 
1 93 1 1
93 93 94 
1 94 1 1
94 94 95 
1 95 1 1
95 95 96 
1 96 1 1
96 96 97 
1 97 1 1
97 97 98 
1 98 1 1
98 98 99 
1 99 1 1
99 99 100 
1 100 1 1
100 100 101 
1 101 1 1
101 101 102 
1 102 1 1
102 102 103 
1 103 1 1
103 103 104 
1 104 1 1
104 104 105 
1 105 1 1
105 105 106 
1 106 1 1
106 106 107 
1 107 1 1
107 107 108 
1 108 1 1
108 108 109 
1 109 1 1
109 109 110 
1 110 1 1
110 110 111 
1 111 1 1
111 111 112 
1 112 1 1
112 112 113 
1 113 1 1
113 113 114 
1 114 1 1
114 114 115 
1 115 1 1
115 115 116 
1 116 1 1
116 116 117 
1 117 1 1
117 117 118 
1 118 1 1
118 118 119 
1 119 1 1
119 119 120 
1 120 1 1
120 120 121 
1 121 1 1
121 121 122 
1 122 1 1
122 122 123 
1 123 1 1
123 123 124 
1 124 1 1
124 124 125 
1 125 1 1
125 125 126 
1 126 1 1
126 126 127 
1 127 1 1
127 127 128 
1 128 1 1
128 128 129 
1 129 1 1
129 129 130 
1 130 1 1
130 130 131 
1 131 1 1
131 131 132 
1 132 1 1
132 132 133 
1 133 1 1
133 133 134 
1 134 1 1
134 134 135 
1 135 1 1
135 135 136 
1 136 1 1
136 136 137 
1 137 1 1
137 137 138 
1 138 1 1
138 138 139 
1 139 1 1
139 139 140 
1 140 1 1
140 140 141 
1 141 1 1
141 141 142 
1 142 1 1
142 142 143 
1 143 1 1
143 143 144 
1 144 1 1
144 144 145 
1 145 1 1
145 145 146 
1 146 1 1
146 146 147 
1 147 1 1
147 147 148 
1 148 1 1
148 148 149 
1 149 1 1
149 149 150 
1 150 1 1
150 150 151 
1 151 1 1
151 151 152 
1 152 1 1
152 152 153 
1 153 1 1
153 153 154 
1 154 1 1
154 154 155 
1 155 1 1
155 155 156 
1 156 1 1
156 156 157 
1 157 1 1
157 157 158 
1 158 1 1
158 158 159 
1 159 1 1
159 159 160 
1 160 1 1
160 160 161 
1 161 1 1
161 161 162 
1 162 1 1
162 162 163 
1 163 1 1
163 163 164 
1 164 1 1
164 164 165 
1 165 1 1
165 165 166 
1 166 1 1
166 166 167 
1 167 1 1
167 167 168 
1 168 1 1
168 168 169 
1 169 1 1
169 169 170 
1 170 1 1
170 170 171 
1 171 1 1
171 171 172 
1 172 1 1
172 172 173 
1 173 1 1
173 173 174 
1 174 1 1
174 174 175 
1 175 1 1
175 175 176 
1 176 1 1
176 176 177 
1 177 1 1
177 177 178 
1 178 1 1
178 178 179 
1 179 1 1
179 179 180 
1 180 1 1
180 180 181 
1 181 1 1
181 181 182 
1 182 1 1
182 182 183 
1 183 1 1
183 183 184 
1 184 1 1
184 184 185 
1 185 1 1
185 185 186 
1 186 1 1
186 186 187 
1 187 1 1
187 187 188 
1 188 1 1
188 188 189 
1 189 1 1
189 189 190 
1 190 1 1
190 190 191 
1 191 1 1
191 191 192 
1 192 1 1
192 192 1 
2 1 2 482
193 262 317 201 
194 201 317 252 
195 230 317 262 
196 293 312 310 
197 194 338 235 
198 302 338 194 
199 267 272 241 
200 269 270 244 
201 268 293 246 
202 308 321 253 
203 228 308 299 
204 253 330 308 
205 276 306 305 
206 272 313 273 
207 310 312 287 
208 276 313 306 
209 299 316 251 
210 230 316 303 
211 245 246 222 
212 238 239 209 
213 272 273 241 
214 270 271 244 
215 325 336 296 
216 194 235 234 
217 201 252 233 
218 246 302 222 
219 293 310 246 
220 230 324 316 
221 298 299 291 
222 276 305 277 
223 239 334 209 
224 273 313 276 
225 299 308 291 
226 290 307 297 
227 256 302 194 
228 295 336 325 
229 288 311 294 
230 299 319 228 
231 283 298 291 
232 297 325 290 
233 298 316 299 
234 290 325 296 
235 284 301 288 
236 237 320 306 
237 277 305 280 
238 311 337 294 
239 306 313 237 
240 293 323 312 
241 308 330 301 
242 288 294 292 
243 286 303 298 
244 209 334 315 
245 283 291 284 
246 286 298 283 
247 326 327 239 
248 291 301 284 
249 251 319 299 
250 284 288 285 
251 289 310 287 
252 279 307 282 
253 280 286 283 
254 275 309 274 
255 288 292 285 
256 301 311 288 
257 282 287 278 
258 224 293 268 
259 230 262 214 
260 219 270 269 
261 217 272 267 
262 282 289 287 
263 290 296 289 
264 282 307 290 
265 221 318 257 
266 215 320 265 
267 223 319 259 
268 211 321 261 
269 286 304 303 
270 291 308 301 
271 283 284 281 
272 278 309 275 
273 305 306 304 
274 287 309 278 
275 292 327 300 
276 284 285 281 
277 300 327 326 
278 280 283 281 
279 303 317 230 
280 292 297 285 
281 280 305 286 
282 273 274 241 
283 271 300 244 
284 325 332 271 
285 270 295 271 
286 295 325 271 
287 226 318 221 
288 252 320 215 
289 228 319 223 
290 253 321 211 
291 282 290 289 
292 281 307 279 
293 266 326 239 
294 311 318 226 
295 300 332 292 
296 287 312 309 
297 286 305 304 
298 272 328 313 
299 317 333 252 
300 279 282 278 
301 247 322 270 
302 231 314 232 
303 225 315 226 
304 242 323 293 
305 229 324 230 
306 304 317 303 
307 285 307 281 
308 297 307 285 
309 250 319 251 
310 249 318 253 
311 236 320 237 
312 227 321 228 
313 280 281 279 
314 277 280 279 
315 248 328 272 
316 273 276 275 
317 277 278 275 
318 304 333 317 
319 303 316 298 
320 207 319 250 
321 202 318 249 
322 198 320 236 
323 197 321 227 
324 273 275 274 
325 228 321 308 
326 195 315 225 
327 203 314 231 
328 205 322 247 
329 199 323 242 
330 209 315 254 
331 216 322 263 
332 218 323 260 
333 193 324 229 
334 277 279 278 
335 235 322 216 
336 232 323 218 
337 276 277 275 
338 208 266 239 
339 200 269 244 
340 204 268 246 
341 196 267 241 
342 212 324 258 
343 251 324 212 
344 232 331 312 
345 296 329 289 
346 296 338 329 
347 329 338 302 
348 320 333 306 
349 237 328 210 
350 270 322 295 
351 206 328 248 
352 294 327 292 
353 210 328 264 
354 222 302 256 
355 274 331 314 
356 246 329 302 
357 309 331 274 
358 244 326 243 
359 310 329 246 
360 314 335 274 
361 312 323 232 
362 312 331 309 
363 292 332 297 
364 243 326 220 
365 313 328 237 
366 297 332 325 
367 274 335 241 
368 306 333 304 
369 311 330 318 
370 300 326 244 
371 226 337 311 
372 334 337 315 
373 316 324 251 
374 301 330 311 
375 294 337 334 
376 289 329 310 
377 271 332 300 
378 235 336 322 
379 322 336 295 
380 255 335 314 
381 220 326 266 
382 257 318 202 
383 259 319 207 
384 261 321 197 
385 265 320 198 
386 314 331 232 
387 166 249 211 
388 58 242 224 
389 142 250 212 
390 154 227 223 
391 190 238 209 
392 22 247 219 
393 10 243 220 
394 34 234 216 
395 118 233 215 
396 106 236 210 
397 46 245 222 
398 82 240 213 
399 70 231 218 
400 130 229 214 
401 94 248 217 
402 178 225 221 
403 318 330 253 
404 242 293 224 
405 249 253 211 
406 234 235 216 
407 250 251 212 
408 233 252 215 
409 247 270 219 
410 227 228 223 
411 236 237 210 
412 248 272 217 
413 225 226 221 
414 231 232 218 
415 229 230 214 
416 213 335 255 
417 241 335 240 
418 208 239 238 
419 196 241 240 
420 200 244 243 
421 204 246 245 
422 252 333 320 
423 315 337 226 
424 327 334 239 
425 254 315 195 
426 255 314 203 
427 263 322 205 
428 260 323 199 
429 258 324 193 
430 294 334 327 
431 37 234 36 
432 49 245 48 
433 73 231 72 
434 133 229 132 
435 181 225 180 
436 121 233 120 
437 157 227 156 
438 1 238 192 
439 13 243 12 
440 97 248 96 
441 109 236 108 
442 61 242 60 
443 85 240 84 
444 25 247 24 
445 145 250 144 
446 169 249 168 
447 240 335 213 
448 264 328 206 
449 166 211 165 
450 142 212 141 
451 190 209 189 
452 58 224 57 
453 106 210 105 
454 46 222 45 
455 70 218 69 
456 118 215 117 
457 10 220 9 
458 34 216 33 
459 94 217 93 
460 22 219 21 
461 82 213 81 
462 130 214 129 
463 154 223 153 
464 178 221 177 
465 195 225 181 
466 193 229 133 
467 197 227 157 
468 208 238 1 
469 201 233 121 
470 203 231 73 
471 194 234 37 
472 198 236 109 
473 204 245 49 
474 199 242 61 
475 196 240 85 
476 200 243 13 
477 206 248 97 
478 205 247 25 
479 207 250 145 
480 202 249 169 
481 167 249 166 
482 23 247 22 
483 131 229 130 
484 155 227 154 
485 83 240 82 
486 179 225 178 
487 143 250 142 
488 59 242 58 
489 107 236 106 
490 191 238 190 
491 47 245 46 
492 11 243 10 
493 35 234 34 
494 95 248 94 
495 71 231 70 
496 119 233 118 
497 104 210 103 
498 116 215 115 
499 20 219 19 
500 140 212 139 
501 188 209 187 
502 32 216 31 
503 164 211 163 
504 80 213 79 
505 92 217 91 
506 8 220 7 
507 68 218 67 
508 44 222 43 
509 56 224 55 
510 128 214 127 
511 176 221 175 
512 152 223 151 
513 235 338 336 
514 336 338 296 
515 209 254 187 
516 212 258 139 
517 221 257 175 
518 213 255 79 
519 211 261 163 
520 215 265 115 
521 223 259 151 
522 210 264 103 
523 224 268 55 
524 216 263 31 
525 214 262 127 
526 217 267 91 
527 220 266 7 
528 218 260 67 
529 222 256 43 
530 219 269 19 
531 160 261 197 
532 184 254 195 
533 136 258 193 
534 112 265 198 
535 124 262 201 
536 100 264 206 
537 88 267 196 
538 64 260 199 
539 16 269 200 
540 76 255 203 
541 172 257 202 
542 148 259 207 
543 52 268 204 
544 4 266 208 
545 40 256 194 
546 28 263 205 
547 187 254 186 
548 139 258 138 
549 134 193 133 
550 148 207 147 
551 184 195 183 
552 160 197 159 
553 31 263 30 
554 136 193 135 
555 172 202 171 
556 79 255 78 
557 125 262 124 
558 100 206 99 
559 161 261 160 
560 182 195 181 
561 158 197 157 
562 170 202 169 
563 103 264 102 
564 173 257 172 
565 122 201 121 
566 86 196 85 
567 151 259 150 
568 76 203 75 
569 74 203 73 
570 101 264 100 
571 146 207 145 
572 113 265 112 
573 65 260 64 
574 62 199 61 
575 17 269 16 
576 52 204 51 
577 16 200 15 
578 163 261 162 
579 55 268 54 
580 64 199 63 
581 110 198 109 
582 43 256 42 
583 98 206 97 
584 88 196 87 
585 89 267 88 
586 175 257 174 
587 26 205 25 
588 115 265 114 
589 67 260 66 
590 91 267 90 
591 112 198 111 
592 50 204 49 
593 14 200 13 
594 7 266 6 
595 137 258 136 
596 185 254 184 
597 2 208 1 
598 28 205 27 
599 40 194 39 
600 124 201 123 
601 4 208 3 
602 38 194 37 
603 41 256 40 
604 77 255 76 
605 149 259 148 
606 5 266 4 
607 127 262 126 
608 19 269 18 
609 53 268 52 
610 29 263 28 
611 48 245 47 
612 72 231 71 
613 24 247 23 
614 12 243 11 
615 96 248 95 
616 36 234 35 
617 60 242 59 
618 84 240 83 
619 108 236 107 
620 168 249 167 
621 156 227 155 
622 120 233 119 
623 144 250 143 
624 192 238 191 
625 132 229 131 
626 180 225 179 
627 117 215 116 
628 105 210 104 
629 165 211 164 
630 141 212 140 
631 189 209 188 
632 33 216 32 
633 45 222 44 
634 57 224 56 
635 9 220 8 
636 69 218 68 
637 21 219 20 
638 93 217 92 
639 81 213 80 
640 153 223 152 
641 177 221 176 
642 129 214 128 
643 159 197 158 
644 171 202 170 
645 135 193 134 
646 183 195 182 
647 147 207 146 
648 30 263 29 
649 75 203 74 
650 87 196 86 
651 111 198 110 
652 150 259 149 
653 102 264 101 
654 63 199 62 
655 99 206 98 
656 42 256 41 
657 15 200 14 
658 174 257 173 
659 123 201 122 
660 6 266 5 
661 18 269 17 
662 66 260 65 
663 3 208 2 
664 27 205 26 
665 126 262 125 
666 39 194 38 
667 54 268 53 
668 114 265 113 
669 51 204 50 
670 90 267 89 
671 78 255 77 
672 186 254 185 
673 162 261 161 
674 138 258 137 
$EndElements
