$MeshFormat
4.1 0 8
$EndMeshFormat
$PhysicalNames
18
1 1 "Electrode1"
1 2 "Electrode2"
1 3 "Electrode3"
1 4 "Electrode4"
1 5 "Electrode5"
1 6 "Electrode6"
1 7 "Electrode7"
1 8 "Electrode8"
1 9 "Electrode9"
1 10 "Electrode10"
1 11 "Electrode11"
1 12 "Electrode12"
1 13 "Electrode13"
1 14 "Electrode14"
1 15 "Electrode15"
1 16 "Electrode16"
1 17 "No-Electrode"
2 1 "domain"
$EndPhysicalNames
$Entities
240 240 1 0
1 0.9945218953682733 -0.1045284632676535 0 0 
2 0.9966848880445061 -0.08135867466785827 0 0 
3 0.9983081582712682 -0.05814482891047582 0 0 
4 0.9993908270190958 -0.03489949670250096 0 0 
5 0.9999323080037622 -0.01163526580139701 0 0 
6 0.9999323080037622 0.01163526580139701 0 0 
7 0.9993908270190958 0.03489949670250098 0 0 
8 0.9983081582712682 0.05814482891047584 0 0 
9 0.9966848880445061 0.08135867466785829 0 0 
10 0.9945218953682733 0.1045284632676535 0 0 
11 0.9908658973868822 0.134850930273723 0 0 
12 0.9862856015372314 0.1650476058606777 0 0 
13 0.9807852804032304 0.1950903220161282 0 0 
14 0.9743700647852352 0.224951054343865 0 0 
15 0.9670459389139431 0.2546019482055276 0 0 
16 0.9588197348681931 0.2840153447039226 0 0 
17 0.9519513853021931 0.306249179625408 0 0 
18 0.9445675372676048 0.328317175213561 0 0 
19 0.9366721892483976 0.3502073812594675 0 0 
20 0.9282696167148067 0.3719079438303866 0 0 
21 0.9193643698080891 0.3934071116888651 0 0 
22 0.9099612708765432 0.4146932426562391 0 0 
23 0.9000654118641211 0.4357548099170794 0 0 
24 0.8896821515530517 0.4565804082611655 0 0 
25 0.8788171126619654 0.4771587602596084 0 0 
26 0.8638355052043958 0.5037739770455262 0 0 
27 0.848048096156426 0.5299192642332049 0 0 
28 0.8314696123025452 0.5555702330196022 0 0 
29 0.8141155183563192 0.5807029557109398 0 0 
30 0.7960020025346221 0.6052939880428944 0 0 
31 0.7771459614569708 0.6293203910498375 0 0 
32 0.762291913608418 0.6472333724764324 0 0 
33 0.747025071240996 0.6647958656139378 0 0 
34 0.7313537016191705 0.6819983600624985 0 0 
35 0.7152862910660515 0.6988315403679 0 0 
36 0.6988315403679 0.7152862910660515 0 0 
37 0.6819983600624985 0.7313537016191705 0 0 
38 0.6647958656139379 0.7470250712409959 0 0 
39 0.6472333724764324 0.7622919136084179 0 0 
40 0.6293203910498375 0.7771459614569708 0 0 
41 0.6052939880428944 0.7960020025346221 0 0 
42 0.5807029557109399 0.8141155183563191 0 0 
43 0.5555702330196023 0.8314696123025452 0 0 
44 0.5299192642332049 0.848048096156426 0 0 
45 0.5037739770455263 0.8638355052043957 0 0 
46 0.4771587602596084 0.8788171126619654 0 0 
47 0.4565804082611656 0.8896821515530517 0 0 
48 0.4357548099170794 0.9000654118641211 0 0 
49 0.4146932426562391 0.9099612708765432 0 0 
50 0.3934071116888652 0.919364369808089 0 0 
51 0.3719079438303866 0.9282696167148067 0 0 
52 0.3502073812594674 0.9366721892483976 0 0 
53 0.3283171752135611 0.9445675372676047 0 0 
54 0.3062491796254081 0.9519513853021931 0 0 
55 0.2840153447039228 0.9588197348681931 0 0 
56 0.2546019482055276 0.9670459389139431 0 0 
57 0.2249510543438651 0.9743700647852352 0 0 
58 0.1950903220161283 0.9807852804032304 0 0 
59 0.1650476058606776 0.9862856015372314 0 0 
60 0.1348509302737231 0.9908658973868822 0 0 
61 0.1045284632676535 0.9945218953682733 0 0 
62 0.0813586746678583 0.9966848880445061 0 0 
63 0.0581448289104759 0.9983081582712682 0 0 
64 0.03489949670250108 0.9993908270190958 0 0 
65 0.01163526580139717 0.9999323080037622 0 0 
66 -0.01163526580139682 0.9999323080037622 0 0 
67 -0.03489949670250073 0.9993908270190958 0 0 
68 -0.05814482891047577 0.9983081582712682 0 0 
69 -0.08135867466785818 0.9966848880445061 0 0 
70 -0.1045284632676533 0.9945218953682734 0 0 
71 -0.1348509302737227 0.9908658973868824 0 0 
72 -0.1650476058606777 0.9862856015372314 0 0 
73 -0.1950903220161282 0.9807852804032304 0 0 
74 -0.2249510543438648 0.9743700647852352 0 0 
75 -0.2546019482055277 0.9670459389139431 0 0 
76 -0.2840153447039226 0.9588197348681931 0 0 
77 -0.306249179625408 0.9519513853021931 0 0 
78 -0.328317175213561 0.9445675372676048 0 0 
79 -0.3502073812594675 0.9366721892483976 0 0 
80 -0.3719079438303867 0.9282696167148066 0 0 
81 -0.3934071116888649 0.9193643698080892 0 0 
82 -0.4146932426562388 0.9099612708765433 0 0 
83 -0.4357548099170791 0.9000654118641213 0 0 
84 -0.4565804082611655 0.8896821515530519 0 0 
85 -0.4771587602596085 0.8788171126619654 0 0 
86 -0.5037739770455263 0.8638355052043958 0 0 
87 -0.5299192642332048 0.8480480961564261 0 0 
88 -0.555570233019602 0.8314696123025453 0 0 
89 -0.5807029557109398 0.8141155183563192 0 0 
90 -0.6052939880428942 0.7960020025346222 0 0 
91 -0.6293203910498373 0.777145961456971 0 0 
92 -0.6472333724764323 0.762291913608418 0 0 
93 -0.6647958656139379 0.7470250712409959 0 0 
94 -0.6819983600624984 0.7313537016191706 0 0 
95 -0.6988315403679001 0.7152862910660515 0 0 
96 -0.7152862910660513 0.6988315403679002 0 0 
97 -0.7313537016191705 0.6819983600624986 0 0 
98 -0.7470250712409957 0.6647958656139381 0 0 
99 -0.7622919136084179 0.6472333724764325 0 0 
100 -0.7771459614569709 0.6293203910498374 0 0 
101 -0.7960020025346219 0.6052939880428945 0 0 
102 -0.8141155183563191 0.5807029557109399 0 0 
103 -0.8314696123025453 0.5555702330196022 0 0 
104 -0.848048096156426 0.529919264233205 0 0 
105 -0.8638355052043957 0.5037739770455264 0 0 
106 -0.8788171126619653 0.4771587602596086 0 0 
107 -0.8896821515530517 0.4565804082611656 0 0 
108 -0.9000654118641211 0.4357548099170793 0 0 
109 -0.9099612708765431 0.4146932426562392 0 0 
110 -0.9193643698080891 0.3934071116888651 0 0 
111 -0.9282696167148066 0.3719079438303868 0 0 
112 -0.9366721892483976 0.3502073812594675 0 0 
113 -0.9445675372676047 0.3283171752135614 0 0 
114 -0.9519513853021931 0.3062491796254082 0 0 
115 -0.9588197348681931 0.2840153447039226 0 0 
116 -0.9670459389139431 0.2546019482055277 0 0 
117 -0.9743700647852351 0.2249510543438652 0 0 
118 -0.9807852804032304 0.1950903220161286 0 0 
119 -0.9862856015372314 0.1650476058606777 0 0 
120 -0.9908658973868822 0.1348509302737232 0 0 
121 -0.9945218953682733 0.1045284632676537 0 0 
122 -0.9966848880445061 0.08135867466785837 0 0 
123 -0.9983081582712682 0.05814482891047573 0 0 
124 -0.9993908270190958 0.03489949670250114 0 0 
125 -0.9999323080037622 0.011635265801397 0 0 
126 -0.9999323080037622 -0.0116352658013972 0 0 
127 -0.9993908270190958 -0.0348994967025009 0 0 
128 -0.9983081582712682 -0.05814482891047593 0 0 
129 -0.9966848880445061 -0.08135867466785901 0 0 
130 -0.9945218953682733 -0.1045284632676535 0 0 
131 -0.9908658973868822 -0.1348509302737229 0 0 
132 -0.9862856015372314 -0.1650476058606774 0 0 
133 -0.9807852804032304 -0.1950903220161284 0 0 
134 -0.9743700647852352 -0.224951054343865 0 0 
135 -0.9670459389139432 -0.2546019482055275 0 0 
136 -0.9588197348681932 -0.2840153447039224 0 0 
137 -0.9519513853021931 -0.3062491796254079 0 0 
138 -0.9445675372676049 -0.3283171752135607 0 0 
139 -0.9366721892483977 -0.3502073812594673 0 0 
140 -0.9282696167148068 -0.3719079438303862 0 0 
141 -0.919364369808089 -0.3934071116888653 0 0 
142 -0.9099612708765432 -0.414693242656239 0 0 
143 -0.9000654118641211 -0.4357548099170794 0 0 
144 -0.8896821515530519 -0.4565804082611654 0 0 
145 -0.8788171126619654 -0.4771587602596084 0 0 
146 -0.8638355052043958 -0.5037739770455262 0 0 
147 -0.8480480961564261 -0.5299192642332048 0 0 
148 -0.8314696123025455 -0.555570233019602 0 0 
149 -0.8141155183563192 -0.5807029557109398 0 0 
150 -0.7960020025346222 -0.6052939880428942 0 0 
151 -0.7771459614569711 -0.6293203910498373 0 0 
152 -0.7622919136084181 -0.6472333724764323 0 0 
153 -0.7470250712409962 -0.6647958656139376 0 0 
154 -0.7313537016191706 -0.6819983600624984 0 0 
155 -0.7152862910660518 -0.6988315403678996 0 0 
156 -0.6988315403678999 -0.7152862910660516 0 0 
157 -0.6819983600624986 -0.7313537016191703 0 0 
158 -0.6647958656139378 -0.747025071240996 0 0 
159 -0.6472333724764325 -0.7622919136084179 0 0 
160 -0.6293203910498371 -0.7771459614569711 0 0 
161 -0.6052939880428941 -0.7960020025346223 0 0 
162 -0.5807029557109396 -0.8141155183563193 0 0 
163 -0.5555702330196022 -0.8314696123025452 0 0 
164 -0.529919264233205 -0.848048096156426 0 0 
165 -0.5037739770455264 -0.8638355052043956 0 0 
166 -0.4771587602596087 -0.8788171126619653 0 0 
167 -0.4565804082611653 -0.8896821515530519 0 0 
168 -0.4357548099170801 -0.9000654118641208 0 0 
169 -0.4146932426562392 -0.9099612708765431 0 0 
170 -0.3934071116888656 -0.9193643698080889 0 0 
171 -0.3719079438303865 -0.9282696167148067 0 0 
172 -0.3502073812594676 -0.9366721892483976 0 0 
173 -0.3283171752135606 -0.9445675372676049 0 0 
174 -0.3062491796254087 -0.9519513853021929 0 0 
175 -0.2840153447039226 -0.9588197348681931 0 0 
176 -0.2546019482055277 -0.9670459389139431 0 0 
177 -0.2249510543438653 -0.9743700647852351 0 0 
178 -0.1950903220161287 -0.9807852804032303 0 0 
179 -0.1650476058606782 -0.9862856015372313 0 0 
180 -0.1348509302737237 -0.9908658973868821 0 0 
181 -0.1045284632676542 -0.9945218953682733 0 0 
182 -0.08135867466785843 -0.9966848880445061 0 0 
183 -0.05814482891047624 -0.9983081582712682 0 0 
184 -0.03489949670250076 -0.9993908270190958 0 0 
185 -0.01163526580139707 -0.9999323080037622 0 0 
186 0.0116352658013967 -0.9999323080037622 0 0 
187 0.03489949670250039 -0.9993908270190958 0 0 
188 0.05814482891047587 -0.9983081582712682 0 0 
189 0.08135867466785807 -0.9966848880445061 0 0 
190 0.1045284632676539 -0.9945218953682733 0 0 
191 0.1348509302737233 -0.9908658973868822 0 0 
192 0.1650476058606778 -0.9862856015372313 0 0 
193 0.1950903220161283 -0.9807852804032304 0 0 
194 0.2249510543438649 -0.9743700647852352 0 0 
195 0.2546019482055274 -0.9670459389139432 0 0 
196 0.2840153447039223 -0.9588197348681932 0 0 
197 0.3062491796254083 -0.951951385302193 0 0 
198 0.3283171752135602 -0.944567537267605 0 0 
199 0.3502073812594672 -0.9366721892483977 0 0 
200 0.3719079438303862 -0.9282696167148068 0 0 
201 0.3934071116888652 -0.9193643698080891 0 0 
202 0.4146932426562389 -0.9099612708765432 0 0 
203 0.4357548099170798 -0.9000654118641209 0 0 
204 0.456580408261165 -0.8896821515530521 0 0 
205 0.4771587602596083 -0.8788171126619654 0 0 
206 0.5037739770455262 -0.8638355052043958 0 0 
207 0.5299192642332047 -0.8480480961564262 0 0 
208 0.5555702330196018 -0.8314696123025455 0 0 
209 0.5807029557109393 -0.8141155183563196 0 0 
210 0.6052939880428938 -0.7960020025346225 0 0 
211 0.6293203910498368 -0.7771459614569713 0 0 
212 0.6472333724764323 -0.7622919136084181 0 0 
213 0.6647958656139376 -0.7470250712409963 0 0 
214 0.6819983600624987 -0.7313537016191703 0 0 
215 0.6988315403679 -0.7152862910660516 0 0 
216 0.7152862910660512 -0.6988315403679002 0 0 
217 0.73135370161917 -0.6819983600624989 0 0 
218 0.747025071240996 -0.6647958656139379 0 0 
219 0.7622919136084177 -0.6472333724764326 0 0 
220 0.7771459614569711 -0.6293203910498372 0 0 
221 0.7960020025346222 -0.6052939880428941 0 0 
222 0.8141155183563192 -0.5807029557109397 0 0 
223 0.8314696123025452 -0.5555702330196022 0 0 
224 0.8480480961564258 -0.529919264233205 0 0 
225 0.8638355052043956 -0.5037739770455265 0 0 
226 0.8788171126619652 -0.4771587602596087 0 0 
227 0.8896821515530519 -0.4565804082611654 0 0 
228 0.9000654118641208 -0.4357548099170802 0 0 
229 0.9099612708765431 -0.4146932426562393 0 0 
230 0.9193643698080889 -0.3934071116888656 0 0 
231 0.9282696167148067 -0.3719079438303866 0 0 
232 0.9366721892483976 -0.3502073812594677 0 0 
233 0.9445675372676049 -0.3283171752135606 0 0 
234 0.9519513853021929 -0.3062491796254087 0 0 
235 0.9588197348681931 -0.2840153447039227 0 0 
236 0.9670459389139431 -0.2546019482055278 0 0 
237 0.9743700647852351 -0.2249510543438653 0 0 
238 0.9807852804032303 -0.1950903220161287 0 0 
239 0.9862856015372313 -0.1650476058606782 0 0 
240 0.9908658973868821 -0.1348509302737237 0 0 
1 0.9945217953682733 -0.1045285632676535 -1e-07 0.996684988044506 -0.08135857466785827 1e-07 1 1 2 1 -2 
2 0.9966847880445061 -0.08135877466785828 -1e-07 0.9983082582712681 -0.05814472891047582 1e-07 1 1 2 2 -3 
3 0.9983080582712682 -0.05814492891047583 -1e-07 0.9993909270190957 -0.03489939670250096 1e-07 1 1 2 3 -4 
4 0.9993907270190958 -0.03489959670250097 -1e-07 0.9999324080037622 -0.01163516580139701 1e-07 1 1 2 4 -5 
5 0.9999322080037623 -0.01163536580139701 -1e-07 0.9999324080037622 0.01163536580139701 1e-07 1 1 2 5 -6 
6 0.9993907270190958 0.01163516580139701 -1e-07 0.9999324080037622 0.03489959670250098 1e-07 1 1 2 6 -7 
7 0.9983080582712682 0.03489939670250097 -1e-07 0.9993909270190957 0.05814492891047585 1e-07 1 1 2 7 -8 
8 0.9966847880445061 0.05814472891047584 -1e-07 0.9983082582712681 0.08135877466785829 1e-07 1 1 2 8 -9 
9 0.9945217953682733 0.08135857466785829 -1e-07 0.996684988044506 0.1045285632676535 1e-07 1 1 2 9 -10 
10 0.9908657973868823 0.1045283632676535 -1e-07 0.9945219953682732 0.134851030273723 1e-07 1 0 2 10 -11 
11 0.9862855015372315 0.134850830273723 -1e-07 0.9908659973868822 0.1650477058606777 1e-07 1 0 2 11 -12 
12 0.9807851804032305 0.1650475058606777 -1e-07 0.9862857015372314 0.1950904220161283 1e-07 1 0 2 12 -13 
13 0.9743699647852353 0.1950902220161282 -1e-07 0.9807853804032304 0.224951154343865 1e-07 1 0 2 13 -14 
14 0.9670458389139431 0.224950954343865 -1e-07 0.9743701647852352 0.2546020482055276 1e-07 1 0 2 14 -15 
15 0.9588196348681931 0.2546018482055276 -1e-07 0.967046038913943 0.2840154447039226 1e-07 1 0 2 15 -16 
16 0.9519512853021932 0.2840152447039226 -1e-07 0.958819834868193 0.306249279625408 1e-07 1 2 2 16 -17 
17 0.9445674372676048 0.306249079625408 -1e-07 0.9519514853021931 0.328317275213561 1e-07 1 2 2 17 -18 
18 0.9366720892483976 0.328317075213561 -1e-07 0.9445676372676047 0.3502074812594675 1e-07 1 2 2 18 -19 
19 0.9282695167148067 0.3502072812594675 -1e-07 0.9366722892483975 0.3719080438303866 1e-07 1 2 2 19 -20 
20 0.9193642698080892 0.3719078438303866 -1e-07 0.9282697167148066 0.3934072116888651 1e-07 1 2 2 20 -21 
21 0.9099611708765433 0.3934070116888651 -1e-07 0.9193644698080891 0.4146933426562391 1e-07 1 2 2 21 -22 
22 0.9000653118641212 0.4146931426562391 -1e-07 0.9099613708765432 0.4357549099170794 1e-07 1 2 2 22 -23 
23 0.8896820515530518 0.4357547099170794 -1e-07 0.9000655118641211 0.4565805082611655 1e-07 1 2 2 23 -24 
24 0.8788170126619654 0.4565803082611655 -1e-07 0.8896822515530517 0.4771588602596084 1e-07 1 2 2 24 -25 
25 0.8638354052043958 0.4771586602596084 -1e-07 0.8788172126619653 0.5037740770455261 1e-07 1 0 2 25 -26 
26 0.848047996156426 0.5037738770455262 -1e-07 0.8638356052043957 0.5299193642332048 1e-07 1 0 2 26 -27 
27 0.8314695123025453 0.529919164233205 -1e-07 0.8480481961564259 0.5555703330196021 1e-07 1 0 2 27 -28 
28 0.8141154183563193 0.5555701330196022 -1e-07 0.8314697123025452 0.5807030557109397 1e-07 1 0 2 28 -29 
29 0.7960019025346221 0.5807028557109398 -1e-07 0.8141156183563192 0.6052940880428943 1e-07 1 0 2 29 -30 
30 0.7771458614569708 0.6052938880428944 -1e-07 0.796002102534622 0.6293204910498374 1e-07 1 0 2 30 -31 
31 0.762291813608418 0.6293202910498376 -1e-07 0.7771460614569707 0.6472334724764324 1e-07 1 3 2 31 -32 
32 0.7470249712409961 0.6472332724764325 -1e-07 0.7622920136084179 0.6647959656139377 1e-07 1 3 2 32 -33 
33 0.7313536016191705 0.6647957656139378 -1e-07 0.747025171240996 0.6819984600624984 1e-07 1 3 2 33 -34 
34 0.7152861910660515 0.6819982600624985 -1e-07 0.7313538016191704 0.6988316403678999 1e-07 1 3 2 34 -35 
35 0.6988314403679 0.6988314403679 -1e-07 0.7152863910660514 0.7152863910660514 1e-07 1 3 2 35 -36 
36 0.6819982600624985 0.7152861910660515 -1e-07 0.6988316403678999 0.7313538016191704 1e-07 1 3 2 36 -37 
37 0.6647957656139379 0.7313536016191705 -1e-07 0.6819984600624984 0.7470251712409959 1e-07 1 3 2 37 -38 
38 0.6472332724764325 0.747024971240996 -1e-07 0.6647959656139378 0.7622920136084178 1e-07 1 3 2 38 -39 
39 0.6293202910498376 0.7622918136084179 -1e-07 0.6472334724764324 0.7771460614569707 1e-07 1 3 2 39 -40 
40 0.6052938880428944 0.7771458614569708 -1e-07 0.6293204910498374 0.796002102534622 1e-07 1 0 2 40 -41 
41 0.5807028557109399 0.7960019025346221 -1e-07 0.6052940880428943 0.8141156183563191 1e-07 1 0 2 41 -42 
42 0.5555701330196023 0.8141154183563192 -1e-07 0.5807030557109398 0.8314697123025452 1e-07 1 0 2 42 -43 
43 0.529919164233205 0.8314695123025453 -1e-07 0.5555703330196022 0.8480481961564259 1e-07 1 0 2 43 -44 
44 0.5037738770455263 0.848047996156426 -1e-07 0.5299193642332048 0.8638356052043956 1e-07 1 0 2 44 -45 
45 0.4771586602596084 0.8638354052043957 -1e-07 0.5037740770455262 0.8788172126619653 1e-07 1 0 2 45 -46 
46 0.4565803082611656 0.8788170126619654 -1e-07 0.4771588602596084 0.8896822515530517 1e-07 1 4 2 46 -47 
47 0.4357547099170794 0.8896820515530518 -1e-07 0.4565805082611656 0.9000655118641211 1e-07 1 4 2 47 -48 
48 0.4146931426562391 0.9000653118641212 -1e-07 0.4357549099170794 0.9099613708765432 1e-07 1 4 2 48 -49 
49 0.3934070116888652 0.9099611708765433 -1e-07 0.4146933426562391 0.9193644698080889 1e-07 1 4 2 49 -50 
50 0.3719078438303866 0.9193642698080891 -1e-07 0.3934072116888652 0.9282697167148066 1e-07 1 4 2 50 -51 
51 0.3502072812594674 0.9282695167148067 -1e-07 0.3719080438303866 0.9366722892483975 1e-07 1 4 2 51 -52 
52 0.3283170752135611 0.9366720892483976 -1e-07 0.3502074812594674 0.9445676372676046 1e-07 1 4 2 52 -53 
53 0.3062490796254081 0.9445674372676047 -1e-07 0.3283172752135611 0.9519514853021931 1e-07 1 4 2 53 -54 
54 0.2840152447039228 0.9519512853021932 -1e-07 0.3062492796254081 0.958819834868193 1e-07 1 4 2 54 -55 
55 0.2546018482055276 0.9588196348681931 -1e-07 0.2840154447039228 0.967046038913943 1e-07 1 0 2 55 -56 
56 0.2249509543438651 0.9670458389139431 -1e-07 0.2546020482055276 0.9743701647852352 1e-07 1 0 2 56 -57 
57 0.1950902220161283 0.9743699647852353 -1e-07 0.2249511543438651 0.9807853804032304 1e-07 1 0 2 57 -58 
58 0.1650475058606776 0.9807851804032305 -1e-07 0.1950904220161283 0.9862857015372314 1e-07 1 0 2 58 -59 
59 0.1348508302737231 0.9862855015372315 -1e-07 0.1650477058606776 0.9908659973868822 1e-07 1 0 2 59 -60 
60 0.1045283632676535 0.9908657973868823 -1e-07 0.1348510302737231 0.9945219953682732 1e-07 1 0 2 60 -61 
61 0.0813585746678583 0.9945217953682733 -1e-07 0.1045285632676535 0.996684988044506 1e-07 1 5 2 61 -62 
62 0.0581447289104759 0.9966847880445061 -1e-07 0.08135877466785831 0.9983082582712681 1e-07 1 5 2 62 -63 
63 0.03489939670250108 0.9983080582712682 -1e-07 0.0581449289104759 0.9993909270190957 1e-07 1 5 2 63 -64 
64 0.01163516580139717 0.9993907270190958 -1e-07 0.03489959670250108 0.9999324080037622 1e-07 1 5 2 64 -65 
65 -0.01163536580139682 0.9999322080037623 -1e-07 0.01163536580139717 0.9999324080037622 1e-07 1 5 2 65 -66 
66 -0.03489959670250074 0.9993907270190958 -1e-07 -0.01163516580139682 0.9999324080037622 1e-07 1 5 2 66 -67 
67 -0.05814492891047578 0.9983080582712682 -1e-07 -0.03489939670250073 0.9993909270190957 1e-07 1 5 2 67 -68 
68 -0.08135877466785818 0.9966847880445061 -1e-07 -0.05814472891047577 0.9983082582712681 1e-07 1 5 2 68 -69 
69 -0.1045285632676533 0.9945217953682735 -1e-07 -0.08135857466785817 0.996684988044506 1e-07 1 5 2 69 -70 
70 -0.1348510302737227 0.9908657973868824 -1e-07 -0.1045283632676533 0.9945219953682733 1e-07 1 0 2 70 -71 
71 -0.1650477058606777 0.9862855015372315 -1e-07 -0.1348508302737227 0.9908659973868823 1e-07 1 0 2 71 -72 
72 -0.1950904220161282 0.9807851804032305 -1e-07 -0.1650475058606777 0.9862857015372314 1e-07 1 0 2 72 -73 
73 -0.2249511543438648 0.9743699647852353 -1e-07 -0.1950902220161282 0.9807853804032304 1e-07 1 0 2 73 -74 
74 -0.2546020482055277 0.9670458389139431 -1e-07 -0.2249509543438648 0.9743701647852352 1e-07 1 0 2 74 -75 
75 -0.2840154447039226 0.9588196348681931 -1e-07 -0.2546018482055277 0.967046038913943 1e-07 1 0 2 75 -76 
76 -0.306249279625408 0.9519512853021932 -1e-07 -0.2840152447039226 0.958819834868193 1e-07 1 6 2 76 -77 
77 -0.328317275213561 0.9445674372676048 -1e-07 -0.306249079625408 0.9519514853021931 1e-07 1 6 2 77 -78 
78 -0.3502074812594675 0.9366720892483976 -1e-07 -0.328317075213561 0.9445676372676047 1e-07 1 6 2 78 -79 
79 -0.3719080438303867 0.9282695167148066 -1e-07 -0.3502072812594675 0.9366722892483975 1e-07 1 6 2 79 -80 
80 -0.3934072116888649 0.9193642698080893 -1e-07 -0.3719078438303867 0.9282697167148065 1e-07 1 6 2 80 -81 
81 -0.4146933426562388 0.9099611708765434 -1e-07 -0.3934070116888649 0.9193644698080892 1e-07 1 6 2 81 -82 
82 -0.4357549099170791 0.9000653118641213 -1e-07 -0.4146931426562388 0.9099613708765433 1e-07 1 6 2 82 -83 
83 -0.4565805082611655 0.8896820515530519 -1e-07 -0.4357547099170791 0.9000655118641212 1e-07 1 6 2 83 -84 
84 -0.4771588602596085 0.8788170126619654 -1e-07 -0.4565803082611655 0.8896822515530518 1e-07 1 6 2 84 -85 
85 -0.5037740770455262 0.8638354052043958 -1e-07 -0.4771586602596085 0.8788172126619653 1e-07 1 0 2 85 -86 
86 -0.5299193642332047 0.8480479961564261 -1e-07 -0.5037738770455263 0.8638356052043957 1e-07 1 0 2 86 -87 
87 -0.5555703330196019 0.8314695123025454 -1e-07 -0.5299191642332048 0.848048196156426 1e-07 1 0 2 87 -88 
88 -0.5807030557109397 0.8141154183563193 -1e-07 -0.555570133019602 0.8314697123025453 1e-07 1 0 2 88 -89 
89 -0.6052940880428942 0.7960019025346222 -1e-07 -0.5807028557109398 0.8141156183563192 1e-07 1 0 2 89 -90 
90 -0.6293204910498372 0.7771458614569711 -1e-07 -0.6052938880428943 0.7960021025346221 1e-07 1 0 2 90 -91 
91 -0.6472334724764323 0.762291813608418 -1e-07 -0.6293202910498373 0.777146061456971 1e-07 1 7 2 91 -92 
92 -0.6647959656139378 0.747024971240996 -1e-07 -0.6472332724764324 0.7622920136084179 1e-07 1 7 2 92 -93 
93 -0.6819984600624983 0.7313536016191706 -1e-07 -0.6647957656139379 0.7470251712409959 1e-07 1 7 2 93 -94 
94 -0.6988316403679 0.7152861910660515 -1e-07 -0.6819982600624984 0.7313538016191705 1e-07 1 7 2 94 -95 
95 -0.7152863910660513 0.6988314403679002 -1e-07 -0.6988314403679001 0.7152863910660514 1e-07 1 7 2 95 -96 
96 -0.7313538016191704 0.6819982600624986 -1e-07 -0.7152861910660514 0.6988316403679001 1e-07 1 7 2 96 -97 
97 -0.7470251712409957 0.6647957656139382 -1e-07 -0.7313536016191705 0.6819984600624985 1e-07 1 7 2 97 -98 
98 -0.7622920136084178 0.6472332724764326 -1e-07 -0.7470249712409958 0.6647959656139381 1e-07 1 7 2 98 -99 
99 -0.7771460614569708 0.6293202910498374 -1e-07 -0.7622918136084179 0.6472334724764325 1e-07 1 7 2 99 -100 
100 -0.7960021025346219 0.6052938880428945 -1e-07 -0.777145861456971 0.6293204910498373 1e-07 1 0 2 100 -101 
101 -0.8141156183563191 0.5807028557109399 -1e-07 -0.796001902534622 0.6052940880428944 1e-07 1 0 2 101 -102 
102 -0.8314697123025453 0.5555701330196022 -1e-07 -0.8141154183563192 0.5807030557109398 1e-07 1 0 2 102 -103 
103 -0.8480481961564259 0.5299191642332051 -1e-07 -0.8314695123025454 0.5555703330196021 1e-07 1 0 2 103 -104 
104 -0.8638356052043956 0.5037738770455265 -1e-07 -0.848047996156426 0.529919364233205 1e-07 1 0 2 104 -105 
105 -0.8788172126619652 0.4771586602596086 -1e-07 -0.8638354052043957 0.5037740770455263 1e-07 1 0 2 105 -106 
106 -0.8896822515530517 0.4565803082611656 -1e-07 -0.8788170126619653 0.4771588602596086 1e-07 1 8 2 106 -107 
107 -0.9000655118641211 0.4357547099170793 -1e-07 -0.8896820515530518 0.4565805082611656 1e-07 1 8 2 107 -108 
108 -0.9099613708765431 0.4146931426562392 -1e-07 -0.9000653118641212 0.4357549099170793 1e-07 1 8 2 108 -109 
109 -0.9193644698080891 0.393407011688865 -1e-07 -0.9099611708765432 0.4146933426562392 1e-07 1 8 2 109 -110 
110 -0.9282697167148065 0.3719078438303868 -1e-07 -0.9193642698080892 0.3934072116888651 1e-07 1 8 2 110 -111 
111 -0.9366722892483975 0.3502072812594675 -1e-07 -0.9282695167148066 0.3719080438303868 1e-07 1 8 2 111 -112 
112 -0.9445676372676046 0.3283170752135613 -1e-07 -0.9366720892483976 0.3502074812594675 1e-07 1 8 2 112 -113 
113 -0.9519514853021931 0.3062490796254081 -1e-07 -0.9445674372676047 0.3283172752135614 1e-07 1 8 2 113 -114 
114 -0.958819834868193 0.2840152447039226 -1e-07 -0.9519512853021932 0.3062492796254082 1e-07 1 8 2 114 -115 
115 -0.967046038913943 0.2546018482055277 -1e-07 -0.9588196348681931 0.2840154447039226 1e-07 1 0 2 115 -116 
116 -0.9743701647852351 0.2249509543438652 -1e-07 -0.9670458389139431 0.2546020482055277 1e-07 1 0 2 116 -117 
117 -0.9807853804032304 0.1950902220161286 -1e-07 -0.9743699647852352 0.2249511543438652 1e-07 1 0 2 117 -118 
118 -0.9862857015372314 0.1650475058606777 -1e-07 -0.9807851804032305 0.1950904220161286 1e-07 1 0 2 118 -119 
119 -0.9908659973868822 0.1348508302737232 -1e-07 -0.9862855015372315 0.1650477058606777 1e-07 1 0 2 119 -120 
120 -0.9945219953682732 0.1045283632676537 -1e-07 -0.9908657973868823 0.1348510302737232 1e-07 1 0 2 120 -121 
121 -0.996684988044506 0.08135857466785837 -1e-07 -0.9945217953682733 0.1045285632676537 1e-07 1 9 2 121 -122 
122 -0.9983082582712681 0.05814472891047573 -1e-07 -0.9966847880445061 0.08135877466785837 1e-07 1 9 2 122 -123 
123 -0.9993909270190957 0.03489939670250114 -1e-07 -0.9983080582712682 0.05814492891047573 1e-07 1 9 2 123 -124 
124 -0.9999324080037622 0.011635165801397 -1e-07 -0.9993907270190958 0.03489959670250115 1e-07 1 9 2 124 -125 
125 -0.9999324080037622 -0.0116353658013972 -1e-07 -0.9999322080037623 0.011635365801397 1e-07 1 9 2 125 -126 
126 -0.9999324080037622 -0.0348995967025009 -1e-07 -0.9993907270190958 -0.0116351658013972 1e-07 1 9 2 126 -127 
127 -0.9993909270190957 -0.05814492891047594 -1e-07 -0.9983080582712682 -0.0348993967025009 1e-07 1 9 2 127 -128 
128 -0.9983082582712681 -0.08135877466785901 -1e-07 -0.9966847880445061 -0.05814472891047593 1e-07 1 9 2 128 -129 
129 -0.996684988044506 -0.1045285632676535 -1e-07 -0.9945217953682733 -0.08135857466785901 1e-07 1 9 2 129 -130 
130 -0.9945219953682732 -0.1348510302737229 -1e-07 -0.9908657973868823 -0.1045283632676535 1e-07 1 0 2 130 -131 
131 -0.9908659973868822 -0.1650477058606774 -1e-07 -0.9862855015372315 -0.1348508302737229 1e-07 1 0 2 131 -132 
132 -0.9862857015372314 -0.1950904220161284 -1e-07 -0.9807851804032305 -0.1650475058606774 1e-07 1 0 2 132 -133 
133 -0.9807853804032304 -0.224951154343865 -1e-07 -0.9743699647852353 -0.1950902220161284 1e-07 1 0 2 133 -134 
134 -0.9743701647852352 -0.2546020482055275 -1e-07 -0.9670458389139432 -0.224950954343865 1e-07 1 0 2 134 -135 
135 -0.9670460389139431 -0.2840154447039224 -1e-07 -0.9588196348681932 -0.2546018482055274 1e-07 1 0 2 135 -136 
136 -0.9588198348681931 -0.3062492796254079 -1e-07 -0.9519512853021932 -0.2840152447039224 1e-07 1 10 2 136 -137 
137 -0.9519514853021931 -0.3283172752135607 -1e-07 -0.9445674372676049 -0.3062490796254079 1e-07 1 10 2 137 -138 
138 -0.9445676372676048 -0.3502074812594673 -1e-07 -0.9366720892483977 -0.3283170752135607 1e-07 1 10 2 138 -139 
139 -0.9366722892483976 -0.3719080438303862 -1e-07 -0.9282695167148068 -0.3502072812594673 1e-07 1 10 2 139 -140 
140 -0.9282697167148067 -0.3934072116888653 -1e-07 -0.9193642698080891 -0.3719078438303862 1e-07 1 10 2 140 -141 
141 -0.9193644698080889 -0.414693342656239 -1e-07 -0.9099611708765433 -0.3934070116888653 1e-07 1 10 2 141 -142 
142 -0.9099613708765432 -0.4357549099170794 -1e-07 -0.9000653118641212 -0.414693142656239 1e-07 1 10 2 142 -143 
143 -0.9000655118641211 -0.4565805082611654 -1e-07 -0.8896820515530519 -0.4357547099170794 1e-07 1 10 2 143 -144 
144 -0.8896822515530518 -0.4771588602596084 -1e-07 -0.8788170126619654 -0.4565803082611654 1e-07 1 10 2 144 -145 
145 -0.8788172126619653 -0.5037740770455261 -1e-07 -0.8638354052043958 -0.4771586602596084 1e-07 1 0 2 145 -146 
146 -0.8638356052043957 -0.5299193642332047 -1e-07 -0.8480479961564261 -0.5037738770455262 1e-07 1 0 2 146 -147 
147 -0.848048196156426 -0.5555703330196019 -1e-07 -0.8314695123025455 -0.5299191642332048 1e-07 1 0 2 147 -148 
148 -0.8314697123025454 -0.5807030557109397 -1e-07 -0.8141154183563193 -0.555570133019602 1e-07 1 0 2 148 -149 
149 -0.8141156183563192 -0.6052940880428942 -1e-07 -0.7960019025346222 -0.5807028557109398 1e-07 1 0 2 149 -150 
150 -0.7960021025346221 -0.6293204910498372 -1e-07 -0.7771458614569712 -0.6052938880428943 1e-07 1 0 2 150 -151 
151 -0.7771460614569711 -0.6472334724764323 -1e-07 -0.7622918136084181 -0.6293202910498373 1e-07 1 11 2 151 -152 
152 -0.762292013608418 -0.6647959656139375 -1e-07 -0.7470249712409962 -0.6472332724764324 1e-07 1 11 2 152 -153 
153 -0.7470251712409961 -0.6819984600624983 -1e-07 -0.7313536016191706 -0.6647957656139376 1e-07 1 11 2 153 -154 
154 -0.7313538016191705 -0.6988316403678996 -1e-07 -0.7152861910660518 -0.6819982600624984 1e-07 1 11 2 154 -155 
155 -0.7152863910660517 -0.7152863910660515 -1e-07 -0.6988314403678999 -0.6988314403678997 1e-07 1 11 2 155 -156 
156 -0.6988316403678998 -0.7313538016191703 -1e-07 -0.6819982600624986 -0.7152861910660516 1e-07 1 11 2 156 -157 
157 -0.6819984600624985 -0.747025171240996 -1e-07 -0.6647957656139378 -0.7313536016191704 1e-07 1 11 2 157 -158 
158 -0.6647959656139377 -0.7622920136084178 -1e-07 -0.6472332724764326 -0.7470249712409961 1e-07 1 11 2 158 -159 
159 -0.6472334724764325 -0.7771460614569711 -1e-07 -0.6293202910498371 -0.7622918136084179 1e-07 1 11 2 159 -160 
160 -0.629320491049837 -0.7960021025346222 -1e-07 -0.6052938880428942 -0.7771458614569712 1e-07 1 0 2 160 -161 
161 -0.6052940880428941 -0.8141156183563193 -1e-07 -0.5807028557109396 -0.7960019025346223 1e-07 1 0 2 161 -162 
162 -0.5807030557109395 -0.8314697123025452 -1e-07 -0.5555701330196022 -0.8141154183563194 1e-07 1 0 2 162 -163 
163 -0.5555703330196021 -0.8480481961564259 -1e-07 -0.5299191642332051 -0.8314695123025453 1e-07 1 0 2 163 -164 
164 -0.529919364233205 -0.8638356052043955 -1e-07 -0.5037738770455265 -0.848047996156426 1e-07 1 0 2 164 -165 
165 -0.5037740770455263 -0.8788172126619652 -1e-07 -0.4771586602596087 -0.8638354052043956 1e-07 1 0 2 165 -166 
166 -0.4771588602596087 -0.8896822515530518 -1e-07 -0.4565803082611653 -0.8788170126619653 1e-07 1 12 2 166 -167 
167 -0.4565805082611653 -0.9000655118641208 -1e-07 -0.4357547099170801 -0.8896820515530519 1e-07 1 12 2 167 -168 
168 -0.4357549099170801 -0.9099613708765431 -1e-07 -0.4146931426562392 -0.9000653118641209 1e-07 1 12 2 168 -169 
169 -0.4146933426562392 -0.9193644698080888 -1e-07 -0.3934070116888655 -0.9099611708765432 1e-07 1 12 2 169 -170 
170 -0.3934072116888656 -0.9282697167148066 -1e-07 -0.3719078438303865 -0.9193642698080889 1e-07 1 12 2 170 -171 
171 -0.3719080438303865 -0.9366722892483975 -1e-07 -0.3502072812594676 -0.9282695167148067 1e-07 1 12 2 171 -172 
172 -0.3502074812594676 -0.9445676372676048 -1e-07 -0.3283170752135606 -0.9366720892483976 1e-07 1 12 2 172 -173 
173 -0.3283172752135606 -0.9519514853021929 -1e-07 -0.3062490796254086 -0.9445674372676049 1e-07 1 12 2 173 -174 
174 -0.3062492796254087 -0.958819834868193 -1e-07 -0.2840152447039226 -0.951951285302193 1e-07 1 12 2 174 -175 
175 -0.2840154447039226 -0.967046038913943 -1e-07 -0.2546018482055277 -0.9588196348681931 1e-07 1 0 2 175 -176 
176 -0.2546020482055277 -0.9743701647852351 -1e-07 -0.2249509543438653 -0.9670458389139431 1e-07 1 0 2 176 -177 
177 -0.2249511543438653 -0.9807853804032303 -1e-07 -0.1950902220161287 -0.9743699647852352 1e-07 1 0 2 177 -178 
178 -0.1950904220161287 -0.9862857015372313 -1e-07 -0.1650475058606782 -0.9807851804032304 1e-07 1 0 2 178 -179 
179 -0.1650477058606782 -0.9908659973868821 -1e-07 -0.1348508302737237 -0.9862855015372314 1e-07 1 0 2 179 -180 
180 -0.1348510302737237 -0.9945219953682732 -1e-07 -0.1045283632676542 -0.9908657973868822 1e-07 1 0 2 180 -181 
181 -0.1045285632676542 -0.996684988044506 -1e-07 -0.08135857466785842 -0.9945217953682733 1e-07 1 13 2 181 -182 
182 -0.08135877466785843 -0.9983082582712681 -1e-07 -0.05814472891047624 -0.9966847880445061 1e-07 1 13 2 182 -183 
183 -0.05814492891047624 -0.9993909270190957 -1e-07 -0.03489939670250076 -0.9983080582712682 1e-07 1 13 2 183 -184 
184 -0.03489959670250076 -0.9999324080037622 -1e-07 -0.01163516580139707 -0.9993907270190958 1e-07 1 13 2 184 -185 
185 -0.01163536580139706 -0.9999324080037622 -1e-07 0.0116353658013967 -0.9999322080037623 1e-07 1 13 2 185 -186 
186 0.0116351658013967 -0.9999324080037622 -1e-07 0.0348995967025004 -0.9993907270190958 1e-07 1 13 2 186 -187 
187 0.03489939670250039 -0.9993909270190957 -1e-07 0.05814492891047587 -0.9983080582712682 1e-07 1 13 2 187 -188 
188 0.05814472891047587 -0.9983082582712681 -1e-07 0.08135877466785807 -0.9966847880445061 1e-07 1 13 2 188 -189 
189 0.08135857466785806 -0.996684988044506 -1e-07 0.1045285632676539 -0.9945217953682733 1e-07 1 13 2 189 -190 
190 0.1045283632676539 -0.9945219953682732 -1e-07 0.1348510302737233 -0.9908657973868823 1e-07 1 0 2 190 -191 
191 0.1348508302737233 -0.9908659973868822 -1e-07 0.1650477058606778 -0.9862855015372314 1e-07 1 0 2 191 -192 
192 0.1650475058606778 -0.9862857015372313 -1e-07 0.1950904220161283 -0.9807851804032305 1e-07 1 0 2 192 -193 
193 0.1950902220161283 -0.9807853804032304 -1e-07 0.2249511543438649 -0.9743699647852353 1e-07 1 0 2 193 -194 
194 0.2249509543438649 -0.9743701647852352 -1e-07 0.2546020482055274 -0.9670458389139432 1e-07 1 0 2 194 -195 
195 0.2546018482055274 -0.9670460389139431 -1e-07 0.2840154447039223 -0.9588196348681932 1e-07 1 0 2 195 -196 
196 0.2840152447039223 -0.9588198348681931 -1e-07 0.3062492796254083 -0.9519512853021931 1e-07 1 14 2 196 -197 
197 0.3062490796254083 -0.951951485302193 -1e-07 0.3283172752135602 -0.9445674372676051 1e-07 1 14 2 197 -198 
198 0.3283170752135602 -0.944567637267605 -1e-07 0.3502074812594672 -0.9366720892483977 1e-07 1 14 2 198 -199 
199 0.3502072812594672 -0.9366722892483976 -1e-07 0.3719080438303862 -0.9282695167148068 1e-07 1 14 2 199 -200 
200 0.3719078438303862 -0.9282697167148067 -1e-07 0.3934072116888652 -0.9193642698080892 1e-07 1 14 2 200 -201 
201 0.3934070116888652 -0.9193644698080891 -1e-07 0.4146933426562389 -0.9099611708765433 1e-07 1 14 2 201 -202 
202 0.4146931426562389 -0.9099613708765432 -1e-07 0.4357549099170798 -0.900065311864121 1e-07 1 14 2 202 -203 
203 0.4357547099170798 -0.9000655118641209 -1e-07 0.456580508261165 -0.8896820515530521 1e-07 1 14 2 203 -204 
204 0.456580308261165 -0.889682251553052 -1e-07 0.4771588602596084 -0.8788170126619654 1e-07 1 14 2 204 -205 
205 0.4771586602596083 -0.8788172126619653 -1e-07 0.5037740770455261 -0.8638354052043958 1e-07 1 0 2 205 -206 
206 0.5037738770455262 -0.8638356052043957 -1e-07 0.5299193642332046 -0.8480479961564262 1e-07 1 0 2 206 -207 
207 0.5299191642332047 -0.8480481961564261 -1e-07 0.5555703330196018 -0.8314695123025455 1e-07 1 0 2 207 -208 
208 0.5555701330196019 -0.8314697123025454 -1e-07 0.5807030557109393 -0.8141154183563196 1e-07 1 0 2 208 -209 
209 0.5807028557109394 -0.8141156183563195 -1e-07 0.6052940880428938 -0.7960019025346226 1e-07 1 0 2 209 -210 
210 0.6052938880428939 -0.7960021025346224 -1e-07 0.6293204910498368 -0.7771458614569714 1e-07 1 0 2 210 -211 
211 0.6293202910498369 -0.7771460614569713 -1e-07 0.6472334724764323 -0.7622918136084181 1e-07 1 15 2 211 -212 
212 0.6472332724764324 -0.762292013608418 -1e-07 0.6647959656139375 -0.7470249712409963 1e-07 1 15 2 212 -213 
213 0.6647957656139376 -0.7470251712409962 -1e-07 0.6819984600624986 -0.7313536016191704 1e-07 1 15 2 213 -214 
214 0.6819982600624988 -0.7313538016191703 -1e-07 0.6988316403678999 -0.7152861910660516 1e-07 1 15 2 214 -215 
215 0.6988314403679 -0.7152863910660515 -1e-07 0.7152863910660512 -0.6988314403679002 1e-07 1 15 2 215 -216 
216 0.7152861910660513 -0.6988316403679001 -1e-07 0.73135380161917 -0.681998260062499 1e-07 1 15 2 216 -217 
217 0.7313536016191701 -0.6819984600624989 -1e-07 0.747025171240996 -0.6647957656139379 1e-07 1 15 2 217 -218 
218 0.7470249712409961 -0.6647959656139378 -1e-07 0.7622920136084177 -0.6472332724764327 1e-07 1 15 2 218 -219 
219 0.7622918136084178 -0.6472334724764326 -1e-07 0.7771460614569711 -0.6293202910498372 1e-07 1 15 2 219 -220 
220 0.7771458614569712 -0.6293204910498371 -1e-07 0.7960021025346221 -0.6052938880428942 1e-07 1 0 2 220 -221 
221 0.7960019025346222 -0.6052940880428941 -1e-07 0.8141156183563192 -0.5807028557109397 1e-07 1 0 2 221 -222 
222 0.8141154183563193 -0.5807030557109396 -1e-07 0.8314697123025452 -0.5555701330196022 1e-07 1 0 2 222 -223 
223 0.8314695123025453 -0.5555703330196021 -1e-07 0.8480481961564258 -0.5299191642332051 1e-07 1 0 2 223 -224 
224 0.8480479961564259 -0.529919364233205 -1e-07 0.8638356052043955 -0.5037738770455266 1e-07 1 0 2 224 -225 
225 0.8638354052043956 -0.5037740770455265 -1e-07 0.8788172126619651 -0.4771586602596087 1e-07 1 0 2 225 -226 
226 0.8788170126619652 -0.4771588602596087 -1e-07 0.8896822515530518 -0.4565803082611654 1e-07 1 16 2 226 -227 
227 0.8896820515530519 -0.4565805082611654 -1e-07 0.9000655118641208 -0.4357547099170802 1e-07 1 16 2 227 -228 
228 0.9000653118641209 -0.4357549099170802 -1e-07 0.9099613708765431 -0.4146931426562393 1e-07 1 16 2 228 -229 
229 0.9099611708765432 -0.4146933426562393 -1e-07 0.9193644698080888 -0.3934070116888656 1e-07 1 16 2 229 -230 
230 0.9193642698080889 -0.3934072116888656 -1e-07 0.9282697167148066 -0.3719078438303866 1e-07 1 16 2 230 -231 
231 0.9282695167148067 -0.3719080438303866 -1e-07 0.9366722892483975 -0.3502072812594677 1e-07 1 16 2 231 -232 
232 0.9366720892483976 -0.3502074812594677 -1e-07 0.9445676372676048 -0.3283170752135606 1e-07 1 16 2 232 -233 
233 0.9445674372676049 -0.3283172752135606 -1e-07 0.9519514853021929 -0.3062490796254087 1e-07 1 16 2 233 -234 
234 0.951951285302193 -0.3062492796254087 -1e-07 0.958819834868193 -0.2840152447039227 1e-07 1 16 2 234 -235 
235 0.9588196348681931 -0.2840154447039227 -1e-07 0.967046038913943 -0.2546018482055278 1e-07 1 0 2 235 -236 
236 0.9670458389139431 -0.2546020482055278 -1e-07 0.9743701647852351 -0.2249509543438653 1e-07 1 0 2 236 -237 
237 0.9743699647852352 -0.2249511543438653 -1e-07 0.9807853804032303 -0.1950902220161287 1e-07 1 0 2 237 -238 
238 0.9807851804032304 -0.1950904220161287 -1e-07 0.9862857015372313 -0.1650475058606782 1e-07 1 0 2 238 -239 
239 0.9862855015372314 -0.1650477058606782 -1e-07 0.9908659973868821 -0.1348508302737237 1e-07 1 0 2 239 -240 
240 0.9908657973868822 -0.1348510302737237 -1e-07 0.9945219953682732 -0.1045283632676535 1e-07 1 0 2 240 -1 
1 -0.9999324080037622 -0.9999324080037622 -1e-07 0.9999324080037622 0.9999324080037622 1e-07 1 1 240 1 2 3 4 5 6 7 8 9 10 11 12 13 14 15 16 17 18 19 20 21 22 23 24 25 26 27 28 29 30 31 32 33 34 35 36 37 38 39 40 41 42 43 44 45 46 47 48 49 50 51 52 53 54 55 56 57 58 59 60 61 62 63 64 65 66 67 68 69 70 71 72 73 74 75 76 77 78 79 80 81 82 83 84 85 86 87 88 89 90 91 92 93 94 95 96 97 98 99 100 101 102 103 104 105 106 107 108 109 110 111 112 113 114 115 116 117 118 119 120 121 122 123 124 125 126 127 128 129 130 131 132 133 134 135 136 137 138 139 140 141 142 143 144 145 146 147 148 149 150 151 152 153 154 155 156 157 158 159 160 161 162 163 164 165 166 167 168 169 170 171 172 173 174 175 176 177 178 179 180 181 182 183 184 185 186 187 188 189 190 191 192 193 194 195 196 197 198 199 200 201 202 203 204 205 206 207 208 209 210 211 212 213 214 215 216 217 218 219 220 221 222 223 224 225 226 227 228 229 230 231 232 233 234 235 236 237 238 239 240 
$EndEntities
$Nodes
481 510 1 510
0 1 0 1
1
0.9945218953682733 -0.1045284632676535 0
0 2 0 1
2
0.9966848880445061 -0.08135867466785827 0
0 3 0 1
3
0.9983081582712682 -0.05814482891047582 0
0 4 0 1
4
0.9993908270190958 -0.03489949670250096 0
0 5 0 1
5
0.9999323080037622 -0.01163526580139701 0
0 6 0 1
6
0.9999323080037622 0.01163526580139701 0
0 7 0 1
7
0.9993908270190958 0.03489949670250098 0
0 8 0 1
8
0.9983081582712682 0.05814482891047584 0
0 9 0 1
9
0.9966848880445061 0.08135867466785829 0
0 10 0 1
10
0.9945218953682733 0.1045284632676535 0
0 11 0 1
11
0.9908658973868822 0.134850930273723 0
0 12 0 1
12
0.9862856015372314 0.1650476058606777 0
0 13 0 1
13
0.9807852804032304 0.1950903220161282 0
0 14 0 1
14
0.9743700647852352 0.224951054343865 0
0 15 0 1
15
0.9670459389139431 0.2546019482055276 0
0 16 0 1
16
0.9588197348681931 0.2840153447039226 0
0 17 0 1
17
0.9519513853021931 0.306249179625408 0
0 18 0 1
18
0.9445675372676048 0.328317175213561 0
0 19 0 1
19
0.9366721892483976 0.3502073812594675 0
0 20 0 1
20
0.9282696167148067 0.3719079438303866 0
0 21 0 1
21
0.9193643698080891 0.3934071116888651 0
0 22 0 1
22
0.9099612708765432 0.4146932426562391 0
0 23 0 1
23
0.9000654118641211 0.4357548099170794 0
0 24 0 1
24
0.8896821515530517 0.4565804082611655 0
0 25 0 1
25
0.8788171126619654 0.4771587602596084 0
0 26 0 1
26
0.8638355052043958 0.5037739770455262 0
0 27 0 1
27
0.848048096156426 0.5299192642332049 0
0 28 0 1
28
0.8314696123025452 0.5555702330196022 0
0 29 0 1
29
0.8141155183563192 0.5807029557109398 0
0 30 0 1
30
0.7960020025346221 0.6052939880428944 0
0 31 0 1
31
0.7771459614569708 0.6293203910498375 0
0 32 0 1
32
0.762291913608418 0.6472333724764324 0
0 33 0 1
33
0.747025071240996 0.6647958656139378 0
0 34 0 1
34
0.7313537016191705 0.6819983600624985 0
0 35 0 1
35
0.7152862910660515 0.6988315403679 0
0 36 0 1
36
0.6988315403679 0.7152862910660515 0
0 37 0 1
37
0.6819983600624985 0.7313537016191705 0
0 38 0 1
38
0.6647958656139379 0.7470250712409959 0
0 39 0 1
39
0.6472333724764324 0.7622919136084179 0
0 40 0 1
40
0.6293203910498375 0.7771459614569708 0
0 41 0 1
41
0.6052939880428944 0.7960020025346221 0
0 42 0 1
42
0.5807029557109399 0.8141155183563191 0
0 43 0 1
43
0.5555702330196023 0.8314696123025452 0
0 44 0 1
44
0.5299192642332049 0.848048096156426 0
0 45 0 1
45
0.5037739770455263 0.8638355052043957 0
0 46 0 1
46
0.4771587602596084 0.8788171126619654 0
0 47 0 1
47
0.4565804082611656 0.8896821515530517 0
0 48 0 1
48
0.4357548099170794 0.9000654118641211 0
0 49 0 1
49
0.4146932426562391 0.9099612708765432 0
0 50 0 1
50
0.3934071116888652 0.919364369808089 0
0 51 0 1
51
0.3719079438303866 0.9282696167148067 0
0 52 0 1
52
0.3502073812594674 0.9366721892483976 0
0 53 0 1
53
0.3283171752135611 0.9445675372676047 0
0 54 0 1
54
0.3062491796254081 0.9519513853021931 0
0 55 0 1
55
0.2840153447039228 0.9588197348681931 0
0 56 0 1
56
0.2546019482055276 0.9670459389139431 0
0 57 0 1
57
0.2249510543438651 0.9743700647852352 0
0 58 0 1
58
0.1950903220161283 0.9807852804032304 0
0 59 0 1
59
0.1650476058606776 0.9862856015372314 0
0 60 0 1
60
0.1348509302737231 0.9908658973868822 0
0 61 0 1
61
0.1045284632676535 0.9945218953682733 0
0 62 0 1
62
0.0813586746678583 0.9966848880445061 0
0 63 0 1
63
0.0581448289104759 0.9983081582712682 0
0 64 0 1
64
0.03489949670250108 0.9993908270190958 0
0 65 0 1
65
0.01163526580139717 0.9999323080037622 0
0 66 0 1
66
-0.01163526580139682 0.9999323080037622 0
0 67 0 1
67
-0.03489949670250073 0.9993908270190958 0
0 68 0 1
68
-0.05814482891047577 0.9983081582712682 0
0 69 0 1
69
-0.08135867466785818 0.9966848880445061 0
0 70 0 1
70
-0.1045284632676533 0.9945218953682734 0
0 71 0 1
71
-0.1348509302737227 0.9908658973868824 0
0 72 0 1
72
-0.1650476058606777 0.9862856015372314 0
0 73 0 1
73
-0.1950903220161282 0.9807852804032304 0
0 74 0 1
74
-0.2249510543438648 0.9743700647852352 0
0 75 0 1
75
-0.2546019482055277 0.9670459389139431 0
0 76 0 1
76
-0.2840153447039226 0.9588197348681931 0
0 77 0 1
77
-0.306249179625408 0.9519513853021931 0
0 78 0 1
78
-0.328317175213561 0.9445675372676048 0
0 79 0 1
79
-0.3502073812594675 0.9366721892483976 0
0 80 0 1
80
-0.3719079438303867 0.9282696167148066 0
0 81 0 1
81
-0.3934071116888649 0.9193643698080892 0
0 82 0 1
82
-0.4146932426562388 0.9099612708765433 0
0 83 0 1
83
-0.4357548099170791 0.9000654118641213 0
0 84 0 1
84
-0.4565804082611655 0.8896821515530519 0
0 85 0 1
85
-0.4771587602596085 0.8788171126619654 0
0 86 0 1
86
-0.5037739770455263 0.8638355052043958 0
0 87 0 1
87
-0.5299192642332048 0.8480480961564261 0
0 88 0 1
88
-0.555570233019602 0.8314696123025453 0
0 89 0 1
89
-0.5807029557109398 0.8141155183563192 0
0 90 0 1
90
-0.6052939880428942 0.7960020025346222 0
0 91 0 1
91
-0.6293203910498373 0.777145961456971 0
0 92 0 1
92
-0.6472333724764323 0.762291913608418 0
0 93 0 1
93
-0.6647958656139379 0.7470250712409959 0
0 94 0 1
94
-0.6819983600624984 0.7313537016191706 0
0 95 0 1
95
-0.6988315403679001 0.7152862910660515 0
0 96 0 1
96
-0.7152862910660513 0.6988315403679002 0
0 97 0 1
97
-0.7313537016191705 0.6819983600624986 0
0 98 0 1
98
-0.7470250712409957 0.6647958656139381 0
0 99 0 1
99
-0.7622919136084179 0.6472333724764325 0
0 100 0 1
100
-0.7771459614569709 0.6293203910498374 0
0 101 0 1
101
-0.7960020025346219 0.6052939880428945 0
0 102 0 1
102
-0.8141155183563191 0.5807029557109399 0
0 103 0 1
103
-0.8314696123025453 0.5555702330196022 0
0 104 0 1
104
-0.848048096156426 0.529919264233205 0
0 105 0 1
105
-0.8638355052043957 0.5037739770455264 0
0 106 0 1
106
-0.8788171126619653 0.4771587602596086 0
0 107 0 1
107
-0.8896821515530517 0.4565804082611656 0
0 108 0 1
108
-0.9000654118641211 0.4357548099170793 0
0 109 0 1
109
-0.9099612708765431 0.4146932426562392 0
0 110 0 1
110
-0.9193643698080891 0.3934071116888651 0
0 111 0 1
111
-0.9282696167148066 0.3719079438303868 0
0 112 0 1
112
-0.9366721892483976 0.3502073812594675 0
0 113 0 1
113
-0.9445675372676047 0.3283171752135614 0
0 114 0 1
114
-0.9519513853021931 0.3062491796254082 0
0 115 0 1
115
-0.9588197348681931 0.2840153447039226 0
0 116 0 1
116
-0.9670459389139431 0.2546019482055277 0
0 117 0 1
117
-0.9743700647852351 0.2249510543438652 0
0 118 0 1
118
-0.9807852804032304 0.1950903220161286 0
0 119 0 1
119
-0.9862856015372314 0.1650476058606777 0
0 120 0 1
120
-0.9908658973868822 0.1348509302737232 0
0 121 0 1
121
-0.9945218953682733 0.1045284632676537 0
0 122 0 1
122
-0.9966848880445061 0.08135867466785837 0
0 123 0 1
123
-0.9983081582712682 0.05814482891047573 0
0 124 0 1
124
-0.9993908270190958 0.03489949670250114 0
0 125 0 1
125
-0.9999323080037622 0.011635265801397 0
0 126 0 1
126
-0.9999323080037622 -0.0116352658013972 0
0 127 0 1
127
-0.9993908270190958 -0.0348994967025009 0
0 128 0 1
128
-0.9983081582712682 -0.05814482891047593 0
0 129 0 1
129
-0.9966848880445061 -0.08135867466785901 0
0 130 0 1
130
-0.9945218953682733 -0.1045284632676535 0
0 131 0 1
131
-0.9908658973868822 -0.1348509302737229 0
0 132 0 1
132
-0.9862856015372314 -0.1650476058606774 0
0 133 0 1
133
-0.9807852804032304 -0.1950903220161284 0
0 134 0 1
134
-0.9743700647852352 -0.224951054343865 0
0 135 0 1
135
-0.9670459389139432 -0.2546019482055275 0
0 136 0 1
136
-0.9588197348681932 -0.2840153447039224 0
0 137 0 1
137
-0.9519513853021931 -0.3062491796254079 0
0 138 0 1
138
-0.9445675372676049 -0.3283171752135607 0
0 139 0 1
139
-0.9366721892483977 -0.3502073812594673 0
0 140 0 1
140
-0.9282696167148068 -0.3719079438303862 0
0 141 0 1
141
-0.919364369808089 -0.3934071116888653 0
0 142 0 1
142
-0.9099612708765432 -0.414693242656239 0
0 143 0 1
143
-0.9000654118641211 -0.4357548099170794 0
0 144 0 1
144
-0.8896821515530519 -0.4565804082611654 0
0 145 0 1
145
-0.8788171126619654 -0.4771587602596084 0
0 146 0 1
146
-0.8638355052043958 -0.5037739770455262 0
0 147 0 1
147
-0.8480480961564261 -0.5299192642332048 0
0 148 0 1
148
-0.8314696123025455 -0.555570233019602 0
0 149 0 1
149
-0.8141155183563192 -0.5807029557109398 0
0 150 0 1
150
-0.7960020025346222 -0.6052939880428942 0
0 151 0 1
151
-0.7771459614569711 -0.6293203910498373 0
0 152 0 1
152
-0.7622919136084181 -0.6472333724764323 0
0 153 0 1
153
-0.7470250712409962 -0.6647958656139376 0
0 154 0 1
154
-0.7313537016191706 -0.6819983600624984 0
0 155 0 1
155
-0.7152862910660518 -0.6988315403678996 0
0 156 0 1
156
-0.6988315403678999 -0.7152862910660516 0
0 157 0 1
157
-0.6819983600624986 -0.7313537016191703 0
0 158 0 1
158
-0.6647958656139378 -0.747025071240996 0
0 159 0 1
159
-0.6472333724764325 -0.7622919136084179 0
0 160 0 1
160
-0.6293203910498371 -0.7771459614569711 0
0 161 0 1
161
-0.6052939880428941 -0.7960020025346223 0
0 162 0 1
162
-0.5807029557109396 -0.8141155183563193 0
0 163 0 1
163
-0.5555702330196022 -0.8314696123025452 0
0 164 0 1
164
-0.529919264233205 -0.848048096156426 0
0 165 0 1
165
-0.5037739770455264 -0.8638355052043956 0
0 166 0 1
166
-0.4771587602596087 -0.8788171126619653 0
0 167 0 1
167
-0.4565804082611653 -0.8896821515530519 0
0 168 0 1
168
-0.4357548099170801 -0.9000654118641208 0
0 169 0 1
169
-0.4146932426562392 -0.9099612708765431 0
0 170 0 1
170
-0.3934071116888656 -0.9193643698080889 0
0 171 0 1
171
-0.3719079438303865 -0.9282696167148067 0
0 172 0 1
172
-0.3502073812594676 -0.9366721892483976 0
0 173 0 1
173
-0.3283171752135606 -0.9445675372676049 0
0 174 0 1
174
-0.3062491796254087 -0.9519513853021929 0
0 175 0 1
175
-0.2840153447039226 -0.9588197348681931 0
0 176 0 1
176
-0.2546019482055277 -0.9670459389139431 0
0 177 0 1
177
-0.2249510543438653 -0.9743700647852351 0
0 178 0 1
178
-0.1950903220161287 -0.9807852804032303 0
0 179 0 1
179
-0.1650476058606782 -0.9862856015372313 0
0 180 0 1
180
-0.1348509302737237 -0.9908658973868821 0
0 181 0 1
181
-0.1045284632676542 -0.9945218953682733 0
0 182 0 1
182
-0.08135867466785843 -0.9966848880445061 0
0 183 0 1
183
-0.05814482891047624 -0.9983081582712682 0
0 184 0 1
184
-0.03489949670250076 -0.9993908270190958 0
0 185 0 1
185
-0.01163526580139707 -0.9999323080037622 0
0 186 0 1
186
0.0116352658013967 -0.9999323080037622 0
0 187 0 1
187
0.03489949670250039 -0.9993908270190958 0
0 188 0 1
188
0.05814482891047587 -0.9983081582712682 0
0 189 0 1
189
0.08135867466785807 -0.9966848880445061 0
0 190 0 1
190
0.1045284632676539 -0.9945218953682733 0
0 191 0 1
191
0.1348509302737233 -0.9908658973868822 0
0 192 0 1
192
0.1650476058606778 -0.9862856015372313 0
0 193 0 1
193
0.1950903220161283 -0.9807852804032304 0
0 194 0 1
194
0.2249510543438649 -0.9743700647852352 0
0 195 0 1
195
0.2546019482055274 -0.9670459389139432 0
0 196 0 1
196
0.2840153447039223 -0.9588197348681932 0
0 197 0 1
197
0.3062491796254083 -0.951951385302193 0
0 198 0 1
198
0.3283171752135602 -0.944567537267605 0
0 199 0 1
199
0.3502073812594672 -0.9366721892483977 0
0 200 0 1
200
0.3719079438303862 -0.9282696167148068 0
0 201 0 1
201
0.3934071116888652 -0.9193643698080891 0
0 202 0 1
202
0.4146932426562389 -0.9099612708765432 0
0 203 0 1
203
0.4357548099170798 -0.9000654118641209 0
0 204 0 1
204
0.456580408261165 -0.8896821515530521 0
0 205 0 1
205
0.4771587602596083 -0.8788171126619654 0
0 206 0 1
206
0.5037739770455262 -0.8638355052043958 0
0 207 0 1
207
0.5299192642332047 -0.8480480961564262 0
0 208 0 1
208
0.5555702330196018 -0.8314696123025455 0
0 209 0 1
209
0.5807029557109393 -0.8141155183563196 0
0 210 0 1
210
0.6052939880428938 -0.7960020025346225 0
0 211 0 1
211
0.6293203910498368 -0.7771459614569713 0
0 212 0 1
212
0.6472333724764323 -0.7622919136084181 0
0 213 0 1
213
0.6647958656139376 -0.7470250712409963 0
0 214 0 1
214
0.6819983600624987 -0.7313537016191703 0
0 215 0 1
215
0.6988315403679 -0.7152862910660516 0
0 216 0 1
216
0.7152862910660512 -0.6988315403679002 0
0 217 0 1
217
0.73135370161917 -0.6819983600624989 0
0 218 0 1
218
0.747025071240996 -0.6647958656139379 0
0 219 0 1
219
0.7622919136084177 -0.6472333724764326 0
0 220 0 1
220
0.7771459614569711 -0.6293203910498372 0
0 221 0 1
221
0.7960020025346222 -0.6052939880428941 0
0 222 0 1
222
0.8141155183563192 -0.5807029557109397 0
0 223 0 1
223
0.8314696123025452 -0.5555702330196022 0
0 224 0 1
224
0.8480480961564258 -0.529919264233205 0
0 225 0 1
225
0.8638355052043956 -0.5037739770455265 0
0 226 0 1
226
0.8788171126619652 -0.4771587602596087 0
0 227 0 1
227
0.8896821515530519 -0.4565804082611654 0
0 228 0 1
228
0.9000654118641208 -0.4357548099170802 0
0 229 0 1
229
0.9099612708765431 -0.4146932426562393 0
0 230 0 1
230
0.9193643698080889 -0.3934071116888656 0
0 231 0 1
231
0.9282696167148067 -0.3719079438303866 0
0 232 0 1
232
0.9366721892483976 -0.3502073812594677 0
0 233 0 1
233
0.9445675372676049 -0.3283171752135606 0
0 234 0 1
234
0.9519513853021929 -0.3062491796254087 0
0 235 0 1
235
0.9588197348681931 -0.2840153447039227 0
0 236 0 1
236
0.9670459389139431 -0.2546019482055278 0
0 237 0 1
237
0.9743700647852351 -0.2249510543438653 0
0 238 0 1
238
0.9807852804032303 -0.1950903220161287 0
0 239 0 1
239
0.9862856015372313 -0.1650476058606782 0
0 240 0 1
240
0.9908658973868821 -0.1348509302737237 0
1 1 0 0
1 2 0 0
1 3 0 0
1 4 0 0
1 5 0 0
1 6 0 0
1 7 0 0
1 8 0 0
1 9 0 0
1 10 0 0
1 11 0 0
1 12 0 0
1 13 0 0
1 14 0 0
1 15 0 0
1 16 0 0
1 17 0 0
1 18 0 0
1 19 0 0
1 20 0 0
1 21 0 0
1 22 0 0
1 23 0 0
1 24 0 0
1 25 0 0
1 26 0 0
1 27 0 0
1 28 0 0
1 29 0 0
1 30 0 0
1 31 0 0
1 32 0 0
1 33 0 0
1 34 0 0
1 35 0 0
1 36 0 0
1 37 0 0
1 38 0 0
1 39 0 0
1 40 0 0
1 41 0 0
1 42 0 0
1 43 0 0
1 44 0 0
1 45 0 0
1 46 0 0
1 47 0 0
1 48 0 0
1 49 0 0
1 50 0 0
1 51 0 0
1 52 0 0
1 53 0 0
1 54 0 0
1 55 0 0
1 56 0 0
1 57 0 0
1 58 0 0
1 59 0 0
1 60 0 0
1 61 0 0
1 62 0 0
1 63 0 0
1 64 0 0
1 65 0 0
1 66 0 0
1 67 0 0
1 68 0 0
1 69 0 0
1 70 0 0
1 71 0 0
1 72 0 0
1 73 0 0
1 74 0 0
1 75 0 0
1 76 0 0
1 77 0 0
1 78 0 0
1 79 0 0
1 80 0 0
1 81 0 0
1 82 0 0
1 83 0 0
1 84 0 0
1 85 0 0
1 86 0 0
1 87 0 0
1 88 0 0
1 89 0 0
1 90 0 0
1 91 0 0
1 92 0 0
1 93 0 0
1 94 0 0
1 95 0 0
1 96 0 0
1 97 0 0
1 98 0 0
1 99 0 0
1 100 0 0
1 101 0 0
1 102 0 0
1 103 0 0
1 104 0 0
1 105 0 0
1 106 0 0
1 107 0 0
1 108 0 0
1 109 0 0
1 110 0 0
1 111 0 0
1 112 0 0
1 113 0 0
1 114 0 0
1 115 0 0
1 116 0 0
1 117 0 0
1 118 0 0
1 119 0 0
1 120 0 0
1 121 0 0
1 122 0 0
1 123 0 0
1 124 0 0
1 125 0 0
1 126 0 0
1 127 0 0
1 128 0 0
1 129 0 0
1 130 0 0
1 131 0 0
1 132 0 0
1 133 0 0
1 134 0 0
1 135 0 0
1 136 0 0
1 137 0 0
1 138 0 0
1 139 0 0
1 140 0 0
1 141 0 0
1 142 0 0
1 143 0 0
1 144 0 0
1 145 0 0
1 146 0 0
1 147 0 0
1 148 0 0
1 149 0 0
1 150 0 0
1 151 0 0
1 152 0 0
1 153 0 0
1 154 0 0
1 155 0 0
1 156 0 0
1 157 0 0
1 158 0 0
1 159 0 0
1 160 0 0
1 161 0 0
1 162 0 0
1 163 0 0
1 164 0 0
1 165 0 0
1 166 0 0
1 167 0 0
1 168 0 0
1 169 0 0
1 170 0 0
1 171 0 0
1 172 0 0
1 173 0 0
1 174 0 0
1 175 0 0
1 176 0 0
1 177 0 0
1 178 0 0
1 179 0 0
1 180 0 0
1 181 0 0
1 182 0 0
1 183 0 0
1 184 0 0
1 185 0 0
1 186 0 0
1 187 0 0
1 188 0 0
1 189 0 0
1 190 0 0
1 191 0 0
1 192 0 0
1 193 0 0
1 194 0 0
1 195 0 0
1 196 0 0
1 197 0 0
1 198 0 0
1 199 0 0
1 200 0 0
1 201 0 0
1 202 0 0
1 203 0 0
1 204 0 0
1 205 0 0
1 206 0 0
1 207 0 0
1 208 0 0
1 209 0 0
1 210 0 0
1 211 0 0
1 212 0 0
1 213 0 0
1 214 0 0
1 215 0 0
1 216 0 0
1 217 0 0
1 218 0 0
1 219 0 0
1 220 0 0
1 221 0 0
1 222 0 0
1 223 0 0
1 224 0 0
1 225 0 0
1 226 0 0
1 227 0 0
1 228 0 0
1 229 0 0
1 230 0 0
1 231 0 0
1 232 0 0
1 233 0 0
1 234 0 0
1 235 0 0
1 236 0 0
1 237 0 0
1 238 0 0
1 239 0 0
1 240 0 0
2 1 0 270
241
242
243
244
245
246
247
248
249
250
251
252
253
254
255
256
257
258
259
260
261
262
263
264
265
266
267
268
269
270
271
272
273
274
275
276
277
278
279
280
281
282
283
284
285
286
287
288
289
290
291
292
293
294
295
296
297
298
299
300
301
302
303
304
305
306
307
308
309
310
311
312
313
314
315
316
317
318
319
320
321
322
323
324
325
326
327
328
329
330
331
332
333
334
335
336
337
338
339
340
341
342
343
344
345
346
347
348
349
350
351
352
353
354
355
356
357
358
359
360
361
362
363
364
365
366
367
368
369
370
371
372
373
374
375
376
377
378
379
380
381
382
383
384
385
386
387
388
389
390
391
392
393
394
395
396
397
398
399
400
401
402
403
404
405
406
407
408
409
410
411
412
413
414
415
416
417
418
419
420
421
422
423
424
425
426
427
428
429
430
431
432
433
434
435
436
437
438
439
440
441
442
443
444
445
446
447
448
449
450
451
452
453
454
455
456
457
458
459
460
461
462
463
464
465
466
467
468
469
470
471
472
473
474
475
476
477
478
479
480
481
482
483
484
485
486
487
488
489
490
491
492
493
494
495
496
497
498
499
500
501
502
503
504
505
506
507
508
509
510
-0.3078296077815058 -0.9271763828282829 0
0.3078296077815054 0.9271763828282823 0
0.9271763828282829 -0.3078296077815059 0
-0.9291480164949555 0.3108885774438474 0
0.4362030369281159 -0.8704013776758368 0
-0.8659733036120847 -0.429995147704761 0
0.8703032110129089 0.4296603563207919 0
-0.4362030369281161 0.8704013776758366 0
0.06991087109285955 -0.9710736932840592 0
-0.6452917897726609 -0.7432458394284897 0
0.7360872445814433 -0.6372183425246043 0
-0.06991087109285951 0.9710736932840592 0
0.9710736932840592 0.06991087109285961 0
-0.730005029125065 0.6396314238256299 0
-0.9656061564965406 -0.06607608398830125 0
0.6354911649607944 0.7286393814778449 0
0.8510206944886946 -0.4790364131034923 0
0.2630326078622814 -0.9404924001438006 0
-0.9695599001759514 0.116900417013282 0
0.6029213025873398 -0.7682434577745944 0
0.1169004170132818 0.9695599001759514 0
0.9695599001759514 -0.1169004170132821 0
-0.479036413103492 -0.8510206944886946 0
0.7682434577745941 0.6029213025873406 0
-0.6033593316844738 0.7637274905532916 0
-0.8510206944886947 0.4790364131034924 0
-0.9356463521319969 -0.2565786324282661 0
0.4790364131034921 0.8510206944886949 0
-0.7682434577745942 -0.6029213025873404 0
-0.1169004170132824 -0.9695599001759512 0
-0.2630326078622818 0.940492400143801 0
0.9404924001438009 0.2630326078622817 0
-0.6744297829382652 0.6886435710340357 0
-0.5834206814291586 0.6749932050181165 0
0.8943168046978858 0.3595593871332357 0
0.8263345196356165 0.278636449562632 0
-0.896228490176288 0.395906854623535 0
-0.7889433889017461 0.3195185397689241 0
0.6768999418255669 -0.6947434123824052 0
0.5763581371204894 -0.642640442740589 0
-0.3595072081471878 0.9008976121526899 0
-0.2908062519368076 0.8195942907378606 0
-0.9038030332978233 -0.3636675762966144 0
-0.818939927115845 -0.3560713854610133 0
-0.0126172390306429 -0.9698983171299183 0
-0.05879801749338592 -0.8700631025995423 0
-0.7087420345716499 -0.6765001645031639 0
-0.5893333290386344 -0.6376890710914422 0
0.6958345115730727 0.6818538728134839 0
0.6090998491193234 0.6242712867026325 0
0.9698983171299183 -0.01261723903064287 0
0.8655711976055162 -0.05360689644686494 0
0.3595072081471878 -0.9008976121526902 0
0.2786364495626324 -0.8263345196356163 0
0.8962284901762878 -0.3959068546235354 0
0.7766654977332821 -0.3774084330859241 0
-0.9742638879515004 0.009867023362076366 0
-0.8741421462602111 -0.01580472192145584 0
0.01261723903064298 0.9698983171299183 0
0.05879801749338615 0.8700631025995423 0
-0.3959068546235354 -0.8962284901762877 0
0.3959068546235351 0.8962284901762877 0
-0.3561681235701764 -0.772399558484113 0
0.3872810193913921 0.7813324653343532 0
0.8043568970793238 0.52184750588851 0
-0.7899382880033066 0.5434264793212984 0
0.4950379321906768 -0.8271742644708813 0
0.9312448873337784 -0.2355068896404333 0
-0.2355068896404332 -0.9312448873337786 0
0.7739013000594621 -0.5747665577230801 0
0.2355068896404328 0.9312448873337784 0
0.1408095266758917 -0.95365218780637 0
0.9624246612939167 0.1459826155045544 0
-0.1459826155045543 0.9624246612939168 0
-0.4976428344675773 0.8361370915597948 0
-0.9517175198228057 0.2044649484840582 0
-0.8175444636287843 -0.5283873604527125 0
-0.9590224742169761 -0.1744856388968025 0
-0.5515769041536513 -0.8023038000982807 0
0.5536726524422146 0.8012605451785032 0
-0.8479795082525305 0.1197533452759214 0
-0.7469716299724927 0.01201824028104292 0
-0.7020917335188154 0.1425040934470718 0
-0.6109691679235456 0.03589934883118379 0
-0.5685536615846674 0.1671283552208308 0
-0.4722764088701891 0.06042938336118038 0
-0.423553091834296 0.19726306716055 0
-0.3236119040838794 0.0859421855968297 0
-0.271294307483866 0.2349031008520537 0
-0.1640275870834416 0.1181094733447449 0
-0.2227410622164419 -0.03390988945258806 0
-0.05643443749172394 -0.01073735743841 0
-0.003645500086091517 0.1513409704803751 0
0.1100981133453912 0.02454270084677247 0
0.05420483863516696 -0.1416466312241887 0
0.1630037150208296 0.1875732043683387 0
0.2445153287059385 -0.1038509697533973 0
0.1679953445875627 -0.2681230321985846 0
0.01968497603605284 -0.2986543108565174 0
0.05548793538501121 0.3098276080448584 0
-0.524733927280657 -0.06834586471510942 0
0.2136018250866103 0.3406221985435045 0
0.3212780293609443 0.2241873167488919 0
0.3289849398858802 -0.2465485159549979 0
0.2755044232408715 -0.3881438280501777 0
0.1073792373377051 0.4588379810038076 0
-0.3884867310843429 0.3291110938834977 0
0.4226891248617183 -0.3507391510276021 0
0.4774726064667156 -0.2259918118121292 0
0.3670373162542396 0.3703643119801007 0
0.4652838972414529 0.2539073277899657 0
-0.05049687868731709 0.426646265657939 0
0.428393457010299 0.1114945445983352 0
0.5590042472954093 0.142453909032401 0
0.006649740559965422 0.5754480331206202 0
-0.1414228983951447 0.5496080609733475 0
0.1691598077872866 0.6121098678599521 0
0.3942113787779454 -0.4961790387117238 0
0.2279315536729717 -0.5297818937556932 0
-0.7747227168270211 -0.1063316465898979 0
-0.08288831687993242 0.6762193363506885 0
0.5014596728984273 0.3828773897372216 0
0.4086718733648316 0.5167346843008539 0
-0.684076517046708 -0.5148450347314639 0
-0.5366868841081734 -0.5196905257068631 0
-0.594081845943229 -0.3946643772878544 0
-0.4585470363289791 -0.4059575701960562 0
-0.4027872407020565 -0.526355202152389 0
-0.3186964911410597 -0.4159221595150777 0
-0.2680772492668159 -0.5548416504112527 0
-0.3800992620425948 -0.2920045089812686 0
-0.7436238282646102 0.4283007846115189 0
0.6881122123706513 0.5218337298695936 0
0.5619638552841721 -0.3191617153988103 0
0.6141031947377849 -0.1959489708867847 0
-0.2335550539660547 -0.2957581670317835 0
0.5395619483492206 0.01130535014799695 0
0.662007138407153 0.0716556990092953 0
0.3238787566969303 -0.633264105449227 0
0.1848903019144679 -0.6607082219570044 0
0.08916928231133696 -0.5603742848528671 0
0.05321923895022102 -0.6818301006026535 0
-0.04196187120718366 -0.5973195413428691 0
-0.5477733569639665 0.7897896563432483 0
0.1753055461073858 0.9575176855809255 0
-0.1753055461073862 -0.9575176855809255 0
0.5531075081481771 -0.8010269890124647 0
0.9575176855809255 -0.1753055461073863 0
-0.2067813600400928 0.9502120473913191 0
0.9494521225598722 0.2084525496837307 0
0.2044649484840579 -0.9517175198228058 0
0.8175444636287837 -0.5283873604527133 0
-0.2303554836024445 0.6579639063437176 0
-0.276810804135954 0.5370820381565826 0
-0.3747512637182476 0.6261986584038035 0
0.8780736231985251 0.07781054537177258 0
0.2682041847462373 0.8334300312072352 0
-0.08031755946809782 0.8757878572417873 0
0.6672043134723884 -0.5699789059841538 0
-0.2614562456207258 -0.8316527747071256 0
0.8332469890667383 -0.2651749322566156 0
0.538176903632549 -0.5312299861511859 0
-0.6673737339244731 0.2808393693132446 0
-0.5967823309427178 0.4129277977523041 0
0.06755848012992099 -0.8830070000926034 0
-0.6754378553154244 0.5662636640670259 0
-0.5123454193581969 0.5473560047203773 0
0.7827418443999024 0.4041512984758042 0
0.7101450813770163 0.2777386177776904 0
0.2792215798657225 0.7045789110304062 0
-0.2757733696726187 -0.702506373820191 0
-0.1625382040381266 -0.7626550016936343 0
-0.5956758024569473 -0.7472061632968952 0
-0.8353457343012995 -0.4772468856289839 0
-0.7537058272870777 0.5967871892613372 0
0.5892085213787537 0.7605944650568525 0
-0.9306951297611173 0.2537352176218041 0
0.8400109140716993 0.4673183795980481 0
-0.9571321293133954 -0.1215843253536313 0
0.3924857019438163 -0.03090343013824249 0
0.05835931039209885 0.712847750549648 0
0.3958375642202289 -0.7655087245623716 0
-0.2333316681832682 0.4055103675681936 0
0.2612354327229365 0.4821930266951254 0
-0.1223330017731464 -0.1819450394063931 0
0.8790232501560632 -0.3461396286440148 0
-0.343655985644447 -0.8790510055650109 0
0.2929478818300003 -0.8991209127706161 0
-0.07343012489501959 -0.9427857094844241 0
-0.8444063294217097 0.421005465573571 0
0.8469002680901307 -0.4235770491061037 0
0.6149574242022706 -0.7173687237904121 0
0.3492576898055865 0.8790328026225545 0
-0.4206073167602949 -0.8458674051251756 0
-0.7120986451727119 -0.6190179082655419 0
0.7117678359478427 0.6238182383439035 0
-0.6617102144918575 -0.6957570198958222 0
-0.8947812612346012 -0.2993896219872585 0
-0.8814874956662274 0.3405914331101994 0
-0.6346478068284536 0.7273362502909716 0
0.07343012489501945 0.942785709484425 0
0.9424037447740483 -0.07298870303732212 0
-0.9434897481593278 0.06170326121802633 0
0.8988221439917534 0.2933932274765198 0
0.4173028658503751 0.8662270026731772 0
-0.2913947688553831 0.9006403485537984 0
0.3978839876935615 0.65055936999352 0
-0.1112180010231622 0.2743896309913608 0
-0.03411085847622344 -0.452409947396086 0
-0.4122788927851373 0.7673067144697604 0
0.7697164040185148 0.1549462155259851 0
0.2766290575645365 0.06884056111178308 0
0.4519563008240017 -0.6166599257236615 0
-0.5206011418480174 -0.2861907514782547 0
-0.6504367674832742 -0.2744476181781692 0
0.1243624535620954 -0.4162478828516543 0
-0.1810753616875644 -0.4283151745909519 0
-0.3789706658663254 -0.05025478765954336 0
0.6930801813946013 -0.2920981193142265 0
0.757711182288997 -0.1471444373951353 0
0.5511299876513317 0.5093062891171752 0
-0.7948762830298421 -0.2334189213647025 0
-0.4763402824335491 -0.6205239931924023 0
-0.6540728119164272 -0.08794911050379908 0
-0.3004888369473814 -0.1698159808723924 0
-0.3935258567397437 0.4752287082968632 0
-0.5208672968990029 0.289502640276846 0
0.6406519708690285 -0.426762649728071 0
0.1650583658681138 0.7656873269339864 0
0.6362306722492519 0.3942496512406274 0
-0.1748460538143675 0.7686427735643935 0
0.650010503158264 -0.0655483126879224 0
0.5222644103980274 0.6999244346363208 0
-0.4488977172980211 -0.1790034492697897 0
0.7638483414461616 0.006352135562855048 0
-0.8622776705173013 0.2421729700905083 0
-0.7875878901376954 -0.4449306127848943 0
-0.5842640099689418 -0.1816938907611091 0
0.1399093156333757 -0.7683510254999795 0
-0.1726284020865458 -0.6407517681945143 0
-0.3678950996686298 -0.638811487707036 0
0.3015625365069461 0.5944891164825336 0
-0.04417892045538255 0.780712164061212 0
0.5104550152079568 -0.1087051130135401 0
-0.4824015270048008 0.4108252489859777 0
-0.3018691826101689 0.7279337911250043 0
-0.4755520061481951 0.6790019195158059 0
0.5902351455642304 0.2712867562812691 0
-0.4795791588981719 -0.7394777716855049 0
0.02945733759142774 -0.7837941354862357 0
0.5271680241847405 -0.734088932582139 0
-0.1548479206869085 -0.8950684373679116 0
0.8938936552608506 -0.1523754031281485 0
0.1981941728825943 -0.8889536522531132 0
0.7676983583345385 -0.4828453384547911 0
0.1561719351091224 0.895755520473692 0
-0.7007483226965711 -0.1813805804789099 0
0.5118566639067927 -0.4232485920546832 0
-0.05678225636381236 -0.7192991219443122 0
-0.1395707485448666 -0.5347276163871347 0
0.2707210406191887 -0.7239607258540014 0
-0.1145511534848734 -0.3261263168433157 0
-0.8852388802840078 -0.1336959912564957 0
0.4931532795992277 0.6031652840814732 0
0.8893308392631427 0.2031791729982109 0
-0.2075944596402264 0.8882563398466965 0
-0.7128408356000124 -0.3664520441441652 0
-0.7737332070229733 0.220957663579134 0
0.3890961365919406 -0.1451435027041586 0
0.6636415375323148 0.1801276203829841 0
$EndNodes
$Elements
241 1018 1 1018
1 1 1 1
1 1 2 
1 2 1 1
2 2 3 
1 3 1 1
3 3 4 
1 4 1 1
4 4 5 
1 5 1 1
5 5 6 
1 6 1 1
6 6 7 
1 7 1 1
7 7 8 
1 8 1 1
8 8 9 
1 9 1 1
9 9 10 
1 10 1 1
10 10 11 
1 11 1 1
11 11 12 
1 12 1 1
12 12 13 
1 13 1 1
13 13 14 
1 14 1 1
14 14 15 
1 15 1 1
15 15 16 
1 16 1 1
16 16 17 
1 17 1 1
17 17 18 
1 18 1 1
18 18 19 
1 19 1 1
19 19 20 
1 20 1 1
20 20 21 
1 21 1 1
21 21 22 
1 22 1 1
22 22 23 
1 23 1 1
23 23 24 
1 24 1 1
24 24 25 
1 25 1 1
25 25 26 
1 26 1 1
26 26 27 
1 27 1 1
27 27 28 
1 28 1 1
28 28 29 
1 29 1 1
29 29 30 
1 30 1 1
30 30 31 
1 31 1 1
31 31 32 
1 32 1 1
32 32 33 
1 33 1 1
33 33 34 
1 34 1 1
34 34 35 
1 35 1 1
35 35 36 
1 36 1 1
36 36 37 
1 37 1 1
37 37 38 
1 38 1 1
38 38 39 
1 39 1 1
39 39 40 
1 40 1 1
40 40 41 
1 41 1 1
41 41 42 
1 42 1 1
42 42 43 
1 43 1 1
43 43 44 
1 44 1 1
44 44 45 
1 45 1 1
45 45 46 
1 46 1 1
46 46 47 
1 47 1 1
47 47 48 
1 48 1 1
48 48 49 
1 49 1 1
49 49 50 
1 50 1 1
50 50 51 
1 51 1 1
51 51 52 
1 52 1 1
52 52 53 
1 53 1 1
53 53 54 
1 54 1 1
54 54 55 
1 55 1 1
55 55 56 
1 56 1 1
56 56 57 
1 57 1 1
57 57 58 
1 58 1 1
58 58 59 
1 59 1 1
59 59 60 
1 60 1 1
60 60 61 
1 61 1 1
61 61 62 
1 62 1 1
62 62 63 
1 63 1 1
63 63 64 
1 64 1 1
64 64 65 
1 65 1 1
65 65 66 
1 66 1 1
66 66 67 
1 67 1 1
67 67 68 
1 68 1 1
68 68 69 
1 69 1 1
69 69 70 
1 70 1 1
70 70 71 
1 71 1 1
71 71 72 
1 72 1 1
72 72 73 
1 73 1 1
73 73 74 
1 74 1 1
74 74 75 
1 75 1 1
75 75 76 
1 76 1 1
76 76 77 
1 77 1 1
77 77 78 
1 78 1 1
78 78 79 
1 79 1 1
79 79 80 
1 80 1 1
80 80 81 
1 81 1 1
81 81 82 
1 82 1 1
82 82 83 
1 83 1 1
83 83 84 
1 84 1 1
84 84 85 
1 85 1 1
85 85 86 
1 86 1 1
86 86 87 
1 87 1 1
87 87 88 
1 88 1 1
88 88 89 
1 89 1 1
89 89 90 
1 90 1 1
90 90 91 
1 91 1 1
91 91 92 
1 92 1 1
92 92 93 
1 93 1 1
93 93 94 
1 94 1 1
94 94 95 
1 95 1 1
95 95 96 
1 96 1 1
96 96 97 
1 97 1 1
97 97 98 
1 98 1 1
98 98 99 
1 99 1 1
99 99 100 
1 100 1 1
100 100 101 
1 101 1 1
101 101 102 
1 102 1 1
102 102 103 
1 103 1 1
103 103 104 
1 104 1 1
104 104 105 
1 105 1 1
105 105 106 
1 106 1 1
106 106 107 
1 107 1 1
107 107 108 
1 108 1 1
108 108 109 
1 109 1 1
109 109 110 
1 110 1 1
110 110 111 
1 111 1 1
111 111 112 
1 112 1 1
112 112 113 
1 113 1 1
113 113 114 
1 114 1 1
114 114 115 
1 115 1 1
115 115 116 
1 116 1 1
116 116 117 
1 117 1 1
117 117 118 
1 118 1 1
118 118 119 
1 119 1 1
119 119 120 
1 120 1 1
120 120 121 
1 121 1 1
121 121 122 
1 122 1 1
122 122 123 
1 123 1 1
123 123 124 
1 124 1 1
124 124 125 
1 125 1 1
125 125 126 
1 126 1 1
126 126 127 
1 127 1 1
127 127 128 
1 128 1 1
128 128 129 
1 129 1 1
129 129 130 
1 130 1 1
130 130 131 
1 131 1 1
131 131 132 
1 132 1 1
132 132 133 
1 133 1 1
133 133 134 
1 134 1 1
134 134 135 
1 135 1 1
135 135 136 
1 136 1 1
136 136 137 
1 137 1 1
137 137 138 
1 138 1 1
138 138 139 
1 139 1 1
139 139 140 
1 140 1 1
140 140 141 
1 141 1 1
141 141 142 
1 142 1 1
142 142 143 
1 143 1 1
143 143 144 
1 144 1 1
144 144 145 
1 145 1 1
145 145 146 
1 146 1 1
146 146 147 
1 147 1 1
147 147 148 
1 148 1 1
148 148 149 
1 149 1 1
149 149 150 
1 150 1 1
150 150 151 
1 151 1 1
151 151 152 
1 152 1 1
152 152 153 
1 153 1 1
153 153 154 
1 154 1 1
154 154 155 
1 155 1 1
155 155 156 
1 156 1 1
156 156 157 
1 157 1 1
157 157 158 
1 158 1 1
158 158 159 
1 159 1 1
159 159 160 
1 160 1 1
160 160 161 
1 161 1 1
161 161 162 
1 162 1 1
162 162 163 
1 163 1 1
163 163 164 
1 164 1 1
164 164 165 
1 165 1 1
165 165 166 
1 166 1 1
166 166 167 
1 167 1 1
167 167 168 
1 168 1 1
168 168 169 
1 169 1 1
169 169 170 
1 170 1 1
170 170 171 
1 171 1 1
171 171 172 
1 172 1 1
172 172 173 
1 173 1 1
173 173 174 
1 174 1 1
174 174 175 
1 175 1 1
175 175 176 
1 176 1 1
176 176 177 
1 177 1 1
177 177 178 
1 178 1 1
178 178 179 
1 179 1 1
179 179 180 
1 180 1 1
180 180 181 
1 181 1 1
181 181 182 
1 182 1 1
182 182 183 
1 183 1 1
183 183 184 
1 184 1 1
184 184 185 
1 185 1 1
185 185 186 
1 186 1 1
186 186 187 
1 187 1 1
187 187 188 
1 188 1 1
188 188 189 
1 189 1 1
189 189 190 
1 190 1 1
190 190 191 
1 191 1 1
191 191 192 
1 192 1 1
192 192 193 
1 193 1 1
193 193 194 
1 194 1 1
194 194 195 
1 195 1 1
195 195 196 
1 196 1 1
196 196 197 
1 197 1 1
197 197 198 
1 198 1 1
198 198 199 
1 199 1 1
199 199 200 
1 200 1 1
200 200 201 
1 201 1 1
201 201 202 
1 202 1 1
202 202 203 
1 203 1 1
203 203 204 
1 204 1 1
204 204 205 
1 205 1 1
205 205 206 
1 206 1 1
206 206 207 
1 207 1 1
207 207 208 
1 208 1 1
208 208 209 
1 209 1 1
209 209 210 
1 210 1 1
210 210 211 
1 211 1 1
211 211 212 
1 212 1 1
212 212 213 
1 213 1 1
213 213 214 
1 214 1 1
214 214 215 
1 215 1 1
215 215 216 
1 216 1 1
216 216 217 
1 217 1 1
217 217 218 
1 218 1 1
218 218 219 
1 219 1 1
219 219 220 
1 220 1 1
220 220 221 
1 221 1 1
221 221 222 
1 222 1 1
222 222 223 
1 223 1 1
223 223 224 
1 224 1 1
224 224 225 
1 225 1 1
225 225 226 
1 226 1 1
226 226 227 
1 227 1 1
227 227 228 
1 228 1 1
228 228 229 
1 229 1 1
229 229 230 
1 230 1 1
230 230 231 
1 231 1 1
231 231 232 
1 232 1 1
232 232 233 
1 233 1 1
233 233 234 
1 234 1 1
234 234 235 
1 235 1 1
235 235 236 
1 236 1 1
236 236 237 
1 237 1 1
237 237 238 
1 238 1 1
238 238 239 
1 239 1 1
239 239 240 
1 240 1 1
240 240 1 
2 1 2 778
241 459 468 296 
242 356 423 352 
243 372 406 306 
244 373 408 305 
245 254 406 273 
246 247 408 275 
247 394 466 423 
248 407 466 395 
249 304 473 268 
250 273 406 274 
251 275 408 276 
252 292 475 460 
253 423 466 347 
254 413 489 288 
255 325 403 323 
256 461 470 373 
257 268 473 320 
258 395 487 407 
259 374 468 459 
260 462 503 267 
261 394 423 356 
262 460 475 472 
263 279 399 280 
264 281 450 282 
265 291 396 292 
266 285 405 286 
267 299 398 300 
268 293 422 294 
269 404 407 406 
270 325 467 403 
271 421 469 300 
272 252 398 299 
273 251 399 279 
274 248 450 281 
275 253 396 291 
276 249 405 285 
277 245 422 293 
278 245 293 202 
279 255 297 127 
280 251 279 217 
281 246 283 142 
282 249 285 187 
283 248 281 82 
284 252 299 67 
285 253 291 7 
286 254 273 97 
287 247 275 22 
288 256 289 37 
289 469 496 300 
290 422 453 379 
291 267 503 318 
292 358 453 402 
293 403 508 323 
294 362 470 461 
295 420 452 337 
296 471 483 398 
297 402 498 358 
298 404 406 372 
299 337 452 334 
300 447 473 304 
301 468 495 296 
302 423 448 352 
303 384 450 315 
304 438 462 267 
305 406 415 306 
306 408 418 305 
307 288 489 463 
308 274 487 384 
309 361 483 471 
310 384 487 450 
311 274 384 265 
312 286 499 412 
313 330 448 329 
314 378 475 451 
315 363 424 350 
316 259 321 316 
317 269 364 317 
318 266 372 306 
319 264 373 305 
320 331 465 425 
321 339 456 338 
322 460 493 292 
323 425 465 376 
324 397 410 304 
325 399 402 280 
326 400 411 303 
327 379 501 422 
328 284 507 462 
329 395 466 394 
330 404 485 407 
331 410 469 357 
332 479 494 294 
333 403 467 404 
334 355 421 361 
335 412 492 286 
336 350 424 342 
337 422 501 294 
338 329 448 423 
339 373 470 408 
340 346 424 357 
341 294 501 479 
342 422 491 453 
343 333 448 330 
344 462 507 455 
345 364 477 317 
346 321 476 316 
347 357 421 355 
348 345 348 344 
349 342 424 346 
350 351 362 350 
351 345 358 348 
352 451 475 396 
353 357 482 410 
354 449 456 339 
355 338 345 344 
356 355 361 356 
357 342 346 340 
358 338 344 337 
359 343 350 342 
360 336 342 340 
361 370 481 411 
362 300 483 421 
363 401 459 296 
364 348 374 349 
365 346 357 355 
366 346 355 352 
367 359 379 358 
368 364 507 477 
369 335 338 337 
370 343 351 350 
371 362 363 350 
372 361 393 356 
373 377 378 354 
374 336 340 333 
375 366 507 364 
376 374 375 349 
377 334 452 336 
378 481 489 303 
379 355 356 352 
380 331 425 332 
381 336 343 342 
382 374 459 375 
383 449 502 457 
384 353 354 351 
385 335 337 334 
386 359 380 379 
387 348 349 344 
388 335 339 338 
389 337 509 420 
390 480 499 383 
391 393 395 394 
392 346 352 340 
393 490 499 286 
394 345 359 358 
395 334 336 333 
396 298 322 321 
397 278 403 372 
398 288 365 364 
399 408 409 276 
400 406 407 274 
401 329 347 327 
402 353 377 354 
403 381 382 380 
404 457 500 449 
405 332 425 335 
406 329 423 347 
407 379 453 358 
408 451 510 378 
409 358 498 348 
410 343 353 351 
411 472 475 378 
412 304 433 397 
413 303 427 400 
414 296 426 401 
415 332 335 334 
416 338 456 345 
417 357 469 421 
418 454 455 366 
419 363 482 424 
420 393 394 356 
421 340 448 333 
422 335 425 339 
423 407 487 274 
424 410 447 304 
425 420 484 377 
426 400 412 411 
427 381 383 382 
428 286 429 285 
429 292 442 291 
430 300 441 299 
431 274 440 273 
432 280 432 279 
433 294 428 293 
434 282 446 281 
435 276 444 275 
436 411 480 370 
437 298 360 322 
438 347 467 327 
439 288 437 413 
440 332 334 333 
441 359 381 380 
442 352 448 340 
443 424 482 357 
444 368 370 369 
445 290 461 373 
446 396 475 292 
447 411 481 303 
448 360 464 322 
449 332 333 330 
450 365 368 367 
451 353 420 377 
452 365 366 364 
453 403 404 372 
454 322 323 321 
455 324 341 326 
456 402 453 280 
457 413 437 250 
458 398 483 300 
459 412 499 480 
460 450 486 282 
461 405 490 286 
462 421 483 361 
463 447 482 363 
464 328 329 327 
465 328 331 330 
466 265 440 274 
467 268 445 304 
468 377 472 378 
469 269 317 149 
470 264 305 29 
471 268 320 44 
472 259 316 119 
473 267 318 134 
474 263 319 164 
475 266 306 104 
476 401 460 459 
477 420 509 484 
478 336 452 343 
479 326 327 325 
480 344 509 337 
481 381 449 383 
482 324 325 323 
483 368 369 367 
484 409 451 276 
485 369 371 367 
486 367 454 366 
487 351 488 362 
488 372 430 278 
489 364 435 288 
490 373 436 290 
491 321 443 298 
492 322 464 324 
493 365 367 366 
494 322 324 323 
495 328 330 329 
496 331 332 330 
497 370 457 369 
498 345 456 359 
499 368 481 370 
500 326 328 327 
501 369 376 371 
502 324 326 325 
503 339 502 449 
504 288 463 365 
505 247 418 408 
506 254 415 406 
507 343 452 353 
508 328 458 331 
509 362 461 363 
510 341 458 326 
511 282 486 471 
512 371 454 367 
513 353 452 420 
514 359 456 381 
515 365 463 368 
516 449 500 383 
517 259 443 321 
518 264 436 373 
519 269 435 364 
520 266 430 372 
521 399 468 402 
522 323 508 321 
523 324 464 341 
524 369 457 376 
525 463 489 481 
526 381 456 449 
527 319 489 413 
528 326 458 328 
529 459 460 375 
530 407 485 466 
531 361 471 393 
532 458 474 465 
533 471 486 393 
534 321 508 476 
535 378 510 354 
536 327 467 325 
537 397 469 410 
538 362 488 470 
539 458 465 331 
540 256 473 290 
541 246 477 284 
542 376 502 425 
543 341 474 458 
544 376 465 371 
545 408 470 409 
546 244 476 439 
547 363 504 447 
548 354 488 351 
549 382 479 380 
550 347 485 467 
551 284 462 438 
552 416 473 256 
553 417 476 244 
554 414 477 246 
555 455 497 462 
556 360 503 462 
557 479 501 380 
558 465 474 371 
559 393 486 395 
560 425 502 339 
561 450 487 395 
562 348 498 374 
563 255 503 298 
564 400 492 412 
565 377 484 472 
566 398 506 471 
567 455 507 366 
568 380 501 379 
569 383 499 382 
570 401 493 460 
571 395 486 450 
572 228 431 227 
573 183 429 182 
574 168 434 167 
575 3 442 2 
576 123 443 122 
577 63 441 62 
578 93 440 92 
579 33 436 32 
580 138 438 137 
581 198 428 197 
582 78 446 77 
583 153 435 152 
584 18 444 17 
585 232 426 231 
586 157 437 156 
587 108 430 107 
588 48 445 47 
589 172 427 171 
590 112 439 111 
591 52 433 51 
592 213 432 212 
593 454 478 455 
594 439 476 278 
595 298 503 360 
596 460 472 375 
597 375 484 349 
598 383 500 480 
599 453 491 280 
600 412 480 411 
601 278 508 403 
602 479 490 405 
603 71 314 70 
604 11 313 10 
605 56 311 55 
606 86 315 85 
607 236 308 235 
608 176 309 175 
609 221 310 220 
610 191 312 190 
611 206 307 205 
612 341 478 474 
613 410 482 447 
614 434 489 263 
615 447 504 473 
616 371 474 454 
617 255 298 297 
618 246 284 283 
619 256 290 289 
620 290 504 461 
621 313 505 396 
622 464 478 341 
623 474 478 454 
624 484 509 349 
625 399 495 468 
626 205 307 245 
627 220 310 251 
628 190 312 249 
629 175 309 241 
630 235 308 243 
631 10 313 253 
632 70 314 252 
633 85 315 248 
634 55 311 242 
635 307 491 422 
636 309 492 400 
637 312 494 405 
638 308 493 401 
639 310 495 399 
640 311 496 397 
641 446 506 271 
642 349 509 344 
643 396 505 451 
644 419 503 255 
645 382 490 479 
646 303 489 434 
647 370 500 457 
648 360 497 464 
649 263 489 319 
650 432 491 260 
651 442 493 262 
652 428 494 258 
653 441 496 261 
654 429 492 270 
655 431 495 257 
656 467 485 404 
657 451 505 276 
658 468 498 402 
659 463 481 368 
660 461 504 363 
661 397 496 469 
662 165 263 164 
663 45 268 44 
664 150 269 149 
665 120 259 119 
666 30 264 29 
667 135 267 134 
668 105 266 104 
669 42 320 41 
670 225 392 224 
671 75 389 74 
672 102 306 101 
673 149 317 148 
674 195 391 194 
675 15 390 14 
676 117 316 116 
677 134 318 133 
678 132 318 131 
679 60 385 59 
680 27 305 26 
681 29 305 28 
682 58 385 57 
683 208 387 207 
684 210 387 209 
685 162 319 161 
686 119 316 118 
687 73 314 72 
688 178 386 177 
689 238 388 237 
690 104 306 103 
691 180 386 179 
692 240 388 239 
693 147 317 146 
694 13 313 12 
695 164 319 163 
696 88 315 87 
697 193 391 192 
698 90 384 89 
699 44 320 43 
700 223 392 222 
701 282 506 446 
702 472 484 375 
703 313 396 253 
704 310 399 251 
705 312 405 249 
706 314 398 252 
707 311 397 242 
708 315 450 248 
709 307 422 245 
710 309 400 241 
711 308 401 243 
712 314 506 398 
713 374 498 468 
714 473 504 290 
715 466 485 347 
716 470 488 409 
717 280 491 432 
718 292 493 442 
719 294 494 428 
720 300 496 441 
721 286 492 429 
722 296 495 431 
723 354 510 488 
724 457 502 376 
725 462 497 360 
726 488 510 409 
727 471 506 282 
728 409 510 451 
729 478 497 455 
730 476 508 278 
731 464 497 478 
732 444 505 272 
733 2 262 1 
734 227 257 226 
735 212 260 211 
736 197 258 196 
737 62 261 61 
738 32 264 31 
739 182 270 181 
740 107 266 106 
741 122 259 121 
742 167 263 166 
743 17 272 16 
744 137 267 136 
745 77 271 76 
746 47 268 46 
747 152 269 151 
748 92 265 91 
749 284 438 283 
750 298 443 297 
751 290 436 289 
752 262 493 388 
753 260 491 387 
754 270 492 386 
755 261 496 385 
756 258 494 391 
757 257 495 392 
758 405 494 479 
759 271 506 389 
760 387 491 307 
761 388 493 308 
762 385 496 311 
763 386 492 309 
764 391 494 312 
765 392 495 310 
766 276 505 444 
767 390 505 313 
768 480 500 370 
769 397 433 242 
770 400 427 241 
771 401 426 243 
772 320 473 416 
773 477 507 284 
774 316 476 417 
775 317 477 414 
776 272 505 390 
777 382 499 490 
778 430 439 278 
779 435 437 288 
780 389 506 314 
781 304 445 433 
782 303 434 427 
783 296 431 426 
784 229 295 228 
785 199 293 198 
786 156 287 155 
787 128 255 127 
788 169 301 168 
789 109 277 108 
790 184 285 183 
791 188 249 187 
792 81 281 80 
793 171 301 170 
794 34 289 33 
795 126 297 125 
796 83 248 82 
797 139 283 138 
798 40 256 39 
799 68 252 67 
800 160 250 159 
801 190 249 189 
802 201 293 200 
803 231 295 230 
804 51 302 50 
805 98 254 97 
806 8 253 7 
807 25 247 24 
808 100 254 99 
809 220 251 219 
810 94 273 93 
811 216 279 215 
812 6 291 5 
813 218 251 217 
814 141 283 140 
815 158 250 157 
816 19 275 18 
817 53 242 52 
818 115 244 114 
819 96 273 95 
820 49 302 48 
821 85 248 84 
822 214 279 213 
823 21 275 20 
824 70 252 69 
825 145 246 144 
826 130 255 129 
827 66 299 65 
828 10 253 9 
829 113 244 112 
830 143 246 142 
831 154 287 153 
832 23 247 22 
833 64 299 63 
834 124 297 123 
835 4 291 3 
836 203 245 202 
837 173 241 172 
838 233 243 232 
839 186 285 185 
840 79 281 78 
841 55 242 54 
842 111 277 110 
843 38 256 37 
844 205 245 204 
845 235 243 234 
846 175 241 174 
847 36 289 35 
848 318 503 419 
849 427 434 301 
850 426 431 295 
851 277 439 430 
852 433 445 302 
853 287 437 435 
854 182 429 270 
855 227 431 257 
856 2 442 262 
857 62 441 261 
858 122 443 259 
859 32 436 264 
860 92 440 265 
861 167 434 263 
862 152 435 269 
863 137 438 267 
864 197 428 258 
865 77 446 271 
866 17 444 272 
867 212 432 260 
868 107 430 266 
869 47 445 268 
870 295 431 228 
871 285 429 183 
872 301 434 168 
873 291 442 3 
874 297 443 123 
875 283 438 138 
876 299 441 63 
877 289 436 33 
878 273 440 93 
879 281 446 78 
880 293 428 198 
881 275 444 18 
882 287 435 153 
883 231 426 295 
884 156 437 287 
885 171 427 301 
886 111 439 277 
887 250 437 157 
888 277 430 108 
889 243 426 232 
890 51 433 302 
891 302 445 48 
892 241 427 172 
893 244 439 112 
894 242 433 52 
895 279 432 213 
896 320 416 41 
897 271 389 75 
898 272 390 15 
899 318 419 131 
900 305 418 26 
901 257 392 225 
902 262 388 240 
903 319 413 161 
904 261 385 60 
905 258 391 195 
906 317 414 146 
907 316 417 116 
908 270 386 180 
909 260 387 210 
910 306 415 101 
911 265 384 90 
912 88 384 315 
913 57 385 311 
914 177 386 309 
915 207 387 307 
916 237 388 308 
917 73 389 314 
918 13 390 313 
919 192 391 312 
920 222 392 310 
921 72 314 71 
922 89 384 88 
923 133 318 132 
924 43 320 42 
925 209 387 208 
926 59 385 58 
927 103 306 102 
928 28 305 27 
929 87 315 86 
930 12 313 11 
931 14 390 13 
932 57 311 56 
933 192 312 191 
934 179 386 178 
935 222 310 221 
936 148 317 147 
937 224 392 223 
938 118 316 117 
939 239 388 238 
940 194 391 193 
941 74 389 73 
942 177 309 176 
943 163 319 162 
944 207 307 206 
945 237 308 236 
946 1 262 240 
947 31 264 30 
948 41 416 40 
949 61 261 60 
950 166 263 165 
951 211 260 210 
952 16 272 15 
953 46 268 45 
954 196 258 195 
955 26 418 25 
956 181 270 180 
957 146 414 145 
958 91 265 90 
959 106 266 105 
960 161 413 160 
961 136 267 135 
962 121 259 120 
963 151 269 150 
964 131 419 130 
965 226 257 225 
966 101 415 100 
967 76 271 75 
968 116 417 115 
969 100 415 254 
970 115 417 244 
971 160 413 250 
972 40 416 256 
973 145 414 246 
974 25 418 247 
975 130 419 255 
976 129 255 128 
977 39 256 38 
978 114 244 113 
979 125 297 124 
980 84 248 83 
981 99 254 98 
982 54 242 53 
983 20 275 19 
984 80 281 79 
985 50 302 49 
986 5 291 4 
987 9 253 8 
988 65 299 64 
989 215 279 214 
990 24 247 23 
991 69 252 68 
992 35 289 34 
993 144 246 143 
994 95 273 94 
995 219 251 218 
996 185 285 184 
997 110 277 109 
998 189 249 188 
999 140 283 139 
1000 159 250 158 
1001 155 287 154 
1002 170 301 169 
1003 200 293 199 
1004 230 295 229 
1005 174 241 173 
1006 204 245 203 
1007 234 243 233 
1008 7 291 6 
1009 22 275 21 
1010 37 289 36 
1011 67 299 66 
1012 82 281 81 
1013 97 273 96 
1014 127 297 126 
1015 142 283 141 
1016 187 285 186 
1017 202 293 201 
1018 217 279 216 
$EndElements
