$MeshFormat
4.1 0 8
$EndMeshFormat
$PhysicalNames
18
1 1 "Electrode1"
1 2 "Electrode2"
1 3 "Electrode3"
1 4 "Electrode4"
1 5 "Electrode5"
1 6 "Electrode6"
1 7 "Electrode7"
1 8 "Electrode8"
1 9 "Electrode9"
1 10 "Electrode10"
1 11 "Electrode11"
1 12 "Electrode12"
1 13 "Electrode13"
1 14 "Electrode14"
1 15 "Electrode15"
1 16 "Electrode16"
1 17 "No-Electrode"
2 1 "domain"
$EndPhysicalNames
$Entities
240 240 1 0
1 0.9945218953682733 -0.1045284632676535 0 0 
2 0.9966848880445061 -0.08135867466785827 0 0 
3 0.9983081582712682 -0.05814482891047582 0 0 
4 0.9993908270190958 -0.03489949670250096 0 0 
5 0.9999323080037622 -0.01163526580139701 0 0 
6 0.9999323080037622 0.01163526580139701 0 0 
7 0.9993908270190958 0.03489949670250098 0 0 
8 0.9983081582712682 0.05814482891047584 0 0 
9 0.9966848880445061 0.08135867466785829 0 0 
10 0.9945218953682733 0.1045284632676535 0 0 
11 0.9908658973868822 0.134850930273723 0 0 
12 0.9862856015372314 0.1650476058606777 0 0 
13 0.9807852804032304 0.1950903220161282 0 0 
14 0.9743700647852352 0.224951054343865 0 0 
15 0.9670459389139431 0.2546019482055276 0 0 
16 0.9588197348681931 0.2840153447039226 0 0 
17 0.9519513853021931 0.306249179625408 0 0 
18 0.9445675372676048 0.328317175213561 0 0 
19 0.9366721892483976 0.3502073812594675 0 0 
20 0.9282696167148067 0.3719079438303866 0 0 
21 0.9193643698080891 0.3934071116888651 0 0 
22 0.9099612708765432 0.4146932426562391 0 0 
23 0.9000654118641211 0.4357548099170794 0 0 
24 0.8896821515530517 0.4565804082611655 0 0 
25 0.8788171126619654 0.4771587602596084 0 0 
26 0.8638355052043958 0.5037739770455262 0 0 
27 0.848048096156426 0.5299192642332049 0 0 
28 0.8314696123025452 0.5555702330196022 0 0 
29 0.8141155183563192 0.5807029557109398 0 0 
30 0.7960020025346221 0.6052939880428944 0 0 
31 0.7771459614569708 0.6293203910498375 0 0 
32 0.762291913608418 0.6472333724764324 0 0 
33 0.747025071240996 0.6647958656139378 0 0 
34 0.7313537016191705 0.6819983600624985 0 0 
35 0.7152862910660515 0.6988315403679 0 0 
36 0.6988315403679 0.7152862910660515 0 0 
37 0.6819983600624985 0.7313537016191705 0 0 
38 0.6647958656139379 0.7470250712409959 0 0 
39 0.6472333724764324 0.7622919136084179 0 0 
40 0.6293203910498375 0.7771459614569708 0 0 
41 0.6052939880428944 0.7960020025346221 0 0 
42 0.5807029557109399 0.8141155183563191 0 0 
43 0.5555702330196023 0.8314696123025452 0 0 
44 0.5299192642332049 0.848048096156426 0 0 
45 0.5037739770455263 0.8638355052043957 0 0 
46 0.4771587602596084 0.8788171126619654 0 0 
47 0.4565804082611656 0.8896821515530517 0 0 
48 0.4357548099170794 0.9000654118641211 0 0 
49 0.4146932426562391 0.9099612708765432 0 0 
50 0.3934071116888652 0.919364369808089 0 0 
51 0.3719079438303866 0.9282696167148067 0 0 
52 0.3502073812594674 0.9366721892483976 0 0 
53 0.3283171752135611 0.9445675372676047 0 0 
54 0.3062491796254081 0.9519513853021931 0 0 
55 0.2840153447039228 0.9588197348681931 0 0 
56 0.2546019482055276 0.9670459389139431 0 0 
57 0.2249510543438651 0.9743700647852352 0 0 
58 0.1950903220161283 0.9807852804032304 0 0 
59 0.1650476058606776 0.9862856015372314 0 0 
60 0.1348509302737231 0.9908658973868822 0 0 
61 0.1045284632676535 0.9945218953682733 0 0 
62 0.0813586746678583 0.9966848880445061 0 0 
63 0.0581448289104759 0.9983081582712682 0 0 
64 0.03489949670250108 0.9993908270190958 0 0 
65 0.01163526580139717 0.9999323080037622 0 0 
66 -0.01163526580139682 0.9999323080037622 0 0 
67 -0.03489949670250073 0.9993908270190958 0 0 
68 -0.05814482891047577 0.9983081582712682 0 0 
69 -0.08135867466785818 0.9966848880445061 0 0 
70 -0.1045284632676533 0.9945218953682734 0 0 
71 -0.1348509302737227 0.9908658973868824 0 0 
72 -0.1650476058606777 0.9862856015372314 0 0 
73 -0.1950903220161282 0.9807852804032304 0 0 
74 -0.2249510543438648 0.9743700647852352 0 0 
75 -0.2546019482055277 0.9670459389139431 0 0 
76 -0.2840153447039226 0.9588197348681931 0 0 
77 -0.306249179625408 0.9519513853021931 0 0 
78 -0.328317175213561 0.9445675372676048 0 0 
79 -0.3502073812594675 0.9366721892483976 0 0 
80 -0.3719079438303867 0.9282696167148066 0 0 
81 -0.3934071116888649 0.9193643698080892 0 0 
82 -0.4146932426562388 0.9099612708765433 0 0 
83 -0.4357548099170791 0.9000654118641213 0 0 
84 -0.4565804082611655 0.8896821515530519 0 0 
85 -0.4771587602596085 0.8788171126619654 0 0 
86 -0.5037739770455263 0.8638355052043958 0 0 
87 -0.5299192642332048 0.8480480961564261 0 0 
88 -0.555570233019602 0.8314696123025453 0 0 
89 -0.5807029557109398 0.8141155183563192 0 0 
90 -0.6052939880428942 0.7960020025346222 0 0 
91 -0.6293203910498373 0.777145961456971 0 0 
92 -0.6472333724764323 0.762291913608418 0 0 
93 -0.6647958656139379 0.7470250712409959 0 0 
94 -0.6819983600624984 0.7313537016191706 0 0 
95 -0.6988315403679001 0.7152862910660515 0 0 
96 -0.7152862910660513 0.6988315403679002 0 0 
97 -0.7313537016191705 0.6819983600624986 0 0 
98 -0.7470250712409957 0.6647958656139381 0 0 
99 -0.7622919136084179 0.6472333724764325 0 0 
100 -0.7771459614569709 0.6293203910498374 0 0 
101 -0.7960020025346219 0.6052939880428945 0 0 
102 -0.8141155183563191 0.5807029557109399 0 0 
103 -0.8314696123025453 0.5555702330196022 0 0 
104 -0.848048096156426 0.529919264233205 0 0 
105 -0.8638355052043957 0.5037739770455264 0 0 
106 -0.8788171126619653 0.4771587602596086 0 0 
107 -0.8896821515530517 0.4565804082611656 0 0 
108 -0.9000654118641211 0.4357548099170793 0 0 
109 -0.9099612708765431 0.4146932426562392 0 0 
110 -0.9193643698080891 0.3934071116888651 0 0 
111 -0.9282696167148066 0.3719079438303868 0 0 
112 -0.9366721892483976 0.3502073812594675 0 0 
113 -0.9445675372676047 0.3283171752135614 0 0 
114 -0.9519513853021931 0.3062491796254082 0 0 
115 -0.9588197348681931 0.2840153447039226 0 0 
116 -0.9670459389139431 0.2546019482055277 0 0 
117 -0.9743700647852351 0.2249510543438652 0 0 
118 -0.9807852804032304 0.1950903220161286 0 0 
119 -0.9862856015372314 0.1650476058606777 0 0 
120 -0.9908658973868822 0.1348509302737232 0 0 
121 -0.9945218953682733 0.1045284632676537 0 0 
122 -0.9966848880445061 0.08135867466785837 0 0 
123 -0.9983081582712682 0.05814482891047573 0 0 
124 -0.9993908270190958 0.03489949670250114 0 0 
125 -0.9999323080037622 0.011635265801397 0 0 
126 -0.9999323080037622 -0.0116352658013972 0 0 
127 -0.9993908270190958 -0.0348994967025009 0 0 
128 -0.9983081582712682 -0.05814482891047593 0 0 
129 -0.9966848880445061 -0.08135867466785901 0 0 
130 -0.9945218953682733 -0.1045284632676535 0 0 
131 -0.9908658973868822 -0.1348509302737229 0 0 
132 -0.9862856015372314 -0.1650476058606774 0 0 
133 -0.9807852804032304 -0.1950903220161284 0 0 
134 -0.9743700647852352 -0.224951054343865 0 0 
135 -0.9670459389139432 -0.2546019482055275 0 0 
136 -0.9588197348681932 -0.2840153447039224 0 0 
137 -0.9519513853021931 -0.3062491796254079 0 0 
138 -0.9445675372676049 -0.3283171752135607 0 0 
139 -0.9366721892483977 -0.3502073812594673 0 0 
140 -0.9282696167148068 -0.3719079438303862 0 0 
141 -0.919364369808089 -0.3934071116888653 0 0 
142 -0.9099612708765432 -0.414693242656239 0 0 
143 -0.9000654118641211 -0.4357548099170794 0 0 
144 -0.8896821515530519 -0.4565804082611654 0 0 
145 -0.8788171126619654 -0.4771587602596084 0 0 
146 -0.8638355052043958 -0.5037739770455262 0 0 
147 -0.8480480961564261 -0.5299192642332048 0 0 
148 -0.8314696123025455 -0.555570233019602 0 0 
149 -0.8141155183563192 -0.5807029557109398 0 0 
150 -0.7960020025346222 -0.6052939880428942 0 0 
151 -0.7771459614569711 -0.6293203910498373 0 0 
152 -0.7622919136084181 -0.6472333724764323 0 0 
153 -0.7470250712409962 -0.6647958656139376 0 0 
154 -0.7313537016191706 -0.6819983600624984 0 0 
155 -0.7152862910660518 -0.6988315403678996 0 0 
156 -0.6988315403678999 -0.7152862910660516 0 0 
157 -0.6819983600624986 -0.7313537016191703 0 0 
158 -0.6647958656139378 -0.747025071240996 0 0 
159 -0.6472333724764325 -0.7622919136084179 0 0 
160 -0.6293203910498371 -0.7771459614569711 0 0 
161 -0.6052939880428941 -0.7960020025346223 0 0 
162 -0.5807029557109396 -0.8141155183563193 0 0 
163 -0.5555702330196022 -0.8314696123025452 0 0 
164 -0.529919264233205 -0.848048096156426 0 0 
165 -0.5037739770455264 -0.8638355052043956 0 0 
166 -0.4771587602596087 -0.8788171126619653 0 0 
167 -0.4565804082611653 -0.8896821515530519 0 0 
168 -0.4357548099170801 -0.9000654118641208 0 0 
169 -0.4146932426562392 -0.9099612708765431 0 0 
170 -0.3934071116888656 -0.9193643698080889 0 0 
171 -0.3719079438303865 -0.9282696167148067 0 0 
172 -0.3502073812594676 -0.9366721892483976 0 0 
173 -0.3283171752135606 -0.9445675372676049 0 0 
174 -0.3062491796254087 -0.9519513853021929 0 0 
175 -0.2840153447039226 -0.9588197348681931 0 0 
176 -0.2546019482055277 -0.9670459389139431 0 0 
177 -0.2249510543438653 -0.9743700647852351 0 0 
178 -0.1950903220161287 -0.9807852804032303 0 0 
179 -0.1650476058606782 -0.9862856015372313 0 0 
180 -0.1348509302737237 -0.9908658973868821 0 0 
181 -0.1045284632676542 -0.9945218953682733 0 0 
182 -0.08135867466785843 -0.9966848880445061 0 0 
183 -0.05814482891047624 -0.9983081582712682 0 0 
184 -0.03489949670250076 -0.9993908270190958 0 0 
185 -0.01163526580139707 -0.9999323080037622 0 0 
186 0.0116352658013967 -0.9999323080037622 0 0 
187 0.03489949670250039 -0.9993908270190958 0 0 
188 0.05814482891047587 -0.9983081582712682 0 0 
189 0.08135867466785807 -0.9966848880445061 0 0 
190 0.1045284632676539 -0.9945218953682733 0 0 
191 0.1348509302737233 -0.9908658973868822 0 0 
192 0.1650476058606778 -0.9862856015372313 0 0 
193 0.1950903220161283 -0.9807852804032304 0 0 
194 0.2249510543438649 -0.9743700647852352 0 0 
195 0.2546019482055274 -0.9670459389139432 0 0 
196 0.2840153447039223 -0.9588197348681932 0 0 
197 0.3062491796254083 -0.951951385302193 0 0 
198 0.3283171752135602 -0.944567537267605 0 0 
199 0.3502073812594672 -0.9366721892483977 0 0 
200 0.3719079438303862 -0.9282696167148068 0 0 
201 0.3934071116888652 -0.9193643698080891 0 0 
202 0.4146932426562389 -0.9099612708765432 0 0 
203 0.4357548099170798 -0.9000654118641209 0 0 
204 0.456580408261165 -0.8896821515530521 0 0 
205 0.4771587602596083 -0.8788171126619654 0 0 
206 0.5037739770455262 -0.8638355052043958 0 0 
207 0.5299192642332047 -0.8480480961564262 0 0 
208 0.5555702330196018 -0.8314696123025455 0 0 
209 0.5807029557109393 -0.8141155183563196 0 0 
210 0.6052939880428938 -0.7960020025346225 0 0 
211 0.6293203910498368 -0.7771459614569713 0 0 
212 0.6472333724764323 -0.7622919136084181 0 0 
213 0.6647958656139376 -0.7470250712409963 0 0 
214 0.6819983600624987 -0.7313537016191703 0 0 
215 0.6988315403679 -0.7152862910660516 0 0 
216 0.7152862910660512 -0.6988315403679002 0 0 
217 0.73135370161917 -0.6819983600624989 0 0 
218 0.747025071240996 -0.6647958656139379 0 0 
219 0.7622919136084177 -0.6472333724764326 0 0 
220 0.7771459614569711 -0.6293203910498372 0 0 
221 0.7960020025346222 -0.6052939880428941 0 0 
222 0.8141155183563192 -0.5807029557109397 0 0 
223 0.8314696123025452 -0.5555702330196022 0 0 
224 0.8480480961564258 -0.529919264233205 0 0 
225 0.8638355052043956 -0.5037739770455265 0 0 
226 0.8788171126619652 -0.4771587602596087 0 0 
227 0.8896821515530519 -0.4565804082611654 0 0 
228 0.9000654118641208 -0.4357548099170802 0 0 
229 0.9099612708765431 -0.4146932426562393 0 0 
230 0.9193643698080889 -0.3934071116888656 0 0 
231 0.9282696167148067 -0.3719079438303866 0 0 
232 0.9366721892483976 -0.3502073812594677 0 0 
233 0.9445675372676049 -0.3283171752135606 0 0 
234 0.9519513853021929 -0.3062491796254087 0 0 
235 0.9588197348681931 -0.2840153447039227 0 0 
236 0.9670459389139431 -0.2546019482055278 0 0 
237 0.9743700647852351 -0.2249510543438653 0 0 
238 0.9807852804032303 -0.1950903220161287 0 0 
239 0.9862856015372313 -0.1650476058606782 0 0 
240 0.9908658973868821 -0.1348509302737237 0 0 
1 0.9945217953682733 -0.1045285632676535 -1e-07 0.996684988044506 -0.08135857466785827 1e-07 1 1 2 1 -2 
2 0.9966847880445061 -0.08135877466785828 -1e-07 0.9983082582712681 -0.05814472891047582 1e-07 1 1 2 2 -3 
3 0.9983080582712682 -0.05814492891047583 -1e-07 0.9993909270190957 -0.03489939670250096 1e-07 1 1 2 3 -4 
4 0.9993907270190958 -0.03489959670250097 -1e-07 0.9999324080037622 -0.01163516580139701 1e-07 1 1 2 4 -5 
5 0.9999322080037623 -0.01163536580139701 -1e-07 0.9999324080037622 0.01163536580139701 1e-07 1 1 2 5 -6 
6 0.9993907270190958 0.01163516580139701 -1e-07 0.9999324080037622 0.03489959670250098 1e-07 1 1 2 6 -7 
7 0.9983080582712682 0.03489939670250097 -1e-07 0.9993909270190957 0.05814492891047585 1e-07 1 1 2 7 -8 
8 0.9966847880445061 0.05814472891047584 -1e-07 0.9983082582712681 0.08135877466785829 1e-07 1 1 2 8 -9 
9 0.9945217953682733 0.08135857466785829 -1e-07 0.996684988044506 0.1045285632676535 1e-07 1 1 2 9 -10 
10 0.9908657973868823 0.1045283632676535 -1e-07 0.9945219953682732 0.134851030273723 1e-07 1 0 2 10 -11 
11 0.9862855015372315 0.134850830273723 -1e-07 0.9908659973868822 0.1650477058606777 1e-07 1 0 2 11 -12 
12 0.9807851804032305 0.1650475058606777 -1e-07 0.9862857015372314 0.1950904220161283 1e-07 1 0 2 12 -13 
13 0.9743699647852353 0.1950902220161282 -1e-07 0.9807853804032304 0.224951154343865 1e-07 1 0 2 13 -14 
14 0.9670458389139431 0.224950954343865 -1e-07 0.9743701647852352 0.2546020482055276 1e-07 1 0 2 14 -15 
15 0.9588196348681931 0.2546018482055276 -1e-07 0.967046038913943 0.2840154447039226 1e-07 1 0 2 15 -16 
16 0.9519512853021932 0.2840152447039226 -1e-07 0.958819834868193 0.306249279625408 1e-07 1 2 2 16 -17 
17 0.9445674372676048 0.306249079625408 -1e-07 0.9519514853021931 0.328317275213561 1e-07 1 2 2 17 -18 
18 0.9366720892483976 0.328317075213561 -1e-07 0.9445676372676047 0.3502074812594675 1e-07 1 2 2 18 -19 
19 0.9282695167148067 0.3502072812594675 -1e-07 0.9366722892483975 0.3719080438303866 1e-07 1 2 2 19 -20 
20 0.9193642698080892 0.3719078438303866 -1e-07 0.9282697167148066 0.3934072116888651 1e-07 1 2 2 20 -21 
21 0.9099611708765433 0.3934070116888651 -1e-07 0.9193644698080891 0.4146933426562391 1e-07 1 2 2 21 -22 
22 0.9000653118641212 0.4146931426562391 -1e-07 0.9099613708765432 0.4357549099170794 1e-07 1 2 2 22 -23 
23 0.8896820515530518 0.4357547099170794 -1e-07 0.9000655118641211 0.4565805082611655 1e-07 1 2 2 23 -24 
24 0.8788170126619654 0.4565803082611655 -1e-07 0.8896822515530517 0.4771588602596084 1e-07 1 2 2 24 -25 
25 0.8638354052043958 0.4771586602596084 -1e-07 0.8788172126619653 0.5037740770455261 1e-07 1 0 2 25 -26 
26 0.848047996156426 0.5037738770455262 -1e-07 0.8638356052043957 0.5299193642332048 1e-07 1 0 2 26 -27 
27 0.8314695123025453 0.529919164233205 -1e-07 0.8480481961564259 0.5555703330196021 1e-07 1 0 2 27 -28 
28 0.8141154183563193 0.5555701330196022 -1e-07 0.8314697123025452 0.5807030557109397 1e-07 1 0 2 28 -29 
29 0.7960019025346221 0.5807028557109398 -1e-07 0.8141156183563192 0.6052940880428943 1e-07 1 0 2 29 -30 
30 0.7771458614569708 0.6052938880428944 -1e-07 0.796002102534622 0.6293204910498374 1e-07 1 0 2 30 -31 
31 0.762291813608418 0.6293202910498376 -1e-07 0.7771460614569707 0.6472334724764324 1e-07 1 3 2 31 -32 
32 0.7470249712409961 0.6472332724764325 -1e-07 0.7622920136084179 0.6647959656139377 1e-07 1 3 2 32 -33 
33 0.7313536016191705 0.6647957656139378 -1e-07 0.747025171240996 0.6819984600624984 1e-07 1 3 2 33 -34 
34 0.7152861910660515 0.6819982600624985 -1e-07 0.7313538016191704 0.6988316403678999 1e-07 1 3 2 34 -35 
35 0.6988314403679 0.6988314403679 -1e-07 0.7152863910660514 0.7152863910660514 1e-07 1 3 2 35 -36 
36 0.6819982600624985 0.7152861910660515 -1e-07 0.6988316403678999 0.7313538016191704 1e-07 1 3 2 36 -37 
37 0.6647957656139379 0.7313536016191705 -1e-07 0.6819984600624984 0.7470251712409959 1e-07 1 3 2 37 -38 
38 0.6472332724764325 0.747024971240996 -1e-07 0.6647959656139378 0.7622920136084178 1e-07 1 3 2 38 -39 
39 0.6293202910498376 0.7622918136084179 -1e-07 0.6472334724764324 0.7771460614569707 1e-07 1 3 2 39 -40 
40 0.6052938880428944 0.7771458614569708 -1e-07 0.6293204910498374 0.796002102534622 1e-07 1 0 2 40 -41 
41 0.5807028557109399 0.7960019025346221 -1e-07 0.6052940880428943 0.8141156183563191 1e-07 1 0 2 41 -42 
42 0.5555701330196023 0.8141154183563192 -1e-07 0.5807030557109398 0.8314697123025452 1e-07 1 0 2 42 -43 
43 0.529919164233205 0.8314695123025453 -1e-07 0.5555703330196022 0.8480481961564259 1e-07 1 0 2 43 -44 
44 0.5037738770455263 0.848047996156426 -1e-07 0.5299193642332048 0.8638356052043956 1e-07 1 0 2 44 -45 
45 0.4771586602596084 0.8638354052043957 -1e-07 0.5037740770455262 0.8788172126619653 1e-07 1 0 2 45 -46 
46 0.4565803082611656 0.8788170126619654 -1e-07 0.4771588602596084 0.8896822515530517 1e-07 1 4 2 46 -47 
47 0.4357547099170794 0.8896820515530518 -1e-07 0.4565805082611656 0.9000655118641211 1e-07 1 4 2 47 -48 
48 0.4146931426562391 0.9000653118641212 -1e-07 0.4357549099170794 0.9099613708765432 1e-07 1 4 2 48 -49 
49 0.3934070116888652 0.9099611708765433 -1e-07 0.4146933426562391 0.9193644698080889 1e-07 1 4 2 49 -50 
50 0.3719078438303866 0.9193642698080891 -1e-07 0.3934072116888652 0.9282697167148066 1e-07 1 4 2 50 -51 
51 0.3502072812594674 0.9282695167148067 -1e-07 0.3719080438303866 0.9366722892483975 1e-07 1 4 2 51 -52 
52 0.3283170752135611 0.9366720892483976 -1e-07 0.3502074812594674 0.9445676372676046 1e-07 1 4 2 52 -53 
53 0.3062490796254081 0.9445674372676047 -1e-07 0.3283172752135611 0.9519514853021931 1e-07 1 4 2 53 -54 
54 0.2840152447039228 0.9519512853021932 -1e-07 0.3062492796254081 0.958819834868193 1e-07 1 4 2 54 -55 
55 0.2546018482055276 0.9588196348681931 -1e-07 0.2840154447039228 0.967046038913943 1e-07 1 0 2 55 -56 
56 0.2249509543438651 0.9670458389139431 -1e-07 0.2546020482055276 0.9743701647852352 1e-07 1 0 2 56 -57 
57 0.1950902220161283 0.9743699647852353 -1e-07 0.2249511543438651 0.9807853804032304 1e-07 1 0 2 57 -58 
58 0.1650475058606776 0.9807851804032305 -1e-07 0.1950904220161283 0.9862857015372314 1e-07 1 0 2 58 -59 
59 0.1348508302737231 0.9862855015372315 -1e-07 0.1650477058606776 0.9908659973868822 1e-07 1 0 2 59 -60 
60 0.1045283632676535 0.9908657973868823 -1e-07 0.1348510302737231 0.9945219953682732 1e-07 1 0 2 60 -61 
61 0.0813585746678583 0.9945217953682733 -1e-07 0.1045285632676535 0.996684988044506 1e-07 1 5 2 61 -62 
62 0.0581447289104759 0.9966847880445061 -1e-07 0.08135877466785831 0.9983082582712681 1e-07 1 5 2 62 -63 
63 0.03489939670250108 0.9983080582712682 -1e-07 0.0581449289104759 0.9993909270190957 1e-07 1 5 2 63 -64 
64 0.01163516580139717 0.9993907270190958 -1e-07 0.03489959670250108 0.9999324080037622 1e-07 1 5 2 64 -65 
65 -0.01163536580139682 0.9999322080037623 -1e-07 0.01163536580139717 0.9999324080037622 1e-07 1 5 2 65 -66 
66 -0.03489959670250074 0.9993907270190958 -1e-07 -0.01163516580139682 0.9999324080037622 1e-07 1 5 2 66 -67 
67 -0.05814492891047578 0.9983080582712682 -1e-07 -0.03489939670250073 0.9993909270190957 1e-07 1 5 2 67 -68 
68 -0.08135877466785818 0.9966847880445061 -1e-07 -0.05814472891047577 0.9983082582712681 1e-07 1 5 2 68 -69 
69 -0.1045285632676533 0.9945217953682735 -1e-07 -0.08135857466785817 0.996684988044506 1e-07 1 5 2 69 -70 
70 -0.1348510302737227 0.9908657973868824 -1e-07 -0.1045283632676533 0.9945219953682733 1e-07 1 0 2 70 -71 
71 -0.1650477058606777 0.9862855015372315 -1e-07 -0.1348508302737227 0.9908659973868823 1e-07 1 0 2 71 -72 
72 -0.1950904220161282 0.9807851804032305 -1e-07 -0.1650475058606777 0.9862857015372314 1e-07 1 0 2 72 -73 
73 -0.2249511543438648 0.9743699647852353 -1e-07 -0.1950902220161282 0.9807853804032304 1e-07 1 0 2 73 -74 
74 -0.2546020482055277 0.9670458389139431 -1e-07 -0.2249509543438648 0.9743701647852352 1e-07 1 0 2 74 -75 
75 -0.2840154447039226 0.9588196348681931 -1e-07 -0.2546018482055277 0.967046038913943 1e-07 1 0 2 75 -76 
76 -0.306249279625408 0.9519512853021932 -1e-07 -0.2840152447039226 0.958819834868193 1e-07 1 6 2 76 -77 
77 -0.328317275213561 0.9445674372676048 -1e-07 -0.306249079625408 0.9519514853021931 1e-07 1 6 2 77 -78 
78 -0.3502074812594675 0.9366720892483976 -1e-07 -0.328317075213561 0.9445676372676047 1e-07 1 6 2 78 -79 
79 -0.3719080438303867 0.9282695167148066 -1e-07 -0.3502072812594675 0.9366722892483975 1e-07 1 6 2 79 -80 
80 -0.3934072116888649 0.9193642698080893 -1e-07 -0.3719078438303867 0.9282697167148065 1e-07 1 6 2 80 -81 
81 -0.4146933426562388 0.9099611708765434 -1e-07 -0.3934070116888649 0.9193644698080892 1e-07 1 6 2 81 -82 
82 -0.4357549099170791 0.9000653118641213 -1e-07 -0.4146931426562388 0.9099613708765433 1e-07 1 6 2 82 -83 
83 -0.4565805082611655 0.8896820515530519 -1e-07 -0.4357547099170791 0.9000655118641212 1e-07 1 6 2 83 -84 
84 -0.4771588602596085 0.8788170126619654 -1e-07 -0.4565803082611655 0.8896822515530518 1e-07 1 6 2 84 -85 
85 -0.5037740770455262 0.8638354052043958 -1e-07 -0.4771586602596085 0.8788172126619653 1e-07 1 0 2 85 -86 
86 -0.5299193642332047 0.8480479961564261 -1e-07 -0.5037738770455263 0.8638356052043957 1e-07 1 0 2 86 -87 
87 -0.5555703330196019 0.8314695123025454 -1e-07 -0.5299191642332048 0.848048196156426 1e-07 1 0 2 87 -88 
88 -0.5807030557109397 0.8141154183563193 -1e-07 -0.555570133019602 0.8314697123025453 1e-07 1 0 2 88 -89 
89 -0.6052940880428942 0.7960019025346222 -1e-07 -0.5807028557109398 0.8141156183563192 1e-07 1 0 2 89 -90 
90 -0.6293204910498372 0.7771458614569711 -1e-07 -0.6052938880428943 0.7960021025346221 1e-07 1 0 2 90 -91 
91 -0.6472334724764323 0.762291813608418 -1e-07 -0.6293202910498373 0.777146061456971 1e-07 1 7 2 91 -92 
92 -0.6647959656139378 0.747024971240996 -1e-07 -0.6472332724764324 0.7622920136084179 1e-07 1 7 2 92 -93 
93 -0.6819984600624983 0.7313536016191706 -1e-07 -0.6647957656139379 0.7470251712409959 1e-07 1 7 2 93 -94 
94 -0.6988316403679 0.7152861910660515 -1e-07 -0.6819982600624984 0.7313538016191705 1e-07 1 7 2 94 -95 
95 -0.7152863910660513 0.6988314403679002 -1e-07 -0.6988314403679001 0.7152863910660514 1e-07 1 7 2 95 -96 
96 -0.7313538016191704 0.6819982600624986 -1e-07 -0.7152861910660514 0.6988316403679001 1e-07 1 7 2 96 -97 
97 -0.7470251712409957 0.6647957656139382 -1e-07 -0.7313536016191705 0.6819984600624985 1e-07 1 7 2 97 -98 
98 -0.7622920136084178 0.6472332724764326 -1e-07 -0.7470249712409958 0.6647959656139381 1e-07 1 7 2 98 -99 
99 -0.7771460614569708 0.6293202910498374 -1e-07 -0.7622918136084179 0.6472334724764325 1e-07 1 7 2 99 -100 
100 -0.7960021025346219 0.6052938880428945 -1e-07 -0.777145861456971 0.6293204910498373 1e-07 1 0 2 100 -101 
101 -0.8141156183563191 0.5807028557109399 -1e-07 -0.796001902534622 0.6052940880428944 1e-07 1 0 2 101 -102 
102 -0.8314697123025453 0.5555701330196022 -1e-07 -0.8141154183563192 0.5807030557109398 1e-07 1 0 2 102 -103 
103 -0.8480481961564259 0.5299191642332051 -1e-07 -0.8314695123025454 0.5555703330196021 1e-07 1 0 2 103 -104 
104 -0.8638356052043956 0.5037738770455265 -1e-07 -0.848047996156426 0.529919364233205 1e-07 1 0 2 104 -105 
105 -0.8788172126619652 0.4771586602596086 -1e-07 -0.8638354052043957 0.5037740770455263 1e-07 1 0 2 105 -106 
106 -0.8896822515530517 0.4565803082611656 -1e-07 -0.8788170126619653 0.4771588602596086 1e-07 1 8 2 106 -107 
107 -0.9000655118641211 0.4357547099170793 -1e-07 -0.8896820515530518 0.4565805082611656 1e-07 1 8 2 107 -108 
108 -0.9099613708765431 0.4146931426562392 -1e-07 -0.9000653118641212 0.4357549099170793 1e-07 1 8 2 108 -109 
109 -0.9193644698080891 0.393407011688865 -1e-07 -0.9099611708765432 0.4146933426562392 1e-07 1 8 2 109 -110 
110 -0.9282697167148065 0.3719078438303868 -1e-07 -0.9193642698080892 0.3934072116888651 1e-07 1 8 2 110 -111 
111 -0.9366722892483975 0.3502072812594675 -1e-07 -0.9282695167148066 0.3719080438303868 1e-07 1 8 2 111 -112 
112 -0.9445676372676046 0.3283170752135613 -1e-07 -0.9366720892483976 0.3502074812594675 1e-07 1 8 2 112 -113 
113 -0.9519514853021931 0.3062490796254081 -1e-07 -0.9445674372676047 0.3283172752135614 1e-07 1 8 2 113 -114 
114 -0.958819834868193 0.2840152447039226 -1e-07 -0.9519512853021932 0.3062492796254082 1e-07 1 8 2 114 -115 
115 -0.967046038913943 0.2546018482055277 -1e-07 -0.9588196348681931 0.2840154447039226 1e-07 1 0 2 115 -116 
116 -0.9743701647852351 0.2249509543438652 -1e-07 -0.9670458389139431 0.2546020482055277 1e-07 1 0 2 116 -117 
117 -0.9807853804032304 0.1950902220161286 -1e-07 -0.9743699647852352 0.2249511543438652 1e-07 1 0 2 117 -118 
118 -0.9862857015372314 0.1650475058606777 -1e-07 -0.9807851804032305 0.1950904220161286 1e-07 1 0 2 118 -119 
119 -0.9908659973868822 0.1348508302737232 -1e-07 -0.9862855015372315 0.1650477058606777 1e-07 1 0 2 119 -120 
120 -0.9945219953682732 0.1045283632676537 -1e-07 -0.9908657973868823 0.1348510302737232 1e-07 1 0 2 120 -121 
121 -0.996684988044506 0.08135857466785837 -1e-07 -0.9945217953682733 0.1045285632676537 1e-07 1 9 2 121 -122 
122 -0.9983082582712681 0.05814472891047573 -1e-07 -0.9966847880445061 0.08135877466785837 1e-07 1 9 2 122 -123 
123 -0.9993909270190957 0.03489939670250114 -1e-07 -0.9983080582712682 0.05814492891047573 1e-07 1 9 2 123 -124 
124 -0.9999324080037622 0.011635165801397 -1e-07 -0.9993907270190958 0.03489959670250115 1e-07 1 9 2 124 -125 
125 -0.9999324080037622 -0.0116353658013972 -1e-07 -0.9999322080037623 0.011635365801397 1e-07 1 9 2 125 -126 
126 -0.9999324080037622 -0.0348995967025009 -1e-07 -0.9993907270190958 -0.0116351658013972 1e-07 1 9 2 126 -127 
127 -0.9993909270190957 -0.05814492891047594 -1e-07 -0.9983080582712682 -0.0348993967025009 1e-07 1 9 2 127 -128 
128 -0.9983082582712681 -0.08135877466785901 -1e-07 -0.9966847880445061 -0.05814472891047593 1e-07 1 9 2 128 -129 
129 -0.996684988044506 -0.1045285632676535 -1e-07 -0.9945217953682733 -0.08135857466785901 1e-07 1 9 2 129 -130 
130 -0.9945219953682732 -0.1348510302737229 -1e-07 -0.9908657973868823 -0.1045283632676535 1e-07 1 0 2 130 -131 
131 -0.9908659973868822 -0.1650477058606774 -1e-07 -0.9862855015372315 -0.1348508302737229 1e-07 1 0 2 131 -132 
132 -0.9862857015372314 -0.1950904220161284 -1e-07 -0.9807851804032305 -0.1650475058606774 1e-07 1 0 2 132 -133 
133 -0.9807853804032304 -0.224951154343865 -1e-07 -0.9743699647852353 -0.1950902220161284 1e-07 1 0 2 133 -134 
134 -0.9743701647852352 -0.2546020482055275 -1e-07 -0.9670458389139432 -0.224950954343865 1e-07 1 0 2 134 -135 
135 -0.9670460389139431 -0.2840154447039224 -1e-07 -0.9588196348681932 -0.2546018482055274 1e-07 1 0 2 135 -136 
136 -0.9588198348681931 -0.3062492796254079 -1e-07 -0.9519512853021932 -0.2840152447039224 1e-07 1 10 2 136 -137 
137 -0.9519514853021931 -0.3283172752135607 -1e-07 -0.9445674372676049 -0.3062490796254079 1e-07 1 10 2 137 -138 
138 -0.9445676372676048 -0.3502074812594673 -1e-07 -0.9366720892483977 -0.3283170752135607 1e-07 1 10 2 138 -139 
139 -0.9366722892483976 -0.3719080438303862 -1e-07 -0.9282695167148068 -0.3502072812594673 1e-07 1 10 2 139 -140 
140 -0.9282697167148067 -0.3934072116888653 -1e-07 -0.9193642698080891 -0.3719078438303862 1e-07 1 10 2 140 -141 
141 -0.9193644698080889 -0.414693342656239 -1e-07 -0.9099611708765433 -0.3934070116888653 1e-07 1 10 2 141 -142 
142 -0.9099613708765432 -0.4357549099170794 -1e-07 -0.9000653118641212 -0.414693142656239 1e-07 1 10 2 142 -143 
143 -0.9000655118641211 -0.4565805082611654 -1e-07 -0.8896820515530519 -0.4357547099170794 1e-07 1 10 2 143 -144 
144 -0.8896822515530518 -0.4771588602596084 -1e-07 -0.8788170126619654 -0.4565803082611654 1e-07 1 10 2 144 -145 
145 -0.8788172126619653 -0.5037740770455261 -1e-07 -0.8638354052043958 -0.4771586602596084 1e-07 1 0 2 145 -146 
146 -0.8638356052043957 -0.5299193642332047 -1e-07 -0.8480479961564261 -0.5037738770455262 1e-07 1 0 2 146 -147 
147 -0.848048196156426 -0.5555703330196019 -1e-07 -0.8314695123025455 -0.5299191642332048 1e-07 1 0 2 147 -148 
148 -0.8314697123025454 -0.5807030557109397 -1e-07 -0.8141154183563193 -0.555570133019602 1e-07 1 0 2 148 -149 
149 -0.8141156183563192 -0.6052940880428942 -1e-07 -0.7960019025346222 -0.5807028557109398 1e-07 1 0 2 149 -150 
150 -0.7960021025346221 -0.6293204910498372 -1e-07 -0.7771458614569712 -0.6052938880428943 1e-07 1 0 2 150 -151 
151 -0.7771460614569711 -0.6472334724764323 -1e-07 -0.7622918136084181 -0.6293202910498373 1e-07 1 11 2 151 -152 
152 -0.762292013608418 -0.6647959656139375 -1e-07 -0.7470249712409962 -0.6472332724764324 1e-07 1 11 2 152 -153 
153 -0.7470251712409961 -0.6819984600624983 -1e-07 -0.7313536016191706 -0.6647957656139376 1e-07 1 11 2 153 -154 
154 -0.7313538016191705 -0.6988316403678996 -1e-07 -0.7152861910660518 -0.6819982600624984 1e-07 1 11 2 154 -155 
155 -0.7152863910660517 -0.7152863910660515 -1e-07 -0.6988314403678999 -0.6988314403678997 1e-07 1 11 2 155 -156 
156 -0.6988316403678998 -0.7313538016191703 -1e-07 -0.6819982600624986 -0.7152861910660516 1e-07 1 11 2 156 -157 
157 -0.6819984600624985 -0.747025171240996 -1e-07 -0.6647957656139378 -0.7313536016191704 1e-07 1 11 2 157 -158 
158 -0.6647959656139377 -0.7622920136084178 -1e-07 -0.6472332724764326 -0.7470249712409961 1e-07 1 11 2 158 -159 
159 -0.6472334724764325 -0.7771460614569711 -1e-07 -0.6293202910498371 -0.7622918136084179 1e-07 1 11 2 159 -160 
160 -0.629320491049837 -0.7960021025346222 -1e-07 -0.6052938880428942 -0.7771458614569712 1e-07 1 0 2 160 -161 
161 -0.6052940880428941 -0.8141156183563193 -1e-07 -0.5807028557109396 -0.7960019025346223 1e-07 1 0 2 161 -162 
162 -0.5807030557109395 -0.8314697123025452 -1e-07 -0.5555701330196022 -0.8141154183563194 1e-07 1 0 2 162 -163 
163 -0.5555703330196021 -0.8480481961564259 -1e-07 -0.5299191642332051 -0.8314695123025453 1e-07 1 0 2 163 -164 
164 -0.529919364233205 -0.8638356052043955 -1e-07 -0.5037738770455265 -0.848047996156426 1e-07 1 0 2 164 -165 
165 -0.5037740770455263 -0.8788172126619652 -1e-07 -0.4771586602596087 -0.8638354052043956 1e-07 1 0 2 165 -166 
166 -0.4771588602596087 -0.8896822515530518 -1e-07 -0.4565803082611653 -0.8788170126619653 1e-07 1 12 2 166 -167 
167 -0.4565805082611653 -0.9000655118641208 -1e-07 -0.4357547099170801 -0.8896820515530519 1e-07 1 12 2 167 -168 
168 -0.4357549099170801 -0.9099613708765431 -1e-07 -0.4146931426562392 -0.9000653118641209 1e-07 1 12 2 168 -169 
169 -0.4146933426562392 -0.9193644698080888 -1e-07 -0.3934070116888655 -0.9099611708765432 1e-07 1 12 2 169 -170 
170 -0.3934072116888656 -0.9282697167148066 -1e-07 -0.3719078438303865 -0.9193642698080889 1e-07 1 12 2 170 -171 
171 -0.3719080438303865 -0.9366722892483975 -1e-07 -0.3502072812594676 -0.9282695167148067 1e-07 1 12 2 171 -172 
172 -0.3502074812594676 -0.9445676372676048 -1e-07 -0.3283170752135606 -0.9366720892483976 1e-07 1 12 2 172 -173 
173 -0.3283172752135606 -0.9519514853021929 -1e-07 -0.3062490796254086 -0.9445674372676049 1e-07 1 12 2 173 -174 
174 -0.3062492796254087 -0.958819834868193 -1e-07 -0.2840152447039226 -0.951951285302193 1e-07 1 12 2 174 -175 
175 -0.2840154447039226 -0.967046038913943 -1e-07 -0.2546018482055277 -0.9588196348681931 1e-07 1 0 2 175 -176 
176 -0.2546020482055277 -0.9743701647852351 -1e-07 -0.2249509543438653 -0.9670458389139431 1e-07 1 0 2 176 -177 
177 -0.2249511543438653 -0.9807853804032303 -1e-07 -0.1950902220161287 -0.9743699647852352 1e-07 1 0 2 177 -178 
178 -0.1950904220161287 -0.9862857015372313 -1e-07 -0.1650475058606782 -0.9807851804032304 1e-07 1 0 2 178 -179 
179 -0.1650477058606782 -0.9908659973868821 -1e-07 -0.1348508302737237 -0.9862855015372314 1e-07 1 0 2 179 -180 
180 -0.1348510302737237 -0.9945219953682732 -1e-07 -0.1045283632676542 -0.9908657973868822 1e-07 1 0 2 180 -181 
181 -0.1045285632676542 -0.996684988044506 -1e-07 -0.08135857466785842 -0.9945217953682733 1e-07 1 13 2 181 -182 
182 -0.08135877466785843 -0.9983082582712681 -1e-07 -0.05814472891047624 -0.9966847880445061 1e-07 1 13 2 182 -183 
183 -0.05814492891047624 -0.9993909270190957 -1e-07 -0.03489939670250076 -0.9983080582712682 1e-07 1 13 2 183 -184 
184 -0.03489959670250076 -0.9999324080037622 -1e-07 -0.01163516580139707 -0.9993907270190958 1e-07 1 13 2 184 -185 
185 -0.01163536580139706 -0.9999324080037622 -1e-07 0.0116353658013967 -0.9999322080037623 1e-07 1 13 2 185 -186 
186 0.0116351658013967 -0.9999324080037622 -1e-07 0.0348995967025004 -0.9993907270190958 1e-07 1 13 2 186 -187 
187 0.03489939670250039 -0.9993909270190957 -1e-07 0.05814492891047587 -0.9983080582712682 1e-07 1 13 2 187 -188 
188 0.05814472891047587 -0.9983082582712681 -1e-07 0.08135877466785807 -0.9966847880445061 1e-07 1 13 2 188 -189 
189 0.08135857466785806 -0.996684988044506 -1e-07 0.1045285632676539 -0.9945217953682733 1e-07 1 13 2 189 -190 
190 0.1045283632676539 -0.9945219953682732 -1e-07 0.1348510302737233 -0.9908657973868823 1e-07 1 0 2 190 -191 
191 0.1348508302737233 -0.9908659973868822 -1e-07 0.1650477058606778 -0.9862855015372314 1e-07 1 0 2 191 -192 
192 0.1650475058606778 -0.9862857015372313 -1e-07 0.1950904220161283 -0.9807851804032305 1e-07 1 0 2 192 -193 
193 0.1950902220161283 -0.9807853804032304 -1e-07 0.2249511543438649 -0.9743699647852353 1e-07 1 0 2 193 -194 
194 0.2249509543438649 -0.9743701647852352 -1e-07 0.2546020482055274 -0.9670458389139432 1e-07 1 0 2 194 -195 
195 0.2546018482055274 -0.9670460389139431 -1e-07 0.2840154447039223 -0.9588196348681932 1e-07 1 0 2 195 -196 
196 0.2840152447039223 -0.9588198348681931 -1e-07 0.3062492796254083 -0.9519512853021931 1e-07 1 14 2 196 -197 
197 0.3062490796254083 -0.951951485302193 -1e-07 0.3283172752135602 -0.9445674372676051 1e-07 1 14 2 197 -198 
198 0.3283170752135602 -0.944567637267605 -1e-07 0.3502074812594672 -0.9366720892483977 1e-07 1 14 2 198 -199 
199 0.3502072812594672 -0.9366722892483976 -1e-07 0.3719080438303862 -0.9282695167148068 1e-07 1 14 2 199 -200 
200 0.3719078438303862 -0.9282697167148067 -1e-07 0.3934072116888652 -0.9193642698080892 1e-07 1 14 2 200 -201 
201 0.3934070116888652 -0.9193644698080891 -1e-07 0.4146933426562389 -0.9099611708765433 1e-07 1 14 2 201 -202 
202 0.4146931426562389 -0.9099613708765432 -1e-07 0.4357549099170798 -0.900065311864121 1e-07 1 14 2 202 -203 
203 0.4357547099170798 -0.9000655118641209 -1e-07 0.456580508261165 -0.8896820515530521 1e-07 1 14 2 203 -204 
204 0.456580308261165 -0.889682251553052 -1e-07 0.4771588602596084 -0.8788170126619654 1e-07 1 14 2 204 -205 
205 0.4771586602596083 -0.8788172126619653 -1e-07 0.5037740770455261 -0.8638354052043958 1e-07 1 0 2 205 -206 
206 0.5037738770455262 -0.8638356052043957 -1e-07 0.5299193642332046 -0.8480479961564262 1e-07 1 0 2 206 -207 
207 0.5299191642332047 -0.8480481961564261 -1e-07 0.5555703330196018 -0.8314695123025455 1e-07 1 0 2 207 -208 
208 0.5555701330196019 -0.8314697123025454 -1e-07 0.5807030557109393 -0.8141154183563196 1e-07 1 0 2 208 -209 
209 0.5807028557109394 -0.8141156183563195 -1e-07 0.6052940880428938 -0.7960019025346226 1e-07 1 0 2 209 -210 
210 0.6052938880428939 -0.7960021025346224 -1e-07 0.6293204910498368 -0.7771458614569714 1e-07 1 0 2 210 -211 
211 0.6293202910498369 -0.7771460614569713 -1e-07 0.6472334724764323 -0.7622918136084181 1e-07 1 15 2 211 -212 
212 0.6472332724764324 -0.762292013608418 -1e-07 0.6647959656139375 -0.7470249712409963 1e-07 1 15 2 212 -213 
213 0.6647957656139376 -0.7470251712409962 -1e-07 0.6819984600624986 -0.7313536016191704 1e-07 1 15 2 213 -214 
214 0.6819982600624988 -0.7313538016191703 -1e-07 0.6988316403678999 -0.7152861910660516 1e-07 1 15 2 214 -215 
215 0.6988314403679 -0.7152863910660515 -1e-07 0.7152863910660512 -0.6988314403679002 1e-07 1 15 2 215 -216 
216 0.7152861910660513 -0.6988316403679001 -1e-07 0.73135380161917 -0.681998260062499 1e-07 1 15 2 216 -217 
217 0.7313536016191701 -0.6819984600624989 -1e-07 0.747025171240996 -0.6647957656139379 1e-07 1 15 2 217 -218 
218 0.7470249712409961 -0.6647959656139378 -1e-07 0.7622920136084177 -0.6472332724764327 1e-07 1 15 2 218 -219 
219 0.7622918136084178 -0.6472334724764326 -1e-07 0.7771460614569711 -0.6293202910498372 1e-07 1 15 2 219 -220 
220 0.7771458614569712 -0.6293204910498371 -1e-07 0.7960021025346221 -0.6052938880428942 1e-07 1 0 2 220 -221 
221 0.7960019025346222 -0.6052940880428941 -1e-07 0.8141156183563192 -0.5807028557109397 1e-07 1 0 2 221 -222 
222 0.8141154183563193 -0.5807030557109396 -1e-07 0.8314697123025452 -0.5555701330196022 1e-07 1 0 2 222 -223 
223 0.8314695123025453 -0.5555703330196021 -1e-07 0.8480481961564258 -0.5299191642332051 1e-07 1 0 2 223 -224 
224 0.8480479961564259 -0.529919364233205 -1e-07 0.8638356052043955 -0.5037738770455266 1e-07 1 0 2 224 -225 
225 0.8638354052043956 -0.5037740770455265 -1e-07 0.8788172126619651 -0.4771586602596087 1e-07 1 0 2 225 -226 
226 0.8788170126619652 -0.4771588602596087 -1e-07 0.8896822515530518 -0.4565803082611654 1e-07 1 16 2 226 -227 
227 0.8896820515530519 -0.4565805082611654 -1e-07 0.9000655118641208 -0.4357547099170802 1e-07 1 16 2 227 -228 
228 0.9000653118641209 -0.4357549099170802 -1e-07 0.9099613708765431 -0.4146931426562393 1e-07 1 16 2 228 -229 
229 0.9099611708765432 -0.4146933426562393 -1e-07 0.9193644698080888 -0.3934070116888656 1e-07 1 16 2 229 -230 
230 0.9193642698080889 -0.3934072116888656 -1e-07 0.9282697167148066 -0.3719078438303866 1e-07 1 16 2 230 -231 
231 0.9282695167148067 -0.3719080438303866 -1e-07 0.9366722892483975 -0.3502072812594677 1e-07 1 16 2 231 -232 
232 0.9366720892483976 -0.3502074812594677 -1e-07 0.9445676372676048 -0.3283170752135606 1e-07 1 16 2 232 -233 
233 0.9445674372676049 -0.3283172752135606 -1e-07 0.9519514853021929 -0.3062490796254087 1e-07 1 16 2 233 -234 
234 0.951951285302193 -0.3062492796254087 -1e-07 0.958819834868193 -0.2840152447039227 1e-07 1 16 2 234 -235 
235 0.9588196348681931 -0.2840154447039227 -1e-07 0.967046038913943 -0.2546018482055278 1e-07 1 0 2 235 -236 
236 0.9670458389139431 -0.2546020482055278 -1e-07 0.9743701647852351 -0.2249509543438653 1e-07 1 0 2 236 -237 
237 0.9743699647852352 -0.2249511543438653 -1e-07 0.9807853804032303 -0.1950902220161287 1e-07 1 0 2 237 -238 
238 0.9807851804032304 -0.1950904220161287 -1e-07 0.9862857015372313 -0.1650475058606782 1e-07 1 0 2 238 -239 
239 0.9862855015372314 -0.1650477058606782 -1e-07 0.9908659973868821 -0.1348508302737237 1e-07 1 0 2 239 -240 
240 0.9908657973868822 -0.1348510302737237 -1e-07 0.9945219953682732 -0.1045283632676535 1e-07 1 0 2 240 -1 
1 -0.9999324080037622 -0.9999324080037622 -1e-07 0.9999324080037622 0.9999324080037622 1e-07 1 1 240 1 2 3 4 5 6 7 8 9 10 11 12 13 14 15 16 17 18 19 20 21 22 23 24 25 26 27 28 29 30 31 32 33 34 35 36 37 38 39 40 41 42 43 44 45 46 47 48 49 50 51 52 53 54 55 56 57 58 59 60 61 62 63 64 65 66 67 68 69 70 71 72 73 74 75 76 77 78 79 80 81 82 83 84 85 86 87 88 89 90 91 92 93 94 95 96 97 98 99 100 101 102 103 104 105 106 107 108 109 110 111 112 113 114 115 116 117 118 119 120 121 122 123 124 125 126 127 128 129 130 131 132 133 134 135 136 137 138 139 140 141 142 143 144 145 146 147 148 149 150 151 152 153 154 155 156 157 158 159 160 161 162 163 164 165 166 167 168 169 170 171 172 173 174 175 176 177 178 179 180 181 182 183 184 185 186 187 188 189 190 191 192 193 194 195 196 197 198 199 200 201 202 203 204 205 206 207 208 209 210 211 212 213 214 215 216 217 218 219 220 221 222 223 224 225 226 227 228 229 230 231 232 233 234 235 236 237 238 239 240 
$EndEntities
$Nodes
481 323 1 323
0 1 0 1
1
0.9945218953682733 -0.1045284632676535 0
0 2 0 1
2
0.9966848880445061 -0.08135867466785827 0
0 3 0 1
3
0.9983081582712682 -0.05814482891047582 0
0 4 0 1
4
0.9993908270190958 -0.03489949670250096 0
0 5 0 1
5
0.9999323080037622 -0.01163526580139701 0
0 6 0 1
6
0.9999323080037622 0.01163526580139701 0
0 7 0 1
7
0.9993908270190958 0.03489949670250098 0
0 8 0 1
8
0.9983081582712682 0.05814482891047584 0
0 9 0 1
9
0.9966848880445061 0.08135867466785829 0
0 10 0 1
10
0.9945218953682733 0.1045284632676535 0
0 11 0 1
11
0.9908658973868822 0.134850930273723 0
0 12 0 1
12
0.9862856015372314 0.1650476058606777 0
0 13 0 1
13
0.9807852804032304 0.1950903220161282 0
0 14 0 1
14
0.9743700647852352 0.224951054343865 0
0 15 0 1
15
0.9670459389139431 0.2546019482055276 0
0 16 0 1
16
0.9588197348681931 0.2840153447039226 0
0 17 0 1
17
0.9519513853021931 0.306249179625408 0
0 18 0 1
18
0.9445675372676048 0.328317175213561 0
0 19 0 1
19
0.9366721892483976 0.3502073812594675 0
0 20 0 1
20
0.9282696167148067 0.3719079438303866 0
0 21 0 1
21
0.9193643698080891 0.3934071116888651 0
0 22 0 1
22
0.9099612708765432 0.4146932426562391 0
0 23 0 1
23
0.9000654118641211 0.4357548099170794 0
0 24 0 1
24
0.8896821515530517 0.4565804082611655 0
0 25 0 1
25
0.8788171126619654 0.4771587602596084 0
0 26 0 1
26
0.8638355052043958 0.5037739770455262 0
0 27 0 1
27
0.848048096156426 0.5299192642332049 0
0 28 0 1
28
0.8314696123025452 0.5555702330196022 0
0 29 0 1
29
0.8141155183563192 0.5807029557109398 0
0 30 0 1
30
0.7960020025346221 0.6052939880428944 0
0 31 0 1
31
0.7771459614569708 0.6293203910498375 0
0 32 0 1
32
0.762291913608418 0.6472333724764324 0
0 33 0 1
33
0.747025071240996 0.6647958656139378 0
0 34 0 1
34
0.7313537016191705 0.6819983600624985 0
0 35 0 1
35
0.7152862910660515 0.6988315403679 0
0 36 0 1
36
0.6988315403679 0.7152862910660515 0
0 37 0 1
37
0.6819983600624985 0.7313537016191705 0
0 38 0 1
38
0.6647958656139379 0.7470250712409959 0
0 39 0 1
39
0.6472333724764324 0.7622919136084179 0
0 40 0 1
40
0.6293203910498375 0.7771459614569708 0
0 41 0 1
41
0.6052939880428944 0.7960020025346221 0
0 42 0 1
42
0.5807029557109399 0.8141155183563191 0
0 43 0 1
43
0.5555702330196023 0.8314696123025452 0
0 44 0 1
44
0.5299192642332049 0.848048096156426 0
0 45 0 1
45
0.5037739770455263 0.8638355052043957 0
0 46 0 1
46
0.4771587602596084 0.8788171126619654 0
0 47 0 1
47
0.4565804082611656 0.8896821515530517 0
0 48 0 1
48
0.4357548099170794 0.9000654118641211 0
0 49 0 1
49
0.4146932426562391 0.9099612708765432 0
0 50 0 1
50
0.3934071116888652 0.919364369808089 0
0 51 0 1
51
0.3719079438303866 0.9282696167148067 0
0 52 0 1
52
0.3502073812594674 0.9366721892483976 0
0 53 0 1
53
0.3283171752135611 0.9445675372676047 0
0 54 0 1
54
0.3062491796254081 0.9519513853021931 0
0 55 0 1
55
0.2840153447039228 0.9588197348681931 0
0 56 0 1
56
0.2546019482055276 0.9670459389139431 0
0 57 0 1
57
0.2249510543438651 0.9743700647852352 0
0 58 0 1
58
0.1950903220161283 0.9807852804032304 0
0 59 0 1
59
0.1650476058606776 0.9862856015372314 0
0 60 0 1
60
0.1348509302737231 0.9908658973868822 0
0 61 0 1
61
0.1045284632676535 0.9945218953682733 0
0 62 0 1
62
0.0813586746678583 0.9966848880445061 0
0 63 0 1
63
0.0581448289104759 0.9983081582712682 0
0 64 0 1
64
0.03489949670250108 0.9993908270190958 0
0 65 0 1
65
0.01163526580139717 0.9999323080037622 0
0 66 0 1
66
-0.01163526580139682 0.9999323080037622 0
0 67 0 1
67
-0.03489949670250073 0.9993908270190958 0
0 68 0 1
68
-0.05814482891047577 0.9983081582712682 0
0 69 0 1
69
-0.08135867466785818 0.9966848880445061 0
0 70 0 1
70
-0.1045284632676533 0.9945218953682734 0
0 71 0 1
71
-0.1348509302737227 0.9908658973868824 0
0 72 0 1
72
-0.1650476058606777 0.9862856015372314 0
0 73 0 1
73
-0.1950903220161282 0.9807852804032304 0
0 74 0 1
74
-0.2249510543438648 0.9743700647852352 0
0 75 0 1
75
-0.2546019482055277 0.9670459389139431 0
0 76 0 1
76
-0.2840153447039226 0.9588197348681931 0
0 77 0 1
77
-0.306249179625408 0.9519513853021931 0
0 78 0 1
78
-0.328317175213561 0.9445675372676048 0
0 79 0 1
79
-0.3502073812594675 0.9366721892483976 0
0 80 0 1
80
-0.3719079438303867 0.9282696167148066 0
0 81 0 1
81
-0.3934071116888649 0.9193643698080892 0
0 82 0 1
82
-0.4146932426562388 0.9099612708765433 0
0 83 0 1
83
-0.4357548099170791 0.9000654118641213 0
0 84 0 1
84
-0.4565804082611655 0.8896821515530519 0
0 85 0 1
85
-0.4771587602596085 0.8788171126619654 0
0 86 0 1
86
-0.5037739770455263 0.8638355052043958 0
0 87 0 1
87
-0.5299192642332048 0.8480480961564261 0
0 88 0 1
88
-0.555570233019602 0.8314696123025453 0
0 89 0 1
89
-0.5807029557109398 0.8141155183563192 0
0 90 0 1
90
-0.6052939880428942 0.7960020025346222 0
0 91 0 1
91
-0.6293203910498373 0.777145961456971 0
0 92 0 1
92
-0.6472333724764323 0.762291913608418 0
0 93 0 1
93
-0.6647958656139379 0.7470250712409959 0
0 94 0 1
94
-0.6819983600624984 0.7313537016191706 0
0 95 0 1
95
-0.6988315403679001 0.7152862910660515 0
0 96 0 1
96
-0.7152862910660513 0.6988315403679002 0
0 97 0 1
97
-0.7313537016191705 0.6819983600624986 0
0 98 0 1
98
-0.7470250712409957 0.6647958656139381 0
0 99 0 1
99
-0.7622919136084179 0.6472333724764325 0
0 100 0 1
100
-0.7771459614569709 0.6293203910498374 0
0 101 0 1
101
-0.7960020025346219 0.6052939880428945 0
0 102 0 1
102
-0.8141155183563191 0.5807029557109399 0
0 103 0 1
103
-0.8314696123025453 0.5555702330196022 0
0 104 0 1
104
-0.848048096156426 0.529919264233205 0
0 105 0 1
105
-0.8638355052043957 0.5037739770455264 0
0 106 0 1
106
-0.8788171126619653 0.4771587602596086 0
0 107 0 1
107
-0.8896821515530517 0.4565804082611656 0
0 108 0 1
108
-0.9000654118641211 0.4357548099170793 0
0 109 0 1
109
-0.9099612708765431 0.4146932426562392 0
0 110 0 1
110
-0.9193643698080891 0.3934071116888651 0
0 111 0 1
111
-0.9282696167148066 0.3719079438303868 0
0 112 0 1
112
-0.9366721892483976 0.3502073812594675 0
0 113 0 1
113
-0.9445675372676047 0.3283171752135614 0
0 114 0 1
114
-0.9519513853021931 0.3062491796254082 0
0 115 0 1
115
-0.9588197348681931 0.2840153447039226 0
0 116 0 1
116
-0.9670459389139431 0.2546019482055277 0
0 117 0 1
117
-0.9743700647852351 0.2249510543438652 0
0 118 0 1
118
-0.9807852804032304 0.1950903220161286 0
0 119 0 1
119
-0.9862856015372314 0.1650476058606777 0
0 120 0 1
120
-0.9908658973868822 0.1348509302737232 0
0 121 0 1
121
-0.9945218953682733 0.1045284632676537 0
0 122 0 1
122
-0.9966848880445061 0.08135867466785837 0
0 123 0 1
123
-0.9983081582712682 0.05814482891047573 0
0 124 0 1
124
-0.9993908270190958 0.03489949670250114 0
0 125 0 1
125
-0.9999323080037622 0.011635265801397 0
0 126 0 1
126
-0.9999323080037622 -0.0116352658013972 0
0 127 0 1
127
-0.9993908270190958 -0.0348994967025009 0
0 128 0 1
128
-0.9983081582712682 -0.05814482891047593 0
0 129 0 1
129
-0.9966848880445061 -0.08135867466785901 0
0 130 0 1
130
-0.9945218953682733 -0.1045284632676535 0
0 131 0 1
131
-0.9908658973868822 -0.1348509302737229 0
0 132 0 1
132
-0.9862856015372314 -0.1650476058606774 0
0 133 0 1
133
-0.9807852804032304 -0.1950903220161284 0
0 134 0 1
134
-0.9743700647852352 -0.224951054343865 0
0 135 0 1
135
-0.9670459389139432 -0.2546019482055275 0
0 136 0 1
136
-0.9588197348681932 -0.2840153447039224 0
0 137 0 1
137
-0.9519513853021931 -0.3062491796254079 0
0 138 0 1
138
-0.9445675372676049 -0.3283171752135607 0
0 139 0 1
139
-0.9366721892483977 -0.3502073812594673 0
0 140 0 1
140
-0.9282696167148068 -0.3719079438303862 0
0 141 0 1
141
-0.919364369808089 -0.3934071116888653 0
0 142 0 1
142
-0.9099612708765432 -0.414693242656239 0
0 143 0 1
143
-0.9000654118641211 -0.4357548099170794 0
0 144 0 1
144
-0.8896821515530519 -0.4565804082611654 0
0 145 0 1
145
-0.8788171126619654 -0.4771587602596084 0
0 146 0 1
146
-0.8638355052043958 -0.5037739770455262 0
0 147 0 1
147
-0.8480480961564261 -0.5299192642332048 0
0 148 0 1
148
-0.8314696123025455 -0.555570233019602 0
0 149 0 1
149
-0.8141155183563192 -0.5807029557109398 0
0 150 0 1
150
-0.7960020025346222 -0.6052939880428942 0
0 151 0 1
151
-0.7771459614569711 -0.6293203910498373 0
0 152 0 1
152
-0.7622919136084181 -0.6472333724764323 0
0 153 0 1
153
-0.7470250712409962 -0.6647958656139376 0
0 154 0 1
154
-0.7313537016191706 -0.6819983600624984 0
0 155 0 1
155
-0.7152862910660518 -0.6988315403678996 0
0 156 0 1
156
-0.6988315403678999 -0.7152862910660516 0
0 157 0 1
157
-0.6819983600624986 -0.7313537016191703 0
0 158 0 1
158
-0.6647958656139378 -0.747025071240996 0
0 159 0 1
159
-0.6472333724764325 -0.7622919136084179 0
0 160 0 1
160
-0.6293203910498371 -0.7771459614569711 0
0 161 0 1
161
-0.6052939880428941 -0.7960020025346223 0
0 162 0 1
162
-0.5807029557109396 -0.8141155183563193 0
0 163 0 1
163
-0.5555702330196022 -0.8314696123025452 0
0 164 0 1
164
-0.529919264233205 -0.848048096156426 0
0 165 0 1
165
-0.5037739770455264 -0.8638355052043956 0
0 166 0 1
166
-0.4771587602596087 -0.8788171126619653 0
0 167 0 1
167
-0.4565804082611653 -0.8896821515530519 0
0 168 0 1
168
-0.4357548099170801 -0.9000654118641208 0
0 169 0 1
169
-0.4146932426562392 -0.9099612708765431 0
0 170 0 1
170
-0.3934071116888656 -0.9193643698080889 0
0 171 0 1
171
-0.3719079438303865 -0.9282696167148067 0
0 172 0 1
172
-0.3502073812594676 -0.9366721892483976 0
0 173 0 1
173
-0.3283171752135606 -0.9445675372676049 0
0 174 0 1
174
-0.3062491796254087 -0.9519513853021929 0
0 175 0 1
175
-0.2840153447039226 -0.9588197348681931 0
0 176 0 1
176
-0.2546019482055277 -0.9670459389139431 0
0 177 0 1
177
-0.2249510543438653 -0.9743700647852351 0
0 178 0 1
178
-0.1950903220161287 -0.9807852804032303 0
0 179 0 1
179
-0.1650476058606782 -0.9862856015372313 0
0 180 0 1
180
-0.1348509302737237 -0.9908658973868821 0
0 181 0 1
181
-0.1045284632676542 -0.9945218953682733 0
0 182 0 1
182
-0.08135867466785843 -0.9966848880445061 0
0 183 0 1
183
-0.05814482891047624 -0.9983081582712682 0
0 184 0 1
184
-0.03489949670250076 -0.9993908270190958 0
0 185 0 1
185
-0.01163526580139707 -0.9999323080037622 0
0 186 0 1
186
0.0116352658013967 -0.9999323080037622 0
0 187 0 1
187
0.03489949670250039 -0.9993908270190958 0
0 188 0 1
188
0.05814482891047587 -0.9983081582712682 0
0 189 0 1
189
0.08135867466785807 -0.9966848880445061 0
0 190 0 1
190
0.1045284632676539 -0.9945218953682733 0
0 191 0 1
191
0.1348509302737233 -0.9908658973868822 0
0 192 0 1
192
0.1650476058606778 -0.9862856015372313 0
0 193 0 1
193
0.1950903220161283 -0.9807852804032304 0
0 194 0 1
194
0.2249510543438649 -0.9743700647852352 0
0 195 0 1
195
0.2546019482055274 -0.9670459389139432 0
0 196 0 1
196
0.2840153447039223 -0.9588197348681932 0
0 197 0 1
197
0.3062491796254083 -0.951951385302193 0
0 198 0 1
198
0.3283171752135602 -0.944567537267605 0
0 199 0 1
199
0.3502073812594672 -0.9366721892483977 0
0 200 0 1
200
0.3719079438303862 -0.9282696167148068 0
0 201 0 1
201
0.3934071116888652 -0.9193643698080891 0
0 202 0 1
202
0.4146932426562389 -0.9099612708765432 0
0 203 0 1
203
0.4357548099170798 -0.9000654118641209 0
0 204 0 1
204
0.456580408261165 -0.8896821515530521 0
0 205 0 1
205
0.4771587602596083 -0.8788171126619654 0
0 206 0 1
206
0.5037739770455262 -0.8638355052043958 0
0 207 0 1
207
0.5299192642332047 -0.8480480961564262 0
0 208 0 1
208
0.5555702330196018 -0.8314696123025455 0
0 209 0 1
209
0.5807029557109393 -0.8141155183563196 0
0 210 0 1
210
0.6052939880428938 -0.7960020025346225 0
0 211 0 1
211
0.6293203910498368 -0.7771459614569713 0
0 212 0 1
212
0.6472333724764323 -0.7622919136084181 0
0 213 0 1
213
0.6647958656139376 -0.7470250712409963 0
0 214 0 1
214
0.6819983600624987 -0.7313537016191703 0
0 215 0 1
215
0.6988315403679 -0.7152862910660516 0
0 216 0 1
216
0.7152862910660512 -0.6988315403679002 0
0 217 0 1
217
0.73135370161917 -0.6819983600624989 0
0 218 0 1
218
0.747025071240996 -0.6647958656139379 0
0 219 0 1
219
0.7622919136084177 -0.6472333724764326 0
0 220 0 1
220
0.7771459614569711 -0.6293203910498372 0
0 221 0 1
221
0.7960020025346222 -0.6052939880428941 0
0 222 0 1
222
0.8141155183563192 -0.5807029557109397 0
0 223 0 1
223
0.8314696123025452 -0.5555702330196022 0
0 224 0 1
224
0.8480480961564258 -0.529919264233205 0
0 225 0 1
225
0.8638355052043956 -0.5037739770455265 0
0 226 0 1
226
0.8788171126619652 -0.4771587602596087 0
0 227 0 1
227
0.8896821515530519 -0.4565804082611654 0
0 228 0 1
228
0.9000654118641208 -0.4357548099170802 0
0 229 0 1
229
0.9099612708765431 -0.4146932426562393 0
0 230 0 1
230
0.9193643698080889 -0.3934071116888656 0
0 231 0 1
231
0.9282696167148067 -0.3719079438303866 0
0 232 0 1
232
0.9366721892483976 -0.3502073812594677 0
0 233 0 1
233
0.9445675372676049 -0.3283171752135606 0
0 234 0 1
234
0.9519513853021929 -0.3062491796254087 0
0 235 0 1
235
0.9588197348681931 -0.2840153447039227 0
0 236 0 1
236
0.9670459389139431 -0.2546019482055278 0
0 237 0 1
237
0.9743700647852351 -0.2249510543438653 0
0 238 0 1
238
0.9807852804032303 -0.1950903220161287 0
0 239 0 1
239
0.9862856015372313 -0.1650476058606782 0
0 240 0 1
240
0.9908658973868821 -0.1348509302737237 0
1 1 0 0
1 2 0 0
1 3 0 0
1 4 0 0
1 5 0 0
1 6 0 0
1 7 0 0
1 8 0 0
1 9 0 0
1 10 0 0
1 11 0 0
1 12 0 0
1 13 0 0
1 14 0 0
1 15 0 0
1 16 0 0
1 17 0 0
1 18 0 0
1 19 0 0
1 20 0 0
1 21 0 0
1 22 0 0
1 23 0 0
1 24 0 0
1 25 0 0
1 26 0 0
1 27 0 0
1 28 0 0
1 29 0 0
1 30 0 0
1 31 0 0
1 32 0 0
1 33 0 0
1 34 0 0
1 35 0 0
1 36 0 0
1 37 0 0
1 38 0 0
1 39 0 0
1 40 0 0
1 41 0 0
1 42 0 0
1 43 0 0
1 44 0 0
1 45 0 0
1 46 0 0
1 47 0 0
1 48 0 0
1 49 0 0
1 50 0 0
1 51 0 0
1 52 0 0
1 53 0 0
1 54 0 0
1 55 0 0
1 56 0 0
1 57 0 0
1 58 0 0
1 59 0 0
1 60 0 0
1 61 0 0
1 62 0 0
1 63 0 0
1 64 0 0
1 65 0 0
1 66 0 0
1 67 0 0
1 68 0 0
1 69 0 0
1 70 0 0
1 71 0 0
1 72 0 0
1 73 0 0
1 74 0 0
1 75 0 0
1 76 0 0
1 77 0 0
1 78 0 0
1 79 0 0
1 80 0 0
1 81 0 0
1 82 0 0
1 83 0 0
1 84 0 0
1 85 0 0
1 86 0 0
1 87 0 0
1 88 0 0
1 89 0 0
1 90 0 0
1 91 0 0
1 92 0 0
1 93 0 0
1 94 0 0
1 95 0 0
1 96 0 0
1 97 0 0
1 98 0 0
1 99 0 0
1 100 0 0
1 101 0 0
1 102 0 0
1 103 0 0
1 104 0 0
1 105 0 0
1 106 0 0
1 107 0 0
1 108 0 0
1 109 0 0
1 110 0 0
1 111 0 0
1 112 0 0
1 113 0 0
1 114 0 0
1 115 0 0
1 116 0 0
1 117 0 0
1 118 0 0
1 119 0 0
1 120 0 0
1 121 0 0
1 122 0 0
1 123 0 0
1 124 0 0
1 125 0 0
1 126 0 0
1 127 0 0
1 128 0 0
1 129 0 0
1 130 0 0
1 131 0 0
1 132 0 0
1 133 0 0
1 134 0 0
1 135 0 0
1 136 0 0
1 137 0 0
1 138 0 0
1 139 0 0
1 140 0 0
1 141 0 0
1 142 0 0
1 143 0 0
1 144 0 0
1 145 0 0
1 146 0 0
1 147 0 0
1 148 0 0
1 149 0 0
1 150 0 0
1 151 0 0
1 152 0 0
1 153 0 0
1 154 0 0
1 155 0 0
1 156 0 0
1 157 0 0
1 158 0 0
1 159 0 0
1 160 0 0
1 161 0 0
1 162 0 0
1 163 0 0
1 164 0 0
1 165 0 0
1 166 0 0
1 167 0 0
1 168 0 0
1 169 0 0
1 170 0 0
1 171 0 0
1 172 0 0
1 173 0 0
1 174 0 0
1 175 0 0
1 176 0 0
1 177 0 0
1 178 0 0
1 179 0 0
1 180 0 0
1 181 0 0
1 182 0 0
1 183 0 0
1 184 0 0
1 185 0 0
1 186 0 0
1 187 0 0
1 188 0 0
1 189 0 0
1 190 0 0
1 191 0 0
1 192 0 0
1 193 0 0
1 194 0 0
1 195 0 0
1 196 0 0
1 197 0 0
1 198 0 0
1 199 0 0
1 200 0 0
1 201 0 0
1 202 0 0
1 203 0 0
1 204 0 0
1 205 0 0
1 206 0 0
1 207 0 0
1 208 0 0
1 209 0 0
1 210 0 0
1 211 0 0
1 212 0 0
1 213 0 0
1 214 0 0
1 215 0 0
1 216 0 0
1 217 0 0
1 218 0 0
1 219 0 0
1 220 0 0
1 221 0 0
1 222 0 0
1 223 0 0
1 224 0 0
1 225 0 0
1 226 0 0
1 227 0 0
1 228 0 0
1 229 0 0
1 230 0 0
1 231 0 0
1 232 0 0
1 233 0 0
1 234 0 0
1 235 0 0
1 236 0 0
1 237 0 0
1 238 0 0
1 239 0 0
1 240 0 0
2 1 0 83
241
242
243
244
245
246
247
248
249
250
251
252
253
254
255
256
257
258
259
260
261
262
263
264
265
266
267
268
269
270
271
272
273
274
275
276
277
278
279
280
281
282
283
284
285
286
287
288
289
290
291
292
293
294
295
296
297
298
299
300
301
302
303
304
305
306
307
308
309
310
311
312
313
314
315
316
317
318
319
320
321
322
323
-0.3085793915242286 -0.9261787906747203 0
0.3085793915242285 0.92617879067472 0
0.92617879067472 -0.3085793915242286 0
-0.9261787906747203 0.3085793915242285 0
0.442894667697076 -0.8664975286085027 0
0.8664975286085027 0.4428946676970761 0
-0.8664975286085023 -0.4428946676970755 0
-0.4428946676970751 0.8664975286085019 0
0.07758707015994716 -0.9700277832635221 0
-0.6395234625831715 -0.7375894074448068 0
0.7407755669274863 -0.6310508800424961 0
-0.07758707015994677 0.9700277832635212 0
0.9700277832635216 0.07758707015994697 0
-0.7407755669274859 0.6310508800424959 0
0.631050880042496 0.7407755669274863 0
-0.9700277832635218 -0.07758707015994713 0
0.8433130173691051 -0.4855545208461237 0
0.2529734589185039 -0.9396512475706615 0
0.5933059656098695 -0.7713158037730281 0
-0.9649333068854323 0.1258719636830889 0
0.1258719636830889 0.9649333068854321 0
-0.4855545208461237 -0.8433130173691048 0
0.9649333068854318 -0.1258719636830891 0
0.7713158037730277 0.5933059656098698 0
-0.5933059656098687 0.7713158037730269 0
-0.8433130173691047 0.4855545208461234 0
-0.9396512475706611 -0.2529734589185037 0
0.4855545208461235 0.843313017369105 0
-0.1258719636830892 -0.9649333068854321 0
-0.7713158037730274 -0.5933059656098693 0
-0.2529734589185035 0.9396512475706607 0
0.9396512475706609 0.2529734589185037 0
-0.6595350222232602 0.6917882976932553 0
-0.4465886461020214 0.4910183483630611 0
0.8915221751390068 0.3445949877751894 0
0.6049595438462401 0.1968452017948671 0
-0.8708689128106482 0.3915420979929253 0
-0.3471296357616696 0.8937287393180521 0
0.6595350222232607 -0.6917882976932558 0
0.4485218702414602 -0.5020705193485223 0
-0.8906734411931729 -0.3469325913312365 0
-0.6104107779244565 -0.2363480500607572 0
-0.0228065098003112 -0.9555298830884873 0
-0.01826815138511798 -0.6628391388076443 0
0.6928569293841449 0.662721147173863 0
-0.6950048351466249 -0.6547412900707525 0
0.9585384503619839 -0.02130921595725172 0
0.3471296357616704 -0.8937287393180533 0
0.8708689128106483 -0.3915420979929257 0
-0.9585384503619843 0.02130921595725161 0
0.0228065098003114 0.9555298830884867 0
0.03786461290698347 0.672170324823401 0
-0.3915420979929257 -0.8708689128106483 0
0.3915420979929256 0.8708689128106482 0
-0.1742666788652019 0.8590703543508408 0
-0.4425122324459883 0.7608987488306382 0
0.9053901569350101 0.129805672901085 0
0.2309723038045627 0.8507070009748143 0
0.8450721885259624 -0.1625178900048138 0
0.7106927925694533 0.4809495527850994 0
-0.7120653515143812 -0.4848098981551655 0
0.5152679690505489 0.7390999685068484 0
-0.8765176181243197 -0.1223888620009514 0
-0.2146652603177708 -0.8354159260881514 0
-0.8523173942153041 0.1911869225199216 0
0.4434910808727738 -0.7677650212523068 0
-0.5153835543263727 -0.7262985348842488 0
0.7297287185931488 -0.4718520905247238 0
-0.7404066244025365 0.4861032223825883 0
0.1777230073313084 -0.8725466038543295 0
0.4541134968206448 -0.138799029626987 0
0.2542983775550162 0.1327722068434764 0
0.05621829210332712 -0.1210035043354561 0
-0.1249180039120048 0.2197169611014157 0
-0.2811311507268849 -0.4107659600564309 0
-0.3535640767232984 -0.05414561430572945 0
-0.5216428356751475 0.2200137879972409 0
0.2571249202397933 0.4730595524207747 0
0.04466831538549606 -0.4160548589252989 0
-0.1660846201635476 0.5148899159661171 0
0.2525223260644022 -0.3298745853681269 0
-0.6428905405325053 -0.000336363170055101 0
0.2247764080850538 -0.5918584545927048 0
$EndNodes
$Elements
241 644 1 644
1 1 1 1
1 1 2 
1 2 1 1
2 2 3 
1 3 1 1
3 3 4 
1 4 1 1
4 4 5 
1 5 1 1
5 5 6 
1 6 1 1
6 6 7 
1 7 1 1
7 7 8 
1 8 1 1
8 8 9 
1 9 1 1
9 9 10 
1 10 1 1
10 10 11 
1 11 1 1
11 11 12 
1 12 1 1
12 12 13 
1 13 1 1
13 13 14 
1 14 1 1
14 14 15 
1 15 1 1
15 15 16 
1 16 1 1
16 16 17 
1 17 1 1
17 17 18 
1 18 1 1
18 18 19 
1 19 1 1
19 19 20 
1 20 1 1
20 20 21 
1 21 1 1
21 21 22 
1 22 1 1
22 22 23 
1 23 1 1
23 23 24 
1 24 1 1
24 24 25 
1 25 1 1
25 25 26 
1 26 1 1
26 26 27 
1 27 1 1
27 27 28 
1 28 1 1
28 28 29 
1 29 1 1
29 29 30 
1 30 1 1
30 30 31 
1 31 1 1
31 31 32 
1 32 1 1
32 32 33 
1 33 1 1
33 33 34 
1 34 1 1
34 34 35 
1 35 1 1
35 35 36 
1 36 1 1
36 36 37 
1 37 1 1
37 37 38 
1 38 1 1
38 38 39 
1 39 1 1
39 39 40 
1 40 1 1
40 40 41 
1 41 1 1
41 41 42 
1 42 1 1
42 42 43 
1 43 1 1
43 43 44 
1 44 1 1
44 44 45 
1 45 1 1
45 45 46 
1 46 1 1
46 46 47 
1 47 1 1
47 47 48 
1 48 1 1
48 48 49 
1 49 1 1
49 49 50 
1 50 1 1
50 50 51 
1 51 1 1
51 51 52 
1 52 1 1
52 52 53 
1 53 1 1
53 53 54 
1 54 1 1
54 54 55 
1 55 1 1
55 55 56 
1 56 1 1
56 56 57 
1 57 1 1
57 57 58 
1 58 1 1
58 58 59 
1 59 1 1
59 59 60 
1 60 1 1
60 60 61 
1 61 1 1
61 61 62 
1 62 1 1
62 62 63 
1 63 1 1
63 63 64 
1 64 1 1
64 64 65 
1 65 1 1
65 65 66 
1 66 1 1
66 66 67 
1 67 1 1
67 67 68 
1 68 1 1
68 68 69 
1 69 1 1
69 69 70 
1 70 1 1
70 70 71 
1 71 1 1
71 71 72 
1 72 1 1
72 72 73 
1 73 1 1
73 73 74 
1 74 1 1
74 74 75 
1 75 1 1
75 75 76 
1 76 1 1
76 76 77 
1 77 1 1
77 77 78 
1 78 1 1
78 78 79 
1 79 1 1
79 79 80 
1 80 1 1
80 80 81 
1 81 1 1
81 81 82 
1 82 1 1
82 82 83 
1 83 1 1
83 83 84 
1 84 1 1
84 84 85 
1 85 1 1
85 85 86 
1 86 1 1
86 86 87 
1 87 1 1
87 87 88 
1 88 1 1
88 88 89 
1 89 1 1
89 89 90 
1 90 1 1
90 90 91 
1 91 1 1
91 91 92 
1 92 1 1
92 92 93 
1 93 1 1
93 93 94 
1 94 1 1
94 94 95 
1 95 1 1
95 95 96 
1 96 1 1
96 96 97 
1 97 1 1
97 97 98 
1 98 1 1
98 98 99 
1 99 1 1
99 99 100 
1 100 1 1
100 100 101 
1 101 1 1
101 101 102 
1 102 1 1
102 102 103 
1 103 1 1
103 103 104 
1 104 1 1
104 104 105 
1 105 1 1
105 105 106 
1 106 1 1
106 106 107 
1 107 1 1
107 107 108 
1 108 1 1
108 108 109 
1 109 1 1
109 109 110 
1 110 1 1
110 110 111 
1 111 1 1
111 111 112 
1 112 1 1
112 112 113 
1 113 1 1
113 113 114 
1 114 1 1
114 114 115 
1 115 1 1
115 115 116 
1 116 1 1
116 116 117 
1 117 1 1
117 117 118 
1 118 1 1
118 118 119 
1 119 1 1
119 119 120 
1 120 1 1
120 120 121 
1 121 1 1
121 121 122 
1 122 1 1
122 122 123 
1 123 1 1
123 123 124 
1 124 1 1
124 124 125 
1 125 1 1
125 125 126 
1 126 1 1
126 126 127 
1 127 1 1
127 127 128 
1 128 1 1
128 128 129 
1 129 1 1
129 129 130 
1 130 1 1
130 130 131 
1 131 1 1
131 131 132 
1 132 1 1
132 132 133 
1 133 1 1
133 133 134 
1 134 1 1
134 134 135 
1 135 1 1
135 135 136 
1 136 1 1
136 136 137 
1 137 1 1
137 137 138 
1 138 1 1
138 138 139 
1 139 1 1
139 139 140 
1 140 1 1
140 140 141 
1 141 1 1
141 141 142 
1 142 1 1
142 142 143 
1 143 1 1
143 143 144 
1 144 1 1
144 144 145 
1 145 1 1
145 145 146 
1 146 1 1
146 146 147 
1 147 1 1
147 147 148 
1 148 1 1
148 148 149 
1 149 1 1
149 149 150 
1 150 1 1
150 150 151 
1 151 1 1
151 151 152 
1 152 1 1
152 152 153 
1 153 1 1
153 153 154 
1 154 1 1
154 154 155 
1 155 1 1
155 155 156 
1 156 1 1
156 156 157 
1 157 1 1
157 157 158 
1 158 1 1
158 158 159 
1 159 1 1
159 159 160 
1 160 1 1
160 160 161 
1 161 1 1
161 161 162 
1 162 1 1
162 162 163 
1 163 1 1
163 163 164 
1 164 1 1
164 164 165 
1 165 1 1
165 165 166 
1 166 1 1
166 166 167 
1 167 1 1
167 167 168 
1 168 1 1
168 168 169 
1 169 1 1
169 169 170 
1 170 1 1
170 170 171 
1 171 1 1
171 171 172 
1 172 1 1
172 172 173 
1 173 1 1
173 173 174 
1 174 1 1
174 174 175 
1 175 1 1
175 175 176 
1 176 1 1
176 176 177 
1 177 1 1
177 177 178 
1 178 1 1
178 178 179 
1 179 1 1
179 179 180 
1 180 1 1
180 180 181 
1 181 1 1
181 181 182 
1 182 1 1
182 182 183 
1 183 1 1
183 183 184 
1 184 1 1
184 184 185 
1 185 1 1
185 185 186 
1 186 1 1
186 186 187 
1 187 1 1
187 187 188 
1 188 1 1
188 188 189 
1 189 1 1
189 189 190 
1 190 1 1
190 190 191 
1 191 1 1
191 191 192 
1 192 1 1
192 192 193 
1 193 1 1
193 193 194 
1 194 1 1
194 194 195 
1 195 1 1
195 195 196 
1 196 1 1
196 196 197 
1 197 1 1
197 197 198 
1 198 1 1
198 198 199 
1 199 1 1
199 199 200 
1 200 1 1
200 200 201 
1 201 1 1
201 201 202 
1 202 1 1
202 202 203 
1 203 1 1
203 203 204 
1 204 1 1
204 204 205 
1 205 1 1
205 205 206 
1 206 1 1
206 206 207 
1 207 1 1
207 207 208 
1 208 1 1
208 208 209 
1 209 1 1
209 209 210 
1 210 1 1
210 210 211 
1 211 1 1
211 211 212 
1 212 1 1
212 212 213 
1 213 1 1
213 213 214 
1 214 1 1
214 214 215 
1 215 1 1
215 215 216 
1 216 1 1
216 216 217 
1 217 1 1
217 217 218 
1 218 1 1
218 218 219 
1 219 1 1
219 219 220 
1 220 1 1
220 220 221 
1 221 1 1
221 221 222 
1 222 1 1
222 222 223 
1 223 1 1
223 223 224 
1 224 1 1
224 224 225 
1 225 1 1
225 225 226 
1 226 1 1
226 226 227 
1 227 1 1
227 227 228 
1 228 1 1
228 228 229 
1 229 1 1
229 229 230 
1 230 1 1
230 230 231 
1 231 1 1
231 231 232 
1 232 1 1
232 232 233 
1 233 1 1
233 233 234 
1 234 1 1
234 234 235 
1 235 1 1
235 235 236 
1 236 1 1
236 236 237 
1 237 1 1
237 237 238 
1 238 1 1
238 238 239 
1 239 1 1
239 239 240 
1 240 1 1
240 240 1 
2 1 2 404
241 276 299 297 
242 318 320 314 
243 300 318 276 
244 276 311 299 
245 312 318 314 
246 299 311 308 
247 304 315 307 
248 307 315 301 
249 276 318 312 
250 313 316 315 
251 302 318 300 
252 292 320 318 
253 284 315 304 
254 308 311 280 
255 301 315 282 
256 274 317 314 
257 315 319 313 
258 314 320 274 
259 74 271 73 
260 44 268 43 
261 239 263 238 
262 149 270 148 
263 119 260 118 
264 14 272 13 
265 29 264 28 
266 59 261 58 
267 89 265 88 
268 104 266 103 
269 224 257 223 
270 134 267 133 
271 179 269 178 
272 194 258 193 
273 164 262 163 
274 209 259 208 
275 276 312 311 
276 314 317 316 
277 314 316 313 
278 87 296 86 
279 147 301 146 
280 72 295 71 
281 12 297 11 
282 27 300 26 
283 207 306 206 
284 237 299 236 
285 132 303 131 
286 57 298 56 
287 102 309 101 
288 162 307 161 
289 117 305 116 
290 177 304 176 
291 42 302 41 
292 192 310 191 
293 222 308 221 
294 312 314 313 
295 312 313 311 
296 88 296 87 
297 148 301 147 
298 73 295 72 
299 13 297 12 
300 208 306 207 
301 238 299 237 
302 28 300 27 
303 133 303 132 
304 58 298 57 
305 103 309 102 
306 163 307 162 
307 118 305 117 
308 178 304 177 
309 193 310 192 
310 43 302 42 
311 223 308 222 
312 315 316 282 
313 296 320 295 
314 311 321 280 
315 298 318 302 
316 284 319 315 
317 313 321 311 
318 274 320 296 
319 305 317 309 
320 317 322 316 
321 306 323 310 
322 303 322 305 
323 316 322 282 
324 206 245 205 
325 236 243 235 
326 161 250 160 
327 176 241 175 
328 191 249 190 
329 221 251 220 
330 146 247 145 
331 101 254 100 
332 41 255 40 
333 116 244 115 
334 86 248 85 
335 11 253 10 
336 26 246 25 
337 131 256 130 
338 71 252 70 
339 56 242 55 
340 295 320 292 
341 292 318 298 
342 285 302 300 
343 304 307 293 
344 305 309 277 
345 286 307 301 
346 299 308 289 
347 298 302 294 
348 303 305 290 
349 306 310 288 
350 297 299 287 
351 278 296 295 
352 305 322 317 
353 279 308 280 
354 275 300 276 
355 273 309 274 
356 283 310 284 
357 291 295 292 
358 232 243 231 
359 172 241 171 
360 183 283 182 
361 108 277 107 
362 142 281 141 
363 198 288 197 
364 127 290 126 
365 52 242 51 
366 213 279 212 
367 228 289 227 
368 33 285 32 
369 153 286 152 
370 7 287 6 
371 97 273 96 
372 157 250 156 
373 168 293 167 
374 138 281 137 
375 202 288 201 
376 22 275 21 
377 112 244 111 
378 67 291 66 
379 93 273 92 
380 3 287 2 
381 63 291 62 
382 123 290 122 
383 82 278 81 
384 37 285 36 
385 217 279 216 
386 187 283 186 
387 48 294 47 
388 18 275 17 
389 78 278 77 
390 282 303 281 
391 309 317 274 
392 276 297 275 
393 292 298 291 
394 280 306 279 
395 284 304 283 
396 274 296 273 
397 281 301 282 
398 284 323 319 
399 321 323 280 
400 319 323 321 
401 319 321 313 
402 280 323 306 
403 282 322 303 
404 310 323 284 
405 251 308 279 
406 255 302 285 
407 244 305 277 
408 254 309 273 
409 250 307 286 
410 246 300 275 
411 249 310 283 
412 242 298 294 
413 253 297 287 
414 252 295 291 
415 256 303 290 
416 241 304 293 
417 243 299 289 
418 247 301 281 
419 245 306 288 
420 248 296 278 
421 273 296 265 
422 286 301 270 
423 279 306 259 
424 278 295 271 
425 275 297 272 
426 281 303 267 
427 283 304 269 
428 288 310 258 
429 293 307 262 
430 287 299 263 
431 291 298 261 
432 277 309 266 
433 285 300 264 
434 290 305 260 
435 289 308 257 
436 294 302 268 
437 86 296 248 
438 146 301 247 
439 71 295 252 
440 11 297 253 
441 206 306 245 
442 236 299 243 
443 26 300 246 
444 101 309 254 
445 56 298 242 
446 131 303 256 
447 161 307 250 
448 176 304 241 
449 116 305 244 
450 41 302 255 
451 191 310 249 
452 221 308 251 
453 265 296 88 
454 270 301 148 
455 271 295 73 
456 272 297 13 
457 259 306 208 
458 264 300 28 
459 263 299 238 
460 267 303 133 
461 261 298 58 
462 266 309 103 
463 262 307 163 
464 260 305 118 
465 269 304 178 
466 258 310 193 
467 268 302 43 
468 257 308 223 
469 182 283 269 
470 107 277 266 
471 212 279 259 
472 2 287 263 
473 92 273 265 
474 227 289 257 
475 32 285 264 
476 122 290 260 
477 197 288 258 
478 137 281 267 
479 62 291 261 
480 167 293 262 
481 77 278 271 
482 17 275 272 
483 47 294 268 
484 152 286 270 
485 245 288 202 
486 243 289 231 
487 241 293 171 
488 256 290 127 
489 250 286 156 
490 251 279 217 
491 247 281 142 
492 249 283 187 
493 248 278 82 
494 242 294 51 
495 252 291 67 
496 253 287 7 
497 246 275 22 
498 254 273 97 
499 244 277 111 
500 255 285 37 
501 240 263 239 
502 165 262 164 
503 75 271 74 
504 45 268 44 
505 15 272 14 
506 60 261 59 
507 180 269 179 
508 90 265 89 
509 150 270 149 
510 30 264 29 
511 120 260 119 
512 195 258 194 
513 225 257 224 
514 135 267 134 
515 210 259 209 
516 105 266 104 
517 2 263 1 
518 212 259 211 
519 227 257 226 
520 197 258 196 
521 182 269 181 
522 62 261 61 
523 107 266 106 
524 32 264 31 
525 122 260 121 
526 17 272 16 
527 137 267 136 
528 92 265 91 
529 167 262 166 
530 77 271 76 
531 47 268 46 
532 152 270 151 
533 128 256 127 
534 229 289 228 
535 156 286 155 
536 199 288 198 
537 169 293 168 
538 109 277 108 
539 34 285 33 
540 184 283 183 
541 126 290 125 
542 188 249 187 
543 160 250 159 
544 81 278 80 
545 83 248 82 
546 190 249 189 
547 171 293 170 
548 40 255 39 
549 68 252 67 
550 139 281 138 
551 100 254 99 
552 8 253 7 
553 51 294 50 
554 220 251 219 
555 201 288 200 
556 25 246 24 
557 231 289 230 
558 98 254 97 
559 6 287 5 
560 115 244 114 
561 85 248 84 
562 94 273 93 
563 53 242 52 
564 19 275 18 
565 216 279 215 
566 141 281 140 
567 218 251 217 
568 49 294 48 
569 158 250 157 
570 21 275 20 
571 70 252 69 
572 214 279 213 
573 145 247 144 
574 96 273 95 
575 10 253 9 
576 66 291 65 
577 4 287 3 
578 23 246 22 
579 64 291 63 
580 113 244 112 
581 154 286 153 
582 143 247 142 
583 124 290 123 
584 79 278 78 
585 130 256 129 
586 186 283 185 
587 55 242 54 
588 38 255 37 
589 111 277 110 
590 203 245 202 
591 173 241 172 
592 233 243 232 
593 205 245 204 
594 175 241 174 
595 235 243 234 
596 36 285 35 
597 1 263 240 
598 31 264 30 
599 166 262 165 
600 61 261 60 
601 211 259 210 
602 196 258 195 
603 181 269 180 
604 16 272 15 
605 46 268 45 
606 91 265 90 
607 106 266 105 
608 136 267 135 
609 121 260 120 
610 226 257 225 
611 151 270 150 
612 76 271 75 
613 129 256 128 
614 39 255 38 
615 114 244 113 
616 84 248 83 
617 125 290 124 
618 99 254 98 
619 54 242 53 
620 20 275 19 
621 80 278 79 
622 5 287 4 
623 50 294 49 
624 9 253 8 
625 65 291 64 
626 24 246 23 
627 35 285 34 
628 69 252 68 
629 215 279 214 
630 144 247 143 
631 95 273 94 
632 219 251 218 
633 185 283 184 
634 110 277 109 
635 140 281 139 
636 189 249 188 
637 159 250 158 
638 170 293 169 
639 155 286 154 
640 200 288 199 
641 230 289 229 
642 174 241 173 
643 204 245 203 
644 234 243 233 
$EndElements
